<svg xmlns="http://www.w3.org/2000/svg" viewBox="0 0 246.53 379.26"><defs><style>.cls-1{fill:#333;}.cls-2{fill:#f8e2e2;}.cls-3{fill:none;stroke:#ee6a5a;stroke-linecap:round;stroke-linejoin:round;stroke-width:0.5px;}.cls-4{fill:#fff;}</style></defs><title>74 armas</title><g id="Layer_2" data-name="Layer 2"><g id="Layer_1-2" data-name="Layer 1"><path class="cls-1" d="M8,215.85a6.92,6.92,0,0,1,1.32.24,3,3,0,0,1,0,.86H5a2.31,2.31,0,0,1,.25-.81,7.2,7.2,0,0,1,1.16-.34V205H5.14a2,2,0,0,1,.32-1,5,5,0,0,1,1.63-.25,3.8,3.8,0,0,1,.92.11v3.47c0,.74,0,1.52-.09,2.26H8.1a2.93,2.93,0,0,1,2.84-1.54c1.45,0,2.73.46,2.73,3.25,0,1.51,0,3-.11,4.51a8.36,8.36,0,0,1,1.47.24,3,3,0,0,1,.05.56,1.51,1.51,0,0,1,0,.3H10.78a2.31,2.31,0,0,1,.25-.81,6.54,6.54,0,0,1,1-.34v-4.21c0-1.39-.45-2.27-1.73-2.27A3.3,3.3,0,0,0,8,210.47Z"/><path class="cls-1" d="M21.32,215.89a2.79,2.79,0,0,1-2.53,1.37,2.36,2.36,0,0,1-2.57-2.41c0-1.86,1.57-2.81,3.36-2.81a4.75,4.75,0,0,1,1.69.3v-1c0-1.33-.58-2-1.72-2a5.65,5.65,0,0,0-2.64.89,1.43,1.43,0,0,1-.09-.61,2,2,0,0,1,.2-.91,7.39,7.39,0,0,1,2.94-.63c2,0,2.84,1,2.84,3.43V215A1.6,1.6,0,0,0,23,216a5.68,5.68,0,0,0,1.25-.22,1.41,1.41,0,0,1,0,.2,1.89,1.89,0,0,1-.18.81,4.64,4.64,0,0,1-1.95.52,1.91,1.91,0,0,1-.76-1.37Zm0-2.75A5.87,5.87,0,0,0,20,213c-1.41,0-2.21.63-2.21,1.59A1.46,1.46,0,0,0,19.46,216a2.25,2.25,0,0,0,1.82-.89Z"/><path class="cls-1" d="M28.21,215.85a6.64,6.64,0,0,1,1.32.24,3,3,0,0,1,0,.86H25.23a2.31,2.31,0,0,1,.25-.81,6.91,6.91,0,0,1,1.16-.34v-6.39H25.32a1.92,1.92,0,0,1,.32-.95,4.43,4.43,0,0,1,1.5-.26,3.18,3.18,0,0,1,.85.11v1.32h.18a3.25,3.25,0,0,1,2.91-1.54c1.43,0,2.7.46,2.7,3.25,0,1.51,0,3-.11,4.51a8.08,8.08,0,0,1,1.46.24,2.29,2.29,0,0,1,.06.56,1.51,1.51,0,0,1,0,.3H30.88a2.56,2.56,0,0,1,.26-.81,6.54,6.54,0,0,1,1-.34v-4.21c0-1.39-.43-2.27-1.7-2.27a3.22,3.22,0,0,0-2.26,1.15Z"/><path class="cls-1" d="M44.56,209.25a2.93,2.93,0,0,0-1.07-.22c-.94,0-1.48.43-1.48,1.1,0,2,4.21,1.4,4.21,4.54,0,1.87-1.57,2.59-3.26,2.59a5.51,5.51,0,0,1-2.76-.68,3.69,3.69,0,0,1-.09-.87,5.26,5.26,0,0,1,.18-1.28,5.64,5.64,0,0,1,1.3.16v1.25a2.88,2.88,0,0,0,1.52.41,1.37,1.37,0,0,0,1.52-1.35c0-2.14-4.25-1.37-4.25-4.56,0-1.31,1.21-2.25,3-2.25a7.1,7.1,0,0,1,2.55.47,2.46,2.46,0,0,1,0,.56,5.85,5.85,0,0,1-.2,1.46,2.63,2.63,0,0,1-1.21-.27Z"/><path class="cls-1" d="M47.74,209.41a2,2,0,0,1,.32-.95,5.15,5.15,0,0,1,1.63-.26,3.91,3.91,0,0,1,.94.11v7.53a7.74,7.74,0,0,1,1.43.25,2.33,2.33,0,0,1,0,.56c0,.11,0,.19,0,.3H47.65a2.54,2.54,0,0,1,.25-.81,7.2,7.2,0,0,1,1.16-.34v-6.39Zm3.16-4.2a1,1,0,0,1-1,1.07.94.94,0,0,1-1-1.07,1,1,0,0,1,1-1A.93.93,0,0,1,50.9,205.21Z"/><path class="cls-1" d="M59.4,205H58.1a2.12,2.12,0,0,1,.33-1,5.41,5.41,0,0,1,1.62-.25,3.89,3.89,0,0,1,.93.11v10.68a4.71,4.71,0,0,0,.14,1.27h1.36a2.18,2.18,0,0,1,0,.24,2.3,2.3,0,0,1-.14.72,9.94,9.94,0,0,1-2.44.36,3.09,3.09,0,0,1-.36-1.3h-.09a2.94,2.94,0,0,1-2.72,1.39c-1.57,0-3.36-1.08-3.36-4.34,0-2.9,1.79-4.83,4.38-4.83a3.12,3.12,0,0,1,1.64.44Zm0,4.43a4.67,4.67,0,0,0-1.5-.25c-2,0-2.89,1.4-2.89,3.49S56,216,57.36,216A2.37,2.37,0,0,0,59.42,215Z"/><path class="cls-1" d="M72,212.54c0,3-1.61,4.72-4.1,4.72s-4.13-1.62-4.13-4.72c0-2.75,1.78-4.45,4.13-4.45S72,209.68,72,212.54Zm-4.1,3.64c1.66,0,2.46-1.41,2.46-3.64,0-1.92-1-3.38-2.46-3.38s-2.48,1.35-2.48,3.38C65.37,214.74,66.31,216.18,67.85,216.18Z"/><path class="cls-1" d="M81.48,215.89c.09-.41.29-1.17.42-1.55L83,211.16a13.74,13.74,0,0,1,.67-1.61,4.43,4.43,0,0,1-1.06-.23,3.06,3.06,0,0,1-.15-.92h3.42a3.54,3.54,0,0,1-.18,1,4.24,4.24,0,0,1-.85.16L82,217l-1.64.18-2.68-7.55a4.51,4.51,0,0,1-.92-.3,4,4,0,0,1-.18-.94h4.05a4,4,0,0,1-.14.95,8.17,8.17,0,0,1-1.29.2,10.66,10.66,0,0,1,.65,1.53L81,214.41c.11.33.29,1.09.37,1.48Z"/><path class="cls-1" d="M88.26,212.88A2.9,2.9,0,0,0,91.21,216a8.36,8.36,0,0,0,2.53-.5,1.92,1.92,0,0,1-.23,1,6.27,6.27,0,0,1-2.86.74c-2.58,0-4.07-1.93-4.07-4.41,0-2.65,1.65-4.76,4.18-4.76,2.17,0,3.09,1.57,3.09,3.84,0,.31,0,.63,0,.95Zm4-1c.13-1.24-.23-2.75-1.75-2.75-1.29,0-2.12,1.11-2.23,2.75Z"/><path class="cls-1" d="M98.34,215.85a6.64,6.64,0,0,1,1.32.24,2.72,2.72,0,0,1,0,.86H95.35a2.56,2.56,0,0,1,.26-.81,7.08,7.08,0,0,1,1.15-.34v-6.39H95.44a2,2,0,0,1,.33-.95,4.43,4.43,0,0,1,1.5-.26,3.18,3.18,0,0,1,.85.11v1.32h.18a3.23,3.23,0,0,1,2.91-1.54c1.43,0,2.7.46,2.7,3.25,0,1.51,0,3-.11,4.51a8.08,8.08,0,0,1,1.46.24,2.29,2.29,0,0,1,.06.56,1.51,1.51,0,0,1,0,.3H101a2.56,2.56,0,0,1,.26-.81,6.54,6.54,0,0,1,1-.34v-4.21c0-1.39-.44-2.27-1.7-2.27a3.2,3.2,0,0,0-2.26,1.15Z"/><path class="cls-1" d="M112.53,205h-1.3a2.11,2.11,0,0,1,.32-1,5.53,5.53,0,0,1,1.63-.25,3.74,3.74,0,0,1,.92.11v10.68a4.71,4.71,0,0,0,.15,1.27h1.36a2.18,2.18,0,0,1,0,.24,2.3,2.3,0,0,1-.14.72,9.94,9.94,0,0,1-2.44.36,3.09,3.09,0,0,1-.36-1.3h-.09a2.94,2.94,0,0,1-2.72,1.39c-1.57,0-3.36-1.08-3.36-4.34,0-2.9,1.79-4.83,4.38-4.83a3.15,3.15,0,0,1,1.64.44Zm0,4.43a4.67,4.67,0,0,0-1.5-.25c-2,0-2.89,1.4-2.89,3.49s1,3.37,2.33,3.37a2.37,2.37,0,0,0,2.06-1.09Z"/><path class="cls-1" d="M116.73,209.41a2,2,0,0,1,.32-.95,5.15,5.15,0,0,1,1.63-.26,3.91,3.91,0,0,1,.94.11v7.53a7.74,7.74,0,0,1,1.43.25,3,3,0,0,1,0,.56,1.51,1.51,0,0,1,0,.3h-4.44a2.31,2.31,0,0,1,.25-.81,7.2,7.2,0,0,1,1.16-.34v-6.39Zm3.16-4.2a1,1,0,0,1-1,1.07.94.94,0,0,1-1-1.07,1,1,0,0,1,1-1A.93.93,0,0,1,119.89,205.21Z"/><path class="cls-1" d="M128.39,205h-1.3a2.11,2.11,0,0,1,.32-1,5.53,5.53,0,0,1,1.63-.25,3.74,3.74,0,0,1,.92.11v10.68a4.71,4.71,0,0,0,.15,1.27h1.35a1.1,1.1,0,0,1,0,.24,2.3,2.3,0,0,1-.14.72,9.94,9.94,0,0,1-2.44.36,3.09,3.09,0,0,1-.36-1.3h-.09a3,3,0,0,1-2.72,1.39c-1.57,0-3.36-1.08-3.36-4.34,0-2.9,1.79-4.83,4.38-4.83a3.15,3.15,0,0,1,1.64.44Zm0,4.43a4.71,4.71,0,0,0-1.5-.25c-2,0-2.9,1.4-2.9,3.49s1,3.37,2.34,3.37a2.37,2.37,0,0,0,2.06-1.09Z"/><path class="cls-1" d="M137.76,215.89a2.79,2.79,0,0,1-2.53,1.37,2.36,2.36,0,0,1-2.57-2.41c0-1.86,1.57-2.81,3.36-2.81a4.66,4.66,0,0,1,1.68.3v-1c0-1.33-.58-2-1.71-2a5.65,5.65,0,0,0-2.64.89,1.43,1.43,0,0,1-.09-.61,2.17,2.17,0,0,1,.19-.91,7.48,7.48,0,0,1,3-.63c2,0,2.84,1,2.84,3.43V215a1.6,1.6,0,0,0,.24.94,5.51,5.51,0,0,0,1.24-.22.71.71,0,0,1,0,.2,1.89,1.89,0,0,1-.18.81,4.64,4.64,0,0,1-1.95.52,1.91,1.91,0,0,1-.76-1.37Zm0-2.75a5.87,5.87,0,0,0-1.26-.15c-1.41,0-2.21.63-2.21,1.59A1.46,1.46,0,0,0,135.9,216a2.25,2.25,0,0,0,1.82-.89Z"/><path class="cls-1" d="M146.35,209.25a2.93,2.93,0,0,0-1.07-.22c-.94,0-1.48.43-1.48,1.1,0,2,4.21,1.4,4.21,4.54,0,1.87-1.57,2.59-3.25,2.59a5.55,5.55,0,0,1-2.77-.68,4.31,4.31,0,0,1-.09-.87,5.26,5.26,0,0,1,.18-1.28,5.64,5.64,0,0,1,1.3.16v1.25a2.88,2.88,0,0,0,1.52.41,1.37,1.37,0,0,0,1.52-1.35c0-2.14-4.25-1.37-4.25-4.56,0-1.31,1.21-2.25,3-2.25a7.1,7.1,0,0,1,2.55.47,2.46,2.46,0,0,1,0,.56,5.85,5.85,0,0,1-.2,1.46,2.63,2.63,0,0,1-1.21-.27Z"/><path class="cls-1" d="M158.81,209.41a2.37,2.37,0,0,0-1.05-.27c-1.56,0-2.68,1-2.68,3.38s1.19,3.5,2.82,3.5a7.94,7.94,0,0,0,2.23-.43,2.18,2.18,0,0,1-.26,1,6.28,6.28,0,0,1-2.67.65c-2.34,0-3.84-1.87-3.84-4.39,0-2.79,1.79-4.78,4.43-4.78a4.41,4.41,0,0,1,2.37.65c0,.18,0,.47,0,.65a4.35,4.35,0,0,1-.25,1.53,3.13,3.13,0,0,1-1.14-.23Z"/><path class="cls-1" d="M166.83,215.89a2.77,2.77,0,0,1-2.53,1.37,2.35,2.35,0,0,1-2.56-2.41c0-1.86,1.57-2.81,3.36-2.81a4.66,4.66,0,0,1,1.68.3v-1c0-1.33-.58-2-1.72-2a5.73,5.73,0,0,0-2.64.89,1.6,1.6,0,0,1-.09-.61,2,2,0,0,1,.2-.91,7.48,7.48,0,0,1,2.95-.63c2,0,2.84,1,2.84,3.43V215a1.69,1.69,0,0,0,.23.94,5.58,5.58,0,0,0,1.25-.22.71.71,0,0,1,0,.2,1.89,1.89,0,0,1-.18.81,4.64,4.64,0,0,1-2,.52,1.9,1.9,0,0,1-.75-1.37Zm0-2.75a6,6,0,0,0-1.27-.15c-1.41,0-2.2.63-2.2,1.59A1.45,1.45,0,0,0,165,216a2.25,2.25,0,0,0,1.83-.89Z"/><path class="cls-1" d="M177,205h-1.3a2.11,2.11,0,0,1,.32-1,5.48,5.48,0,0,1,1.63-.25,3.74,3.74,0,0,1,.92.11v10.68a4.71,4.71,0,0,0,.15,1.27h1.35a1.1,1.1,0,0,1,0,.24,2.3,2.3,0,0,1-.14.72,10,10,0,0,1-2.44.36,3.24,3.24,0,0,1-.37-1.3H177a2.92,2.92,0,0,1-2.71,1.39c-1.57,0-3.36-1.08-3.36-4.34,0-2.9,1.79-4.83,4.37-4.83a3.16,3.16,0,0,1,1.65.44Zm0,4.43a4.71,4.71,0,0,0-1.5-.25c-2,0-2.9,1.4-2.9,3.49s1,3.37,2.34,3.37A2.37,2.37,0,0,0,177,215Z"/><path class="cls-1" d="M186.35,215.89a2.79,2.79,0,0,1-2.53,1.37,2.36,2.36,0,0,1-2.57-2.41c0-1.86,1.57-2.81,3.36-2.81a4.66,4.66,0,0,1,1.68.3v-1c0-1.33-.58-2-1.71-2a5.73,5.73,0,0,0-2.65.89,1.6,1.6,0,0,1-.09-.61,2,2,0,0,1,.2-.91,7.48,7.48,0,0,1,3-.63c2,0,2.84,1,2.84,3.43V215a1.69,1.69,0,0,0,.23.94,5.49,5.49,0,0,0,1.25-.22.71.71,0,0,1,0,.2,1.89,1.89,0,0,1-.18.81,4.64,4.64,0,0,1-2,.52,1.88,1.88,0,0,1-.76-1.37Zm0-2.75A5.88,5.88,0,0,0,185,213c-1.41,0-2.2.63-2.2,1.59a1.46,1.46,0,0,0,1.64,1.44,2.25,2.25,0,0,0,1.83-.89Z"/><path class="cls-1" d="M200.2,205h-1.3a2,2,0,0,1,.32-1,5.48,5.48,0,0,1,1.63-.25,3.8,3.8,0,0,1,.92.11v10.68a4.71,4.71,0,0,0,.15,1.27h1.35a1.1,1.1,0,0,1,0,.24,2.3,2.3,0,0,1-.14.72,10,10,0,0,1-2.45.36,3.41,3.41,0,0,1-.36-1.3h-.09a2.92,2.92,0,0,1-2.71,1.39c-1.57,0-3.36-1.08-3.36-4.34,0-2.9,1.79-4.83,4.37-4.83a3.16,3.16,0,0,1,1.65.44Zm0,4.43a4.71,4.71,0,0,0-1.5-.25c-2,0-2.9,1.4-2.9,3.49s1,3.37,2.34,3.37a2.38,2.38,0,0,0,2.06-1.09Z"/><path class="cls-1" d="M204.39,209.41a2,2,0,0,1,.33-.95,5.15,5.15,0,0,1,1.63-.26,4,4,0,0,1,.94.11v7.53a7.74,7.74,0,0,1,1.43.25,3,3,0,0,1,.05.56,1.91,1.91,0,0,1,0,.3H204.3a2.56,2.56,0,0,1,.26-.81,7.08,7.08,0,0,1,1.15-.34v-6.39Zm1.88-2.16a2.53,2.53,0,0,1-.92-.78l2-2.8a3.67,3.67,0,0,1,1.59.63Z"/><path class="cls-1" d="M215.08,215.89a2.79,2.79,0,0,1-2.53,1.37,2.36,2.36,0,0,1-2.57-2.41c0-1.86,1.58-2.81,3.37-2.81a4.7,4.7,0,0,1,1.68.3v-1c0-1.33-.58-2-1.72-2a5.65,5.65,0,0,0-2.64.89,1.6,1.6,0,0,1-.09-.61,2,2,0,0,1,.2-.91,7.43,7.43,0,0,1,2.94-.63c2,0,2.84,1,2.84,3.43V215a1.6,1.6,0,0,0,.24.94,5.68,5.68,0,0,0,1.25-.22,1.41,1.41,0,0,1,0,.2,1.89,1.89,0,0,1-.18.81,4.55,4.55,0,0,1-1.95.52,1.94,1.94,0,0,1-.76-1.37Zm0-2.75a5.87,5.87,0,0,0-1.26-.15c-1.41,0-2.21.63-2.21,1.59a1.46,1.46,0,0,0,1.65,1.44,2.25,2.25,0,0,0,1.82-.89Z"/><path class="cls-1" d="M224.59,212.88a2.9,2.9,0,0,0,2.95,3.12,8.36,8.36,0,0,0,2.53-.5,1.92,1.92,0,0,1-.23,1,6.27,6.27,0,0,1-2.86.74c-2.59,0-4.07-1.93-4.07-4.41,0-2.65,1.65-4.76,4.18-4.76,2.17,0,3.09,1.57,3.09,3.84,0,.31,0,.63-.05.95Zm4-1c.13-1.24-.23-2.75-1.75-2.75-1.29,0-2.12,1.11-2.23,2.75Z"/><path class="cls-1" d="M234.67,215.85a6.64,6.64,0,0,1,1.32.24,2.72,2.72,0,0,1,0,.86h-4.34a2.82,2.82,0,0,1,.25-.81,7.2,7.2,0,0,1,1.16-.34v-6.39h-1.32a2,2,0,0,1,.33-.95,4.43,4.43,0,0,1,1.5-.26,3.18,3.18,0,0,1,.85.11v1.32h.18a3.23,3.23,0,0,1,2.91-1.54c1.43,0,2.69.46,2.69,3.25,0,1.51,0,3-.1,4.51a8.23,8.23,0,0,1,1.46.24,2.33,2.33,0,0,1,0,.56c0,.11,0,.19,0,.3h-4.29a2.82,2.82,0,0,1,.25-.81,7.31,7.31,0,0,1,1-.34v-4.21c0-1.39-.43-2.27-1.69-2.27a3.18,3.18,0,0,0-2.26,1.15Z"/><path class="cls-1" d="M5.05,239.88A2.9,2.9,0,0,0,8,243a8.36,8.36,0,0,0,2.53-.5,1.92,1.92,0,0,1-.23,1,6.27,6.27,0,0,1-2.86.74c-2.58,0-4.07-1.93-4.07-4.41,0-2.65,1.65-4.76,4.18-4.76,2.17,0,3.09,1.57,3.09,3.84,0,.31,0,.63-.05.95Zm4-1c.13-1.24-.23-2.75-1.75-2.75-1.28,0-2.12,1.11-2.23,2.75Z"/><path class="cls-1" d="M12.07,232a2.12,2.12,0,0,1,.33-1,5.41,5.41,0,0,1,1.62-.25,3.89,3.89,0,0,1,.93.11v11.94a8.08,8.08,0,0,1,1.46.25,2.33,2.33,0,0,1,.05.56c0,.11,0,.19,0,.3H12a2.56,2.56,0,0,1,.26-.81,6.79,6.79,0,0,1,1.15-.34V232Z"/><path class="cls-1" d="M24.19,242.85a6.64,6.64,0,0,1,1.32.24,2.72,2.72,0,0,1,0,.86H21.2a2.56,2.56,0,0,1,.26-.81,7.08,7.08,0,0,1,1.15-.34v-6.39H21.29a2,2,0,0,1,.33-.95,4.43,4.43,0,0,1,1.5-.26,3.18,3.18,0,0,1,.85.11v1.32h.18A3.2,3.2,0,0,1,27,235.09a2.13,2.13,0,0,1,2.4,1.64h.09a3.19,3.19,0,0,1,2.91-1.64c1.41,0,2.66.46,2.66,3.25,0,1.53,0,3-.11,4.51a8.2,8.2,0,0,1,1.47.24,3,3,0,0,1,0,.56,1.51,1.51,0,0,1,0,.3H32.18a2.54,2.54,0,0,1,.25-.81,6.9,6.9,0,0,1,1-.34v-4.21c0-1.39-.41-2.27-1.66-2.27a3.17,3.17,0,0,0-2.21,1.15v5.37a5.85,5.85,0,0,1,1.32.25,2.44,2.44,0,0,1,0,.86H26.77a2.56,2.56,0,0,1,.26-.81,6.54,6.54,0,0,1,1-.34v-4.21c0-1.39-.42-2.27-1.67-2.27a3.12,3.12,0,0,0-2.2,1.15Z"/><path class="cls-1" d="M39.36,239.88a2.89,2.89,0,0,0,3,3.12,8.43,8.43,0,0,0,2.53-.5,2,2,0,0,1-.24,1,6.23,6.23,0,0,1-2.85.74c-2.59,0-4.07-1.93-4.07-4.41,0-2.65,1.64-4.76,4.17-4.76,2.17,0,3.1,1.57,3.1,3.84a7.69,7.69,0,0,1-.06.95Zm4-1c.12-1.24-.24-2.75-1.76-2.75-1.28,0-2.11,1.11-2.22,2.75Z"/><path class="cls-1" d="M49.39,237a2.43,2.43,0,0,1,2.36-1.93,2.62,2.62,0,0,1,.81.15,2.31,2.31,0,0,1,.23,1.08,1.77,1.77,0,0,1,0,.48,2.6,2.6,0,0,0-1.23-.3A2.24,2.24,0,0,0,49.43,238v4.82a8.89,8.89,0,0,1,1.79.33,2.46,2.46,0,0,1,0,.82H46.45a2.31,2.31,0,0,1,.25-.81,7.2,7.2,0,0,1,1.16-.34v-6.39H46.54a2,2,0,0,1,.32-.95,4.61,4.61,0,0,1,1.5-.26,3.18,3.18,0,0,1,.85.11V237Z"/><path class="cls-1" d="M59.25,236.41a2.34,2.34,0,0,0-1-.27c-1.55,0-2.68,1-2.68,3.38s1.2,3.5,2.83,3.5a7.94,7.94,0,0,0,2.22-.43,2.16,2.16,0,0,1-.25,1,6.37,6.37,0,0,1-2.68.65c-2.33,0-3.83-1.87-3.83-4.39,0-2.79,1.79-4.78,4.43-4.78a4.44,4.44,0,0,1,2.37.65c0,.18,0,.47,0,.65a4.35,4.35,0,0,1-.25,1.53,3.13,3.13,0,0,1-1.14-.23Z"/><path class="cls-1" d="M67.28,242.89a2.79,2.79,0,0,1-2.53,1.37,2.36,2.36,0,0,1-2.57-2.41c0-1.86,1.57-2.81,3.36-2.81a4.66,4.66,0,0,1,1.68.3v-1c0-1.33-.57-2-1.71-2a5.65,5.65,0,0,0-2.64.89,1.43,1.43,0,0,1-.09-.61,2.17,2.17,0,0,1,.19-.91,7.48,7.48,0,0,1,3-.63c2,0,2.84,1,2.84,3.43V242A1.6,1.6,0,0,0,69,243a5.51,5.51,0,0,0,1.24-.22.71.71,0,0,1,0,.2,1.89,1.89,0,0,1-.18.81,4.64,4.64,0,0,1-2,.52,1.91,1.91,0,0,1-.76-1.37Zm0-2.75A5.87,5.87,0,0,0,66,240c-1.41,0-2.21.63-2.21,1.59A1.46,1.46,0,0,0,65.42,243a2.25,2.25,0,0,0,1.82-.89Z"/><path class="cls-1" d="M77.42,232h-1.3a2.12,2.12,0,0,1,.33-1,5.41,5.41,0,0,1,1.62-.25,3.89,3.89,0,0,1,.93.11v10.68a4.71,4.71,0,0,0,.14,1.27H80.5a2.18,2.18,0,0,1,0,.24,2.3,2.3,0,0,1-.14.72,9.94,9.94,0,0,1-2.44.36,3.09,3.09,0,0,1-.36-1.3h-.09a2.94,2.94,0,0,1-2.72,1.39c-1.57,0-3.36-1.08-3.36-4.34,0-2.9,1.79-4.83,4.38-4.83a3.12,3.12,0,0,1,1.64.44Zm0,4.43a4.67,4.67,0,0,0-1.5-.25c-2,0-2.89,1.4-2.89,3.49S74,243,75.38,243A2.37,2.37,0,0,0,77.44,242Z"/><path class="cls-1" d="M90,239.54c0,3-1.61,4.72-4.1,4.72-2.64,0-4.12-1.62-4.12-4.72,0-2.75,1.77-4.45,4.12-4.45S90,236.68,90,239.54Zm-4.1,3.64c1.66,0,2.46-1.41,2.46-3.64,0-1.92-1-3.38-2.46-3.38s-2.48,1.35-2.48,3.38C83.39,241.74,84.33,243.18,85.87,243.18Z"/><path class="cls-1" d="M95.16,232a2.12,2.12,0,0,1,.33-1,5.42,5.42,0,0,1,1.63-.25,3.8,3.8,0,0,1,.92.11v11.94a8.08,8.08,0,0,1,1.46.25,2.29,2.29,0,0,1,.06.56,1.51,1.51,0,0,1,0,.3H95.05a2.56,2.56,0,0,1,.26-.81,7.08,7.08,0,0,1,1.15-.34V232Z"/><path class="cls-1" d="M102.49,239.88a2.89,2.89,0,0,0,2.94,3.12,8.3,8.3,0,0,0,2.53-.5,1.92,1.92,0,0,1-.23,1,6.27,6.27,0,0,1-2.86.74c-2.58,0-4.07-1.93-4.07-4.41,0-2.65,1.65-4.76,4.18-4.76,2.17,0,3.09,1.57,3.09,3.84a7.66,7.66,0,0,1,0,.95Zm4-1c.13-1.24-.23-2.75-1.75-2.75-1.28,0-2.12,1.11-2.22,2.75Z"/><path class="cls-1" d="M111.15,243.77a1.3,1.3,0,0,1-.87-1.27,1.86,1.86,0,0,1,1-1.54v-.09a2.8,2.8,0,0,1-1.16-2.55,3.2,3.2,0,0,1,3.47-3.23,4,4,0,0,1,2,.51,4.42,4.42,0,0,1,1.76-.34,2.52,2.52,0,0,1,.77.1,4.7,4.7,0,0,1,.15,1.09h-1.79a3.28,3.28,0,0,1,.52,1.87c0,2-1.3,3.2-3.45,3.2a4.59,4.59,0,0,1-1.47-.2,1.15,1.15,0,0,0-.27.74c0,.7,1,.83,2.63.83,2.09,0,3.7.45,3.7,2.38,0,2.16-2.1,3.22-4.54,3.22-2.13,0-4.06-.88-4.06-2.7a2.06,2.06,0,0,1,1.57-1.93Zm-.06,1.8c0,1.26,1.47,1.89,2.81,1.89s2.76-.63,2.76-1.85c0-.9-.68-1.35-2.55-1.35a10.25,10.25,0,0,1-2.06-.18A1.57,1.57,0,0,0,111.09,245.57Zm2.5-5c1.25,0,1.84-.88,1.84-2.25s-.7-2.25-1.84-2.25-1.88.82-1.88,2.25S112.41,240.57,113.59,240.57Z"/><path class="cls-1" d="M124.49,242.89a2.78,2.78,0,0,1-2.53,1.37,2.36,2.36,0,0,1-2.57-2.41c0-1.86,1.58-2.81,3.37-2.81a4.66,4.66,0,0,1,1.68.3v-1c0-1.33-.58-2-1.72-2a5.65,5.65,0,0,0-2.64.89,1.6,1.6,0,0,1-.09-.61,2,2,0,0,1,.2-.91,7.48,7.48,0,0,1,3-.63c2,0,2.84,1,2.84,3.43V242a1.69,1.69,0,0,0,.23.94,5.58,5.58,0,0,0,1.25-.22.71.71,0,0,1,0,.2,2.05,2.05,0,0,1-.18.81,4.64,4.64,0,0,1-2,.52,1.94,1.94,0,0,1-.76-1.37Zm0-2.75a6,6,0,0,0-1.27-.15c-1.41,0-2.2.63-2.2,1.59a1.45,1.45,0,0,0,1.64,1.44,2.25,2.25,0,0,0,1.83-.89Z"/><path class="cls-1" d="M128.33,232a2.11,2.11,0,0,1,.32-1,5.48,5.48,0,0,1,1.63-.25,3.74,3.74,0,0,1,.92.11v11.94a8.19,8.19,0,0,1,1.47.25,3,3,0,0,1,.05.56,1.51,1.51,0,0,1,0,.3h-4.48a2.54,2.54,0,0,1,.25-.81,7.2,7.2,0,0,1,1.16-.34V232Z"/><path class="cls-1" d="M143.7,232h-1.3a2,2,0,0,1,.32-1,5.48,5.48,0,0,1,1.63-.25,3.8,3.8,0,0,1,.92.11v10.68a4.71,4.71,0,0,0,.15,1.27h1.35a1.1,1.1,0,0,1,0,.24,2.05,2.05,0,0,1-.15.72,9.87,9.87,0,0,1-2.44.36,3.24,3.24,0,0,1-.36-1.3h-.09a2.92,2.92,0,0,1-2.71,1.39c-1.57,0-3.36-1.08-3.36-4.34,0-2.9,1.79-4.83,4.37-4.83a3.16,3.16,0,0,1,1.65.44Zm0,4.43a4.62,4.62,0,0,0-1.5-.25c-2,0-2.89,1.4-2.89,3.49s1,3.37,2.33,3.37a2.36,2.36,0,0,0,2.06-1.09Z"/><path class="cls-1" d="M149.7,239.88a2.9,2.9,0,0,0,3,3.12,8.36,8.36,0,0,0,2.53-.5,1.92,1.92,0,0,1-.23,1,6.31,6.31,0,0,1-2.86.74c-2.59,0-4.07-1.93-4.07-4.41,0-2.65,1.65-4.76,4.18-4.76,2.17,0,3.09,1.57,3.09,3.84a7.69,7.69,0,0,1-.06.95Zm4-1c.13-1.24-.24-2.75-1.75-2.75-1.29,0-2.12,1.11-2.23,2.75Z"/><path class="cls-1" d="M156.72,232a2.11,2.11,0,0,1,.32-1,5.48,5.48,0,0,1,1.63-.25,3.74,3.74,0,0,1,.92.11v11.94a8.19,8.19,0,0,1,1.47.25,3,3,0,0,1,.05.56,1.51,1.51,0,0,1,0,.3h-4.48a2.82,2.82,0,0,1,.25-.81,7.2,7.2,0,0,1,1.16-.34V232Z"/><path class="cls-1" d="M168.49,247a10.73,10.73,0,0,1,1.72.32,2.54,2.54,0,0,1,0,.83h-4.73a2.31,2.31,0,0,1,.25-.81,6.91,6.91,0,0,1,1.16-.34V236.41h-1.34a2,2,0,0,1,.32-.95,4.61,4.61,0,0,1,1.5-.26,3.18,3.18,0,0,1,.85.11v1.17h.19a2.79,2.79,0,0,1,2.65-1.39c1.59,0,3.42,1.09,3.42,4.34,0,2.9-1.83,4.83-4.43,4.83a3.1,3.1,0,0,1-1.59-.43Zm0-4a5,5,0,0,0,1.5.25c2,0,2.9-1.42,2.9-3.51s-1-3.39-2.34-3.39a2.38,2.38,0,0,0-2.06,1.1Z"/><path class="cls-1" d="M181.33,242.89a2.79,2.79,0,0,1-2.53,1.37,2.36,2.36,0,0,1-2.57-2.41c0-1.86,1.57-2.81,3.36-2.81a4.66,4.66,0,0,1,1.68.3v-1c0-1.33-.57-2-1.71-2a5.65,5.65,0,0,0-2.64.89,1.43,1.43,0,0,1-.09-.61,2.17,2.17,0,0,1,.19-.91,7.48,7.48,0,0,1,2.95-.63c2,0,2.84,1,2.84,3.43V242a1.6,1.6,0,0,0,.24.94,5.51,5.51,0,0,0,1.24-.22.71.71,0,0,1,0,.2,1.89,1.89,0,0,1-.18.81,4.64,4.64,0,0,1-1.95.52,1.91,1.91,0,0,1-.76-1.37Zm0-2.75A5.87,5.87,0,0,0,180,240c-1.41,0-2.21.63-2.21,1.59a1.46,1.46,0,0,0,1.65,1.44,2.25,2.25,0,0,0,1.82-.89Z"/><path class="cls-1" d="M185.33,236.41a1.92,1.92,0,0,1,.32-.95,5.15,5.15,0,0,1,1.63-.26,4,4,0,0,1,.94.11v7.53a7.74,7.74,0,0,1,1.43.25,3,3,0,0,1,0,.56,1.91,1.91,0,0,1,0,.3h-4.45a2.56,2.56,0,0,1,.26-.81,7.08,7.08,0,0,1,1.15-.34v-6.39Zm1.88-2.16a2.48,2.48,0,0,1-.93-.78l2-2.8a3.67,3.67,0,0,1,1.59.63Z"/><path class="cls-1" d="M195.43,236.25a2.88,2.88,0,0,0-1.06-.22c-.94,0-1.49.43-1.49,1.1,0,2,4.22,1.4,4.22,4.54,0,1.87-1.58,2.59-3.26,2.59a5.48,5.48,0,0,1-2.76-.68,3.69,3.69,0,0,1-.09-.87,5.26,5.26,0,0,1,.18-1.28,5.71,5.71,0,0,1,1.3.16v1.25a2.83,2.83,0,0,0,1.52.41,1.37,1.37,0,0,0,1.52-1.35c0-2.14-4.25-1.37-4.25-4.56,0-1.31,1.21-2.25,3-2.25a7.14,7.14,0,0,1,2.55.47,3.26,3.26,0,0,1,0,.56,5.85,5.85,0,0,1-.2,1.46,2.69,2.69,0,0,1-1.21-.27Z"/><path class="cls-1" d="M204.13,239.88a2.9,2.9,0,0,0,3,3.12,8.36,8.36,0,0,0,2.53-.5,1.92,1.92,0,0,1-.23,1,6.31,6.31,0,0,1-2.86.74c-2.59,0-4.07-1.93-4.07-4.41,0-2.65,1.64-4.76,4.18-4.76,2.17,0,3.09,1.57,3.09,3.84a7.69,7.69,0,0,1-.06.95Zm4-1c.13-1.24-.24-2.75-1.75-2.75-1.29,0-2.12,1.11-2.23,2.75Z"/><path class="cls-1" d="M214.2,242.85a6.38,6.38,0,0,1,1.32.24,2.44,2.44,0,0,1,0,.86h-4.34a2.82,2.82,0,0,1,.25-.81,7.2,7.2,0,0,1,1.16-.34v-6.39h-1.32a2,2,0,0,1,.33-.95,4.38,4.38,0,0,1,1.5-.26,3.3,3.3,0,0,1,.85.11v1.32h.18a3.23,3.23,0,0,1,2.91-1.54c1.43,0,2.69.46,2.69,3.25,0,1.51,0,3-.11,4.51a8.2,8.2,0,0,1,1.47.24,2.33,2.33,0,0,1,.05.56c0,.11,0,.19,0,.3h-4.29a2.82,2.82,0,0,1,.25-.81,6.9,6.9,0,0,1,1-.34v-4.21c0-1.39-.43-2.27-1.7-2.27a3.22,3.22,0,0,0-2.26,1.15Z"/><path class="cls-1" d="M223.48,233.2a3.31,3.31,0,0,1,1.21-.28v2.48h2.62a4.83,4.83,0,0,1,.06,1h-2.68v5c0,1.17.16,1.67,1.18,1.67a7.36,7.36,0,0,0,1.68-.23,1.06,1.06,0,0,1,0,.23,1.6,1.6,0,0,1-.18.7,5.83,5.83,0,0,1-2.23.49c-1.39,0-2.1-.76-2.1-2.61,0-1.06,0-3.39.09-5.2h-1.24a3,3,0,0,1,.21-.94,6.45,6.45,0,0,1,1-.33Z"/><path class="cls-1" d="M231.44,237a2.41,2.41,0,0,1,2.35-1.93,2.62,2.62,0,0,1,.81.15,2.3,2.3,0,0,1,.24,1.08,1.75,1.75,0,0,1-.06.48,2.54,2.54,0,0,0-1.23-.3,2.24,2.24,0,0,0-2.08,1.48v4.82a8.76,8.76,0,0,1,1.79.33,2.46,2.46,0,0,1,0,.82h-4.81a2.82,2.82,0,0,1,.25-.81,7.2,7.2,0,0,1,1.16-.34v-6.39h-1.32a1.94,1.94,0,0,1,.33-.95,4.52,4.52,0,0,1,1.5-.26,3.3,3.3,0,0,1,.85.11V237Z"/><path class="cls-1" d="M237.53,239.88a2.9,2.9,0,0,0,2.95,3.12,8.43,8.43,0,0,0,2.53-.5,1.94,1.94,0,0,1-.24,1,6.23,6.23,0,0,1-2.85.74c-2.59,0-4.07-1.93-4.07-4.41,0-2.65,1.64-4.76,4.18-4.76,2.17,0,3.09,1.57,3.09,3.84a7.69,7.69,0,0,1-.06.95Zm4-1c.12-1.24-.24-2.75-1.76-2.75-1.28,0-2.11,1.11-2.22,2.75Z"/><path class="cls-1" d="M4.26,266.88a2.89,2.89,0,0,0,3,3.12,8.43,8.43,0,0,0,2.53-.5,2,2,0,0,1-.24,1,6.24,6.24,0,0,1-2.86.74c-2.58,0-4.06-1.93-4.06-4.41,0-2.65,1.64-4.76,4.17-4.76,2.17,0,3.1,1.57,3.1,3.84a7.69,7.69,0,0,1-.06.95Zm4-1c.12-1.24-.24-2.75-1.76-2.75-1.28,0-2.11,1.11-2.22,2.75Z"/><path class="cls-1" d="M14.33,269.85a6.5,6.5,0,0,1,1.32.24,3,3,0,0,1,0,.86H11.35a2.31,2.31,0,0,1,.25-.81,7.2,7.2,0,0,1,1.16-.34v-6.39H11.44a2,2,0,0,1,.32-1,4.43,4.43,0,0,1,1.5-.26,3.18,3.18,0,0,1,.85.11v1.32h.18a3.26,3.26,0,0,1,2.92-1.54c1.42,0,2.69.46,2.69,3.25,0,1.51,0,3-.11,4.51a8.36,8.36,0,0,1,1.47.24,3,3,0,0,1,0,.56,1.51,1.51,0,0,1,0,.3H17a2.31,2.31,0,0,1,.25-.81,6.54,6.54,0,0,1,1-.34v-4.21c0-1.39-.43-2.27-1.7-2.27a3.22,3.22,0,0,0-2.26,1.15Z"/><path class="cls-1" d="M24.19,266.88A2.89,2.89,0,0,0,27.13,270a8.3,8.3,0,0,0,2.53-.5,1.92,1.92,0,0,1-.23,1,6.27,6.27,0,0,1-2.86.74c-2.58,0-4.07-1.93-4.07-4.41,0-2.65,1.65-4.76,4.18-4.76,2.17,0,3.09,1.57,3.09,3.84,0,.31,0,.63-.05.95Zm4-1c.13-1.24-.23-2.75-1.75-2.75-1.28,0-2.12,1.11-2.22,2.75Z"/><path class="cls-1" d="M34.22,264a2.42,2.42,0,0,1,2.35-1.93,2.63,2.63,0,0,1,.82.15,2.45,2.45,0,0,1,.23,1.08,2.28,2.28,0,0,1,0,.48,2.6,2.6,0,0,0-1.23-.3A2.24,2.24,0,0,0,34.26,265v4.82a9,9,0,0,1,1.79.33,2.47,2.47,0,0,1,0,.82H31.27a2.56,2.56,0,0,1,.26-.81,7.08,7.08,0,0,1,1.15-.34v-6.39H31.37a1.92,1.92,0,0,1,.32-1,4.61,4.61,0,0,1,1.5-.26,3.18,3.18,0,0,1,.85.11V264Z"/><path class="cls-1" d="M46.86,266.54c0,3-1.61,4.72-4.1,4.72s-4.13-1.62-4.13-4.72c0-2.75,1.78-4.45,4.13-4.45S46.86,263.68,46.86,266.54Zm-4.1,3.64c1.66,0,2.46-1.41,2.46-3.64,0-1.92-1-3.38-2.46-3.38s-2.48,1.35-2.48,3.38C40.28,268.74,41.22,270.18,42.76,270.18Z"/><path class="cls-1" d="M58.36,259h-1.3a2.12,2.12,0,0,1,.33-1,5.41,5.41,0,0,1,1.62-.25,3.89,3.89,0,0,1,.93.11v10.68a4.71,4.71,0,0,0,.14,1.27h1.36a2.18,2.18,0,0,1,0,.24,2.3,2.3,0,0,1-.14.72,9.94,9.94,0,0,1-2.44.36,3.09,3.09,0,0,1-.36-1.3h-.09a2.94,2.94,0,0,1-2.72,1.39c-1.57,0-3.36-1.08-3.36-4.34,0-2.9,1.79-4.83,4.38-4.83a3.12,3.12,0,0,1,1.64.44Zm0,4.43a4.67,4.67,0,0,0-1.5-.25c-2,0-2.89,1.4-2.89,3.49S55,270,56.32,270A2.37,2.37,0,0,0,58.38,269Z"/><path class="cls-1" d="M64.37,266.88A2.89,2.89,0,0,0,67.31,270a8.3,8.3,0,0,0,2.53-.5,1.92,1.92,0,0,1-.23,1,6.27,6.27,0,0,1-2.86.74c-2.58,0-4.07-1.93-4.07-4.41,0-2.65,1.65-4.76,4.18-4.76,2.17,0,3.09,1.57,3.09,3.84a7.66,7.66,0,0,1,0,.95Zm4-1c.13-1.24-.23-2.75-1.75-2.75-1.28,0-2.12,1.11-2.22,2.75Z"/><path class="cls-1" d="M77.35,269.64c1.75,0,3.71-.07,5.61-.22,0,.11,0,.2,0,.31a8.59,8.59,0,0,1-.1,1.22H75.65l-.23-1.29c1.55-1.39,5.44-3.86,5.44-5.94,0-.94-.76-1.37-1.86-1.37a5,5,0,0,0-2,.46v1.5a3,3,0,0,1-1.23.27,6.16,6.16,0,0,1-.24-1.69c0-.24,0-.6,0-.81a7.47,7.47,0,0,1,3.52-.9c2,0,3.51.63,3.51,2.28,0,2.67-4,5-5.26,6.05Z"/><path class="cls-1" d="M93.86,266.09c0,3.41-1.79,5.22-4.68,5.22s-4.71-1.72-4.71-5.22c0-3,1.94-4.91,4.71-4.91S93.86,262.89,93.86,266.09Zm-4.68,4.09c2,0,3-1.51,3-4.09,0-2.21-1.12-3.8-3-3.8s-3,1.46-3,3.8C86.19,268.61,87.31,270.18,89.18,270.18Z"/><path class="cls-1" d="M105.27,266.09c0,3.41-1.79,5.22-4.68,5.22s-4.71-1.72-4.71-5.22c0-3,1.94-4.91,4.71-4.91S105.27,262.89,105.27,266.09Zm-4.68,4.09c2,0,3-1.51,3-4.09,0-2.21-1.12-3.8-3-3.8s-3,1.46-3,3.8C97.6,268.61,98.72,270.18,100.59,270.18Z"/><path class="cls-1" d="M113.61,267.1a3,3,0,0,1-2.68,1.33,3.3,3.3,0,0,1-3.56-3.47,3.62,3.62,0,0,1,3.81-3.78c2.73,0,4.2,1.89,4.2,5.29,0,4-2.37,6.54-5.41,6.54a6.89,6.89,0,0,1-2.24-.44,2.19,2.19,0,0,1-.25-1.26,7.37,7.37,0,0,0,2.35.38c2,0,3.67-1.65,3.9-4.59Zm-2.43-4.88c-1.39,0-2.19,1.06-2.19,2.63a2.23,2.23,0,0,0,2.37,2.45,3,3,0,0,0,2.34-1.23C113.7,263.52,113,262.22,111.18,262.22Z"/><path class="cls-1" d="M125.05,270c.11-.43.35-1.37.49-1.8l.9-2.86a16,16,0,0,1,.67-1.75,4.6,4.6,0,0,1-1.08-.23,3.06,3.06,0,0,1-.15-.92h3.46a3.68,3.68,0,0,1-.18,1,4.11,4.11,0,0,1-.85.16l-1,3a53.16,53.16,0,0,1-2,5.31,6.36,6.36,0,0,1-3.65,3.42,2.44,2.44,0,0,1-.67-1.33,4.87,4.87,0,0,0,3.27-2.64l-2.94-7.66a4.51,4.51,0,0,1-.94-.3,3.56,3.56,0,0,1-.18-.94h4.08a4,4,0,0,1-.14.94,8.29,8.29,0,0,1-1.32.21,11.38,11.38,0,0,1,.65,1.52l1.14,3.15a14.78,14.78,0,0,1,.4,1.74Z"/><path class="cls-1" d="M133.68,263.41a2.13,2.13,0,0,1,.31-1,5.17,5.17,0,0,1,1.64-.26,3.91,3.91,0,0,1,.94.11v7.38a7.54,7.54,0,0,1-2.75,5.57,1.89,1.89,0,0,1-.87-.71,6.29,6.29,0,0,0,2.05-4.41v-6.73Zm3.16-4.2a1,1,0,0,1-1,1.07.94.94,0,0,1-1-1.07,1,1,0,0,1,1-1A.93.93,0,0,1,136.84,259.21Z"/><path class="cls-1" d="M145.21,263.41h-1.3a2,2,0,0,1,.33-1,4.6,4.6,0,0,1,1.63-.26,3.8,3.8,0,0,1,.92.11v6.27a5.1,5.1,0,0,0,.14,1.27h1.38a2.18,2.18,0,0,1,0,.24,2.3,2.3,0,0,1-.14.72,10.32,10.32,0,0,1-2.48.36,3.8,3.8,0,0,1-.36-1.42h-.09a3.21,3.21,0,0,1-2.87,1.51c-1.42,0-2.66-.45-2.66-3.24,0-1.51,0-3.1.09-4.61h-1.38a2.3,2.3,0,0,1,.33-.94,4.93,4.93,0,0,1,1.64-.27,3.83,3.83,0,0,1,.93.11v5.46c0,1.36.43,2.25,1.66,2.25a3.13,3.13,0,0,0,2.22-1.1Z"/><path class="cls-1" d="M152.48,269.85a6.38,6.38,0,0,1,1.32.24,2.44,2.44,0,0,1,0,.86H149.5a2.82,2.82,0,0,1,.25-.81,7.2,7.2,0,0,1,1.16-.34v-6.39h-1.32a2,2,0,0,1,.33-1,4.38,4.38,0,0,1,1.5-.26,3.3,3.3,0,0,1,.85.11v1.32h.18a3.23,3.23,0,0,1,2.91-1.54c1.43,0,2.69.46,2.69,3.25,0,1.51,0,3-.11,4.51a8.2,8.2,0,0,1,1.47.24,2.33,2.33,0,0,1,.05.56c0,.11,0,.19,0,.3h-4.29a2.82,2.82,0,0,1,.25-.81,6.9,6.9,0,0,1,1-.34v-4.21c0-1.39-.43-2.27-1.7-2.27a3.22,3.22,0,0,0-2.26,1.15Z"/><path class="cls-1" d="M160.53,263.41a2,2,0,0,1,.33-1,5.09,5.09,0,0,1,1.62-.26,3.91,3.91,0,0,1,.94.11v7.53a7.6,7.6,0,0,1,1.43.25,2.29,2.29,0,0,1,.06.56,1.51,1.51,0,0,1,0,.3h-4.45a2.82,2.82,0,0,1,.25-.81,7.2,7.2,0,0,1,1.16-.34v-6.39Zm3.17-4.2a1,1,0,0,1-1,1.07.94.94,0,0,1-1-1.07,1,1,0,0,1,1-1A.94.94,0,0,1,163.7,259.21Z"/><path class="cls-1" d="M174.4,266.54c0,3-1.61,4.72-4.1,4.72-2.64,0-4.13-1.62-4.13-4.72,0-2.75,1.78-4.45,4.13-4.45S174.4,263.68,174.4,266.54Zm-4.1,3.64c1.66,0,2.45-1.41,2.45-3.64,0-1.92-.95-3.38-2.45-3.38s-2.48,1.35-2.48,3.38C167.82,268.74,168.76,270.18,170.3,270.18Z"/><path class="cls-1" d="M185.9,259h-1.3a2.11,2.11,0,0,1,.32-1,5.53,5.53,0,0,1,1.63-.25,3.74,3.74,0,0,1,.92.11v10.68a4.71,4.71,0,0,0,.15,1.27H189a2.18,2.18,0,0,1,0,.24,2.3,2.3,0,0,1-.14.72,9.94,9.94,0,0,1-2.44.36,3.09,3.09,0,0,1-.36-1.3H186a2.94,2.94,0,0,1-2.72,1.39c-1.57,0-3.36-1.08-3.36-4.34,0-2.9,1.79-4.83,4.38-4.83a3.15,3.15,0,0,1,1.64.44Zm0,4.43a4.67,4.67,0,0,0-1.5-.25c-2,0-2.89,1.4-2.89,3.49s1,3.37,2.33,3.37a2.37,2.37,0,0,0,2.06-1.09Z"/><path class="cls-1" d="M191.91,266.88a2.89,2.89,0,0,0,2.94,3.12,8.36,8.36,0,0,0,2.53-.5,1.92,1.92,0,0,1-.23,1,6.27,6.27,0,0,1-2.86.74c-2.58,0-4.07-1.93-4.07-4.41,0-2.65,1.65-4.76,4.18-4.76,2.17,0,3.09,1.57,3.09,3.84,0,.31,0,.63-.05.95Zm4-1c.13-1.24-.23-2.75-1.75-2.75-1.28,0-2.12,1.11-2.22,2.75Z"/><path class="cls-1" d="M204.89,269.64c1.75,0,3.71-.07,5.6-.22a1.62,1.62,0,0,1,0,.31,7.27,7.27,0,0,1-.11,1.22h-7.21l-.24-1.29c1.56-1.39,5.45-3.86,5.45-5.94,0-.94-.76-1.37-1.87-1.37a5,5,0,0,0-2,.46v1.5a3,3,0,0,1-1.23.27,6.16,6.16,0,0,1-.24-1.69c0-.24,0-.6,0-.81a7.47,7.47,0,0,1,3.52-.9c2,0,3.51.63,3.51,2.28,0,2.67-4,5-5.26,6.05Z"/><path class="cls-1" d="M221.4,266.09c0,3.41-1.79,5.22-4.69,5.22s-4.7-1.72-4.7-5.22c0-3,1.94-4.91,4.7-4.91S221.4,262.89,221.4,266.09Zm-4.69,4.09c2,0,3-1.51,3-4.09,0-2.21-1.12-3.8-3-3.8s-3,1.46-3,3.8C213.73,268.61,214.85,270.18,216.71,270.18Z"/><path class="cls-1" d="M225.61,262.69,223,263a2.86,2.86,0,0,1,.29-1.11,16,16,0,0,1,3.94-.72v8.51a18.06,18.06,0,0,1,2.1.31,3.19,3.19,0,0,1,.09.7,1.24,1.24,0,0,1,0,.25h-6a3.32,3.32,0,0,1,.32-.9,16.26,16.26,0,0,1,1.88-.45Z"/><path class="cls-1" d="M233.33,265a2.82,2.82,0,0,1-2.08-2.52c0-2.09,1.83-3,3.57-3s3.5.72,3.5,2.7a3.06,3.06,0,0,1-2.08,2.81v.09a3.17,3.17,0,0,1,2.32,2.79c0,2.31-1.86,3.44-3.93,3.44-1.75,0-3.86-.68-3.86-3a3.47,3.47,0,0,1,2.56-3.24Zm-1,3a2.11,2.11,0,0,0,2.38,2.31,2,2,0,0,0,2.21-2.22c0-1.33-1.34-1.94-2.7-2.57A2.63,2.63,0,0,0,232.36,268Zm4.43-5.69a1.85,1.85,0,0,0-2.08-1.87,1.79,1.79,0,0,0-1.94,1.8c0,1.12,1.2,1.71,2.5,2.31A2.47,2.47,0,0,0,236.79,262.29Z"/><path class="cls-1" d="M243.28,270a1.07,1.07,0,0,1-1.12,1.19A1,1,0,0,1,241,270a1.09,1.09,0,0,1,1.16-1.1A1,1,0,0,1,243.28,270Z"/><path class="cls-1" d="M13.09,286.72c-.41,0-.94,0-1.34-.06a4.29,4.29,0,0,1,0-1.08c1.43-.14,3.4-.25,4.77-.25,3.51,0,6.35,2.16,6.35,6.14,0,4.61-2.77,6.56-5.81,6.56-1.62,0-3.88,0-5.57-.09a5.61,5.61,0,0,1,.22-1,9.66,9.66,0,0,1,1.41-.23Zm1.67,10.12c.54,0,1.21.05,1.75.05,2.87,0,4.57-1.53,4.57-5.33,0-3.33-2.18-5.11-4.9-5.11-.34,0-1.08,0-1.42.05Z"/><path class="cls-1" d="M30.69,290.41H29.38a2,2,0,0,1,.33-1,4.64,4.64,0,0,1,1.63-.26,3.8,3.8,0,0,1,.92.11v6.27a5.61,5.61,0,0,0,.14,1.27h1.38a1.1,1.1,0,0,1,0,.24,2.3,2.3,0,0,1-.15.72,10.32,10.32,0,0,1-2.48.36,4,4,0,0,1-.36-1.42h-.09a3.18,3.18,0,0,1-2.87,1.51c-1.41,0-2.66-.45-2.66-3.24,0-1.51,0-3.1.09-4.61H23.91a2.15,2.15,0,0,1,.32-.94,5,5,0,0,1,1.65-.27,3.8,3.8,0,0,1,.92.11v5.46c0,1.36.43,2.25,1.66,2.25a3.13,3.13,0,0,0,2.23-1.1Z"/><path class="cls-1" d="M37.92,291a2.42,2.42,0,0,1,2.35-1.93,2.52,2.52,0,0,1,.81.15,2.48,2.48,0,0,1,.19,1.56,2.6,2.6,0,0,0-1.23-.3A2.23,2.23,0,0,0,38,292v4.82a9,9,0,0,1,1.79.33,2.47,2.47,0,0,1,0,.82H35a2.56,2.56,0,0,1,.26-.81,7.08,7.08,0,0,1,1.15-.34v-6.39H35.06a2,2,0,0,1,.33-1,4.61,4.61,0,0,1,1.5-.26,3.18,3.18,0,0,1,.85.11V291Z"/><path class="cls-1" d="M47.34,296.89a2.79,2.79,0,0,1-2.53,1.37,2.36,2.36,0,0,1-2.57-2.41c0-1.86,1.58-2.81,3.37-2.81a4.74,4.74,0,0,1,1.68.3v-1c0-1.33-.58-2-1.72-2a5.65,5.65,0,0,0-2.64.89,1.6,1.6,0,0,1-.09-.61,2,2,0,0,1,.2-.91,7.43,7.43,0,0,1,2.94-.63c2,0,2.84,1,2.84,3.43V296a1.6,1.6,0,0,0,.24.94,5.68,5.68,0,0,0,1.25-.22,1.41,1.41,0,0,1,0,.2,1.89,1.89,0,0,1-.18.81,4.55,4.55,0,0,1-2,.52,1.94,1.94,0,0,1-.76-1.37Zm0-2.75A5.87,5.87,0,0,0,46,294c-1.41,0-2.21.63-2.21,1.59A1.46,1.46,0,0,0,45.48,297a2.25,2.25,0,0,0,1.82-.89Z"/><path class="cls-1" d="M54.23,296.85a6.5,6.5,0,0,1,1.32.24,3,3,0,0,1,0,.86H51.25a2.31,2.31,0,0,1,.25-.81,7.2,7.2,0,0,1,1.16-.34v-6.39H51.34a2,2,0,0,1,.32-1,4.43,4.43,0,0,1,1.5-.26,3.18,3.18,0,0,1,.85.11v1.32h.18a3.26,3.26,0,0,1,2.92-1.54c1.42,0,2.69.46,2.69,3.25,0,1.51,0,3-.11,4.51a8.36,8.36,0,0,1,1.47.24,3,3,0,0,1,.05.56,1.51,1.51,0,0,1,0,.3H56.91a2.31,2.31,0,0,1,.25-.81,6.54,6.54,0,0,1,1-.34v-4.21c0-1.39-.43-2.27-1.7-2.27a3.22,3.22,0,0,0-2.26,1.15Z"/><path class="cls-1" d="M63.51,287.2a3.31,3.31,0,0,1,1.21-.28v2.48h2.62a4.83,4.83,0,0,1,.06,1.05H64.72v4.95c0,1.17.16,1.67,1.17,1.67a7.37,7.37,0,0,0,1.69-.23,2.11,2.11,0,0,1,0,.23,1.6,1.6,0,0,1-.18.7,5.75,5.75,0,0,1-2.22.49c-1.39,0-2.1-.76-2.1-2.61,0-1.06,0-3.39.09-5.2H61.93a2.75,2.75,0,0,1,.22-.94,6.45,6.45,0,0,1,1.05-.33Z"/><path class="cls-1" d="M70.05,293.88A2.9,2.9,0,0,0,73,297a8.36,8.36,0,0,0,2.53-.5,1.92,1.92,0,0,1-.23,1,6.27,6.27,0,0,1-2.86.74c-2.58,0-4.07-1.93-4.07-4.41,0-2.65,1.65-4.76,4.18-4.76,2.17,0,3.09,1.57,3.09,3.84,0,.31,0,.63,0,.95Zm4-1c.13-1.24-.23-2.75-1.75-2.75-1.29,0-2.12,1.11-2.23,2.75Z"/><path class="cls-1" d="M82.75,293.88a2.89,2.89,0,0,0,3,3.12,8.43,8.43,0,0,0,2.53-.5,2,2,0,0,1-.24,1,6.24,6.24,0,0,1-2.86.74c-2.58,0-4.06-1.93-4.06-4.41,0-2.65,1.64-4.76,4.17-4.76,2.17,0,3.1,1.57,3.1,3.84a7.69,7.69,0,0,1-.06.95Zm4-1c.12-1.24-.24-2.75-1.76-2.75-1.28,0-2.11,1.11-2.22,2.75Z"/><path class="cls-1" d="M94.52,290.25a2.89,2.89,0,0,0-1.07-.22c-.94,0-1.48.43-1.48,1.1,0,2,4.21,1.4,4.21,4.54,0,1.87-1.57,2.59-3.25,2.59a5.55,5.55,0,0,1-2.77-.68,4.31,4.31,0,0,1-.09-.87,5.26,5.26,0,0,1,.18-1.28,5.64,5.64,0,0,1,1.3.16v1.25a2.88,2.88,0,0,0,1.52.41,1.36,1.36,0,0,0,1.52-1.35c0-2.14-4.25-1.37-4.25-4.56,0-1.31,1.21-2.25,3-2.25a7.06,7.06,0,0,1,2.55.47,2.46,2.46,0,0,1,0,.56,5.85,5.85,0,0,1-.2,1.46,2.66,2.66,0,0,1-1.21-.27Z"/><path class="cls-1" d="M99.51,293.88a2.9,2.9,0,0,0,2.95,3.12,8.36,8.36,0,0,0,2.53-.5,1.85,1.85,0,0,1-.24,1,6.23,6.23,0,0,1-2.85.74c-2.59,0-4.07-1.93-4.07-4.41,0-2.65,1.64-4.76,4.18-4.76,2.17,0,3.09,1.57,3.09,3.84a7.69,7.69,0,0,1-.06.95Zm4-1c.13-1.24-.24-2.75-1.75-2.75-1.29,0-2.12,1.11-2.23,2.75Z"/><path class="cls-1" d="M113.29,296.85a6.5,6.5,0,0,1,1.32.24,3,3,0,0,1,0,.86h-4.34a2.31,2.31,0,0,1,.25-.81,7.2,7.2,0,0,1,1.16-.34v-6.39H110.4a2,2,0,0,1,.32-1,4.43,4.43,0,0,1,1.5-.26,3.18,3.18,0,0,1,.85.11v1.32h.18a3.2,3.2,0,0,1,2.86-1.54,2.15,2.15,0,0,1,2.41,1.64h.09a3.17,3.17,0,0,1,2.91-1.64c1.41,0,2.66.46,2.66,3.25,0,1.53,0,3-.11,4.51a8.23,8.23,0,0,1,1.46.24,2.29,2.29,0,0,1,.06.56,1.51,1.51,0,0,1,0,.3h-4.29a2.56,2.56,0,0,1,.26-.81,6.54,6.54,0,0,1,1-.34v-4.21c0-1.39-.42-2.27-1.67-2.27a3.15,3.15,0,0,0-2.2,1.15v5.37a6,6,0,0,1,1.32.25,2.72,2.72,0,0,1,0,.86h-4.17a2.31,2.31,0,0,1,.25-.81,6.54,6.54,0,0,1,1-.34v-4.21c0-1.39-.42-2.27-1.66-2.27a3.12,3.12,0,0,0-2.21,1.15Z"/><path class="cls-1" d="M126.65,290.41a2,2,0,0,1,.33-1,5.15,5.15,0,0,1,1.63-.26,4,4,0,0,1,.94.11v7.53a7.74,7.74,0,0,1,1.43.25,3,3,0,0,1,.05.56,1.51,1.51,0,0,1,0,.3h-4.45a2.56,2.56,0,0,1,.26-.81,7.08,7.08,0,0,1,1.15-.34v-6.39Zm3.17-4.2a1,1,0,0,1-1,1.07.94.94,0,0,1-1-1.07,1,1,0,0,1,1-1A.93.93,0,0,1,129.82,286.21Z"/><path class="cls-1" d="M136.76,290.25a2.88,2.88,0,0,0-1.06-.22c-.95,0-1.49.43-1.49,1.1,0,2,4.22,1.4,4.22,4.54,0,1.87-1.58,2.59-3.26,2.59a5.55,5.55,0,0,1-2.77-.68,4.31,4.31,0,0,1-.09-.87,4.79,4.79,0,0,1,.19-1.28,5.71,5.71,0,0,1,1.3.16v1.25a2.83,2.83,0,0,0,1.52.41,1.36,1.36,0,0,0,1.51-1.35c0-2.14-4.24-1.37-4.24-4.56,0-1.31,1.21-2.25,3-2.25a7.14,7.14,0,0,1,2.55.47,3.26,3.26,0,0,1,0,.56,5.85,5.85,0,0,1-.2,1.46,2.69,2.69,0,0,1-1.21-.27Z"/><path class="cls-1" d="M142.84,296.85a6.64,6.64,0,0,1,1.32.24,2.72,2.72,0,0,1,0,.86h-4.34a2.56,2.56,0,0,1,.26-.81,7.08,7.08,0,0,1,1.15-.34v-6.39H140a1.92,1.92,0,0,1,.32-1,4.43,4.43,0,0,1,1.5-.26,3.18,3.18,0,0,1,.85.11v1.32h.18a3.2,3.2,0,0,1,2.86-1.54,2.13,2.13,0,0,1,2.4,1.64h.09a3.2,3.2,0,0,1,2.92-1.64c1.41,0,2.65.46,2.65,3.25,0,1.53,0,3-.11,4.51a8.2,8.2,0,0,1,1.47.24,2.33,2.33,0,0,1,0,.56c0,.11,0,.19,0,.3h-4.29a2.82,2.82,0,0,1,.25-.81,6.9,6.9,0,0,1,1-.34v-4.21c0-1.39-.41-2.27-1.66-2.27a3.17,3.17,0,0,0-2.21,1.15v5.37a5.74,5.74,0,0,1,1.32.25,2.44,2.44,0,0,1,0,.86h-4.18a2.56,2.56,0,0,1,.26-.81,6.54,6.54,0,0,1,1-.34v-4.21c0-1.39-.42-2.27-1.67-2.27a3.12,3.12,0,0,0-2.2,1.15Z"/><path class="cls-1" d="M164.56,293.54c0,3-1.61,4.72-4.11,4.72s-4.12-1.62-4.12-4.72c0-2.75,1.77-4.45,4.12-4.45S164.56,290.68,164.56,293.54Zm-4.11,3.64c1.66,0,2.46-1.41,2.46-3.64,0-1.92-1-3.38-2.46-3.38s-2.48,1.35-2.48,3.38C158,295.74,158.91,297.18,160.45,297.18Z"/><path class="cls-1" d="M172.46,301a10.73,10.73,0,0,1,1.72.32,2.54,2.54,0,0,1,0,.83h-4.74a2.56,2.56,0,0,1,.26-.81,7.08,7.08,0,0,1,1.15-.34V290.41h-1.33a2,2,0,0,1,.32-1,4.61,4.61,0,0,1,1.5-.26,3.18,3.18,0,0,1,.85.11v1.17h.18a2.82,2.82,0,0,1,2.66-1.39c1.59,0,3.42,1.09,3.42,4.34,0,2.9-1.83,4.83-4.43,4.83a3.1,3.1,0,0,1-1.59-.43Zm0-4a5,5,0,0,0,1.5.25c2,0,2.89-1.42,2.89-3.51s-1-3.39-2.33-3.39a2.38,2.38,0,0,0-2.06,1.1Z"/><path class="cls-1" d="M181.93,293.88a2.9,2.9,0,0,0,2.95,3.12,8.36,8.36,0,0,0,2.53-.5,1.92,1.92,0,0,1-.23,1,6.27,6.27,0,0,1-2.86.74c-2.58,0-4.07-1.93-4.07-4.41,0-2.65,1.65-4.76,4.18-4.76,2.17,0,3.09,1.57,3.09,3.84,0,.31,0,.63-.05.95Zm4-1c.13-1.24-.23-2.75-1.75-2.75-1.29,0-2.12,1.11-2.23,2.75Z"/><path class="cls-1" d="M192,291a2.42,2.42,0,0,1,2.35-1.93,2.52,2.52,0,0,1,.81.15,2.48,2.48,0,0,1,.19,1.56,2.61,2.61,0,0,0-1.24-.3A2.22,2.22,0,0,0,192,292v4.82a9,9,0,0,1,1.79.33,2.47,2.47,0,0,1,0,.82H189a2.56,2.56,0,0,1,.26-.81,7.08,7.08,0,0,1,1.15-.34v-6.39h-1.32a2,2,0,0,1,.33-1,4.61,4.61,0,0,1,1.5-.26,3.18,3.18,0,0,1,.85.11V291Z"/><path class="cls-1" d="M196.36,290.41a2,2,0,0,1,.33-1,5.15,5.15,0,0,1,1.63-.26,4,4,0,0,1,.94.11v7.53a7.74,7.74,0,0,1,1.43.25,3,3,0,0,1,.05.56,1.91,1.91,0,0,1,0,.3h-4.45a2.56,2.56,0,0,1,.26-.81,7.08,7.08,0,0,1,1.15-.34v-6.39Zm1.88-2.16a2.53,2.53,0,0,1-.92-.78l2-2.8a3.67,3.67,0,0,1,1.59.63Z"/><path class="cls-1" d="M210.23,293.54c0,3-1.61,4.72-4.1,4.72s-4.12-1.62-4.12-4.72c0-2.75,1.77-4.45,4.12-4.45S210.23,290.68,210.23,293.54Zm-4.1,3.64c1.66,0,2.46-1.41,2.46-3.64,0-1.92-1-3.38-2.46-3.38s-2.48,1.35-2.48,3.38C203.65,295.74,204.59,297.18,206.13,297.18Z"/><path class="cls-1" d="M218,286h-1.3a2,2,0,0,1,.32-1,5.48,5.48,0,0,1,1.63-.25,3.8,3.8,0,0,1,.92.11v10.68a4.71,4.71,0,0,0,.15,1.27h1.35a1.1,1.1,0,0,1,0,.24,2.05,2.05,0,0,1-.15.72,9.87,9.87,0,0,1-2.44.36,3.24,3.24,0,0,1-.36-1.3h-.09a2.92,2.92,0,0,1-2.71,1.39c-1.57,0-3.36-1.08-3.36-4.34,0-2.9,1.79-4.83,4.37-4.83a3.16,3.16,0,0,1,1.65.44Zm0,4.43a4.62,4.62,0,0,0-1.5-.25c-2,0-2.89,1.4-2.89,3.49s1,3.37,2.33,3.37A2.36,2.36,0,0,0,218,296Z"/><path class="cls-1" d="M230.58,293.54c0,3-1.61,4.72-4.11,4.72s-4.12-1.62-4.12-4.72c0-2.75,1.77-4.45,4.12-4.45S230.58,290.68,230.58,293.54Zm-4.11,3.64c1.67,0,2.46-1.41,2.46-3.64,0-1.92-1-3.38-2.46-3.38s-2.47,1.35-2.47,3.38C224,295.74,224.94,297.18,226.47,297.18Z"/><path class="cls-1" d="M232,297.47a3.71,3.71,0,0,1,.6-1.21,3.64,3.64,0,0,1,.74-.07,4.54,4.54,0,0,1,1.34.21,16.24,16.24,0,0,1-1.65,4.25,3.3,3.3,0,0,1-1-.46,16.66,16.66,0,0,0,.69-2.54Z"/><path class="cls-1" d="M15.84,317.41a2.34,2.34,0,0,0-1.05-.27c-1.55,0-2.67,1-2.67,3.38s1.19,3.5,2.82,3.5a7.94,7.94,0,0,0,2.22-.43,2.16,2.16,0,0,1-.25,1,6.37,6.37,0,0,1-2.68.65c-2.33,0-3.83-1.87-3.83-4.39,0-2.79,1.79-4.78,4.43-4.78a4.44,4.44,0,0,1,2.37.65c0,.18,0,.47,0,.65a4.35,4.35,0,0,1-.25,1.53,3.13,3.13,0,0,1-1.14-.23Z"/><path class="cls-1" d="M23.87,323.89a2.79,2.79,0,0,1-2.53,1.37,2.36,2.36,0,0,1-2.57-2.41c0-1.86,1.57-2.81,3.36-2.81a4.75,4.75,0,0,1,1.69.3v-1c0-1.33-.58-2-1.72-2a5.65,5.65,0,0,0-2.64.89,1.43,1.43,0,0,1-.09-.61,2,2,0,0,1,.2-.91,7.39,7.39,0,0,1,2.94-.63c2,0,2.84,1,2.84,3.43V323a1.6,1.6,0,0,0,.24.94,5.51,5.51,0,0,0,1.24-.22.71.71,0,0,1,0,.2,1.89,1.89,0,0,1-.18.81,4.64,4.64,0,0,1-2,.52,1.91,1.91,0,0,1-.76-1.37Zm0-2.75a5.87,5.87,0,0,0-1.26-.15c-1.41,0-2.21.63-2.21,1.59A1.46,1.46,0,0,0,22,324a2.25,2.25,0,0,0,1.82-.89Z"/><path class="cls-1" d="M34,313h-1.3a2.12,2.12,0,0,1,.33-1,5.42,5.42,0,0,1,1.63-.25,3.8,3.8,0,0,1,.92.11v10.68a4.71,4.71,0,0,0,.14,1.27h1.36a1.1,1.1,0,0,1,0,.24,2.3,2.3,0,0,1-.15.72,9.94,9.94,0,0,1-2.44.36,3.09,3.09,0,0,1-.36-1.3h-.09a2.93,2.93,0,0,1-2.71,1.39c-1.58,0-3.37-1.08-3.37-4.34,0-2.9,1.79-4.83,4.38-4.83a3.12,3.12,0,0,1,1.64.44Zm0,4.43a4.67,4.67,0,0,0-1.5-.25c-2,0-2.89,1.4-2.89,3.49S30.61,324,32,324A2.37,2.37,0,0,0,34,323Z"/><path class="cls-1" d="M43.38,323.89a2.79,2.79,0,0,1-2.53,1.37,2.36,2.36,0,0,1-2.57-2.41c0-1.86,1.58-2.81,3.37-2.81a4.7,4.7,0,0,1,1.68.3v-1c0-1.33-.58-2-1.72-2a5.65,5.65,0,0,0-2.64.89,1.6,1.6,0,0,1-.09-.61,2,2,0,0,1,.2-.91,7.43,7.43,0,0,1,2.94-.63c2,0,2.84,1,2.84,3.43V323a1.6,1.6,0,0,0,.24.94,5.68,5.68,0,0,0,1.25-.22,1.41,1.41,0,0,1,0,.2,1.89,1.89,0,0,1-.18.81,4.55,4.55,0,0,1-2,.52,1.94,1.94,0,0,1-.76-1.37Zm0-2.75a5.87,5.87,0,0,0-1.26-.15c-1.41,0-2.21.63-2.21,1.59A1.46,1.46,0,0,0,41.52,324a2.25,2.25,0,0,0,1.82-.89Z"/><path class="cls-1" d="M57.23,313h-1.3a2.12,2.12,0,0,1,.33-1,5.41,5.41,0,0,1,1.62-.25,3.89,3.89,0,0,1,.93.11v10.68a4.71,4.71,0,0,0,.14,1.27h1.36a2.18,2.18,0,0,1,0,.24,2.3,2.3,0,0,1-.14.72,9.94,9.94,0,0,1-2.44.36,3.09,3.09,0,0,1-.36-1.3h-.09a2.94,2.94,0,0,1-2.72,1.39c-1.57,0-3.36-1.08-3.36-4.34,0-2.9,1.79-4.83,4.38-4.83a3.12,3.12,0,0,1,1.64.44Zm0,4.43a4.67,4.67,0,0,0-1.5-.25c-2,0-2.89,1.4-2.89,3.49s1,3.37,2.33,3.37A2.37,2.37,0,0,0,57.25,323Z"/><path class="cls-1" d="M61.43,317.41a2,2,0,0,1,.32-1,5.15,5.15,0,0,1,1.63-.26,3.91,3.91,0,0,1,.94.11v7.53a7.74,7.74,0,0,1,1.43.25,2.33,2.33,0,0,1,0,.56c0,.07,0,.16,0,.3H61.34a2.31,2.31,0,0,1,.25-.81,7.2,7.2,0,0,1,1.16-.34v-6.39Zm1.88-2.16a2.45,2.45,0,0,1-.92-.78l2-2.8a3.62,3.62,0,0,1,1.59.63Z"/><path class="cls-1" d="M72.12,323.89a2.8,2.8,0,0,1-2.54,1.37A2.35,2.35,0,0,1,67,322.85C67,321,68.59,320,70.38,320a4.66,4.66,0,0,1,1.68.3v-1c0-1.33-.58-2-1.72-2a5.73,5.73,0,0,0-2.64.89,1.6,1.6,0,0,1-.09-.61,2,2,0,0,1,.2-.91,7.48,7.48,0,0,1,3-.63c2,0,2.84,1,2.84,3.43V323a1.69,1.69,0,0,0,.23.94,5.58,5.58,0,0,0,1.25-.22.71.71,0,0,1,0,.2,1.89,1.89,0,0,1-.18.81,4.64,4.64,0,0,1-2,.52,1.9,1.9,0,0,1-.75-1.37Zm0-2.75a6,6,0,0,0-1.27-.15c-1.41,0-2.2.63-2.2,1.59A1.45,1.45,0,0,0,70.25,324a2.25,2.25,0,0,0,1.83-.89Z"/><path class="cls-1" d="M82.59,323.85a6.92,6.92,0,0,1,1.32.24,2.72,2.72,0,0,1,0,.86H79.6a2.56,2.56,0,0,1,.26-.81A6.79,6.79,0,0,1,81,323.8V313h-1.3a2.12,2.12,0,0,1,.33-1,5,5,0,0,1,1.62-.25,3.89,3.89,0,0,1,.93.11v3.47c0,.74,0,1.52-.09,2.26h.18a2.91,2.91,0,0,1,2.83-1.54c1.45,0,2.74.46,2.74,3.25,0,1.51,0,3-.11,4.51a8.23,8.23,0,0,1,1.46.24,2.29,2.29,0,0,1,.06.56,1.51,1.51,0,0,1,0,.3H85.35a2.56,2.56,0,0,1,.26-.81,6.54,6.54,0,0,1,1-.34v-4.21c0-1.39-.46-2.27-1.74-2.27a3.27,3.27,0,0,0-2.31,1.15Z"/><path class="cls-1" d="M95.89,323.89a2.78,2.78,0,0,1-2.53,1.37,2.35,2.35,0,0,1-2.56-2.41c0-1.86,1.57-2.81,3.36-2.81a4.66,4.66,0,0,1,1.68.3v-1c0-1.33-.58-2-1.72-2a5.69,5.69,0,0,0-2.64.89,1.6,1.6,0,0,1-.09-.61,2,2,0,0,1,.2-.91,7.48,7.48,0,0,1,3-.63c2,0,2.84,1,2.84,3.43V323a1.69,1.69,0,0,0,.23.94,5.58,5.58,0,0,0,1.25-.22.71.71,0,0,1,0,.2,1.89,1.89,0,0,1-.18.81,4.64,4.64,0,0,1-2,.52,1.9,1.9,0,0,1-.75-1.37Zm0-2.75a6,6,0,0,0-1.27-.15c-1.41,0-2.2.63-2.2,1.59A1.45,1.45,0,0,0,94,324a2.25,2.25,0,0,0,1.83-.89Z"/><path class="cls-1" d="M102.78,323.85a6.38,6.38,0,0,1,1.32.24,2.44,2.44,0,0,1,0,.86H99.8a2.82,2.82,0,0,1,.25-.81,7.2,7.2,0,0,1,1.16-.34v-6.39H99.89a2,2,0,0,1,.33-1,4.38,4.38,0,0,1,1.5-.26,3.24,3.24,0,0,1,.85.11v1.32h.18a3.23,3.23,0,0,1,2.91-1.54c1.43,0,2.69.46,2.69,3.25,0,1.51,0,3-.1,4.51a8.23,8.23,0,0,1,1.46.24,2.33,2.33,0,0,1,.05.56c0,.11,0,.19,0,.3h-4.29a2.82,2.82,0,0,1,.25-.81,6.9,6.9,0,0,1,1-.34v-4.21c0-1.39-.43-2.27-1.7-2.27a3.22,3.22,0,0,0-2.26,1.15Z"/><path class="cls-1" d="M119.13,317.25a2.89,2.89,0,0,0-1.07-.22c-.94,0-1.48.43-1.48,1.1,0,2,4.21,1.4,4.21,4.54,0,1.87-1.57,2.59-3.25,2.59a5.55,5.55,0,0,1-2.77-.68,4.31,4.31,0,0,1-.09-.87,5.26,5.26,0,0,1,.18-1.28,5.73,5.73,0,0,1,1.31.16v1.25a2.82,2.82,0,0,0,1.51.41,1.36,1.36,0,0,0,1.52-1.35c0-2.14-4.24-1.37-4.24-4.56,0-1.31,1.21-2.25,3-2.25a7.14,7.14,0,0,1,2.55.47,3.26,3.26,0,0,1,0,.56,5.85,5.85,0,0,1-.2,1.46,2.69,2.69,0,0,1-1.21-.27Z"/><path class="cls-1" d="M122.31,317.41a2,2,0,0,1,.33-1,5.15,5.15,0,0,1,1.63-.26,4,4,0,0,1,.94.11v7.53a7.74,7.74,0,0,1,1.43.25,3,3,0,0,1,0,.56,1.51,1.51,0,0,1,0,.3h-4.45a2.56,2.56,0,0,1,.26-.81,7.08,7.08,0,0,1,1.15-.34v-6.39Zm3.17-4.2a1,1,0,0,1-1,1.07.94.94,0,0,1-1-1.07,1,1,0,0,1,1-1A.93.93,0,0,1,125.48,313.21Z"/><path class="cls-1" d="M134,313h-1.3a2,2,0,0,1,.32-1,5.48,5.48,0,0,1,1.63-.25,3.8,3.8,0,0,1,.92.11v10.68a4.71,4.71,0,0,0,.15,1.27h1.35a1.1,1.1,0,0,1,0,.24,2.05,2.05,0,0,1-.15.72,9.87,9.87,0,0,1-2.44.36,3.41,3.41,0,0,1-.36-1.3H134a2.92,2.92,0,0,1-2.71,1.39c-1.57,0-3.36-1.08-3.36-4.34,0-2.9,1.79-4.83,4.37-4.83a3.16,3.16,0,0,1,1.65.44Zm0,4.43a4.71,4.71,0,0,0-1.5-.25c-2,0-2.9,1.4-2.9,3.49s1,3.37,2.33,3.37A2.39,2.39,0,0,0,134,323Z"/><path class="cls-1" d="M146.53,320.54c0,3-1.61,4.72-4.11,4.72s-4.12-1.62-4.12-4.72c0-2.75,1.77-4.45,4.12-4.45S146.53,317.68,146.53,320.54Zm-4.11,3.64c1.67,0,2.46-1.41,2.46-3.64,0-1.92-1-3.38-2.46-3.38s-2.47,1.35-2.47,3.38C140,322.74,140.89,324.18,142.42,324.18Z"/><path class="cls-1" d="M157.05,323.89a2.78,2.78,0,0,1-2.53,1.37,2.36,2.36,0,0,1-2.57-2.41c0-1.86,1.58-2.81,3.37-2.81a4.7,4.7,0,0,1,1.68.3v-1c0-1.33-.58-2-1.72-2a5.65,5.65,0,0,0-2.64.89,1.6,1.6,0,0,1-.09-.61,2,2,0,0,1,.2-.91,7.44,7.44,0,0,1,2.95-.63c2,0,2.83,1,2.83,3.43V323a1.6,1.6,0,0,0,.24.94,5.68,5.68,0,0,0,1.25-.22.71.71,0,0,1,0,.2,1.9,1.9,0,0,1-.19.81,4.55,4.55,0,0,1-1.95.52,1.94,1.94,0,0,1-.76-1.37Zm0-2.75a6,6,0,0,0-1.27-.15c-1.41,0-2.21.63-2.21,1.59a1.46,1.46,0,0,0,1.65,1.44,2.28,2.28,0,0,0,1.83-.89Z"/><path class="cls-1" d="M167.2,313h-1.31a2.12,2.12,0,0,1,.33-1,5.48,5.48,0,0,1,1.63-.25,3.8,3.8,0,0,1,.92.11v10.68a5.15,5.15,0,0,0,.14,1.27h1.36a1.1,1.1,0,0,1,0,.24,2.05,2.05,0,0,1-.15.72,9.87,9.87,0,0,1-2.44.36,3.24,3.24,0,0,1-.36-1.3h-.09a2.92,2.92,0,0,1-2.71,1.39c-1.58,0-3.37-1.08-3.37-4.34,0-2.9,1.79-4.83,4.38-4.83a3.16,3.16,0,0,1,1.65.44Zm0,4.43a4.62,4.62,0,0,0-1.5-.25c-2,0-2.89,1.4-2.89,3.49s1,3.37,2.33,3.37a2.37,2.37,0,0,0,2.06-1.09Z"/><path class="cls-1" d="M179.11,328a8.27,8.27,0,0,1,1.49.25,3,3,0,0,1,.05.56,1.56,1.56,0,0,1,0,.3h-4.57a2.31,2.31,0,0,1,.25-.81,8.13,8.13,0,0,1,1.23-.34v-1.84c0-.75,0-1.53.09-2.25h-.18a2.51,2.51,0,0,1-2.57,1.39c-1.57,0-3.36-1.08-3.36-4.34,0-2.9,1.77-4.83,4.36-4.83a7,7,0,0,1,3.23.78Zm-1.55-10.59a4,4,0,0,0-1.52-.29c-2,0-2.88,1.46-2.88,3.55s1,3.37,2.34,3.37a2.37,2.37,0,0,0,2.06-1.09Z"/><path class="cls-1" d="M187.74,317.41h-1.3a2,2,0,0,1,.32-1,4.64,4.64,0,0,1,1.63-.26,3.8,3.8,0,0,1,.92.11v6.27a5.12,5.12,0,0,0,.15,1.27h1.37a1.1,1.1,0,0,1,0,.24,2.05,2.05,0,0,1-.15.72,10.31,10.31,0,0,1-2.47.36,3.62,3.62,0,0,1-.36-1.42h-.1a3.18,3.18,0,0,1-2.87,1.51c-1.41,0-2.66-.45-2.66-3.24,0-1.51,0-3.1.09-4.61H181a2.15,2.15,0,0,1,.32-.94,5,5,0,0,1,1.65-.27,3.8,3.8,0,0,1,.92.11v5.46c0,1.36.44,2.25,1.66,2.25a3.13,3.13,0,0,0,2.23-1.1Z"/><path class="cls-1" d="M192.12,317.41a1.92,1.92,0,0,1,.32-1,5.15,5.15,0,0,1,1.63-.26,4,4,0,0,1,.94.11v7.53a7.74,7.74,0,0,1,1.43.25,3,3,0,0,1,.05.56,1.51,1.51,0,0,1,0,.3H192a2.56,2.56,0,0,1,.26-.81,7.08,7.08,0,0,1,1.15-.34v-6.39Zm3.16-4.2a1,1,0,0,1-1,1.07.94.94,0,0,1-1-1.07,1,1,0,0,1,1-1A.93.93,0,0,1,195.28,313.21Z"/><path class="cls-1" d="M200.49,318a2.41,2.41,0,0,1,2.35-1.93,2.62,2.62,0,0,1,.81.15,2.3,2.3,0,0,1,.24,1.08,1.75,1.75,0,0,1-.06.48,2.54,2.54,0,0,0-1.23-.3,2.25,2.25,0,0,0-2.08,1.48v4.82a8.76,8.76,0,0,1,1.79.33,2.22,2.22,0,0,1,0,.82h-4.81a2.82,2.82,0,0,1,.25-.81,7.2,7.2,0,0,1,1.16-.34v-6.39h-1.32a2,2,0,0,1,.33-1,4.52,4.52,0,0,1,1.5-.26,3.3,3.3,0,0,1,.85.11V318Z"/><path class="cls-1" d="M204.88,317.41a2,2,0,0,1,.33-1,5.09,5.09,0,0,1,1.62-.26,3.91,3.91,0,0,1,.94.11v7.53a7.6,7.6,0,0,1,1.43.25,2.29,2.29,0,0,1,.06.56,1.51,1.51,0,0,1,0,.3h-4.45a2.82,2.82,0,0,1,.25-.81,7.2,7.2,0,0,1,1.16-.34v-6.39Zm3.17-4.2a1,1,0,0,1-1,1.07.94.94,0,0,1-1-1.07,1,1,0,0,1,1-1A.94.94,0,0,1,208.05,313.21Z"/><path class="cls-1" d="M216.54,313h-1.3a2.12,2.12,0,0,1,.33-1,5.42,5.42,0,0,1,1.63-.25,3.8,3.8,0,0,1,.92.11v10.68a4.71,4.71,0,0,0,.14,1.27h1.36a1.1,1.1,0,0,1,0,.24,2.3,2.3,0,0,1-.15.72,9.94,9.94,0,0,1-2.44.36,3.24,3.24,0,0,1-.36-1.3h-.09a2.92,2.92,0,0,1-2.71,1.39c-1.58,0-3.37-1.08-3.37-4.34,0-2.9,1.79-4.83,4.38-4.83a3.1,3.1,0,0,1,1.64.44Zm0,4.43a4.67,4.67,0,0,0-1.5-.25c-2,0-2.89,1.4-2.89,3.49s1,3.37,2.33,3.37a2.37,2.37,0,0,0,2.06-1.09Z"/><path class="cls-1" d="M225.91,323.89a2.78,2.78,0,0,1-2.53,1.37,2.36,2.36,0,0,1-2.57-2.41c0-1.86,1.58-2.81,3.37-2.81a4.7,4.7,0,0,1,1.68.3v-1c0-1.33-.58-2-1.72-2a5.65,5.65,0,0,0-2.64.89,1.6,1.6,0,0,1-.09-.61,2,2,0,0,1,.2-.91,7.48,7.48,0,0,1,2.95-.63c2,0,2.83,1,2.83,3.43V323a1.68,1.68,0,0,0,.24.94,5.68,5.68,0,0,0,1.25-.22.71.71,0,0,1,0,.2,1.9,1.9,0,0,1-.19.81,4.55,4.55,0,0,1-2,.52,1.94,1.94,0,0,1-.76-1.37Zm0-2.75a6,6,0,0,0-1.27-.15c-1.41,0-2.21.63-2.21,1.59a1.46,1.46,0,0,0,1.65,1.44,2.28,2.28,0,0,0,1.83-.89Z"/><path class="cls-1" d="M234.5,317.25a2.89,2.89,0,0,0-1.07-.22c-.94,0-1.48.43-1.48,1.1,0,2,4.22,1.4,4.22,4.54,0,1.87-1.58,2.59-3.26,2.59a5.55,5.55,0,0,1-2.77-.68,4.31,4.31,0,0,1-.09-.87,5.26,5.26,0,0,1,.18-1.28,5.73,5.73,0,0,1,1.31.16v1.25a2.82,2.82,0,0,0,1.51.41,1.36,1.36,0,0,0,1.52-1.35c0-2.14-4.24-1.37-4.24-4.56,0-1.31,1.21-2.25,3-2.25a7.14,7.14,0,0,1,2.55.47,3.26,3.26,0,0,1,0,.56,5.85,5.85,0,0,1-.2,1.46,2.69,2.69,0,0,1-1.21-.27Z"/><path class="cls-1" d="M2.57,346a2.8,2.8,0,0,1-2.08-2.52c0-2.09,1.82-3,3.56-3s3.51.72,3.51,2.7A3.07,3.07,0,0,1,5.48,346v.09a3.17,3.17,0,0,1,2.31,2.79c0,2.31-1.86,3.44-3.92,3.44-1.75,0-3.87-.68-3.87-3a3.48,3.48,0,0,1,2.57-3.24Zm-1,3A2.11,2.11,0,0,0,4,351.29a2,2,0,0,0,2.2-2.22c0-1.33-1.33-1.94-2.69-2.57A2.63,2.63,0,0,0,1.59,349ZM6,343.29a1.85,1.85,0,0,0-2.08-1.87A1.78,1.78,0,0,0,2,343.22c0,1.12,1.19,1.71,2.49,2.31A2.46,2.46,0,0,0,6,343.29Z"/><path class="cls-1" d="M11.63,350.64c1.75,0,3.7-.07,5.6-.22a1.62,1.62,0,0,1,0,.31,7.27,7.27,0,0,1-.11,1.22H9.93l-.24-1.29c1.56-1.39,5.44-3.86,5.44-5.94,0-.94-.75-1.37-1.86-1.37a5.07,5.07,0,0,0-2,.46v1.5a3,3,0,0,1-1.23.27,6.57,6.57,0,0,1-.23-1.69c0-.24,0-.6,0-.81a7.54,7.54,0,0,1,3.53-.9c2,0,3.51.63,3.51,2.28,0,2.67-4,5-5.26,6.05Z"/><path class="cls-1" d="M18.75,351.47a3.71,3.71,0,0,1,.6-1.21,3.71,3.71,0,0,1,.74-.07,4.54,4.54,0,0,1,1.34.21,16.24,16.24,0,0,1-1.65,4.25,3.3,3.3,0,0,1-1-.46,16.66,16.66,0,0,0,.69-2.54Z"/><path class="cls-1" d="M25.13,350.64c1.76,0,3.71-.07,5.61-.22a1.62,1.62,0,0,1,0,.31,8.49,8.49,0,0,1-.11,1.22H23.43l-.23-1.29c1.55-1.39,5.44-3.86,5.44-5.94,0-.94-.76-1.37-1.86-1.37a5.07,5.07,0,0,0-2,.46v1.5a3,3,0,0,1-1.23.27,6.57,6.57,0,0,1-.23-1.69c0-.24,0-.6,0-.81a7.48,7.48,0,0,1,3.53-.9c2,0,3.51.63,3.51,2.28,0,2.67-4,5-5.27,6.05Z"/><path class="cls-1" d="M34.1,350.64c1.76,0,3.71-.07,5.61-.22a1.62,1.62,0,0,1,0,.31,8.49,8.49,0,0,1-.11,1.22H32.4l-.23-1.29c1.55-1.39,5.44-3.86,5.44-5.94,0-.94-.76-1.37-1.86-1.37a5.07,5.07,0,0,0-2,.46v1.5a3,3,0,0,1-1.23.27,6.16,6.16,0,0,1-.24-1.69c0-.24,0-.6,0-.81a7.48,7.48,0,0,1,3.53-.9c2,0,3.51.63,3.51,2.28,0,2.67-4,5-5.27,6.05Z"/><path class="cls-1" d="M47.56,353.61a6.11,6.11,0,0,1-1.56,0v-3.13H40.83l-.25-.94a73.59,73.59,0,0,1,5.15-7.31l1.83.29v6.75h1.61a3.79,3.79,0,0,1,.09.78,2.74,2.74,0,0,1,0,.43H47.56ZM46,345.18a13.88,13.88,0,0,1,.09-1.42H46a48.27,48.27,0,0,0-3.79,5.42v.13c.27,0,.78,0,1.14,0H46Z"/><path class="cls-1" d="M57.07,350.85a6.64,6.64,0,0,1,1.32.24,2.72,2.72,0,0,1,0,.86H54.08a2.56,2.56,0,0,1,.26-.81,7.08,7.08,0,0,1,1.15-.34v-6.39H54.17a2,2,0,0,1,.33-1,4.43,4.43,0,0,1,1.5-.26,3.18,3.18,0,0,1,.85.11v1.32H57a3.2,3.2,0,0,1,2.86-1.54,2.13,2.13,0,0,1,2.4,1.64h.09a3.19,3.19,0,0,1,2.91-1.64c1.42,0,2.66.46,2.66,3.25,0,1.53,0,3-.11,4.51a8.2,8.2,0,0,1,1.47.24,3,3,0,0,1,0,.56,1.51,1.51,0,0,1,0,.3H65.06a2.82,2.82,0,0,1,.25-.81,6.9,6.9,0,0,1,1-.34v-4.21c0-1.39-.41-2.27-1.66-2.27a3.17,3.17,0,0,0-2.21,1.15v5.37a5.74,5.74,0,0,1,1.32.25,2.44,2.44,0,0,1,0,.86H59.65a2.56,2.56,0,0,1,.26-.81,6.54,6.54,0,0,1,1-.34v-4.21c0-1.39-.42-2.27-1.67-2.27a3.12,3.12,0,0,0-2.2,1.15Z"/><path class="cls-1" d="M76.87,344.41h-1.3a1.92,1.92,0,0,1,.32-1,4.64,4.64,0,0,1,1.63-.26,3.8,3.8,0,0,1,.92.11v6.27a5.12,5.12,0,0,0,.15,1.27H80a1.1,1.1,0,0,1,0,.24,2.05,2.05,0,0,1-.15.72,10.31,10.31,0,0,1-2.47.36,3.62,3.62,0,0,1-.36-1.42h-.1A3.18,3.18,0,0,1,74,352.26c-1.41,0-2.66-.45-2.66-3.24,0-1.51,0-3.1.09-4.61H70.09a2.15,2.15,0,0,1,.32-.94,5,5,0,0,1,1.65-.27,3.8,3.8,0,0,1,.92.11v5.46c0,1.36.44,2.25,1.66,2.25a3.13,3.13,0,0,0,2.23-1.1Z"/><path class="cls-1" d="M84.14,350.85a6.64,6.64,0,0,1,1.32.24,2.72,2.72,0,0,1,0,.86H81.15a2.56,2.56,0,0,1,.26-.81,7.08,7.08,0,0,1,1.15-.34v-6.39H81.25a1.92,1.92,0,0,1,.32-1,4.43,4.43,0,0,1,1.5-.26,3.18,3.18,0,0,1,.85.11v1.32h.18A3.25,3.25,0,0,1,87,343.09c1.43,0,2.7.46,2.7,3.25,0,1.51,0,3-.11,4.51a8.08,8.08,0,0,1,1.46.24,2.29,2.29,0,0,1,.06.56,1.51,1.51,0,0,1,0,.3H86.81a2.56,2.56,0,0,1,.26-.81,6.54,6.54,0,0,1,1-.34v-4.21c0-1.39-.44-2.27-1.7-2.27a3.22,3.22,0,0,0-2.26,1.15Z"/><path class="cls-1" d="M92.19,344.41a1.92,1.92,0,0,1,.32-1,5.15,5.15,0,0,1,1.63-.26,4,4,0,0,1,.94.11v7.53a7.74,7.74,0,0,1,1.43.25,3,3,0,0,1,0,.56,1.51,1.51,0,0,1,0,.3H92.09a2.56,2.56,0,0,1,.26-.81,7.08,7.08,0,0,1,1.15-.34v-6.39Zm3.16-4.2a1,1,0,0,1-1,1.07.94.94,0,0,1-1-1.07,1,1,0,0,1,1-1A.93.93,0,0,1,95.35,340.21Z"/><path class="cls-1" d="M103.27,344.41a2.34,2.34,0,0,0-1-.27c-1.55,0-2.68,1-2.68,3.38s1.2,3.5,2.83,3.5a7.94,7.94,0,0,0,2.22-.43,2.16,2.16,0,0,1-.25,1,6.37,6.37,0,0,1-2.68.65c-2.33,0-3.83-1.87-3.83-4.39,0-2.79,1.79-4.78,4.43-4.78a4.44,4.44,0,0,1,2.37.65c0,.18,0,.47,0,.65a4.35,4.35,0,0,1-.25,1.53,3.13,3.13,0,0,1-1.14-.23Z"/><path class="cls-1" d="M106.13,344.41a2,2,0,0,1,.32-1,5.15,5.15,0,0,1,1.63-.26,3.91,3.91,0,0,1,.94.11v7.53a7.74,7.74,0,0,1,1.43.25,2.33,2.33,0,0,1,0,.56c0,.11,0,.19,0,.3H106a2.31,2.31,0,0,1,.25-.81,7.2,7.2,0,0,1,1.16-.34v-6.39Zm3.16-4.2a1,1,0,0,1-1,1.07.94.94,0,0,1-1-1.07,1,1,0,0,1,1-1A.93.93,0,0,1,109.29,340.21Z"/><path class="cls-1" d="M120,347.54c0,3-1.61,4.72-4.11,4.72s-4.12-1.62-4.12-4.72c0-2.75,1.77-4.45,4.12-4.45S120,344.68,120,347.54Zm-4.11,3.64c1.67,0,2.46-1.41,2.46-3.64,0-1.92-1-3.38-2.46-3.38s-2.47,1.35-2.47,3.38C113.42,349.74,114.36,351.18,115.89,351.18Z"/><path class="cls-1" d="M124.54,350.85a6.64,6.64,0,0,1,1.32.24,2.72,2.72,0,0,1,0,.86h-4.34a2.56,2.56,0,0,1,.26-.81,7.08,7.08,0,0,1,1.15-.34v-6.39h-1.32a2,2,0,0,1,.33-1,4.43,4.43,0,0,1,1.5-.26,3.18,3.18,0,0,1,.85.11v1.32h.18a3.24,3.24,0,0,1,2.91-1.54c1.43,0,2.7.46,2.7,3.25,0,1.51,0,3-.11,4.51a8.08,8.08,0,0,1,1.46.24,2.29,2.29,0,0,1,.06.56,1.51,1.51,0,0,1,0,.3h-4.29a2.56,2.56,0,0,1,.26-.81,6.54,6.54,0,0,1,1-.34v-4.21c0-1.39-.44-2.27-1.7-2.27a3.2,3.2,0,0,0-2.26,1.15Z"/><path class="cls-1" d="M134.39,347.88a2.9,2.9,0,0,0,3,3.12,8.36,8.36,0,0,0,2.53-.5,1.92,1.92,0,0,1-.23,1,6.31,6.31,0,0,1-2.86.74c-2.59,0-4.07-1.93-4.07-4.41,0-2.65,1.65-4.76,4.18-4.76,2.17,0,3.09,1.57,3.09,3.84a7.69,7.69,0,0,1-.06.95Zm4-1c.13-1.24-.24-2.75-1.75-2.75-1.29,0-2.12,1.11-2.23,2.75Z"/><path class="cls-1" d="M146.16,344.25a2.83,2.83,0,0,0-1.06-.22c-.94,0-1.49.43-1.49,1.1,0,2,4.22,1.4,4.22,4.54,0,1.87-1.58,2.59-3.26,2.59a5.48,5.48,0,0,1-2.76-.68,3.69,3.69,0,0,1-.09-.87,5.26,5.26,0,0,1,.18-1.28,5.71,5.71,0,0,1,1.3.16v1.25a2.83,2.83,0,0,0,1.52.41,1.37,1.37,0,0,0,1.52-1.35c0-2.14-4.25-1.37-4.25-4.56,0-1.31,1.21-2.25,3-2.25a7.14,7.14,0,0,1,2.55.47,3.26,3.26,0,0,1,0,.56,6.38,6.38,0,0,1-.19,1.46,2.7,2.7,0,0,1-1.22-.27Z"/><path class="cls-1" d="M159.2,340h-1.3a2.11,2.11,0,0,1,.32-1,5.53,5.53,0,0,1,1.63-.25,3.74,3.74,0,0,1,.92.11v10.68a4.71,4.71,0,0,0,.15,1.27h1.36a2.18,2.18,0,0,1,0,.24,2.3,2.3,0,0,1-.14.72,9.94,9.94,0,0,1-2.44.36,3.09,3.09,0,0,1-.36-1.3h-.09a2.94,2.94,0,0,1-2.72,1.39c-1.57,0-3.36-1.08-3.36-4.34,0-2.9,1.79-4.83,4.38-4.83a3.15,3.15,0,0,1,1.64.44Zm0,4.43a4.67,4.67,0,0,0-1.5-.25c-2,0-2.89,1.4-2.89,3.49s1,3.37,2.33,3.37a2.37,2.37,0,0,0,2.06-1.09Z"/><path class="cls-1" d="M165.21,347.88a2.89,2.89,0,0,0,2.94,3.12,8.36,8.36,0,0,0,2.53-.5,1.92,1.92,0,0,1-.23,1,6.27,6.27,0,0,1-2.86.74c-2.58,0-4.07-1.93-4.07-4.41,0-2.65,1.65-4.76,4.18-4.76,2.17,0,3.09,1.57,3.09,3.84,0,.31,0,.63,0,.95Zm4-1c.13-1.24-.23-2.75-1.75-2.75-1.28,0-2.12,1.11-2.22,2.75Z"/><path class="cls-1" d="M177.32,341.2a3.31,3.31,0,0,1,1.21-.28v2.48h2.62a4.27,4.27,0,0,1,.06,1.05h-2.68v4.95c0,1.17.17,1.67,1.18,1.67a7.36,7.36,0,0,0,1.68-.23,1.06,1.06,0,0,1,0,.23,1.6,1.6,0,0,1-.18.7,5.79,5.79,0,0,1-2.23.49c-1.39,0-2.09-.76-2.09-2.61,0-1.06,0-3.39.09-5.2h-1.25a3,3,0,0,1,.21-.94,6.45,6.45,0,0,1,1-.33Z"/><path class="cls-1" d="M190.41,347.54c0,3-1.61,4.72-4.1,4.72-2.64,0-4.12-1.62-4.12-4.72,0-2.75,1.77-4.45,4.12-4.45S190.41,344.68,190.41,347.54Zm-4.1,3.64c1.66,0,2.46-1.41,2.46-3.64,0-1.92-1-3.38-2.46-3.38s-2.48,1.35-2.48,3.38C183.83,349.74,184.77,351.18,186.31,351.18Z"/><path class="cls-1" d="M198.21,340h-1.3a2,2,0,0,1,.32-1,5.48,5.48,0,0,1,1.63-.25,3.8,3.8,0,0,1,.92.11v10.68a5.15,5.15,0,0,0,.14,1.27h1.36a1.1,1.1,0,0,1,0,.24,2.05,2.05,0,0,1-.15.72,9.87,9.87,0,0,1-2.44.36,3.24,3.24,0,0,1-.36-1.3h-.09a2.92,2.92,0,0,1-2.71,1.39c-1.57,0-3.36-1.08-3.36-4.34,0-2.9,1.79-4.83,4.37-4.83a3.16,3.16,0,0,1,1.65.44Zm0,4.43a4.62,4.62,0,0,0-1.5-.25c-2,0-2.89,1.4-2.89,3.49s1,3.37,2.33,3.37a2.36,2.36,0,0,0,2.06-1.09Z"/><path class="cls-1" d="M210.76,347.54c0,3-1.61,4.72-4.11,4.72s-4.12-1.62-4.12-4.72c0-2.75,1.77-4.45,4.12-4.45S210.76,344.68,210.76,347.54Zm-4.11,3.64c1.67,0,2.46-1.41,2.46-3.64,0-1.92-1-3.38-2.46-3.38s-2.48,1.35-2.48,3.38C204.17,349.74,205.12,351.18,206.65,351.18Z"/><path class="cls-1" d="M217.34,341.2a3.31,3.31,0,0,1,1.21-.28v2.48h2.62a4.83,4.83,0,0,1,.06,1.05h-2.68v4.95c0,1.17.16,1.67,1.18,1.67a7.36,7.36,0,0,0,1.68-.23,1.06,1.06,0,0,1,0,.23,1.6,1.6,0,0,1-.18.7,5.83,5.83,0,0,1-2.23.49c-1.39,0-2.1-.76-2.1-2.61,0-1.06,0-3.39.09-5.2h-1.24a3,3,0,0,1,.21-.94,6.45,6.45,0,0,1,1.05-.33Z"/><path class="cls-1" d="M222.44,344.41a2,2,0,0,1,.32-1,5.15,5.15,0,0,1,1.63-.26,3.91,3.91,0,0,1,.94.11v7.53a7.74,7.74,0,0,1,1.43.25,2.33,2.33,0,0,1,.05.56c0,.11,0,.19,0,.3h-4.45a2.54,2.54,0,0,1,.25-.81,7.2,7.2,0,0,1,1.16-.34v-6.39Zm3.16-4.2a1,1,0,0,1-1,1.07.94.94,0,0,1-1-1.07,1,1,0,0,1,1-1A.93.93,0,0,1,225.6,340.21Z"/><path class="cls-1" d="M230.5,355a10.73,10.73,0,0,1,1.72.32,2.54,2.54,0,0,1,0,.83h-4.74a2.82,2.82,0,0,1,.25-.81,7.2,7.2,0,0,1,1.16-.34V344.41h-1.34a2,2,0,0,1,.33-1,4.56,4.56,0,0,1,1.5-.26,3.18,3.18,0,0,1,.85.11v1.17h.18a2.81,2.81,0,0,1,2.66-1.39c1.59,0,3.42,1.09,3.42,4.34,0,2.9-1.83,4.83-4.43,4.83a3.11,3.11,0,0,1-1.6-.43Zm0-4a4.9,4.9,0,0,0,1.5.25c2,0,2.89-1.42,2.89-3.51s-1-3.39-2.33-3.39a2.38,2.38,0,0,0-2.06,1.1Z"/><path class="cls-1" d="M246.53,347.54c0,3-1.61,4.72-4.11,4.72s-4.12-1.62-4.12-4.72c0-2.75,1.77-4.45,4.12-4.45S246.53,344.68,246.53,347.54Zm-4.11,3.64c1.66,0,2.46-1.41,2.46-3.64,0-1.92-1-3.38-2.46-3.38s-2.48,1.35-2.48,3.38C239.94,349.74,240.88,351.18,242.42,351.18Z"/><path class="cls-1" d="M87.44,367h-1.3a2.11,2.11,0,0,1,.32-1,5.48,5.48,0,0,1,1.63-.25,3.74,3.74,0,0,1,.92.11v10.68a4.71,4.71,0,0,0,.15,1.27h1.35a1.1,1.1,0,0,1,0,.24,2.3,2.3,0,0,1-.14.72,10,10,0,0,1-2.44.36,3.24,3.24,0,0,1-.37-1.3h-.09a2.92,2.92,0,0,1-2.71,1.39c-1.57,0-3.36-1.08-3.36-4.34,0-2.9,1.79-4.83,4.37-4.83a3.16,3.16,0,0,1,1.65.44Zm0,4.43a4.71,4.71,0,0,0-1.5-.25c-2,0-2.9,1.4-2.9,3.49S84,378,85.4,378A2.37,2.37,0,0,0,87.46,377Z"/><path class="cls-1" d="M93.44,374.88a2.9,2.9,0,0,0,3,3.12,8.36,8.36,0,0,0,2.53-.5,1.92,1.92,0,0,1-.23,1,6.27,6.27,0,0,1-2.86.74c-2.58,0-4.07-1.93-4.07-4.41,0-2.65,1.65-4.76,4.18-4.76,2.17,0,3.09,1.57,3.09,3.84,0,.31,0,.63,0,.95Zm4-1c.13-1.24-.23-2.75-1.75-2.75-1.29,0-2.12,1.11-2.23,2.75Z"/><path class="cls-1" d="M109.9,371.41a2.34,2.34,0,0,0-1.05-.27c-1.56,0-2.68,1-2.68,3.38s1.2,3.5,2.83,3.5a7.94,7.94,0,0,0,2.22-.43,2.16,2.16,0,0,1-.25,1,6.37,6.37,0,0,1-2.68.65c-2.33,0-3.83-1.87-3.83-4.39,0-2.79,1.79-4.78,4.43-4.78a4.38,4.38,0,0,1,2.36.65c0,.18,0,.47,0,.65a4.35,4.35,0,0,1-.25,1.53,3.13,3.13,0,0,1-1.14-.23Z"/><path class="cls-1" d="M117.93,377.89a2.79,2.79,0,0,1-2.53,1.37,2.36,2.36,0,0,1-2.57-2.41c0-1.86,1.57-2.81,3.36-2.81a4.66,4.66,0,0,1,1.68.3v-1c0-1.33-.58-2-1.71-2a5.65,5.65,0,0,0-2.64.89,1.43,1.43,0,0,1-.09-.61,2.17,2.17,0,0,1,.19-.91,7.48,7.48,0,0,1,2.95-.63c2,0,2.84,1,2.84,3.43V377a1.6,1.6,0,0,0,.24.94,5.51,5.51,0,0,0,1.24-.22.71.71,0,0,1,0,.2,1.89,1.89,0,0,1-.18.81,4.64,4.64,0,0,1-2,.52,1.91,1.91,0,0,1-.76-1.37Zm0-2.75a5.87,5.87,0,0,0-1.26-.15c-1.41,0-2.21.63-2.21,1.59a1.46,1.46,0,0,0,1.65,1.44,2.25,2.25,0,0,0,1.82-.89Z"/><path class="cls-1" d="M121.76,367a2.12,2.12,0,0,1,.33-1,5.41,5.41,0,0,1,1.62-.25,3.83,3.83,0,0,1,.93.11v11.94a8.08,8.08,0,0,1,1.46.25,2.29,2.29,0,0,1,.06.56,1.51,1.51,0,0,1,0,.3h-4.49a2.56,2.56,0,0,1,.26-.81,7.08,7.08,0,0,1,1.15-.34V367Z"/><path class="cls-1" d="M127.28,371.41a1.92,1.92,0,0,1,.32-1,5.15,5.15,0,0,1,1.63-.26,3.91,3.91,0,0,1,.94.11v7.53a7.74,7.74,0,0,1,1.43.25,3,3,0,0,1,.05.56,1.51,1.51,0,0,1,0,.3h-4.44a2.31,2.31,0,0,1,.25-.81,7.2,7.2,0,0,1,1.16-.34v-6.39Zm3.16-4.2a1,1,0,0,1-1,1.07.94.94,0,0,1-1-1.07,1,1,0,0,1,1-1A.93.93,0,0,1,130.44,367.21Z"/><path class="cls-1" d="M133.52,367h-1.31a2.12,2.12,0,0,1,.33-1,5.53,5.53,0,0,1,1.63-.25,3.8,3.8,0,0,1,.92.11v3.47c0,.71,0,1.41-.09,2.11h.18a2.51,2.51,0,0,1,2.57-1.39c1.57,0,3.36,1.09,3.36,4.34,0,2.9-1.79,4.83-4.38,4.83a7.34,7.34,0,0,1-3.21-.72Zm1.55,11a4.67,4.67,0,0,0,1.5.24c2,0,2.89-1.43,2.89-3.51s-1-3.37-2.33-3.37a2.36,2.36,0,0,0-2.06,1.08Z"/><path class="cls-1" d="M145.61,372a2.43,2.43,0,0,1,2.35-1.93,2.63,2.63,0,0,1,.82.15,2.45,2.45,0,0,1,.23,1.08,1.77,1.77,0,0,1,0,.48,2.6,2.6,0,0,0-1.23-.3,2.24,2.24,0,0,0-2.08,1.48v4.82a8.89,8.89,0,0,1,1.79.33,2.76,2.76,0,0,1,0,.82h-4.81a2.31,2.31,0,0,1,.25-.81,6.91,6.91,0,0,1,1.16-.34v-6.39h-1.32a1.92,1.92,0,0,1,.32-1,4.61,4.61,0,0,1,1.5-.26,3.18,3.18,0,0,1,.85.11V372Z"/><path class="cls-1" d="M151.71,374.88a2.89,2.89,0,0,0,2.94,3.12,8.43,8.43,0,0,0,2.54-.5,2,2,0,0,1-.24,1,6.27,6.27,0,0,1-2.86.74c-2.58,0-4.06-1.93-4.06-4.41,0-2.65,1.64-4.76,4.17-4.76,2.17,0,3.09,1.57,3.09,3.84a7.66,7.66,0,0,1,0,.95Zm4-1c.12-1.24-.24-2.75-1.76-2.75-1.28,0-2.11,1.11-2.22,2.75Z"/><path class="cls-1" d="M163.48,371.25a2.89,2.89,0,0,0-1.07-.22c-.94,0-1.48.43-1.48,1.1,0,2,4.21,1.4,4.21,4.54,0,1.87-1.57,2.59-3.25,2.59a5.55,5.55,0,0,1-2.77-.68,4.31,4.31,0,0,1-.09-.87,5.26,5.26,0,0,1,.18-1.28,5.64,5.64,0,0,1,1.3.16v1.25a2.88,2.88,0,0,0,1.52.41,1.36,1.36,0,0,0,1.52-1.35c0-2.14-4.25-1.37-4.25-4.56,0-1.31,1.21-2.25,3-2.25a7.06,7.06,0,0,1,2.55.47,2.46,2.46,0,0,1,0,.56,5.85,5.85,0,0,1-.2,1.46,2.66,2.66,0,0,1-1.21-.27Z"/><path class="cls-2" d="M202.53,122.82c-2.06-6.76-4.45-13.43-6.09-20.29a265.12,265.12,0,0,1-5.87-37.72c-1.19-12.91-2.12-25.85-3-38.78-.24-3.25,0-6.53,0-10h-2.63c-3.85,0-7.7,0-11.56,0-1.11,0-1.46-.35-1.79-1.44a39.56,39.56,0,0,0-3-7.86c-1.86-3.32-4.9-5.29-8.88-4.75-4.24.58-6.57,3.59-8.39,7.38l6.27,2.73c.67-.91,1.22-1.77,1.88-2.52a1.51,1.51,0,0,1,2.5,0A10.79,10.79,0,0,1,164.53,16c-.69,0-1.19.09-1.69.09-6.23,0-12.46,0-18.7,0-1.33,0-1.69-.45-1.89-1.69a18,18,0,0,0-3.65-8.67c-2.22-2.72-5-4.33-8.6-3.63-4,.79-6.28,3.66-8,7.34l6.25,2.69c.71-1,1.27-1.81,1.94-2.56a1.41,1.41,0,0,1,2.24-.13,10.55,10.55,0,0,1,2.84,6.45,4.87,4.87,0,0,1-.75.15c-6.69,0-13.37,0-20.06,0-1.07,0-1.29-.49-1.44-1.4a17.88,17.88,0,0,0-4.41-9.76c-2.4-2.51-5.34-3.68-8.78-2.62s-5.56,3.8-7.11,7.14l6.3,2.68c.7-1,1.22-1.77,1.85-2.49a1.51,1.51,0,0,1,2.49,0A10.61,10.61,0,0,1,106,15.81c-.26.13-.36.23-.46.23-6.86,0-13.71.05-20.57,0-.39,0-.92-.75-1.12-1.26-1.09-2.7-1.78-5.63-3.21-8.13-1.85-3.25-4.9-5.13-8.81-4.57-4.24.61-6.55,3.61-8.35,7.38l6.28,2.71c.69-.93,1.25-1.78,1.91-2.54a1.42,1.42,0,0,1,2.24-.18c1.82,1.77,2.54,4,2.9,6.66H48.18V143.57H187.29V124.7h16C203,124,202.7,123.4,202.53,122.82Z"/><path class="cls-3" d="M43.19,15.3s.23-.17.25-.14l.85.41.15-.08s-1.71,2.45-1.36,3,7.18-4.15,7.18-4.15-8.69,4.73-8.47,5.11c0,.05,6.72-3.88,6.72-3.88s-5.94,4.15-5.29,5.27c.28.47,10-5.78,10-5.78,1.51,2.62-9.45,7.57-9.44,7.58.5.88,12.2-10.86,13.86-8,0,0-18.11,5.64-15.49,10.17C42.83,26,54.91,11.5,57.51,16c.9,1.56-16,6-14.09,9.22S60.52,14.11,61.06,15C63.87,19.91,42.2,26,42.2,26S59.06,12.64,60.63,15.37L43.88,26.12l5.21-3-5.22,4.95c.33.56,7-4.12,7.06-4.08s-8.53,5-8,5.88,6.19-4.24,6.48-3.74c.75,1.31-5.63,4.78-5.63,4.78s6.13-5.56,7-4l-9,6.7c.34.59,8.48-4.9,8.48-4.9,1,1.71-7.23,4-6.42,5.39l6.1-3.51c.48.83-8.21,2.54-7.05,4.55l7.71-4.45c.28.49-7.19,2.49-6.19,4.21,0,0,5.34-4.82,6.09-3.52.56,1-7.93,5-7.93,5s8.3-6.11,8.87-5.12l-9.1,6.33,8.9-5.14s-7.22,3.2-6.78,4c0,0,6.37-3.92,6.47-3.74.25.43-8.17,5.13-7.57,6.16.78,1.35,6-4.16,6.32-3.64,0,0-7.23,2.67-6.14,4.55.64,1.11,5.91-3.41,5.91-3.41l-6.66,4.89s8.56-6.7,9.32-5.39c0,0-9.51,4.77-8.61,6.33s8.38-5.63,8.72-5c1.45,2.51-9,4.92-7.86,6.85.14.24,7.22-4.16,7.22-4.16,1.3,2.25-9.18,4.48-8.07,6.4s7-5,7.41-4.27c.73,1.27-9.37,5.52-9.25,5.72l8.15-4.71c.74,1.28-6.27,4.27-6.27,4.27.85,1.47,8.71-5,8.71-5,.13.22-10.07,7.36-10.07,7.36s8.9-7.2,9.79-5.65L43.2,50.42c1.34,2.33,9.68-5.59,9.68-5.59C54.27,47.24,44.45,50,44.45,50l6.82-3.94s-7.93,4.45-6.87,6.28c.72,1.25,7.28-4.2,7.28-4.2,1.26,2.2-7.88,5.47-7.88,5.47.83,1.44,6.8-5,7.25-4.18.17.27-9.28,7.37-9.28,7.37s8.72-6.06,9.17-5.29c.22.39-10.64,4-9.27,6.42,0,0,10.55-9.46,12-6.93,0,0-12.07,7-11.33,8.32.3.52,8.61-5,8.61-5,.59,1-6.94,2.23-6.16,3.59.31.54,7.49-4.33,7.49-4.33,1.23,2.13-10.78,4.7-9.72,6.53,1.5,2.59,9-6.64,9.59-5.54.83,1.45-10.23,5.69-9.5,7,0,0,8.75-8.34,10.17-5.87s-11.94,7-11.14,8.42,10-6.41,10.29-5.94c1,1.79-10.63,6.59-10.11,7.49.1.17,11.26-6.5,11.26-6.5C54.37,61.33,40,63.12,41.9,66.39c1.47,2.55,12.42-7.17,12.42-7.17,1.66,2.88-9.93,6.37-9.93,6.37,1.24,2.15,8.44-5.1,8.54-4.93,1.15,2-8.82,6.09-8.82,6.09.09.16,8.84-6,9.24-5.34.27.47-10.85,4.36-9.63,6.46,0,0,8.66-6.13,9.14-5.28,1.85,3.19-10.82,7.27-10.58,7.69l10.45-6c1.38,2.4-11.24,5.63-10.37,7.14L53.58,64.9c.81,1.4-10.37,4.53-9.53,6,0,0,8.39-6.06,8.92-5.15,0,0-10.58,4.13-9.17,6.58,0,0,8.81-6.42,9.39-5.42,1.76,3-12,6.66-11.46,7.66.28.48,11.42-7.81,12-6.89l-10.39,7c.29.51,10.2-7.31,10.82-6.25.13.23-10.59,5.48-10.08,6.36,0,0,8.52-7.48,9.63-5.56,1.4,2.43-10,6.09-9.83,6.33,0,0,10.07-6.49,10.37-6,1,1.69-10.53,6.48-10.4,6.7,0,0,8.75-8.15,10.09-5.83,0,0-11.58,4.48-9.9,7.38.6,1,9.24-5.34,9.24-5.34s-12.17,5.09-11.09,7c1,1.66,11.35-7.56,11.79-6.8,1.51,2.62-9.79,7-9.79,7S54.78,73,55,73.33c2,3.5-12,8.43-12,8.43l12-6.93c1.74,3-12,5.87-11,7.6.4.69,10.19-8.5,11.32-6.54,0,0-13.36,5.23-11.62,8.25L54.28,78c.31.54-12.09,8-12.09,8l13.67-7.89c.57,1-12.82,9-12.82,9l12.18-7c1.38,2.39-11.91,8.72-11.91,8.72C44,90.05,57,80.9,57,80.9S41,88.3,42.57,91c2,3.37,14.43-8.33,14.43-8.33s-13.93,6.6-12.81,8.54l12.34-7.12c.68,1.18-13.27,7.6-12.75,8.51,0,0,12-7.88,12.41-7.17,0,0-13.34,7.82-13.12,8.21L57.59,85.3c.69,1.2-13.83,7.24-13.4,8,.73,1.25,11.16-10,12.69-7.32,0,0-15.66,8.45-14.72,10.07.65,1.13,13.26-9.61,14.11-8.15,0,0-13.1,6.36-12.06,8.16L58,88.11s-15.82,6.41-14.43,8.81L50.33,93s-8.41,4.1-7.58,5.53c.29.5,5.67-3.28,5.67-3.28s-4.72,3.64-4.52,4,7.57-4.37,7.57-4.37l-9.36,7.58s6.71-5.53,7.43-4.29c0,0-8.48,2.92-7.56,4.5,0,0,5.44-5.36,6.4-3.7,0,0-4.47,1.94-4.18,2.44,1,1.78,7-4,7-4,.22.38-9.37,7.29-9.36,7.31,1,1.75,7.07-4.87,7.41-4.27.06.11-7.13,2.83-6.12,4.59l8.08-4.66c.1.18-7.29,2.73-6.44,4.21,0,0,3.78-2.49,3.91-2.26,0,0-7.2,3.36-6.77,4.11.26.44,9.62-5.56,9.62-5.56,1.11,1.92-10.21,3.71-8.84,6.08.27.47,6.81-4.76,7.17-4.14,0,0-7,3.44-6.46,4.43l7.42-4.29-7,4.07c.63,1.09,6.7-3.86,6.7-3.86s-6.66,1.71-5.72,3.35,4.84-2.8,4.84-2.8c.39.68-5.38,4-5.38,4,.86,1.5,6.19-3.58,6.19-3.58.48.83-7.82,3.76-7.07,5.07.89,1.54,7.49-4.33,7.49-4.33.36.63-8.19,4.94-8.19,4.94.91,1.59,6.81-5.21,7.36-4.25,0,0-6.75,3.86-6.41,4.45.62,1.08,5.39-3.11,5.39-3.11s-6.42,2.64-5.9,3.54c0,0,7.39-5.64,8-4.61.11.19-8.23,2.35-7,4.39,0,0,5.41-4.32,5.93-3.43L44,111.08c.58,1,5-5,5.92-3.42.43.75-7.51,4.51-6.63,6,1.06,1.84,7.81-4.86,8-4.59l-9.43,6.21c.36.62,9.68-5.6,9.68-5.6.74,1.27-9.47,7.72-9.47,7.72.5.88,8.29-6.46,9-5.21,0,0-8.78,6.16-8.54,6.58,1,1.71,5.87-5.2,6.65-3.85,0,0-6.18,3.71-5.27,5.29l6.77-3.91c.55,1-6,4.83-6,4.83s6.21-4.2,6.47-3.74c.07.13-7.27,2.35-6.46,3.75,0,0,3.89-4.6,4.91-2.84.11.2-7.53,3.62-6.87,4.76.8,1.39,4.91-4.91,5.8-3.36.67,1.15-4.5,3.7-4.34,4,0,0,4.52-4.55,5.36-3.09.55.95-7.8,5.24-7.8,5.24.92,1.6,9.28-5.36,9.28-5.36,1.12,1.94-9,6.36-9,6.36l7.16-4.13c.32.56-4.74,3.85-4.74,3.85s4.52-3.89,5.08-2.93c0,0-8.12,3.29-7,5.25,0,0,8.26-5.82,8.72-5l-7.61,4.67s4-4.67,5-2.89c.4.69-7.11,2-6.11,3.75.31.53,5.82-5.28,6.65-3.84.32.56-5.24,3.17-5.24,3.17s5.74-5.72,6.79-3.92c.31.55-8.4,6.27-8.4,6.27s8.63-6.31,9.2-5.31c1.25,2.16-8.39,5.67-8.39,5.67l6.5-3.76s-7.25,3-6.44,4.43l5.37-3.1L44,133.3s6.54-4.4,6.81-3.93c0,0-8.61,5.33-7.83,6.68,1,1.67,5.44-3.25,5.49-3.17.8,1.4-6.74,6.14-6.74,6.14s6.56-5.88,7.47-4.31-6.17,3.76-5.54,4.85c.85,1.47,5.45-3.14,5.45-3.14s-4.36,3-4.25,3.16C46.16,141.9,50,134.13,51,136c.46.79-9,5.73-8.47,6.7,1.67,2.9,12.57-7.69,12.76-7.37.5.87-10.18,7.59-10.18,7.59s12.4-10.5,13.85-8c1.07,1.86-10.24,6.74-10.09,7,0,0,9.53-8.24,10.72-6.19,1.33,2.31-10.43,4.21-9.41,6,2,3.45,12-6.94,12-6.94s-14.42,4.94-12.87,7.63c1.41,2.43,10.37-6,10.37-6l-10.43,7.08c1,1.81,11.85-10.33,13.35-7.71,1.3,2.24-7.43,5.9-7.43,5.9s10.51-8.83,11.7-6.76c0,0-13.74,4.13-11.81,7.47,1.54,2.66,10.57-9.31,12-6.9,1.82,3.15-10,7.7-10,7.7.78,1.33,14.52-8.38,14.52-8.38S58.42,141.55,59.24,143l14.48-8.36c1.25,2.18-11.39,6-10.28,8l12.68-7.32c.54.93-10.51,7.52-10.51,7.52,1,1.76,12.1-7,12.1-7,.47.82-10.71,6.1-10.43,6.58,0,0,12-7.27,12.17-7,0,0-10.67,4.71-9.19,7.26.2.36,10.58-9.5,12-7,.23.42-11.83,4.87-10.36,7.42.57,1,13.35-7.71,13.35-7.71s-9.55,4.25-8.08,6.79c.1.19,10-10.45,12-6.92,1.4,2.42-10,7.16-10,7.16,1.89,3.27,10.49-6.06,10.49-6.06.75,1.29-8.06,5.75-7.66,6.45,1.09,1.88,9.33-9.84,11.26-6.5.86,1.48-8.42,5.22-8,5.88.51.89,10.06-5.81,10.06-5.81s-11.57,4-9.87,7c0,0,12.88-9.45,13.75-7.94,1.65,2.84-11.47,7.36-11.46,7.37l11.38-6.58c.83,1.44-8.11,4.72-7.27,6.19,1.17,2,12.26-7.08,12.26-7.08.83,1.43-7.2,6.41-7.2,6.41.86,1.5,9.81-5.66,9.81-5.66.92,1.58-9.15,6.47-9.15,6.47s9.62-8.17,10.75-6.21c0,0-11.55,5.74-10.83,7,1.65,2.87,10.89-10.8,12.85-7.42,1.12,1.94-8.68,7.12-8.64,7.18s11.85-10.35,13.37-7.72c.09.16-11.16,5.6-10.28,7.12,0,0,9.24-8,10.41-6,1,1.8-9,6.64-9,6.64,1.61,2.8,12.39-10.19,13.71-7.91,0,0-12.55,6.39-12.13,7.12,1.85,3.21,13-7.71,13.1-7.56.71,1.25-13.78,6.77-12.84,8.4.24.42,12.51-7.22,12.51-7.22.39.69-13.68,4.72-12.16,7.34,1.37,2.37,12.93-7.46,12.93-7.46,1.15,2-9.46,7.21-9.46,7.21s11.22-10.31,12.88-7.44c0,0-9.2,6.24-9,6.65,1.48,2.55,11.26-8.53,12.14-7,0,0-12.5,5.1-11,7.7,0,0,10.11-9.62,11.75-6.79,1.26,2.19-9.46,4.73-8.94,5.63l11.91-6.87-10.38,7.5s11-10.28,12.73-7.35c.88,1.52-13,6.61-12.63,7.32.51.88,11.84-6.84,11.84-6.84l-7.67,6.46c0,.07,10.83-6.68,11-6.36,0,0-11.26,5.13-10.4,6.61,0,0,9.75-6.73,10.23-5.91.18.32-11.11,6.19-10.9,6.57,1.51,2.61,11.84-9,12.79-7.38s-9.25,4.82-8.3,6.45l12.2-7c1,1.74-14.13,5.55-12.41,8.53.11.18,14.78-8.53,14.78-8.53s-13.31,5.62-11.77,8.28l13.76-7.94s-14.52,5.89-13.29,8c1.33,2.3,13.71-8.1,13.78-8,1.09,1.88-11.39,7-11,7.59,0,0,10.74-7.53,11.31-6.53.25.43-7.4,5.44-7.4,5.44s11.66-8.59,12.46-7.19c.09.15-12.44,7.23-12.44,7.23l11.45-6.61s-12.57,6.08-11.44,8c0,0,13-11.37,14.69-8.48,1.23,2.14-8.47,6.7-8.27,7,1.59,2.76,8.9-7.31,9.84-5.68l-6.91,6.07c.34.59,9.58-7.09,10.26-5.92.55.94-7.38,5.61-7.22,5.9.41.7,9-7.63,10-5.79,0,0-12.25,4.4-10.74,7,.15.25,12.75-8.57,13.28-7.66l-11.15,7.56S167,132,168.57,134.74c1.71,3-11.35,7.6-11.35,7.6,1,1.71,11.47-7.26,11.75-6.78s-10.44,6.06-10.18,6.5c1.49,2.58,11.8-6.82,11.8-6.82s-9.15,4.76-8,6.85l10.66-6.15s-7,5.44-6.74,5.88c0,0,14.73-12.7,16.55-9.55,0,0-18.66,8.47-17.5,10.48,0,0,14.11-13.11,16.26-9.38l-14.38,9.11c2.44,4.23,13.72-7.92,13.72-7.92.3.52-12.72,8.58-12.72,8.58,1.63,2.82,14-8,14-8,1,1.64-8.85,7.34-8.85,7.34,1.38,2.41,8.09-5.08,8.27-4.77l-8.13,4.84c1.44,2.48,8.27-4.77,8.27-4.77s-9.06,3.63-7.88,5.68c.67,1.15,9.12-5.26,9.12-5.26s-6.93,3.08-6.4,4c0,0,5.59-3.23,5.59-3.23.09.16-4.67,2.86-4.34,3.44l5.28-3.05c.31.54-2,2.92-2,2.92l1-.57c.07.11-.86.8-.83.84s.8-.47.8-.46-2,1-1.82,1.37l3.24-1.87"/><path class="cls-3" d="M184,122.81c.13.22,10.83-9.85,12.39-7.15,0,0-14.41,8-14.07,8.54.58,1,12.89-8.26,13.24-7.65,1.78,3.09-9.86,7.81-9.86,7.81,1,1.76,10.16-8.09,11.12-6.42,0,0-8.67,4.16-7.41,6.34,0,0,6.18-4.08,6.4-3.7,0,0-4.3,1.92-3.78,2.81,0,0,3.81-2.27,3.84-2.22.32.55-2.17,2.12-2.14,2.18.13.22,3.68-2.74,3.94-2.27l-4,3.18,3.33-1.92c.19.33-1.26,1.28-1.26,1.28l2.32-1.34c.14.24-.9,1.82-.9,1.82L199,123"/><path class="cls-3" d="M50.08,92.83c.35.6,4.8-5.3,5.9-3.4.6,1-5.48,4.47-5.08,5.17.88,1.53,5.35-5.52,6.41-3.7.85,1.47-5.47,5.1-5.47,5.1,1,1.73,5.2-3.14,5.26-3,.81,1.42-6.65,5.45-6.65,5.45.55,1,4.87-5.19,5.9-3.4,0,0-4.69,2.4-4,3.62,0,0,5.9-4.27,6.28-3.62.71,1.24-6.5,5.37-6.31,5.71s5.85-3.53,5.92-3.41c.61,1.06-7.34,4.72-7.34,4.72s7.21-5.56,7.82-4.51c0,0-7.2,3.41-6.87,4,.76,1.31,7-4.05,7-4.05S51.71,103,51.72,103s5.84-3.43,5.86-3.39S53.73,103,53.73,103l5.11-3s-5.79,4.83-5.5,5.33c.53.91,6-5.68,6.95-4,1.38,2.39-8.24,6.21-8.24,6.21.73,1.27,7.22-4.77,7.48-4.32s-6.36,4.29-5.76,5.33c1,1.73,7-4.69,7.24-4.19s-5.56,3.86-5.56,3.86,3.16-3.22,3.76-2.17c0,0-6.86,3.85-6.07,5.23,0,0,8-6.18,8.69-5,.21.36-8,5.3-8,5.3l6.33-3.65c.6,1-4.29,2.78-4,3.25,0,0,3-2.78,3.45-2l-5,4.08c.85,1.47,7.13-4.12,7.13-4.12s-6.11,4.57-5.62,5.41,3.78-2.92,4.1-2.36c.12.22-3.75,2.23-3.75,2.23l6.25-3.61-5.45,3.78L63.43,111c.16.28-9.46,4.19-8.27,6.26.69,1.19,7.84-4.53,7.84-4.53l-7,5.5,7.24-4.18s-7.53,2.85-6.73,4.23c0,0,5-5,5.93-3.42.62,1.08-4.27,3.89-3.93,4.48l6-3.49-8,5.42,6.69-3.86s-4.29,3.15-3.91,3.8l9-5.17c.57,1-12,4.51-10.46,7.22.31.53,9.34-8.59,10.73-6.19l-10.12,6.49c1.81,3.13,11.75-6.78,11.75-6.78.63,1.09-10.59,6.75-10.59,6.75s8.33-9.16,10.22-5.9c1.24,2.16-10.51,6.26-10.51,6.26s13.73-8,13.74-7.93S62,122.38,62.68,123.56c1.09,1.89,10.5-7.74,11.23-6.48l-8,6.11c.65,1.13,9.26-8.44,10.6-6.12s-8.43,6.69-8.43,6.69l11.19-6.47-10.37,6.16L81.76,116l-13.92,8.65c.41.72,10.54-9.84,12.16-7,1.24,2.15-6.23,5.89-6.23,5.89.52.9,11.94-6.89,11.94-6.89,1.5,2.59-10.46,6.37-10.46,6.37s10.23-9.09,11.61-6.71c1.47,2.54-10.88,7.07-10.88,7.07.67,1.16,12.27-8.29,12.79-7.38l-12.44,8.48c1.72,3,14-8.08,14-8.08S78.88,120.1,80.54,123c.5.85,9.9-5.71,9.9-5.71s-9.62,5.57-9.4,6c.93,1.61,11.45-8.65,12.33-7.13,1.79,3.1-11.74,7.63-11.42,8.18l12.35-7.12s-11.32,3.71-10,6c0,0,10.61-9.88,12.24-7.07,1.19,2.06-13.14,5.18-11.32,8.35L99,116.56c.51.88-11.41,6.85-11.41,6.85,1.14,2,12.52-7.22,12.52-7.22,1.11,1.92-9.53,6-8.9,7.11,1.12,1.94,11-6.36,11-6.34,1.31,2.28-8.65,6.72-8.65,6.72s11.55-10.15,13-7.54c1,1.69-12.33,4.1-10.53,7.23.14.24,12.43-7.48,12.56-7.25.5.87-8.6,7.16-8.6,7.16.59,1,11.37-6.57,11.37-6.57l-10.09,6.8c1.59,2.76,10.26-5.92,10.26-5.92.85,1.47-9,6.65-9,6.65s12.86-7.57,12.93-7.47c.31.54-11.57,7.45-11.57,7.45l12-6.91-10.2,6c2,3.41,10.37-6,10.37-6s-9.31,5.11-8.45,6.6l11.82-6.83s-10.07,6.41-9.55,7.3c.05.1,13.25-7.65,13.25-7.65l-8.57,6.78c.66,1.16,12.47-8.38,13-7.5,1.9,3.3-16,5.62-14.31,8.51,1.59,2.74,13.9-8,13.9-8,.23.4-9.7,4.57-8.51,6.64,1,1.77,11-6.33,11-6.33,1.12,1.94-10.31,7.59-10.18,7.82.64,1.11,13.47-11.87,15.24-8.8,1.57,2.72-14.24,8.24-14.24,8.24l13.17-7.6s-10.39,7.18-10,7.77c1.29,2.23,13.43-7.76,13.43-7.76,1.88,3.27-11.95,7.67-11.63,8.22,0,0,12-8.16,12.54-7.24l-11.67,7c1.16,2,13.52-7.81,13.52-7.81.39.68-11.34,7.21-11.34,7.21s9.64-9.17,11.2-6.46l-8.31,6.29c.3.51,13.07-8.47,13.47-7.78,0,0-13.7,5.86-12.57,7.82.73,1.26,10.13-8.46,11.26-6.5l-11.48,7c.48.84,13.28-7.67,13.28-7.67s-11.78,4.94-10.35,7.42c.84,1.45,9.64-9.82,11.48-6.63,0,0-13.21,3.93-11.47,6.94,0,0,13.25-10.31,14.4-8.32l-10.17,8.16c.12.2,12.57-10,13.77-7.94,1.62,2.8-11.28,7.56-11.28,7.56s12-10.07,13.36-7.7-12.72,7.56-12.72,7.56c1.09,1.88,11.53-11.18,13.49-7.78,0,0-12.85,7.57-12.83,7.6l10.57-6.11c.51.88-11.85,4.26-10.23,7.07,0,0,11.34-9.59,12.66-7.3,0,0-7.26,4.44-6.44,5.86,1.22,2.11,11.43-6.6,11.43-6.6,1.4,2.43-8.88,6.54-8.88,6.54l11.35-6.56-13.35,8c.28.48,13.83-8,13.83-8,1.3,2.25-10.86,7.6-10.86,7.6.73,1.27,12.42-7.17,12.42-7.17l-9.55,6.88,12.19-7s-9.91,6.72-9.56,7.32l13.2-7.62-11.19,6.87s10-10,11.78-6.8c.75,1.31-10,6.47-9.85,6.78,1.64,2.84,10.35-6.74,10.69-6.17l-9.32,7.49c1,1.76,12.1-7,12.1-7s-7.53,5.52-7.53,5.52c1.72,3,9.49-9.07,11-6.37.44.77-12.5,5.88-11.7,7.26L181.62,116c.84,1.46-12.88,6.16-11.75,8.13,0,0,12-8.86,12.86-7.43,1.79,3.1-12.73,5.45-11.38,7.79,0,0,13.85-8.89,14.24-8.22,0,0-14.8,7.53-14.33,8.34,0,0,14.8-9.36,15.16-8.75l-13.07,8.59c1.3,2.24,11.87-7.54,12.17-7,0,0-10.46,5.46-10.12,6.06l12-6.91c0,.06-11.26,8.12-11.26,8.12s18.54-13.76,19.86-11.47c1.45,2.51-20.7,14-20.7,14L194,116.41c.87,1.49-22.29,6.68-19.24,12,1.14,2,6.68-3.86,6.68-3.86.81,1.42-4.84,4.92-4.84,4.92.16.29,6.5-3.75,6.5-3.75,1,1.71-9.42,5.93-9.42,5.93s7.3-6.48,8.28-4.78c.16.27-6.58,3.67-5.73,5.12,0,0,5.46-5.24,6.36-3.67,0,0-6.92,3.59-6.14,4.95,0,0,5.49-5.85,6.65-3.84,0,0-7,4.49-6.79,4.8.83,1.44,6.17-5.88,7.18-4.15,0,0-7,3.84-6.66,4.39.66,1.13,3.93-2.63,4.08-2.36"/><path class="cls-3" d="M169.13,21c1.11,1.92,11.06-6.39,11.06-6.39s-8.85,4.74-7.93,6.33L183,14.72c1,1.77-9.54,6.89-9.36,7.19l7.63-4.41c.24.41-6.63,3.64-6.05,4.65l5.59-3.23-3.69,4.17s4-4,4.77-2.75c.44.77-5.89,3.74-5.65,4.15.13.23,5.7-3.29,5.7-3.29s-7.3,4-7.16,4.26c.75,1.29,8.88-5.13,8.88-5.13s-9.4,3.93-8,6.4l7.39-4.26s-7.5,4.94-7.37,5.16,6.18-5.24,6.9-4c.28.48-5.11,3-5.11,3s3.81-2.29,3.85-2.22c1.11,1.92-6.65,6.1-6.65,6.1s8.49-6,9-5.19c0,0-9,3.88-7.72,6l7.06-4.08c1.21,2.1-8.21,3.37-7.15,5.21,1,1.66,5.61-5.63,6.64-3.84l-4.84,4.17s2.92-4,3.92-2.26c0,0-6.53,3.73-5.76,5.07.47.82,5.77-4.38,6.23-3.6,0,.06-6.41,5.64-6.41,5.64.34.58,6.13-4.73,6.65-3.84l-4.12,4.63c.16.27,4.74-2.73,4.74-2.73.09.15-6.57,4.19-6.57,4.19.77,1.33,7.31-4.22,7.31-4.22.93,1.61-8.15,3.13-7.29,4.61,0,0,5.38-4.43,6-3.44l-6.51,3.83s6.67-5.16,7.24-4.18c0,0-6.21,3.46-5.63,4.47l7.25-4.19c.51.87-7,2.84-6.22,4.16s5.23-3,5.23-3l-5.56,4.9s3.61-3.56,4.25-2.45c.16.28-3.9,3.25-3.9,3.25,1,1.77,3.83-3.11,4.22-2.43l-4,3.3c.1.16,4-3.56,4.55-2.63s-8,4.35-7.18,5.68c.33.56,8.93-5.88,9.24-5.34.08.13-8.82,3.87-7.87,5.51l6-3.43c.11.19-5.08,3.23-5.08,3.23L182.75,45l-6.48,5.11c.49.86,7.53-4.35,7.53-4.35.71,1.22-6.12,3.66-5.59,4.59.07.1,3.84-4.14,4.67-2.7,0,0-6.31,4-5.92,4.7,0,0,5.44-5.43,6.44-3.71,1.19,2.07-6.65,6.13-6.65,6.13s7.75-6.52,8.63-5c.33.56-7.47,4.56-7.3,4.85l6.15-3.55s-5.59,3.31-4.88,4.53c.94,1.62,6.15-3.55,6.15-3.55.86,1.5-7.27,4-6.8,4.8l5.64-3.26c.55,1-6.71,2.31-6,3.5,0,0,4.34-3.57,4.8-2.77,0,0-6.5,4.08-6.16,4.67,0,0,6.35-4.25,6.6-3.81.94,1.62-6,3.68-5.6,4.43s8.25-4.76,8.25-4.76c1.28,2.22-7.53,6-7.53,6,.54.92,5.75-5.33,6.62-3.82s-5.72,4.24-5.72,4.24c.1.16,5.26-3.11,5.29-3.05.44.76-4.83,3.66-4.47,4.29l5-2.91c.48.84-6.24,2.61-5.63,3.67.24.41,6.56-3.79,6.56-3.79.86,1.48-5.7,4.2-5.7,4.2.6,1,3.47-2.7,3.77-2.18s-3.87,3.33-3.87,3.33c1,1.74,3.28-1.9,3.28-1.9.57,1-3.69,2.76-3,4,.82,1.41,3.15-3.58,3.91-2.26s-5.18,4.47-5,4.8c0,0,5.38-5.19,6.29-3.62.8,1.39-8.05,3.73-7.62,4.48,0,0,8.41-4.86,8.41-4.86,1.51,2.62-8.52,6.11-8.52,6.11.79,1.37,5.39-5.31,6.34-3.66.81,1.4-5.41,4-5.29,4.15,0,0,4.55-4.59,5.4-3.12s-5.66,3.71-5.66,3.71c.36.62,7.14-4.12,7.14-4.12.28.47-5.57,3.45-5.25,4,0,0,5.93-3.74,6.07-3.5,1.13,2-9.29,4.55-8.12,6.58,0,.08,6.86-5.45,7.5-4.34.75,1.3-5.69,4.12-5.69,4.12.49.84,3.93-2.79,4.16-2.4,0,0-3.66,3.24-3.19,4l3.45-2c.1.17-5.37,3-5.05,3.51L186.33,75c.31.53-5,2.66-4.87,2.89.68,1.18,5.47-3.16,5.47-3.16.3.52-5.5,5.26-5.5,5.26.57,1,3.69-2.85,4-2.31.62,1.07-4.17,4.33-4.17,4.33.6,1.06,6.06-4.34,6.43-3.71L183,82.92c.63,1.08,4-2.31,4-2.31l-5.83,5.5c.46.79,7.66-4.43,7.66-4.43l-5.22,4.82s4.09-3.74,4.69-2.71c1,1.75-7.23,5.44-6.83,6.13,0,0,5.12-4.9,6-3.44a42.31,42.31,0,0,1-4.1,2.54c.47.82,5.58-3.22,5.58-3.22l-6,5.3c.37.64,6.75-3.9,6.75-3.9.33.56-5.74,4.89-5.74,4.89l4.37-2.52L185,93.2c.49.84,4.42-3,4.61-2.66.47.83-5.85,3.9-5.85,3.9.79,1.37,6.36-4.26,6.62-3.82.44.77-5.53,3.65-5,4.5.18.31,2.66-1.53,2.66-1.53s-2.36,2.65-2.32,2.71,2.31-1.87,2.54-1.47l-4,4.49s5.38-3.74,5.66-3.26c.78,1.35-5.56,2.24-4.76,3.63.18.32,6.37-3.68,6.37-3.68.78,1.35-7.5,2.81-6.4,4.71.11.2,6.33-3.65,6.33-3.65.3.51-8,6-7.77,6.46,0,0,8.13-6.2,8.78-5.07.32.54-5.77,3.68-5.77,3.68l2.91-1.67c.55,1-3.47,3.54-3.41,3.64.93,1.62,4.41-3.74,4.92-2.84l-5,4.94c.41.73,5.82-3.68,6-3.44.37.63-6.88,3-6,4.59.54.93,5-4.34,5.66-3.27,0,0-5.75,3.58-4.88,5.08.22.39,4-3.14,4.32-2.5,1,1.66-5.93,3.28-5.61,3.84,0,0,5.15-4.69,5.9-3.4.88,1.54-5.87,2.47-5.13,3.76.41.71,6.65-5.72,7.46-4.31s-7.51,4.27-6.52,6c.7,1.22,4.58-4.78,5.51-3.18s-5.39,4.07-5.19,4.42l4.9-2.83c.92,1.6-4.71,4.35-4.71,4.35.93,1.6,4.73-4,5.29-3.06.13.23-4.49,2.88-4.26,3.28,0,0,6-5.24,6.79-3.92l-7.25,5.21,6.15-3.56"/><path class="cls-3" d="M149.92,3.28c.37.65,2.26-1.31,2.26-1.31s-5.52,2.65-4.74,4c.05.09,8.47-7.15,9.45-5.46C157.73,2,144.18,7,145.24,8.85c0,0,12.67-10.82,14.19-8.19L146.62,8.75c2,3.54,12.44-10.18,13.74-7.93L145.77,9.68S158.86-2.53,160.87,1c.62,1.07-12,7.45-11.34,8.57.19.31,10.7-6.18,10.7-6.18s-10.88,6.45-10.06,7.87c.11.19,2.9-1.85,3-1.71l-1.25,1.83c0,.07,1.62-1.05,1.67-1"/><path class="cls-3" d="M156.82,7.2s6.42-3.81,6.46-3.73c.69,1.19-6.15,4.32-6.15,4.32.6,1,6.91-4,6.91-4,.24.4-6.87,3.1-5.86,4.84,0,0,5.41-3.64,5.64-3.25,0,0-6.39,3.52-6.22,3.82.33.58,7-4,7-4L157,10.71l7.18-4.14c.15.27-6,3.38-5.59,4.06.06.1,3.55-4.07,4.43-2.56.31.54-6,3.36-5.23,4.72,0,0,6.15-5.53,7-4,.4.69-6.86,3.44-6.32,4.38,0,0,6.85-5.63,7.58-4.37.81,1.41-6.82,5.32-6.45,5.95s5.44-3.57,5.62-3.25c1.05,1.81-7.9,2.36-6.91,4.07,0,0,6.85-5.26,7.42-4.28,0,0-5.59,1.75-4.93,2.9l6.41-3.7"/><path class="cls-3" d="M138.34,22.05s10.79-7.74,11.44-6.61L138,22.53s10.45-8.25,11.41-6.59c0,.06-8.16,6-8.16,6,.44.75,11.43-6.6,11.43-6.6,1,1.7-8.35,4.06-7.11,6.2,0,0,11.37-8,12-6.92,1.68,2.93-9.84,7.54-9.84,7.54l17.2-9.93c0,.06-14.19,7.63-13.1,9.52.07.12,14.75-11.73,16.15-9.32,2.25,3.9-15.14,10.07-15.14,10.07l14.91-8.6c1.73,3-14.26,8.43-14.26,8.43,1.7,2.95,13.58-10.22,14.61-8.44.44.75-11.2,6.54-10.48,7.78,1.14,2,10.47-9.79,12.09-7l-11.19,7.73s10-9.39,11.59-6.69c1.1,1.92-11.46,5.35-10.79,6.51,1.91,3.3,9-9.35,10.77-6.22l-10.69,8s13.27-9.31,14-8.07l-12.21,7.68c1.8,3.13,14-8.1,14-8.1.9,1.57-15.57,10.26-15.57,10.26s19-12.21,19.54-11.28c1.57,2.72-24.46,9.65-21.75,14.35L165.9,24s-9.54,3.77-8.31,5.89c1.56,2.7,7.49-4.33,7.49-4.33.12.21-7.44,5.85-7.44,5.85,1.27,2.2,7.55-5,7.81-4.51,0,0-10.87,3.94-9.7,6,.57,1,9.4-6.89,10-5.8L156,34.77l9.28-5.35c.9,1.56-9.45,5.27-9.34,5.46,0,0,6.51-6.89,7.86-4.54.75,1.29-7.73,3.17-6.9,4.62.24.42,7.47-4.7,7.64-4.41,0,0-9.66,4.2-9,5.32,0,0,6.13-5.83,7.12-4.11.42.73-7.45,3.89-7.26,4.22,0,0,7.34-6,8.12-4.69s-8.73,2.91-7.53,5c0,0,6.76-5,7.24-4.18.24.42-5.31,4-5.31,4S159.7,35,159.7,35"/><path class="cls-3" d="M122.12,2.44s2.14-1.85,2.41-1.39c.08.13-6.71,6-6.71,6l9.12-5.27L115.85,9.28c1,1.78,10.37-10.4,12.28-7.09.43.75-8.53,6.56-8.53,6.56,1.63,2.83,11.84-6.83,11.84-6.83,1.71,2.94-12.54,7.49-12.54,7.49,1.75,3,12.85-8,13.09-7.55,0,0-13.21,5.8-12.09,7.75,0,0,12.4-8.23,12.86-7.42l-13.12,8.54c1.27,2.21,10.43-8.08,11.32-6.53,0,0-9.23,7.27-9.22,7.29s3.48-2.11,3.52-2S123,10.73,123.17,11c0,.06.31-.18.31-.18"/><path class="cls-3" d="M125.85,8.19c0,.05,5.68-5.66,6.71-3.87.53.91-3.7,3.73-3.7,3.73.35.6,4.12-3,4.39-2.53,0,0-4.47,3-4.23,3.41.8,1.38,6.08-4.42,6.48-3.74,0,0-6.1,3.42-5.55,4.39.14.24,5.28-3,5.28-3,.7,1.2-5.76,4.29-5.76,4.29.73,1.26,5.15-4,5.6-3.23,0,0-5.9,3.81-5.25,4.93l6.88-4c.18.3-7.95,5.2-7.95,5.2.21.36,7-4,7-4S128.16,13.57,129,15s9.09-5.24,9.09-5.24-7.76,3.39-7.07,4.59c1,1.69,5.43-4,5.79-3.34"/><path class="cls-3" d="M109.94,21.28c.56,1,11.92-6.88,11.92-6.88s-12.53,7.17-12,8c1.71,3,12.48-7.21,12.48-7.21s-11.82,4.65-10.53,6.89l12.52-7.23-9.56,6.25s9.08-8.64,10.55-6.09c.82,1.41-8.6,6.09-8.36,6.5,1.1,1.9,8.17-8.18,9.67-5.58,0,0-10.32,4.11-9.21,6l12.3-7.1c1.48,2.57-13.54,6.85-13,7.75,0,0,13.53-8.07,13.64-7.87l-12.23,8,17.29-10c2,3.45-16.16,5.84-14.54,8.63,0,0,14.63-15,17.46-10.08.67,1.17-18.25,10.75-18.25,10.75L136,12.88c.89,1.53-16.4,5-14.21,8.81,1.07,1.85,14.26-8.24,14.26-8.24,1.61,2.79-11.58,8.59-11.47,8.78,1.62,2.79,13-7.48,13-7.48s-13.24,4.16-11.66,6.91c.86,1.47,10.58-6.11,10.58-6.11,1.35,2.34-8.9,6.3-8.9,6.3,1.3,2.25,11.65-6.72,11.65-6.72s-10.16,4.88-8.94,7c.91,1.57,9.21-9,10.8-6.23l-9.8,5.89s10.93-9.74,12.42-7.17c1.84,3.19-11.67,7.59-11.67,7.59s9.67-10.11,11.63-6.72c0,0-14.57,6.56-13.61,8.21l14.55-8.4C146.13,18,129,23.47,130,25.1c0,0,16.38-9.86,16.56-9.56,0,0-18.39,5.54-16.16,9.41l15.9-9.19s-17.67,5.27-15.5,9c2.61,4.53,13.68-14.63,16.59-9.58C150,19.78,127.6,27.44,128.1,28.3c0,0,9.55-7,10.18-5.87,0,0-11.55,5.93-10.94,7,0,0,9.64-8.18,10.77-6.22,0,0-11.7,6.27-11.35,6.87,0,0,10.91-8.7,12-6.9,1.83,3.18-13.41,8-13.2,8.32.11.19,12-9,12.91-7.45,0,0-13.65,7.68-13.1,8.63,0,0,10.32-6.91,10.73-6.19,0,0-9.6,7.42-9.48,7.62l7.91-4.57c1.46,2.54-10.4,4.94-9.1,7.2.49.84,9.91-5.73,9.91-5.73l-4.78,3.75.29-.16c0,.07.29-.22.34-.13a8.44,8.44,0,0,0,1.05-.61"/><path class="cls-3" d="M91.52,3.19c.18.31,2.18-1.26,2.18-1.26s-3.36,1.93-3.09,2.4c0,0,5.7-3.35,5.73-3.3L88,6.46l9-5.19C98.27,3.43,87.37,6.45,87.66,7c.91,1.58,10.08-5.83,10.08-5.83.51.88-8,3.79-7.62,4.48.59,1,8.33-4.81,8.33-4.81s-12,5.38-10.55,7.93l12.32-7.11S87.9,8.26,89.05,10.25c0,0,13-11,14.54-8.4C104.26,3,91.89,8.1,92.27,8.76c1.78,3.09,8.83-5.09,8.83-5.09.55,1-8.27,4.43-7.23,6.23l1.29-.75c.17.29-1.23,1.88-1.23,1.88l1.48-.85"/><path class="cls-3" d="M98.05,7.36c.9,1.56,7.06-4.07,7.06-4.07.82,1.41-7.18,2.46-6.4,3.82.11.19,4.76-4.85,5.67-3.27s-5.89,3.88-5.89,3.88,3.75-3.51,4.33-2.5c.35.6-5.8,3.34-4.88,4.94,0,0,6.45-4.71,6.88-4,.18.32-4.15,2.43-3.82,3S104.78,7,104.78,7s-6,2.33-5.25,3.69c0,0,5.1-4.66,5.84-3.37,0,0-7.33,3.58-6.26,5.43.65,1.13,6.62-3.83,6.62-3.83.55,1-4.14,3-3.46,4.15,0,0,3.74-2.16,3.74-2.16s-4.21,2-3.63,3c0,0,5.26-4.24,5.78-3.34"/><path class="cls-3" d="M79.2,22.19s11.7-7.9,12.2-7c0,0-10.15,4.24-8.61,6.91,1.23,2.13,13.08-7.55,13.08-7.55,1.49,2.57-12.66,7.14-12.45,7.51s13.16-7.6,13.16-7.6L85.81,22.31,97.7,15.45c.22.37-10.78,5.23-9.71,7.1.23.4,20.68-11.94,20.68-11.94,2.93,5.08-19.45,6.74-16.73,11.44,0,0,14-10.54,15.06-8.69,1.18,2-13.52,9.25-13.52,9.25.38.68,14-9.9,14.77-8.53l-9.47,7.08c1.88,3.25,7.94-8.19,9.5-5.48,0,0-8.56,3.17-7.33,5.3l8.9-5.14s-9.54,3.58-8.08,6.12c0,0,9.83-8.08,10.87-6.27.22.38-10.2,6.82-10.2,6.82l12.18-7c1,1.83-15.54,6-14.21,8.34.64,1.11,15.38-10.7,16.17-9.33l-17,11.87c.51.89,20.7-11.95,20.7-11.95S98.7,27.83,98.74,27.89s8.09-6.21,8.75-5.05c0,.05-9.9,4.76-8.67,6.9,0,0,7.31-4.58,7.47-4.31,1.22,2.12-10.2,4.9-9,6.9.41.71,10-5.8,10-5.8L95.85,33.3c.38.66,10.43-6,10.43-6,1.42,2.45-9.38,5.31-9.2,5.63,0,0,8.64-6.22,9.18-5.29l-8.54,5.62s8.7-7.6,9.82-5.67l-8.9,5.22c1.2,2.07,6.23-3.84,6.34-3.66,0,0-7.67,3.46-6.47,5.53,0,0,5.85-3.45,5.88-3.4s-3.1,3.33-3.1,3.33l.71-.41c.36.64-2.89,1.28-2.66,1.67,0,0,4.11-2.76,4.28-2.47"/><path class="cls-3" d="M51.6,21.42s11.34-9,12.41-7.17c.34.59-10.15,7.31-10.15,7.31s11.38-9.29,12.56-7.24S50.72,20.69,52,22.83c.74,1.27,13.69-7.91,13.69-7.91S53.91,20.49,55,22.3c.88,1.52,11.4-7,11.59-6.69,0,0-9.22,4.8-8,6.85,0,0,12.31-8.07,12.73-7.35C72.9,18,58,18.88,59.92,22.24c0,0,16.71-10.19,16.94-9.78l-16,10.3L79.46,12S64.15,19.7,65.13,21.4c.18.3,11.46-9.71,12.8-7.39,2.39,4.13-14.26,8.8-14.26,8.8L79,14l-12.59,7.6s12.16-11,13.86-8L67.09,22.21c1.78,3.07,12.21-7,12.21-7,1.74,3-11.18,6.19-11,6.56l10-5.77c.89,1.53-9.77,6-9.46,6.59.16.27,11.75-9.57,13-7.48,1.84,3.18-10.83,7.94-10.78,8S82,12.79,83.69,15.79c.62,1.09-15.56,6.52-13.67,9.81,1.34,2.31,17.71-10.23,17.71-10.23C89.55,18.52,67.52,21,70.42,26c0,0,16.06-15.69,18.84-10.88C90,16.33,67.46,28.39,67.8,29c0,0,10.49-8.13,11.39-6.58,0,0-11.48,8.39-11.44,8.46s9.93-5.83,10-5.76c.94,1.64-10.34,7.22-10.34,7.22s7.5-8,9.11-5.26c.5.85-9.08,5.32-9.08,5.32s9.71-8.82,11.1-6.41-11.06,4.82-10.36,6L77,26.91c.55,1-8.33,5.42-8.33,5.42l7.67-4.43c.87,1.5-9,4.82-8.15,6.25l8.29-4.78c.64,1.11-10.11,4.92-9.44,6.07,0,0,7.66-4.82,7.83-4.52C75.32,31.71,67,36,67,36c.87,1.51,7.36-5.79,8-4.64.16.28-4.68,4.25-4.68,4.25s3.29-2.69,3.63-2.1c0,0-3.86,1.11-3.37,2,0,0,3.74-2.16,3.74-2.16"/><path class="cls-3" d="M67.07,8.34S73.57,2.4,74.52,4s-6.93,5-6.93,5l6-3.47c.22.39-3.42,2.81-2.78,3.91s4-3.95,4.72-2.72-5.3,3.81-5.3,3.81,4.09-4.28,4.92-2.84c0,0-5.65,2-4.85,3.4,0,0,4.41-3.72,4.92-2.83.64,1.12-4.5,4.31-4.5,4.31L78.62,8S70,13.6,70.08,13.68l6-3.47L72.4,12.88s4.12-3,4.41-2.54c.62,1.06-6.45,3.8-6.45,3.8s7.8-6,8.44-4.87c0,0-6.26,4.46-6,5l5.26-3c.51.89-5.75,2.31-5.24,3.2.07.13,4-4.41,4.88-2.81"/><path class="cls-3" d="M63.26,2.65l.29-.16L61.09,4.38c.37.63,4.22-3.19,4.54-2.62C65.81,2.07,58.52,8,58.52,8c1.74,3,10-6.52,10.33-6,.7,1.2-10.39,5.52-10,6.11,1.82,3.15,10.33-6,10.33-6l-9.4,6.75S70.78-1.42,72.5,1.55c1.26,2.19-12.86,8-12.86,8l13.81-8c.77,1.32-15.1,7.09-14.25,8.58C60.43,12.25,71,.24,72.35,2.53,73,3.6,61.26,8.94,61.26,8.94c.24.43,10.82-6.43,10.9-6.29.3.51-10.66,8-10.66,8,.48.84,11.87-6.86,11.87-6.86.18.32-10.49,3.55-9.23,5.73l9.2-5.32s-10.25,6.58-10,7c0,0,2-1.4,2.12-1.22s-1.56,1.34-1.56,1.34l.44-.25s.28-.18.32-.11a3.14,3.14,0,0,1,.31-.18"/><path class="cls-4" d="M128.43,38.94a9.1,9.1,0,0,0,6.9-3.48,19.12,19.12,0,0,0,4-9.23c.14-.8.27-1.38,1.3-1.37,6.8,0,13.6,0,20.4,0a4.17,4.17,0,0,1,.8.19c-.62,2.58-1.15,5.11-3.49,6.78a1.38,1.38,0,0,0-.5,1c0,2,0,4,0,5.92,5,.59,8.65-3.89,11.32-13.87h8.26c2,32,4.19,63.77,12.83,94.87h-1.72q-60.85,0-121.71,0A2,2,0,0,1,64.46,118a194.78,194.78,0,0,1-6.64-29.79,570.22,570.22,0,0,1-5.9-61.18c0-.62,0-1.24,0-2h21.5a10.06,10.06,0,0,1-3,6.6,2.68,2.68,0,0,0-.83,1.61c-.1,1.85,0,3.71,0,5.66a8.71,8.71,0,0,0,6.65-3.16,18.74,18.74,0,0,0,4.24-9.49c.14-.78.2-1.4,1.26-1.4,6.91,0,13.82,0,20.73.06.1,0,.2.09.49.21-.57,2.51-1.12,5-3.4,6.7a1.37,1.37,0,0,0-.56.92c-.06,2,0,4,0,6.06,5.31.25,9-4.33,11.25-13.82h22.13c-.47,2.64-1.11,5-3.25,6.77-.27.22-.63.56-.64.86C128.41,34.69,128.43,36.78,128.43,38.94Z"/><path class="cls-4" d="M51.66,138.44V95.76l.16,0c.72,3.47,1.27,7,2.18,10.41,1.69,6.27,3.64,12.48,5.38,18.74.47,1.71,1.37,2.05,3,2q56.27-.06,112.54,0h2v11.55Z"/><path class="cls-3" d="M86.88,59.52l.25-.14c.18.31.08,1.2.16,1.33s.73-1.18,1.06-.61c.15.26-1.82,1.39-1.82,1.39.17.28,2.92-2.91,3.45-2,.63,1.1-4.37,3.22-4.37,3.22.45.78,4.69-4.3,5.38-3.1l-4.67,4.44L94,59.65s-7.71,2.51-6.84,4c.44.77,7.66-4.42,7.66-4.42.52.91-8.22,5.06-7.82,5.75,0,0,9.71-8.4,10.92-6.31,0,0-10.43,6.61-9.94,7.44,1,1.82,11.5-6.64,11.5-6.64L86.36,68l16.52-9.53s-17,5.42-14.78,9.29,13.07-8.15,13.32-7.7c.14.24-13,8.59-13,8.59L105.8,58.62s-16.17,5.13-14,8.95c1.59,2.76,14.64-8.45,14.64-8.45C107.76,61.33,94,67.23,94.41,68,96.34,71.33,109,57.38,110,59c2,3.52-16.63,5.9-15,8.8,2.17,3.77,16-9.22,16-9.22S94.28,64.76,96.56,68.7c1,1.78,14.91-8.61,14.91-8.61l-10.84,7.22c.91,1.57,11.19-11.91,13.54-7.82.32.54-13.79,7-12.92,8.53C102.88,70.85,115.14,58,116,59.49c0,.08-12.76,9.13-12.76,9.13s11.52-8.51,12.32-7.12c1.7,2.93-9.81,7.19-9.81,7.19s8.16-8.42,9.76-5.64c0,0-11,6.08-10.26,7.37.88,1.52,9-8.44,10.42-6,1.06,1.84-14,5.64-12.69,7.93,1.53,2.66,14.07-8.12,14.07-8.12S101.6,73,102.32,74.2c0,0,13-8.79,13.55-7.82,1.4,2.43-15.67,5-13.89,8.06s13.35-9,13.92-8l-13.29,8.43s13.28-7.67,13.28-7.67-17.55,6.47-15.52,10C101.83,79.66,115,66,116.13,68L100.45,78.09l14.77-8.53S98,79.1,99,80.71l16.64-9.61L100.06,81.57c.12.21,12-11.62,14-8.11S97,85.48,97,85.48l15.79-9.12-17.56,11C95.87,88.5,112,77.74,112,77.74s-19.6,6.17-17.15,10.42l15.09-8.71c2.2,3.82-14.46,9.21-14.46,9.21s14.06-8.39,14.18-8.19-16.89,4.77-14.53,8.85c.62,1.08,13.91-11.07,15.23-8.79,0,0-15.7,9.41-15.36,10,2.48,4.3,13.49-11.6,15.14-8.74,1.82,3.15-20.71,8.33-18.16,12.75,1.92,3.33,16.71-9.64,16.71-9.64.83,1.44-18.79,6.46-16.82,9.88.26.46,11.94-12.64,14.43-8.33,2.24,3.88-13.85,9.38-13.85,9.38,2.08,3.61,14-9.66,14.71-8.49C109.7,91.78,91.33,95.7,92,96.82l14.32-8.27L91.54,98l15.73-9.08c2.15,3.73-14,9.26-14,9.26.58,1,11.66-9.06,12.67-7.31.49.84-14.2,8.67-14.2,8.67C92,99.9,103.08,93,103.08,93c.77,1.34-7.18,5.09-7.18,5.09l7.43-4.3-6.57,4.27c.45.77,7.45-4.31,7.45-4.31l-6.68,4.43c.8,1.4,5.85-5.68,6.85-4,.05.08-8.06,3.78-7.39,4.94.08.13,6.25-3.6,6.25-3.6.27.47-5.23,2.55-4.44,3.91,0,0,4.09-3.07,4.4-2.54,0,0-2.88,1.28-2.57,1.81,0,0,1.29-1.11,1.45-.83,0,0-1,.87-1,1s.47-.37.52-.3-1.75,1.09-1.75,1.09,2.73-1.58,2.73-1.58"/><path class="cls-3" d="M149.09,92.23c.16.28,4.88-4.64,5.66-3.28l-4.83,2.87s6.08-5.06,6.75-3.9c.07.12-3,4.07-3,4.07s1.6-.92,1.6-.92-.51.58-.51.58l.31-.18a4.12,4.12,0,0,0-.41.32s1.18-.68,1.18-.68a2.29,2.29,0,0,1,0,.55s1.36-.85,1.39-.8"/><path class="cls-3" d="M140.93,67.94c.66,1.16,9.22-5.32,9.22-5.32l-8.86,7,9.52-5.5L138.65,73.3c.53.92,8-8.06,9.49-5.48.25.43-8.11,5.42-7.51,6.47,1.11,1.91,7.21-5.71,7.88-4.55,0,0-10.3,5.53-9.77,6.44,0,0,8.86-6,9.24-5.33s-7.79,6.62-7.79,6.62c1,1.79,9.77-6.82,10.29-5.93,0,0-13.89,5.43-11.81,9,1.55,2.67,9-6,9.34-5.4.1.18-6.52,4.17-6.52,4.17l7.36-4.25-10,7.76c1.18,2,10.92-6.31,10.92-6.31C151,78.66,138.32,82.2,139.36,84c0,0,11.51-7,11.65-6.73.77,1.34-9.69,5.86-9.69,5.86.34.59,6.68-3.85,6.68-3.85.33.57-7.17,3.36-6.73,4.13l8.54-4.93"/><path class="cls-3" d="M136,60.08c0,.08.28-.16.28-.16.24.41-1.84,2.27-1.76,2.41.31.54,3.29-2.64,3.61-2.08,0,0-4.33,4.38-4.29,4.46,1,1.78,9.58-7,10.23-5.9l-11.81,8.5c.06.11,12.49-7.21,12.49-7.21s-17.17,8.43-15.88,10.67c0,0,18.41-14.69,20.17-11.64.48.82-20.23,12.62-20.23,12.62,2.16,3.73,21.25-12.26,21.25-12.26,1.34,2.32-24.69,16.1-24.69,16.1,2,3.38,20-19.79,23.55-13.59,1.85,3.19-23.86,14.42-23.2,15.57,2,3.52,12.66-7.31,12.66-7.31l-16.49,11c2.2,3.8,16.91-9.76,16.91-9.76,2.66,4.61-16.7,9.95-16.7,9.95s14.46-10.26,15.29-8.83c0,0-17.51,6.44-15.76,9.47,0,0,12.21-10.15,13.55-7.82,2.13,3.69-15.42,10.3-15.42,10.3,1.41,2.45,14.17-12.47,16-9.26,1.38,2.38-16.69,11-16.69,11,2.29,4,14.18-8.19,14.18-8.19,1.41,2.44-15.12,4.12-13,7.82,1.6,2.77,11.61-8.44,12.36-7.13l-12,7.46s13.34-8.43,13.66-7.88c0,0-15.11,9.86-14.68,10.61,1.28,2.21,10.41-7.83,11.2-6.46,0,0-11.86,6.44-11,7.84,1.37,2.37,10.86-6.27,10.86-6.27s-9.27,6.06-8.82,6.84l12.19-7-9.5,7.57c.21.35,13-7.48,13-7.48,1.23,2.13-12.69,8.23-12.69,8.23l12.39-7.16-10.29,6.58s11.47-8,12-7c1.16,2-12.46,7.57-12.46,7.57l21.63-12.49L127.65,92.07s20-16.53,22.17-12.8c.55.94-16.35,11.73-16.35,11.73,2,3.46,14.24-13.36,16.47-9.51l-15,10.64,14.41-8.32c1.86,3.23-13,5.49-11.93,7.41.06.09,10.36-10.11,12.15-7,0,0-12.93,5.39-12,7,0,0,10.18-9.34,11.68-6.74l-9.8,6.76c2.16,3.75,12.35-7.13,12.35-7.13s-11.2,6.35-10.43,7.69l13-7.48-15.61,9.57c.25.43,15.3-9.9,15.76-9.1.9,1.56-14,10-14,10,2.07,3.59,16-9.22,16-9.22s-15.21,9.19-15,9.57C142.53,97,155,87.31,155,87.31S140.3,95,141.43,96.91c1.39,2.39,8.07-5,8.21-4.74.57,1-8.51,5.32-8.51,5.32.42.73,8.92-5.15,8.92-5.15,1.27,2.2-7.05,6-7.05,6l7.13-4.12-5.78,3.8c.64,1.1,5.74-4,6-3.48.77,1.33-4.82,4.06-4.7,4.27,0,0,3.81-2.79,4.07-2.35.14.26-2.49,1.82-2.2,2.32,0,0,.33-.86.62-.36.13.22,1.18.42,1.18.42a17.65,17.65,0,0,1,1.79-1"/><path d="M32.89,170.7h-8v-3.54h12.5V170L31,183.64H26.52v-.36Z"/><path d="M51,180.68v3H47v-3H38.59V178l7.14-10.86H51v10.35h2.59v3.17Zm-4-3.17v-6.59l-4.36,6.59Z"/><path d="M75.64,179.3c0,.63.17,1.17.77,1.17a2.68,2.68,0,0,0,1.21-.34l.15,3.22a9,9,0,0,1-3,.53,2.7,2.7,0,0,1-2.88-1.82,5,5,0,0,1-3.88,1.8c-3.47,0-5.84-2.72-5.84-6.52s2.37-6.59,5.84-6.59a4.72,4.72,0,0,1,3.58,1.33V171h4.08Zm-4.08-4.09a3.61,3.61,0,0,0-2.42-.92,3,3,0,0,0,0,6.05,3.72,3.72,0,0,0,2.42-.92Z"/><path d="M81.31,175.33c0-.66-.12-1.17-.78-1.17a3.25,3.25,0,0,0-1.24.32l-.12-3.2a7.75,7.75,0,0,1,3-.53,2.73,2.73,0,0,1,2.95,1.86,3.17,3.17,0,0,1,3.08-1.86,3.78,3.78,0,0,1,2.26.6L90,175.06a4.63,4.63,0,0,0-2.43-.56c-1.5,0-2,1.22-2.15,2.52v6.62H81.31Z"/><path d="M96.81,171v1.26a5.25,5.25,0,0,1,3.83-1.51c2,0,3.3.71,4,2.16a5.17,5.17,0,0,1,4.36-2.13c3.28,0,4.61,2.49,4.61,5.59v3c0,.63.12,1.17.73,1.17a3.22,3.22,0,0,0,1.23-.34l.17,3.22a9.25,9.25,0,0,1-3,.53c-2,0-3.15-1-3.15-3.58V177c0-1.62-.75-2.52-2.14-2.52a2.35,2.35,0,0,0-2.13,1.36v7.78h-4.07V177c0-1.6-.7-2.5-2.11-2.5a2.45,2.45,0,0,0-2.23,1.41v7.73H92.74V171Z"/><path d="M130.76,179.3c0,.63.17,1.17.78,1.17a2.72,2.72,0,0,0,1.21-.34l.15,3.22a9,9,0,0,1-3,.53,2.71,2.71,0,0,1-2.89-1.82,5,5,0,0,1-3.87,1.8c-3.47,0-5.84-2.72-5.84-6.52s2.37-6.59,5.84-6.59a4.74,4.74,0,0,1,3.58,1.33V171h4.07Zm-4.07-4.09a3.65,3.65,0,0,0-2.42-.92,3,3,0,0,0,0,6.05,3.72,3.72,0,0,0,2.42-.92Z"/><path d="M144.19,174.92a8.54,8.54,0,0,0-3.78-1c-.83,0-1.53.24-1.53.85s.32.65,1,.84l2.26.61c2.3.63,3,1.87,3,3.59,0,2.44-1.94,4.09-5.29,4.09a11.46,11.46,0,0,1-5-1.09l.75-3.17a9.45,9.45,0,0,0,3.95,1.18c1,0,1.5-.19,1.5-.75s-.48-.63-1.28-.85l-2-.55c-2.06-.61-3.08-1.75-3.08-3.66,0-2.52,2.21-4.24,5.74-4.24a13.27,13.27,0,0,1,4.73.92Z"/><path d="M167,179.3c0,.63.17,1.17.77,1.17a2.76,2.76,0,0,0,1.22-.34l.14,3.22a9,9,0,0,1-3,.53,2.7,2.7,0,0,1-2.88-1.82,5,5,0,0,1-3.88,1.8c-3.46,0-5.84-2.72-5.84-6.52s2.38-6.59,5.84-6.59a4.74,4.74,0,0,1,3.59,1.33V171H167ZM163,175.21a3.66,3.66,0,0,0-2.43-.92,3,3,0,0,0,0,6.05,3.75,3.75,0,0,0,2.43-.92Z"/><path d="M175.74,166.43v12.8c0,.75.22,1.24.84,1.24a3.14,3.14,0,0,0,1.29-.34l.14,3.22a9.3,9.3,0,0,1-3.07.53c-2,0-3.27-1-3.27-3.63V166.43Z"/><path d="M199.34,166.43V179.3c0,.66.14,1.17.77,1.17a3.54,3.54,0,0,0,1.22-.34l.14,3.22a8.88,8.88,0,0,1-3,.53,2.69,2.69,0,0,1-2.88-1.72,4.69,4.69,0,0,1-3.9,1.72c-3.44,0-5.84-2.76-5.84-6.59s2.4-6.54,5.84-6.54a5.27,5.27,0,0,1,3.61,1.31v-5.63Zm-6.5,13.91a3.89,3.89,0,0,0,2.43-.89v-4.24a3.71,3.71,0,0,0-2.43-.92,3,3,0,0,0,0,6.05Z"/><path d="M208.09,171v8.33c0,.63.12,1.17.77,1.17a2.59,2.59,0,0,0,1.19-.34l.17,3.22a8.17,8.17,0,0,1-3,.53c-2,0-3.17-1-3.17-3.58V171Zm-.61-1.46h-3.37l2-3.83h4Z"/><path d="M225.61,179.3c0,.63.17,1.17.77,1.17a2.68,2.68,0,0,0,1.21-.34l.15,3.22a9,9,0,0,1-3,.53,2.69,2.69,0,0,1-2.88-1.82,5,5,0,0,1-3.88,1.8c-3.47,0-5.84-2.72-5.84-6.52s2.37-6.59,5.84-6.59a4.72,4.72,0,0,1,3.58,1.33V171h4.08Zm-4.08-4.09a3.61,3.61,0,0,0-2.42-.92,3,3,0,0,0,0,6.05,3.72,3.72,0,0,0,2.42-.92Z"/></g></g></svg>