<svg xmlns="http://www.w3.org/2000/svg" viewBox="0 0 237.3 381.65"><defs><style>.cls-1{fill:#333;}.cls-2{fill:#f8e2e2;}.cls-3{fill:none;stroke:#ee6a5a;stroke-linecap:round;stroke-linejoin:round;stroke-width:0.5px;}.cls-4{fill:#fff;}</style></defs><title>armas al dia</title><g id="Layer_2" data-name="Layer 2"><g id="Layer_1-2" data-name="Layer 1"><path class="cls-1" d="M1.68,212.88a2.9,2.9,0,0,0,3,3.12,8.36,8.36,0,0,0,2.53-.5,1.92,1.92,0,0,1-.23,1,6.31,6.31,0,0,1-2.86.74c-2.59,0-4.07-1.93-4.07-4.41,0-2.65,1.65-4.76,4.18-4.76,2.17,0,3.09,1.57,3.09,3.84a7.69,7.69,0,0,1-.06.95Zm4-1c.13-1.24-.24-2.75-1.75-2.75-1.29,0-2.12,1.11-2.23,2.75Z"/><path class="cls-1" d="M13.45,209.25a2.83,2.83,0,0,0-1.06-.22c-.94,0-1.49.43-1.49,1.1,0,2,4.22,1.4,4.22,4.54,0,1.87-1.58,2.59-3.26,2.59a5.48,5.48,0,0,1-2.76-.68,3.69,3.69,0,0,1-.09-.87,5.26,5.26,0,0,1,.18-1.28,5.71,5.71,0,0,1,1.3.16v1.25a2.83,2.83,0,0,0,1.52.41,1.37,1.37,0,0,0,1.52-1.35c0-2.14-4.25-1.37-4.25-4.56,0-1.31,1.21-2.25,3-2.25a7.14,7.14,0,0,1,2.55.47,3.26,3.26,0,0,1,0,.56,6.38,6.38,0,0,1-.19,1.46,2.7,2.7,0,0,1-1.22-.27Z"/><path class="cls-1" d="M20.18,205a2.12,2.12,0,0,1,.33-1,5.41,5.41,0,0,1,1.62-.25,3.89,3.89,0,0,1,.93.11v11.94a8.08,8.08,0,0,1,1.46.25,2.33,2.33,0,0,1,.05.56c0,.11,0,.19,0,.3H20.07a2.56,2.56,0,0,1,.26-.81,6.79,6.79,0,0,1,1.15-.34V205Z"/><path class="cls-1" d="M30.87,215.89a2.79,2.79,0,0,1-2.53,1.37,2.36,2.36,0,0,1-2.57-2.41c0-1.86,1.57-2.81,3.36-2.81a4.66,4.66,0,0,1,1.68.3v-1c0-1.33-.58-2-1.71-2a5.65,5.65,0,0,0-2.64.89,1.43,1.43,0,0,1-.09-.61,2.17,2.17,0,0,1,.19-.91,7.48,7.48,0,0,1,3-.63c2,0,2.84,1,2.84,3.43V215a1.69,1.69,0,0,0,.23.94,5.49,5.49,0,0,0,1.25-.22.71.71,0,0,1,0,.2,1.89,1.89,0,0,1-.18.81,4.64,4.64,0,0,1-2,.52,1.91,1.91,0,0,1-.76-1.37Zm0-2.75a5.87,5.87,0,0,0-1.26-.15c-1.41,0-2.21.63-2.21,1.59A1.46,1.46,0,0,0,29,216a2.25,2.25,0,0,0,1.83-.89Z"/><path class="cls-1" d="M42.75,215.89c.09-.41.29-1.17.41-1.55l1.07-3.18a12.21,12.21,0,0,1,.67-1.61,4.41,4.41,0,0,1-1.07-.23,3.06,3.06,0,0,1-.14-.92h3.42a3.55,3.55,0,0,1-.19,1,4.15,4.15,0,0,1-.84.16L43.29,217l-1.65.18L39,209.64a4.32,4.32,0,0,1-.92-.3,3.56,3.56,0,0,1-.18-.94h4.05a3.94,3.94,0,0,1-.15.95,8.22,8.22,0,0,1-1.28.2,10.66,10.66,0,0,1,.65,1.53l1.12,3.33a14.58,14.58,0,0,1,.36,1.48Z"/><path class="cls-1" d="M49.53,212.88A2.9,2.9,0,0,0,52.48,216a8.43,8.43,0,0,0,2.53-.5,1.94,1.94,0,0,1-.24,1,6.23,6.23,0,0,1-2.85.74c-2.59,0-4.07-1.93-4.07-4.41,0-2.65,1.64-4.76,4.17-4.76,2.17,0,3.1,1.57,3.1,3.84a7.69,7.69,0,0,1-.06.95Zm4-1c.12-1.24-.24-2.75-1.76-2.75-1.28,0-2.11,1.11-2.22,2.75Z"/><path class="cls-1" d="M59.6,215.85a6.5,6.5,0,0,1,1.32.24,2.71,2.71,0,0,1,0,.86H56.62a2.54,2.54,0,0,1,.25-.81A7.2,7.2,0,0,1,58,215.8v-6.39H56.71a2,2,0,0,1,.32-.95,4.44,4.44,0,0,1,1.51-.26,3.16,3.16,0,0,1,.84.11v1.32h.19a3.23,3.23,0,0,1,2.91-1.54c1.43,0,2.69.46,2.69,3.25,0,1.51,0,3-.11,4.51a8.2,8.2,0,0,1,1.47.24,3,3,0,0,1,0,.56,1.51,1.51,0,0,1,0,.3H62.28a2.31,2.31,0,0,1,.25-.81,6.54,6.54,0,0,1,1-.34v-4.21c0-1.39-.43-2.27-1.7-2.27a3.22,3.22,0,0,0-2.26,1.15Z"/><path class="cls-1" d="M68.88,206.2a3.31,3.31,0,0,1,1.21-.28v2.48h2.62a4.83,4.83,0,0,1,.06,1H70.09v5c0,1.17.16,1.67,1.18,1.67a7.36,7.36,0,0,0,1.68-.23,2.11,2.11,0,0,1,0,.23,1.48,1.48,0,0,1-.18.7,5.75,5.75,0,0,1-2.22.49c-1.39,0-2.1-.76-2.1-2.61,0-1.06,0-3.39.09-5.2H67.31a2.74,2.74,0,0,1,.21-.94,6.45,6.45,0,0,1,1-.33Z"/><path class="cls-1" d="M79.15,215.89a2.79,2.79,0,0,1-2.53,1.37,2.36,2.36,0,0,1-2.57-2.41c0-1.86,1.57-2.81,3.36-2.81a4.75,4.75,0,0,1,1.69.3v-1c0-1.33-.58-2-1.72-2a5.65,5.65,0,0,0-2.64.89,1.6,1.6,0,0,1-.09-.61,2,2,0,0,1,.2-.91,7.39,7.39,0,0,1,2.94-.63c2,0,2.84,1,2.84,3.43V215a1.6,1.6,0,0,0,.24.94,5.68,5.68,0,0,0,1.25-.22,1.41,1.41,0,0,1,0,.2,1.89,1.89,0,0,1-.18.81,4.64,4.64,0,0,1-2,.52,1.91,1.91,0,0,1-.76-1.37Zm0-2.75a5.87,5.87,0,0,0-1.26-.15c-1.41,0-2.21.63-2.21,1.59A1.46,1.46,0,0,0,77.29,216a2.25,2.25,0,0,0,1.82-.89Z"/><path class="cls-1" d="M88.66,212.88a2.9,2.9,0,0,0,3,3.12,8.36,8.36,0,0,0,2.53-.5,1.92,1.92,0,0,1-.23,1,6.31,6.31,0,0,1-2.86.74c-2.59,0-4.07-1.93-4.07-4.41,0-2.65,1.64-4.76,4.18-4.76,2.17,0,3.09,1.57,3.09,3.84a7.69,7.69,0,0,1-.06.95Zm4-1c.13-1.24-.24-2.75-1.75-2.75-1.29,0-2.12,1.11-2.23,2.75Z"/><path class="cls-1" d="M98.73,215.85a6.38,6.38,0,0,1,1.32.24,2.44,2.44,0,0,1,0,.86H95.75a2.82,2.82,0,0,1,.25-.81,7.2,7.2,0,0,1,1.16-.34v-6.39H95.84a2,2,0,0,1,.33-.95,4.38,4.38,0,0,1,1.5-.26,3.3,3.3,0,0,1,.85.11v1.32h.18a3.23,3.23,0,0,1,2.91-1.54c1.43,0,2.69.46,2.69,3.25,0,1.51,0,3-.11,4.51a8.2,8.2,0,0,1,1.47.24,2.33,2.33,0,0,1,0,.56c0,.11,0,.19,0,.3h-4.29a2.82,2.82,0,0,1,.25-.81,6.9,6.9,0,0,1,1-.34v-4.21c0-1.39-.43-2.27-1.7-2.27a3.22,3.22,0,0,0-2.26,1.15Z"/><path class="cls-1" d="M113,220a10.4,10.4,0,0,1,1.71.32,2.29,2.29,0,0,1,0,.83h-4.74a2.56,2.56,0,0,1,.26-.81,7.08,7.08,0,0,1,1.15-.34V209.41h-1.33a1.92,1.92,0,0,1,.32-.95,4.61,4.61,0,0,1,1.5-.26,3.18,3.18,0,0,1,.85.11v1.17H113a2.82,2.82,0,0,1,2.66-1.39c1.59,0,3.42,1.09,3.42,4.34,0,2.9-1.83,4.83-4.43,4.83a3.07,3.07,0,0,1-1.59-.43Zm0-4a5,5,0,0,0,1.5.25c2,0,2.89-1.42,2.89-3.51s-1-3.39-2.33-3.39a2.38,2.38,0,0,0-2.06,1.1Z"/><path class="cls-1" d="M123.56,210a2.42,2.42,0,0,1,2.35-1.93,2.63,2.63,0,0,1,.82.15,2.45,2.45,0,0,1,.23,1.08,2.28,2.28,0,0,1,0,.48,2.6,2.6,0,0,0-1.23-.3A2.24,2.24,0,0,0,123.6,211v4.82a9,9,0,0,1,1.79.33,2.47,2.47,0,0,1,0,.82h-4.81a2.56,2.56,0,0,1,.26-.81,7.08,7.08,0,0,1,1.15-.34v-6.39h-1.31a1.92,1.92,0,0,1,.32-.95,4.61,4.61,0,0,1,1.5-.26,3.18,3.18,0,0,1,.85.11V210Z"/><path class="cls-1" d="M136.2,212.54c0,3-1.61,4.72-4.1,4.72s-4.13-1.62-4.13-4.72c0-2.75,1.78-4.45,4.13-4.45S136.2,209.68,136.2,212.54Zm-4.1,3.64c1.66,0,2.46-1.41,2.46-3.64,0-1.92-1-3.38-2.46-3.38s-2.48,1.35-2.48,3.38C129.62,214.74,130.56,216.18,132.1,216.18Z"/><path class="cls-1" d="M140.74,215.85a6.5,6.5,0,0,1,1.32.24,3,3,0,0,1,0,.86h-4.34a2.31,2.31,0,0,1,.25-.81,7.2,7.2,0,0,1,1.16-.34v-6.39h-1.32a2,2,0,0,1,.32-.95,4.43,4.43,0,0,1,1.5-.26,3.18,3.18,0,0,1,.85.11v1.32h.18a3.2,3.2,0,0,1,2.86-1.54,2.15,2.15,0,0,1,2.41,1.64h.09a3.17,3.17,0,0,1,2.91-1.64c1.41,0,2.66.46,2.66,3.25,0,1.53,0,3-.11,4.51a8.23,8.23,0,0,1,1.46.24,2.29,2.29,0,0,1,.06.56,1.51,1.51,0,0,1,0,.3h-4.29a2.56,2.56,0,0,1,.26-.81,6.54,6.54,0,0,1,1-.34v-4.21c0-1.39-.42-2.27-1.67-2.27a3.15,3.15,0,0,0-2.2,1.15v5.37a6,6,0,0,1,1.32.25,2.72,2.72,0,0,1,0,.86h-4.17a2.31,2.31,0,0,1,.25-.81,6.54,6.54,0,0,1,1-.34v-4.21c0-1.39-.42-2.27-1.66-2.27a3.12,3.12,0,0,0-2.21,1.15Z"/><path class="cls-1" d="M155.91,212.88a2.9,2.9,0,0,0,3,3.12,8.36,8.36,0,0,0,2.53-.5,1.92,1.92,0,0,1-.23,1,6.31,6.31,0,0,1-2.86.74c-2.59,0-4.07-1.93-4.07-4.41,0-2.65,1.65-4.76,4.18-4.76,2.17,0,3.09,1.57,3.09,3.84,0,.31,0,.63-.05.95Zm4-1c.13-1.24-.23-2.75-1.75-2.75-1.29,0-2.12,1.11-2.23,2.75Z"/><path class="cls-1" d="M169.24,205h-1.3a2.11,2.11,0,0,1,.32-1,5.48,5.48,0,0,1,1.63-.25,3.74,3.74,0,0,1,.92.11v10.68a4.71,4.71,0,0,0,.15,1.27h1.35a1.1,1.1,0,0,1,0,.24,2.3,2.3,0,0,1-.14.72,10,10,0,0,1-2.44.36,3.24,3.24,0,0,1-.37-1.3h-.09a2.92,2.92,0,0,1-2.71,1.39c-1.57,0-3.36-1.08-3.36-4.34,0-2.9,1.79-4.83,4.37-4.83a3.16,3.16,0,0,1,1.65.44Zm0,4.43a4.71,4.71,0,0,0-1.5-.25c-2,0-2.9,1.4-2.9,3.49s1,3.37,2.34,3.37a2.37,2.37,0,0,0,2.06-1.09Z"/><path class="cls-1" d="M173.44,209.41a1.92,1.92,0,0,1,.32-.95,5.15,5.15,0,0,1,1.63-.26,4,4,0,0,1,.94.11v7.53a7.74,7.74,0,0,1,1.43.25,3,3,0,0,1,.05.56,1.51,1.51,0,0,1,0,.3h-4.45a2.56,2.56,0,0,1,.26-.81,7.08,7.08,0,0,1,1.15-.34v-6.39Zm3.16-4.2a1,1,0,0,1-1,1.07.94.94,0,0,1-1-1.07,1,1,0,0,1,1-1A.93.93,0,0,1,176.6,205.21Z"/><path class="cls-1" d="M187.3,212.54c0,3-1.6,4.72-4.1,4.72s-4.12-1.62-4.12-4.72c0-2.75,1.77-4.45,4.12-4.45S187.3,209.68,187.3,212.54Zm-4.1,3.64c1.66,0,2.46-1.41,2.46-3.64,0-1.92-1-3.38-2.46-3.38s-2.48,1.35-2.48,3.38C180.72,214.74,181.66,216.18,183.2,216.18Z"/><path class="cls-1" d="M198.81,205H197.5a2.12,2.12,0,0,1,.33-1,5.48,5.48,0,0,1,1.63-.25,3.8,3.8,0,0,1,.92.11v10.68a5.15,5.15,0,0,0,.14,1.27h1.36a1.1,1.1,0,0,1,0,.24,2.05,2.05,0,0,1-.15.72,9.94,9.94,0,0,1-2.44.36,3.24,3.24,0,0,1-.36-1.3h-.09a2.92,2.92,0,0,1-2.71,1.39c-1.58,0-3.37-1.08-3.37-4.34,0-2.9,1.79-4.83,4.38-4.83a3.16,3.16,0,0,1,1.65.44Zm0,4.43a4.62,4.62,0,0,0-1.5-.25c-2,0-2.89,1.4-2.89,3.49s1,3.37,2.33,3.37a2.37,2.37,0,0,0,2.06-1.09Z"/><path class="cls-1" d="M204.81,212.88a2.9,2.9,0,0,0,2.95,3.12,8.43,8.43,0,0,0,2.53-.5,1.94,1.94,0,0,1-.24,1,6.23,6.23,0,0,1-2.85.74c-2.59,0-4.07-1.93-4.07-4.41,0-2.65,1.64-4.76,4.17-4.76,2.17,0,3.1,1.57,3.1,3.84a7.69,7.69,0,0,1-.06.95Zm4-1c.12-1.24-.24-2.75-1.76-2.75-1.28,0-2.11,1.11-2.22,2.75Z"/><path class="cls-1" d="M215.53,205a2.12,2.12,0,0,1,.33-1,5.42,5.42,0,0,1,1.63-.25,3.8,3.8,0,0,1,.92.11v11.94a8.08,8.08,0,0,1,1.46.25,2.29,2.29,0,0,1,.06.56,1.51,1.51,0,0,1,0,.3h-4.49a2.56,2.56,0,0,1,.26-.81,7.08,7.08,0,0,1,1.15-.34V205Z"/><path class="cls-1" d="M229.4,212.54c0,3-1.61,4.72-4.1,4.72-2.64,0-4.13-1.62-4.13-4.72,0-2.75,1.78-4.45,4.13-4.45S229.4,209.68,229.4,212.54Zm-4.1,3.64c1.66,0,2.46-1.41,2.46-3.64,0-1.92-1-3.38-2.46-3.38s-2.48,1.35-2.48,3.38C222.82,214.74,223.76,216.18,225.3,216.18Z"/><path class="cls-1" d="M235.64,209.25a2.89,2.89,0,0,0-1.07-.22c-.94,0-1.48.43-1.48,1.1,0,2,4.21,1.4,4.21,4.54,0,1.87-1.57,2.59-3.25,2.59a5.55,5.55,0,0,1-2.77-.68,4.31,4.31,0,0,1-.09-.87,5.26,5.26,0,0,1,.18-1.28,5.73,5.73,0,0,1,1.31.16v1.25a2.82,2.82,0,0,0,1.51.41,1.36,1.36,0,0,0,1.52-1.35c0-2.14-4.25-1.37-4.25-4.56,0-1.31,1.22-2.25,3-2.25a7.14,7.14,0,0,1,2.55.47,3.26,3.26,0,0,1,0,.56,5.85,5.85,0,0,1-.2,1.46,2.69,2.69,0,0,1-1.21-.27Z"/><path class="cls-1" d="M12.43,236.41h-1.3a1.94,1.94,0,0,1,.33-.95,4.58,4.58,0,0,1,1.62-.26,3.74,3.74,0,0,1,.92.11v6.27a5.12,5.12,0,0,0,.15,1.27h1.37a1.1,1.1,0,0,1,0,.24,2.3,2.3,0,0,1-.14.72,10.39,10.39,0,0,1-2.48.36,3.62,3.62,0,0,1-.36-1.42h-.09a3.22,3.22,0,0,1-2.88,1.51c-1.41,0-2.66-.45-2.66-3.24,0-1.51,0-3.1.1-4.61H5.65a2.3,2.3,0,0,1,.33-.94,4.93,4.93,0,0,1,1.64-.27,3.74,3.74,0,0,1,.92.11v5.46c0,1.36.44,2.25,1.67,2.25a3.13,3.13,0,0,0,2.22-1.1ZM10,234.25a2.45,2.45,0,0,1-.92-.78l2-2.8a3.62,3.62,0,0,1,1.59.63Z"/><path class="cls-1" d="M16.65,232a2,2,0,0,1,.32-1,5.48,5.48,0,0,1,1.63-.25,3.8,3.8,0,0,1,.92.11v11.94a8.19,8.19,0,0,1,1.47.25,3,3,0,0,1,.05.56,1.51,1.51,0,0,1,0,.3H16.54a2.31,2.31,0,0,1,.25-.81A7.2,7.2,0,0,1,18,242.8V232Z"/><path class="cls-1" d="M23.39,233.2a3.31,3.31,0,0,1,1.21-.28v2.48h2.62a4.83,4.83,0,0,1,.06,1H24.6v5c0,1.17.16,1.67,1.18,1.67a7.36,7.36,0,0,0,1.68-.23,1.06,1.06,0,0,1,0,.23,1.6,1.6,0,0,1-.18.7,5.83,5.83,0,0,1-2.23.49c-1.39,0-2.1-.76-2.1-2.61,0-1.06,0-3.39.09-5.2H21.82a3,3,0,0,1,.21-.94,6.45,6.45,0,0,1,1-.33Z"/><path class="cls-1" d="M28.49,236.41a1.94,1.94,0,0,1,.33-.95,5.09,5.09,0,0,1,1.62-.26,3.91,3.91,0,0,1,.94.11v7.53a7.74,7.74,0,0,1,1.43.25,2.29,2.29,0,0,1,.06.56,1.51,1.51,0,0,1,0,.3H28.4a2.82,2.82,0,0,1,.25-.81,7.2,7.2,0,0,1,1.16-.34v-6.39Zm3.16-4.2a1,1,0,0,1-1,1.07.94.94,0,0,1-1-1.07,1,1,0,0,1,1-1A.93.93,0,0,1,31.65,232.21Z"/><path class="cls-1" d="M36.9,242.85a6.64,6.64,0,0,1,1.32.24,2.72,2.72,0,0,1,0,.86H33.92a2.31,2.31,0,0,1,.25-.81,6.91,6.91,0,0,1,1.16-.34v-6.39H34a1.92,1.92,0,0,1,.32-.95,4.43,4.43,0,0,1,1.5-.26,3.18,3.18,0,0,1,.85.11v1.32h.18a3.2,3.2,0,0,1,2.86-1.54,2.13,2.13,0,0,1,2.4,1.64h.09a3.2,3.2,0,0,1,2.92-1.64c1.41,0,2.65.46,2.65,3.25,0,1.53,0,3-.11,4.51a8.2,8.2,0,0,1,1.47.24,2.33,2.33,0,0,1,0,.56c0,.11,0,.19,0,.3H44.89a2.82,2.82,0,0,1,.25-.81,7.31,7.31,0,0,1,1-.34v-4.21c0-1.39-.41-2.27-1.66-2.27a3.17,3.17,0,0,0-2.21,1.15v5.37a5.74,5.74,0,0,1,1.32.25,2.44,2.44,0,0,1,0,.86H39.48a2.56,2.56,0,0,1,.26-.81,6.54,6.54,0,0,1,1-.34v-4.21c0-1.39-.42-2.27-1.67-2.27a3.12,3.12,0,0,0-2.2,1.15Z"/><path class="cls-1" d="M58.62,239.54c0,3-1.61,4.72-4.11,4.72s-4.12-1.62-4.12-4.72c0-2.75,1.77-4.45,4.12-4.45S58.62,236.68,58.62,239.54Zm-4.11,3.64c1.66,0,2.46-1.41,2.46-3.64,0-1.92-1-3.38-2.46-3.38S52,237.51,52,239.54C52,241.74,53,243.18,54.51,243.18Z"/><path class="cls-1" d="M64.86,236.25a2.93,2.93,0,0,0-1.07-.22c-.94,0-1.48.43-1.48,1.1,0,2,4.21,1.4,4.21,4.54,0,1.87-1.57,2.59-3.26,2.59a5.51,5.51,0,0,1-2.76-.68,3.69,3.69,0,0,1-.09-.87,5.26,5.26,0,0,1,.18-1.28,5.64,5.64,0,0,1,1.3.16v1.25a2.88,2.88,0,0,0,1.52.41,1.37,1.37,0,0,0,1.52-1.35c0-2.14-4.25-1.37-4.25-4.56,0-1.31,1.21-2.25,3-2.25a7.1,7.1,0,0,1,2.55.47,2.46,2.46,0,0,1,0,.56,6.36,6.36,0,0,1-.2,1.46,2.63,2.63,0,0,1-1.21-.27Z"/><path class="cls-1" d="M78.31,240.1a3,3,0,0,1-2.68,1.33A3.3,3.3,0,0,1,72.07,238a3.62,3.62,0,0,1,3.82-3.78c2.73,0,4.19,1.89,4.19,5.29,0,4-2.37,6.54-5.41,6.54a7,7,0,0,1-2.24-.44,2.19,2.19,0,0,1-.25-1.26,7.37,7.37,0,0,0,2.35.38c2,0,3.67-1.65,3.9-4.59Zm-2.42-4.88c-1.4,0-2.19,1.06-2.19,2.63a2.22,2.22,0,0,0,2.37,2.45,3,3,0,0,0,2.33-1.23C78.4,236.52,77.69,235.22,75.89,235.22Z"/><path class="cls-1" d="M90.7,242.89a2.8,2.8,0,0,1-2.54,1.37,2.35,2.35,0,0,1-2.56-2.41C85.6,240,87.17,239,89,239a4.66,4.66,0,0,1,1.68.3v-1c0-1.33-.58-2-1.72-2a5.73,5.73,0,0,0-2.64.89,1.6,1.6,0,0,1-.09-.61,2,2,0,0,1,.2-.91,7.48,7.48,0,0,1,3-.63c2,0,2.84,1,2.84,3.43V242a1.69,1.69,0,0,0,.23.94,5.58,5.58,0,0,0,1.25-.22.71.71,0,0,1,0,.2,1.89,1.89,0,0,1-.18.81,4.64,4.64,0,0,1-2,.52,1.9,1.9,0,0,1-.75-1.37Zm0-2.75a6,6,0,0,0-1.27-.15c-1.41,0-2.2.63-2.2,1.59A1.45,1.45,0,0,0,88.83,243a2.25,2.25,0,0,0,1.83-.89Z"/><path class="cls-1" d="M97.58,242.85a6.61,6.61,0,0,1,1.33.24,2.72,2.72,0,0,1,0,.86H94.6a2.82,2.82,0,0,1,.25-.81A7.2,7.2,0,0,1,96,242.8v-6.39H94.69a2,2,0,0,1,.33-.95,4.43,4.43,0,0,1,1.5-.26,3.18,3.18,0,0,1,.85.11v1.32h.18a3.23,3.23,0,0,1,2.91-1.54c1.43,0,2.69.46,2.69,3.25,0,1.51,0,3-.1,4.51a8.23,8.23,0,0,1,1.46.24,2.33,2.33,0,0,1,0,.56c0,.11,0,.19,0,.3h-4.29a2.82,2.82,0,0,1,.25-.81,7.31,7.31,0,0,1,1-.34v-4.21c0-1.39-.43-2.27-1.69-2.27a3.22,3.22,0,0,0-2.27,1.15Zm5.07-10.94a1.85,1.85,0,0,1-1.79,1.92c-.83,0-1.52-.77-2.23-.77a1,1,0,0,0-.94.76,1,1,0,0,1-.67-.4,1.81,1.81,0,0,1,1.85-1.67c1,0,1.43.73,2.22.73a.86.86,0,0,0,.85-.72A1.59,1.59,0,0,1,102.65,231.91Z"/><path class="cls-1" d="M114,239.54c0,3-1.61,4.72-4.11,4.72s-4.12-1.62-4.12-4.72c0-2.75,1.77-4.45,4.12-4.45S114,236.68,114,239.54Zm-4.11,3.64c1.66,0,2.46-1.41,2.46-3.64,0-1.92-1-3.38-2.46-3.38s-2.48,1.35-2.48,3.38C107.4,241.74,108.34,243.18,109.88,243.18Z"/><path class="cls-1" d="M120.23,236.25a2.93,2.93,0,0,0-1.07-.22c-.94,0-1.48.43-1.48,1.1,0,2,4.21,1.4,4.21,4.54,0,1.87-1.57,2.59-3.26,2.59a5.51,5.51,0,0,1-2.76-.68,3.69,3.69,0,0,1-.09-.87,5.26,5.26,0,0,1,.18-1.28,5.64,5.64,0,0,1,1.3.16v1.25a2.88,2.88,0,0,0,1.52.41,1.37,1.37,0,0,0,1.52-1.35c0-2.14-4.25-1.37-4.25-4.56,0-1.31,1.21-2.25,3-2.25a7.1,7.1,0,0,1,2.55.47,2.46,2.46,0,0,1,0,.56,6.36,6.36,0,0,1-.2,1.46,2.63,2.63,0,0,1-1.21-.27Z"/><path class="cls-1" d="M123.66,243.47a3.71,3.71,0,0,1,.6-1.21,3.71,3.71,0,0,1,.74-.07,4.54,4.54,0,0,1,1.34.21,16.24,16.24,0,0,1-1.65,4.25,3.3,3.3,0,0,1-1-.46,16.66,16.66,0,0,0,.69-2.54Z"/><path class="cls-1" d="M133.46,239.88a2.9,2.9,0,0,0,2.95,3.12,8.36,8.36,0,0,0,2.53-.5,1.92,1.92,0,0,1-.23,1,6.31,6.31,0,0,1-2.86.74c-2.59,0-4.07-1.93-4.07-4.41,0-2.65,1.65-4.76,4.18-4.76,2.17,0,3.09,1.57,3.09,3.84,0,.31,0,.63-.05.95Zm4-1c.13-1.24-.23-2.75-1.75-2.75-1.29,0-2.12,1.11-2.23,2.75Z"/><path class="cls-1" d="M143.53,242.85a6.38,6.38,0,0,1,1.32.24,2.44,2.44,0,0,1,0,.86h-4.34a2.82,2.82,0,0,1,.25-.81,7.2,7.2,0,0,1,1.16-.34v-6.39h-1.32a2,2,0,0,1,.33-.95,4.38,4.38,0,0,1,1.5-.26,3.24,3.24,0,0,1,.85.11v1.32h.18a3.23,3.23,0,0,1,2.91-1.54c1.43,0,2.69.46,2.69,3.25,0,1.51,0,3-.1,4.51a8.23,8.23,0,0,1,1.46.24,2.33,2.33,0,0,1,0,.56c0,.11,0,.19,0,.3h-4.29a2.82,2.82,0,0,1,.25-.81,6.9,6.9,0,0,1,1-.34v-4.21c0-1.39-.43-2.27-1.7-2.27a3.22,3.22,0,0,0-2.26,1.15Z"/><path class="cls-1" d="M152.81,233.2a3.31,3.31,0,0,1,1.21-.28v2.48h2.62a4.27,4.27,0,0,1,.06,1H154v5c0,1.17.17,1.67,1.18,1.67a7.36,7.36,0,0,0,1.68-.23,1.06,1.06,0,0,1,0,.23,1.6,1.6,0,0,1-.18.7,5.79,5.79,0,0,1-2.23.49c-1.39,0-2.09-.76-2.09-2.61,0-1.06,0-3.39.09-5.2h-1.25a2.75,2.75,0,0,1,.22-.94,6,6,0,0,1,1-.33Z"/><path class="cls-1" d="M160.77,237a2.41,2.41,0,0,1,2.35-1.93,2.62,2.62,0,0,1,.81.15,2.3,2.3,0,0,1,.24,1.08,1.75,1.75,0,0,1-.06.48,2.54,2.54,0,0,0-1.23-.3A2.25,2.25,0,0,0,160.8,238v4.82a8.76,8.76,0,0,1,1.79.33,2.22,2.22,0,0,1,0,.82h-4.81a2.82,2.82,0,0,1,.25-.81,7.2,7.2,0,0,1,1.16-.34v-6.39h-1.32a2,2,0,0,1,.33-.95,4.52,4.52,0,0,1,1.5-.26,3.3,3.3,0,0,1,.85.11V237Z"/><path class="cls-1" d="M166.86,239.88a2.9,2.9,0,0,0,2.95,3.12,8.36,8.36,0,0,0,2.53-.5,1.92,1.92,0,0,1-.23,1,6.31,6.31,0,0,1-2.86.74c-2.59,0-4.07-1.93-4.07-4.41,0-2.65,1.65-4.76,4.18-4.76,2.17,0,3.09,1.57,3.09,3.84a7.69,7.69,0,0,1-.06.95Zm4-1c.13-1.24-.24-2.75-1.75-2.75-1.29,0-2.12,1.11-2.23,2.75Z"/><path class="cls-1" d="M179.84,242.64c1.76,0,3.71-.07,5.61-.22a1.62,1.62,0,0,1,0,.31,8.49,8.49,0,0,1-.11,1.22h-7.21l-.24-1.29c1.56-1.39,5.44-3.86,5.44-5.94,0-.94-.76-1.37-1.86-1.37a5.07,5.07,0,0,0-2,.46v1.5a3,3,0,0,1-1.23.27,6.57,6.57,0,0,1-.23-1.69c0-.24,0-.6,0-.81a7.51,7.51,0,0,1,3.53-.9c2,0,3.51.63,3.51,2.28,0,2.67-4,5-5.27,6Z"/><path class="cls-1" d="M196.35,239.09c0,3.41-1.79,5.22-4.68,5.22s-4.7-1.72-4.7-5.22c0-3,1.93-4.91,4.7-4.91S196.35,235.89,196.35,239.09Zm-4.68,4.09c2,0,3-1.51,3-4.09,0-2.21-1.12-3.8-3-3.8s-3,1.46-3,3.8C188.69,241.61,189.81,243.18,191.67,243.18Z"/><path class="cls-1" d="M207.76,239.09c0,3.41-1.79,5.22-4.68,5.22s-4.7-1.72-4.7-5.22c0-3,1.93-4.91,4.7-4.91S207.76,235.89,207.76,239.09Zm-4.68,4.09c2,0,3-1.51,3-4.09,0-2.21-1.12-3.8-3-3.8s-3,1.46-3,3.8C200.1,241.61,201.22,243.18,203.08,243.18Z"/><path class="cls-1" d="M216.1,240.1a3,3,0,0,1-2.68,1.33,3.3,3.3,0,0,1-3.56-3.47,3.62,3.62,0,0,1,3.82-3.78c2.73,0,4.19,1.89,4.19,5.29,0,4-2.37,6.54-5.4,6.54a7,7,0,0,1-2.25-.44,2.36,2.36,0,0,1-.25-1.26,7.37,7.37,0,0,0,2.35.38c2,0,3.67-1.65,3.91-4.59Zm-2.42-4.88c-1.39,0-2.19,1.06-2.19,2.63a2.23,2.23,0,0,0,2.37,2.45,2.93,2.93,0,0,0,2.33-1.23C216.19,236.52,215.49,235.22,213.68,235.22Z"/><path class="cls-1" d="M227.55,243c.11-.43.34-1.37.49-1.8l.9-2.86a12.76,12.76,0,0,1,.67-1.75,4.58,4.58,0,0,1-1.09-.23,3.06,3.06,0,0,1-.14-.92h3.45a3.68,3.68,0,0,1-.18,1,4,4,0,0,1-.85.16l-1,3a53.12,53.12,0,0,1-2,5.31,6.39,6.39,0,0,1-3.65,3.42,2.31,2.31,0,0,1-.67-1.33,4.89,4.89,0,0,0,3.27-2.64l-3-7.66a4.71,4.71,0,0,1-.94-.3,4,4,0,0,1-.18-.94h4.09a4,4,0,0,1-.15.94,7.94,7.94,0,0,1-1.32.21,11.38,11.38,0,0,1,.65,1.52l1.14,3.15a11.64,11.64,0,0,1,.4,1.74Z"/><path class="cls-1" d="M12.1,263.41a2.13,2.13,0,0,1,.31-1,5.17,5.17,0,0,1,1.64-.26,3.91,3.91,0,0,1,.94.11v7.38a7.54,7.54,0,0,1-2.75,5.57,1.89,1.89,0,0,1-.87-.71,6.29,6.29,0,0,0,2.05-4.41v-6.73Zm3.16-4.2a1,1,0,0,1-1,1.07.94.94,0,0,1-1-1.07,1,1,0,0,1,1-1A.93.93,0,0,1,15.26,259.21Z"/><path class="cls-1" d="M23.63,263.41h-1.3a2,2,0,0,1,.33-1,4.6,4.6,0,0,1,1.63-.26,3.8,3.8,0,0,1,.92.11v6.27a5.1,5.1,0,0,0,.14,1.27h1.38a2.18,2.18,0,0,1,0,.24,2.3,2.3,0,0,1-.14.72,10.32,10.32,0,0,1-2.48.36,3.8,3.8,0,0,1-.36-1.42h-.09a3.22,3.22,0,0,1-2.88,1.51c-1.41,0-2.65-.45-2.65-3.24,0-1.51,0-3.1.09-4.61H16.85a2.3,2.3,0,0,1,.33-.94,4.93,4.93,0,0,1,1.64-.27,3.83,3.83,0,0,1,.93.11v5.46c0,1.36.43,2.25,1.66,2.25a3.13,3.13,0,0,0,2.22-1.1Z"/><path class="cls-1" d="M30.9,269.85a6.38,6.38,0,0,1,1.32.24,2.44,2.44,0,0,1,0,.86H27.92a2.82,2.82,0,0,1,.25-.81,7.2,7.2,0,0,1,1.16-.34v-6.39H28a2,2,0,0,1,.33-1,4.38,4.38,0,0,1,1.5-.26,3.3,3.3,0,0,1,.85.11v1.32h.18a3.23,3.23,0,0,1,2.91-1.54c1.43,0,2.69.46,2.69,3.25,0,1.51,0,3-.11,4.51a8.2,8.2,0,0,1,1.47.24,2.33,2.33,0,0,1,.05.56c0,.11,0,.19,0,.3H33.58a2.82,2.82,0,0,1,.25-.81,6.9,6.9,0,0,1,1-.34v-4.21c0-1.39-.43-2.27-1.7-2.27a3.22,3.22,0,0,0-2.26,1.15Z"/><path class="cls-1" d="M39,263.41a2,2,0,0,1,.33-1,5.09,5.09,0,0,1,1.62-.26,3.91,3.91,0,0,1,.94.11v7.53a7.6,7.6,0,0,1,1.43.25,2.29,2.29,0,0,1,.06.56,1.51,1.51,0,0,1,0,.3H38.86a2.82,2.82,0,0,1,.25-.81,7.2,7.2,0,0,1,1.16-.34v-6.39Zm3.17-4.2a1,1,0,0,1-1,1.07.94.94,0,0,1-1-1.07,1,1,0,0,1,1-1A.94.94,0,0,1,42.12,259.21Z"/><path class="cls-1" d="M52.82,266.54c0,3-1.61,4.72-4.1,4.72s-4.13-1.62-4.13-4.72c0-2.75,1.78-4.45,4.13-4.45S52.82,263.68,52.82,266.54Zm-4.1,3.64c1.66,0,2.45-1.41,2.45-3.64,0-1.92-1-3.38-2.45-3.38s-2.48,1.35-2.48,3.38C46.24,268.74,47.18,270.18,48.72,270.18Z"/><path class="cls-1" d="M64.32,259H63a2.11,2.11,0,0,1,.32-1,5.53,5.53,0,0,1,1.63-.25,3.74,3.74,0,0,1,.92.11v10.68a4.71,4.71,0,0,0,.15,1.27H67.4a2.18,2.18,0,0,1,0,.24,2.3,2.3,0,0,1-.14.72,9.94,9.94,0,0,1-2.44.36,3.09,3.09,0,0,1-.36-1.3h-.09a2.94,2.94,0,0,1-2.72,1.39c-1.57,0-3.36-1.08-3.36-4.34,0-2.9,1.79-4.83,4.38-4.83a3.15,3.15,0,0,1,1.64.44Zm0,4.43a4.67,4.67,0,0,0-1.5-.25c-2,0-2.89,1.4-2.89,3.49s1,3.37,2.33,3.37A2.37,2.37,0,0,0,64.34,269Z"/><path class="cls-1" d="M70.33,266.88A2.89,2.89,0,0,0,73.27,270a8.36,8.36,0,0,0,2.53-.5,1.92,1.92,0,0,1-.23,1,6.27,6.27,0,0,1-2.86.74c-2.58,0-4.07-1.93-4.07-4.41,0-2.65,1.65-4.76,4.18-4.76,2.17,0,3.09,1.57,3.09,3.84,0,.31,0,.63,0,.95Zm4-1c.13-1.24-.23-2.75-1.75-2.75-1.28,0-2.12,1.11-2.22,2.75Z"/><path class="cls-1" d="M83.31,269.64c1.75,0,3.71-.07,5.6-.22a1.62,1.62,0,0,1,0,.31,7.27,7.27,0,0,1-.11,1.22H81.61l-.24-1.29c1.56-1.39,5.45-3.86,5.45-5.94,0-.94-.76-1.37-1.87-1.37a5,5,0,0,0-2,.46v1.5a3,3,0,0,1-1.23.27,6.16,6.16,0,0,1-.24-1.69c0-.24,0-.6,0-.81a7.47,7.47,0,0,1,3.52-.9c2,0,3.51.63,3.51,2.28,0,2.67-4,5-5.26,6.05Z"/><path class="cls-1" d="M99.82,266.09c0,3.41-1.79,5.22-4.69,5.22s-4.7-1.72-4.7-5.22c0-3,1.94-4.91,4.7-4.91S99.82,262.89,99.82,266.09Zm-4.69,4.09c2,0,3-1.51,3-4.09,0-2.21-1.12-3.8-3-3.8s-3,1.46-3,3.8C92.15,268.61,93.27,270.18,95.13,270.18Z"/><path class="cls-1" d="M104,262.69l-2.6.32a2.86,2.86,0,0,1,.29-1.11,16,16,0,0,1,3.94-.72v8.51a18.06,18.06,0,0,1,2.1.31,3.19,3.19,0,0,1,.09.7,1.24,1.24,0,0,1,0,.25h-6a3.32,3.32,0,0,1,.32-.9,16.26,16.26,0,0,1,1.88-.45Z"/><path class="cls-1" d="M111.75,265a2.82,2.82,0,0,1-2.08-2.52c0-2.09,1.83-3,3.57-3s3.5.72,3.5,2.7a3.06,3.06,0,0,1-2.08,2.81v.09a3.17,3.17,0,0,1,2.32,2.79c0,2.31-1.86,3.44-3.93,3.44-1.75,0-3.86-.68-3.86-3a3.47,3.47,0,0,1,2.56-3.24Zm-1,3a2.11,2.11,0,0,0,2.38,2.31,2,2,0,0,0,2.21-2.22c0-1.33-1.34-1.94-2.7-2.57A2.63,2.63,0,0,0,110.78,268Zm4.43-5.69a1.85,1.85,0,0,0-2.08-1.87,1.79,1.79,0,0,0-1.94,1.8c0,1.12,1.2,1.71,2.5,2.31A2.47,2.47,0,0,0,115.21,262.29Z"/><path class="cls-1" d="M121.7,270a1.07,1.07,0,0,1-1.12,1.19,1,1,0,0,1-1.16-1.19,1.09,1.09,0,0,1,1.16-1.1A1,1,0,0,1,121.7,270Z"/><path class="cls-1" d="M127.39,271a4.37,4.37,0,0,1,.22-.95,11.17,11.17,0,0,1,1.41-.24V259.61a12.19,12.19,0,0,1-1.34-.13,3.88,3.88,0,0,1,0-1h8.57v2.64a4.81,4.81,0,0,1-1-.12,10,10,0,0,1-.22-1.42h-4.3v4.57h3.41a6.15,6.15,0,0,1,.18-1,4.64,4.64,0,0,1,1-.15v3.32a3.28,3.28,0,0,1-1-.08,6.81,6.81,0,0,1-.17-1h-3.41v4.61h4.37a14.1,14.1,0,0,1,.22-1.55,5.55,5.55,0,0,1,1.12-.13V271Z"/><path class="cls-1" d="M140.76,269.85a6.64,6.64,0,0,1,1.32.24,2.72,2.72,0,0,1,0,.86h-4.34a2.56,2.56,0,0,1,.26-.81,7.08,7.08,0,0,1,1.15-.34v-6.39h-1.31a1.92,1.92,0,0,1,.32-1,4.43,4.43,0,0,1,1.5-.26,3.18,3.18,0,0,1,.85.11v1.32h.18a3.25,3.25,0,0,1,2.91-1.54c1.43,0,2.7.46,2.7,3.25,0,1.51,0,3-.11,4.51a8.08,8.08,0,0,1,1.46.24,2.29,2.29,0,0,1,.06.56,1.51,1.51,0,0,1,0,.3h-4.29a2.56,2.56,0,0,1,.26-.81,6.54,6.54,0,0,1,1-.34v-4.21c0-1.39-.44-2.27-1.7-2.27a3.22,3.22,0,0,0-2.26,1.15Z"/><path class="cls-1" d="M154.32,266.88a2.9,2.9,0,0,0,3,3.12,8.43,8.43,0,0,0,2.53-.5,1.94,1.94,0,0,1-.24,1,6.23,6.23,0,0,1-2.85.74c-2.59,0-4.07-1.93-4.07-4.41,0-2.65,1.64-4.76,4.18-4.76,2.17,0,3.09,1.57,3.09,3.84a7.69,7.69,0,0,1-.06.95Zm4-1c.12-1.24-.24-2.75-1.76-2.75-1.28,0-2.11,1.11-2.22,2.75Z"/><path class="cls-1" d="M161.34,259a2.11,2.11,0,0,1,.32-1,5.48,5.48,0,0,1,1.63-.25,3.74,3.74,0,0,1,.92.11v11.94a8.19,8.19,0,0,1,1.47.25,3,3,0,0,1,0,.56,1.51,1.51,0,0,1,0,.3h-4.48a2.54,2.54,0,0,1,.25-.81,7.2,7.2,0,0,1,1.16-.34V259Z"/><path class="cls-1" d="M173.45,269.85a6.5,6.5,0,0,1,1.32.24,2.71,2.71,0,0,1,0,.86h-4.34a2.54,2.54,0,0,1,.25-.81,7.2,7.2,0,0,1,1.16-.34v-6.39h-1.32a2,2,0,0,1,.32-1,4.44,4.44,0,0,1,1.51-.26,3.3,3.3,0,0,1,.85.11v1.32h.18a3.16,3.16,0,0,1,2.85-1.54,2.14,2.14,0,0,1,2.41,1.64h.09a3.18,3.18,0,0,1,2.91-1.64c1.41,0,2.66.46,2.66,3.25,0,1.53,0,3-.11,4.51a8.08,8.08,0,0,1,1.46.24,2.29,2.29,0,0,1,.06.56,1.51,1.51,0,0,1,0,.3h-4.29a2.56,2.56,0,0,1,.26-.81,6.54,6.54,0,0,1,1-.34v-4.21c0-1.39-.42-2.27-1.67-2.27a3.15,3.15,0,0,0-2.2,1.15v5.37a6,6,0,0,1,1.32.25,2.72,2.72,0,0,1,0,.86H176a2.31,2.31,0,0,1,.25-.81,6.54,6.54,0,0,1,1-.34v-4.21c0-1.39-.41-2.27-1.66-2.27a3.12,3.12,0,0,0-2.21,1.15Z"/><path class="cls-1" d="M186.82,263.41a1.92,1.92,0,0,1,.32-1,5.15,5.15,0,0,1,1.63-.26,4,4,0,0,1,.94.11v7.53a7.74,7.74,0,0,1,1.43.25,3,3,0,0,1,.05.56,1.51,1.51,0,0,1,0,.3h-4.44a2.31,2.31,0,0,1,.25-.81,6.91,6.91,0,0,1,1.16-.34v-6.39Zm3.16-4.2a1,1,0,0,1-1,1.07.94.94,0,0,1-1-1.07,1,1,0,0,1,1-1A.93.93,0,0,1,190,259.21Z"/><path class="cls-1" d="M196.92,263.25a2.83,2.83,0,0,0-1.06-.22c-.94,0-1.48.43-1.48,1.1,0,2,4.21,1.4,4.21,4.54,0,1.87-1.58,2.59-3.26,2.59a5.48,5.48,0,0,1-2.76-.68,3.69,3.69,0,0,1-.09-.87,5.26,5.26,0,0,1,.18-1.28,5.71,5.71,0,0,1,1.3.16v1.25a2.88,2.88,0,0,0,1.52.41A1.37,1.37,0,0,0,197,268.9c0-2.14-4.25-1.37-4.25-4.56,0-1.31,1.21-2.25,3-2.25a7.1,7.1,0,0,1,2.55.47,3.26,3.26,0,0,1,0,.56,6.38,6.38,0,0,1-.19,1.46,2.7,2.7,0,0,1-1.22-.27Z"/><path class="cls-1" d="M203,269.85a6.5,6.5,0,0,1,1.32.24,3,3,0,0,1,0,.86H200a2.31,2.31,0,0,1,.25-.81,7.2,7.2,0,0,1,1.16-.34v-6.39h-1.32a1.92,1.92,0,0,1,.32-1,4.43,4.43,0,0,1,1.5-.26,3.18,3.18,0,0,1,.85.11v1.32H203a3.2,3.2,0,0,1,2.86-1.54,2.15,2.15,0,0,1,2.41,1.64h.09a3.17,3.17,0,0,1,2.91-1.64c1.41,0,2.66.46,2.66,3.25,0,1.53,0,3-.11,4.51a8.23,8.23,0,0,1,1.46.24,2.29,2.29,0,0,1,.06.56,1.51,1.51,0,0,1,0,.3H211a2.56,2.56,0,0,1,.26-.81,6.54,6.54,0,0,1,1-.34v-4.21c0-1.39-.42-2.27-1.67-2.27a3.15,3.15,0,0,0-2.2,1.15v5.37a6,6,0,0,1,1.32.25,2.72,2.72,0,0,1,0,.86h-4.17a2.31,2.31,0,0,1,.25-.81,6.54,6.54,0,0,1,1-.34v-4.21c0-1.39-.42-2.27-1.66-2.27a3.12,3.12,0,0,0-2.21,1.15Z"/><path class="cls-1" d="M224.72,266.54c0,3-1.61,4.72-4.11,4.72s-4.12-1.62-4.12-4.72c0-2.75,1.77-4.45,4.12-4.45S224.72,263.68,224.72,266.54Zm-4.11,3.64c1.67,0,2.46-1.41,2.46-3.64,0-1.92-1-3.38-2.46-3.38s-2.47,1.35-2.47,3.38C218.14,268.74,219.08,270.18,220.61,270.18Z"/><path class="cls-1" d="M3.64,301a10.73,10.73,0,0,1,1.72.32,2.54,2.54,0,0,1,0,.83H.66a2.82,2.82,0,0,1,.25-.81A7.2,7.2,0,0,1,2.07,301V290.41H.73a2,2,0,0,1,.33-1,4.56,4.56,0,0,1,1.5-.26,3.18,3.18,0,0,1,.85.11v1.17h.18a2.81,2.81,0,0,1,2.66-1.39c1.59,0,3.42,1.09,3.42,4.34,0,2.9-1.83,4.83-4.43,4.83a3.11,3.11,0,0,1-1.6-.43Zm0-4a4.9,4.9,0,0,0,1.5.25c2,0,2.89-1.42,2.89-3.51s-1-3.39-2.33-3.39a2.38,2.38,0,0,0-2.06,1.1Z"/><path class="cls-1" d="M13.12,293.88a2.9,2.9,0,0,0,3,3.12,8.43,8.43,0,0,0,2.53-.5,1.94,1.94,0,0,1-.24,1,6.23,6.23,0,0,1-2.85.74c-2.59,0-4.07-1.93-4.07-4.41,0-2.65,1.64-4.76,4.17-4.76,2.17,0,3.1,1.57,3.1,3.84a7.69,7.69,0,0,1-.06.95Zm4-1c.12-1.24-.24-2.75-1.76-2.75-1.28,0-2.11,1.11-2.22,2.75Z"/><path class="cls-1" d="M23.16,291a2.41,2.41,0,0,1,2.35-1.93,2.62,2.62,0,0,1,.81.15,2.31,2.31,0,0,1,.23,1.08,1.77,1.77,0,0,1-.05.48,2.57,2.57,0,0,0-1.23-.3A2.24,2.24,0,0,0,23.19,292v4.82a8.76,8.76,0,0,1,1.79.33,2.46,2.46,0,0,1,0,.82H20.21a2.31,2.31,0,0,1,.25-.81,7.2,7.2,0,0,1,1.16-.34v-6.39H20.3a2,2,0,0,1,.32-1,4.61,4.61,0,0,1,1.5-.26,3.18,3.18,0,0,1,.85.11V291Z"/><path class="cls-1" d="M27.55,290.41a1.94,1.94,0,0,1,.33-1,5.09,5.09,0,0,1,1.62-.26,3.91,3.91,0,0,1,.94.11v7.53a7.74,7.74,0,0,1,1.43.25,2.33,2.33,0,0,1,.05.56c0,.07,0,.16,0,.3H27.46a2.82,2.82,0,0,1,.25-.81,7.2,7.2,0,0,1,1.16-.34v-6.39Zm1.88-2.16a2.45,2.45,0,0,1-.92-.78l2-2.8a3.62,3.62,0,0,1,1.59.63Z"/><path class="cls-1" d="M41.42,293.54c0,3-1.61,4.72-4.11,4.72s-4.12-1.62-4.12-4.72c0-2.75,1.77-4.45,4.12-4.45S41.42,290.68,41.42,293.54Zm-4.11,3.64c1.67,0,2.46-1.41,2.46-3.64,0-1.92-1-3.38-2.46-3.38s-2.47,1.35-2.47,3.38C34.84,295.74,35.78,297.18,37.31,297.18Z"/><path class="cls-1" d="M49.21,286h-1.3a2.12,2.12,0,0,1,.33-1,5.41,5.41,0,0,1,1.62-.25,3.89,3.89,0,0,1,.93.11v10.68a4.71,4.71,0,0,0,.14,1.27h1.36a2.18,2.18,0,0,1,0,.24,2.3,2.3,0,0,1-.14.72,9.94,9.94,0,0,1-2.44.36,3.09,3.09,0,0,1-.36-1.3h-.09a2.94,2.94,0,0,1-2.72,1.39c-1.57,0-3.36-1.08-3.36-4.34,0-2.9,1.79-4.83,4.38-4.83a3.12,3.12,0,0,1,1.64.44Zm0,4.43a4.67,4.67,0,0,0-1.5-.25c-2,0-2.89,1.4-2.89,3.49s1,3.37,2.33,3.37A2.37,2.37,0,0,0,49.23,296Z"/><path class="cls-1" d="M61.76,293.54c0,3-1.61,4.72-4.1,4.72s-4.12-1.62-4.12-4.72c0-2.75,1.77-4.45,4.12-4.45S61.76,290.68,61.76,293.54Zm-4.1,3.64c1.66,0,2.46-1.41,2.46-3.64,0-1.92-1-3.38-2.46-3.38s-2.48,1.35-2.48,3.38C55.18,295.74,56.12,297.18,57.66,297.18Z"/><path class="cls-1" d="M73.26,286H72a2.12,2.12,0,0,1,.33-1,5.42,5.42,0,0,1,1.63-.25,3.8,3.8,0,0,1,.92.11v10.68a4.71,4.71,0,0,0,.14,1.27h1.36a1.1,1.1,0,0,1,0,.24,2.3,2.3,0,0,1-.15.72,9.94,9.94,0,0,1-2.44.36,3.09,3.09,0,0,1-.36-1.3h-.09a2.93,2.93,0,0,1-2.71,1.39c-1.58,0-3.37-1.08-3.37-4.34,0-2.9,1.79-4.83,4.38-4.83a3.12,3.12,0,0,1,1.64.44Zm0,4.43a4.67,4.67,0,0,0-1.5-.25c-2,0-2.89,1.4-2.89,3.49s1,3.37,2.33,3.37A2.37,2.37,0,0,0,73.28,296Z"/><path class="cls-1" d="M79.27,293.88A2.89,2.89,0,0,0,82.21,297a8.43,8.43,0,0,0,2.54-.5,2,2,0,0,1-.24,1,6.24,6.24,0,0,1-2.86.74c-2.58,0-4.06-1.93-4.06-4.41,0-2.65,1.64-4.76,4.17-4.76,2.17,0,3.1,1.57,3.1,3.84a7.69,7.69,0,0,1-.06.95Zm4-1c.12-1.24-.24-2.75-1.76-2.75-1.28,0-2.11,1.11-2.22,2.75Z"/><path class="cls-1" d="M91.38,287.2a3.31,3.31,0,0,1,1.21-.28v2.48h2.63a4.89,4.89,0,0,1,0,1.05H92.59v4.95c0,1.17.17,1.67,1.18,1.67a7.28,7.28,0,0,0,1.68-.23,1.06,1.06,0,0,1,0,.23,1.6,1.6,0,0,1-.18.7,5.75,5.75,0,0,1-2.22.49c-1.4,0-2.1-.76-2.1-2.61,0-1.06,0-3.39.09-5.2H89.81a2.75,2.75,0,0,1,.22-.94,6.15,6.15,0,0,1,1-.33Z"/><path class="cls-1" d="M96.48,290.41a2,2,0,0,1,.33-1,5.11,5.11,0,0,1,1.63-.26,4,4,0,0,1,.94.11v7.53a7.63,7.63,0,0,1,1.42.25,2.29,2.29,0,0,1,.06.56,1.51,1.51,0,0,1,0,.3H96.39a2.56,2.56,0,0,1,.26-.81,7.08,7.08,0,0,1,1.15-.34v-6.39Zm3.17-4.2a1,1,0,0,1-1,1.07.94.94,0,0,1-1-1.07,1,1,0,0,1,1-1A.94.94,0,0,1,99.65,286.21Z"/><path class="cls-1" d="M103.81,293.88a2.89,2.89,0,0,0,2.94,3.12,8.43,8.43,0,0,0,2.54-.5,2,2,0,0,1-.24,1,6.27,6.27,0,0,1-2.86.74c-2.58,0-4.07-1.93-4.07-4.41,0-2.65,1.65-4.76,4.18-4.76,2.17,0,3.09,1.57,3.09,3.84a7.66,7.66,0,0,1,0,.95Zm4-1c.12-1.24-.24-2.75-1.76-2.75-1.28,0-2.11,1.11-2.22,2.75Z"/><path class="cls-1" d="M113.88,296.85a6.64,6.64,0,0,1,1.32.24,3,3,0,0,1,0,.86H110.9a2.31,2.31,0,0,1,.25-.81,6.91,6.91,0,0,1,1.16-.34v-6.39H111a1.92,1.92,0,0,1,.32-1,4.43,4.43,0,0,1,1.5-.26,3.18,3.18,0,0,1,.85.11v1.32h.18a3.2,3.2,0,0,1,2.86-1.54,2.13,2.13,0,0,1,2.4,1.64h.1a3.17,3.17,0,0,1,2.91-1.64c1.41,0,2.65.46,2.65,3.25,0,1.53,0,3-.1,4.51a8.23,8.23,0,0,1,1.46.24,2.33,2.33,0,0,1,0,.56c0,.11,0,.19,0,.3h-4.29a2.82,2.82,0,0,1,.25-.81,7,7,0,0,1,1-.34v-4.21c0-1.39-.42-2.27-1.67-2.27a3.15,3.15,0,0,0-2.2,1.15v5.37a6,6,0,0,1,1.32.25,2.72,2.72,0,0,1,0,.86h-4.18a2.56,2.56,0,0,1,.26-.81,6.54,6.54,0,0,1,1-.34v-4.21c0-1.39-.42-2.27-1.67-2.27a3.12,3.12,0,0,0-2.2,1.15Z"/><path class="cls-1" d="M129.79,301a10.73,10.73,0,0,1,1.72.32,2.84,2.84,0,0,1,0,.83h-4.74a2.54,2.54,0,0,1,.25-.81,7.2,7.2,0,0,1,1.16-.34V290.41h-1.34a2,2,0,0,1,.33-1,4.52,4.52,0,0,1,1.5-.26,3.3,3.3,0,0,1,.85.11v1.17h.18a2.81,2.81,0,0,1,2.66-1.39c1.59,0,3.41,1.09,3.41,4.34,0,2.9-1.82,4.83-4.43,4.83a3.1,3.1,0,0,1-1.59-.43Zm0-4a5,5,0,0,0,1.51.25c2,0,2.89-1.42,2.89-3.51s-1-3.39-2.33-3.39a2.39,2.39,0,0,0-2.07,1.1Z"/><path class="cls-1" d="M145.81,293.54c0,3-1.61,4.72-4.1,4.72-2.64,0-4.12-1.62-4.12-4.72,0-2.75,1.77-4.45,4.12-4.45S145.81,290.68,145.81,293.54Zm-4.1,3.64c1.66,0,2.46-1.41,2.46-3.64,0-1.92-1-3.38-2.46-3.38s-2.48,1.35-2.48,3.38C139.23,295.74,140.17,297.18,141.71,297.18Z"/><path class="cls-1" d="M153,293.88a2.9,2.9,0,0,0,2.95,3.12,8.36,8.36,0,0,0,2.53-.5,1.92,1.92,0,0,1-.23,1,6.27,6.27,0,0,1-2.86.74c-2.58,0-4.07-1.93-4.07-4.41,0-2.65,1.65-4.76,4.18-4.76,2.17,0,3.09,1.57,3.09,3.84,0,.31,0,.63-.05.95Zm4-1c.13-1.24-.23-2.75-1.75-2.75-1.28,0-2.12,1.11-2.23,2.75Z"/><path class="cls-1" d="M160,286a2.12,2.12,0,0,1,.33-1,5.41,5.41,0,0,1,1.62-.25,3.89,3.89,0,0,1,.93.11v11.94a8.08,8.08,0,0,1,1.46.25,2.33,2.33,0,0,1,0,.56c0,.11,0,.19,0,.3h-4.49a2.56,2.56,0,0,1,.26-.81,6.79,6.79,0,0,1,1.15-.34V286Z"/><path class="cls-1" d="M172.07,291a2.42,2.42,0,0,1,2.35-1.93,2.52,2.52,0,0,1,.81.15,2.48,2.48,0,0,1,.19,1.56,2.6,2.6,0,0,0-1.23-.3,2.23,2.23,0,0,0-2.08,1.48v4.82a9,9,0,0,1,1.79.33,2.47,2.47,0,0,1,0,.82h-4.81a2.56,2.56,0,0,1,.26-.81,7.08,7.08,0,0,1,1.15-.34v-6.39h-1.32a2,2,0,0,1,.33-1,4.61,4.61,0,0,1,1.5-.26,3.18,3.18,0,0,1,.85.11V291Z"/><path class="cls-1" d="M176.46,290.41a2,2,0,0,1,.33-1,5.15,5.15,0,0,1,1.63-.26,4,4,0,0,1,.94.11v7.53a7.74,7.74,0,0,1,1.43.25,3,3,0,0,1,.05.56,1.51,1.51,0,0,1,0,.3h-4.45a2.56,2.56,0,0,1,.26-.81,7.08,7.08,0,0,1,1.15-.34v-6.39Zm3.17-4.2a1,1,0,0,1-1,1.07.94.94,0,0,1-1-1.07,1,1,0,0,1,1-1A.93.93,0,0,1,179.63,286.21Z"/><path class="cls-1" d="M183.21,287.2a3.31,3.31,0,0,1,1.21-.28v2.48H187a4.83,4.83,0,0,1,.06,1.05h-2.68v4.95c0,1.17.16,1.67,1.18,1.67a7.36,7.36,0,0,0,1.68-.23,1.06,1.06,0,0,1,0,.23,1.6,1.6,0,0,1-.18.7,5.83,5.83,0,0,1-2.23.49c-1.39,0-2.1-.76-2.1-2.61,0-1.06,0-3.39.09-5.2h-1.24a3,3,0,0,1,.21-.94,6.45,6.45,0,0,1,1.05-.33Z"/><path class="cls-1" d="M191.2,296.85a6.5,6.5,0,0,1,1.32.24,2.71,2.71,0,0,1,0,.86h-4.34a2.54,2.54,0,0,1,.25-.81,7.2,7.2,0,0,1,1.16-.34v-6.39h-1.32a2,2,0,0,1,.32-1,4.44,4.44,0,0,1,1.51-.26,3.3,3.3,0,0,1,.85.11v1.32h.18a3.16,3.16,0,0,1,2.85-1.54,2.14,2.14,0,0,1,2.41,1.64h.09a3.18,3.18,0,0,1,2.91-1.64c1.41,0,2.66.46,2.66,3.25,0,1.53,0,3-.11,4.51a8.08,8.08,0,0,1,1.46.24,2.29,2.29,0,0,1,.06.56,1.51,1.51,0,0,1,0,.3h-4.29a2.56,2.56,0,0,1,.26-.81,6.54,6.54,0,0,1,1-.34v-4.21c0-1.39-.42-2.27-1.67-2.27a3.15,3.15,0,0,0-2.2,1.15v5.37a6,6,0,0,1,1.32.25,2.72,2.72,0,0,1,0,.86h-4.17a2.31,2.31,0,0,1,.25-.81,6.54,6.54,0,0,1,1-.34v-4.21c0-1.39-.41-2.27-1.66-2.27a3.12,3.12,0,0,0-2.21,1.15Z"/><path class="cls-1" d="M212.92,293.54c0,3-1.61,4.72-4.1,4.72s-4.13-1.62-4.13-4.72c0-2.75,1.77-4.45,4.13-4.45S212.92,290.68,212.92,293.54Zm-4.1,3.64c1.66,0,2.45-1.41,2.45-3.64,0-1.92-1-3.38-2.45-3.38s-2.48,1.35-2.48,3.38C206.34,295.74,207.28,297.18,208.82,297.18Z"/><path class="cls-1" d="M224.42,286h-1.3a2.11,2.11,0,0,1,.32-1,5.53,5.53,0,0,1,1.63-.25,3.74,3.74,0,0,1,.92.11v10.68a4.71,4.71,0,0,0,.15,1.27h1.36a2.18,2.18,0,0,1,0,.24,2.3,2.3,0,0,1-.14.72,9.94,9.94,0,0,1-2.44.36,3.09,3.09,0,0,1-.36-1.3h-.09a3,3,0,0,1-2.72,1.39c-1.57,0-3.36-1.08-3.36-4.34,0-2.9,1.79-4.83,4.38-4.83a3.15,3.15,0,0,1,1.64.44Zm0,4.43a4.71,4.71,0,0,0-1.5-.25c-2,0-2.9,1.4-2.9,3.49s1,3.37,2.34,3.37a2.37,2.37,0,0,0,2.06-1.09Z"/><path class="cls-1" d="M230.42,293.88a2.9,2.9,0,0,0,3,3.12,8.36,8.36,0,0,0,2.53-.5,1.92,1.92,0,0,1-.23,1,6.27,6.27,0,0,1-2.86.74c-2.58,0-4.07-1.93-4.07-4.41,0-2.65,1.65-4.76,4.18-4.76,2.17,0,3.09,1.57,3.09,3.84,0,.31,0,.63,0,.95Zm4-1c.13-1.24-.23-2.75-1.75-2.75-1.28,0-2.12,1.11-2.23,2.75Z"/><path class="cls-1" d="M26.16,323.89c.09-.41.29-1.17.41-1.55l1.07-3.18a12.21,12.21,0,0,1,.67-1.61,4.41,4.41,0,0,1-1.07-.23,3.06,3.06,0,0,1-.14-.92h3.41a3.54,3.54,0,0,1-.18,1,4.11,4.11,0,0,1-.85.16L26.7,325l-1.65.18-2.67-7.55a4.32,4.32,0,0,1-.92-.3,3.56,3.56,0,0,1-.18-.94h4a3.94,3.94,0,0,1-.15,1,8.22,8.22,0,0,1-1.28.2,13.53,13.53,0,0,1,.65,1.53l1.12,3.33a14.58,14.58,0,0,1,.36,1.48Z"/><path class="cls-1" d="M32.94,320.88a2.89,2.89,0,0,0,3,3.12,8.43,8.43,0,0,0,2.53-.5,2,2,0,0,1-.24,1,6.23,6.23,0,0,1-2.85.74c-2.59,0-4.07-1.93-4.07-4.41,0-2.65,1.64-4.76,4.17-4.76,2.17,0,3.1,1.57,3.1,3.84a7.69,7.69,0,0,1-.06.95Zm4-1c.12-1.24-.24-2.75-1.76-2.75-1.28,0-2.11,1.11-2.22,2.75Z"/><path class="cls-1" d="M43,323.85a6.5,6.5,0,0,1,1.32.24,3,3,0,0,1,0,.86H40a2.31,2.31,0,0,1,.25-.81,7.2,7.2,0,0,1,1.16-.34v-6.39H40.12a2,2,0,0,1,.32-1,4.43,4.43,0,0,1,1.5-.26,3.18,3.18,0,0,1,.85.11v1.32H43a3.26,3.26,0,0,1,2.92-1.54c1.42,0,2.69.46,2.69,3.25,0,1.51,0,3-.11,4.51a8.36,8.36,0,0,1,1.47.24,3,3,0,0,1,.05.56,1.51,1.51,0,0,1,0,.3H45.69a2.31,2.31,0,0,1,.25-.81,6.54,6.54,0,0,1,1-.34v-4.21c0-1.39-.43-2.27-1.7-2.27A3.22,3.22,0,0,0,43,318.47Z"/><path class="cls-1" d="M52.29,314.2a3.31,3.31,0,0,1,1.21-.28v2.48h2.62a4.83,4.83,0,0,1,.06,1.05H53.5v4.95c0,1.17.16,1.67,1.17,1.67a7.37,7.37,0,0,0,1.69-.23,2.11,2.11,0,0,1,0,.23,1.6,1.6,0,0,1-.18.7,5.75,5.75,0,0,1-2.22.49c-1.39,0-2.1-.76-2.1-2.61,0-1.06,0-3.39.09-5.2H50.71a2.75,2.75,0,0,1,.22-.94,6.45,6.45,0,0,1,1-.33Z"/><path class="cls-1" d="M62.56,323.89A2.79,2.79,0,0,1,60,325.26a2.36,2.36,0,0,1-2.57-2.41C57.46,321,59,320,60.82,320a4.66,4.66,0,0,1,1.68.3v-1c0-1.33-.57-2-1.71-2a5.65,5.65,0,0,0-2.64.89,1.43,1.43,0,0,1-.09-.61,2.17,2.17,0,0,1,.19-.91,7.48,7.48,0,0,1,3-.63c2,0,2.84,1,2.84,3.43V323a1.6,1.6,0,0,0,.24.94,5.51,5.51,0,0,0,1.24-.22.71.71,0,0,1,0,.2,1.89,1.89,0,0,1-.18.81,4.64,4.64,0,0,1-2,.52,1.91,1.91,0,0,1-.76-1.37Zm0-2.75a5.87,5.87,0,0,0-1.26-.15c-1.41,0-2.21.63-2.21,1.59A1.46,1.46,0,0,0,60.7,324a2.25,2.25,0,0,0,1.82-.89Z"/><path class="cls-1" d="M71.15,317.25a2.93,2.93,0,0,0-1.07-.22c-.94,0-1.48.43-1.48,1.1,0,2,4.21,1.4,4.21,4.54,0,1.87-1.57,2.59-3.25,2.59a5.55,5.55,0,0,1-2.77-.68,4.31,4.31,0,0,1-.09-.87,5.26,5.26,0,0,1,.18-1.28,5.64,5.64,0,0,1,1.3.16v1.25a2.88,2.88,0,0,0,1.52.41,1.36,1.36,0,0,0,1.52-1.35c0-2.14-4.25-1.37-4.25-4.56,0-1.31,1.21-2.25,3-2.25a7.1,7.1,0,0,1,2.55.47,2.46,2.46,0,0,1,0,.56,5.85,5.85,0,0,1-.2,1.46,2.66,2.66,0,0,1-1.21-.27Z"/><path class="cls-1" d="M84.19,313H82.88a2.12,2.12,0,0,1,.33-1,5.42,5.42,0,0,1,1.63-.25,3.8,3.8,0,0,1,.92.11v10.68a4.71,4.71,0,0,0,.14,1.27h1.36a1.1,1.1,0,0,1,0,.24,2.05,2.05,0,0,1-.15.72,9.94,9.94,0,0,1-2.44.36,3.24,3.24,0,0,1-.36-1.3h-.09a2.92,2.92,0,0,1-2.71,1.39c-1.58,0-3.37-1.08-3.37-4.34,0-2.9,1.79-4.83,4.38-4.83a3.16,3.16,0,0,1,1.65.44Zm0,4.43a4.62,4.62,0,0,0-1.5-.25c-2,0-2.89,1.4-2.89,3.49s1,3.37,2.33,3.37A2.37,2.37,0,0,0,84.2,323Z"/><path class="cls-1" d="M90.19,320.88a2.9,2.9,0,0,0,3,3.12,8.43,8.43,0,0,0,2.53-.5,1.94,1.94,0,0,1-.24,1,6.23,6.23,0,0,1-2.85.74c-2.59,0-4.07-1.93-4.07-4.41,0-2.65,1.64-4.76,4.17-4.76,2.17,0,3.1,1.57,3.1,3.84a7.69,7.69,0,0,1-.06.95Zm4-1c.12-1.24-.24-2.75-1.76-2.75-1.28,0-2.11,1.11-2.22,2.75Z"/><path class="cls-1" d="M104,323.85a6.64,6.64,0,0,1,1.32.24,3,3,0,0,1,0,.86H101a2.31,2.31,0,0,1,.25-.81,6.91,6.91,0,0,1,1.16-.34v-6.39h-1.32a1.92,1.92,0,0,1,.32-1,4.43,4.43,0,0,1,1.5-.26,3.18,3.18,0,0,1,.85.11v1.32h.18a3.2,3.2,0,0,1,2.86-1.54,2.13,2.13,0,0,1,2.4,1.64h.1a3.17,3.17,0,0,1,2.91-1.64c1.41,0,2.65.46,2.65,3.25,0,1.53,0,3-.1,4.51a8.23,8.23,0,0,1,1.46.24,2.33,2.33,0,0,1,.05.56c0,.11,0,.19,0,.3H112a2.82,2.82,0,0,1,.25-.81,7,7,0,0,1,1-.34v-4.21c0-1.39-.42-2.27-1.67-2.27a3.13,3.13,0,0,0-2.2,1.15v5.37a6,6,0,0,1,1.32.25,2.72,2.72,0,0,1,0,.86h-4.18a2.56,2.56,0,0,1,.26-.81,6.54,6.54,0,0,1,1-.34v-4.21c0-1.39-.42-2.27-1.67-2.27a3.12,3.12,0,0,0-2.2,1.15Z"/><path class="cls-1" d="M123.77,317.41h-1.3a2,2,0,0,1,.32-1,4.64,4.64,0,0,1,1.63-.26,3.74,3.74,0,0,1,.92.11v6.27a5.12,5.12,0,0,0,.15,1.27h1.37a1.1,1.1,0,0,1,0,.24,2.3,2.3,0,0,1-.14.72,10.46,10.46,0,0,1-2.48.36,3.62,3.62,0,0,1-.36-1.42h-.09a3.22,3.22,0,0,1-2.88,1.51c-1.41,0-2.66-.45-2.66-3.24,0-1.51,0-3.1.09-4.61H117a2.29,2.29,0,0,1,.32-.94,5,5,0,0,1,1.65-.27,3.74,3.74,0,0,1,.92.11v5.46c0,1.36.44,2.25,1.67,2.25a3.13,3.13,0,0,0,2.22-1.1Z"/><path class="cls-1" d="M131,323.85a6.64,6.64,0,0,1,1.32.24,3,3,0,0,1,0,.86h-4.34a2.31,2.31,0,0,1,.25-.81,6.91,6.91,0,0,1,1.16-.34v-6.39h-1.32a1.92,1.92,0,0,1,.32-1,4.43,4.43,0,0,1,1.5-.26,3.18,3.18,0,0,1,.85.11v1.32H131a3.25,3.25,0,0,1,2.91-1.54c1.43,0,2.7.46,2.7,3.25,0,1.51,0,3-.11,4.51a8.08,8.08,0,0,1,1.46.24,2.29,2.29,0,0,1,.06.56,1.51,1.51,0,0,1,0,.3h-4.29a2.56,2.56,0,0,1,.26-.81,6.54,6.54,0,0,1,1-.34v-4.21c0-1.39-.43-2.27-1.7-2.27a3.22,3.22,0,0,0-2.26,1.15Z"/><path class="cls-1" d="M139.09,317.41a1.92,1.92,0,0,1,.32-1,5.15,5.15,0,0,1,1.63-.26,3.91,3.91,0,0,1,.94.11v7.53a7.74,7.74,0,0,1,1.43.25,3,3,0,0,1,.05.56,1.51,1.51,0,0,1,0,.3H139a2.31,2.31,0,0,1,.25-.81,6.91,6.91,0,0,1,1.16-.34v-6.39Zm3.16-4.2a1,1,0,0,1-1,1.07.94.94,0,0,1-1-1.07,1,1,0,0,1,1-1A.93.93,0,0,1,142.25,313.21Z"/><path class="cls-1" d="M150.17,317.41a2.31,2.31,0,0,0-1-.27c-1.55,0-2.67,1-2.67,3.38s1.19,3.5,2.82,3.5a7.94,7.94,0,0,0,2.22-.43,2.16,2.16,0,0,1-.25,1,6.37,6.37,0,0,1-2.68.65c-2.33,0-3.83-1.87-3.83-4.39,0-2.79,1.79-4.78,4.43-4.78a4.44,4.44,0,0,1,2.37.65c0,.18,0,.47,0,.65a4.35,4.35,0,0,1-.25,1.53,3.18,3.18,0,0,1-1.14-.23Z"/><path class="cls-1" d="M153,317.41a2,2,0,0,1,.32-1,5.15,5.15,0,0,1,1.63-.26,3.91,3.91,0,0,1,.94.11v7.53a7.74,7.74,0,0,1,1.43.25,2.33,2.33,0,0,1,.05.56c0,.11,0,.19,0,.3h-4.45a2.54,2.54,0,0,1,.25-.81,7.2,7.2,0,0,1,1.16-.34v-6.39Zm3.16-4.2a1,1,0,0,1-1,1.07.94.94,0,0,1-1-1.07,1,1,0,0,1,1-1A.93.93,0,0,1,156.19,313.21Z"/><path class="cls-1" d="M166.9,320.54c0,3-1.61,4.72-4.11,4.72s-4.12-1.62-4.12-4.72c0-2.75,1.77-4.45,4.12-4.45S166.9,317.68,166.9,320.54Zm-4.11,3.64c1.67,0,2.46-1.41,2.46-3.64,0-1.92-1-3.38-2.46-3.38s-2.47,1.35-2.47,3.38C160.32,322.74,161.26,324.18,162.79,324.18Z"/><path class="cls-1" d="M171.44,323.85a6.64,6.64,0,0,1,1.32.24,2.72,2.72,0,0,1,0,.86h-4.34a2.56,2.56,0,0,1,.26-.81,7.08,7.08,0,0,1,1.15-.34v-6.39h-1.32a2,2,0,0,1,.33-1,4.43,4.43,0,0,1,1.5-.26,3.18,3.18,0,0,1,.85.11v1.32h.18a3.25,3.25,0,0,1,2.91-1.54c1.43,0,2.7.46,2.7,3.25,0,1.51,0,3-.11,4.51a8.08,8.08,0,0,1,1.46.24,2.29,2.29,0,0,1,.06.56,1.51,1.51,0,0,1,0,.3h-4.29a2.56,2.56,0,0,1,.26-.81,6.54,6.54,0,0,1,1-.34v-4.21c0-1.39-.44-2.27-1.7-2.27a3.22,3.22,0,0,0-2.26,1.15Z"/><path class="cls-1" d="M181.29,320.88a2.9,2.9,0,0,0,3,3.12,8.36,8.36,0,0,0,2.53-.5,1.92,1.92,0,0,1-.23,1,6.27,6.27,0,0,1-2.86.74c-2.59,0-4.07-1.93-4.07-4.41,0-2.65,1.65-4.76,4.18-4.76,2.17,0,3.09,1.57,3.09,3.84,0,.31,0,.63,0,.95Zm4-1c.13-1.24-.23-2.75-1.75-2.75-1.29,0-2.12,1.11-2.23,2.75Z"/><path class="cls-1" d="M193.07,317.25A2.93,2.93,0,0,0,192,317c-.94,0-1.48.43-1.48,1.1,0,2,4.21,1.4,4.21,4.54,0,1.87-1.57,2.59-3.26,2.59a5.51,5.51,0,0,1-2.76-.68,3.69,3.69,0,0,1-.09-.87,5.26,5.26,0,0,1,.18-1.28,5.64,5.64,0,0,1,1.3.16v1.25a2.88,2.88,0,0,0,1.52.41,1.37,1.37,0,0,0,1.52-1.35c0-2.14-4.25-1.37-4.25-4.56,0-1.31,1.21-2.25,3-2.25a7.1,7.1,0,0,1,2.55.47,2.46,2.46,0,0,1,0,.56,6.36,6.36,0,0,1-.2,1.46,2.63,2.63,0,0,1-1.21-.27Z"/><path class="cls-1" d="M201.76,320.88a2.9,2.9,0,0,0,3,3.12,8.36,8.36,0,0,0,2.53-.5,1.92,1.92,0,0,1-.23,1,6.27,6.27,0,0,1-2.86.74c-2.59,0-4.07-1.93-4.07-4.41,0-2.65,1.65-4.76,4.18-4.76,2.17,0,3.09,1.57,3.09,3.84,0,.31,0,.63,0,.95Zm4-1c.13-1.24-.23-2.75-1.75-2.75-1.29,0-2.12,1.11-2.23,2.75Z"/><path class="cls-1" d="M213.54,317.25a2.93,2.93,0,0,0-1.07-.22c-.94,0-1.48.43-1.48,1.1,0,2,4.21,1.4,4.21,4.54,0,1.87-1.58,2.59-3.26,2.59a5.51,5.51,0,0,1-2.76-.68,3.69,3.69,0,0,1-.09-.87,5.26,5.26,0,0,1,.18-1.28,5.64,5.64,0,0,1,1.3.16v1.25a2.88,2.88,0,0,0,1.52.41,1.37,1.37,0,0,0,1.52-1.35c0-2.14-4.25-1.37-4.25-4.56,0-1.31,1.21-2.25,3-2.25a7.1,7.1,0,0,1,2.55.47,2.46,2.46,0,0,1,0,.56,6.36,6.36,0,0,1-.2,1.46,2.63,2.63,0,0,1-1.21-.27Z"/><path class="cls-1" d="M23.34,347.88A2.89,2.89,0,0,0,26.28,351a8.3,8.3,0,0,0,2.53-.5,1.92,1.92,0,0,1-.23,1,6.27,6.27,0,0,1-2.86.74c-2.58,0-4.07-1.93-4.07-4.41,0-2.65,1.65-4.76,4.18-4.76,2.17,0,3.09,1.57,3.09,3.84a7.66,7.66,0,0,1-.05.95Zm4-1c.13-1.24-.23-2.75-1.75-2.75-1.28,0-2.12,1.11-2.22,2.75Z"/><path class="cls-1" d="M38.24,355a8.3,8.3,0,0,1,1.48.25,3,3,0,0,1,.05.56,1.56,1.56,0,0,1,0,.3H35.18a2.82,2.82,0,0,1,.25-.81,8.13,8.13,0,0,1,1.23-.34v-1.84c0-.75,0-1.53.09-2.25h-.18A2.51,2.51,0,0,1,34,352.26c-1.57,0-3.36-1.08-3.36-4.34,0-2.9,1.77-4.83,4.36-4.83a7,7,0,0,1,3.24.78Zm-1.56-10.59a4,4,0,0,0-1.52-.29c-2,0-2.87,1.46-2.87,3.55s1,3.37,2.33,3.37A2.37,2.37,0,0,0,36.68,350Z"/><path class="cls-1" d="M46.86,344.41h-1.3a2,2,0,0,1,.32-1,4.68,4.68,0,0,1,1.63-.26,3.74,3.74,0,0,1,.92.11v6.27a5.12,5.12,0,0,0,.15,1.27H50a1.1,1.1,0,0,1,0,.24,2.3,2.3,0,0,1-.14.72,10.39,10.39,0,0,1-2.48.36,3.62,3.62,0,0,1-.36-1.42H46.9A3.22,3.22,0,0,1,44,352.26c-1.41,0-2.66-.45-2.66-3.24,0-1.51,0-3.1.1-4.61H40.08a2.3,2.3,0,0,1,.33-.94,4.93,4.93,0,0,1,1.64-.27,3.74,3.74,0,0,1,.92.11v5.46c0,1.36.44,2.25,1.67,2.25a3.13,3.13,0,0,0,2.22-1.1Z"/><path class="cls-1" d="M51.24,344.41a2,2,0,0,1,.32-1,5.15,5.15,0,0,1,1.63-.26,3.91,3.91,0,0,1,.94.11v7.53a7.74,7.74,0,0,1,1.43.25,2.33,2.33,0,0,1,0,.56c0,.11,0,.19,0,.3H51.15a2.31,2.31,0,0,1,.25-.81,7.2,7.2,0,0,1,1.16-.34v-6.39Zm3.16-4.2a1,1,0,0,1-1,1.07.94.94,0,0,1-1-1.07,1,1,0,0,1,1-1A.93.93,0,0,1,54.4,340.21Z"/><path class="cls-1" d="M60.64,350.89c.09-.41.29-1.17.42-1.55l1.06-3.18a13.74,13.74,0,0,1,.67-1.61,4.43,4.43,0,0,1-1.06-.23,3.06,3.06,0,0,1-.15-.92H65a3.54,3.54,0,0,1-.18,1,4.24,4.24,0,0,1-.85.16L61.18,352l-1.64.18-2.68-7.55a4.51,4.51,0,0,1-.92-.3,4,4,0,0,1-.18-.94h4.05a4,4,0,0,1-.14,1,8.17,8.17,0,0,1-1.29.2,10.66,10.66,0,0,1,.65,1.53l1.12,3.33a14.58,14.58,0,0,1,.36,1.48Z"/><path class="cls-1" d="M70.51,350.89A2.78,2.78,0,0,1,68,352.26a2.35,2.35,0,0,1-2.56-2.41C65.42,348,67,347,68.78,347a4.66,4.66,0,0,1,1.68.3v-1c0-1.33-.58-2-1.72-2a5.69,5.69,0,0,0-2.64.89,1.6,1.6,0,0,1-.09-.61,2,2,0,0,1,.2-.91,7.48,7.48,0,0,1,3-.63c2,0,2.84,1,2.84,3.43V350a1.69,1.69,0,0,0,.23.94,5.58,5.58,0,0,0,1.25-.22.71.71,0,0,1,0,.2,1.89,1.89,0,0,1-.18.81,4.64,4.64,0,0,1-2,.52,1.9,1.9,0,0,1-.75-1.37Zm0-2.75a6,6,0,0,0-1.27-.15c-1.41,0-2.2.63-2.2,1.59A1.45,1.45,0,0,0,68.65,351a2.25,2.25,0,0,0,1.83-.89Z"/><path class="cls-1" d="M74.35,340a2.11,2.11,0,0,1,.32-1,5.53,5.53,0,0,1,1.63-.25,3.74,3.74,0,0,1,.92.11v11.94a8,8,0,0,1,1.47.25,3,3,0,0,1,0,.56,1.51,1.51,0,0,1,0,.3H74.24a2.82,2.82,0,0,1,.25-.81,7.2,7.2,0,0,1,1.16-.34V340Z"/><path class="cls-1" d="M81.67,347.88a2.9,2.9,0,0,0,3,3.12,8.36,8.36,0,0,0,2.53-.5,1.92,1.92,0,0,1-.23,1,6.31,6.31,0,0,1-2.86.74c-2.59,0-4.07-1.93-4.07-4.41,0-2.65,1.65-4.76,4.18-4.76,2.17,0,3.09,1.57,3.09,3.84,0,.31,0,.63-.05.95Zm4-1c.13-1.24-.23-2.75-1.75-2.75-1.29,0-2.12,1.11-2.23,2.75Z"/><path class="cls-1" d="M91.74,350.85a6.38,6.38,0,0,1,1.32.24,2.44,2.44,0,0,1,0,.86H88.76a2.82,2.82,0,0,1,.25-.81,7.2,7.2,0,0,1,1.16-.34v-6.39H88.85a2,2,0,0,1,.33-1,4.38,4.38,0,0,1,1.5-.26,3.3,3.3,0,0,1,.85.11v1.32h.18a3.23,3.23,0,0,1,2.91-1.54c1.43,0,2.69.46,2.69,3.25,0,1.51,0,3-.1,4.51a8.23,8.23,0,0,1,1.46.24,2.33,2.33,0,0,1,0,.56c0,.11,0,.19,0,.3H94.42a2.82,2.82,0,0,1,.25-.81,6.9,6.9,0,0,1,1-.34v-4.21c0-1.39-.43-2.27-1.7-2.27a3.22,3.22,0,0,0-2.26,1.15Z"/><path class="cls-1" d="M101,341.2a3.31,3.31,0,0,1,1.21-.28v2.48h2.62a4.27,4.27,0,0,1,.06,1.05h-2.68v4.95c0,1.17.17,1.67,1.18,1.67a7.36,7.36,0,0,0,1.68-.23,1.06,1.06,0,0,1,0,.23,1.6,1.6,0,0,1-.18.7,5.79,5.79,0,0,1-2.23.49c-1.39,0-2.09-.76-2.09-2.61,0-1.06,0-3.39.09-5.2H99.45a2.75,2.75,0,0,1,.22-.94,6,6,0,0,1,1-.33Z"/><path class="cls-1" d="M107.57,347.88a2.89,2.89,0,0,0,2.94,3.12,8.43,8.43,0,0,0,2.54-.5,2,2,0,0,1-.24,1,6.24,6.24,0,0,1-2.86.74c-2.58,0-4.06-1.93-4.06-4.41,0-2.65,1.64-4.76,4.17-4.76,2.17,0,3.1,1.57,3.1,3.84a7.69,7.69,0,0,1-.06.95Zm4-1c.12-1.24-.24-2.75-1.76-2.75-1.28,0-2.11,1.11-2.22,2.75Z"/><path class="cls-1" d="M123.62,350.89a2.77,2.77,0,0,1-2.53,1.37,2.35,2.35,0,0,1-2.56-2.41c0-1.86,1.57-2.81,3.36-2.81a4.66,4.66,0,0,1,1.68.3v-1c0-1.33-.58-2-1.72-2a5.73,5.73,0,0,0-2.64.89,1.6,1.6,0,0,1-.09-.61,2,2,0,0,1,.2-.91,7.48,7.48,0,0,1,3-.63c2,0,2.84,1,2.84,3.43V350a1.69,1.69,0,0,0,.23.94,5.58,5.58,0,0,0,1.25-.22.71.71,0,0,1,0,.2,1.89,1.89,0,0,1-.18.81,4.64,4.64,0,0,1-2,.52,1.9,1.9,0,0,1-.75-1.37Zm0-2.75a6,6,0,0,0-1.27-.15c-1.41,0-2.2.63-2.2,1.59a1.45,1.45,0,0,0,1.64,1.44,2.25,2.25,0,0,0,1.83-.89Z"/><path class="cls-1" d="M131.17,340a2,2,0,0,1,.32-1,5.48,5.48,0,0,1,1.63-.25,3.8,3.8,0,0,1,.92.11v11.94a8.19,8.19,0,0,1,1.47.25,3,3,0,0,1,.05.56,1.51,1.51,0,0,1,0,.3h-4.48a2.31,2.31,0,0,1,.25-.81,7.2,7.2,0,0,1,1.16-.34V340Z"/><path class="cls-1" d="M141.85,350.89a2.78,2.78,0,0,1-2.53,1.37,2.36,2.36,0,0,1-2.57-2.41c0-1.86,1.58-2.81,3.37-2.81a4.66,4.66,0,0,1,1.68.3v-1c0-1.33-.58-2-1.72-2a5.65,5.65,0,0,0-2.64.89,1.6,1.6,0,0,1-.09-.61,2,2,0,0,1,.2-.91,7.48,7.48,0,0,1,2.95-.63c2,0,2.83,1,2.83,3.43V350a1.68,1.68,0,0,0,.24.94,5.68,5.68,0,0,0,1.25-.22.71.71,0,0,1,0,.2,2.05,2.05,0,0,1-.18.81,4.64,4.64,0,0,1-2,.52,1.94,1.94,0,0,1-.76-1.37Zm0-2.75a6,6,0,0,0-1.27-.15c-1.41,0-2.21.63-2.21,1.59A1.46,1.46,0,0,0,140,351a2.25,2.25,0,0,0,1.83-.89Z"/><path class="cls-1" d="M153.73,350.89c.09-.41.29-1.17.42-1.55l1.07-3.18a12.13,12.13,0,0,1,.66-1.61,4.43,4.43,0,0,1-1.06-.23,3.06,3.06,0,0,1-.15-.92h3.42a3.54,3.54,0,0,1-.18,1,4.24,4.24,0,0,1-.85.16L154.28,352l-1.65.18L150,344.64a4.73,4.73,0,0,1-.92-.3,4,4,0,0,1-.18-.94h4.05a4,4,0,0,1-.14,1,8.17,8.17,0,0,1-1.29.2,10.66,10.66,0,0,1,.65,1.53l1.13,3.33c.1.33.28,1.09.36,1.48Z"/><path class="cls-1" d="M160.51,347.88a2.9,2.9,0,0,0,3,3.12,8.36,8.36,0,0,0,2.53-.5,1.92,1.92,0,0,1-.23,1,6.27,6.27,0,0,1-2.86.74c-2.58,0-4.07-1.93-4.07-4.41,0-2.65,1.65-4.76,4.18-4.76,2.17,0,3.09,1.57,3.09,3.84,0,.31,0,.63,0,.95Zm4-1c.13-1.24-.23-2.75-1.75-2.75-1.28,0-2.12,1.11-2.23,2.75Z"/><path class="cls-1" d="M170.59,350.85a6.64,6.64,0,0,1,1.32.24,2.72,2.72,0,0,1,0,.86H167.6a2.56,2.56,0,0,1,.26-.81,7.08,7.08,0,0,1,1.15-.34v-6.39h-1.32a2,2,0,0,1,.33-1,4.43,4.43,0,0,1,1.5-.26,3.18,3.18,0,0,1,.85.11v1.32h.18a3.24,3.24,0,0,1,2.91-1.54c1.43,0,2.7.46,2.7,3.25,0,1.51,0,3-.11,4.51a8.08,8.08,0,0,1,1.46.24,2.29,2.29,0,0,1,.06.56,1.51,1.51,0,0,1,0,.3h-4.29a2.56,2.56,0,0,1,.26-.81,6.54,6.54,0,0,1,1-.34v-4.21c0-1.39-.44-2.27-1.7-2.27a3.2,3.2,0,0,0-2.26,1.15Z"/><path class="cls-1" d="M179.86,341.2a3.31,3.31,0,0,1,1.22-.28v2.48h2.62a4.89,4.89,0,0,1,.05,1.05h-2.67v4.95c0,1.17.16,1.67,1.17,1.67a7.28,7.28,0,0,0,1.68-.23,1.06,1.06,0,0,1,0,.23,1.6,1.6,0,0,1-.18.7,5.75,5.75,0,0,1-2.22.49c-1.4,0-2.1-.76-2.1-2.61,0-1.06,0-3.39.09-5.2h-1.25a2.75,2.75,0,0,1,.22-.94,6.15,6.15,0,0,1,1.05-.33Z"/><path class="cls-1" d="M190.13,350.89a2.77,2.77,0,0,1-2.53,1.37,2.35,2.35,0,0,1-2.56-2.41c0-1.86,1.57-2.81,3.36-2.81a4.66,4.66,0,0,1,1.68.3v-1c0-1.33-.58-2-1.72-2a5.69,5.69,0,0,0-2.64.89,1.6,1.6,0,0,1-.09-.61,2,2,0,0,1,.2-.91,7.48,7.48,0,0,1,2.95-.63c2,0,2.84,1,2.84,3.43V350a1.69,1.69,0,0,0,.23.94,5.58,5.58,0,0,0,1.25-.22.71.71,0,0,1,0,.2,1.89,1.89,0,0,1-.18.81,4.64,4.64,0,0,1-2,.52,1.9,1.9,0,0,1-.75-1.37Zm0-2.75a6,6,0,0,0-1.27-.15c-1.41,0-2.2.63-2.2,1.59a1.45,1.45,0,0,0,1.64,1.44,2.25,2.25,0,0,0,1.83-.89Z"/><path class="cls-1" d="M204,340h-1.31a2.12,2.12,0,0,1,.33-1,5.48,5.48,0,0,1,1.63-.25,3.8,3.8,0,0,1,.92.11v10.68a5.15,5.15,0,0,0,.14,1.27h1.36a1.1,1.1,0,0,1,0,.24,2.05,2.05,0,0,1-.15.72,9.87,9.87,0,0,1-2.44.36,3.24,3.24,0,0,1-.36-1.3H204a2.92,2.92,0,0,1-2.71,1.39c-1.58,0-3.37-1.08-3.37-4.34,0-2.9,1.79-4.83,4.38-4.83a3.16,3.16,0,0,1,1.65.44Zm0,4.43a4.62,4.62,0,0,0-1.5-.25c-2,0-2.89,1.4-2.89,3.49s1,3.37,2.33,3.37A2.37,2.37,0,0,0,204,350Z"/><path class="cls-1" d="M210,347.88a2.9,2.9,0,0,0,2.95,3.12,8.43,8.43,0,0,0,2.53-.5,1.94,1.94,0,0,1-.24,1,6.23,6.23,0,0,1-2.85.74c-2.59,0-4.07-1.93-4.07-4.41,0-2.65,1.64-4.76,4.18-4.76,2.17,0,3.09,1.57,3.09,3.84a7.69,7.69,0,0,1-.06.95Zm4-1c.12-1.24-.24-2.75-1.76-2.75-1.28,0-2.11,1.11-2.22,2.75Z"/><path class="cls-1" d="M70.7,373a2.82,2.82,0,0,1-2.08-2.52c0-2.09,1.83-3,3.57-3s3.5.72,3.5,2.7A3.06,3.06,0,0,1,73.62,373v.09a3.17,3.17,0,0,1,2.31,2.79c0,2.31-1.86,3.44-3.92,3.44-1.76,0-3.87-.68-3.87-3a3.48,3.48,0,0,1,2.56-3.24Zm-1,3a2.11,2.11,0,0,0,2.38,2.31,2,2,0,0,0,2.21-2.22c0-1.33-1.34-1.94-2.69-2.57A2.63,2.63,0,0,0,69.73,376Zm4.43-5.69a1.85,1.85,0,0,0-2.08-1.87,1.79,1.79,0,0,0-1.94,1.8c0,1.12,1.2,1.71,2.5,2.31A2.46,2.46,0,0,0,74.16,370.29Z"/><path class="cls-1" d="M79.76,377.64c1.76,0,3.71-.07,5.61-.22a1.62,1.62,0,0,1,0,.31,8.49,8.49,0,0,1-.11,1.22H78.06l-.23-1.29c1.55-1.39,5.44-3.86,5.44-5.94,0-.94-.76-1.37-1.86-1.37a5.07,5.07,0,0,0-2,.46v1.5a3,3,0,0,1-1.23.27,6.16,6.16,0,0,1-.23-1.69c0-.24,0-.6,0-.81a7.48,7.48,0,0,1,3.53-.9c2,0,3.51.63,3.51,2.28,0,2.67-4,5-5.27,6.05Z"/><path class="cls-1" d="M86.89,378.47a3.9,3.9,0,0,1,.59-1.21,3.81,3.81,0,0,1,.75-.07,4.52,4.52,0,0,1,1.33.21,15.9,15.9,0,0,1-1.64,4.25,3.18,3.18,0,0,1-1-.46,16.66,16.66,0,0,0,.69-2.54Z"/><path class="cls-1" d="M93.27,377.64c1.75,0,3.71-.07,5.61-.22,0,.11,0,.2,0,.31a8.59,8.59,0,0,1-.1,1.22H91.57l-.23-1.29c1.55-1.39,5.44-3.86,5.44-5.94,0-.94-.76-1.37-1.86-1.37a5,5,0,0,0-2,.46v1.5a3,3,0,0,1-1.23.27,6.16,6.16,0,0,1-.24-1.69c0-.24,0-.6,0-.81a7.47,7.47,0,0,1,3.52-.9c2,0,3.51.63,3.51,2.28,0,2.67-4,5-5.26,6.05Z"/><path class="cls-1" d="M102.24,377.64c1.75,0,3.71-.07,5.6-.22a1.62,1.62,0,0,1,0,.31,7.27,7.27,0,0,1-.11,1.22h-7.21l-.24-1.29c1.56-1.39,5.45-3.86,5.45-5.94,0-.94-.76-1.37-1.87-1.37a5,5,0,0,0-2,.46v1.5a3,3,0,0,1-1.23.27,6.16,6.16,0,0,1-.24-1.69c0-.24,0-.6,0-.81a7.47,7.47,0,0,1,3.52-.9c2,0,3.51.63,3.51,2.28,0,2.67-4,5-5.26,6.05Z"/><path class="cls-1" d="M115.69,380.61a3.93,3.93,0,0,1-.77.05,4,4,0,0,1-.78-.05v-3.13H109l-.26-.94a73.71,73.71,0,0,1,5.16-7.31l1.82.29v6.75h1.61a3.21,3.21,0,0,1,.09.78c0,.14,0,.32,0,.43h-1.67Zm-1.55-8.43a11.52,11.52,0,0,1,.09-1.42h-.13a48.38,48.38,0,0,0-3.8,5.42v.13c.28,0,.78,0,1.14,0h2.7Z"/><path class="cls-1" d="M127.48,377.89a2.78,2.78,0,0,1-2.53,1.37,2.36,2.36,0,0,1-2.57-2.41c0-1.86,1.58-2.81,3.37-2.81a4.66,4.66,0,0,1,1.68.3v-1c0-1.33-.58-2-1.72-2a5.65,5.65,0,0,0-2.64.89,1.6,1.6,0,0,1-.09-.61,2,2,0,0,1,.2-.91,7.48,7.48,0,0,1,2.95-.63c2,0,2.83,1,2.83,3.43V377a1.68,1.68,0,0,0,.24.94,5.68,5.68,0,0,0,1.25-.22.71.71,0,0,1,0,.2,2.05,2.05,0,0,1-.18.81,4.64,4.64,0,0,1-2,.52,1.94,1.94,0,0,1-.76-1.37Zm0-2.75a6,6,0,0,0-1.27-.15c-1.41,0-2.21.63-2.21,1.59a1.46,1.46,0,0,0,1.65,1.44,2.27,2.27,0,0,0,1.83-.89Z"/><path class="cls-1" d="M131.32,367a2,2,0,0,1,.32-1,5.48,5.48,0,0,1,1.63-.25,3.8,3.8,0,0,1,.92.11v11.94a8.19,8.19,0,0,1,1.47.25,3,3,0,0,1,.05.56,1.51,1.51,0,0,1,0,.3h-4.48a2.31,2.31,0,0,1,.25-.81,7.2,7.2,0,0,1,1.16-.34V367Z"/><path class="cls-1" d="M146.69,367h-1.31a2.12,2.12,0,0,1,.33-1,5.48,5.48,0,0,1,1.63-.25,3.8,3.8,0,0,1,.92.11v10.68a5.15,5.15,0,0,0,.14,1.27h1.36a1.1,1.1,0,0,1,0,.24,2.05,2.05,0,0,1-.15.72,9.87,9.87,0,0,1-2.44.36,3.24,3.24,0,0,1-.36-1.3h-.09a2.92,2.92,0,0,1-2.71,1.39c-1.57,0-3.36-1.08-3.36-4.34,0-2.9,1.79-4.83,4.37-4.83a3.16,3.16,0,0,1,1.65.44Zm0,4.43a4.62,4.62,0,0,0-1.5-.25c-2,0-2.89,1.4-2.89,3.49s1,3.37,2.33,3.37A2.36,2.36,0,0,0,146.7,377Z"/><path class="cls-1" d="M150.88,371.41a2,2,0,0,1,.33-1,5.09,5.09,0,0,1,1.62-.26,4.06,4.06,0,0,1,.95.11v7.53a7.63,7.63,0,0,1,1.42.25,2.29,2.29,0,0,1,.06.56,1.91,1.91,0,0,1,0,.3h-4.45a2.82,2.82,0,0,1,.25-.81,7.2,7.2,0,0,1,1.16-.34v-6.39Zm1.88-2.16a2.45,2.45,0,0,1-.92-.78l2-2.8a3.67,3.67,0,0,1,1.59.63Z"/><path class="cls-1" d="M161.57,377.89a2.79,2.79,0,0,1-2.53,1.37,2.36,2.36,0,0,1-2.57-2.41c0-1.86,1.57-2.81,3.36-2.81a4.75,4.75,0,0,1,1.69.3v-1c0-1.33-.58-2-1.72-2a5.65,5.65,0,0,0-2.64.89,1.43,1.43,0,0,1-.09-.61,2,2,0,0,1,.2-.91,7.39,7.39,0,0,1,2.94-.63c2,0,2.84,1,2.84,3.43V377a1.6,1.6,0,0,0,.24.94,5.68,5.68,0,0,0,1.25-.22,1.41,1.41,0,0,1,0,.2,1.89,1.89,0,0,1-.18.81,4.64,4.64,0,0,1-2,.52,1.91,1.91,0,0,1-.76-1.37Zm0-2.75a5.87,5.87,0,0,0-1.26-.15c-1.41,0-2.21.63-2.21,1.59a1.46,1.46,0,0,0,1.65,1.44,2.25,2.25,0,0,0,1.82-.89Z"/><path class="cls-1" d="M168.55,378a1.07,1.07,0,0,1-1.12,1.19,1,1,0,0,1-1.16-1.19,1.09,1.09,0,0,1,1.16-1.1A1,1,0,0,1,168.55,378Z"/><path class="cls-2" d="M197.9,122.82c-2.06-6.76-4.45-13.43-6.09-20.29a265.12,265.12,0,0,1-5.87-37.72C184.75,51.9,183.82,39,182.89,26c-.23-3.25,0-6.53,0-10h-2.63c-3.85,0-7.7,0-11.56,0-1.11,0-1.46-.35-1.79-1.44a39,39,0,0,0-3-7.86C162,3.48,159,1.51,155,2.05c-4.24.58-6.57,3.59-8.39,7.38l6.27,2.73c.68-.91,1.22-1.77,1.89-2.52a1.5,1.5,0,0,1,2.49,0A10.79,10.79,0,0,1,159.9,16c-.69,0-1.19.09-1.69.09-6.23,0-12.46,0-18.69,0-1.34,0-1.7-.45-1.9-1.69A18,18,0,0,0,134,5.75c-2.22-2.72-5-4.33-8.6-3.63-4.05.79-6.28,3.66-8,7.34l6.25,2.69c.71-1,1.27-1.81,1.94-2.56a1.41,1.41,0,0,1,2.24-.13,10.55,10.55,0,0,1,2.84,6.45,4.87,4.87,0,0,1-.75.15c-6.69,0-13.37,0-20.06,0-1.07,0-1.29-.49-1.44-1.4A17.88,17.88,0,0,0,104,4.94c-2.4-2.51-5.33-3.68-8.78-2.62s-5.55,3.8-7.1,7.14l6.29,2.68c.7-1,1.22-1.77,1.85-2.49a1.51,1.51,0,0,1,2.49,0,10.61,10.61,0,0,1,2.63,6.19c-.26.13-.36.23-.46.23-6.86,0-13.71.05-20.57,0-.38,0-.92-.75-1.12-1.26-1.09-2.7-1.78-5.63-3.21-8.13-1.85-3.25-4.9-5.13-8.81-4.57-4.24.61-6.55,3.61-8.35,7.38l6.28,2.71c.69-.93,1.25-1.78,1.91-2.54a1.42,1.42,0,0,1,2.24-.18c1.82,1.77,2.54,4,2.9,6.66H43.55V143.57H182.66V124.7h16C198.33,124,198.07,123.4,197.9,122.82Z"/><path class="cls-3" d="M38.56,15.3s.23-.17.25-.14l.86.41.14-.08s-1.7,2.45-1.36,3,7.18-4.15,7.18-4.15-8.69,4.73-8.47,5.11c0,.05,6.72-3.88,6.72-3.88S38,19.77,38.59,20.89c.28.47,10-5.78,10-5.78,1.51,2.62-9.45,7.57-9.44,7.58.5.88,12.2-10.86,13.86-8,0,0-18.11,5.64-15.49,10.17C38.2,26,50.28,11.5,52.88,16c.9,1.56-16,6-14.08,9.22S55.89,14.11,56.43,15c2.81,4.87-18.86,11-18.86,11S54.43,12.64,56,15.37L39.25,26.12l5.21-3-5.22,4.95c.33.56,7-4.12,7.06-4.08s-8.53,5-8,5.88,6.19-4.24,6.48-3.74c.75,1.31-5.63,4.78-5.63,4.78s6.13-5.56,7-4l-9,6.7c.34.59,8.48-4.9,8.48-4.9,1,1.71-7.22,4-6.41,5.39l6.09-3.51c.48.83-8.2,2.54-7,4.55L46,30.63c.28.49-7.19,2.49-6.19,4.21,0,0,5.34-4.82,6.09-3.52.56,1-7.93,5-7.93,5s8.3-6.11,8.87-5.12L37.7,37.54l8.89-5.14s-7.22,3.2-6.78,4c0,0,6.37-3.92,6.47-3.74.25.43-8.17,5.13-7.57,6.16.78,1.35,6-4.16,6.32-3.64,0,0-7.23,2.67-6.14,4.55.64,1.11,5.91-3.41,5.91-3.41l-6.66,4.89s8.56-6.7,9.32-5.39c0,0-9.51,4.77-8.61,6.33s8.38-5.63,8.72-5c1.45,2.51-9,4.92-7.86,6.85.14.24,7.22-4.16,7.22-4.16,1.3,2.25-9.18,4.48-8.07,6.4s7-5,7.41-4.27C47,43.18,36.9,47.43,37,47.63l8.15-4.71c.74,1.28-6.27,4.27-6.27,4.27.85,1.47,8.71-5,8.71-5,.13.22-10.07,7.36-10.07,7.36s8.9-7.2,9.79-5.65l-8.76,6.55c1.35,2.33,9.68-5.59,9.68-5.59C49.64,47.24,39.82,50,39.82,50l6.82-3.94s-7.93,4.45-6.87,6.28c.72,1.25,7.28-4.2,7.28-4.2,1.27,2.2-7.87,5.47-7.87,5.47.82,1.44,6.79-5,7.25-4.18.16.27-9.29,7.37-9.29,7.37s8.72-6.06,9.17-5.29c.22.39-10.64,4-9.27,6.42,0,0,10.55-9.46,12-6.93,0,0-12.07,7-11.33,8.32.3.52,8.61-5,8.61-5,.59,1-6.94,2.23-6.16,3.59.32.54,7.49-4.33,7.49-4.33,1.23,2.13-10.78,4.7-9.72,6.53,1.5,2.59,9-6.64,9.59-5.54.84,1.45-10.23,5.69-9.5,7,0,0,8.75-8.34,10.17-5.87s-11.94,7-11.14,8.42,10-6.41,10.29-5.94c1,1.79-10.63,6.59-10.11,7.49.1.17,11.26-6.5,11.26-6.5,1.24,2.15-13.12,3.94-11.23,7.21,1.47,2.55,12.42-7.17,12.42-7.17,1.66,2.88-9.93,6.37-9.93,6.37,1.24,2.15,8.44-5.1,8.54-4.93,1.15,2-8.82,6.09-8.82,6.09.09.16,8.84-6,9.24-5.34.27.47-10.84,4.36-9.63,6.46,0,0,8.66-6.13,9.14-5.28,1.85,3.19-10.82,7.27-10.58,7.69l10.45-6c1.38,2.4-11.24,5.63-10.37,7.14L49,64.9c.81,1.4-10.37,4.53-9.53,6,0,0,8.39-6.06,8.92-5.15,0,0-10.58,4.13-9.17,6.58,0,0,8.81-6.42,9.39-5.42,1.76,3-12,6.66-11.46,7.66.28.48,11.42-7.81,11.95-6.89l-10.39,7c.29.51,10.2-7.31,10.82-6.25.13.23-10.59,5.48-10.08,6.36,0,0,8.52-7.48,9.63-5.56,1.4,2.43-10,6.09-9.83,6.33,0,0,10.08-6.49,10.37-6,1,1.69-10.53,6.48-10.4,6.7,0,0,8.75-8.15,10.09-5.83,0,0-11.57,4.48-9.9,7.38.6,1,9.25-5.34,9.25-5.34s-12.18,5.09-11.1,7c1,1.66,11.35-7.56,11.79-6.8,1.51,2.62-9.79,7-9.79,7S50.15,73,50.36,73.33c2,3.5-12,8.43-12,8.43l12-6.93c1.74,3-12,5.87-11,7.6.4.69,10.19-8.5,11.32-6.54,0,0-13.36,5.23-11.62,8.25L49.65,78c.31.54-12.09,8-12.09,8l13.67-7.89c.57,1-12.82,9-12.82,9l12.18-7C52,82.47,38.68,88.8,38.68,88.8c.73,1.25,13.68-7.9,13.68-7.9S36.36,88.3,37.94,91c2,3.37,14.43-8.33,14.43-8.33s-13.93,6.6-12.81,8.54L51.9,84.13c.68,1.18-13.27,7.6-12.74,8.51,0,0,12-7.88,12.4-7.17,0,0-13.34,7.82-13.12,8.21L53,85.3c.7,1.2-13.83,7.24-13.4,8,.73,1.25,11.17-10,12.69-7.32,0,0-15.66,8.45-14.72,10.07.65,1.13,13.26-9.61,14.11-8.15,0,0-13.1,6.36-12.06,8.16l13.75-7.94S37.51,94.52,38.9,96.92L45.7,93s-8.4,4.1-7.58,5.53c.3.5,5.67-3.28,5.67-3.28s-4.71,3.64-4.52,4,7.57-4.37,7.57-4.37l-9.36,7.58s6.71-5.53,7.43-4.29c0,0-8.48,2.92-7.56,4.5,0,0,5.44-5.36,6.4-3.7,0,0-4.47,1.94-4.18,2.44,1,1.78,7-4,7-4,.22.38-9.37,7.29-9.36,7.31,1,1.75,7.07-4.87,7.41-4.27.07.11-7.13,2.83-6.12,4.59l8.08-4.66c.1.18-7.29,2.73-6.44,4.21,0,0,3.78-2.49,3.91-2.26,0,0-7.2,3.36-6.77,4.11.26.44,9.62-5.56,9.62-5.56,1.11,1.92-10.21,3.71-8.84,6.08.27.47,6.81-4.76,7.17-4.14,0,0-7,3.44-6.46,4.43l7.42-4.29-7,4.07c.63,1.09,6.7-3.86,6.7-3.86s-6.66,1.71-5.72,3.35,4.84-2.8,4.84-2.8c.39.68-5.38,4-5.38,4,.86,1.5,6.19-3.58,6.19-3.58.48.83-7.82,3.76-7.07,5.07.89,1.54,7.49-4.33,7.49-4.33.36.63-8.19,4.94-8.19,4.94.91,1.59,6.81-5.21,7.36-4.25,0,0-6.75,3.86-6.41,4.45.62,1.08,5.39-3.11,5.39-3.11s-6.42,2.64-5.9,3.54c0,0,7.39-5.64,8-4.61.11.19-8.23,2.35-7,4.39,0,0,5.42-4.32,5.93-3.43l-5.94,4.33c.58,1,5-5,5.92-3.42.43.75-7.51,4.51-6.63,6,1.06,1.84,7.81-4.86,8-4.59l-9.44,6.21c.36.62,9.69-5.6,9.69-5.6.73,1.27-9.48,7.72-9.48,7.72.5.88,8.29-6.46,9-5.21,0,0-8.78,6.16-8.54,6.58,1,1.71,5.87-5.2,6.65-3.85,0,0-6.18,3.71-5.27,5.29L46,116.33c.55,1-6,4.83-6,4.83s6.21-4.2,6.47-3.74c.08.13-7.27,2.35-6.46,3.75,0,0,3.89-4.6,4.91-2.84.11.2-7.53,3.62-6.87,4.76.8,1.39,4.91-4.91,5.8-3.36.67,1.15-4.5,3.7-4.34,4,0,0,4.52-4.55,5.36-3.09.55.95-7.8,5.24-7.8,5.24.92,1.6,9.28-5.36,9.28-5.36,1.12,1.94-9,6.36-9,6.36l7.16-4.13c.32.56-4.74,3.85-4.74,3.85s4.52-3.89,5.08-2.93c0,0-8.12,3.29-7,5.25,0,0,8.25-5.82,8.71-5L39,128.54s4-4.67,5-2.89c.4.69-7.11,2-6.11,3.75.31.53,5.82-5.28,6.65-3.84.32.56-5.24,3.17-5.24,3.17s5.75-5.72,6.79-3.92c.31.55-8.4,6.27-8.4,6.27s8.63-6.31,9.21-5.31c1.25,2.16-8.4,5.67-8.4,5.67L45,127.68s-7.26,3-6.45,4.43L44,129l-4.63,4.29s6.54-4.4,6.81-3.93c0,0-8.61,5.33-7.83,6.68,1,1.67,5.45-3.25,5.49-3.17.81,1.4-6.74,6.14-6.74,6.14s6.56-5.88,7.47-4.31-6.17,3.76-5.54,4.85c.85,1.47,5.45-3.14,5.45-3.14s-4.36,3-4.25,3.16c1.34,2.32,5.13-5.45,6.21-3.58.46.79-9,5.73-8.47,6.7,1.67,2.9,12.58-7.69,12.76-7.37.5.87-10.18,7.59-10.18,7.59s12.4-10.5,13.85-8c1.07,1.86-10.24,6.74-10.09,7,0,0,9.53-8.24,10.72-6.19,1.33,2.31-10.43,4.21-9.41,6,2,3.45,12-6.94,12-6.94s-14.42,4.94-12.87,7.63c1.41,2.43,10.37-6,10.37-6l-10.43,7.08c1,1.81,11.85-10.33,13.36-7.71,1.29,2.24-7.44,5.9-7.44,5.9s10.51-8.83,11.7-6.76c0,0-13.74,4.13-11.81,7.47,1.54,2.66,10.57-9.31,12-6.9,1.82,3.15-10,7.7-10,7.7.78,1.33,14.52-8.38,14.52-8.38S53.79,141.55,54.61,143l14.48-8.36c1.25,2.18-11.39,6-10.28,8l12.68-7.32c.54.93-10.51,7.52-10.51,7.52,1,1.76,12.1-7,12.1-7,.47.82-10.71,6.1-10.43,6.58,0,0,12-7.27,12.17-7,0,0-10.67,4.71-9.19,7.26.21.36,10.58-9.5,12.05-7,.24.42-11.83,4.87-10.36,7.42.57,1,13.35-7.71,13.35-7.71s-9.55,4.25-8.08,6.79c.1.19,10-10.45,12-6.92,1.4,2.42-10,7.16-10,7.16,1.89,3.27,10.49-6.06,10.49-6.06.75,1.29-8.06,5.75-7.66,6.45,1.09,1.88,9.33-9.84,11.26-6.5.86,1.48-8.42,5.22-8,5.88.51.89,10.06-5.81,10.06-5.81s-11.57,4-9.87,7c0,0,12.88-9.45,13.75-7.94,1.65,2.84-11.47,7.36-11.46,7.37l11.38-6.58c.84,1.44-8.11,4.72-7.27,6.19,1.17,2,12.26-7.08,12.26-7.08.83,1.43-7.2,6.41-7.2,6.41.87,1.5,9.81-5.66,9.81-5.66.92,1.58-9.15,6.47-9.15,6.47s9.62-8.17,10.75-6.21c0,0-11.55,5.74-10.83,7,1.65,2.87,10.89-10.8,12.85-7.42,1.12,1.94-8.68,7.12-8.64,7.18s11.85-10.35,13.37-7.72c.09.16-11.16,5.6-10.28,7.12,0,0,9.24-8,10.41-6,1,1.8-9,6.64-9,6.64,1.61,2.8,12.39-10.19,13.71-7.91,0,0-12.55,6.39-12.13,7.12,1.86,3.21,13-7.71,13.1-7.56.72,1.25-13.78,6.77-12.84,8.4.24.42,12.51-7.22,12.51-7.22.39.69-13.68,4.72-12.16,7.34,1.37,2.37,12.93-7.46,12.93-7.46,1.15,2-9.46,7.21-9.46,7.21s11.22-10.31,12.88-7.44c0,0-9.2,6.24-9,6.65,1.48,2.55,11.26-8.53,12.14-7,0,0-12.5,5.1-11,7.7,0,0,10.12-9.62,11.75-6.79,1.26,2.19-9.46,4.73-8.94,5.63l11.91-6.87-10.38,7.5s11-10.28,12.73-7.35c.88,1.52-13,6.61-12.63,7.32.51.88,11.84-6.84,11.84-6.84L121,141.92c0,.07,10.83-6.68,11-6.36,0,0-11.26,5.13-10.4,6.61,0,0,9.75-6.73,10.23-5.91.18.32-11.11,6.19-10.9,6.57,1.52,2.61,11.84-9,12.79-7.38s-9.25,4.82-8.3,6.45l12.2-7c1,1.74-14.13,5.55-12.4,8.53.1.18,14.78-8.53,14.78-8.53s-13.32,5.62-11.78,8.28L142,135.2s-14.52,5.89-13.29,8c1.33,2.3,13.71-8.1,13.79-8,1.08,1.88-11.4,7-11,7.59,0,0,10.74-7.53,11.31-6.53.25.43-7.39,5.44-7.39,5.44s11.65-8.59,12.45-7.19c.09.15-12.44,7.23-12.44,7.23l11.45-6.61s-12.57,6.08-11.44,8c0,0,13-11.37,14.69-8.48,1.23,2.14-8.46,6.7-8.27,7,1.6,2.76,8.9-7.31,9.84-5.68l-6.91,6.07c.34.59,9.59-7.09,10.26-5.92.55.94-7.38,5.61-7.22,5.9.41.7,9-7.63,10-5.79,0,0-12.26,4.4-10.75,7,.15.25,12.75-8.57,13.28-7.66l-11.15,7.56s13.19-11.32,14.8-8.55c1.71,3-11.35,7.6-11.35,7.6,1,1.71,11.47-7.26,11.75-6.78s-10.44,6.06-10.18,6.5c1.49,2.58,11.8-6.82,11.8-6.82s-9.15,4.76-7.94,6.85l10.65-6.15s-7,5.44-6.74,5.88c0,0,14.73-12.7,16.55-9.55,0,0-18.66,8.47-17.5,10.48,0,0,14.11-13.11,16.26-9.38l-14.38,9.11c2.45,4.23,13.72-7.92,13.72-7.92.3.52-12.72,8.58-12.72,8.58,1.63,2.82,14-8,14-8,1,1.64-8.85,7.34-8.85,7.34,1.39,2.41,8.09-5.08,8.27-4.77l-8.12,4.84c1.43,2.48,8.26-4.77,8.26-4.77s-9.06,3.63-7.88,5.68c.67,1.15,9.12-5.26,9.12-5.26s-6.93,3.08-6.39,4c0,0,5.58-3.23,5.58-3.23.09.16-4.67,2.86-4.33,3.44l5.27-3.05c.32.54-2,2.92-2,2.92l1-.57c.07.11-.86.8-.83.84s.8-.47.8-.46-2,1-1.82,1.37l3.24-1.87"/><path class="cls-3" d="M179.41,122.81c.13.22,10.83-9.85,12.39-7.15,0,0-14.41,8-14.07,8.54.58,1,12.89-8.26,13.24-7.65,1.78,3.09-9.86,7.81-9.86,7.81,1,1.76,10.16-8.09,11.12-6.42,0,0-8.66,4.16-7.41,6.34,0,0,6.18-4.08,6.4-3.7,0,0-4.3,1.92-3.78,2.81,0,0,3.81-2.27,3.84-2.22.32.55-2.17,2.12-2.13,2.18.12.22,3.67-2.74,3.93-2.27l-4,3.18,3.32-1.92c.19.33-1.26,1.28-1.26,1.28l2.32-1.34c.14.24-.9,1.82-.9,1.82L194.4,123"/><path class="cls-3" d="M45.46,92.83c.34.6,4.8-5.3,5.89-3.4.6,1-5.48,4.47-5.08,5.17.88,1.53,5.35-5.52,6.41-3.7.85,1.47-5.47,5.1-5.47,5.1,1,1.73,5.2-3.14,5.26-3,.82,1.42-6.65,5.45-6.65,5.45.55,1,4.87-5.19,5.9-3.4,0,0-4.68,2.4-4,3.62,0,0,5.9-4.27,6.28-3.62.71,1.24-6.5,5.37-6.3,5.71s5.84-3.53,5.91-3.41c.61,1.06-7.34,4.72-7.34,4.72s7.21-5.56,7.82-4.51c0,0-7.2,3.41-6.86,4,.75,1.31,7-4.05,7-4.05S47.08,103,47.09,103s5.84-3.43,5.86-3.39S49.1,103,49.1,103l5.11-3s-5.79,4.83-5.5,5.33c.53.91,6-5.68,6.95-4,1.38,2.39-8.24,6.21-8.24,6.21.73,1.27,7.22-4.77,7.48-4.32s-6.36,4.29-5.76,5.33c1,1.73,7-4.69,7.25-4.19s-5.57,3.86-5.57,3.86S54,105,54.58,106.07c0,0-6.86,3.85-6.07,5.23,0,0,8-6.18,8.69-5,.21.36-8,5.3-8,5.3l6.33-3.65c.61,1-4.29,2.78-4,3.25,0,0,3-2.78,3.45-2l-5,4.08c.85,1.47,7.13-4.12,7.13-4.12s-6.11,4.57-5.62,5.41,3.78-2.92,4.1-2.36c.12.22-3.75,2.23-3.75,2.23l6.25-3.61-5.45,3.78L58.8,111c.16.28-9.46,4.19-8.26,6.26.68,1.19,7.83-4.53,7.83-4.53l-7,5.5,7.24-4.18s-7.53,2.85-6.73,4.23c0,0,5-5,5.93-3.42.63,1.08-4.27,3.89-3.93,4.48l6-3.49-8,5.42,6.7-3.86s-4.3,3.15-3.92,3.8l9-5.17c.57,1-12,4.51-10.46,7.22.31.53,9.34-8.59,10.73-6.19L53.9,123.59c1.81,3.13,11.75-6.78,11.75-6.78.63,1.09-10.59,6.75-10.59,6.75s8.34-9.16,10.22-5.9c1.24,2.16-10.5,6.26-10.5,6.26S68.5,116,68.51,116s-11.14,6.39-10.46,7.57c1.09,1.89,10.51-7.74,11.23-6.48l-8,6.11c.66,1.13,9.26-8.44,10.6-6.12s-8.43,6.69-8.43,6.69l11.2-6.47-10.38,6.16L77.13,116l-13.92,8.65c.41.72,10.54-9.84,12.16-7,1.24,2.15-6.23,5.89-6.23,5.89.52.9,11.94-6.89,11.94-6.89,1.5,2.59-10.46,6.37-10.46,6.37s10.23-9.09,11.61-6.71c1.47,2.54-10.88,7.07-10.88,7.07.67,1.16,12.27-8.29,12.79-7.38L71.7,124.49c1.72,3,14-8.08,14-8.08S74.25,120.1,75.91,123c.5.85,9.9-5.71,9.9-5.71s-9.62,5.57-9.4,6c.93,1.61,11.45-8.65,12.33-7.13,1.79,3.1-11.74,7.63-11.42,8.18l12.35-7.12s-11.32,3.71-10,6c0,0,10.61-9.88,12.24-7.07,1.19,2.06-13.14,5.18-11.31,8.35l13.7-7.91c.51.88-11.41,6.85-11.41,6.85,1.14,2,12.52-7.22,12.52-7.22,1.11,1.92-9.53,6-8.9,7.11,1.12,1.94,11-6.36,11-6.34,1.31,2.28-8.65,6.72-8.65,6.72s11.55-10.15,13.06-7.54c1,1.69-12.34,4.1-10.54,7.23.14.24,12.43-7.48,12.56-7.25.5.87-8.6,7.16-8.6,7.16.59,1,11.37-6.57,11.37-6.57l-10.09,6.8c1.59,2.76,10.26-5.92,10.26-5.92.85,1.47-9,6.65-9,6.65s12.87-7.57,12.93-7.47c.31.54-11.57,7.45-11.57,7.45l12-6.91-10.2,6c2,3.41,10.37-6,10.37-6s-9.31,5.11-8.45,6.6l11.83-6.83s-10.08,6.41-9.56,7.3c0,.1,13.25-7.65,13.25-7.65l-8.57,6.78c.67,1.16,12.47-8.38,13-7.5,1.9,3.3-16,5.62-14.3,8.51,1.58,2.74,13.89-8,13.89-8,.23.4-9.7,4.57-8.51,6.64,1,1.77,11-6.33,11-6.33,1.12,1.94-10.31,7.59-10.18,7.82.65,1.11,13.47-11.87,15.24-8.8,1.57,2.72-14.24,8.24-14.24,8.24l13.17-7.6s-10.39,7.18-10,7.77c1.29,2.23,13.43-7.76,13.43-7.76,1.88,3.27-11.95,7.67-11.63,8.22,0,0,12-8.16,12.54-7.24l-11.66,7c1.16,2,13.51-7.81,13.51-7.81.39.68-11.34,7.21-11.34,7.21s9.64-9.17,11.2-6.46l-8.31,6.29c.3.51,13.07-8.47,13.47-7.78,0,0-13.7,5.86-12.57,7.82.73,1.26,10.13-8.46,11.26-6.5l-11.48,7c.48.84,13.29-7.67,13.29-7.67s-11.78,4.94-10.35,7.42c.83,1.45,9.63-9.82,11.47-6.63,0,0-13.21,3.93-11.47,6.94,0,0,13.25-10.31,14.4-8.32l-10.17,8.16c.12.2,12.57-10,13.77-7.94,1.62,2.8-11.27,7.56-11.27,7.56s12-10.07,13.35-7.7-12.71,7.56-12.71,7.56c1.08,1.88,11.52-11.18,13.48-7.78,0,0-12.85,7.57-12.83,7.6l10.58-6.11c.5.88-11.86,4.26-10.24,7.07,0,0,11.34-9.59,12.66-7.3,0,0-7.25,4.44-6.43,5.86,1.22,2.11,11.42-6.6,11.42-6.6,1.4,2.43-8.88,6.54-8.88,6.54l11.35-6.56-13.34,8c.28.48,13.82-8,13.82-8,1.3,2.25-10.86,7.6-10.86,7.6.73,1.27,12.42-7.17,12.42-7.17l-9.55,6.88,12.19-7s-9.91,6.72-9.56,7.32l13.2-7.62-11.19,6.87s10-10,11.78-6.8c.76,1.31-10,6.47-9.85,6.78,1.64,2.84,10.35-6.74,10.69-6.17l-9.32,7.49c1,1.76,12.1-7,12.1-7s-7.53,5.52-7.53,5.52c1.72,3,9.49-9.07,11.05-6.37.44.77-12.5,5.88-11.7,7.26L177,116c.84,1.46-12.88,6.16-11.75,8.13,0,0,12-8.86,12.86-7.43,1.79,3.1-12.73,5.45-11.38,7.79,0,0,13.85-8.89,14.24-8.22,0,0-14.79,7.53-14.32,8.34,0,0,14.8-9.36,15.15-8.75l-13.07,8.59c1.3,2.24,11.87-7.54,12.17-7,0,0-10.46,5.46-10.11,6.06l12-6.91c0,.06-11.26,8.12-11.26,8.12s18.54-13.76,19.87-11.47c1.44,2.51-20.71,14-20.71,14l18.77-10.83c.86,1.49-22.3,6.68-19.25,12,1.14,2,6.68-3.86,6.68-3.86.81,1.42-4.84,4.92-4.84,4.92.16.29,6.5-3.75,6.5-3.75,1,1.71-9.42,5.93-9.42,5.93s7.3-6.48,8.28-4.78c.16.27-6.57,3.67-5.73,5.12,0,0,5.46-5.24,6.36-3.67,0,0-6.92,3.59-6.14,4.95,0,0,5.49-5.85,6.65-3.84,0,0-7,4.49-6.79,4.8.83,1.44,6.17-5.88,7.18-4.15,0,0-7,3.84-6.66,4.39.66,1.13,3.93-2.63,4.09-2.36"/><path class="cls-3" d="M164.5,21c1.11,1.92,11.06-6.39,11.06-6.39s-8.85,4.74-7.93,6.33l10.78-6.23c1,1.77-9.54,6.89-9.36,7.19l7.63-4.41c.24.41-6.63,3.64-6.05,4.65l5.59-3.23-3.68,4.17s4-4,4.76-2.75c.44.77-5.89,3.74-5.65,4.15.14.23,5.71-3.29,5.71-3.29s-7.31,4-7.16,4.26c.74,1.29,8.87-5.13,8.87-5.13s-9.4,3.93-8,6.4l7.39-4.26s-7.5,4.94-7.37,5.16,6.18-5.24,6.91-4c.27.48-5.12,3-5.12,3s3.81-2.29,3.85-2.22c1.11,1.92-6.65,6.1-6.65,6.1s8.49-6,9-5.19c0,0-9,3.88-7.72,6l7.06-4.08c1.22,2.1-8.21,3.37-7.15,5.21,1,1.66,5.61-5.63,6.65-3.84l-4.85,4.17s2.92-4,3.92-2.26c0,0-6.53,3.73-5.76,5.07.48.82,5.77-4.38,6.23-3.6,0,.06-6.41,5.64-6.41,5.64.34.58,6.13-4.73,6.65-3.84l-4.12,4.63c.16.27,4.74-2.73,4.74-2.73.09.15-6.57,4.19-6.57,4.19.77,1.33,7.31-4.22,7.31-4.22.93,1.61-8.15,3.13-7.29,4.61,0,0,5.38-4.43,6-3.44l-6.51,3.83s6.66-5.16,7.23-4.18c0,0-6.21,3.46-5.63,4.47l7.25-4.19c.51.87-7,2.84-6.22,4.16s5.23-3,5.23-3l-5.56,4.9s3.61-3.56,4.25-2.45c.16.28-3.9,3.25-3.9,3.25,1,1.77,3.83-3.11,4.22-2.43l-4,3.3c.1.16,4-3.56,4.56-2.63s-8,4.35-7.19,5.68c.33.56,8.93-5.88,9.25-5.34.07.13-8.83,3.87-7.88,5.51l6-3.43c.11.19-5.08,3.23-5.08,3.23L178.12,45l-6.48,5.11c.49.86,7.54-4.35,7.54-4.35.7,1.22-6.13,3.66-5.59,4.59.06.1,3.83-4.14,4.67-2.7,0,0-6.32,4-5.93,4.7,0,0,5.44-5.43,6.44-3.71,1.19,2.07-6.64,6.13-6.64,6.13s7.74-6.52,8.63-5c.32.56-7.48,4.56-7.31,4.85l6.15-3.55s-5.58,3.31-4.88,4.53c.94,1.62,6.15-3.55,6.15-3.55.86,1.5-7.27,4-6.8,4.8l5.64-3.26c.55,1-6.71,2.31-6,3.5,0,0,4.34-3.57,4.8-2.77,0,0-6.5,4.08-6.16,4.67,0,0,6.35-4.25,6.6-3.81.94,1.62-6,3.68-5.6,4.43s8.25-4.76,8.25-4.76c1.28,2.22-7.53,6-7.53,6,.54.92,5.75-5.33,6.62-3.82S175,61.2,175,61.2c.09.16,5.25-3.11,5.28-3.05.44.76-4.83,3.66-4.47,4.29l5-2.91c.48.84-6.24,2.61-5.63,3.67.24.41,6.57-3.79,6.57-3.79.85,1.48-5.71,4.2-5.71,4.2.6,1,3.47-2.7,3.77-2.18S176,64.76,176,64.76c1,1.74,3.28-1.9,3.28-1.9.57,1-3.69,2.76-3,4,.82,1.41,3.15-3.58,3.91-2.26s-5.18,4.47-5,4.8c0,0,5.38-5.19,6.29-3.62.8,1.39-8.05,3.73-7.62,4.48,0,0,8.41-4.86,8.41-4.86,1.51,2.62-8.52,6.11-8.52,6.11.79,1.37,5.39-5.31,6.34-3.66.81,1.4-5.41,4-5.29,4.15,0,0,4.55-4.59,5.4-3.12s-5.66,3.71-5.66,3.71c.36.62,7.14-4.12,7.14-4.12.28.47-5.57,3.45-5.25,4,0,0,5.94-3.74,6.07-3.5,1.13,2-9.29,4.55-8.12,6.58,0,.08,6.86-5.45,7.51-4.34.74,1.3-5.69,4.12-5.69,4.12.48.84,3.93-2.79,4.15-2.4,0,0-3.66,3.24-3.19,4l3.45-2c.11.17-5.36,3-5,3.51L181.7,75c.31.53-5,2.66-4.87,2.89.68,1.18,5.47-3.16,5.47-3.16.31.52-5.49,5.26-5.49,5.26.56,1,3.68-2.85,4-2.31.62,1.07-4.17,4.33-4.17,4.33.61,1.06,6.06-4.34,6.43-3.71l-4.64,4.67c.62,1.08,4-2.31,4-2.31l-5.83,5.5c.46.79,7.66-4.43,7.66-4.43L179,86.5s4.1-3.74,4.69-2.71c1,1.75-7.23,5.44-6.83,6.13,0,0,5.12-4.9,6-3.44a42.31,42.31,0,0,1-4.1,2.54c.47.82,5.58-3.22,5.58-3.22l-6,5.3c.37.64,6.76-3.9,6.76-3.9.32.56-5.75,4.89-5.75,4.89l4.37-2.52-3.41,3.63c.48.84,4.41-3,4.6-2.66.48.83-5.85,3.9-5.85,3.9.79,1.37,6.37-4.26,6.62-3.82.44.77-5.53,3.65-5,4.5.17.31,2.65-1.53,2.65-1.53S181,96.24,181,96.3s2.31-1.87,2.54-1.47l-4,4.49s5.38-3.74,5.66-3.26c.78,1.35-5.56,2.24-4.76,3.63.19.32,6.37-3.68,6.37-3.68.78,1.35-7.49,2.81-6.4,4.71.12.2,6.33-3.65,6.33-3.65.3.51-8,6-7.77,6.46,0,0,8.13-6.2,8.78-5.07.32.54-5.76,3.68-5.76,3.68l2.9-1.67c.56,1-3.47,3.54-3.41,3.64.93,1.62,4.41-3.74,4.93-2.84l-5,4.94c.42.73,5.82-3.68,6-3.44.37.63-6.88,3-6,4.59.54.93,5-4.34,5.66-3.27,0,0-5.75,3.58-4.88,5.08.22.39,3.95-3.14,4.32-2.5,1,1.66-5.93,3.28-5.61,3.84,0,0,5.15-4.69,5.9-3.4.89,1.54-5.87,2.47-5.13,3.76.41.71,6.65-5.72,7.46-4.31s-7.51,4.27-6.52,6c.7,1.22,4.58-4.78,5.51-3.18s-5.39,4.07-5.19,4.42l4.9-2.83c.92,1.6-4.71,4.35-4.71,4.35.93,1.6,4.73-4,5.29-3.06.13.23-4.49,2.88-4.26,3.28,0,0,6-5.24,6.79-3.92l-7.25,5.21,6.15-3.56"/><path class="cls-3" d="M145.29,3.28c.37.65,2.26-1.31,2.26-1.31S142,4.62,142.81,6c.05.09,8.47-7.15,9.45-5.46C153.1,2,139.55,7,140.61,8.85c0,0,12.67-10.82,14.19-8.19L142,8.75c2,3.54,12.44-10.18,13.74-7.93L141.14,9.68S154.23-2.53,156.24,1c.62,1.07-12,7.45-11.33,8.57.18.31,10.69-6.18,10.69-6.18s-10.87,6.45-10,7.87c.1.19,2.89-1.85,3-1.71l-1.25,1.83c0,.07,1.62-1.05,1.67-1"/><path class="cls-3" d="M152.19,7.2s6.42-3.81,6.47-3.73c.68,1.19-6.16,4.32-6.16,4.32.6,1,6.91-4,6.91-4,.24.4-6.87,3.1-5.86,4.84,0,0,5.41-3.64,5.64-3.25,0,0-6.39,3.52-6.22,3.82.34.58,7-4,7-4l-7.6,5.54,7.18-4.14c.16.27-6,3.38-5.59,4.06.06.1,3.55-4.07,4.43-2.56.31.54-6,3.36-5.23,4.72,0,0,6.15-5.53,7-4,.4.69-6.86,3.44-6.32,4.38,0,0,6.85-5.63,7.58-4.37.81,1.41-6.81,5.32-6.45,5.95s5.44-3.57,5.62-3.25c1.05,1.81-7.89,2.36-6.91,4.07,0,0,6.86-5.26,7.42-4.28,0,0-5.59,1.75-4.93,2.9l6.41-3.7"/><path class="cls-3" d="M133.71,22.05s10.79-7.74,11.44-6.61l-11.81,7.09s10.45-8.25,11.41-6.59c0,.06-8.16,6-8.16,6,.44.75,11.43-6.6,11.43-6.6,1,1.7-8.35,4.06-7.11,6.2,0,0,11.37-8,12-6.92,1.69,2.93-9.84,7.54-9.84,7.54l17.21-9.93c0,.06-14.2,7.63-13.11,9.52.07.12,14.75-11.73,16.15-9.32,2.25,3.9-15.14,10.07-15.14,10.07l14.91-8.6c1.73,3-14.26,8.43-14.26,8.43,1.71,2.95,13.59-10.22,14.61-8.44.44.75-11.2,6.54-10.48,7.78,1.15,2,10.47-9.79,12.1-7l-11.2,7.73s10-9.39,11.59-6.69c1.11,1.92-11.46,5.35-10.79,6.51,1.91,3.3,9-9.35,10.77-6.22l-10.69,8S168,14.75,168.7,16l-12.21,7.68c1.8,3.13,14-8.1,14-8.1.9,1.57-15.57,10.26-15.57,10.26s19-12.21,19.54-11.28c1.57,2.72-24.46,9.65-21.75,14.35L161.27,24s-9.53,3.77-8.31,5.89c1.56,2.7,7.49-4.33,7.49-4.33.12.21-7.44,5.85-7.44,5.85,1.27,2.2,7.55-5,7.82-4.51,0,0-10.88,3.94-9.71,6,.57,1,9.4-6.89,10-5.8l-9.83,7.72,9.28-5.35c.9,1.56-9.45,5.27-9.34,5.46,0,0,6.51-6.89,7.86-4.54.75,1.29-7.73,3.17-6.9,4.62.25.42,7.47-4.7,7.64-4.41,0,0-9.66,4.2-9,5.32,0,0,6.13-5.83,7.12-4.11.43.73-7.45,3.89-7.26,4.22,0,0,7.34-6,8.12-4.69s-8.73,2.91-7.52,5c0,0,6.75-5,7.23-4.18.24.42-5.31,4-5.31,4S155.07,35,155.07,35"/><path class="cls-3" d="M117.49,2.44s2.14-1.85,2.41-1.39c.08.13-6.71,6-6.71,6l9.12-5.27L111.22,9.28c1,1.78,10.37-10.4,12.28-7.09.43.75-8.53,6.56-8.53,6.56,1.63,2.83,11.84-6.83,11.84-6.83,1.71,2.94-12.54,7.49-12.54,7.49,1.75,3,12.85-8,13.09-7.55,0,0-13.21,5.8-12.08,7.75,0,0,12.39-8.23,12.85-7.42L115,10.73c1.27,2.21,10.43-8.08,11.32-6.53,0,0-9.22,7.27-9.22,7.29s3.48-2.11,3.52-2-2.27,1.27-2.09,1.58c0,.06.31-.18.31-.18"/><path class="cls-3" d="M121.22,8.19c0,.05,5.68-5.66,6.71-3.87.53.91-3.7,3.73-3.7,3.73.35.6,4.12-3,4.39-2.53,0,0-4.47,3-4.23,3.41.8,1.38,6.08-4.42,6.48-3.74,0,0-6.1,3.42-5.55,4.39.15.24,5.28-3,5.28-3,.7,1.2-5.76,4.29-5.76,4.29.73,1.26,5.15-4,5.6-3.23,0,0-5.9,3.81-5.25,4.93l6.89-4c.17.3-8,5.2-8,5.2.21.36,7-4,7-4s-7.57,3.86-6.73,5.32,9.09-5.24,9.09-5.24-7.76,3.39-7.07,4.59c1,1.69,5.43-4,5.79-3.34"/><path class="cls-3" d="M105.31,21.28c.56,1,11.92-6.88,11.92-6.88s-12.53,7.17-12,8c1.71,3,12.48-7.21,12.48-7.21s-11.82,4.65-10.53,6.89l12.52-7.23-9.56,6.25s9.08-8.64,10.55-6.09c.82,1.41-8.6,6.09-8.36,6.5,1.1,1.9,8.18-8.18,9.68-5.58,0,0-10.33,4.11-9.22,6l12.3-7.1c1.48,2.57-13.53,6.85-13,7.75,0,0,13.52-8.07,13.63-7.87l-12.22,8,17.28-10c2,3.45-16.16,5.84-14.54,8.63,0,0,14.63-15,17.46-10.08.67,1.17-18.25,10.75-18.25,10.75l15.93-9.2c.89,1.53-16.4,5-14.21,8.81,1.07,1.85,14.26-8.24,14.26-8.24,1.61,2.79-11.58,8.59-11.47,8.78,1.62,2.79,13-7.48,13-7.48s-13.24,4.16-11.65,6.91c.85,1.47,10.57-6.11,10.57-6.11,1.35,2.34-8.89,6.3-8.89,6.3,1.29,2.25,11.64-6.72,11.64-6.72s-10.16,4.88-8.93,7c.9,1.57,9.2-9,10.8-6.23l-9.81,5.89s10.93-9.74,12.42-7.17c1.84,3.19-11.67,7.59-11.67,7.59S137.05,12.1,139,15.49c0,0-14.56,6.56-13.61,8.21L140,15.3c1.55,2.68-15.54,8.17-14.6,9.8,0,0,16.39-9.86,16.56-9.56,0,0-18.39,5.54-16.16,9.41l15.9-9.19s-17.67,5.27-15.5,9c2.61,4.53,13.68-14.63,16.6-9.58,2.64,4.58-19.78,12.24-19.28,13.1,0,0,9.55-7,10.18-5.87,0,0-11.55,5.93-10.94,7,0,0,9.64-8.18,10.77-6.22,0,0-11.7,6.27-11.35,6.87,0,0,10.91-8.7,12-6.9,1.83,3.18-13.41,8-13.2,8.32.11.19,12-9,12.91-7.45,0,0-13.65,7.68-13.1,8.63,0,0,10.32-6.91,10.73-6.19,0,0-9.6,7.42-9.48,7.62l7.91-4.57c1.46,2.54-10.4,4.94-9.1,7.2.49.84,9.91-5.73,9.91-5.73l-4.78,3.75.29-.16c0,.07.29-.22.34-.13a8.44,8.44,0,0,0,1-.61"/><path class="cls-3" d="M86.89,3.19c.18.31,2.19-1.26,2.19-1.26S85.71,3.86,86,4.33c0,0,5.7-3.35,5.73-3.3l-8.3,5.43,9-5.19C93.64,3.43,82.74,6.45,83,7c.91,1.58,10.08-5.83,10.08-5.83.51.88-8,3.79-7.62,4.48.59,1,8.33-4.81,8.33-4.81s-12,5.38-10.55,7.93L95.59,1.62S83.27,8.26,84.42,10.25c0,0,13-11,14.54-8.4C99.63,3,87.26,8.1,87.64,8.76c1.78,3.09,8.83-5.09,8.83-5.09.55,1-8.27,4.43-7.23,6.23l1.29-.75C90.7,9.44,89.3,11,89.3,11l1.48-.85"/><path class="cls-3" d="M93.42,7.36c.9,1.56,7.07-4.07,7.07-4.07.81,1.41-7.19,2.46-6.41,3.82.12.19,4.76-4.85,5.67-3.27s-5.89,3.88-5.89,3.88,3.75-3.51,4.33-2.5c.35.6-5.8,3.34-4.88,4.94,0,0,6.45-4.71,6.88-4,.18.32-4.15,2.43-3.82,3S100.15,7,100.15,7s-6,2.33-5.25,3.69c0,0,5.1-4.66,5.84-3.37,0,0-7.33,3.58-6.26,5.43.65,1.13,6.62-3.83,6.62-3.83.55,1-4.14,3-3.46,4.15,0,0,3.74-2.16,3.74-2.16s-4.21,2-3.63,3c0,0,5.26-4.24,5.78-3.34"/><path class="cls-3" d="M74.57,22.19s11.7-7.9,12.2-7c0,0-10.15,4.24-8.61,6.91,1.23,2.13,13.09-7.55,13.09-7.55C92.73,17.08,78.58,21.65,78.8,22S92,14.42,92,14.42L81.19,22.31l11.88-6.86c.22.37-10.78,5.23-9.71,7.1C83.6,23,104,10.61,104,10.61c2.93,5.08-19.45,6.74-16.73,11.44,0,0,14-10.54,15.06-8.69,1.18,2-13.52,9.25-13.52,9.25.38.68,14-9.9,14.77-8.53l-9.47,7.08c1.88,3.25,7.94-8.19,9.51-5.48,0,0-8.57,3.17-7.34,5.3l8.9-5.14S95.68,19.42,97.15,22c0,0,9.82-8.08,10.86-6.27.22.38-10.2,6.82-10.2,6.82l12.18-7c1.05,1.83-15.54,6-14.21,8.34.64,1.11,15.38-10.7,16.17-9.33l-17,11.87c.51.89,20.7-11.95,20.7-11.95S94.07,27.83,94.11,27.89s8.09-6.21,8.76-5.05c0,.05-9.91,4.76-8.68,6.9,0,0,7.31-4.58,7.47-4.31,1.22,2.12-10.2,4.9-9,6.9.41.71,10-5.8,10-5.8L91.22,33.3c.38.66,10.43-6,10.43-6,1.42,2.45-9.38,5.31-9.2,5.63,0,0,8.64-6.22,9.18-5.29l-8.54,5.62s8.7-7.6,9.82-5.67L94,32.79c1.2,2.07,6.23-3.84,6.34-3.66,0,0-7.67,3.46-6.47,5.53,0,0,5.85-3.45,5.88-3.4s-3.1,3.33-3.1,3.33l.71-.41c.36.64-2.89,1.28-2.66,1.67,0,0,4.11-2.76,4.28-2.47"/><path class="cls-3" d="M47,21.42s11.34-9,12.42-7.17c.33.59-10.15,7.31-10.15,7.31s11.37-9.29,12.55-7.24-15.7,6.37-14.47,8.51C48.06,24.1,61,14.92,61,14.92S49.28,20.49,50.33,22.3c.88,1.52,11.4-7,11.6-6.69,0,0-9.23,4.8-8,6.85,0,0,12.31-8.07,12.73-7.35,1.66,2.88-13.26,3.77-11.32,7.13,0,0,16.71-10.19,16.94-9.78l-16,10.3L74.83,12S59.52,19.7,60.5,21.4c.18.3,11.47-9.71,12.8-7.39,2.39,4.13-14.25,8.8-14.25,8.8L74.38,14l-12.59,7.6s12.16-11,13.86-8L62.47,22.21c1.77,3.07,12.2-7,12.2-7,1.74,3-11.18,6.19-11,6.56l10-5.77c.89,1.53-9.77,6-9.46,6.59.16.27,11.75-9.57,13-7.48,1.83,3.18-10.84,7.94-10.79,8s10.91-10.3,12.64-7.3c.63,1.09-15.56,6.52-13.67,9.81C66.73,27.91,83.1,15.37,83.1,15.37,84.92,18.52,62.89,21,65.79,26c0,0,16.06-15.69,18.84-10.88.7,1.22-21.8,13.28-21.46,13.87,0,0,10.49-8.13,11.39-6.58,0,0-11.48,8.39-11.44,8.46s9.93-5.83,10-5.76c1,1.64-10.34,7.22-10.34,7.22s7.51-8,9.11-5.26c.5.85-9.08,5.32-9.08,5.32s9.71-8.82,11.1-6.41-11.06,4.82-10.35,6l8.83-5.1c.55,1-8.33,5.42-8.33,5.42l7.68-4.43c.86,1.5-9,4.82-8.16,6.25l8.29-4.78c.64,1.11-10.11,4.92-9.44,6.07,0,0,7.66-4.82,7.83-4.52.46.79-7.9,5.06-7.9,5.06.88,1.51,7.36-5.79,8-4.64.16.28-4.68,4.25-4.68,4.25S69,32.9,69.3,33.49c0,0-3.86,1.11-3.37,2,0,0,3.74-2.16,3.74-2.16"/><path class="cls-3" d="M62.44,8.34S68.94,2.4,69.89,4,63,9,63,9l6-3.47c.22.39-3.41,2.81-2.78,3.91s4-3.95,4.72-2.72-5.29,3.81-5.29,3.81,4.09-4.28,4.91-2.84c0,0-5.64,2-4.85,3.4,0,0,4.41-3.72,4.92-2.83.65,1.12-4.5,4.31-4.5,4.31L74,8s-8.59,5.57-8.54,5.65l6-3.47-3.68,2.67s4.11-3,4.4-2.54c.62,1.06-6.45,3.8-6.45,3.8s7.8-6,8.44-4.87c0,0-6.26,4.46-6,5l5.26-3c.51.89-5.75,2.31-5.24,3.2.08.13,4-4.41,4.88-2.81"/><path class="cls-3" d="M58.63,2.65l.29-.16L56.47,4.38C56.83,5,60.68,1.19,61,1.76,61.18,2.07,53.89,8,53.89,8c1.75,3,10-6.52,10.34-6,.69,1.2-10.39,5.52-10.06,6.11,1.82,3.15,10.33-6,10.33-6L55.1,8.93S66.15-1.42,67.87,1.55c1.26,2.19-12.86,8-12.86,8l13.81-8c.77,1.32-15.1,7.09-14.25,8.58C55.8,12.25,66.4.24,67.72,2.53c.62,1.07-11.09,6.41-11.09,6.41.24.43,10.82-6.43,10.9-6.29.3.51-10.66,8-10.66,8,.49.84,11.87-6.86,11.87-6.86.18.32-10.49,3.55-9.23,5.73l9.2-5.32s-10.25,6.58-10,7c0,0,2-1.4,2.12-1.22a19.71,19.71,0,0,1-1.56,1.34l.44-.25S60,11,60.05,11a3,3,0,0,1,.3-.18"/><path class="cls-4" d="M123.8,38.94a9.09,9.09,0,0,0,6.9-3.48,19.12,19.12,0,0,0,4-9.23c.14-.8.27-1.38,1.31-1.37,6.79,0,13.59,0,20.39,0a4.17,4.17,0,0,1,.8.19c-.62,2.58-1.15,5.11-3.49,6.78a1.42,1.42,0,0,0-.5,1c0,2,0,4,0,5.92,5,.59,8.65-3.89,11.32-13.87h8.26c2,32,4.2,63.77,12.83,94.87h-1.72q-60.85,0-121.71,0A2.05,2.05,0,0,1,59.83,118a194.78,194.78,0,0,1-6.64-29.79,570.22,570.22,0,0,1-5.9-61.18c0-.62,0-1.24,0-2h21.5a10.06,10.06,0,0,1-3,6.6A2.68,2.68,0,0,0,65,33.24c-.1,1.85,0,3.71,0,5.66a8.71,8.71,0,0,0,6.65-3.16,18.74,18.74,0,0,0,4.24-9.49c.14-.78.2-1.4,1.26-1.4,6.91,0,13.82,0,20.73.06.1,0,.21.09.49.21-.57,2.51-1.12,5-3.4,6.7a1.37,1.37,0,0,0-.56.92c-.05,2,0,4,0,6.06,5.31.25,9-4.33,11.25-13.82h22.13c-.47,2.64-1.11,5-3.25,6.77-.27.22-.63.56-.64.86C123.78,34.69,123.8,36.78,123.8,38.94Z"/><path class="cls-4" d="M47,138.44V95.76l.16,0c.72,3.47,1.27,7,2.19,10.41,1.68,6.27,3.63,12.48,5.37,18.74.47,1.71,1.38,2.05,3,2q56.27-.06,112.54,0h2v11.55Z"/><path class="cls-3" d="M82.25,59.52l.25-.14c.18.31.08,1.2.16,1.33s.73-1.18,1.06-.61c.15.26-1.82,1.39-1.82,1.39.17.28,2.92-2.91,3.45-2C86,60.6,81,62.72,81,62.72c.45.78,4.69-4.3,5.38-3.1L81.7,64.06l7.64-4.41s-7.7,2.51-6.84,4c.44.77,7.66-4.42,7.66-4.42.52.91-8.22,5.06-7.82,5.75,0,0,9.72-8.4,10.92-6.31,0,0-10.43,6.61-9.94,7.44,1.05,1.82,11.51-6.64,11.51-6.64L81.73,68,98.25,58.5s-17,5.42-14.78,9.29,13.07-8.15,13.33-7.7c.13.24-13.06,8.59-13.06,8.59l17.43-10.06s-16.17,5.13-14,8.95c1.59,2.76,14.64-8.45,14.64-8.45,1.28,2.21-12.51,8.11-12.07,8.88,1.93,3.33,14.58-10.62,15.54-9,2,3.52-16.63,5.9-14.95,8.8,2.18,3.77,16-9.22,16-9.22S89.65,64.76,91.93,68.7c1,1.78,14.91-8.61,14.91-8.61L96,67.31c.91,1.57,11.19-11.91,13.55-7.82.31.54-13.8,7-12.92,8.53,1.63,2.83,13.88-10.06,14.77-8.53,0,.08-12.76,9.13-12.76,9.13S110.16,60.11,111,61.5c1.7,2.93-9.81,7.19-9.81,7.19s8.16-8.42,9.76-5.64c0,0-11,6.08-10.25,7.37.87,1.52,9-8.44,10.41-6,1.06,1.84-14,5.64-12.69,7.93,1.53,2.66,14.07-8.12,14.07-8.12S97,73,97.7,74.2c0,0,13-8.79,13.54-7.82,1.4,2.43-15.67,5-13.89,8.06s13.35-9,13.92-8L98,74.83s13.29-7.67,13.29-7.67-17.56,6.47-15.53,10C97.2,79.66,110.34,66,111.5,68L95.82,78.09l14.77-8.53S93.41,79.1,94.34,80.71L111,71.1,95.43,81.57c.12.21,12-11.62,14-8.11s-17.08,12-17.08,12l15.79-9.12-17.57,11c.63,1.09,16.74-9.67,16.74-9.67S87.75,83.91,90.2,88.16l15.09-8.71c2.21,3.82-14.46,9.21-14.46,9.21s14.06-8.39,14.18-8.19-16.89,4.77-14.53,8.85c.62,1.08,13.91-11.07,15.23-8.79,0,0-15.7,9.41-15.36,10,2.48,4.3,13.5-11.6,15.14-8.74,1.82,3.15-20.71,8.33-18.16,12.75C89.25,97.87,104,84.9,104,84.9c.83,1.44-18.79,6.46-16.82,9.88.27.46,11.94-12.64,14.43-8.33,2.24,3.88-13.85,9.38-13.85,9.38,2.08,3.61,14-9.66,14.71-8.49,2.56,4.44-15.81,8.36-15.17,9.48l14.32-8.27L86.91,98l15.73-9.08c2.15,3.73-14,9.26-14,9.26.58,1,11.66-9.06,12.67-7.31.49.84-14.2,8.67-14.2,8.67C87.37,99.9,98.45,93,98.45,93c.77,1.34-7.18,5.09-7.18,5.09l7.43-4.3-6.57,4.27c.45.77,7.45-4.31,7.45-4.31L92.9,98.21c.81,1.4,5.85-5.68,6.85-4,0,.08-8.06,3.78-7.39,4.94.08.13,6.25-3.6,6.25-3.6.28.47-5.23,2.55-4.44,3.91,0,0,4.09-3.07,4.4-2.54,0,0-2.88,1.28-2.57,1.81,0,0,1.29-1.11,1.45-.83,0,0-1,.87-1,1s.47-.37.52-.3-1.75,1.09-1.75,1.09S98,98.12,98,98.12"/><path class="cls-3" d="M144.46,92.23c.16.28,4.88-4.64,5.66-3.28l-4.83,2.87s6.08-5.06,6.75-3.9c.07.12-3,4.07-3,4.07s1.59-.92,1.59-.92-.51.58-.51.58l.31-.18a4.12,4.12,0,0,0-.41.32s1.18-.68,1.18-.68a2.29,2.29,0,0,1,0,.55s1.36-.85,1.39-.8"/><path class="cls-3" d="M136.3,67.94c.66,1.16,9.22-5.32,9.22-5.32l-8.86,7,9.52-5.5L134,73.3c.54.92,8-8.06,9.5-5.48.24.43-8.12,5.42-7.51,6.47,1.1,1.91,7.2-5.71,7.87-4.55,0,0-10.3,5.53-9.77,6.44,0,0,8.87-6,9.24-5.33s-7.79,6.62-7.79,6.62c1,1.79,9.77-6.82,10.29-5.93,0,0-13.89,5.43-11.81,9,1.55,2.67,9-6,9.34-5.4.1.18-6.52,4.17-6.52,4.17l7.36-4.25-10,7.76c1.18,2,10.92-6.31,10.92-6.31,1.23,2.11-11.46,5.65-10.42,7.45,0,0,11.51-7,11.65-6.73.77,1.34-9.69,5.86-9.69,5.86.34.59,6.68-3.85,6.68-3.85.33.57-7.17,3.36-6.73,4.13l8.54-4.93"/><path class="cls-3" d="M131.36,60.08c0,.08.28-.16.28-.16.24.41-1.84,2.27-1.76,2.41.31.54,3.29-2.64,3.61-2.08,0,0-4.33,4.38-4.29,4.46,1,1.78,9.59-7,10.23-5.9l-11.81,8.5c.06.11,12.49-7.21,12.49-7.21s-17.17,8.43-15.88,10.67c0,0,18.42-14.69,20.17-11.64.48.82-20.23,12.62-20.23,12.62,2.16,3.73,21.25-12.26,21.25-12.26,1.35,2.32-24.69,16.1-24.69,16.1,2,3.38,20-19.79,23.56-13.59,1.84,3.19-23.87,14.42-23.21,15.57,2,3.52,12.67-7.31,12.67-7.31l-16.49,11c2.19,3.8,16.9-9.76,16.9-9.76,2.67,4.61-16.69,9.95-16.69,9.95s14.46-10.26,15.28-8.83c0,0-17.51,6.44-15.76,9.47,0,0,12.21-10.15,13.56-7.82,2.12,3.69-15.43,10.3-15.43,10.3,1.41,2.45,14.17-12.47,16-9.26,1.37,2.38-16.7,11-16.7,11,2.29,4,14.18-8.19,14.18-8.19,1.41,2.44-15.12,4.12-13,7.82,1.6,2.77,11.61-8.44,12.36-7.13l-12,7.46s13.34-8.43,13.66-7.88c0,0-15.11,9.86-14.68,10.61,1.28,2.21,10.41-7.83,11.2-6.46,0,0-11.86,6.44-11.05,7.84C116.5,92.74,126,84.1,126,84.1s-9.27,6.06-8.82,6.84l12.19-7-9.49,7.57c.2.35,13-7.48,13-7.48,1.23,2.13-12.69,8.23-12.69,8.23l12.39-7.16-10.28,6.58s11.46-8,12-7c1.16,2-12.45,7.57-12.45,7.57l21.63-12.49L123,92.07s20-16.53,22.17-12.8c.55.94-16.35,11.73-16.35,11.73,2,3.46,14.25-13.36,16.47-9.51l-15,10.64,14.4-8.32c1.86,3.23-13,5.49-11.93,7.41.06.09,10.36-10.11,12.15-7,0,0-12.93,5.39-12,7,0,0,10.18-9.34,11.68-6.74l-9.8,6.76c2.16,3.75,12.35-7.13,12.35-7.13s-11.2,6.35-10.43,7.69l12.95-7.48L134,93.85c.25.43,15.3-9.9,15.76-9.1.9,1.56-14,10-14,10,2.07,3.59,16-9.22,16-9.22s-15.2,9.19-15,9.57c1.08,1.86,13.54-7.82,13.54-7.82S135.68,95,136.8,96.91c1.39,2.39,8.07-5,8.21-4.74.57,1-8.51,5.32-8.51,5.32.42.73,8.92-5.15,8.92-5.15,1.27,2.2-7,6-7,6l7.13-4.12-5.78,3.8c.64,1.1,5.74-4,6-3.48.77,1.33-4.82,4.06-4.7,4.27,0,0,3.81-2.79,4.07-2.35.14.26-2.49,1.82-2.2,2.32,0,0,.34-.86.62-.36.13.22,1.19.42,1.19.42a17.5,17.5,0,0,1,1.78-1"/><path d="M28.26,170.7h-8v-3.54h12.5V170l-6.42,13.67H21.89v-.36Z"/><path d="M46.39,180.68v3h-4v-3H34V178l7.15-10.86h5.28v10.35H49v3.17Zm-4-3.17v-6.59l-4.37,6.59Z"/><path d="M71,179.3c0,.63.17,1.17.77,1.17a2.76,2.76,0,0,0,1.22-.34l.14,3.22a9,9,0,0,1-3,.53,2.71,2.71,0,0,1-2.88-1.82,5,5,0,0,1-3.88,1.8c-3.46,0-5.84-2.72-5.84-6.52s2.38-6.59,5.84-6.59a4.74,4.74,0,0,1,3.59,1.33V171H71Zm-4.07-4.09a3.66,3.66,0,0,0-2.43-.92,3,3,0,0,0,0,6.05,3.75,3.75,0,0,0,2.43-.92Z"/><path d="M76.68,175.33c0-.66-.12-1.17-.78-1.17a3.13,3.13,0,0,0-1.23.32l-.12-3.2a7.63,7.63,0,0,1,3-.53,2.74,2.74,0,0,1,3,1.86,3.16,3.16,0,0,1,3.07-1.86,3.78,3.78,0,0,1,2.26.6l-.51,3.71a4.62,4.62,0,0,0-2.42-.56c-1.51,0-2,1.22-2.16,2.52v6.62H76.68Z"/><path d="M92.19,171v1.26A5.21,5.21,0,0,1,96,170.72c2,0,3.3.71,3.95,2.16a5.18,5.18,0,0,1,4.37-2.13c3.27,0,4.6,2.49,4.6,5.59v3c0,.63.12,1.17.73,1.17a3.22,3.22,0,0,0,1.23-.34l.17,3.22a9.25,9.25,0,0,1-3,.53c-2,0-3.15-1-3.15-3.58V177c0-1.62-.75-2.52-2.13-2.52a2.36,2.36,0,0,0-2.14,1.36v7.78H96.52V177c0-1.6-.7-2.5-2.1-2.5a2.43,2.43,0,0,0-2.23,1.41v7.73H88.12V171Z"/><path d="M126.14,179.3c0,.63.17,1.17.77,1.17a2.68,2.68,0,0,0,1.21-.34l.15,3.22a9,9,0,0,1-3,.53,2.7,2.7,0,0,1-2.88-1.82,5,5,0,0,1-3.88,1.8c-3.47,0-5.84-2.72-5.84-6.52s2.37-6.59,5.84-6.59a4.72,4.72,0,0,1,3.58,1.33V171h4.08Zm-4.08-4.09a3.61,3.61,0,0,0-2.42-.92,3,3,0,0,0,0,6.05,3.72,3.72,0,0,0,2.42-.92Z"/><path d="M139.56,174.92a8.51,8.51,0,0,0-3.78-1c-.82,0-1.53.24-1.53.85s.32.65,1,.84l2.26.61c2.3.63,3,1.87,3,3.59,0,2.44-1.94,4.09-5.29,4.09a11.5,11.5,0,0,1-5-1.09l.75-3.17A9.45,9.45,0,0,0,135,180.8c.95,0,1.51-.19,1.51-.75s-.49-.63-1.29-.85l-2-.55c-2.06-.61-3.08-1.75-3.08-3.66,0-2.52,2.21-4.24,5.75-4.24a13.26,13.26,0,0,1,4.72.92Z"/><path d="M162.41,179.3c0,.63.17,1.17.78,1.17a2.75,2.75,0,0,0,1.21-.34l.14,3.22a9,9,0,0,1-3,.53,2.71,2.71,0,0,1-2.88-1.82,5,5,0,0,1-3.88,1.8c-3.46,0-5.84-2.72-5.84-6.52s2.38-6.59,5.84-6.59a4.74,4.74,0,0,1,3.59,1.33V171h4.07Zm-4.07-4.09a3.65,3.65,0,0,0-2.42-.92,3,3,0,0,0,0,6.05,3.74,3.74,0,0,0,2.42-.92Z"/><path d="M171.11,166.43v12.8c0,.75.22,1.24.85,1.24a3.13,3.13,0,0,0,1.28-.34l.15,3.22a9.37,9.37,0,0,1-3.08.53c-2,0-3.27-1-3.27-3.63V166.43Z"/><path d="M194.71,166.43V179.3c0,.66.15,1.17.78,1.17a3.49,3.49,0,0,0,1.21-.34l.14,3.22a8.86,8.86,0,0,1-3,.53,2.7,2.7,0,0,1-2.89-1.72,4.69,4.69,0,0,1-3.9,1.72c-3.44,0-5.84-2.76-5.84-6.59s2.4-6.54,5.84-6.54a5.25,5.25,0,0,1,3.61,1.31v-5.63Zm-6.49,13.91a3.89,3.89,0,0,0,2.42-.89v-4.24a3.68,3.68,0,0,0-2.42-.92,3,3,0,0,0,0,6.05Z"/><path d="M203.46,171v8.33c0,.63.12,1.17.77,1.17a2.59,2.59,0,0,0,1.19-.34l.17,3.22a8.12,8.12,0,0,1-3,.53c-2,0-3.17-1-3.17-3.58V171Zm-.61-1.46h-3.36l2-3.83h4Z"/><path d="M221,179.3c0,.63.17,1.17.77,1.17a2.76,2.76,0,0,0,1.22-.34l.14,3.22a9,9,0,0,1-3,.53,2.7,2.7,0,0,1-2.88-1.82,5,5,0,0,1-3.88,1.8c-3.46,0-5.84-2.72-5.84-6.52s2.38-6.59,5.84-6.59a4.74,4.74,0,0,1,3.59,1.33V171H221Zm-4.07-4.09a3.66,3.66,0,0,0-2.43-.92,3,3,0,0,0,0,6.05,3.75,3.75,0,0,0,2.43-.92Z"/></g></g></svg>