<svg xmlns="http://www.w3.org/2000/svg" viewBox="0 0 251.21 397.81"><defs><style>.cls-1{fill:#f8e2e2;}.cls-2{fill:#fff;}.cls-3{fill:none;stroke:#ee6a5a;stroke-linecap:round;stroke-linejoin:round;stroke-width:0.5px;}.cls-4{fill:#333;}</style></defs><title>autorizaciones</title><g id="Layer_2" data-name="Layer 2"><g id="Layer_1-2" data-name="Layer 1"><g id="R9YgP0.tif"><path class="cls-1" d="M211.39,123.12c5.53-4,8.65-9.38,8.72-16.2.14-13.76,0-27.52,0-41.28q0-18.9,0-37.8c0-2.4.08-4.82-.13-7.21A20.35,20.35,0,0,0,204.19,2.72a25.35,25.35,0,0,0-5.29-.57q-75,0-150.08,0a20.74,20.74,0,0,0-17.2,8.19,19.6,19.6,0,0,0-4,10,5.72,5.72,0,0,1-.14.72V108a45.75,45.75,0,0,0,1,4.54,20.57,20.57,0,0,0,14.73,13.79H204.59A20.11,20.11,0,0,0,211.39,123.12Zm-73.34-82.6c6.15,0,12.3,0,18.45,0h37.71a5.17,5.17,0,0,1,5.33,3.72,5.08,5.08,0,0,1-4.69,6.46c-1.58.07-3.16,0-4.74,0H138.17a5.1,5.1,0,1,1-.12-10.2Zm29.71,48c-2.79,0-5.58,0-8.37,0-7.09,0-14.18,0-21.27,0A5.1,5.1,0,1,1,138,78.33c4.94,0,9.88,0,14.82,0h14.67a5.1,5.1,0,1,1,.23,10.2Zm26.73-18.91c-4.64,0-9.29,0-13.93,0H166.33q-14,0-28.08,0a5.09,5.09,0,0,1-.81-10.15c.39,0,.78,0,1.18,0h55.57a5.15,5.15,0,0,1,5.23,3.35A5.08,5.08,0,0,1,194.49,69.61Z"/><path class="cls-2" d="M166.33,50.73H138.17a5.1,5.1,0,1,1-.12-10.2c6.15,0,12.3,0,18.45,0h37.71a5.17,5.17,0,0,1,5.33,3.72,5.08,5.08,0,0,1-4.69,6.46c-1.58.07-3.16,0-4.74,0Z"/><path class="cls-2" d="M166.33,69.61q-14,0-28.08,0a5.09,5.09,0,0,1-.81-10.15c.39,0,.78,0,1.18,0h55.57a5.15,5.15,0,0,1,5.23,3.35,5.08,5.08,0,0,1-4.93,6.83c-4.64,0-9.29,0-13.93,0H166.33Z"/><path class="cls-2" d="M152.86,78.32h14.67a5.1,5.1,0,1,1,.23,10.2c-2.79,0-5.58,0-8.37,0-7.09,0-14.18,0-21.27,0A5.1,5.1,0,1,1,138,78.33c4.94,0,9.88,0,14.82,0Z"/></g><path class="cls-3" d="M140.63,44.68s61.66-42.41,64.61-37.3c2.55,4.42-66,26.46-59.45,37.8.42.72,65.1-37.58,65.1-37.58s-68.83,28.19-63.47,37.48C151,51.21,211.82,7.9,211.82,7.9c4.52,7.83-55.28,36-55.28,36l58-33.46c7.44,12.89-63.84,21.4-56.85,33.5,0,0,57.08-35,58-33.46L158.49,45.1s55.38-42.41,59.9-34.58c.12.2-61.31,25-55.79,34.56.28.49,51.83-42.39,57.23-33L170.57,44.31,219.9,15.83s-44.8,24.35-42.44,28.43l44.88-25.91L182.27,43.81C189,55.52,215.66,8.46,222.62,20.52c0,0-34.57,22.36-33.94,23.44,0,0,34.77-22.41,35.79-20.66,0,0-35.28,16.69-32.66,21.24,0,0,31.66-20.15,32.47-18.74,4.13,7.16-26.77,13.65-24.36,17.81,2.53,4.39,23-13.28,23-13.28L201.66,45s17.61-17.78,20.91-12.07L201.76,47.6s18.1-16.74,20.82-12c2.54,4.39-18.86,12.57-18.86,12.57C205.81,51.77,223,37,223,37c.67,1.16-21.1,8.71-19.49,11.49C205.32,51.64,225.24,36,225.24,36s-20.7,13.31-20.47,13.71c2.95,5.12,19.47-11.24,19.47-11.24s-20.36,10.71-19.45,12.29l18.49-10.67c3.14,5.44-21,12.24-20.85,12.45l20.89-12.06c1.12,1.94-22.85,12.44-22.23,13.52,1.73,3,21.25-14.13,22.06-12.74"/><path class="cls-3" d="M142.21,62.69s12.47-10.49,13.9-8c1.77,3.07-12.57,5.66-10.8,8.73,1.42,2.46,14.2-10.84,15.34-8.85,2,3.46-15.43,4.65-13.37,8.23,1.54,2.65,11.55-10.34,13.14-7.59.05.09-7.38,7.41-7.38,7.41,1.65,2.86,10.79-10.16,12.49-7.21,1.06,1.83-10.3,4.66-8.83,7.19,0,0,11-8.73,12.06-7l-7.82,8.44s16.65-10.42,17-9.82c1.4,2.42-16.35,5.87-14.1,9.77l15-8.66-9,8c1.35,2.34,14.2-8.2,14.2-8.2s-9.33,6.71-8.63,7.92l15.6-9c.48.83-14.63,8.53-14.63,8.53,2.37,4.11,12.07-7,12.07-7l-7.33,8.3c1.15,2,16.66-9.62,16.66-9.62s-10.41,8.49-10.36,8.57c2.31,4,37.41-21.6,37.41-21.6S186,54.15,191,62.71c2.91,5,33.87-19.56,33.87-19.56L196.74,63.21c3.51,6.07,28.68-16.56,28.68-16.56l-25.6,17.5c2.41,4.18,21.65-17.35,23.75-13.72,2.44,4.23-20.44,16-20.44,16s16.63-16.52,19.63-11.33C224.4,57.94,203.65,69,203.65,69s17.76-14.11,19.43-11.22L204.77,68.66c2.55,4.4,19.35-11.17,19.35-11.17.77,1.33-23.59,11.1-21.61,14.54,0,0,21.12-12.71,21.34-12.32"/><path class="cls-3" d="M140.53,82.53s11.84-11.85,14-8.09l-9.79,7.17,14.56-8.4c1.78,3.08-15.42,9.09-15.42,9.09,2.24,3.87,13.21-8.12,13.42-7.75,0,0-12.49,6-11,8.6l15.11-8.73c.91,1.58-8.88,8.64-8.88,8.64s14.94-12.81,16.75-9.67c0,0-14,9.51-13.93,9.6L172,73.37l-15,9.54c2.32,4,15.49-10,15.93-9.2,0,.06-13.1,6.65-12,8.61l14.55-8.4c1.66,2.88-11.24,6.26-10.29,7.9,0,0,11.91-10.48,13.47-7.78,1,1.78-12.65,7.19-11.54,9.12,2.34,4,17.13-9.89,17.13-9.89.66,1.16-9.29,9.65-9.29,9.65l17-9.82c.84,1.46-17,12.61-17,12.61S196.45,72.07,197,73c1.65,2.88-19.93,11.59-19.93,11.59C178.46,87,193.48,70.49,195.48,74c3.07,5.32-18.87,11.61-18.87,11.61,1.36,2.36,21.61-12.48,21.61-12.48L176.78,88.21s45.48-31.56,47.78-27.59c4.45,7.72-51.39,28-49.75,30.81,3.2,5.55,47.7-27.54,47.7-27.54,6,10.39-47.43,27.41-47.43,27.41,2.81,4.87,49-28.3,49-28.3"/><path class="cls-3" d="M42.13,8.9s1.12-.65,1.12-.65c.33.57-6,4-6,4S46.9,6,47.2,6.51C48.66,9,31.87,19.84,31.87,19.84L56.36,5.7C60.59,13,31.12,21.6,31.12,21.6S54.72,4.41,56.27,7.08s-25,14.73-25,14.73L57.64,6.6c4.6,8-28,18.84-27.49,19.68L65.09,6.11,30.35,26.32C33,30.9,61.08-3,66.09,5.69,68.32,9.55,31.2,26.47,31.2,26.47c3.46,6,34.87-20.13,34.87-20.13,2.66,4.6-37,14.46-33.6,20.36.3.53,36.15-20.87,36.15-20.87,5,8.59-38.43,22.4-38.43,22.4C35.91,38.14,68,6.38,68,6.38s-42.17,19-37.88,26.38C35.31,41.7,72.69-2.48,77.31,5.53c6.15,10.63-53.74,16.24-46,29.57C36.63,44.39,82.9,5.28,82.9,5.28l-51,32.29C35,43,87.68,5.38,87.68,5.38,92.67,14,31.42,40,31.42,40,31.71,40.54,90,4.47,90.72,5.8L32.07,42.43c6.5,11.27,63.69-38,64.21-37.07,4.54,7.86-70.79,33-65.41,42.35,0,0,62-61.72,73.24-42.29,0,0-79.83,32.88-72.61,45.38,0,0,73.86-52.8,78.26-45.18C119.7,22.84,32.66,52,32.66,52c6.72,11.64,70.85-60,79.1-45.67C114,10.13,30,57.82,30,57.82S112.87-7.3,120.36,5.68C124.25,12.41,19.92,37,31.65,57.31c0,0,86-52.72,87.34-50.42,0,0-92.69,43.35-88.24,51.06L121.92,5.31S15.34,31.94,30.6,58.38C43.26,80.31,110.48-9.81,120,6.74L30,62.4,128.14,5.74C134.9,17.46,22.58,45.23,32.84,63c0,0,91.4-70.15,98.93-57.11,1.78,3.08-117,32-100.61,60.32,0,0,88.51-84.38,102.92-59.42L32.3,67.48C48.68,95.85,126.59-10.87,137,7.07c0,0-113.35,50.7-105.36,64.56L143.48,7C155.17,27.28,13.4,45.59,30,74.36,40.68,92.85,149.33,5.46,149.33,5.46S26.65,66.76,31.75,75.59C43.52,96,151.81,6.26,151.81,6.26S25.84,67,32,77.64C52.66,113.41,157.19,5.38,157.19,5.38c3.59,6.21-133.37,58.81-124.62,74,2.32,4,107.26-105.86,126.28-72.91L33,82.94,167.53,5.29C179.69,26.36,31.3,86.6,31.3,86.6,35.69,94.22,169.64,6.73,169.64,6.73L32,87.64,173.63,5.86C193.91,41,20.27,69.08,32.77,90.73c0,0,137.94-96.14,145.08-83.76,12.69,22-167.4,52.83-147.41,87.45C48.06,125,162.64-27.2,182.25,6.77,205.89,47.71,14.11,62.62,32.46,94.41s134-123.26,153.88-88.84C204,36.11,21.62,84.12,30,98.66,47,128.06,183.41-7.19,190.89,5.77c6.66,11.53-183.44,51-158.41,94.3C40.63,114.18,183.62-10.36,193.65,7c19.94,34.53-162.72,95.1-162.72,95.1C42.83,122.74,185.81-12.29,196.64,6.45c16.2,28.07-170.06,88.6-164.58,98.1C34.11,108.1,181-27.37,200.88,7.08c8.1,14-174,93.74-169.26,102,15.86,27.47,106.62-61.56,106.62-61.56S12.68,81.79,30.6,112.84L136.41,51.75S13.87,87,31,116.6C32,118.48,138.62,54.44,138.62,54.44c8.95,15.5-106.82,62-106.82,62,5.36,9.29,107-61.79,107-61.79,9,15.56-117.61,43.33-105.77,63.85L143.77,54.55C160.27,83.13,35.19,119,35.19,119S141.28,47.57,145.67,55.16c8.21,14.23-114.82,62.18-112.85,65.58,1,1.65,100.78-92.75,115.75-66.83C153.83,63,36.49,123.15,36.49,123.15,44.66,137.31,145.18,37.71,155,54.72c0,0-135.72,40.67-118.67,70.2,0,0,99.32-60.7,100.78-58.18C151.05,90.88,29.6,106.15,41.3,126.43c0,0,91.33-64.32,96.35-55.62,0,0-106,41.76-96.62,58,0,0,91.22-71.1,99.2-57.27,0,0-98.84,46.26-92.26,57.65L143.72,74C157,96.89,39,108,52,130.52c0,0,95.79-62,98.69-57L58.39,130s79.74-49.18,81.1-46.82c0,0-81.14,46.32-80.86,46.81C67.92,146.06,138,84.14,138,84.14c1.15,2-73.9,46.48-73.9,46.48,1.23,2.13,69.39-45.6,71.79-41.45,7.56,13.1-76.9,26.57-68.46,41.19C73.55,141,136.52,88.17,137.52,89.9c0,0-71,31.47-65.56,40.94.64,1.12,65-45.17,68.29-39.42,10.18,17.64-68.88,31.52-65.09,38.09,0,0,60.28-42.72,63.71-36.78C140.24,95.11,75.72,131,75.72,131l68.14-39.34c2.82,4.89-66.41,32.53-62.73,38.89l64.58-37.28s-65.55,20.16-56.14,36.47l63.86-36.87c3.09,5.35-61.16,32.53-58,38,7.68,13.29,64.74-37.38,64.74-37.38l-59.51,36.42C106.82,140.61,164.52,93,164.52,93c9.94,17.21-60.91,35.67-59.84,37.53,6.73,11.66,64.12-43.2,66.8-38.56,4.29,7.42-62.65,37.42-62.65,37.42,9.91,17.17,63.6-36.72,63.6-36.72.17.29-58.45,37.58-58.11,38.16,0,0,98.37-85.85,111-64.06,15.82,27.42-114.52,41.08-101.88,63L223.43,72l-99.6,58.7,99.45-57.42c4.47,7.76-108.95,33.74-95.51,57,6.33,11,95.57-55.89,95.88-55.36,0,0-92.73,48.29-88.55,55.55,5.07,8.77,85-61,90.14-52,12,20.81-88.08,52.05-88.08,52.05,5.25,9.09,88.41-51,88.41-51,3.6,6.24-87.53,51.09-87.53,51.09s81.81-53.76,84.64-48.87l-80.25,48.38,80.22-46.32c10.11,17.49-80.48,34.51-73.73,46.2,0,0,67.74-53.78,74.09-42.78,0,0-72.61,33.65-67.23,43L224,90.79c3.31,5.73-62.83,38.83-62.83,38.83s53.42-51.7,62.45-36.05c7.12,12.32-61.18,24.3-54.5,35.88,0,0,50.23-39.26,54.67-31.57,3.81,6.59-56.51,22.42-50.43,32.94,4.17,7.23,45.9-41,52.17-30.12,0,0-54.18,17.75-47.35,29.57,0,0,46-29.73,47.33-27.33,0,0-44.37,20.4-40.27,27.49,4.89,8.48,38.87-23.67,39.41-22.75.75,1.3-35.55,22.66-35.55,22.66s31.56-22.76,33.52-19.36L191.8,129.37c1.2,2.07,32.57-18.8,32.57-18.8l-33.93,19.91S222.62,111,223,111.67c2,3.5-30.25,18.3-30.25,18.3,3.84,6.63,29.14-19.87,30.46-17.58,3.37,5.84-32.05,18.6-32.05,18.6s27.51-26,31.87-18.4c0,0-24.53,13.25-22.42,16.9,0,0,20-20,23.7-13.69,0,.07-27.49,8.18-23.93,14.33,0,0,22.05-14.41,22.78-13.15,2.56,4.43-19.66,13-19.66,13,.59,1,17.3-10,17.3-10s-8.76,8.13-8.45,8.68c0,0,3.33-2.75,3.69-2.13"/><rect class="cls-2" x="39.76" y="26.84" width="73.16" height="76.04" rx="12"/><path class="cls-3" d="M88.23,72.29c0,.07.28-.19.29-.17.41.7-2,1.81-1.71,2.26.39.68,3.35-1.93,3.35-1.93.77,1.33-5.23,4.52-5.23,4.52.67,1.15,8.1-6.71,9-5.19s-12.13,8.43-12.13,8.43C83.42,83,93.4,69.63,95.07,72.53L79.49,82.62c2,3.43,17.07-9.86,17.07-9.86.86,1.5-16.15,9.89-16.15,9.89S95.6,72,96.42,73.41"/><path class="cls-3" d="M73.55,74.62s.22-.18.24-.14.53.25.62.42c0,0,.89-.62.93-.54.34.59-3,2.6-2.78,2.94.49.85,5.29-3.26,5.38-3.11s-4.48,3.4-4.41,3.52,5.68-3.28,5.68-3.28l-5.68,5.08c.43.75,4.31-2.59,4.35-2.52s-3.19,3.66-3.19,3.66l2.43-1.4-3.47,2.64s4-2.86,4.28-2.47c0,0-4.74,3.26-4.35,3.92,0,0,2.87-3.17,3.53-2"/><path class="cls-3" d="M51.85,74.74s1.47-1.43,1.72-1c.35.61-4.88,3.11-4.88,3.11s6-5.36,6.82-3.94c.48.84-7.77,3.52-6.85,5.13l8.89-5.13S45.44,77,46.92,79.55c0,0,10.85-8.59,11.86-6.84,2,3.45-12.12,7.19-12.12,7.19.92,1.59,13-9.23,13.71-7.92.08.13-13.11,8.21-13.11,8.21l12.06-7c1,1.75-13.09,7.84-13.09,7.84l15.65-9L45.8,82.33c1.13,2,14.78-12,16.29-9.4,0,0-16.82,7.8-15.52,10.06,0,0,16.4-11.73,17.37-10L44.67,84.36C46.15,86.93,64,73.21,64,73.21,66.36,77.32,42,83.08,43.72,86c0,0,21.47-16,23-13.29L45,86.22c.45.79,17.76-18.4,21.29-12.29,0,0-23,8.2-20.69,12.13L65,74.82S43,88.09,43.32,88.61c3,5.17,22.27-12.86,22.27-12.86,2,3.42-24.88,8.3-22.24,12.87C44.16,90,67,75,67,75c3.38,5.86-25.75,13-24.29,15.52,2.66,4.63,24.7-16.62,25.72-14.85l-24,14.22s23-13.37,23-13.3C69.15,79.41,44,87.31,45.21,89.46L66,77.47s-21.28,10.47-19.8,13c0,0,21-17.65,23.36-13.49C70.71,79,42.24,88.3,45,93s25-15.52,25.46-14.7c0,0-26.15,13.34-25.28,14.85.67,1.15,19.18-20.09,23.09-13.33,3.49,6-22.25,9.89-20.22,13.4,1.41,2.45,22.54-13,22.54-13C73.85,85.93,48,94.42,48,94.42c.79,1.37,22.38-18.08,24.61-14.21,3.59,6.23-22.43,14.41-22.43,14.41S69.74,74.81,73.44,81.21c3.11,5.39-26.33,7.24-22.75,13.45C54.42,101.11,68.25,78.2,71,82.94c0,0-22.27,7.33-19.18,12.68,3.47,6,20.45-13.68,21.26-12.27,1,1.75-18.62,11.51-18.17,12.29,0,0,23.15-17.42,24.91-14.38,0,0-23.18,14.59-22.79,15.27C60.34,102.31,97.78,73,97.78,73,99.17,75.4,52.9,87.1,58.52,96.83c3.49,6,38.72-22.36,38.72-22.36S58.72,97.64,58.72,97.64L99.91,73.86c4,6.92-36.67,23.27-36.67,23.27L100.89,75.4c5.71,9.89-41.78,16.71-38.19,22.93,0,0,38.2-27,40.35-23.29,0,0-42,17.22-38.14,23.9l38.79-22.4S66.32,90.43,70.57,97.81c4.51,7.81,33.69-22,34.82-20.1,0,0-35.38,16.64-33.34,20.17,1.59,2.76,31.71-19.86,32.38-18.69,0,0-34.14,16.67-32.53,19.46,0,0,33.57-22.4,34.87-20.14L74.54,99.17s32.34-18.68,32.34-18.67L77.47,99.61c4.67,8.09,29.69-18.65,30.34-17.52,0,0-26,15.19-25.14,16.62l25.25-14.58c2.16,3.75-23.56,12.66-22.18,15,0,0,22.37-14.52,23.06-13.32,3,5.25-18.81,9.43-17.42,11.82,0,0,13.91-13.45,16.26-9.39L91.31,98.11l16-9.26S92.4,97,92.78,97.61c.84,1.46,14.87-8.58,14.87-8.58s-12.44,6.33-11.39,8.15c.95,1.64,10.92-6.52,11-6.35,1.41,2.43-11.29,4.08-9.87,6.55,0,0,10.92-8.55,11.89-6.87,0,0-6.65,3.68-6.15,4.55.38.66,3.11-1.79,3.11-1.79"/><path class="cls-3" d="M69.06,43.78c.61,1,18.24-10.54,18.24-10.54.7,1.22-20.44,7.36-18.37,10.93l19-11C88,33.35,65,39.85,68,45l20.61-11.9c2.74,4.74-17.63,11.54-17.63,11.54.48.84,17.35-10,17.35-10,.12.22-14.85,10-14.85,10,.25.44,17-9.81,17-9.81,2.73,4.72-19.87,7.08-17.59,11,0,0,16.1-14,18.13-10.46s-16.85,7.07-15.16,10c1.27,2.2,13.41-7.74,13.41-7.74.38.65-9.55,4.72-8.5,6.54,1.32,2.29,8.69-5.72,9-5.19,1.1,1.9-7.15,4.33-6.5,5.45,0,0,7.52-7.63,8.94-5.16.5.87-10,6.31-10,6.31,1,1.7,10.17-5.87,10.17-5.87l-8.89,6.08,9.27-5.36c.49.86-6.62,4.34-6.62,4.34s.42-.64.59-.34l-1.07,1s.28-.47.41-.23l-.23.52s.5-.45.57-.33a2.67,2.67,0,0,0,.11.67l.09,0"/><path class="cls-3" d="M86.06,44.84c.42.74,5.07-2.92,5.07-2.92.47.81-2.42,2.39-1.92,3.25.38.66,4.43-3.21,4.71-2.72l-5.4,3.25s4.17-3.49,4.64-2.67-5.53,2.73-5,3.75c0,0,3.88-3.32,4.35-2.51l-2.84,3.81s3.06-2.09,3.2-1.85c.76,1.32-5.7,3.38-4.87,4.81,0,0,5.57-3.81,5.83-3.36,0,0-4.82,2-4.08,3.24,0,.07,3.24-2,3.32-1.92.23.4-1.65,2-1.65,2l1.14-.65c.14.25-1.22,1.48-1,1.8l1-.57c.36.61-2.91,2.8-2.65,3.26s3.53-2,3.53-2c.34.6-2.9,1.61-2.42,2.44s3.62-2.08,3.62-2.08c.88,1.53-6.32,2.11-5.39,3.73.15.26,5.27-3.09,5.29-3.06.21.37-4.63,3-4.63,3L92,55.67"/><path class="cls-3" d="M89.91,57.18c.55,1,4.22-2.47,4.23-2.45l-7.09,5.75L91,58.21l-5.76,5.61c.2.36,4.65-2.74,4.67-2.7s-4.59,3.1-4.59,3.1c.54.92,4.16-2.4,4.16-2.4l-4.08,2.93s2.47-2.52,2.94-1.7c.8,1.38-8.57,2.81-7.41,4.82,0,0,8.5-5.23,8.64-5"/><path class="cls-3" d="M62.18,50.88c.06.12,0-.08.07,0s.41-.22.41-.22.35-.21.36-.2"/><path class="cls-3" d="M66.73,33.75s3-2.56,3.35-1.94c1.2,2.08-7.47,5-7.47,5,.32.56,7.48-7.14,8.7-5,0,0-9.63,5-8.54,6.89,2,3.4,12.93-11.55,14.7-8.48,2.59,4.48-15.24,10.64-15.24,10.64l16.05-9.27S59.11,43.27,59.69,44.28L81.41,31.73c1.13,1.95-19.3,11.9-19.3,11.9L82.52,31.84S59.27,46.32,59.72,47.11C61.86,50.8,82.54,29.63,84.4,32.86L59.35,49.13C63.11,55.63,81.55,26,86,33.74c0,0-30.15,10-26.09,17.09,0,0,3.16-1.82,3.16-1.82s-4.85,3-4.66,3.35c.51.89,4.45-2.93,4.61-2.66.28.48-2.86,3-2.86,3,.2.36,3-1.73,3-1.73.58,1-5.28,4-5.28,4s2.49-2.44,2.93-1.69c.29.51-3.06,2.3-2.71,2.92,0,0,4.69-2.81,4.74-2.73l-3.93,3.28a28.13,28.13,0,0,1,3.53-2S60.39,56.35,60.78,57l2.29-1.32c.06.08-1.46,1.28-1.41,1.35L63.57,56c.15.26-2.7,1.69-2.58,1.9s.38-.22.38-.22-.76.42-.66.59c.28.49,3.67-2.12,3.67-2.12.59,1-3.72,3.12-3.17,4.07,0,0,1.76-1.33,1.9-1.1,0,0-2.07,1.78-1.93,2s4.85-2.87,4.88-2.82c.56,1-3.91,2.42-3.22,3.62.22.38,3-1.73,3-1.73.27.49-2.3,2.18-2.3,2.18l1.79-1a18.6,18.6,0,0,0-1.81,2.4s3.53-2.81,3.87-2.23c.1.18-2.61,1.57-2.24,2.2,0,0,2.32-1.77,2.51-1.45.49.86-2.5,2.7-2.5,2.7s1.39-.84,1.41-.81l.73,1.24c.2.35.7-.89.92-.52A4,4,0,0,1,68,66l1.15-.66-3.08,2.13c.27.46,1.2-1.25,1.45-.83l-.14.29c.16.26,3-1.72,3-1.72.14.24-2.8,2.25-2.8,2.25.22.38,1.13-1.21,1.37-.79.09.15-3.27,1.81-3.16,2,.25.44,5.38-3.11,5.38-3.11.56,1-4.89,2.94-4.89,2.94.23.41,3.62-3,4-2.31s-3.76,2.41-3.69,2.54c.33.57,2.72-1.57,2.72-1.57a6,6,0,0,1,0,1.75s1.23-.92,1.32-.76c.42.73-3.47,1-3,1.77L70.94,68c.25.43-1.16,1.48-1.16,1.48.18.31,3.67-2.12,3.67-2.12.16.28-2.15,1.95-2.15,1.95.24.42,1.44-.84,1.44-.84.49.85-3.57,1.61-3.28,2.12a13.71,13.71,0,0,0,2-1.14c.18.32-2.1,2-2.1,2s3.59-3.11,4-2.34c0,0-2,2.76-1.67,3.29S77,68.93,77.2,69.21l-4,3.16,6.68-3.86s-3.67,2.24-3.37,2.78c1.28,2.2,8.75-8.79,10.37-6,0,0-10.74,3.42-9.18,6.11l8-4.64s-9.23,3.91-8.42,5.32c1,1.76,8-6.83,9-5.19l-6,4.6c.17.3,1.5-1.64,1.84-1.06"/><path class="cls-2" d="M64.11,57.54a1,1,0,0,1-1.36-.49A5.41,5.41,0,0,1,61.69,54a19,19,0,0,1,.05-2c.08-.89.42-1.14,1.12-1A30.21,30.21,0,0,1,64.53,47a5.47,5.47,0,0,1,6.25-2.37,16.48,16.48,0,0,0,9.13,0,6.12,6.12,0,0,1,4.2.41c.77.32,1.51.71,2.42,1.14L86,44.58l.13-.15a5,5,0,0,1,.83.67,13.36,13.36,0,0,1,2.25,4.47c.1.3.2.6.29.9.89-.16,1.24,0,1.43.92a6.61,6.61,0,0,1-.85,5.11c-.25.39-.8.58-1.26.89C87.9,59.18,87,61.15,85.91,63a14.37,14.37,0,0,1-3.77,4.23,8.72,8.72,0,0,1-11.55-.13,20.74,20.74,0,0,1-6.24-8.94Z"/><path d="M85.27,155.89h-8v-3.54H89.8v2.81l-6.42,13.67H78.9v-.37Z"/><path d="M98,152.35h3v16.48H96.93V157l-4.54,2.47-1.52-3.08Z"/><path d="M116.92,155.89h-7.34l-.22,2.74h1.18c4.37,0,6.91,1.45,6.91,4.72,0,3.88-2.88,5.72-7.22,5.72a17.25,17.25,0,0,1-5.74-1l1-3.35a12,12,0,0,0,4.51.95c1.89,0,3.27-.7,3.27-2.18,0-1.31-1.14-1.84-3-1.84h-4.75l-.17-.17.8-9.09h10.74Z"/><path d="M121.71,169.09a2.09,2.09,0,0,1-1.45-2.18,2.17,2.17,0,0,1,2.35-2.4,2.22,2.22,0,0,1,2.4,2.4A13.91,13.91,0,0,1,123,173l-2.25-.9Z"/><path d="M140.28,156.59a10.25,10.25,0,0,0-4.24-1c-2.62,0-3.71,1.45-4,3.63a6.79,6.79,0,0,1,4.07-1.26c3.92,0,6,1.94,6,5.21,0,3.66-2.76,5.94-6.59,5.94-4.92,0-7.66-3.39-7.66-8.5s2.74-8.46,7.71-8.46a15,15,0,0,1,5.76,1.16Zm-8.17,5.7c.36,1.81,1.38,3.07,3.42,3.07a2.29,2.29,0,0,0,2.54-2.23c0-1.45-1.07-2.06-2.59-2.06A5.74,5.74,0,0,0,132.11,162.29Z"/><path d="M152.25,152.11c4.87,0,7.34,3.27,7.34,8.5s-2.47,8.46-7.34,8.46-7.32-3.27-7.32-8.46S147.42,152.11,152.25,152.11Zm0,13.23c2.64,0,3.39-2.13,3.39-4.73s-.75-4.79-3.39-4.79-3.37,2.15-3.37,4.79S149.65,165.34,152.25,165.34Z"/><path d="M169.94,155.89h-8v-3.54h12.51v2.81l-6.42,13.67h-4.49v-.37Z"/><path d="M38.36,193.57c0,.63.17,1.16.77,1.16a2.56,2.56,0,0,0,1.21-.34l.15,3.23a9,9,0,0,1-3,.53,2.7,2.7,0,0,1-2.88-1.82,5,5,0,0,1-3.88,1.79c-3.46,0-5.84-2.71-5.84-6.51S27.24,185,30.7,185a4.74,4.74,0,0,1,3.59,1.33v-1.12h4.07Zm-4.07-4.1a3.66,3.66,0,0,0-2.43-.92,3,3,0,0,0,0,6.06,3.75,3.75,0,0,0,2.43-.92Z"/><path d="M55.51,185.23v8.34c0,.63.13,1.16.73,1.16a2.93,2.93,0,0,0,1.24-.34l.14,3.23a8.12,8.12,0,0,1-3,.53,2.71,2.71,0,0,1-2.83-1.65,5.4,5.4,0,0,1-4.17,1.65c-3.27,0-4.65-2.35-4.65-5.6v-7.32H47V192c0,1.67.48,2.47,2.13,2.47a2.65,2.65,0,0,0,2.3-1.24v-8Z"/><path d="M65.09,182v3.22h4.38v3.15H65.09v4.41c0,1.29.53,1.82,1.5,1.82a4.45,4.45,0,0,0,2.37-.85l1.24,3.1a9.3,9.3,0,0,1-4.92,1.29c-2.64,0-4.26-1.6-4.26-4.65v-5.12H58.86v-3.15h2.28l.51-3.22Z"/><path d="M78.63,184.89a6.68,6.68,0,1,1-6.81,6.72A6.58,6.58,0,0,1,78.63,184.89Zm0,9.67a3,3,0,1,0-2.88-2.95A2.85,2.85,0,0,0,78.63,194.56Z"/><path d="M89.39,189.59c0-.65-.12-1.16-.77-1.16a3,3,0,0,0-1.24.32l-.12-3.2a7.63,7.63,0,0,1,3-.53,2.74,2.74,0,0,1,3,1.86A3.16,3.16,0,0,1,96.3,185a3.76,3.76,0,0,1,2.25.6L98,189.33a4.62,4.62,0,0,0-2.42-.56c-1.5,0-2,1.21-2.16,2.52v6.62H89.39Z"/><path d="M102.84,179.83c1.31,0,2.18.48,2.18,1.84s-.87,1.84-2.18,1.84-2.23-.48-2.23-1.84S101.51,179.83,102.84,179.83Zm2,13.74c0,.63.12,1.16.77,1.16a2.47,2.47,0,0,0,1.19-.34l.17,3.23a8.35,8.35,0,0,1-3,.53c-2,0-3.17-1-3.17-3.59v-9.33h4.07Z"/><path d="M114.49,188.41h-5.4v-3.18h10.47V188l-5.33,6.69h5.33v3.18H109.09V195.1Z"/><path d="M135.41,193.57c0,.63.17,1.16.77,1.16a2.56,2.56,0,0,0,1.21-.34l.15,3.23a9,9,0,0,1-3,.53,2.7,2.7,0,0,1-2.88-1.82,5,5,0,0,1-3.88,1.79c-3.47,0-5.84-2.71-5.84-6.51s2.37-6.59,5.84-6.59a4.72,4.72,0,0,1,3.58,1.33v-1.12h4.08Zm-4.08-4.1a3.61,3.61,0,0,0-2.42-.92,3,3,0,0,0,0,6.06,3.7,3.7,0,0,0,2.42-.92Z"/><path d="M151.71,196.5a8.8,8.8,0,0,1-5.42,1.74c-4.78,0-6.93-2.83-6.93-6.63a6.41,6.41,0,0,1,6.71-6.72c3.75,0,5.69,2.06,5.81,5l-3.61.8c-.09-1.4-.65-2.27-2.18-2.27s-2.54,1.28-2.54,3a3,3,0,0,0,3.22,3.19,6,6,0,0,0,3.39-1.33Z"/><path d="M156.71,179.83c1.3,0,2.18.48,2.18,1.84s-.88,1.84-2.18,1.84-2.23-.48-2.23-1.84S155.37,179.83,156.71,179.83Zm2,13.74c0,.63.12,1.16.77,1.16a2.47,2.47,0,0,0,1.19-.34l.17,3.23a8.41,8.41,0,0,1-3,.53c-2,0-3.17-1-3.17-3.59v-9.33h4.07Z"/><path d="M169.48,184.89a6.68,6.68,0,1,1-6.81,6.72A6.58,6.58,0,0,1,169.48,184.89Zm0,9.67a3,3,0,1,0-2.89-2.95A2.85,2.85,0,0,0,169.48,194.56Z"/><path d="M183.31,185.23v1.41a5.2,5.2,0,0,1,3.86-1.62c3.27,0,4.65,2.49,4.65,5.59v3c0,.63.14,1.16.77,1.16a3,3,0,0,0,1.24-.34l.12,3.23a8.07,8.07,0,0,1-3,.53c-2,0-3.2-1-3.2-3.59v-3.27c0-1.62-.75-2.52-2.14-2.52a2.7,2.7,0,0,0-2.3,1.58v7.56h-4.07V185.23Z"/><path d="M207.81,196.53a8.58,8.58,0,0,1-5.38,1.71c-4.77,0-7-2.88-7-6.63a6.46,6.46,0,0,1,6.73-6.72c3.86,0,5.7,2.38,5.7,5.29a10.51,10.51,0,0,1-.27,2.42h-8.12a2.84,2.84,0,0,0,3.15,2.42,6.85,6.85,0,0,0,3.64-1.21Zm-3.44-6.79c0-1-.68-1.74-2.18-1.74a2.45,2.45,0,0,0-2.59,2h4.77Z"/><path d="M219.64,189.18a8.54,8.54,0,0,0-3.78-1c-.83,0-1.53.25-1.53.85s.31.66,1,.85l2.25.61c2.31.63,3,1.86,3,3.58,0,2.45-1.94,4.1-5.28,4.1a11.61,11.61,0,0,1-5-1.09l.75-3.18a9.28,9.28,0,0,0,4,1.19c.95,0,1.5-.19,1.5-.75,0-.41-.48-.63-1.28-.85l-2-.56c-2.06-.6-3.08-1.74-3.08-3.65,0-2.52,2.21-4.24,5.74-4.24a13.36,13.36,0,0,1,4.73.92Z"/><path class="cls-4" d="M8.66,231a7.5,7.5,0,0,1,1.32.23,2.79,2.79,0,0,1,0,.87H5.68a2.25,2.25,0,0,1,.25-.81,6.31,6.31,0,0,1,1.16-.34V220.11H5.79a2,2,0,0,1,.32-1,5.07,5.07,0,0,1,1.63-.25,3.76,3.76,0,0,1,.92.1v3.48c0,.74,0,1.51-.09,2.25h.18a2.94,2.94,0,0,1,2.84-1.53c1.45,0,2.73.45,2.73,3.24,0,1.51,0,3-.11,4.52a9.28,9.28,0,0,1,1.47.23,3.06,3.06,0,0,1,.05.56,1.62,1.62,0,0,1,0,.31H11.43a2.25,2.25,0,0,1,.25-.81,5.65,5.65,0,0,1,1-.34V226.7c0-1.38-.45-2.27-1.73-2.27a3.29,3.29,0,0,0-2.32,1.16Z"/><path class="cls-4" d="M22,231a2.78,2.78,0,0,1-2.53,1.36A2.35,2.35,0,0,1,16.87,230c0-1.85,1.58-2.81,3.37-2.81a4.53,4.53,0,0,1,1.68.31v-1c0-1.34-.58-2-1.72-2a5.75,5.75,0,0,0-2.64.88,1.6,1.6,0,0,1-.09-.61,2,2,0,0,1,.2-.9,7.43,7.43,0,0,1,2.94-.63c2,0,2.84.95,2.84,3.42v3.49a1.58,1.58,0,0,0,.24.94,5.68,5.68,0,0,0,1.25-.22,1.56,1.56,0,0,1,0,.2,1.86,1.86,0,0,1-.18.81,4.55,4.55,0,0,1-1.95.52,1.92,1.92,0,0,1-.76-1.36Zm0-2.76a5.86,5.86,0,0,0-1.26-.14c-1.41,0-2.21.63-2.21,1.58a1.46,1.46,0,0,0,1.65,1.44,2.27,2.27,0,0,0,1.82-.88Z"/><path class="cls-4" d="M31.48,228a2.89,2.89,0,0,0,2.95,3.11,8.36,8.36,0,0,0,2.53-.5,1.94,1.94,0,0,1-.23,1,6.28,6.28,0,0,1-2.86.73c-2.59,0-4.07-1.92-4.07-4.41,0-2.64,1.65-4.75,4.18-4.75,2.17,0,3.09,1.57,3.09,3.83,0,.31,0,.63,0,1Zm4-1.05c.13-1.24-.23-2.75-1.75-2.75-1.29,0-2.12,1.12-2.23,2.75Z"/><path class="cls-4" d="M41.55,231a7.46,7.46,0,0,1,1.33.23,2.79,2.79,0,0,1,0,.87H38.57a2.73,2.73,0,0,1,.25-.81,6.31,6.31,0,0,1,1.16-.34v-6.4H38.66a2.12,2.12,0,0,1,.33-1,4.7,4.7,0,0,1,1.5-.25,2.87,2.87,0,0,1,.85.11v1.31h.18a3.19,3.19,0,0,1,2.86-1.53,2.13,2.13,0,0,1,2.4,1.64h.09a3.16,3.16,0,0,1,2.91-1.64c1.41,0,2.66.45,2.66,3.24,0,1.53,0,3-.11,4.52a9.47,9.47,0,0,1,1.47.23,3.06,3.06,0,0,1,.05.56,1.62,1.62,0,0,1,0,.31H49.55a2.25,2.25,0,0,1,.25-.81,5.65,5.65,0,0,1,1-.34V226.7c0-1.38-.41-2.27-1.66-2.27A3.14,3.14,0,0,0,47,225.59V231a7.22,7.22,0,0,1,1.32.25,2.79,2.79,0,0,1,0,.87H44.14a2.73,2.73,0,0,1,.25-.81,6.21,6.21,0,0,1,1-.34V226.7c0-1.38-.41-2.27-1.66-2.27a3.11,3.11,0,0,0-2.21,1.16Z"/><path class="cls-4" d="M54.92,224.52a2.11,2.11,0,0,1,.32-1,5.48,5.48,0,0,1,1.63-.25,3.47,3.47,0,0,1,.94.11V231a9.88,9.88,0,0,1,1.43.25,2.38,2.38,0,0,1,0,.56c0,.11,0,.2,0,.31H54.83a2.47,2.47,0,0,1,.25-.81,6.31,6.31,0,0,1,1.16-.34v-6.4Zm3.16-4.19a1,1,0,0,1-1,1.06.93.93,0,0,1-1-1.06,1,1,0,0,1,1-1A.93.93,0,0,1,58.08,220.33Z"/><path class="cls-4" d="M61.66,221.32a3.13,3.13,0,0,1,1.22-.29v2.49H65.5a4.79,4.79,0,0,1,0,1H62.88v4.95c0,1.17.16,1.68,1.17,1.68a6.81,6.81,0,0,0,1.68-.24,1.1,1.1,0,0,1,0,.24,1.6,1.6,0,0,1-.18.7,5.92,5.92,0,0,1-2.22.48c-1.4,0-2.1-.75-2.1-2.61,0-1.06,0-3.38.09-5.2H60.09a2.86,2.86,0,0,1,.22-.94,6.16,6.16,0,0,1,1-.32Z"/><path class="cls-4" d="M66.76,224.52a2.12,2.12,0,0,1,.33-1,5.42,5.42,0,0,1,1.63-.25,3.56,3.56,0,0,1,.94.11V231a9.5,9.5,0,0,1,1.42.25,2.34,2.34,0,0,1,.06.56,1.62,1.62,0,0,1,0,.31H66.67a2.48,2.48,0,0,1,.26-.81,6.2,6.2,0,0,1,1.15-.34v-6.4Zm3.17-4.19a1,1,0,0,1-1,1.06.94.94,0,0,1-1-1.06,1,1,0,0,1,1-1A.93.93,0,0,1,69.93,220.33Z"/><path class="cls-4" d="M78.43,220.11H77.12a2.12,2.12,0,0,1,.33-1,5.17,5.17,0,0,1,1.63-.25,3.82,3.82,0,0,1,.92.1v10.68a5.23,5.23,0,0,0,.14,1.28H81.5a1,1,0,0,1,0,.23,2,2,0,0,1-.15.72,9.87,9.87,0,0,1-2.44.36,3.24,3.24,0,0,1-.36-1.29h-.09a2.91,2.91,0,0,1-2.71,1.38c-1.57,0-3.36-1.08-3.36-4.34,0-2.89,1.79-4.82,4.37-4.82a3.16,3.16,0,0,1,1.65.43Zm0,4.43a4.9,4.9,0,0,0-1.5-.25c-2,0-2.89,1.4-2.89,3.49s1,3.37,2.33,3.37a2.35,2.35,0,0,0,2.06-1.08Z"/><path class="cls-4" d="M91,227.66c0,3-1.61,4.71-4.11,4.71s-4.12-1.62-4.12-4.71c0-2.76,1.77-4.45,4.12-4.45S91,224.79,91,227.66Zm-4.11,3.63c1.67,0,2.46-1.4,2.46-3.63,0-1.93-1-3.39-2.46-3.39s-2.48,1.35-2.48,3.39C84.39,229.85,85.33,231.29,86.87,231.29Z"/><path class="cls-4" d="M96.17,220.11a2.11,2.11,0,0,1,.32-1,5.17,5.17,0,0,1,1.63-.25,3.76,3.76,0,0,1,.92.1V231a10.46,10.46,0,0,1,1.47.25,3.06,3.06,0,0,1,0,.56,1.62,1.62,0,0,1,0,.31H96.06a2.47,2.47,0,0,1,.25-.81,6.31,6.31,0,0,1,1.16-.34V220.11Z"/><path class="cls-4" d="M106.85,231a2.77,2.77,0,0,1-2.53,1.36,2.35,2.35,0,0,1-2.57-2.41c0-1.85,1.58-2.81,3.37-2.81a4.45,4.45,0,0,1,1.68.31v-1c0-1.34-.58-2-1.72-2a5.75,5.75,0,0,0-2.64.88,1.6,1.6,0,0,1-.09-.61,2,2,0,0,1,.2-.9,7.48,7.48,0,0,1,3-.63c2,0,2.84.95,2.84,3.42v3.49a1.66,1.66,0,0,0,.23.94,5.58,5.58,0,0,0,1.25-.22.79.79,0,0,1,0,.2,2,2,0,0,1-.18.81,4.64,4.64,0,0,1-2,.52,1.92,1.92,0,0,1-.76-1.36Zm0-2.76a6,6,0,0,0-1.27-.14c-1.41,0-2.2.63-2.2,1.58a1.45,1.45,0,0,0,1.64,1.44,2.27,2.27,0,0,0,1.83-.88Z"/><path class="cls-4" d="M116,220.83c-.42,0-.94,0-1.34-.05a4.3,4.3,0,0,1,0-1.08c1.42-.15,3.39-.25,4.77-.25,3.51,0,6.35,2.16,6.35,6.14,0,4.61-2.77,6.55-5.81,6.55-1.63,0-3.89,0-5.57-.09a5.5,5.5,0,0,1,.22-1,10.87,10.87,0,0,1,1.41-.24ZM117.61,231c.55,0,1.21.06,1.76.06,2.87,0,4.57-1.53,4.57-5.33a4.72,4.72,0,0,0-4.9-5.12c-.34,0-1.08,0-1.43.06Z"/><path class="cls-4" d="M126.87,232.07a4.6,4.6,0,0,1,.22-1,10.93,10.93,0,0,1,1.41-.23V220.72a12.12,12.12,0,0,1-1.34-.12,4.42,4.42,0,0,1,0-1h4.56a2.65,2.65,0,0,1,0,1,11.6,11.6,0,0,1-1.49.14V230.9a12.77,12.77,0,0,1,1.61.18,2.56,2.56,0,0,1,.07.7c0,.11,0,.16,0,.29Z"/><path class="cls-4" d="M143.18,231.64a16.72,16.72,0,0,1-4.39.79c-3.58,0-5.66-2.5-5.66-6.23,0-4.21,2.58-7,6.63-7a6.37,6.37,0,0,1,3.51.94A16.8,16.8,0,0,1,143,223a3.59,3.59,0,0,1-1.25-.29v-1.73a4.1,4.1,0,0,0-2.21-.61c-2.51,0-4.7,1.82-4.7,5.6,0,3.58,1.83,5.26,4.4,5.26a14.39,14.39,0,0,0,2.29-.22v-3.8a22.07,22.07,0,0,1-2.46-.18,4,4,0,0,1-.12-1.06h5.75a7.16,7.16,0,0,1-.17,1.1,12.11,12.11,0,0,1-1.39.14Z"/><path class="cls-4" d="M145.57,232.07a4.6,4.6,0,0,1,.22-1,10.93,10.93,0,0,1,1.41-.23V220.72a12.12,12.12,0,0,1-1.34-.12,3.94,3.94,0,0,1,0-1h8.57v2.65a4.9,4.9,0,0,1-1-.13,10,10,0,0,1-.22-1.42h-4.3v4.57h3.42a6.37,6.37,0,0,1,.18-1,4.5,4.5,0,0,1,1-.14v3.31a3.34,3.34,0,0,1-1.05-.07,8.66,8.66,0,0,1-.16-1.05h-3.42v4.61h4.38a12.17,12.17,0,0,1,.21-1.54,5,5,0,0,1,1.12-.13v2.81Z"/><path class="cls-4" d="M164.23,220.76a4.63,4.63,0,0,0-1.95-.39c-2.41,0-4.36,1.78-4.36,5.25,0,3.69,1.75,5.4,4.32,5.4a11.38,11.38,0,0,0,3.38-.63,2.85,2.85,0,0,1-.2,1.14,9.22,9.22,0,0,1-3.85.9c-3.23,0-5.42-2.68-5.42-6.34,0-4.32,2.84-6.88,6.24-6.88a7.54,7.54,0,0,1,3.34.69,18.14,18.14,0,0,1-.22,3,3.56,3.56,0,0,1-1.28-.29Z"/><path class="cls-4" d="M175,232.07a4,4,0,0,1,.23-1,8.75,8.75,0,0,1,1.34-.21,7.28,7.28,0,0,1-.71-1.39l-.57-1.53h-4.8l-.59,1.62a8.44,8.44,0,0,1-.65,1.35,11.91,11.91,0,0,1,1.52.16,4.74,4.74,0,0,1,.14,1h-4.3a3.06,3.06,0,0,1,.29-1,4.7,4.7,0,0,1,.95-.19l4.67-11.6h1.16l4.48,11.56a9.46,9.46,0,0,1,1.14.16,4.82,4.82,0,0,1,.2,1Zm-2.17-10.73a13.73,13.73,0,0,1-.51,1.73L170.9,227h4L173.44,223a9.65,9.65,0,0,1-.46-1.69Z"/><path class="cls-4" d="M184.34,224.43a17.7,17.7,0,0,1-1-3.67h-.13v10.17a9.71,9.71,0,0,1,1.27.18,3.41,3.41,0,0,1,0,1h-4.05a4.33,4.33,0,0,1,.2-.92,8.31,8.31,0,0,1,1.28-.23v-10.2a12,12,0,0,1-1.32-.12,4,4,0,0,1,0-1h3.74l2.68,7.62a20.14,20.14,0,0,1,.85,3.08H188a21.64,21.64,0,0,1,.91-3.08l2.76-7.62h3.69a2.65,2.65,0,0,1,0,1,11,11,0,0,1-1.47.14V230.9a12.77,12.77,0,0,1,1.61.18,2.56,2.56,0,0,1,.07.7c0,.11,0,.16,0,.29h-4.76a6.3,6.3,0,0,1,.2-1,10.35,10.35,0,0,1,1.32-.23V220.76h-.13a18.83,18.83,0,0,1-1,3.71l-2.87,7.83h-1Z"/><path class="cls-4" d="M202.3,228a2.88,2.88,0,0,0,2.94,3.11,8.3,8.3,0,0,0,2.53-.5,1.94,1.94,0,0,1-.23,1,6.28,6.28,0,0,1-2.86.73c-2.58,0-4.07-1.92-4.07-4.41,0-2.64,1.65-4.75,4.18-4.75,2.17,0,3.09,1.57,3.09,3.83a7.92,7.92,0,0,1,0,1Zm4-1.05c.13-1.24-.23-2.75-1.75-2.75-1.28,0-2.12,1.12-2.22,2.75Z"/><path class="cls-4" d="M212.37,231a7.5,7.5,0,0,1,1.32.23,2.79,2.79,0,0,1,0,.87h-4.34a2.48,2.48,0,0,1,.26-.81,6.2,6.2,0,0,1,1.15-.34v-6.4h-1.31a2,2,0,0,1,.32-1,4.7,4.7,0,0,1,1.5-.25,2.82,2.82,0,0,1,.85.11v1.31h.18a3.27,3.27,0,0,1,2.91-1.53c1.43,0,2.7.45,2.7,3.24,0,1.51,0,3-.11,4.52a9.14,9.14,0,0,1,1.46.23,2.34,2.34,0,0,1,.06.56,1.62,1.62,0,0,1,0,.31H215a2.48,2.48,0,0,1,.26-.81,5.65,5.65,0,0,1,1-.34V226.7c0-1.38-.44-2.27-1.7-2.27a3.19,3.19,0,0,0-2.26,1.16Z"/><path class="cls-4" d="M224,220.11a2,2,0,0,1,.33-1,5.11,5.11,0,0,1,1.62-.25,3.76,3.76,0,0,1,.92.1V231a10.21,10.21,0,0,1,1.47.25,2.38,2.38,0,0,1,0,.56c0,.11,0,.2,0,.31h-4.49a2.73,2.73,0,0,1,.25-.81,6.31,6.31,0,0,1,1.16-.34V220.11Z"/><path class="cls-4" d="M237.83,227.66c0,3-1.61,4.71-4.11,4.71s-4.12-1.62-4.12-4.71c0-2.76,1.77-4.45,4.12-4.45S237.83,224.79,237.83,227.66Zm-4.11,3.63c1.67,0,2.46-1.4,2.46-3.63,0-1.93-1-3.39-2.46-3.39s-2.47,1.35-2.47,3.39C231.25,229.85,232.19,231.29,233.72,231.29Z"/><path class="cls-4" d="M244.07,224.36a2.94,2.94,0,0,0-1.07-.21c-.94,0-1.48.43-1.48,1.09,0,2,4.21,1.41,4.21,4.54,0,1.87-1.57,2.59-3.25,2.59a5.55,5.55,0,0,1-2.77-.68,4.29,4.29,0,0,1-.09-.86,5.19,5.19,0,0,1,.18-1.28,5.14,5.14,0,0,1,1.3.16V231a2.89,2.89,0,0,0,1.52.42,1.36,1.36,0,0,0,1.52-1.35c0-2.15-4.25-1.37-4.25-4.56,0-1.31,1.21-2.25,3-2.25a6.89,6.89,0,0,1,2.55.47,2.46,2.46,0,0,1,0,.56,5.77,5.77,0,0,1-.2,1.45,2.66,2.66,0,0,1-1.21-.27Z"/><path class="cls-4" d="M6.78,251.52H5.48a2.11,2.11,0,0,1,.32-1,4.9,4.9,0,0,1,1.63-.25,3.32,3.32,0,0,1,.92.11v6.26A5.14,5.14,0,0,0,8.5,258H9.87a1,1,0,0,1,0,.23,2.25,2.25,0,0,1-.14.72,10.46,10.46,0,0,1-2.48.36,3.58,3.58,0,0,1-.36-1.42H6.82a3.22,3.22,0,0,1-2.88,1.51c-1.41,0-2.66-.45-2.66-3.24,0-1.51,0-3.09.09-4.61H0a2.17,2.17,0,0,1,.33-.93A4.89,4.89,0,0,1,2,250.32a3.32,3.32,0,0,1,.92.11v5.45c0,1.37.44,2.25,1.67,2.25A3.09,3.09,0,0,0,6.78,257Zm-2.44-2.16a2.52,2.52,0,0,1-.92-.77l2-2.81a3.62,3.62,0,0,1,1.59.63Z"/><path class="cls-4" d="M11,247.11a2.12,2.12,0,0,1,.33-1,5.17,5.17,0,0,1,1.63-.25,3.82,3.82,0,0,1,.92.1V258a10.31,10.31,0,0,1,1.46.25,2.34,2.34,0,0,1,.06.56,1.62,1.62,0,0,1,0,.31H10.89a2.25,2.25,0,0,1,.25-.81,6.09,6.09,0,0,1,1.16-.34V247.11Z"/><path class="cls-4" d="M17.74,248.32A3.12,3.12,0,0,1,19,248v2.49h2.62a4.73,4.73,0,0,1,.06,1H19v4.95c0,1.17.16,1.68,1.18,1.68a6.87,6.87,0,0,0,1.68-.24,1.1,1.1,0,0,1,0,.24,1.48,1.48,0,0,1-.19.7,5.92,5.92,0,0,1-2.22.48c-1.39,0-2.1-.75-2.1-2.61,0-1.06,0-3.38.09-5.2H16.17a2.84,2.84,0,0,1,.21-.94,6.44,6.44,0,0,1,1.05-.32Z"/><path class="cls-4" d="M22.84,251.52a2.11,2.11,0,0,1,.32-1,5.48,5.48,0,0,1,1.63-.25,3.47,3.47,0,0,1,.94.11V258a9.88,9.88,0,0,1,1.43.25,2.38,2.38,0,0,1,.05.56c0,.11,0,.2,0,.31H22.75a2.47,2.47,0,0,1,.25-.81,6.31,6.31,0,0,1,1.16-.34v-6.4ZM26,247.33a1,1,0,0,1-1,1.06.93.93,0,0,1-1-1.06,1,1,0,0,1,1-1A.93.93,0,0,1,26,247.33Z"/><path class="cls-4" d="M31.25,258a7.5,7.5,0,0,1,1.32.23,2.79,2.79,0,0,1,0,.87H28.26a2.48,2.48,0,0,1,.26-.81,6.2,6.2,0,0,1,1.15-.34v-6.4H28.35a2.12,2.12,0,0,1,.33-1,4.7,4.7,0,0,1,1.5-.25,2.82,2.82,0,0,1,.85.11v1.31h.18a3.21,3.21,0,0,1,2.86-1.53,2.13,2.13,0,0,1,2.4,1.64h.09a3.18,3.18,0,0,1,2.91-1.64c1.41,0,2.66.45,2.66,3.24,0,1.53,0,3-.11,4.52a9.28,9.28,0,0,1,1.47.23,3.06,3.06,0,0,1,0,.56,1.62,1.62,0,0,1,0,.31H39.24a2.73,2.73,0,0,1,.25-.81,5.92,5.92,0,0,1,1-.34V253.7c0-1.38-.41-2.27-1.66-2.27a3.14,3.14,0,0,0-2.21,1.16V258a7.06,7.06,0,0,1,1.32.25,2.51,2.51,0,0,1,0,.87H33.83a2.48,2.48,0,0,1,.26-.81,5.65,5.65,0,0,1,1-.34V253.7c0-1.38-.42-2.27-1.67-2.27a3.09,3.09,0,0,0-2.2,1.16Z"/><path class="cls-4" d="M53,254.66c0,3-1.6,4.71-4.1,4.71s-4.12-1.62-4.12-4.71c0-2.76,1.77-4.45,4.12-4.45S53,251.79,53,254.66Zm-4.1,3.63c1.66,0,2.46-1.4,2.46-3.63,0-1.93-1-3.39-2.46-3.39s-2.48,1.35-2.48,3.39C46.38,256.85,47.32,258.29,48.86,258.29Z"/><path class="cls-4" d="M59.2,251.36a2.84,2.84,0,0,0-1.06-.21c-.94,0-1.49.43-1.49,1.09,0,2,4.22,1.41,4.22,4.54,0,1.87-1.58,2.59-3.26,2.59a5.48,5.48,0,0,1-2.76-.68,3.66,3.66,0,0,1-.09-.86,5.19,5.19,0,0,1,.18-1.28,5.2,5.2,0,0,1,1.3.16V258a2.84,2.84,0,0,0,1.52.42A1.37,1.37,0,0,0,59.28,257c0-2.15-4.25-1.37-4.25-4.56,0-1.31,1.21-2.25,3-2.25a6.93,6.93,0,0,1,2.55.47,3.26,3.26,0,0,1,0,.56,6.29,6.29,0,0,1-.19,1.45,2.7,2.7,0,0,1-1.22-.27Z"/><path class="cls-4" d="M72.66,255.21A3,3,0,0,1,70,256.55a3.31,3.31,0,0,1-3.56-3.48,3.62,3.62,0,0,1,3.81-3.78c2.73,0,4.2,1.89,4.2,5.29,0,4-2.37,6.54-5.41,6.54a7,7,0,0,1-2.24-.43,2.22,2.22,0,0,1-.25-1.26,7.66,7.66,0,0,0,2.35.38c2,0,3.67-1.66,3.9-4.6Zm-2.43-4.87c-1.39,0-2.18,1.06-2.18,2.62a2.22,2.22,0,0,0,2.37,2.45,3,3,0,0,0,2.33-1.22C72.75,251.63,72,250.34,70.23,250.34Z"/><path class="cls-4" d="M85,258a2.77,2.77,0,0,1-2.53,1.36A2.34,2.34,0,0,1,80,257c0-1.85,1.57-2.81,3.36-2.81a4.45,4.45,0,0,1,1.68.31v-1c0-1.34-.58-2-1.72-2a5.75,5.75,0,0,0-2.64.88,1.6,1.6,0,0,1-.09-.61,2,2,0,0,1,.2-.9,7.48,7.48,0,0,1,3-.63c2,0,2.84.95,2.84,3.42v3.49a1.66,1.66,0,0,0,.23.94,5.58,5.58,0,0,0,1.25-.22.79.79,0,0,1,0,.2,1.86,1.86,0,0,1-.18.81,4.64,4.64,0,0,1-2,.52,1.92,1.92,0,0,1-.76-1.36Zm0-2.76a6,6,0,0,0-1.27-.14c-1.41,0-2.2.63-2.2,1.58a1.45,1.45,0,0,0,1.64,1.44,2.27,2.27,0,0,0,1.83-.88Z"/><path class="cls-4" d="M91.93,258a7.18,7.18,0,0,1,1.32.23,2.51,2.51,0,0,1,0,.87H89a2.73,2.73,0,0,1,.25-.81,6.31,6.31,0,0,1,1.16-.34v-6.4H89a2.12,2.12,0,0,1,.33-1,4.65,4.65,0,0,1,1.5-.25,2.91,2.91,0,0,1,.85.11v1.31h.18a3.24,3.24,0,0,1,2.91-1.53c1.43,0,2.69.45,2.69,3.24,0,1.51,0,3-.11,4.52a9.28,9.28,0,0,1,1.47.23,2.38,2.38,0,0,1,0,.56c0,.11,0,.2,0,.31H94.61a2.73,2.73,0,0,1,.25-.81,5.92,5.92,0,0,1,1-.34V253.7c0-1.38-.43-2.27-1.7-2.27a3.19,3.19,0,0,0-2.26,1.16ZM97,247A1.86,1.86,0,0,1,95.21,249c-.83,0-1.52-.78-2.23-.78a1,1,0,0,0-.94.76,1,1,0,0,1-.67-.4,1.8,1.8,0,0,1,1.85-1.67c1,0,1.43.74,2.22.74a.87.87,0,0,0,.85-.72A1.58,1.58,0,0,1,97,247Z"/><path class="cls-4" d="M108.33,254.66c0,3-1.6,4.71-4.1,4.71s-4.12-1.62-4.12-4.71c0-2.76,1.77-4.45,4.12-4.45S108.33,251.79,108.33,254.66Zm-4.1,3.63c1.66,0,2.46-1.4,2.46-3.63,0-1.93-1-3.39-2.46-3.39s-2.48,1.35-2.48,3.39C101.75,256.85,102.69,258.29,104.23,258.29Z"/><path class="cls-4" d="M114.57,251.36a2.84,2.84,0,0,0-1.06-.21c-.94,0-1.49.43-1.49,1.09,0,2,4.22,1.41,4.22,4.54,0,1.87-1.58,2.59-3.26,2.59a5.48,5.48,0,0,1-2.76-.68,3.66,3.66,0,0,1-.09-.86,5.19,5.19,0,0,1,.18-1.28,5.2,5.2,0,0,1,1.3.16V258a2.84,2.84,0,0,0,1.52.42,1.37,1.37,0,0,0,1.52-1.35c0-2.15-4.25-1.37-4.25-4.56,0-1.31,1.21-2.25,3-2.25a6.93,6.93,0,0,1,2.55.47,3.26,3.26,0,0,1,0,.56,6.29,6.29,0,0,1-.19,1.45,2.7,2.7,0,0,1-1.22-.27Z"/><path class="cls-4" d="M124,262.07a9.72,9.72,0,0,1,1.72.33,2.54,2.54,0,0,1,0,.83H121a2.73,2.73,0,0,1,.25-.81,7.19,7.19,0,0,1,1.16-.35V251.52H121.1a2.12,2.12,0,0,1,.33-1,4.85,4.85,0,0,1,1.5-.25,2.87,2.87,0,0,1,.85.11v1.17H124a2.81,2.81,0,0,1,2.66-1.39c1.59,0,3.41,1.08,3.41,4.34,0,2.9-1.82,4.82-4.43,4.82a3.1,3.1,0,0,1-1.59-.43Zm0-4a4.62,4.62,0,0,0,1.5.25c2,0,2.89-1.42,2.89-3.51s-1-3.38-2.33-3.38a2.38,2.38,0,0,0-2.06,1.1Z"/><path class="cls-4" d="M136.85,258a2.77,2.77,0,0,1-2.53,1.36,2.35,2.35,0,0,1-2.57-2.41c0-1.85,1.58-2.81,3.37-2.81a4.49,4.49,0,0,1,1.68.31v-1c0-1.34-.58-2-1.72-2a5.75,5.75,0,0,0-2.64.88,1.6,1.6,0,0,1-.09-.61,2,2,0,0,1,.2-.9,7.44,7.44,0,0,1,2.95-.63c2,0,2.83.95,2.83,3.42v3.49a1.58,1.58,0,0,0,.24.94,5.68,5.68,0,0,0,1.25-.22,1.56,1.56,0,0,1,0,.2,1.86,1.86,0,0,1-.18.81,4.55,4.55,0,0,1-2,.52,1.92,1.92,0,0,1-.76-1.36Zm0-2.76a6,6,0,0,0-1.27-.14c-1.41,0-2.21.63-2.21,1.58a1.46,1.46,0,0,0,1.65,1.44,2.3,2.3,0,0,0,1.83-.88Z"/><path class="cls-4" d="M143.71,252.14a2.41,2.41,0,0,1,2.35-1.93,2.6,2.6,0,0,1,.81.14,2.31,2.31,0,0,1,.23,1.08,1.85,1.85,0,0,1,0,.49,2.5,2.5,0,0,0-1.23-.31,2.24,2.24,0,0,0-2.08,1.48v4.83a8.77,8.77,0,0,1,1.79.32,2.54,2.54,0,0,1,0,.83h-4.81a2.25,2.25,0,0,1,.25-.81,6.31,6.31,0,0,1,1.16-.34v-6.4h-1.32a2.11,2.11,0,0,1,.32-1,4.9,4.9,0,0,1,1.5-.25,2.82,2.82,0,0,1,.85.11v1.71Z"/><path class="cls-4" d="M153.13,258a2.79,2.79,0,0,1-2.54,1.36A2.34,2.34,0,0,1,148,257c0-1.85,1.57-2.81,3.36-2.81a4.45,4.45,0,0,1,1.68.31v-1c0-1.34-.58-2-1.72-2a5.83,5.83,0,0,0-2.64.88,1.6,1.6,0,0,1-.09-.61,2,2,0,0,1,.2-.9,7.48,7.48,0,0,1,3-.63c2,0,2.84.95,2.84,3.42v3.49a1.66,1.66,0,0,0,.23.94,5.49,5.49,0,0,0,1.25-.22.79.79,0,0,1,0,.2,1.86,1.86,0,0,1-.18.81,4.64,4.64,0,0,1-2,.52,1.85,1.85,0,0,1-.76-1.36Zm0-2.76a5.88,5.88,0,0,0-1.27-.14c-1.41,0-2.2.63-2.2,1.58a1.46,1.46,0,0,0,1.64,1.44,2.27,2.27,0,0,0,1.83-.88Z"/><path class="cls-4" d="M162.06,248.32a3.12,3.12,0,0,1,1.21-.29v2.49h2.62a4.73,4.73,0,0,1,.06,1h-2.68v4.95c0,1.17.16,1.68,1.18,1.68a6.87,6.87,0,0,0,1.68-.24,1.1,1.1,0,0,1,0,.24,1.48,1.48,0,0,1-.19.7,5.92,5.92,0,0,1-2.22.48c-1.39,0-2.1-.75-2.1-2.61,0-1.06,0-3.38.09-5.2h-1.24a2.84,2.84,0,0,1,.21-.94,6.44,6.44,0,0,1,1.05-.32Z"/><path class="cls-4" d="M168.61,255a2.88,2.88,0,0,0,2.94,3.11,8.3,8.3,0,0,0,2.53-.5,1.94,1.94,0,0,1-.23,1,6.28,6.28,0,0,1-2.86.73c-2.58,0-4.07-1.92-4.07-4.41,0-2.64,1.65-4.75,4.18-4.75,2.17,0,3.09,1.57,3.09,3.83,0,.31,0,.63-.05,1Zm4-1.05c.13-1.24-.23-2.75-1.75-2.75-1.28,0-2.12,1.12-2.22,2.75Z"/><path class="cls-4" d="M178.68,258a7.5,7.5,0,0,1,1.32.23,2.79,2.79,0,0,1,0,.87h-4.34a2.48,2.48,0,0,1,.26-.81,6.2,6.2,0,0,1,1.15-.34v-6.4h-1.31a2,2,0,0,1,.32-1,4.7,4.7,0,0,1,1.5-.25,2.82,2.82,0,0,1,.85.11v1.31h.18a3.27,3.27,0,0,1,2.91-1.53c1.43,0,2.7.45,2.7,3.24,0,1.51,0,3-.11,4.52a9.14,9.14,0,0,1,1.46.23,2.34,2.34,0,0,1,.06.56,1.62,1.62,0,0,1,0,.31h-4.29a2.48,2.48,0,0,1,.26-.81,5.65,5.65,0,0,1,1-.34V253.7c0-1.38-.44-2.27-1.7-2.27a3.19,3.19,0,0,0-2.26,1.16Z"/><path class="cls-4" d="M188.53,255a2.89,2.89,0,0,0,2.95,3.11,8.36,8.36,0,0,0,2.53-.5,1.94,1.94,0,0,1-.23,1,6.28,6.28,0,0,1-2.86.73c-2.59,0-4.07-1.92-4.07-4.41,0-2.64,1.65-4.75,4.18-4.75,2.17,0,3.09,1.57,3.09,3.83,0,.31,0,.63-.05,1Zm4-1.05c.13-1.24-.23-2.75-1.75-2.75-1.29,0-2.12,1.12-2.23,2.75Z"/><path class="cls-4" d="M198.61,258a7.5,7.5,0,0,1,1.32.23,2.79,2.79,0,0,1,0,.87h-4.34a2.48,2.48,0,0,1,.26-.81,6.2,6.2,0,0,1,1.15-.34v-6.4h-1.32a2.12,2.12,0,0,1,.33-1,4.7,4.7,0,0,1,1.5-.25,2.82,2.82,0,0,1,.85.11v1.31h.18a3.24,3.24,0,0,1,2.91-1.53c1.43,0,2.69.45,2.69,3.24,0,1.51,0,3-.1,4.52a9.33,9.33,0,0,1,1.46.23,2.38,2.38,0,0,1,.05.56c0,.11,0,.2,0,.31h-4.29a2.48,2.48,0,0,1,.26-.81,5.65,5.65,0,0,1,1-.34V253.7c0-1.38-.44-2.27-1.7-2.27a3.17,3.17,0,0,0-2.26,1.16Z"/><path class="cls-4" d="M212.22,251.52a2.31,2.31,0,0,0-1.05-.27c-1.55,0-2.67,1-2.67,3.39s1.19,3.49,2.82,3.49a7.6,7.6,0,0,0,2.22-.43,2.17,2.17,0,0,1-.25,1,6.53,6.53,0,0,1-2.68.64c-2.33,0-3.83-1.87-3.83-4.39,0-2.79,1.79-4.77,4.43-4.77a4.35,4.35,0,0,1,2.37.65c0,.18,0,.47,0,.65a4.35,4.35,0,0,1-.25,1.53,3,3,0,0,1-1.14-.24Z"/><path class="cls-4" d="M215.08,251.52a2,2,0,0,1,.33-1,5.41,5.41,0,0,1,1.62-.25,3.47,3.47,0,0,1,.94.11V258a9.88,9.88,0,0,1,1.43.25,2.34,2.34,0,0,1,.06.56,1.62,1.62,0,0,1,0,.31H215a2.73,2.73,0,0,1,.25-.81,6.31,6.31,0,0,1,1.16-.34v-6.4Zm3.16-4.19a1,1,0,0,1-1,1.06.93.93,0,0,1-1-1.06,1,1,0,0,1,1-1A.93.93,0,0,1,218.24,247.33Z"/><path class="cls-4" d="M225.77,258a2.78,2.78,0,0,1-2.53,1.36,2.35,2.35,0,0,1-2.57-2.41c0-1.85,1.57-2.81,3.36-2.81a4.45,4.45,0,0,1,1.68.31v-1c0-1.34-.58-2-1.71-2a5.83,5.83,0,0,0-2.65.88,1.6,1.6,0,0,1-.09-.61,2,2,0,0,1,.2-.9,7.48,7.48,0,0,1,2.95-.63c2,0,2.84.95,2.84,3.42v3.49a1.66,1.66,0,0,0,.23.94,5.49,5.49,0,0,0,1.25-.22.79.79,0,0,1,0,.2,1.86,1.86,0,0,1-.18.81,4.64,4.64,0,0,1-1.95.52,1.85,1.85,0,0,1-.76-1.36Zm0-2.76a5.88,5.88,0,0,0-1.27-.14c-1.41,0-2.2.63-2.2,1.58a1.46,1.46,0,0,0,1.64,1.44,2.27,2.27,0,0,0,1.83-.88Z"/><path class="cls-4" d="M239.62,247.11h-1.3a2,2,0,0,1,.32-1,5.17,5.17,0,0,1,1.63-.25,3.82,3.82,0,0,1,.92.1v10.68a4.78,4.78,0,0,0,.15,1.28h1.35a1,1,0,0,1,0,.23,2.25,2.25,0,0,1-.14.72,10,10,0,0,1-2.45.36,3.41,3.41,0,0,1-.36-1.29h-.09a2.91,2.91,0,0,1-2.71,1.38c-1.57,0-3.36-1.08-3.36-4.34,0-2.89,1.79-4.82,4.37-4.82a3.16,3.16,0,0,1,1.65.43Zm0,4.43a5,5,0,0,0-1.5-.25c-2,0-2.9,1.4-2.9,3.49s1,3.37,2.34,3.37a2.38,2.38,0,0,0,2.06-1.08Z"/><path class="cls-4" d="M245.62,255a2.89,2.89,0,0,0,2.95,3.11,8.36,8.36,0,0,0,2.53-.5,1.94,1.94,0,0,1-.23,1,6.31,6.31,0,0,1-2.86.73c-2.59,0-4.07-1.92-4.07-4.41,0-2.64,1.65-4.75,4.18-4.75,2.17,0,3.09,1.57,3.09,3.83,0,.31,0,.63-.05,1Zm4-1.05c.13-1.24-.23-2.75-1.75-2.75-1.29,0-2.12,1.12-2.23,2.75Z"/><path class="cls-4" d="M16.4,285a2.77,2.77,0,0,1-2.53,1.36A2.35,2.35,0,0,1,11.3,284c0-1.85,1.58-2.81,3.37-2.81a4.49,4.49,0,0,1,1.68.31v-1c0-1.34-.58-2-1.72-2a5.75,5.75,0,0,0-2.64.88,1.6,1.6,0,0,1-.09-.61,2,2,0,0,1,.2-.9,7.43,7.43,0,0,1,2.94-.63c2,0,2.84,1,2.84,3.42v3.49a1.58,1.58,0,0,0,.24.94,5.68,5.68,0,0,0,1.25-.22,1.56,1.56,0,0,1,0,.2,1.86,1.86,0,0,1-.18.81,4.55,4.55,0,0,1-1.95.52,1.92,1.92,0,0,1-.76-1.36Zm0-2.76a6,6,0,0,0-1.27-.14c-1.41,0-2.21.63-2.21,1.58a1.46,1.46,0,0,0,1.65,1.44,2.3,2.3,0,0,0,1.83-.88Z"/><path class="cls-4" d="M23.25,279.14a2.43,2.43,0,0,1,2.36-1.93,2.6,2.6,0,0,1,.81.14,2.31,2.31,0,0,1,.23,1.08,1.85,1.85,0,0,1,0,.49,2.5,2.5,0,0,0-1.23-.31,2.24,2.24,0,0,0-2.08,1.48v4.83a8.77,8.77,0,0,1,1.79.32,2.54,2.54,0,0,1,0,.83H20.31a2.25,2.25,0,0,1,.25-.81,6.31,6.31,0,0,1,1.16-.34v-6.4H20.4a2.11,2.11,0,0,1,.32-.95,4.9,4.9,0,0,1,1.5-.25,2.82,2.82,0,0,1,.85.11v1.71Z"/><path class="cls-4" d="M30.54,285a7.33,7.33,0,0,1,1.32.23,2.79,2.79,0,0,1,0,.87H27.56a2.47,2.47,0,0,1,.25-.81,6.31,6.31,0,0,1,1.16-.34v-6.4H27.65a2.11,2.11,0,0,1,.32-.95,4.71,4.71,0,0,1,1.51-.25,2.91,2.91,0,0,1,.85.11v1.31h.18a3.18,3.18,0,0,1,2.85-1.53,2.14,2.14,0,0,1,2.41,1.64h.09a3.16,3.16,0,0,1,2.91-1.64c1.41,0,2.66.45,2.66,3.24,0,1.53,0,3-.11,4.52a9.14,9.14,0,0,1,1.46.23,2.34,2.34,0,0,1,.06.56,1.62,1.62,0,0,1,0,.31H38.53a2.48,2.48,0,0,1,.26-.81,5.65,5.65,0,0,1,1-.34V280.7c0-1.38-.42-2.27-1.67-2.27a3.12,3.12,0,0,0-2.2,1.16V285a7.39,7.39,0,0,1,1.32.25,2.79,2.79,0,0,1,0,.87H33.13a2.25,2.25,0,0,1,.25-.81,5.65,5.65,0,0,1,1-.34V280.7c0-1.38-.41-2.27-1.66-2.27a3.09,3.09,0,0,0-2.21,1.16Z"/><path class="cls-4" d="M49.08,285a2.78,2.78,0,0,1-2.53,1.36A2.35,2.35,0,0,1,44,284c0-1.85,1.57-2.81,3.36-2.81a4.45,4.45,0,0,1,1.68.31v-1c0-1.34-.58-2-1.71-2a5.75,5.75,0,0,0-2.64.88,1.43,1.43,0,0,1-.09-.61,2.15,2.15,0,0,1,.19-.9,7.48,7.48,0,0,1,2.95-.63c2,0,2.84,1,2.84,3.42v3.49a1.66,1.66,0,0,0,.23.94,5.49,5.49,0,0,0,1.25-.22.79.79,0,0,1,0,.2,1.86,1.86,0,0,1-.18.81,4.64,4.64,0,0,1-2,.52,1.89,1.89,0,0,1-.76-1.36Zm0-2.76a5.86,5.86,0,0,0-1.26-.14c-1.41,0-2.21.63-2.21,1.58a1.46,1.46,0,0,0,1.64,1.44,2.27,2.27,0,0,0,1.83-.88Z"/><path class="cls-4" d="M62.93,274.11h-1.3a2,2,0,0,1,.32-.95,5.17,5.17,0,0,1,1.63-.25,3.76,3.76,0,0,1,.92.1v10.68a4.78,4.78,0,0,0,.15,1.28H66a1,1,0,0,1,0,.23,2.25,2.25,0,0,1-.14.72,10,10,0,0,1-2.45.36,3.41,3.41,0,0,1-.36-1.29H63a2.91,2.91,0,0,1-2.71,1.38c-1.57,0-3.36-1.08-3.36-4.34,0-2.89,1.79-4.82,4.37-4.82a3.16,3.16,0,0,1,1.65.43Zm0,4.43a5,5,0,0,0-1.5-.25c-2,0-2.9,1.4-2.9,3.49s1,3.37,2.34,3.37A2.38,2.38,0,0,0,63,284.07Z"/><path class="cls-4" d="M68.93,282a2.89,2.89,0,0,0,2.95,3.11,8.36,8.36,0,0,0,2.53-.5,1.94,1.94,0,0,1-.23,1,6.28,6.28,0,0,1-2.86.73c-2.59,0-4.07-1.92-4.07-4.41s1.65-4.75,4.18-4.75c2.17,0,3.09,1.57,3.09,3.83,0,.31,0,.63,0,1Zm4-1.05c.13-1.24-.23-2.75-1.75-2.75-1.29,0-2.12,1.12-2.23,2.75Z"/><path class="cls-4" d="M85.08,277.52a8,8,0,0,1,.09,1H82.71v6.36a9.51,9.51,0,0,1,1.79.32,2.54,2.54,0,0,1,0,.83H79.73a2.47,2.47,0,0,1,.25-.81,6.31,6.31,0,0,1,1.16-.34v-6.36H79.71a3,3,0,0,1,.22-.94,8.92,8.92,0,0,1,1.21-.32v-1c0-2.43,1.48-3.41,3.18-3.41a6.69,6.69,0,0,1,2,.31,3.08,3.08,0,0,1,.06.61,4.89,4.89,0,0,1-.26,1.59,2.4,2.4,0,0,1-1.06-.29v-1.21a1.37,1.37,0,0,0-.58-.12c-1,0-1.74.48-1.74,2.34v1.37Z"/><path class="cls-4" d="M92.39,278.52H91.08a2.12,2.12,0,0,1,.33-.95,4.9,4.9,0,0,1,1.63-.25,3.36,3.36,0,0,1,.92.11v6.26A5.64,5.64,0,0,0,94.1,285h1.38a1,1,0,0,1,0,.23,2.24,2.24,0,0,1-.15.72,10.32,10.32,0,0,1-2.48.36,3.75,3.75,0,0,1-.36-1.42h-.09a3.18,3.18,0,0,1-2.87,1.51c-1.41,0-2.66-.45-2.66-3.24,0-1.51,0-3.09.09-4.61H85.61a2.15,2.15,0,0,1,.32-.93,5,5,0,0,1,1.65-.27,3.36,3.36,0,0,1,.92.11v5.45c0,1.37.43,2.25,1.66,2.25a3.09,3.09,0,0,0,2.23-1.1Z"/><path class="cls-4" d="M98.57,282a2.89,2.89,0,0,0,3,3.11,8.43,8.43,0,0,0,2.53-.5,2,2,0,0,1-.24,1,6.23,6.23,0,0,1-2.85.73c-2.59,0-4.07-1.92-4.07-4.41s1.64-4.75,4.18-4.75c2.17,0,3.09,1.57,3.09,3.83a8,8,0,0,1-.06,1Zm4-1.05c.12-1.24-.24-2.75-1.76-2.75-1.28,0-2.11,1.12-2.22,2.75Z"/><path class="cls-4" d="M107.23,285.89a1.31,1.31,0,0,1-.87-1.28,1.88,1.88,0,0,1,1-1.53V283a2.83,2.83,0,0,1-1.16-2.56,3.19,3.19,0,0,1,3.47-3.22,4.17,4.17,0,0,1,2,.5,4.33,4.33,0,0,1,1.75-.34,2.62,2.62,0,0,1,.78.11,5.13,5.13,0,0,1,.14,1.08H112.6a3.26,3.26,0,0,1,.53,1.87c0,2-1.3,3.21-3.46,3.21a4.82,4.82,0,0,1-1.46-.2,1.13,1.13,0,0,0-.27.74c0,.7,1,.83,2.62.83,2.1,0,3.71.45,3.71,2.37,0,2.16-2.1,3.23-4.54,3.23-2.14,0-4.07-.89-4.07-2.7a2.06,2.06,0,0,1,1.57-1.93Zm0,1.8c0,1.26,1.46,1.89,2.8,1.89s2.77-.63,2.77-1.86c0-.9-.69-1.35-2.55-1.35a9.57,9.57,0,0,1-2.06-.18A1.59,1.59,0,0,0,107.18,287.69Zm2.49-5c1.25,0,1.85-.88,1.85-2.25s-.71-2.25-1.85-2.25-1.88.83-1.88,2.25S108.5,282.68,109.67,282.68Z"/><path class="cls-4" d="M123.89,281.66c0,3-1.61,4.71-4.11,4.71s-4.12-1.62-4.12-4.71c0-2.76,1.77-4.45,4.12-4.45S123.89,278.79,123.89,281.66Zm-4.11,3.63c1.66,0,2.46-1.4,2.46-3.63,0-1.93-1-3.39-2.46-3.39s-2.48,1.35-2.48,3.39S118.24,285.29,119.78,285.29Z"/><path class="cls-4" d="M128,285.1a1.07,1.07,0,0,1-1.12,1.18,1,1,0,0,1-1.16-1.18,1.09,1.09,0,0,1,1.16-1.1A1,1,0,0,1,128,285.1Z"/><path class="cls-4" d="M133.71,286.07a4,4,0,0,1,.21-1,11.53,11.53,0,0,1,1.41-.23V274.72a11.92,11.92,0,0,1-1.33-.12,3.55,3.55,0,0,1,0-1h8.57v2.65a4.82,4.82,0,0,1-1-.13,10,10,0,0,1-.22-1.42H137v4.57h3.41a6.37,6.37,0,0,1,.18-1,4.67,4.67,0,0,1,1-.14v3.31a3.34,3.34,0,0,1-1-.07,7.14,7.14,0,0,1-.17-1.05H137v4.61h4.37a14.26,14.26,0,0,1,.22-1.54,4.92,4.92,0,0,1,1.12-.13v2.81Z"/><path class="cls-4" d="M144,274.11a2.12,2.12,0,0,1,.33-.95,5.12,5.12,0,0,1,1.63-.25,3.82,3.82,0,0,1,.92.1V285a10.31,10.31,0,0,1,1.46.25,2.34,2.34,0,0,1,.06.56,1.62,1.62,0,0,1,0,.31h-4.48a2.25,2.25,0,0,1,.25-.81,6.09,6.09,0,0,1,1.16-.34V274.11Z"/><path class="cls-4" d="M154.47,275.32a3.12,3.12,0,0,1,1.21-.29v2.49h2.62a4.79,4.79,0,0,1,0,1h-2.67v4.95c0,1.17.16,1.68,1.17,1.68a6.81,6.81,0,0,0,1.68-.24,1.1,1.1,0,0,1,0,.24,1.6,1.6,0,0,1-.18.7,5.92,5.92,0,0,1-2.22.48c-1.4,0-2.1-.75-2.1-2.61,0-1.06,0-3.38.09-5.2h-1.25a2.86,2.86,0,0,1,.22-.94,6.16,6.16,0,0,1,1-.32Z"/><path class="cls-4" d="M167.56,281.66c0,3-1.61,4.71-4.11,4.71s-4.12-1.62-4.12-4.71c0-2.76,1.77-4.45,4.12-4.45S167.56,278.79,167.56,281.66Zm-4.11,3.63c1.67,0,2.46-1.4,2.46-3.63,0-1.93-1-3.39-2.46-3.39s-2.48,1.35-2.48,3.39S161.92,285.29,163.45,285.29Z"/><path class="cls-4" d="M171.75,289.07a9.72,9.72,0,0,1,1.72.33,2.84,2.84,0,0,1,0,.83h-4.74a2.47,2.47,0,0,1,.25-.81,7.19,7.19,0,0,1,1.16-.35V278.52h-1.34a2.12,2.12,0,0,1,.33-.95,4.8,4.8,0,0,1,1.5-.25,2.91,2.91,0,0,1,.85.11v1.17h.18a2.81,2.81,0,0,1,2.66-1.39c1.59,0,3.41,1.08,3.41,4.34,0,2.9-1.82,4.82-4.43,4.82a3.1,3.1,0,0,1-1.59-.43Zm0-4a4.73,4.73,0,0,0,1.51.25c2,0,2.89-1.42,2.89-3.51s-1-3.38-2.33-3.38a2.39,2.39,0,0,0-2.07,1.1Z"/><path class="cls-4" d="M184.61,282a2.55,2.55,0,0,1,0-.44c1.73-.05,3.68-.83,3.68-2.41,0-1.22-1-1.64-1.93-1.64a6.89,6.89,0,0,0-1.75.29V279a3.19,3.19,0,0,1-1.29.27,7.07,7.07,0,0,1-.2-1.55c0-.23,0-.59,0-.81a10.2,10.2,0,0,1,3.4-.63c1.79,0,3.49.74,3.49,2.58a3.41,3.41,0,0,1-2.48,3V282c1.32.16,2.79.92,2.79,2.49,0,2.35-2.46,3.65-4.83,3.65a10.73,10.73,0,0,1-2.46-.32,2.53,2.53,0,0,1-.27-1.07.82.82,0,0,1,0-.21,10.18,10.18,0,0,0,2.58.34c1.56,0,3.17-.56,3.17-2.21,0-1.25-1.18-2-3.87-2A1.67,1.67,0,0,1,184.61,282Z"/><path class="cls-4" d="M201.9,274.11h-1.31a2.12,2.12,0,0,1,.33-.95,5.17,5.17,0,0,1,1.63-.25,3.82,3.82,0,0,1,.92.1v10.68a5.23,5.23,0,0,0,.14,1.28H205a1,1,0,0,1,0,.23,2,2,0,0,1-.15.72,9.87,9.87,0,0,1-2.44.36A3.24,3.24,0,0,1,202,285H202a2.91,2.91,0,0,1-2.71,1.38c-1.57,0-3.36-1.08-3.36-4.34,0-2.89,1.79-4.82,4.37-4.82a3.16,3.16,0,0,1,1.65.43Zm0,4.43a4.9,4.9,0,0,0-1.5-.25c-2,0-2.89,1.4-2.89,3.49s1,3.37,2.33,3.37a2.35,2.35,0,0,0,2.06-1.08Z"/><path class="cls-4" d="M207.9,282a2.89,2.89,0,0,0,2.95,3.11,8.43,8.43,0,0,0,2.53-.5,1.86,1.86,0,0,1-.24,1,6.23,6.23,0,0,1-2.85.73c-2.59,0-4.07-1.92-4.07-4.41s1.64-4.75,4.18-4.75c2.17,0,3.09,1.57,3.09,3.83a8,8,0,0,1-.06,1Zm4-1.05c.12-1.24-.24-2.75-1.76-2.75-1.28,0-2.11,1.12-2.22,2.75Z"/><path class="cls-4" d="M218.62,274.11a2.12,2.12,0,0,1,.33-.95,5.17,5.17,0,0,1,1.63-.25,3.82,3.82,0,0,1,.92.1V285a10.31,10.31,0,0,1,1.46.25,2.34,2.34,0,0,1,.06.56,1.62,1.62,0,0,1,0,.31h-4.48a2.25,2.25,0,0,1,.25-.81,6.09,6.09,0,0,1,1.16-.34V274.11Z"/><path class="cls-4" d="M232.49,281.66c0,3-1.61,4.71-4.1,4.71s-4.12-1.62-4.12-4.71c0-2.76,1.77-4.45,4.12-4.45S232.49,278.79,232.49,281.66Zm-4.1,3.63c1.66,0,2.46-1.4,2.46-3.63,0-1.93-1-3.39-2.46-3.39s-2.48,1.35-2.48,3.39S226.85,285.29,228.39,285.29Z"/><path class="cls-4" d="M238.73,278.36a2.89,2.89,0,0,0-1.06-.21c-.95,0-1.49.43-1.49,1.09,0,2,4.22,1.41,4.22,4.54,0,1.87-1.58,2.59-3.26,2.59a5.55,5.55,0,0,1-2.77-.68,4.29,4.29,0,0,1-.09-.86,5.19,5.19,0,0,1,.18-1.28,5.22,5.22,0,0,1,1.31.16V285a2.84,2.84,0,0,0,1.52.42A1.36,1.36,0,0,0,238.8,284c0-2.15-4.24-1.37-4.24-4.56,0-1.31,1.21-2.25,3-2.25a6.93,6.93,0,0,1,2.55.47,3.26,3.26,0,0,1,0,.56,5.77,5.77,0,0,1-.2,1.45,2.69,2.69,0,0,1-1.21-.27Z"/><path class="cls-4" d="M37,301.11h-1.3a2.12,2.12,0,0,1,.33-.95,5.11,5.11,0,0,1,1.62-.25,3.9,3.9,0,0,1,.93.1v10.68a4.79,4.79,0,0,0,.14,1.28h1.36a1.93,1.93,0,0,1,0,.23,2.25,2.25,0,0,1-.14.72,9.94,9.94,0,0,1-2.44.36,3.08,3.08,0,0,1-.36-1.29h-.09a2.93,2.93,0,0,1-2.71,1.38c-1.58,0-3.37-1.08-3.37-4.34,0-2.89,1.79-4.82,4.38-4.82a3.12,3.12,0,0,1,1.64.43Zm0,4.43a5,5,0,0,0-1.5-.25c-2,0-2.89,1.4-2.89,3.49s1,3.37,2.33,3.37a2.36,2.36,0,0,0,2.06-1.08Z"/><path class="cls-4" d="M43,309A2.88,2.88,0,0,0,46,312.11a8.43,8.43,0,0,0,2.54-.5,2,2,0,0,1-.24,1,6.28,6.28,0,0,1-2.86.73c-2.58,0-4.06-1.92-4.06-4.41s1.64-4.75,4.17-4.75c2.17,0,3.09,1.57,3.09,3.83a7.92,7.92,0,0,1,0,1ZM47,308c.12-1.24-.24-2.75-1.76-2.75-1.28,0-2.11,1.12-2.22,2.75Z"/><path class="cls-4" d="M52.77,316.07a9.6,9.6,0,0,1,1.71.33,2.29,2.29,0,0,1,0,.83H49.78a2.48,2.48,0,0,1,.26-.81,7.07,7.07,0,0,1,1.15-.35V305.52H49.85a2.12,2.12,0,0,1,.33-.95,4.9,4.9,0,0,1,1.5-.25,2.82,2.82,0,0,1,.85.11v1.17h.18a2.81,2.81,0,0,1,2.66-1.39c1.59,0,3.42,1.08,3.42,4.34,0,2.9-1.83,4.82-4.43,4.82a3.07,3.07,0,0,1-1.59-.43Zm0-4a4.67,4.67,0,0,0,1.5.25c2,0,2.89-1.42,2.89-3.51s-1-3.38-2.33-3.38a2.38,2.38,0,0,0-2.06,1.1Z"/><path class="cls-4" d="M65.6,312a2.77,2.77,0,0,1-2.53,1.36A2.34,2.34,0,0,1,60.51,311c0-1.85,1.57-2.81,3.36-2.81a4.45,4.45,0,0,1,1.68.31v-1c0-1.34-.58-2-1.72-2a5.79,5.79,0,0,0-2.64.88,1.6,1.6,0,0,1-.09-.61,2,2,0,0,1,.2-.9,7.48,7.48,0,0,1,3-.63c2,0,2.84,1,2.84,3.42v3.49a1.66,1.66,0,0,0,.23.94,5.58,5.58,0,0,0,1.25-.22.79.79,0,0,1,0,.2,1.86,1.86,0,0,1-.18.81,4.64,4.64,0,0,1-2,.52A1.88,1.88,0,0,1,65.7,312Zm0-2.76a6,6,0,0,0-1.27-.14c-1.41,0-2.2.63-2.2,1.58a1.45,1.45,0,0,0,1.64,1.44,2.27,2.27,0,0,0,1.83-.88Z"/><path class="cls-4" d="M72.46,306.14a2.41,2.41,0,0,1,2.35-1.93,2.51,2.51,0,0,1,.81.14,2.3,2.3,0,0,1,.24,1.08,1.83,1.83,0,0,1-.06.49,2.44,2.44,0,0,0-1.23-.31,2.25,2.25,0,0,0-2.08,1.48v4.83a8.77,8.77,0,0,1,1.79.32,2.29,2.29,0,0,1,0,.83H69.51a2.73,2.73,0,0,1,.25-.81,6.31,6.31,0,0,1,1.16-.34v-6.4H69.6a2.12,2.12,0,0,1,.33-.95,4.8,4.8,0,0,1,1.5-.25,2.87,2.87,0,0,1,.85.11v1.71Z"/><path class="cls-4" d="M78.08,302.32a3.12,3.12,0,0,1,1.21-.29v2.49h2.63a4.79,4.79,0,0,1,0,1H79.29v4.95c0,1.17.17,1.68,1.18,1.68a6.87,6.87,0,0,0,1.68-.24,1.1,1.1,0,0,1,0,.24,1.6,1.6,0,0,1-.18.7,6,6,0,0,1-2.23.48c-1.39,0-2.09-.75-2.09-2.61,0-1.06,0-3.38.09-5.2H76.51a2.86,2.86,0,0,1,.22-.94,6,6,0,0,1,1-.32Z"/><path class="cls-4" d="M88.35,312a2.77,2.77,0,0,1-2.53,1.36A2.35,2.35,0,0,1,83.25,311c0-1.85,1.58-2.81,3.37-2.81a4.45,4.45,0,0,1,1.68.31v-1c0-1.34-.58-2-1.72-2a5.75,5.75,0,0,0-2.64.88,1.6,1.6,0,0,1-.09-.61,2,2,0,0,1,.2-.9,7.48,7.48,0,0,1,3-.63c2,0,2.83,1,2.83,3.42v3.49a1.66,1.66,0,0,0,.24.94,5.68,5.68,0,0,0,1.25-.22.79.79,0,0,1,0,.2,2,2,0,0,1-.18.81,4.64,4.64,0,0,1-2,.52,1.92,1.92,0,0,1-.76-1.36Zm0-2.76a6,6,0,0,0-1.27-.14c-1.41,0-2.21.63-2.21,1.58a1.46,1.46,0,0,0,1.65,1.44,2.27,2.27,0,0,0,1.83-.88Z"/><path class="cls-4" d="M95.24,312a7.33,7.33,0,0,1,1.32.23,2.79,2.79,0,0,1,0,.87H92.26a2.47,2.47,0,0,1,.25-.81,6.31,6.31,0,0,1,1.16-.34v-6.4H92.35a2.11,2.11,0,0,1,.32-.95,4.71,4.71,0,0,1,1.51-.25,2.91,2.91,0,0,1,.85.11v1.31h.18a3.18,3.18,0,0,1,2.85-1.53,2.14,2.14,0,0,1,2.41,1.64h.09a3.16,3.16,0,0,1,2.91-1.64c1.41,0,2.66.45,2.66,3.24,0,1.53,0,3-.11,4.52a9.14,9.14,0,0,1,1.46.23,2.34,2.34,0,0,1,.06.56,1.62,1.62,0,0,1,0,.31h-4.29a2.48,2.48,0,0,1,.26-.81,5.65,5.65,0,0,1,1-.34V307.7c0-1.38-.42-2.27-1.67-2.27a3.12,3.12,0,0,0-2.2,1.16V312a7.39,7.39,0,0,1,1.32.25,2.79,2.79,0,0,1,0,.87H97.83a2.25,2.25,0,0,1,.25-.81,5.65,5.65,0,0,1,1-.34V307.7c0-1.38-.41-2.27-1.66-2.27a3.09,3.09,0,0,0-2.21,1.16Z"/><path class="cls-4" d="M110.41,309a2.89,2.89,0,0,0,3,3.11,8.36,8.36,0,0,0,2.53-.5,1.94,1.94,0,0,1-.23,1,6.28,6.28,0,0,1-2.86.73c-2.58,0-4.07-1.92-4.07-4.41s1.65-4.75,4.18-4.75c2.17,0,3.09,1.57,3.09,3.83,0,.31,0,.63,0,1Zm4-1.05c.13-1.24-.23-2.75-1.75-2.75-1.29,0-2.12,1.12-2.23,2.75Z"/><path class="cls-4" d="M120.49,312a7.5,7.5,0,0,1,1.32.23,2.79,2.79,0,0,1,0,.87H117.5a2.48,2.48,0,0,1,.26-.81,6.2,6.2,0,0,1,1.15-.34v-6.4h-1.32a2.12,2.12,0,0,1,.33-.95,4.7,4.7,0,0,1,1.5-.25,2.82,2.82,0,0,1,.85.11v1.31h.18a3.25,3.25,0,0,1,2.91-1.53c1.43,0,2.7.45,2.7,3.24,0,1.51,0,3-.11,4.52a9.14,9.14,0,0,1,1.46.23,2.34,2.34,0,0,1,.06.56,1.62,1.62,0,0,1,0,.31h-4.29a2.48,2.48,0,0,1,.26-.81,5.65,5.65,0,0,1,1-.34V307.7c0-1.38-.44-2.27-1.7-2.27a3.17,3.17,0,0,0-2.26,1.16Z"/><path class="cls-4" d="M129.76,302.32A3.12,3.12,0,0,1,131,302v2.49h2.63a4.79,4.79,0,0,1,.05,1H131v4.95c0,1.17.17,1.68,1.18,1.68a6.81,6.81,0,0,0,1.68-.24,1.1,1.1,0,0,1,0,.24,1.6,1.6,0,0,1-.18.7,5.92,5.92,0,0,1-2.22.48c-1.4,0-2.1-.75-2.1-2.61,0-1.06,0-3.38.09-5.2h-1.25a2.86,2.86,0,0,1,.22-.94,6.16,6.16,0,0,1,1.05-.32Z"/><path class="cls-4" d="M142.86,308.66c0,3-1.61,4.71-4.11,4.71s-4.12-1.62-4.12-4.71c0-2.76,1.77-4.45,4.12-4.45S142.86,305.79,142.86,308.66Zm-4.11,3.63c1.66,0,2.46-1.4,2.46-3.63,0-1.93-1-3.39-2.46-3.39s-2.48,1.35-2.48,3.39S137.21,312.29,138.75,312.29Z"/><path class="cls-4" d="M149.09,305.36a2.84,2.84,0,0,0-1.06-.21c-.94,0-1.49.43-1.49,1.09,0,2,4.22,1.41,4.22,4.54,0,1.87-1.58,2.59-3.26,2.59a5.48,5.48,0,0,1-2.76-.68,3.66,3.66,0,0,1-.09-.86,5.19,5.19,0,0,1,.18-1.28,5.2,5.2,0,0,1,1.3.16V312a2.86,2.86,0,0,0,1.52.42,1.37,1.37,0,0,0,1.52-1.35c0-2.15-4.25-1.37-4.25-4.56,0-1.31,1.21-2.25,3-2.25a6.89,6.89,0,0,1,2.55.47,3.26,3.26,0,0,1,0,.56,6.29,6.29,0,0,1-.19,1.45,2.7,2.7,0,0,1-1.22-.27Z"/><path class="cls-4" d="M161.55,305.52a2.31,2.31,0,0,0-1.05-.27c-1.55,0-2.67,1-2.67,3.39s1.19,3.49,2.82,3.49a7.6,7.6,0,0,0,2.22-.43,2.17,2.17,0,0,1-.25,1,6.53,6.53,0,0,1-2.68.64c-2.33,0-3.83-1.87-3.83-4.39,0-2.79,1.79-4.77,4.43-4.77a4.35,4.35,0,0,1,2.37.65c0,.18,0,.47,0,.65a4.35,4.35,0,0,1-.26,1.53,3,3,0,0,1-1.14-.24Z"/><path class="cls-4" d="M172.76,308.66c0,3-1.6,4.71-4.1,4.71s-4.12-1.62-4.12-4.71c0-2.76,1.77-4.45,4.12-4.45S172.76,305.79,172.76,308.66Zm-4.1,3.63c1.66,0,2.46-1.4,2.46-3.63,0-1.93-1-3.39-2.46-3.39s-2.48,1.35-2.48,3.39S167.12,312.29,168.66,312.29Z"/><path class="cls-4" d="M177.3,312a7.18,7.18,0,0,1,1.32.23,2.51,2.51,0,0,1,0,.87h-4.34a2.73,2.73,0,0,1,.25-.81,6.31,6.31,0,0,1,1.16-.34v-6.4h-1.32a2.12,2.12,0,0,1,.33-.95,4.65,4.65,0,0,1,1.5-.25,2.91,2.91,0,0,1,.85.11v1.31h.18a3.24,3.24,0,0,1,2.91-1.53c1.43,0,2.69.45,2.69,3.24,0,1.51,0,3-.11,4.52a9.28,9.28,0,0,1,1.47.23,2.38,2.38,0,0,1,.05.56c0,.11,0,.2,0,.31H180a2.73,2.73,0,0,1,.25-.81,5.92,5.92,0,0,1,1-.34V307.7c0-1.38-.43-2.27-1.7-2.27a3.19,3.19,0,0,0-2.26,1.16Z"/><path class="cls-4" d="M192,312a7.33,7.33,0,0,1,1.32.23,2.79,2.79,0,0,1,0,.87H189a2.25,2.25,0,0,1,.25-.81,6.31,6.31,0,0,1,1.16-.34v-6.4h-1.32a2.11,2.11,0,0,1,.32-.95,4.7,4.7,0,0,1,1.5-.25,2.82,2.82,0,0,1,.85.11v1.31h.19a3.18,3.18,0,0,1,2.85-1.53,2.14,2.14,0,0,1,2.41,1.64h.09a3.16,3.16,0,0,1,2.91-1.64c1.41,0,2.66.45,2.66,3.24,0,1.53,0,3-.11,4.52a9.14,9.14,0,0,1,1.46.23,2.34,2.34,0,0,1,.06.56,1.62,1.62,0,0,1,0,.31h-4.29a2.48,2.48,0,0,1,.26-.81,5.65,5.65,0,0,1,1-.34V307.7c0-1.38-.42-2.27-1.67-2.27a3.12,3.12,0,0,0-2.2,1.16V312a7.39,7.39,0,0,1,1.32.25,2.79,2.79,0,0,1,0,.87h-4.17a2.25,2.25,0,0,1,.25-.81,5.65,5.65,0,0,1,1-.34V307.7c0-1.38-.41-2.27-1.66-2.27a3.09,3.09,0,0,0-2.21,1.16Z"/><path class="cls-4" d="M210.49,312a2.78,2.78,0,0,1-2.53,1.36,2.35,2.35,0,0,1-2.57-2.41c0-1.85,1.57-2.81,3.36-2.81a4.45,4.45,0,0,1,1.68.31v-1c0-1.34-.58-2-1.72-2a5.83,5.83,0,0,0-2.64.88,1.6,1.6,0,0,1-.09-.61,2,2,0,0,1,.2-.9,7.48,7.48,0,0,1,2.95-.63c2,0,2.84,1,2.84,3.42v3.49a1.66,1.66,0,0,0,.23.94,5.49,5.49,0,0,0,1.25-.22.79.79,0,0,1,0,.2,1.86,1.86,0,0,1-.18.81,4.64,4.64,0,0,1-1.95.52,1.85,1.85,0,0,1-.76-1.36Zm0-2.76a5.88,5.88,0,0,0-1.27-.14c-1.41,0-2.2.63-2.2,1.58a1.46,1.46,0,0,0,1.64,1.44,2.27,2.27,0,0,0,1.83-.88Zm-1.72-5.89a2.52,2.52,0,0,1-.92-.77l2-2.81a3.72,3.72,0,0,1,1.59.63Z"/><path class="cls-4" d="M219.08,305.36a2.94,2.94,0,0,0-1.07-.21c-.94,0-1.48.43-1.48,1.09,0,2,4.21,1.41,4.21,4.54,0,1.87-1.57,2.59-3.26,2.59a5.51,5.51,0,0,1-2.76-.68,3.66,3.66,0,0,1-.09-.86,5.19,5.19,0,0,1,.18-1.28,5.14,5.14,0,0,1,1.3.16V312a2.89,2.89,0,0,0,1.52.42,1.37,1.37,0,0,0,1.52-1.35c0-2.15-4.25-1.37-4.25-4.56,0-1.31,1.21-2.25,3-2.25a6.89,6.89,0,0,1,2.55.47,2.46,2.46,0,0,1,0,.56,5.77,5.77,0,0,1-.2,1.45,2.63,2.63,0,0,1-1.21-.27Z"/><path class="cls-4" d="M33.55,329.32a3.12,3.12,0,0,1,1.21-.29v2.49h2.63a4.79,4.79,0,0,1,0,1H34.76v4.95c0,1.17.17,1.68,1.18,1.68a6.81,6.81,0,0,0,1.68-.24,1.1,1.1,0,0,1,0,.24,1.6,1.6,0,0,1-.18.7,6,6,0,0,1-2.23.48c-1.39,0-2.09-.75-2.09-2.61,0-1.06,0-3.38.09-5.2H32a2.86,2.86,0,0,1,.22-.94,6.16,6.16,0,0,1,1-.32Z"/><path class="cls-4" d="M40.1,336a2.88,2.88,0,0,0,2.95,3.11,8.43,8.43,0,0,0,2.53-.5,2,2,0,0,1-.24,1,6.23,6.23,0,0,1-2.85.73c-2.59,0-4.07-1.92-4.07-4.41s1.64-4.75,4.17-4.75c2.17,0,3.1,1.57,3.1,3.83a8,8,0,0,1-.06,1Zm4-1.05c.12-1.24-.24-2.75-1.76-2.75-1.28,0-2.11,1.12-2.22,2.75Z"/><path class="cls-4" d="M50.17,339a7.33,7.33,0,0,1,1.32.23,3.12,3.12,0,0,1,0,.87H47.19a2.25,2.25,0,0,1,.25-.81,6.31,6.31,0,0,1,1.16-.34v-6.4H47.28a2.11,2.11,0,0,1,.32-.95,4.7,4.7,0,0,1,1.5-.25,2.82,2.82,0,0,1,.85.11v1.31h.18a3.27,3.27,0,0,1,2.92-1.53c1.42,0,2.69.45,2.69,3.24,0,1.51,0,3-.11,4.52a9.47,9.47,0,0,1,1.47.23,3.06,3.06,0,0,1,0,.56,1.62,1.62,0,0,1,0,.31H52.85a2.25,2.25,0,0,1,.25-.81,5.65,5.65,0,0,1,1-.34V334.7c0-1.38-.43-2.27-1.7-2.27a3.19,3.19,0,0,0-2.26,1.16Z"/><path class="cls-4" d="M60,336A2.88,2.88,0,0,0,63,339.11a8.3,8.3,0,0,0,2.53-.5,1.94,1.94,0,0,1-.23,1,6.28,6.28,0,0,1-2.86.73c-2.58,0-4.07-1.92-4.07-4.41s1.65-4.75,4.18-4.75c2.17,0,3.09,1.57,3.09,3.83a7.92,7.92,0,0,1,0,1ZM64,335c.13-1.24-.23-2.75-1.75-2.75-1.28,0-2.12,1.12-2.22,2.75Z"/><path class="cls-4" d="M70.1,339a7.5,7.5,0,0,1,1.32.23,3.12,3.12,0,0,1,0,.87H67.12a2.25,2.25,0,0,1,.25-.81,6.09,6.09,0,0,1,1.16-.34v-6.4H67.21a2,2,0,0,1,.32-.95,4.7,4.7,0,0,1,1.5-.25,2.82,2.82,0,0,1,.85.11v1.31h.18A3.27,3.27,0,0,1,73,331.21c1.43,0,2.7.45,2.7,3.24,0,1.51,0,3-.11,4.52a9.14,9.14,0,0,1,1.46.23,2.34,2.34,0,0,1,.06.56,1.62,1.62,0,0,1,0,.31H72.77a2.48,2.48,0,0,1,.26-.81,5.65,5.65,0,0,1,1-.34V334.7c0-1.38-.44-2.27-1.7-2.27a3.19,3.19,0,0,0-2.26,1.16Z"/><path class="cls-4" d="M83.71,332.52a2.3,2.3,0,0,0-1-.27c-1.56,0-2.68,1-2.68,3.39s1.19,3.49,2.82,3.49A7.67,7.67,0,0,0,85,338.7a2.19,2.19,0,0,1-.26,1,6.48,6.48,0,0,1-2.67.64c-2.34,0-3.84-1.87-3.84-4.39,0-2.79,1.79-4.77,4.43-4.77a4.33,4.33,0,0,1,2.37.65c0,.18,0,.47,0,.65a4.14,4.14,0,0,1-.26,1.53,3,3,0,0,1-1.14-.24Z"/><path class="cls-4" d="M86.57,332.52a2.12,2.12,0,0,1,.33-.95,5.42,5.42,0,0,1,1.63-.25,3.56,3.56,0,0,1,.94.11V339a9.73,9.73,0,0,1,1.42.25,2.34,2.34,0,0,1,.06.56,1.62,1.62,0,0,1,0,.31H86.48a2.48,2.48,0,0,1,.26-.81,6.2,6.2,0,0,1,1.15-.34v-6.4Zm3.17-4.19a1,1,0,0,1-1,1.06.94.94,0,0,1-1-1.06,1,1,0,0,1,1-1A.94.94,0,0,1,89.74,328.33Z"/><path class="cls-4" d="M97.26,339a2.78,2.78,0,0,1-2.53,1.36A2.35,2.35,0,0,1,92.16,338c0-1.85,1.57-2.81,3.36-2.81a4.54,4.54,0,0,1,1.69.31v-1c0-1.34-.58-2-1.72-2a5.75,5.75,0,0,0-2.64.88,1.6,1.6,0,0,1-.09-.61,2,2,0,0,1,.2-.9,7.43,7.43,0,0,1,2.94-.63c2,0,2.84,1,2.84,3.42v3.49a1.58,1.58,0,0,0,.24.94,5.68,5.68,0,0,0,1.25-.22,1.56,1.56,0,0,1,0,.2,1.86,1.86,0,0,1-.18.81,4.59,4.59,0,0,1-2,.52,1.89,1.89,0,0,1-.76-1.36Zm0-2.76a5.86,5.86,0,0,0-1.26-.14c-1.41,0-2.21.63-2.21,1.58a1.46,1.46,0,0,0,1.65,1.44,2.27,2.27,0,0,0,1.82-.88Z"/><path class="cls-4" d="M105.85,332.36a2.9,2.9,0,0,0-1.07-.21c-.94,0-1.48.43-1.48,1.09,0,2,4.21,1.41,4.21,4.54,0,1.87-1.57,2.59-3.25,2.59a5.55,5.55,0,0,1-2.77-.68,4.29,4.29,0,0,1-.09-.86,5.19,5.19,0,0,1,.18-1.28,5.14,5.14,0,0,1,1.3.16V339a2.89,2.89,0,0,0,1.52.42,1.36,1.36,0,0,0,1.52-1.35c0-2.15-4.25-1.37-4.25-4.56,0-1.31,1.21-2.25,3-2.25a6.85,6.85,0,0,1,2.55.47,2.46,2.46,0,0,1,0,.56,5.77,5.77,0,0,1-.2,1.45,2.66,2.66,0,0,1-1.21-.27Z"/><path class="cls-4" d="M114.55,336a2.88,2.88,0,0,0,2.94,3.11,8.43,8.43,0,0,0,2.54-.5,2,2,0,0,1-.24,1,6.28,6.28,0,0,1-2.86.73c-2.58,0-4.06-1.92-4.06-4.41s1.64-4.75,4.17-4.75c2.17,0,3.09,1.57,3.09,3.83a7.92,7.92,0,0,1,0,1Zm4-1.05c.12-1.24-.24-2.75-1.76-2.75-1.28,0-2.11,1.12-2.22,2.75Z"/><path class="cls-4" d="M126.32,332.36a2.9,2.9,0,0,0-1.07-.21c-.94,0-1.48.43-1.48,1.09,0,2,4.21,1.41,4.21,4.54,0,1.87-1.57,2.59-3.25,2.59a5.55,5.55,0,0,1-2.77-.68,4.29,4.29,0,0,1-.09-.86,5.19,5.19,0,0,1,.18-1.28,5.14,5.14,0,0,1,1.3.16V339a2.89,2.89,0,0,0,1.52.42,1.36,1.36,0,0,0,1.52-1.35c0-2.15-4.25-1.37-4.25-4.56,0-1.31,1.21-2.25,3-2.25a6.85,6.85,0,0,1,2.55.47,2.46,2.46,0,0,1,0,.56,5.77,5.77,0,0,1-.2,1.45,2.66,2.66,0,0,1-1.21-.27Z"/><path class="cls-4" d="M143.32,339.64a16.89,16.89,0,0,1-4.4.79c-3.58,0-5.66-2.5-5.66-6.23,0-4.21,2.59-7,6.64-7a6.4,6.4,0,0,1,3.51.94,15.75,15.75,0,0,1-.24,2.81,3.7,3.7,0,0,1-1.25-.29v-1.73a4.09,4.09,0,0,0-2.2-.61c-2.51,0-4.7,1.82-4.7,5.6,0,3.58,1.82,5.26,4.39,5.26a14.51,14.51,0,0,0,2.3-.22v-3.8a21.9,21.9,0,0,1-2.46-.18,4,4,0,0,1-.13-1.06h5.75a8.58,8.58,0,0,1-.16,1.1,12.34,12.34,0,0,1-1.39.14Z"/><path class="cls-4" d="M152.38,332.52h-1.31a2.12,2.12,0,0,1,.33-.95,4.9,4.9,0,0,1,1.63-.25,3.36,3.36,0,0,1,.92.11v6.26a5.64,5.64,0,0,0,.14,1.28h1.38a1,1,0,0,1,0,.23,2.24,2.24,0,0,1-.15.72,10.32,10.32,0,0,1-2.48.36,4,4,0,0,1-.36-1.42h-.09a3.18,3.18,0,0,1-2.87,1.51c-1.41,0-2.66-.45-2.66-3.24,0-1.51,0-3.09.09-4.61H145.6a2.15,2.15,0,0,1,.32-.93,5,5,0,0,1,1.65-.27,3.36,3.36,0,0,1,.92.11v5.45c0,1.37.43,2.25,1.66,2.25a3.09,3.09,0,0,0,2.23-1.1Z"/><path class="cls-4" d="M161.92,339a2.77,2.77,0,0,1-2.53,1.36,2.34,2.34,0,0,1-2.56-2.41c0-1.85,1.57-2.81,3.36-2.81a4.45,4.45,0,0,1,1.68.31v-1c0-1.34-.58-2-1.72-2a5.75,5.75,0,0,0-2.64.88,1.6,1.6,0,0,1-.09-.61,2,2,0,0,1,.2-.9,7.48,7.48,0,0,1,2.95-.63c2,0,2.84,1,2.84,3.42v3.49a1.66,1.66,0,0,0,.23.94,5.58,5.58,0,0,0,1.25-.22.79.79,0,0,1,0,.2,2,2,0,0,1-.18.81,4.64,4.64,0,0,1-2,.52A1.92,1.92,0,0,1,162,339Zm0-2.76a6,6,0,0,0-1.27-.14c-1.41,0-2.2.63-2.2,1.58a1.45,1.45,0,0,0,1.64,1.44,2.27,2.27,0,0,0,1.83-.88Z"/><path class="cls-4" d="M167.15,329.32a3.12,3.12,0,0,1,1.21-.29v2.49H171a4.73,4.73,0,0,1,.06,1h-2.68v4.95c0,1.17.16,1.68,1.18,1.68a6.87,6.87,0,0,0,1.68-.24,1.1,1.1,0,0,1,0,.24,1.6,1.6,0,0,1-.18.7,6,6,0,0,1-2.23.48c-1.39,0-2.1-.75-2.1-2.61,0-1.06,0-3.38.09-5.2h-1.24a3.12,3.12,0,0,1,.21-.94,6.44,6.44,0,0,1,1.05-.32Z"/><path class="cls-4" d="M173.7,336a2.88,2.88,0,0,0,2.94,3.11,8.3,8.3,0,0,0,2.53-.5,1.94,1.94,0,0,1-.23,1,6.28,6.28,0,0,1-2.86.73c-2.58,0-4.07-1.92-4.07-4.41s1.65-4.75,4.18-4.75c2.17,0,3.09,1.57,3.09,3.83a7.92,7.92,0,0,1-.05,1Zm4-1.05c.13-1.24-.23-2.75-1.75-2.75-1.28,0-2.12,1.12-2.22,2.75Z"/><path class="cls-4" d="M183.77,339a7.5,7.5,0,0,1,1.32.23,2.79,2.79,0,0,1,0,.87h-4.33a2.25,2.25,0,0,1,.25-.81,6.09,6.09,0,0,1,1.16-.34v-6.4h-1.32a2,2,0,0,1,.32-.95,4.7,4.7,0,0,1,1.5-.25,2.82,2.82,0,0,1,.85.11v1.31h.18a3.21,3.21,0,0,1,2.86-1.53,2.13,2.13,0,0,1,2.4,1.64h.09a3.18,3.18,0,0,1,2.92-1.64c1.41,0,2.65.45,2.65,3.24,0,1.53,0,3-.11,4.52a9.28,9.28,0,0,1,1.47.23,2.38,2.38,0,0,1,.05.56c0,.11,0,.2,0,.31h-4.29a2.73,2.73,0,0,1,.25-.81,6.21,6.21,0,0,1,1-.34V334.7c0-1.38-.41-2.27-1.66-2.27a3.14,3.14,0,0,0-2.21,1.16V339a7.34,7.34,0,0,1,1.33.25,2.79,2.79,0,0,1,0,.87h-4.18a2.48,2.48,0,0,1,.26-.81,5.65,5.65,0,0,1,1-.34V334.7c0-1.38-.42-2.27-1.67-2.27a3.09,3.09,0,0,0-2.2,1.16Z"/><path class="cls-4" d="M202.3,339a2.77,2.77,0,0,1-2.53,1.36,2.34,2.34,0,0,1-2.56-2.41c0-1.85,1.57-2.81,3.36-2.81a4.45,4.45,0,0,1,1.68.31v-1c0-1.34-.58-2-1.72-2a5.75,5.75,0,0,0-2.64.88,1.6,1.6,0,0,1-.09-.61,2,2,0,0,1,.2-.9,7.48,7.48,0,0,1,2.95-.63c2,0,2.84,1,2.84,3.42v3.49a1.66,1.66,0,0,0,.23.94,5.58,5.58,0,0,0,1.25-.22.79.79,0,0,1,0,.2,2,2,0,0,1-.18.81,4.64,4.64,0,0,1-2,.52,1.92,1.92,0,0,1-.76-1.36Zm0-2.76a6,6,0,0,0-1.27-.14c-1.41,0-2.2.63-2.2,1.58a1.45,1.45,0,0,0,1.64,1.44,2.27,2.27,0,0,0,1.83-.88Z"/><path class="cls-4" d="M206.14,328.11a2.11,2.11,0,0,1,.32-.95,5.17,5.17,0,0,1,1.63-.25,3.76,3.76,0,0,1,.92.1V339a10.46,10.46,0,0,1,1.47.25,3.06,3.06,0,0,1,.05.56,1.62,1.62,0,0,1,0,.31H206a2.73,2.73,0,0,1,.25-.81,6.31,6.31,0,0,1,1.16-.34V328.11Z"/><path class="cls-4" d="M216.82,339a2.77,2.77,0,0,1-2.53,1.36,2.34,2.34,0,0,1-2.56-2.41c0-1.85,1.57-2.81,3.36-2.81a4.45,4.45,0,0,1,1.68.31v-1c0-1.34-.58-2-1.72-2a5.75,5.75,0,0,0-2.64.88,1.6,1.6,0,0,1-.09-.61,2,2,0,0,1,.2-.9,7.48,7.48,0,0,1,2.95-.63c2,0,2.84,1,2.84,3.42v3.49a1.66,1.66,0,0,0,.23.94,5.58,5.58,0,0,0,1.25-.22.79.79,0,0,1,0,.2,1.86,1.86,0,0,1-.18.81,4.64,4.64,0,0,1-2,.52,1.88,1.88,0,0,1-.75-1.36Zm0-2.76a6,6,0,0,0-1.27-.14c-1.41,0-2.2.63-2.2,1.58a1.45,1.45,0,0,0,1.64,1.44,2.27,2.27,0,0,0,1.83-.88Z"/><path class="cls-4" d="M21.12,370.81A22,22,0,0,1,19.2,362a21.1,21.1,0,0,1,1.65-8.22,4,4,0,0,1,1.45-.27,22.14,22.14,0,0,0-1.49,8.39,23.6,23.6,0,0,0,1.47,8.51A4.06,4.06,0,0,1,21.12,370.81Z"/><path class="cls-4" d="M30.76,368.72a5.1,5.1,0,0,1-1.56,0v-3.13H24l-.25-.93a72.44,72.44,0,0,1,5.15-7.31l1.83.28v6.76h1.61a3.7,3.7,0,0,1,.09.77,2.74,2.74,0,0,1,0,.43H30.76ZM29.2,360.3a13.71,13.71,0,0,1,.09-1.42h-.12a46.25,46.25,0,0,0-3.8,5.42v.12c.27,0,.78,0,1.14,0H29.2Z"/><path class="cls-4" d="M36.45,361.07a2.8,2.8,0,0,1-2.07-2.52c0-2.09,1.82-2.95,3.56-2.95s3.5.72,3.5,2.7a3.06,3.06,0,0,1-2.07,2.81v.09A3.15,3.15,0,0,1,41.68,364c0,2.3-1.86,3.44-3.92,3.44-1.76,0-3.87-.69-3.87-3a3.49,3.49,0,0,1,2.56-3.24Zm-1,3a2.1,2.1,0,0,0,2.38,2.3,2,2,0,0,0,2.21-2.21c0-1.33-1.34-1.95-2.69-2.58A2.63,2.63,0,0,0,35.48,364.1Zm4.43-5.69a1.86,1.86,0,0,0-2.08-1.88,1.79,1.79,0,0,0-1.94,1.81c0,1.11,1.2,1.71,2.5,2.3A2.44,2.44,0,0,0,39.91,358.41Z"/><path class="cls-4" d="M46.2,361.07a2.81,2.81,0,0,1-2.08-2.52c0-2.09,1.83-2.95,3.56-2.95s3.51.72,3.51,2.7a3.07,3.07,0,0,1-2.08,2.81v.09A3.15,3.15,0,0,1,51.43,364c0,2.3-1.87,3.44-3.93,3.44-1.75,0-3.87-.69-3.87-3a3.49,3.49,0,0,1,2.57-3.24Zm-1,3a2.11,2.11,0,0,0,2.39,2.3,2,2,0,0,0,2.21-2.21c0-1.33-1.34-1.95-2.7-2.58A2.63,2.63,0,0,0,45.22,364.1Zm4.43-5.69a1.86,1.86,0,0,0-2.08-1.88,1.79,1.79,0,0,0-1.93,1.81c0,1.11,1.19,1.71,2.49,2.3A2.44,2.44,0,0,0,49.65,358.41Z"/><path class="cls-4" d="M53.42,366.58a3.64,3.64,0,0,1,.59-1.2,3.11,3.11,0,0,1,.74-.08,4.22,4.22,0,0,1,1.34.22,16,16,0,0,1-1.64,4.25,3,3,0,0,1-1-.47,15.25,15.25,0,0,0,.68-2.54Z"/><path class="cls-4" d="M60.49,361.07a2.79,2.79,0,0,1-2.08-2.52c0-2.09,1.82-2.95,3.56-2.95s3.51.72,3.51,2.7a3.07,3.07,0,0,1-2.08,2.81v.09A3.15,3.15,0,0,1,65.71,364c0,2.3-1.86,3.44-3.92,3.44-1.76,0-3.87-.69-3.87-3a3.49,3.49,0,0,1,2.57-3.24Zm-1,3a2.11,2.11,0,0,0,2.39,2.3,2,2,0,0,0,2.2-2.21c0-1.33-1.34-1.95-2.69-2.58A2.63,2.63,0,0,0,59.51,364.1Zm4.43-5.69a1.86,1.86,0,0,0-2.08-1.88,1.79,1.79,0,0,0-1.94,1.81c0,1.11,1.2,1.71,2.5,2.3A2.44,2.44,0,0,0,63.94,358.41Z"/><path class="cls-4" d="M74,368.72a5.1,5.1,0,0,1-1.56,0v-3.13H67.3l-.25-.93a72.44,72.44,0,0,1,5.15-7.31l1.83.28v6.76h1.61a3.7,3.7,0,0,1,.09.77,2.74,2.74,0,0,1,0,.43H74Zm-1.56-8.42a13.71,13.71,0,0,1,.09-1.42h-.12a46.25,46.25,0,0,0-3.8,5.42v.12c.27,0,.78,0,1.14,0h2.69Z"/><path class="cls-4" d="M79.72,361.07a2.8,2.8,0,0,1-2.07-2.52c0-2.09,1.82-2.95,3.56-2.95s3.5.72,3.5,2.7a3.06,3.06,0,0,1-2.07,2.81v.09A3.15,3.15,0,0,1,85,364c0,2.3-1.86,3.44-3.92,3.44-1.76,0-3.87-.69-3.87-3a3.49,3.49,0,0,1,2.56-3.24Zm-1,3a2.1,2.1,0,0,0,2.38,2.3,2,2,0,0,0,2.21-2.21c0-1.33-1.34-1.95-2.69-2.58A2.63,2.63,0,0,0,78.75,364.1Zm4.43-5.69a1.86,1.86,0,0,0-2.08-1.88,1.79,1.79,0,0,0-1.94,1.81c0,1.11,1.2,1.71,2.5,2.3A2.44,2.44,0,0,0,83.18,358.41Z"/><path class="cls-4" d="M88.89,362a24,24,0,0,0-1.28-8.15,3.38,3.38,0,0,1,1.17-.42,21.77,21.77,0,0,1-.2,17.42,3.81,3.81,0,0,1-1.15-.44A23.22,23.22,0,0,0,88.89,362Z"/><path class="cls-4" d="M92.65,366.58a3.66,3.66,0,0,1,.6-1.2,3.11,3.11,0,0,1,.74-.08,4.22,4.22,0,0,1,1.34.22,15.7,15.7,0,0,1-1.65,4.25,3,3,0,0,1-1-.47,16.29,16.29,0,0,0,.68-2.54Z"/><path class="cls-4" d="M105.62,354.57a1.94,1.94,0,0,1,0,.38,2.74,2.74,0,0,1-.07.63,11.11,11.11,0,0,1-1.48.14V363c0,3.38-1.47,6-4.29,7.29a1.79,1.79,0,0,1-.48-.86c2.22-1.32,3.11-3.37,3.11-6.09v-7.62c-.51,0-1.25-.07-1.63-.12a3.94,3.94,0,0,1,0-1Z"/><path class="cls-4" d="M112.91,359.52H111.6a2.12,2.12,0,0,1,.33-.95,4.86,4.86,0,0,1,1.63-.25,3.36,3.36,0,0,1,.92.11v6.26a5.12,5.12,0,0,0,.14,1.28H116a1,1,0,0,1,0,.23,2.24,2.24,0,0,1-.15.72,10.32,10.32,0,0,1-2.48.36,3.75,3.75,0,0,1-.36-1.42h-.09a3.18,3.18,0,0,1-2.87,1.51c-1.41,0-2.66-.45-2.66-3.24,0-1.51,0-3.09.09-4.61h-1.38a2.31,2.31,0,0,1,.33-.93,5,5,0,0,1,1.65-.27,3.36,3.36,0,0,1,.92.11v5.45c0,1.37.43,2.25,1.66,2.25a3.09,3.09,0,0,0,2.23-1.1Z"/><path class="cls-4" d="M118.51,356.32a3.12,3.12,0,0,1,1.21-.29v2.49h2.62a4.19,4.19,0,0,1,.06,1h-2.68v4.95c0,1.17.17,1.68,1.18,1.68a6.87,6.87,0,0,0,1.68-.24,1.1,1.1,0,0,1,0,.24,1.6,1.6,0,0,1-.18.7,6,6,0,0,1-2.23.48c-1.39,0-2.09-.75-2.09-2.61,0-1.06,0-3.38.09-5.2h-1.25a2.86,2.86,0,0,1,.22-.94,6,6,0,0,1,1-.32Z"/><path class="cls-4" d="M123.61,359.52a2.12,2.12,0,0,1,.33-.95,5.41,5.41,0,0,1,1.62-.25,3.47,3.47,0,0,1,.94.11V366a9.64,9.64,0,0,1,1.43.25,2.34,2.34,0,0,1,.06.56,1.62,1.62,0,0,1,0,.31h-4.45a2.73,2.73,0,0,1,.25-.81,6.31,6.31,0,0,1,1.16-.34v-6.4Zm3.17-4.19a1,1,0,0,1-1,1.06.93.93,0,0,1-1-1.06,1,1,0,0,1,1-1A.94.94,0,0,1,126.78,355.33Z"/><path class="cls-4" d="M134.3,366a2.78,2.78,0,0,1-2.53,1.36A2.35,2.35,0,0,1,129.2,365c0-1.85,1.57-2.81,3.36-2.81a4.45,4.45,0,0,1,1.68.31v-1c0-1.34-.57-2-1.71-2a5.75,5.75,0,0,0-2.64.88,1.43,1.43,0,0,1-.09-.61,2.15,2.15,0,0,1,.19-.9,7.48,7.48,0,0,1,2.95-.63c2,0,2.84,1,2.84,3.42v3.49a1.58,1.58,0,0,0,.24.94,5.51,5.51,0,0,0,1.24-.22.79.79,0,0,1,0,.2,1.86,1.86,0,0,1-.18.81,4.64,4.64,0,0,1-1.95.52,1.89,1.89,0,0,1-.76-1.36Zm0-2.76a5.86,5.86,0,0,0-1.26-.14c-1.41,0-2.21.63-2.21,1.58a1.46,1.46,0,0,0,1.65,1.44,2.27,2.27,0,0,0,1.82-.88Z"/><path class="cls-4" d="M140.84,370.07a9.72,9.72,0,0,1,1.72.33,2.54,2.54,0,0,1,0,.83h-4.74a2.73,2.73,0,0,1,.25-.81,7.19,7.19,0,0,1,1.16-.35V359.52h-1.34a2.12,2.12,0,0,1,.33-.95,4.85,4.85,0,0,1,1.5-.25,2.82,2.82,0,0,1,.85.11v1.17h.18a2.81,2.81,0,0,1,2.66-1.39c1.59,0,3.42,1.08,3.42,4.34,0,2.9-1.83,4.82-4.43,4.82a3.11,3.11,0,0,1-1.6-.43Zm0-4a4.62,4.62,0,0,0,1.5.25c2,0,2.89-1.42,2.89-3.51s-1-3.38-2.33-3.38a2.38,2.38,0,0,0-2.06,1.1Z"/><path class="cls-4" d="M153.68,366a2.77,2.77,0,0,1-2.53,1.36,2.35,2.35,0,0,1-2.57-2.41c0-1.85,1.58-2.81,3.37-2.81a4.45,4.45,0,0,1,1.68.31v-1c0-1.34-.58-2-1.72-2a5.75,5.75,0,0,0-2.64.88,1.6,1.6,0,0,1-.09-.61,2,2,0,0,1,.2-.9,7.48,7.48,0,0,1,3-.63c2,0,2.84,1,2.84,3.42v3.49a1.66,1.66,0,0,0,.23.94,5.68,5.68,0,0,0,1.25-.22.79.79,0,0,1,0,.2,2,2,0,0,1-.18.81,4.64,4.64,0,0,1-2,.52,1.92,1.92,0,0,1-.76-1.36Zm0-2.76a6,6,0,0,0-1.27-.14c-1.41,0-2.21.63-2.21,1.58a1.46,1.46,0,0,0,1.65,1.44,2.27,2.27,0,0,0,1.83-.88Z"/><path class="cls-4" d="M164,370.81a22,22,0,0,1-1.91-8.86,21.08,21.08,0,0,1,1.64-8.22,4.09,4.09,0,0,1,1.45-.27,22.34,22.34,0,0,0-1.48,8.39,23.81,23.81,0,0,0,1.46,8.51A4.06,4.06,0,0,1,164,370.81Z"/><path class="cls-4" d="M169.2,365.75c1.75,0,3.7-.07,5.6-.21a1.56,1.56,0,0,1,0,.3,7.49,7.49,0,0,1-.11,1.23H167.5l-.24-1.3c1.56-1.38,5.45-3.85,5.45-5.94,0-.94-.76-1.37-1.87-1.37a5.07,5.07,0,0,0-2,.47v1.49a2.82,2.82,0,0,1-1.23.27,6.51,6.51,0,0,1-.23-1.69c0-.23,0-.59,0-.81a7.47,7.47,0,0,1,3.52-.9c2,0,3.51.63,3.51,2.29,0,2.66-4,5-5.26,6.05Z"/><path class="cls-4" d="M178.09,362.28a10.44,10.44,0,0,1,1.74-.18c2,0,3.56,1,3.56,2.93,0,2.83-2.35,4.09-4.66,4.09a9.35,9.35,0,0,1-2.41-.31,2.11,2.11,0,0,1-.25-1,.87.87,0,0,1,0-.2,13.12,13.12,0,0,0,2.6.26,2.75,2.75,0,0,0,3-2.72c0-1.37-1-2-2.69-2a12.8,12.8,0,0,0-2.28.24l.44-5.8h6.29a8.43,8.43,0,0,1-.2,1.6c-1.61-.09-3.26-.12-4.88-.16Z"/><path class="cls-4" d="M185.17,366.58a3.64,3.64,0,0,1,.59-1.2,3.11,3.11,0,0,1,.74-.08,4.22,4.22,0,0,1,1.34.22,16,16,0,0,1-1.64,4.25,3,3,0,0,1-1-.47,15.25,15.25,0,0,0,.68-2.54Z"/><path class="cls-4" d="M191.89,358.8l-2.6.33a3.15,3.15,0,0,1,.29-1.12,16.49,16.49,0,0,1,3.94-.72v8.52a18,18,0,0,1,2.1.3,3.29,3.29,0,0,1,.09.71,1.24,1.24,0,0,1,0,.25h-6a3.2,3.2,0,0,1,.32-.9,16.26,16.26,0,0,1,1.88-.45Z"/><path class="cls-4" d="M199,361.5a3,3,0,0,1,2.65-1.35,3.34,3.34,0,0,1,3.58,3.42,3.66,3.66,0,0,1-3.85,3.86c-2.74,0-4.17-1.89-4.17-5.08,0-4.14,2.49-6.75,5.4-6.75a5.24,5.24,0,0,1,2,.39,3,3,0,0,1,.2,1.3,5.51,5.51,0,0,0-2.12-.45c-2,0-3.56,1.75-3.85,4.66Zm-.11,1.23c0,2.25.83,3.62,2.55,3.62a2.43,2.43,0,0,0,2.15-2.69,2.19,2.19,0,0,0-2.33-2.37,3.08,3.08,0,0,0-2.37,1.19Z"/><path class="cls-4" d="M208.44,363c0-.19,0-.31,0-.44,1.74-.05,3.69-.83,3.69-2.41,0-1.22-1-1.64-1.93-1.64a7,7,0,0,0-1.76.29V360a3.1,3.1,0,0,1-1.28.27,7.07,7.07,0,0,1-.2-1.55c0-.23,0-.59,0-.81a10.2,10.2,0,0,1,3.4-.63c1.79,0,3.49.74,3.49,2.58a3.41,3.41,0,0,1-2.48,3V363c1.32.16,2.78.92,2.78,2.49,0,2.35-2.45,3.65-4.82,3.65a10.73,10.73,0,0,1-2.46-.32,2.53,2.53,0,0,1-.27-1.07,1.62,1.62,0,0,1,0-.21,10.26,10.26,0,0,0,2.59.34c1.56,0,3.16-.56,3.16-2.21,0-1.25-1.17-2-3.86-2A1.53,1.53,0,0,1,208.44,363Z"/><path class="cls-4" d="M218.08,362a23.79,23.79,0,0,0-1.29-8.15,3.36,3.36,0,0,1,1.18-.42,21.77,21.77,0,0,1-.2,17.42,3.77,3.77,0,0,1-1.16-.44A23,23,0,0,0,218.08,362Z"/><path class="cls-4" d="M229.52,366.08c.11-.43.35-1.37.49-1.8l.91-2.87a13.46,13.46,0,0,1,.66-1.74,5.17,5.17,0,0,1-1.08-.24,3,3,0,0,1-.15-.91h3.46a3.75,3.75,0,0,1-.18,1,4.9,4.9,0,0,1-.85.16l-1,3A54.12,54.12,0,0,1,229.7,368a6.39,6.39,0,0,1-3.65,3.42,2.44,2.44,0,0,1-.67-1.33,4.9,4.9,0,0,0,3.28-2.65l-2.95-7.65a4,4,0,0,1-.94-.31,3.57,3.57,0,0,1-.18-.93h4.08a4,4,0,0,1-.14.93,9.55,9.55,0,0,1-1.32.22,12.67,12.67,0,0,1,.65,1.51l1.14,3.15a15.44,15.44,0,0,1,.4,1.75Z"/><path class="cls-4" d="M52.11,394.07a4.6,4.6,0,0,1,.22-1,11.22,11.22,0,0,1,1.41-.23V382.72a12.35,12.35,0,0,1-1.34-.12,3.94,3.94,0,0,1,0-1h8.57v2.65a4.73,4.73,0,0,1-1-.13,8.72,8.72,0,0,1-.22-1.42h-4.3v4.57h3.41a6.37,6.37,0,0,1,.18-1,4.66,4.66,0,0,1,1-.14v3.31a3.28,3.28,0,0,1-1-.07,7.14,7.14,0,0,1-.17-1.05H55.41v4.61h4.37a14.26,14.26,0,0,1,.22-1.54,4.92,4.92,0,0,1,1.12-.13v2.81Z"/><path class="cls-4" d="M67.18,386.36a2.94,2.94,0,0,0-1.07-.21c-.94,0-1.48.43-1.48,1.09,0,2,4.21,1.41,4.21,4.54,0,1.87-1.57,2.59-3.25,2.59a5.55,5.55,0,0,1-2.77-.68,4.29,4.29,0,0,1-.09-.86,5.19,5.19,0,0,1,.18-1.28,5.14,5.14,0,0,1,1.3.16V393a2.89,2.89,0,0,0,1.52.42A1.37,1.37,0,0,0,67.25,392c0-2.15-4.25-1.37-4.25-4.56,0-1.31,1.21-2.25,3-2.25a6.89,6.89,0,0,1,2.55.47,2.46,2.46,0,0,1,0,.56,5.77,5.77,0,0,1-.2,1.45,2.63,2.63,0,0,1-1.21-.27Z"/><path class="cls-4" d="M75.93,386.52a2.34,2.34,0,0,0-1.05-.27c-1.55,0-2.68,1-2.68,3.39s1.2,3.49,2.83,3.49a7.6,7.6,0,0,0,2.22-.43,2.17,2.17,0,0,1-.25,1,6.53,6.53,0,0,1-2.68.64c-2.33,0-3.83-1.87-3.83-4.39,0-2.79,1.79-4.77,4.43-4.77a4.35,4.35,0,0,1,2.37.65c0,.18,0,.47,0,.65a4.35,4.35,0,0,1-.25,1.53,3,3,0,0,1-1.14-.24Z"/><path class="cls-4" d="M85.22,386.52h-1.3a2.12,2.12,0,0,1,.33-.95,4.86,4.86,0,0,1,1.63-.25,3.36,3.36,0,0,1,.92.11v6.26a5.12,5.12,0,0,0,.14,1.28h1.38a1.93,1.93,0,0,1,0,.23,2.25,2.25,0,0,1-.14.72,10.39,10.39,0,0,1-2.48.36,3.75,3.75,0,0,1-.36-1.42h-.09a3.22,3.22,0,0,1-2.88,1.51c-1.41,0-2.65-.45-2.65-3.24,0-1.51,0-3.09.09-4.61H78.44a2.31,2.31,0,0,1,.33-.93,4.93,4.93,0,0,1,1.64-.27,3.39,3.39,0,0,1,.93.11v5.45c0,1.37.43,2.25,1.66,2.25a3.09,3.09,0,0,0,2.22-1.1Z"/><path class="cls-4" d="M89.6,386.52a2.12,2.12,0,0,1,.33-.95,5.41,5.41,0,0,1,1.62-.25,3.47,3.47,0,0,1,.94.11V393a9.64,9.64,0,0,1,1.43.25,2.34,2.34,0,0,1,.06.56,1.62,1.62,0,0,1,0,.31H89.51a2.73,2.73,0,0,1,.25-.81,6.31,6.31,0,0,1,1.16-.34v-6.4Zm3.16-4.19a1,1,0,0,1-1,1.06.93.93,0,0,1-1-1.06,1,1,0,0,1,1-1A.93.93,0,0,1,92.76,382.33Z"/><path class="cls-4" d="M98,393a7.5,7.5,0,0,1,1.32.23,3.12,3.12,0,0,1,0,.87H95a2.25,2.25,0,0,1,.25-.81,6.09,6.09,0,0,1,1.16-.34v-6.4H95.12a2,2,0,0,1,.32-.95,4.7,4.7,0,0,1,1.5-.25,2.82,2.82,0,0,1,.85.11v1.31H98a3.27,3.27,0,0,1,2.91-1.53c1.43,0,2.7.45,2.7,3.24,0,1.51,0,3-.11,4.52a9.14,9.14,0,0,1,1.46.23,2.34,2.34,0,0,1,.06.56,1.62,1.62,0,0,1,0,.31h-4.29a2.48,2.48,0,0,1,.26-.81,5.65,5.65,0,0,1,1-.34V388.7c0-1.38-.43-2.27-1.7-2.27A3.19,3.19,0,0,0,98,387.59Z"/><path class="cls-4" d="M107.29,383.32a3.12,3.12,0,0,1,1.21-.29v2.49h2.62a4.23,4.23,0,0,1,0,1H108.5v4.95c0,1.17.16,1.68,1.17,1.68a6.81,6.81,0,0,0,1.68-.24,1.1,1.1,0,0,1,0,.24,1.6,1.6,0,0,1-.18.7,5.92,5.92,0,0,1-2.22.48c-1.39,0-2.1-.75-2.1-2.61,0-1.06,0-3.38.09-5.2h-1.25a2.86,2.86,0,0,1,.22-.94,6.16,6.16,0,0,1,1-.32Z"/><path class="cls-4" d="M112.22,382.11a2.12,2.12,0,0,1,.33-.95,5.12,5.12,0,0,1,1.63-.25,3.82,3.82,0,0,1,.92.1V393a10.31,10.31,0,0,1,1.46.25,2.34,2.34,0,0,1,.06.56,1.62,1.62,0,0,1,0,.31h-4.49a2.48,2.48,0,0,1,.26-.81,6.2,6.2,0,0,1,1.15-.34V382.11Z"/><path class="cls-4" d="M122.91,393a2.78,2.78,0,0,1-2.53,1.36,2.35,2.35,0,0,1-2.57-2.41c0-1.85,1.57-2.81,3.36-2.81a4.54,4.54,0,0,1,1.69.31v-1c0-1.34-.58-2-1.72-2a5.75,5.75,0,0,0-2.64.88,1.43,1.43,0,0,1-.09-.61,2,2,0,0,1,.2-.9,7.39,7.39,0,0,1,2.94-.63c2,0,2.84,1,2.84,3.42v3.49a1.58,1.58,0,0,0,.24.94,5.68,5.68,0,0,0,1.25-.22,1.56,1.56,0,0,1,0,.2,1.86,1.86,0,0,1-.18.81,4.64,4.64,0,0,1-1.95.52A1.89,1.89,0,0,1,123,393Zm0-2.76a5.86,5.86,0,0,0-1.26-.14c-1.41,0-2.21.63-2.21,1.58a1.46,1.46,0,0,0,1.65,1.44,2.27,2.27,0,0,0,1.82-.88Z"/><path class="cls-4" d="M133.27,397.81a22,22,0,0,1-1.92-8.86,21.1,21.1,0,0,1,1.65-8.22,4,4,0,0,1,1.45-.27,22.14,22.14,0,0,0-1.49,8.39,23.6,23.6,0,0,0,1.47,8.51A4.06,4.06,0,0,1,133.27,397.81Z"/><path class="cls-4" d="M138.42,392.75c1.76,0,3.71-.07,5.61-.21a1.56,1.56,0,0,1,0,.3,8.78,8.78,0,0,1-.11,1.23h-7.22l-.23-1.3c1.55-1.38,5.44-3.85,5.44-5.94,0-.94-.76-1.37-1.86-1.37a5.07,5.07,0,0,0-2,.47v1.49a2.82,2.82,0,0,1-1.23.27,6.51,6.51,0,0,1-.23-1.69c0-.23,0-.59,0-.81a7.48,7.48,0,0,1,3.53-.9c2,0,3.51.63,3.51,2.29,0,2.66-4,5-5.27,6.05Z"/><path class="cls-4" d="M154.93,389.21c0,3.4-1.79,5.22-4.68,5.22s-4.7-1.73-4.7-5.22c0-3,1.93-4.92,4.7-4.92S154.93,386,154.93,389.21Zm-4.68,4.08c2,0,3-1.51,3-4.08,0-2.22-1.13-3.8-3-3.8s-3,1.46-3,3.8C147.27,391.73,148.39,393.29,150.25,393.29Z"/><path class="cls-4" d="M156.42,393.58a3.84,3.84,0,0,1,.59-1.2,3.16,3.16,0,0,1,.74-.08,4.22,4.22,0,0,1,1.34.22,16,16,0,0,1-1.64,4.25,3,3,0,0,1-1-.47,16.36,16.36,0,0,0,.69-2.54Z"/><path class="cls-4" d="M167.27,390.21a3,3,0,0,1-2.68,1.34,3.31,3.31,0,0,1-3.56-3.48,3.62,3.62,0,0,1,3.81-3.78c2.73,0,4.2,1.89,4.2,5.29,0,4-2.37,6.54-5.41,6.54a6.91,6.91,0,0,1-2.24-.43,2.22,2.22,0,0,1-.25-1.26,7.66,7.66,0,0,0,2.35.38c2,0,3.67-1.66,3.9-4.6Zm-2.43-4.87c-1.39,0-2.18,1.06-2.18,2.62a2.21,2.21,0,0,0,2.36,2.45,3,3,0,0,0,2.34-1.22C167.36,386.63,166.65,385.34,164.84,385.34Z"/><path class="cls-4" d="M173,388.5a3,3,0,0,1,2.66-1.35,3.34,3.34,0,0,1,3.58,3.42,3.66,3.66,0,0,1-3.85,3.86c-2.75,0-4.18-1.89-4.18-5.08,0-4.14,2.5-6.75,5.41-6.75a5.15,5.15,0,0,1,2,.39,2.72,2.72,0,0,1,.2,1.3,5.46,5.46,0,0,0-2.11-.45c-1.95,0-3.56,1.75-3.85,4.66Zm-.11,1.23c0,2.25.84,3.62,2.55,3.62a2.43,2.43,0,0,0,2.16-2.69,2.19,2.19,0,0,0-2.34-2.37,3.11,3.11,0,0,0-2.37,1.19Z"/><path class="cls-4" d="M183,392.75c1.75,0,3.71-.07,5.6-.21a1.56,1.56,0,0,1,0,.3,7.49,7.49,0,0,1-.11,1.23H181.3l-.24-1.3c1.56-1.38,5.45-3.85,5.45-5.94,0-.94-.76-1.37-1.87-1.37a5,5,0,0,0-2,.47v1.49a2.85,2.85,0,0,1-1.23.27,6.11,6.11,0,0,1-.24-1.69c0-.23,0-.59,0-.81a7.47,7.47,0,0,1,3.52-.9c2,0,3.51.63,3.51,2.29,0,2.66-4,5-5.26,6.05Z"/><path class="cls-4" d="M192.08,389a23.79,23.79,0,0,0-1.29-8.15,3.36,3.36,0,0,1,1.18-.42,21.77,21.77,0,0,1-.2,17.42,3.77,3.77,0,0,1-1.16-.44A23,23,0,0,0,192.08,389Z"/><path class="cls-4" d="M198.57,393.1a1.07,1.07,0,0,1-1.12,1.18,1,1,0,0,1-1.16-1.18,1.09,1.09,0,0,1,1.16-1.1A1,1,0,0,1,198.57,393.1Z"/></g></g></svg>