<svg xmlns="http://www.w3.org/2000/svg" viewBox="0 0 263.14 313.95"><defs><style>.cls-1{fill:#f8e2e2;}.cls-2{fill:#333;}.cls-3{fill:#fff;}.cls-4{fill:none;stroke:#ee6a5a;stroke-linecap:round;stroke-linejoin:round;stroke-width:0.5px;}</style></defs><title>balas por segundo</title><g id="Layer_2" data-name="Layer 2"><g id="Layer_1-2" data-name="Layer 1"><path class="cls-1" d="M199.47,87a62.51,62.51,0,0,0-4.72-21.92A69.18,69.18,0,0,0,186.31,50l2.95-6.17,0,0c.13-.3.22-.5.3-.71,1.42-3.65,2.82-7.31,4.26-11a7.46,7.46,0,0,0,.31-4.55,13.37,13.37,0,0,0-2.46-4.91,32.9,32.9,0,0,0-6.56-6.35,76.67,76.67,0,0,0-14-8.37,40.62,40.62,0,0,0-8.3-2.89,17.16,17.16,0,0,0-6.58-.32,7.71,7.71,0,0,0-5,2.9c-2.44,3.09-4.93,6.15-7.39,9.22l-7.51,6a62.5,62.5,0,0,0-8.76.07c-.57,0-1.13.11-1.69.17l-5-6.26c-2.47-3.09-5-6.17-7.43-9.27A7.54,7.54,0,0,0,109.12,5a14.84,14.84,0,0,0-5.9-.07,34,34,0,0,0-8.08,2.45,76.6,76.6,0,0,0-14,7.88A37.73,37.73,0,0,0,74,21.53a15.76,15.76,0,0,0-3.16,5.14,7.87,7.87,0,0,0,.07,5.73c1.44,3.57,2.8,7.17,4.2,10.75.09.23.19.45.3.73.18-.21.36-.4.53-.61L77,51.86a66.73,66.73,0,0,0-9.36,19.75,62.88,62.88,0,0,0-2.18,11c-.15,1.45-.26,2.9-.4,4.35,0,.22-.09.44-.13.66v5.06c.08.56.21,1.12.24,1.68a62.53,62.53,0,0,0,2.51,14.43,66.89,66.89,0,0,0,31.09,39.63,64.84,64.84,0,0,0,21.14,7.84,80.18,80.18,0,0,0,9.28,1.1c.22,0,.44.08.67.11h4.92c.76-.08,1.53-.19,2.3-.24A65.24,65.24,0,0,0,153.51,154a67.63,67.63,0,0,0,43.11-44,62.61,62.61,0,0,0,2.56-12.41c.14-1.38.19-2.77.29-4.15,0-.29.07-.58.11-.87V87.66A5,5,0,0,1,199.47,87Z"/><path class="cls-2" d="M4.45,220.93a2.93,2.93,0,0,0-1.07-.22c-.94,0-1.48.43-1.48,1.1,0,2,4.21,1.4,4.21,4.54,0,1.87-1.57,2.59-3.25,2.59a5.55,5.55,0,0,1-2.77-.68,4.31,4.31,0,0,1-.09-.87,5.26,5.26,0,0,1,.18-1.28,5.15,5.15,0,0,1,1.3.17v1.24a2.88,2.88,0,0,0,1.52.41,1.36,1.36,0,0,0,1.52-1.35c0-2.14-4.25-1.37-4.25-4.55,0-1.32,1.21-2.25,3-2.25a7.09,7.09,0,0,1,2.55.46,2.5,2.5,0,0,1,0,.56,5.85,5.85,0,0,1-.2,1.46A2.63,2.63,0,0,1,4.45,222Z"/><path class="cls-2" d="M7.63,221.09a2.08,2.08,0,0,1,.33-1,5.09,5.09,0,0,1,1.62-.26,3.91,3.91,0,0,1,.94.11v7.53a7.6,7.6,0,0,1,1.43.25,2.29,2.29,0,0,1,.06.56,1.46,1.46,0,0,1,0,.3H7.54a2.82,2.82,0,0,1,.25-.81A7.2,7.2,0,0,1,9,227.48v-6.39Zm3.16-4.2a1,1,0,0,1-1,1.07.94.94,0,0,1-1-1.07,1,1,0,0,1,1-1A.93.93,0,0,1,10.79,216.89Z"/><path class="cls-2" d="M16,227.54a6,6,0,0,1,1.32.23,2.73,2.73,0,0,1,0,.86H13.05a2.56,2.56,0,0,1,.26-.81,6.91,6.91,0,0,1,1.16-.34v-6.39H13.15a2,2,0,0,1,.32-1,4.43,4.43,0,0,1,1.5-.26,3.18,3.18,0,0,1,.85.11v1.32H16a3.25,3.25,0,0,1,2.91-1.53c1.43,0,2.7.45,2.7,3.24,0,1.51,0,3-.11,4.52a7.33,7.33,0,0,1,1.46.23,2.29,2.29,0,0,1,.06.56,1.46,1.46,0,0,1,0,.3H18.71a2.56,2.56,0,0,1,.26-.81,6.54,6.54,0,0,1,1-.34v-4.21c0-1.39-.44-2.27-1.7-2.27A3.22,3.22,0,0,0,16,222.15Z"/><path class="cls-2" d="M30.34,231.64a10.73,10.73,0,0,1,1.72.32,2.84,2.84,0,0,1,0,.83H27.36a2.82,2.82,0,0,1,.25-.81,7.2,7.2,0,0,1,1.16-.34V221.09H27.43a2.08,2.08,0,0,1,.33-1,4.52,4.52,0,0,1,1.5-.26,3.3,3.3,0,0,1,.85.11v1.17h.18A2.8,2.8,0,0,1,33,219.78c1.59,0,3.41,1.08,3.41,4.33,0,2.9-1.82,4.83-4.43,4.83a3.1,3.1,0,0,1-1.59-.43Zm0-4a5,5,0,0,0,1.51.25c2,0,2.89-1.42,2.89-3.51s-1-3.39-2.33-3.39a2.39,2.39,0,0,0-2.07,1.1Z"/><path class="cls-2" d="M43.18,227.57a2.79,2.79,0,0,1-2.53,1.37,2.36,2.36,0,0,1-2.57-2.41c0-1.86,1.58-2.81,3.37-2.81a4.74,4.74,0,0,1,1.68.3v-1c0-1.33-.58-2-1.72-2a5.75,5.75,0,0,0-2.64.88,1.6,1.6,0,0,1-.09-.61,2,2,0,0,1,.2-.9,7.27,7.27,0,0,1,2.95-.63c2,0,2.83.95,2.83,3.42v3.49a1.6,1.6,0,0,0,.24.94,5.68,5.68,0,0,0,1.25-.22,1.41,1.41,0,0,1,0,.2,1.89,1.89,0,0,1-.18.81,4.55,4.55,0,0,1-1.95.52,1.94,1.94,0,0,1-.76-1.37Zm0-2.75a5.87,5.87,0,0,0-1.26-.15c-1.41,0-2.21.63-2.21,1.59a1.46,1.46,0,0,0,1.65,1.44,2.27,2.27,0,0,0,1.82-.88Z"/><path class="cls-2" d="M50,221.7a2.42,2.42,0,0,1,2.35-1.92,2.62,2.62,0,0,1,.82.14,2.31,2.31,0,0,1,.23,1.08,1.89,1.89,0,0,1,0,.49,2.5,2.5,0,0,0-1.23-.31,2.24,2.24,0,0,0-2.08,1.48v4.82a8.76,8.76,0,0,1,1.79.33,2.46,2.46,0,0,1,0,.82H47.09a2.31,2.31,0,0,1,.25-.81,7.2,7.2,0,0,1,1.16-.34v-6.39H47.18a2.07,2.07,0,0,1,.32-1,4.61,4.61,0,0,1,1.5-.26,3.18,3.18,0,0,1,.85.11v1.71Z"/><path class="cls-2" d="M59.46,227.57a2.8,2.8,0,0,1-2.54,1.37,2.35,2.35,0,0,1-2.56-2.41c0-1.86,1.57-2.81,3.36-2.81a4.66,4.66,0,0,1,1.68.3v-1c0-1.33-.58-2-1.72-2a5.83,5.83,0,0,0-2.64.88,1.6,1.6,0,0,1-.09-.61,2,2,0,0,1,.2-.9,7.31,7.31,0,0,1,3-.63c2,0,2.84.95,2.84,3.42v3.49a1.69,1.69,0,0,0,.23.94,5.58,5.58,0,0,0,1.25-.22.71.71,0,0,1,0,.2,1.89,1.89,0,0,1-.18.81,4.64,4.64,0,0,1-1.95.52,1.88,1.88,0,0,1-.76-1.37Zm0-2.75a5.88,5.88,0,0,0-1.27-.15c-1.41,0-2.2.63-2.2,1.59a1.46,1.46,0,0,0,1.64,1.44,2.27,2.27,0,0,0,1.83-.88Z"/><path class="cls-2" d="M66.31,221.7a2.4,2.4,0,0,1,2.35-1.92,2.51,2.51,0,0,1,.81.14,2.3,2.3,0,0,1,.24,1.08,1.88,1.88,0,0,1-.06.49,2.44,2.44,0,0,0-1.23-.31,2.25,2.25,0,0,0-2.08,1.48v4.82a8.76,8.76,0,0,1,1.79.33,2.22,2.22,0,0,1,0,.82H63.36a2.56,2.56,0,0,1,.26-.81,6.79,6.79,0,0,1,1.15-.34v-6.39H63.45a2.08,2.08,0,0,1,.33-1,4.56,4.56,0,0,1,1.5-.26,3.18,3.18,0,0,1,.85.11v1.71Z"/><path class="cls-2" d="M70.38,228.15a3.9,3.9,0,0,1,.59-1.21,3.81,3.81,0,0,1,.75-.07,4.21,4.21,0,0,1,1.33.22,16,16,0,0,1-1.64,4.24,3.18,3.18,0,0,1-1-.46,16.66,16.66,0,0,0,.69-2.54Z"/><path class="cls-2" d="M84.52,216.68h-1.3a2,2,0,0,1,.32-1,5.48,5.48,0,0,1,1.63-.25,3.8,3.8,0,0,1,.92.11v10.68a4.83,4.83,0,0,0,.15,1.28h1.35a1,1,0,0,1,0,.23,2.05,2.05,0,0,1-.15.72,9.87,9.87,0,0,1-2.44.36,3.41,3.41,0,0,1-.36-1.3h-.09a2.92,2.92,0,0,1-2.71,1.39c-1.57,0-3.36-1.08-3.36-4.34,0-2.9,1.79-4.82,4.37-4.82a3.16,3.16,0,0,1,1.65.43Zm0,4.43a4.71,4.71,0,0,0-1.5-.25c-2,0-2.9,1.4-2.9,3.49s1,3.37,2.33,3.37a2.4,2.4,0,0,0,2.07-1.08Z"/><path class="cls-2" d="M95.15,221.09h-1.3a2.07,2.07,0,0,1,.32-1,4.68,4.68,0,0,1,1.63-.26,3.74,3.74,0,0,1,.92.11v6.27a5.25,5.25,0,0,0,.15,1.28h1.37a1,1,0,0,1,0,.23,2.3,2.3,0,0,1-.14.72,10.46,10.46,0,0,1-2.48.36,3.62,3.62,0,0,1-.36-1.42h-.09a3.22,3.22,0,0,1-2.88,1.51c-1.41,0-2.66-.45-2.66-3.24,0-1.51,0-3.1.09-4.61H88.37a2.21,2.21,0,0,1,.33-.94,4.89,4.89,0,0,1,1.64-.27,3.74,3.74,0,0,1,.92.11v5.46c0,1.37.44,2.25,1.67,2.25a3.13,3.13,0,0,0,2.22-1.1Z"/><path class="cls-2" d="M102.38,221.7a2.42,2.42,0,0,1,2.35-1.92,2.62,2.62,0,0,1,.82.14,2.58,2.58,0,0,1,.18,1.57,2.5,2.5,0,0,0-1.23-.31,2.24,2.24,0,0,0-2.08,1.48v4.82a8.89,8.89,0,0,1,1.79.33,2.76,2.76,0,0,1,0,.82H99.44a2.31,2.31,0,0,1,.25-.81,7.2,7.2,0,0,1,1.16-.34v-6.39H99.53a2,2,0,0,1,.32-1,4.61,4.61,0,0,1,1.5-.26,3.18,3.18,0,0,1,.85.11v1.71Z"/><path class="cls-2" d="M111.8,227.57a2.78,2.78,0,0,1-2.53,1.37,2.35,2.35,0,0,1-2.56-2.41c0-1.86,1.57-2.81,3.36-2.81a4.66,4.66,0,0,1,1.68.3v-1c0-1.33-.58-2-1.72-2a5.79,5.79,0,0,0-2.64.88,1.6,1.6,0,0,1-.09-.61,2,2,0,0,1,.2-.9,7.31,7.31,0,0,1,3-.63c2,0,2.84.95,2.84,3.42v3.49a1.69,1.69,0,0,0,.23.94,5.58,5.58,0,0,0,1.25-.22.71.71,0,0,1,0,.2,1.89,1.89,0,0,1-.18.81,4.64,4.64,0,0,1-2,.52,1.94,1.94,0,0,1-.76-1.37Zm0-2.75a6,6,0,0,0-1.27-.15c-1.41,0-2.2.63-2.2,1.59a1.45,1.45,0,0,0,1.64,1.44,2.27,2.27,0,0,0,1.83-.88Z"/><path class="cls-2" d="M118.69,227.54a5.81,5.81,0,0,1,1.32.23,2.46,2.46,0,0,1,0,.86h-4.34a2.82,2.82,0,0,1,.25-.81,7.2,7.2,0,0,1,1.16-.34v-6.39H115.8a2.08,2.08,0,0,1,.33-1,4.38,4.38,0,0,1,1.5-.26,3.3,3.3,0,0,1,.85.11v1.32h.18a3.22,3.22,0,0,1,2.91-1.53c1.43,0,2.69.45,2.69,3.24,0,1.51,0,3-.1,4.52a7.45,7.45,0,0,1,1.46.23,2.33,2.33,0,0,1,0,.56,2.91,2.91,0,0,1,0,.3h-4.29a2.82,2.82,0,0,1,.25-.81,6.9,6.9,0,0,1,1-.34v-4.21c0-1.39-.43-2.27-1.7-2.27a3.22,3.22,0,0,0-2.26,1.15Z"/><path class="cls-2" d="M128,217.88a3.31,3.31,0,0,1,1.21-.28v2.48h2.62a4.83,4.83,0,0,1,.06,1h-2.68v5c0,1.17.17,1.67,1.18,1.67a7.36,7.36,0,0,0,1.68-.23,1.06,1.06,0,0,1,0,.23,1.6,1.6,0,0,1-.18.7,5.79,5.79,0,0,1-2.23.49c-1.39,0-2.09-.76-2.09-2.61,0-1.06,0-3.39.09-5.2H126.4a2.75,2.75,0,0,1,.22-.94,6,6,0,0,1,1-.33Z"/><path class="cls-2" d="M134.52,224.56a2.89,2.89,0,0,0,2.94,3.12,8.43,8.43,0,0,0,2.54-.5,2,2,0,0,1-.24,1,6.24,6.24,0,0,1-2.86.74c-2.58,0-4.06-1.93-4.06-4.41,0-2.65,1.64-4.75,4.17-4.75,2.17,0,3.09,1.56,3.09,3.83a7.66,7.66,0,0,1,0,.95Zm4-1c.12-1.24-.24-2.75-1.76-2.75-1.28,0-2.11,1.11-2.22,2.75Z"/><path class="cls-2" d="M152,224.78a3,3,0,0,1-2.68,1.33,3.3,3.3,0,0,1-3.56-3.47,3.62,3.62,0,0,1,3.81-3.78c2.73,0,4.2,1.89,4.2,5.29,0,4-2.37,6.54-5.41,6.54a7,7,0,0,1-2.24-.44,2.19,2.19,0,0,1-.25-1.26,7.37,7.37,0,0,0,2.35.38c2,0,3.67-1.65,3.9-4.59Zm-2.43-4.88c-1.39,0-2.18,1.06-2.18,2.63a2.22,2.22,0,0,0,2.37,2.45,3,3,0,0,0,2.33-1.23C152.06,221.2,151.35,219.9,149.54,219.9Z"/><path class="cls-2" d="M164.35,227.57a2.78,2.78,0,0,1-2.53,1.37,2.36,2.36,0,0,1-2.57-2.41c0-1.86,1.58-2.81,3.37-2.81a4.66,4.66,0,0,1,1.68.3v-1c0-1.33-.58-2-1.72-2a5.79,5.79,0,0,0-2.64.88,1.6,1.6,0,0,1-.09-.61,2,2,0,0,1,.2-.9,7.31,7.31,0,0,1,2.95-.63c2,0,2.84.95,2.84,3.42v3.49a1.69,1.69,0,0,0,.23.94,5.58,5.58,0,0,0,1.25-.22.71.71,0,0,1,0,.2,1.89,1.89,0,0,1-.18.81,4.64,4.64,0,0,1-2,.52,1.94,1.94,0,0,1-.76-1.37Zm0-2.75a6,6,0,0,0-1.27-.15c-1.41,0-2.2.63-2.2,1.59a1.45,1.45,0,0,0,1.64,1.44,2.27,2.27,0,0,0,1.83-.88Z"/><path class="cls-2" d="M171.24,227.54a5.81,5.81,0,0,1,1.32.23,2.46,2.46,0,0,1,0,.86h-4.34a2.82,2.82,0,0,1,.25-.81,7.2,7.2,0,0,1,1.16-.34v-6.39h-1.32a2.08,2.08,0,0,1,.33-1,4.38,4.38,0,0,1,1.5-.26,3.3,3.3,0,0,1,.85.11v1.32h.18a3.22,3.22,0,0,1,2.91-1.53c1.43,0,2.69.45,2.69,3.24,0,1.51,0,3-.1,4.52a7.45,7.45,0,0,1,1.46.23,2.33,2.33,0,0,1,.05.56,2.91,2.91,0,0,1,0,.3h-4.29a2.82,2.82,0,0,1,.25-.81,6.9,6.9,0,0,1,1-.34v-4.21c0-1.39-.43-2.27-1.7-2.27a3.22,3.22,0,0,0-2.26,1.15Zm5.07-10.95a1.85,1.85,0,0,1-1.79,1.92c-.83,0-1.52-.77-2.23-.77a1,1,0,0,0-.94.76,1,1,0,0,1-.67-.4,1.8,1.8,0,0,1,1.85-1.67c1,0,1.43.73,2.22.73a.86.86,0,0,0,.85-.72A1.59,1.59,0,0,1,176.31,216.59Z"/><path class="cls-2" d="M187.65,224.22c0,3-1.61,4.72-4.11,4.72s-4.12-1.62-4.12-4.72c0-2.75,1.77-4.44,4.12-4.44S187.65,221.36,187.65,224.22Zm-4.11,3.64c1.66,0,2.46-1.41,2.46-3.64,0-1.92-1-3.38-2.46-3.38s-2.48,1.35-2.48,3.38C181.06,226.42,182,227.86,183.54,227.86Z"/><path class="cls-2" d="M193.88,220.93a2.88,2.88,0,0,0-1.06-.22c-.94,0-1.49.43-1.49,1.1,0,2,4.22,1.4,4.22,4.54,0,1.87-1.58,2.59-3.26,2.59a5.48,5.48,0,0,1-2.76-.68,3.69,3.69,0,0,1-.09-.87,5.26,5.26,0,0,1,.18-1.28,5.21,5.21,0,0,1,1.3.17v1.24a2.86,2.86,0,0,0,1.52.41,1.37,1.37,0,0,0,1.52-1.35c0-2.14-4.25-1.37-4.25-4.55,0-1.32,1.21-2.25,3-2.25a7.12,7.12,0,0,1,2.55.46,3.32,3.32,0,0,1,0,.56,6.38,6.38,0,0,1-.19,1.46,2.7,2.7,0,0,1-1.22-.27Z"/><path class="cls-2" d="M203.32,231.64A10.73,10.73,0,0,1,205,232a2.54,2.54,0,0,1,0,.83h-4.74a2.82,2.82,0,0,1,.25-.81,7.2,7.2,0,0,1,1.16-.34V221.09h-1.34a2.08,2.08,0,0,1,.33-1,4.56,4.56,0,0,1,1.5-.26,3.24,3.24,0,0,1,.85.11v1.17h.18a2.8,2.8,0,0,1,2.66-1.38c1.59,0,3.41,1.08,3.41,4.33,0,2.9-1.82,4.83-4.43,4.83a3.1,3.1,0,0,1-1.59-.43Zm0-4a4.9,4.9,0,0,0,1.5.25c2,0,2.89-1.42,2.89-3.51s-1-3.39-2.33-3.39a2.36,2.36,0,0,0-2.06,1.1Z"/><path class="cls-2" d="M219.34,224.22c0,3-1.6,4.72-4.1,4.72s-4.12-1.62-4.12-4.72c0-2.75,1.77-4.44,4.12-4.44S219.34,221.36,219.34,224.22Zm-4.1,3.64c1.66,0,2.46-1.41,2.46-3.64,0-1.92-1-3.38-2.46-3.38s-2.48,1.35-2.48,3.38C212.76,226.42,213.7,227.86,215.24,227.86Z"/><path class="cls-2" d="M227.14,216.68h-1.3a2,2,0,0,1,.32-1,5.48,5.48,0,0,1,1.63-.25,3.74,3.74,0,0,1,.92.11v10.68a4.83,4.83,0,0,0,.15,1.28h1.35a1,1,0,0,1,0,.23,2.3,2.3,0,0,1-.14.72,10,10,0,0,1-2.45.36,3.41,3.41,0,0,1-.36-1.3h-.09a2.92,2.92,0,0,1-2.71,1.39c-1.57,0-3.36-1.08-3.36-4.34,0-2.9,1.79-4.82,4.37-4.82a3.16,3.16,0,0,1,1.65.43Zm0,4.43a4.71,4.71,0,0,0-1.5-.25c-2,0-2.9,1.4-2.9,3.49s1,3.37,2.33,3.37a2.4,2.4,0,0,0,2.07-1.08Z"/><path class="cls-2" d="M234.19,221.7a2.41,2.41,0,0,1,2.35-1.92,2.62,2.62,0,0,1,.82.14,2.58,2.58,0,0,1,.18,1.57,2.5,2.5,0,0,0-1.23-.31,2.23,2.23,0,0,0-2.08,1.48v4.82a9,9,0,0,1,1.79.33,2.47,2.47,0,0,1,0,.82h-4.81a2.56,2.56,0,0,1,.26-.81,7.08,7.08,0,0,1,1.15-.34v-6.39h-1.32a2.08,2.08,0,0,1,.33-1,4.61,4.61,0,0,1,1.5-.26,3.18,3.18,0,0,1,.85.11v1.71Z"/><path class="cls-2" d="M238.58,221.09a2.08,2.08,0,0,1,.33-1,5.15,5.15,0,0,1,1.63-.26,4,4,0,0,1,.94.11v7.53a7.74,7.74,0,0,1,1.43.25,3,3,0,0,1,.05.56,1.91,1.91,0,0,1,0,.3h-4.45a2.56,2.56,0,0,1,.26-.81,6.91,6.91,0,0,1,1.16-.34v-6.39Zm1.89-2.16a2.55,2.55,0,0,1-.93-.77l2-2.81a3.67,3.67,0,0,1,1.59.63Z"/><path class="cls-2" d="M249.27,227.57a2.78,2.78,0,0,1-2.53,1.37,2.36,2.36,0,0,1-2.57-2.41c0-1.86,1.58-2.81,3.37-2.81a4.74,4.74,0,0,1,1.68.3v-1c0-1.33-.58-2-1.72-2a5.75,5.75,0,0,0-2.64.88,1.6,1.6,0,0,1-.09-.61,2,2,0,0,1,.2-.9,7.27,7.27,0,0,1,2.95-.63c2,0,2.83.95,2.83,3.42v3.49a1.6,1.6,0,0,0,.24.94,5.68,5.68,0,0,0,1.25-.22,1.41,1.41,0,0,1,0,.2,1.89,1.89,0,0,1-.18.81,4.55,4.55,0,0,1-1.95.52,1.94,1.94,0,0,1-.76-1.37Zm0-2.75a6,6,0,0,0-1.27-.15c-1.41,0-2.21.63-2.21,1.59a1.46,1.46,0,0,0,1.65,1.44,2.3,2.3,0,0,0,1.83-.88Z"/><path class="cls-2" d="M256.16,227.54a5.91,5.91,0,0,1,1.32.23,2.72,2.72,0,0,1,0,.86h-4.34a2.31,2.31,0,0,1,.25-.81,7.2,7.2,0,0,1,1.16-.34v-6.39h-1.32a2.07,2.07,0,0,1,.32-1,4.43,4.43,0,0,1,1.5-.26,3.18,3.18,0,0,1,.85.11v1.32h.18a3.25,3.25,0,0,1,2.92-1.53c1.42,0,2.69.45,2.69,3.24,0,1.51,0,3-.11,4.52a7.56,7.56,0,0,1,1.47.23,3,3,0,0,1,.05.56,1.46,1.46,0,0,1,0,.3h-4.28a2.31,2.31,0,0,1,.25-.81,6.54,6.54,0,0,1,1-.34v-4.21c0-1.39-.43-2.27-1.7-2.27a3.22,3.22,0,0,0-2.26,1.15Z"/><path class="cls-2" d="M14.54,243.68h-1.3a2,2,0,0,1,.32-1,5.48,5.48,0,0,1,1.63-.25,3.8,3.8,0,0,1,.92.11v10.68a4.83,4.83,0,0,0,.15,1.28h1.35a1,1,0,0,1,0,.23,2.3,2.3,0,0,1-.14.72,10,10,0,0,1-2.45.36,3.24,3.24,0,0,1-.36-1.3h-.09a2.92,2.92,0,0,1-2.71,1.39c-1.57,0-3.36-1.08-3.36-4.34,0-2.9,1.79-4.82,4.37-4.82a3.16,3.16,0,0,1,1.65.43Zm0,4.43a4.73,4.73,0,0,0-1.51-.25c-2,0-2.89,1.4-2.89,3.49s1,3.37,2.33,3.37a2.4,2.4,0,0,0,2.07-1.08Z"/><path class="cls-2" d="M18.73,248.09a2.08,2.08,0,0,1,.33-1,5.11,5.11,0,0,1,1.63-.26,4,4,0,0,1,.94.11v7.53a7.63,7.63,0,0,1,1.42.25,2.29,2.29,0,0,1,.06.56,1.46,1.46,0,0,1,0,.3H18.64a2.56,2.56,0,0,1,.26-.81,7.08,7.08,0,0,1,1.15-.34v-6.39Zm3.17-4.2a1,1,0,0,1-1,1.07.94.94,0,0,1-1-1.07,1,1,0,0,1,1-1A.94.94,0,0,1,21.9,243.89Z"/><path class="cls-2" d="M28.84,247.93a2.89,2.89,0,0,0-1.07-.22c-.94,0-1.48.43-1.48,1.1,0,2,4.21,1.4,4.21,4.54,0,1.87-1.57,2.59-3.25,2.59a5.55,5.55,0,0,1-2.77-.68,4.31,4.31,0,0,1-.09-.87,5.26,5.26,0,0,1,.18-1.28,5.23,5.23,0,0,1,1.31.17v1.24a2.82,2.82,0,0,0,1.51.41,1.36,1.36,0,0,0,1.52-1.35c0-2.14-4.25-1.37-4.25-4.55,0-1.32,1.22-2.25,3-2.25a7.12,7.12,0,0,1,2.55.46,3.32,3.32,0,0,1,0,.56,5.85,5.85,0,0,1-.2,1.46,2.69,2.69,0,0,1-1.21-.27Z"/><path class="cls-2" d="M34.57,258.64a10.73,10.73,0,0,1,1.72.32,2.54,2.54,0,0,1,0,.83H31.59a2.82,2.82,0,0,1,.25-.81,7.2,7.2,0,0,1,1.16-.34V248.09H31.66a2.08,2.08,0,0,1,.33-1,4.56,4.56,0,0,1,1.5-.26,3.24,3.24,0,0,1,.85.11v1.17h.18a2.8,2.8,0,0,1,2.66-1.38c1.59,0,3.41,1.08,3.41,4.33,0,2.9-1.82,4.83-4.43,4.83a3.1,3.1,0,0,1-1.59-.43Zm0-4a4.9,4.9,0,0,0,1.5.25c2,0,2.89-1.42,2.89-3.51S38,248,36.62,248a2.36,2.36,0,0,0-2.06,1.1Z"/><path class="cls-2" d="M47.41,254.57a2.78,2.78,0,0,1-2.53,1.37,2.36,2.36,0,0,1-2.57-2.41c0-1.86,1.58-2.81,3.37-2.81a4.7,4.7,0,0,1,1.68.3v-1c0-1.33-.58-2-1.72-2a5.75,5.75,0,0,0-2.64.88,1.6,1.6,0,0,1-.09-.61,2,2,0,0,1,.2-.9,7.31,7.31,0,0,1,3-.63c2,0,2.83.95,2.83,3.42v3.49a1.68,1.68,0,0,0,.24.94,5.68,5.68,0,0,0,1.25-.22.71.71,0,0,1,0,.2,1.9,1.9,0,0,1-.19.81,4.55,4.55,0,0,1-2,.52,1.94,1.94,0,0,1-.76-1.37Zm0-2.75a6,6,0,0,0-1.27-.15c-1.41,0-2.21.63-2.21,1.59a1.46,1.46,0,0,0,1.65,1.44,2.3,2.3,0,0,0,1.83-.88Z"/><path class="cls-2" d="M54.27,248.7a2.4,2.4,0,0,1,2.35-1.92,2.6,2.6,0,0,1,.81.14,2.3,2.3,0,0,1,.24,1.08,1.88,1.88,0,0,1-.06.49,2.44,2.44,0,0,0-1.23-.31,2.24,2.24,0,0,0-2.08,1.48v4.82a8.76,8.76,0,0,1,1.79.33,2.46,2.46,0,0,1,0,.82H51.32a2.31,2.31,0,0,1,.25-.81,7.2,7.2,0,0,1,1.16-.34v-6.39H51.41a2.07,2.07,0,0,1,.32-1,4.61,4.61,0,0,1,1.5-.26,3.18,3.18,0,0,1,.85.11v1.71Z"/><path class="cls-2" d="M63.69,254.57a2.79,2.79,0,0,1-2.53,1.37,2.35,2.35,0,0,1-2.57-2.41c0-1.86,1.57-2.81,3.36-2.81a4.66,4.66,0,0,1,1.68.3v-1c0-1.33-.58-2-1.72-2a5.83,5.83,0,0,0-2.64.88,1.6,1.6,0,0,1-.09-.61,2,2,0,0,1,.2-.9,7.31,7.31,0,0,1,2.95-.63c2,0,2.84.95,2.84,3.42v3.49a1.69,1.69,0,0,0,.23.94,5.49,5.49,0,0,0,1.25-.22.71.71,0,0,1,0,.2,1.89,1.89,0,0,1-.18.81,4.64,4.64,0,0,1-1.95.52,1.88,1.88,0,0,1-.76-1.37Zm0-2.75a5.88,5.88,0,0,0-1.27-.15c-1.41,0-2.2.63-2.2,1.59a1.46,1.46,0,0,0,1.64,1.44,2.27,2.27,0,0,0,1.83-.88Z"/><path class="cls-2" d="M70.54,248.7a2.4,2.4,0,0,1,2.35-1.92,2.51,2.51,0,0,1,.81.14,2.3,2.3,0,0,1,.24,1.08,1.88,1.88,0,0,1-.06.49,2.43,2.43,0,0,0-1.22-.31,2.23,2.23,0,0,0-2.08,1.48v4.82a9,9,0,0,1,1.79.33,2.47,2.47,0,0,1,0,.82H67.59a2.56,2.56,0,0,1,.26-.81,6.79,6.79,0,0,1,1.15-.34v-6.39H67.68a2.08,2.08,0,0,1,.33-1,4.61,4.61,0,0,1,1.5-.26,3.18,3.18,0,0,1,.85.11v1.71Z"/><path class="cls-2" d="M79.53,247.93a2.93,2.93,0,0,0-1.07-.22c-.94,0-1.48.43-1.48,1.1,0,2,4.21,1.4,4.21,4.54,0,1.87-1.57,2.59-3.25,2.59a5.55,5.55,0,0,1-2.77-.68,4.31,4.31,0,0,1-.09-.87,5.26,5.26,0,0,1,.18-1.28,5.15,5.15,0,0,1,1.3.17v1.24a2.88,2.88,0,0,0,1.52.41,1.37,1.37,0,0,0,1.52-1.35c0-2.14-4.25-1.37-4.25-4.55,0-1.32,1.21-2.25,3-2.25a7.09,7.09,0,0,1,2.55.46,2.5,2.5,0,0,1,0,.56,5.85,5.85,0,0,1-.2,1.46,2.63,2.63,0,0,1-1.21-.27Z"/><path class="cls-2" d="M84.52,251.56a2.89,2.89,0,0,0,2.94,3.12,8.43,8.43,0,0,0,2.54-.5,2,2,0,0,1-.24,1,6.24,6.24,0,0,1-2.86.74c-2.58,0-4.06-1.93-4.06-4.41,0-2.65,1.64-4.75,4.17-4.75,2.17,0,3.09,1.56,3.09,3.83a7.66,7.66,0,0,1,0,.95Zm4-1c.12-1.24-.24-2.75-1.76-2.75-1.28,0-2.11,1.11-2.22,2.75Z"/><path class="cls-2" d="M101,248.09a2.31,2.31,0,0,0-1-.27c-1.55,0-2.67,1-2.67,3.38s1.19,3.5,2.82,3.5a7.94,7.94,0,0,0,2.22-.43,2.13,2.13,0,0,1-.25,1,6.37,6.37,0,0,1-2.68.65c-2.33,0-3.83-1.87-3.83-4.39,0-2.79,1.79-4.77,4.43-4.77a4.44,4.44,0,0,1,2.37.64c0,.18,0,.47,0,.65a4.35,4.35,0,0,1-.26,1.53,3.18,3.18,0,0,1-1.14-.23Z"/><path class="cls-2" d="M112.18,251.22c0,3-1.6,4.72-4.1,4.72s-4.12-1.62-4.12-4.72c0-2.75,1.77-4.44,4.12-4.44S112.18,248.36,112.18,251.22Zm-4.1,3.64c1.66,0,2.46-1.41,2.46-3.64,0-1.92-1-3.38-2.46-3.38s-2.48,1.35-2.48,3.38C105.6,253.42,106.54,254.86,108.08,254.86Z"/><path class="cls-2" d="M116.72,254.54a5.81,5.81,0,0,1,1.32.23,2.46,2.46,0,0,1,0,.86h-4.34a2.82,2.82,0,0,1,.25-.81,7.2,7.2,0,0,1,1.16-.34v-6.39h-1.32a2.08,2.08,0,0,1,.33-1,4.38,4.38,0,0,1,1.5-.26,3.3,3.3,0,0,1,.85.11v1.32h.18a3.22,3.22,0,0,1,2.91-1.53c1.43,0,2.69.45,2.69,3.24,0,1.51,0,3-.11,4.52a7.44,7.44,0,0,1,1.47.23,3,3,0,0,1,0,.56,1.46,1.46,0,0,1,0,.3H119.4a2.82,2.82,0,0,1,.25-.81,6.9,6.9,0,0,1,1-.34v-4.21c0-1.39-.43-2.27-1.7-2.27a3.22,3.22,0,0,0-2.26,1.15Z"/><path class="cls-2" d="M128.32,243.68a2,2,0,0,1,.32-1,5.48,5.48,0,0,1,1.63-.25,3.8,3.8,0,0,1,.92.11v11.94a8.19,8.19,0,0,1,1.47.25,3,3,0,0,1,.05.56,1.46,1.46,0,0,1,0,.3h-4.48a2.31,2.31,0,0,1,.25-.81,7.2,7.2,0,0,1,1.16-.34v-10.8Z"/><path class="cls-2" d="M139,254.57a2.78,2.78,0,0,1-2.53,1.37,2.36,2.36,0,0,1-2.57-2.41c0-1.86,1.58-2.81,3.37-2.81a4.7,4.7,0,0,1,1.68.3v-1c0-1.33-.58-2-1.72-2a5.75,5.75,0,0,0-2.64.88,1.6,1.6,0,0,1-.09-.61,2,2,0,0,1,.2-.9,7.27,7.27,0,0,1,3-.63c2,0,2.83.95,2.83,3.42v3.49a1.68,1.68,0,0,0,.24.94,5.68,5.68,0,0,0,1.25-.22.71.71,0,0,1,0,.2,1.9,1.9,0,0,1-.19.81,4.55,4.55,0,0,1-2,.52,1.94,1.94,0,0,1-.76-1.37Zm0-2.75a6,6,0,0,0-1.27-.15c-1.41,0-2.21.63-2.21,1.59a1.46,1.46,0,0,0,1.65,1.44,2.3,2.3,0,0,0,1.83-.88Z"/><path class="cls-2" d="M147.59,247.93a2.89,2.89,0,0,0-1.07-.22c-.94,0-1.48.43-1.48,1.1,0,2,4.21,1.4,4.21,4.54,0,1.87-1.57,2.59-3.25,2.59a5.55,5.55,0,0,1-2.77-.68,4.31,4.31,0,0,1-.09-.87,5.26,5.26,0,0,1,.18-1.28,5.23,5.23,0,0,1,1.31.17v1.24a2.82,2.82,0,0,0,1.51.41,1.36,1.36,0,0,0,1.52-1.35c0-2.14-4.25-1.37-4.25-4.55,0-1.32,1.22-2.25,3-2.25a7.12,7.12,0,0,1,2.55.46,3.32,3.32,0,0,1,0,.56,5.85,5.85,0,0,1-.2,1.46,2.69,2.69,0,0,1-1.21-.27Z"/><path class="cls-2" d="M156.58,254.32c1.75,0,3.71-.07,5.6-.22a1.62,1.62,0,0,1,0,.31,7.27,7.27,0,0,1-.11,1.22h-7.21l-.24-1.29c1.56-1.39,5.45-3.86,5.45-5.94,0-.94-.76-1.37-1.87-1.37a4.9,4.9,0,0,0-2,.47V249a2.93,2.93,0,0,1-1.23.27,6.57,6.57,0,0,1-.23-1.69c0-.24,0-.6,0-.81a7.47,7.47,0,0,1,3.52-.9c2,0,3.51.63,3.51,2.28,0,2.67-4,5-5.26,6.05Z"/><path class="cls-2" d="M170,257.29a4,4,0,0,1-.78,0,3.93,3.93,0,0,1-.77,0v-3.13h-5.17l-.26-.94a73.71,73.71,0,0,1,5.16-7.31l1.82.29V253h1.61a3.21,3.21,0,0,1,.09.78c0,.14,0,.32,0,.43H170Zm-1.55-8.43a11.52,11.52,0,0,1,.09-1.42h-.13a47.1,47.1,0,0,0-3.8,5.42V253c.28,0,.78,0,1.14,0h2.7Z"/><path class="cls-2" d="M180.65,247.41a37.29,37.29,0,0,0-4.69,9.86,3,3,0,0,1-.81.09,4.71,4.71,0,0,1-1-.09,38.76,38.76,0,0,1,4.77-9.43v-.13h-4.77a8.79,8.79,0,0,1-.4,1.51,4.52,4.52,0,0,1-1.14-.21l.23-2.79h7.54Z"/><path class="cls-2" d="M188.39,254.54a6,6,0,0,1,1.32.23,2.73,2.73,0,0,1,0,.86H185.4a2.56,2.56,0,0,1,.26-.81,7.08,7.08,0,0,1,1.15-.34v-6.39h-1.32a2.08,2.08,0,0,1,.33-1,4.43,4.43,0,0,1,1.5-.26,3.18,3.18,0,0,1,.85.11v1.32h.18a3.19,3.19,0,0,1,2.86-1.53,2.12,2.12,0,0,1,2.4,1.63h.09a3.19,3.19,0,0,1,2.91-1.63c1.41,0,2.66.45,2.66,3.24,0,1.53,0,3-.11,4.52a7.44,7.44,0,0,1,1.47.23,3,3,0,0,1,.05.56,1.46,1.46,0,0,1,0,.3h-4.28a2.54,2.54,0,0,1,.25-.81,6.9,6.9,0,0,1,1-.34v-4.21c0-1.39-.41-2.27-1.66-2.27a3.17,3.17,0,0,0-2.21,1.15v5.37a5.74,5.74,0,0,1,1.32.25,2.46,2.46,0,0,1,0,.86H191a2.56,2.56,0,0,1,.26-.81,6.54,6.54,0,0,1,1-.34v-4.21c0-1.39-.42-2.27-1.67-2.27a3.12,3.12,0,0,0-2.2,1.15Z"/><path class="cls-2" d="M201.75,248.09a2,2,0,0,1,.33-1,5.09,5.09,0,0,1,1.62-.26,3.91,3.91,0,0,1,.94.11v7.53a7.74,7.74,0,0,1,1.43.25,2.29,2.29,0,0,1,.06.56,1.46,1.46,0,0,1,0,.3h-4.45a2.82,2.82,0,0,1,.25-.81,7.2,7.2,0,0,1,1.16-.34v-6.39Zm3.16-4.2a1,1,0,0,1-1,1.07.94.94,0,0,1-1-1.07,1,1,0,0,1,1-1A.93.93,0,0,1,204.91,243.89Z"/><path class="cls-2" d="M207.1,243.68a2.12,2.12,0,0,1,.33-1,5.41,5.41,0,0,1,1.62-.25,3.83,3.83,0,0,1,.93.11v11.94a8.08,8.08,0,0,1,1.46.25,2.29,2.29,0,0,1,.06.56,1.46,1.46,0,0,1,0,.3H207a2.56,2.56,0,0,1,.26-.81,7.08,7.08,0,0,1,1.15-.34v-10.8Z"/><path class="cls-2" d="M212.46,243.68a2,2,0,0,1,.32-1,5.48,5.48,0,0,1,1.63-.25,3.8,3.8,0,0,1,.92.11v11.94a7.93,7.93,0,0,1,1.46.25,2.29,2.29,0,0,1,.06.56,1.46,1.46,0,0,1,0,.3h-4.48a2.31,2.31,0,0,1,.25-.81,7.2,7.2,0,0,1,1.16-.34v-10.8Z"/><path class="cls-2" d="M226.32,251.22c0,3-1.61,4.72-4.1,4.72s-4.12-1.62-4.12-4.72c0-2.75,1.77-4.44,4.12-4.44S226.32,248.36,226.32,251.22Zm-4.1,3.64c1.66,0,2.46-1.41,2.46-3.64,0-1.92-1-3.38-2.46-3.38s-2.48,1.35-2.48,3.38C219.74,253.42,220.68,254.86,222.22,254.86Z"/><path class="cls-2" d="M230.86,254.54a5.81,5.81,0,0,1,1.32.23,2.46,2.46,0,0,1,0,.86h-4.34a2.82,2.82,0,0,1,.25-.81,7.2,7.2,0,0,1,1.16-.34v-6.39H228a2.08,2.08,0,0,1,.33-1,4.38,4.38,0,0,1,1.5-.26,3.3,3.3,0,0,1,.85.11v1.32h.18a3.22,3.22,0,0,1,2.91-1.53c1.43,0,2.69.45,2.69,3.24,0,1.51,0,3-.11,4.52a7.44,7.44,0,0,1,1.47.23,3,3,0,0,1,.05.56,1.46,1.46,0,0,1,0,.3h-4.28a2.82,2.82,0,0,1,.25-.81,6.9,6.9,0,0,1,1-.34v-4.21c0-1.39-.43-2.27-1.7-2.27a3.22,3.22,0,0,0-2.26,1.15Z"/><path class="cls-2" d="M240.72,251.56a2.89,2.89,0,0,0,2.95,3.12,8.43,8.43,0,0,0,2.53-.5,2,2,0,0,1-.24,1,6.23,6.23,0,0,1-2.85.74c-2.59,0-4.07-1.93-4.07-4.41,0-2.65,1.64-4.75,4.17-4.75,2.17,0,3.1,1.56,3.1,3.83a7.69,7.69,0,0,1-.06.95Zm4-1c.12-1.24-.24-2.75-1.76-2.75-1.28,0-2.11,1.11-2.22,2.75Z"/><path class="cls-2" d="M252.49,247.93a2.89,2.89,0,0,0-1.07-.22c-.94,0-1.48.43-1.48,1.1,0,2,4.21,1.4,4.21,4.54,0,1.87-1.57,2.59-3.25,2.59a5.55,5.55,0,0,1-2.77-.68,4.31,4.31,0,0,1-.09-.87,5.26,5.26,0,0,1,.18-1.28,5.23,5.23,0,0,1,1.31.17v1.24a2.82,2.82,0,0,0,1.51.41,1.36,1.36,0,0,0,1.52-1.35c0-2.14-4.25-1.37-4.25-4.55,0-1.32,1.22-2.25,3-2.25a7.12,7.12,0,0,1,2.55.46,3.32,3.32,0,0,1,0,.56,5.85,5.85,0,0,1-.2,1.46,2.66,2.66,0,0,1-1.21-.27Z"/><path class="cls-2" d="M8.16,270.68H6.86a2.12,2.12,0,0,1,.33-1,5.41,5.41,0,0,1,1.62-.25,3.89,3.89,0,0,1,.93.11v10.68a4.83,4.83,0,0,0,.14,1.28h1.36a1.93,1.93,0,0,1,0,.23,2.3,2.3,0,0,1-.14.72,9.94,9.94,0,0,1-2.44.36,3.09,3.09,0,0,1-.36-1.3H8.22a2.94,2.94,0,0,1-2.72,1.39c-1.57,0-3.36-1.08-3.36-4.34,0-2.9,1.79-4.82,4.38-4.82a3.12,3.12,0,0,1,1.64.43Zm0,4.43a4.67,4.67,0,0,0-1.5-.25c-2,0-2.89,1.4-2.89,3.49s1,3.37,2.33,3.37a2.39,2.39,0,0,0,2.06-1.08Z"/><path class="cls-2" d="M14.17,278.56a2.89,2.89,0,0,0,2.94,3.12,8.43,8.43,0,0,0,2.54-.5,2,2,0,0,1-.24,1,6.27,6.27,0,0,1-2.86.74c-2.58,0-4.06-1.93-4.06-4.41,0-2.65,1.64-4.75,4.17-4.75,2.17,0,3.09,1.56,3.09,3.83a7.66,7.66,0,0,1-.05.95Zm4-1c.13-1.24-.23-2.75-1.75-2.75-1.28,0-2.11,1.11-2.22,2.75Z"/><path class="cls-2" d="M28,281.54a6,6,0,0,1,1.32.23,2.73,2.73,0,0,1,0,.86H25a2.56,2.56,0,0,1,.26-.81,6.79,6.79,0,0,1,1.15-.34v-6.39H25.05a2.08,2.08,0,0,1,.33-.95,4.43,4.43,0,0,1,1.5-.26,3.18,3.18,0,0,1,.85.11v1.32h.18a3.19,3.19,0,0,1,2.86-1.53,2.12,2.12,0,0,1,2.4,1.63h.09a3.19,3.19,0,0,1,2.91-1.63c1.41,0,2.66.45,2.66,3.24,0,1.53,0,3-.11,4.52a7.44,7.44,0,0,1,1.47.23,3,3,0,0,1,.05.56,1.46,1.46,0,0,1,0,.3H35.94a2.31,2.31,0,0,1,.25-.81,6.9,6.9,0,0,1,1-.34v-4.21c0-1.39-.41-2.27-1.66-2.27a3.17,3.17,0,0,0-2.21,1.15v5.37a5.85,5.85,0,0,1,1.32.25,2.46,2.46,0,0,1,0,.86H30.53a2.56,2.56,0,0,1,.26-.81,6.54,6.54,0,0,1,1-.34v-4.21c0-1.39-.42-2.27-1.67-2.27a3.12,3.12,0,0,0-2.2,1.15Z"/><path class="cls-2" d="M47.75,275.09H46.44a2.08,2.08,0,0,1,.33-.95,4.64,4.64,0,0,1,1.63-.26,3.8,3.8,0,0,1,.92.11v6.27a5.76,5.76,0,0,0,.14,1.28h1.38a1,1,0,0,1,0,.23,2.3,2.3,0,0,1-.15.72,10.32,10.32,0,0,1-2.48.36,4,4,0,0,1-.36-1.42h-.09a3.18,3.18,0,0,1-2.87,1.51c-1.41,0-2.66-.45-2.66-3.24,0-1.51,0-3.1.09-4.61H41a2.2,2.2,0,0,1,.32-.94,5,5,0,0,1,1.65-.27,3.8,3.8,0,0,1,.92.11v5.46c0,1.37.43,2.25,1.66,2.25a3.13,3.13,0,0,0,2.23-1.1Z"/><path class="cls-2" d="M55,281.54a6,6,0,0,1,1.32.23,2.73,2.73,0,0,1,0,.86H52a2.56,2.56,0,0,1,.26-.81,7.08,7.08,0,0,1,1.15-.34v-6.39H52.12a2.08,2.08,0,0,1,.33-.95,4.43,4.43,0,0,1,1.5-.26,3.18,3.18,0,0,1,.85.11v1.32H55a3.23,3.23,0,0,1,2.91-1.53c1.43,0,2.69.45,2.69,3.24,0,1.51,0,3-.1,4.52a7.45,7.45,0,0,1,1.46.23,2.29,2.29,0,0,1,.06.56,1.46,1.46,0,0,1,0,.3H57.69a2.56,2.56,0,0,1,.26-.81,6.54,6.54,0,0,1,1-.34v-4.21c0-1.39-.44-2.27-1.7-2.27A3.2,3.2,0,0,0,55,276.15Z"/><path class="cls-2" d="M63.06,275.09a2.08,2.08,0,0,1,.33-.95,5.11,5.11,0,0,1,1.63-.26A4,4,0,0,1,66,274v7.53a7.63,7.63,0,0,1,1.42.25,2.29,2.29,0,0,1,.06.56,1.46,1.46,0,0,1,0,.3H63a2.56,2.56,0,0,1,.26-.81,7.08,7.08,0,0,1,1.15-.34v-6.39Zm3.17-4.2a1,1,0,0,1-1,1.07.94.94,0,0,1-1-1.07,1,1,0,0,1,1-1A.94.94,0,0,1,66.23,270.89Z"/><path class="cls-2" d="M74.15,275.09a2.34,2.34,0,0,0-1.05-.27c-1.56,0-2.68,1-2.68,3.38s1.2,3.5,2.82,3.5a7.94,7.94,0,0,0,2.23-.43,2,2,0,0,1-.26,1,6.28,6.28,0,0,1-2.67.65c-2.33,0-3.83-1.87-3.83-4.39,0-2.79,1.79-4.77,4.42-4.77a4.39,4.39,0,0,1,2.37.64c0,.18,0,.47,0,.65a4.35,4.35,0,0,1-.25,1.53,3.13,3.13,0,0,1-1.14-.23Z"/><path class="cls-2" d="M77,275.09a2.08,2.08,0,0,1,.33-.95,5.15,5.15,0,0,1,1.63-.26,4,4,0,0,1,.94.11v7.53a7.74,7.74,0,0,1,1.43.25,3,3,0,0,1,0,.56,1.46,1.46,0,0,1,0,.3H76.92a2.31,2.31,0,0,1,.25-.81,6.91,6.91,0,0,1,1.16-.34v-6.39Zm3.17-4.2a1,1,0,0,1-1,1.07.94.94,0,0,1-1-1.07,1,1,0,0,1,1-1A.93.93,0,0,1,80.17,270.89Z"/><path class="cls-2" d="M90.87,278.22c0,3-1.61,4.72-4.1,4.72s-4.12-1.62-4.12-4.72c0-2.75,1.77-4.44,4.12-4.44S90.87,275.36,90.87,278.22Zm-4.1,3.64c1.66,0,2.46-1.41,2.46-3.64,0-1.92-1-3.38-2.46-3.38s-2.48,1.35-2.48,3.38C84.29,280.42,85.23,281.86,86.77,281.86Z"/><path class="cls-2" d="M95.41,281.54a5.81,5.81,0,0,1,1.32.23,2.46,2.46,0,0,1,0,.86H92.43a2.82,2.82,0,0,1,.25-.81,7.2,7.2,0,0,1,1.16-.34v-6.39H92.52a2.08,2.08,0,0,1,.33-.95,4.38,4.38,0,0,1,1.5-.26,3.3,3.3,0,0,1,.85.11v1.32h.18a3.22,3.22,0,0,1,2.91-1.53c1.43,0,2.69.45,2.69,3.24,0,1.51,0,3-.11,4.52a7.44,7.44,0,0,1,1.47.23,2.33,2.33,0,0,1,0,.56,2.91,2.91,0,0,1,0,.3H98.09a2.82,2.82,0,0,1,.25-.81,6.9,6.9,0,0,1,1-.34v-4.21c0-1.39-.43-2.27-1.7-2.27a3.22,3.22,0,0,0-2.26,1.15Z"/><path class="cls-2" d="M105.27,278.56a2.9,2.9,0,0,0,3,3.12,8.43,8.43,0,0,0,2.53-.5,1.91,1.91,0,0,1-.24,1,6.23,6.23,0,0,1-2.85.74c-2.59,0-4.07-1.93-4.07-4.41,0-2.65,1.64-4.75,4.17-4.75,2.17,0,3.1,1.56,3.1,3.83a7.69,7.69,0,0,1-.06.95Zm4-1c.12-1.24-.24-2.75-1.76-2.75-1.28,0-2.11,1.11-2.22,2.75Z"/><path class="cls-2" d="M117,274.93a2.89,2.89,0,0,0-1.07-.22c-.94,0-1.48.43-1.48,1.1,0,2,4.21,1.4,4.21,4.54,0,1.87-1.57,2.59-3.25,2.59a5.55,5.55,0,0,1-2.77-.68,4.31,4.31,0,0,1-.09-.87,5.26,5.26,0,0,1,.18-1.28,5.23,5.23,0,0,1,1.31.17v1.24a2.82,2.82,0,0,0,1.51.41,1.36,1.36,0,0,0,1.52-1.35c0-2.14-4.25-1.37-4.25-4.55,0-1.32,1.22-2.25,3-2.25a7.12,7.12,0,0,1,2.55.46,3.32,3.32,0,0,1,0,.56,5.85,5.85,0,0,1-.2,1.46A2.66,2.66,0,0,1,117,276Z"/><path class="cls-2" d="M123.93,275.09a2.08,2.08,0,0,1,.33-.95,5.09,5.09,0,0,1,1.62-.26,3.91,3.91,0,0,1,.94.11v7.53a7.6,7.6,0,0,1,1.43.25,2.29,2.29,0,0,1,.06.56,1.46,1.46,0,0,1,0,.3h-4.45a2.82,2.82,0,0,1,.25-.81,7.2,7.2,0,0,1,1.16-.34v-6.39Zm3.16-4.2a1,1,0,0,1-1,1.07.94.94,0,0,1-1-1.07,1,1,0,0,1,1-1A.93.93,0,0,1,127.09,270.89Z"/><path class="cls-2" d="M132.34,281.54a6,6,0,0,1,1.32.23,3.05,3.05,0,0,1,0,.86h-4.34a2.31,2.31,0,0,1,.25-.81,6.91,6.91,0,0,1,1.16-.34v-6.39h-1.32a2,2,0,0,1,.32-.95,4.43,4.43,0,0,1,1.5-.26,3.18,3.18,0,0,1,.85.11v1.32h.18a3.19,3.19,0,0,1,2.86-1.53,2.12,2.12,0,0,1,2.4,1.63h.1a3.16,3.16,0,0,1,2.91-1.63c1.41,0,2.65.45,2.65,3.24,0,1.53,0,3-.1,4.52a7.45,7.45,0,0,1,1.46.23,2.33,2.33,0,0,1,0,.56,2.91,2.91,0,0,1,0,.3h-4.29a2.82,2.82,0,0,1,.25-.81,7.31,7.31,0,0,1,1-.34v-4.21c0-1.39-.41-2.27-1.66-2.27a3.13,3.13,0,0,0-2.2,1.15v5.37a6,6,0,0,1,1.32.25,2.73,2.73,0,0,1,0,.86h-4.18a2.56,2.56,0,0,1,.26-.81,6.54,6.54,0,0,1,1-.34v-4.21c0-1.39-.42-2.27-1.67-2.27a3.12,3.12,0,0,0-2.2,1.15Z"/><path class="cls-2" d="M148.25,285.64A10.73,10.73,0,0,1,150,286a2.84,2.84,0,0,1,0,.83h-4.74a2.31,2.31,0,0,1,.25-.81,7.2,7.2,0,0,1,1.16-.34V275.09h-1.34a2.08,2.08,0,0,1,.33-.95,4.52,4.52,0,0,1,1.5-.26,3.3,3.3,0,0,1,.85.11v1.17h.18a2.8,2.8,0,0,1,2.66-1.38c1.59,0,3.41,1.08,3.41,4.33,0,2.9-1.82,4.83-4.43,4.83a3.1,3.1,0,0,1-1.59-.43Zm0-4a5,5,0,0,0,1.5.25c2,0,2.9-1.42,2.9-3.51s-1-3.39-2.34-3.39a2.39,2.39,0,0,0-2.06,1.1Z"/><path class="cls-2" d="M164.27,278.22c0,3-1.61,4.72-4.1,4.72s-4.12-1.62-4.12-4.72c0-2.75,1.77-4.44,4.12-4.44S164.27,275.36,164.27,278.22Zm-4.1,3.64c1.66,0,2.46-1.41,2.46-3.64,0-1.92-1-3.38-2.46-3.38s-2.48,1.35-2.48,3.38C157.69,280.42,158.63,281.86,160.17,281.86Z"/><path class="cls-2" d="M168.78,275.7a2.4,2.4,0,0,1,2.35-1.92,2.6,2.6,0,0,1,.81.14,2.31,2.31,0,0,1,.23,1.08,1.89,1.89,0,0,1,0,.49,2.47,2.47,0,0,0-1.23-.31,2.24,2.24,0,0,0-2.08,1.48v4.82a8.76,8.76,0,0,1,1.79.33,2.46,2.46,0,0,1,0,.82h-4.81a2.54,2.54,0,0,1,.25-.81,7.2,7.2,0,0,1,1.16-.34v-6.39h-1.32a2.07,2.07,0,0,1,.32-.95,4.63,4.63,0,0,1,1.51-.26,3.16,3.16,0,0,1,.84.11v1.71Z"/><path class="cls-2" d="M174.4,271.88a3.31,3.31,0,0,1,1.21-.28v2.48h2.62a4.83,4.83,0,0,1,.06,1.05h-2.68v4.95c0,1.17.16,1.67,1.18,1.67a7.36,7.36,0,0,0,1.68-.23,1.06,1.06,0,0,1,0,.23,1.48,1.48,0,0,1-.19.7,5.75,5.75,0,0,1-2.22.49c-1.39,0-2.1-.76-2.1-2.61,0-1.06,0-3.39.09-5.2h-1.24a2.74,2.74,0,0,1,.21-.94,6.45,6.45,0,0,1,1.05-.33Z"/><path class="cls-2" d="M184.67,281.57a2.79,2.79,0,0,1-2.53,1.37,2.36,2.36,0,0,1-2.57-2.41c0-1.86,1.57-2.81,3.36-2.81a4.75,4.75,0,0,1,1.69.3v-1c0-1.33-.58-2-1.72-2a5.75,5.75,0,0,0-2.64.88,1.6,1.6,0,0,1-.09-.61,2,2,0,0,1,.2-.9,7.26,7.26,0,0,1,2.94-.63c2,0,2.84,1,2.84,3.42v3.49a1.6,1.6,0,0,0,.24.94,5.68,5.68,0,0,0,1.25-.22,1.41,1.41,0,0,1,0,.2,1.89,1.89,0,0,1-.18.81,4.59,4.59,0,0,1-1.95.52,1.94,1.94,0,0,1-.76-1.37Zm0-2.75a5.87,5.87,0,0,0-1.26-.15c-1.41,0-2.21.63-2.21,1.59a1.46,1.46,0,0,0,1.65,1.44,2.27,2.27,0,0,0,1.82-.88Z"/><path class="cls-2" d="M194.81,270.68h-1.3a2.12,2.12,0,0,1,.33-1,5.42,5.42,0,0,1,1.63-.25,3.8,3.8,0,0,1,.92.11v10.68a4.83,4.83,0,0,0,.14,1.28h1.36a1,1,0,0,1,0,.23,2.3,2.3,0,0,1-.15.72,9.94,9.94,0,0,1-2.44.36,3.24,3.24,0,0,1-.36-1.3h-.09a2.92,2.92,0,0,1-2.71,1.39c-1.58,0-3.37-1.08-3.37-4.34,0-2.9,1.79-4.82,4.38-4.82a3.12,3.12,0,0,1,1.64.43Zm0,4.43a4.67,4.67,0,0,0-1.5-.25c-2,0-2.89,1.4-2.89,3.49s1,3.37,2.33,3.37a2.39,2.39,0,0,0,2.06-1.08Z"/><path class="cls-2" d="M204.18,281.57a2.78,2.78,0,0,1-2.53,1.37,2.36,2.36,0,0,1-2.57-2.41c0-1.86,1.58-2.81,3.37-2.81a4.74,4.74,0,0,1,1.68.3v-1c0-1.33-.58-2-1.72-2a5.75,5.75,0,0,0-2.64.88,1.6,1.6,0,0,1-.09-.61,2,2,0,0,1,.2-.9,7.27,7.27,0,0,1,3-.63c2,0,2.83,1,2.83,3.42v3.49a1.6,1.6,0,0,0,.24.94,5.68,5.68,0,0,0,1.25-.22.71.71,0,0,1,0,.2,1.9,1.9,0,0,1-.19.81,4.55,4.55,0,0,1-1.95.52,1.94,1.94,0,0,1-.76-1.37Zm0-2.75a6,6,0,0,0-1.27-.15c-1.41,0-2.21.63-2.21,1.59a1.46,1.46,0,0,0,1.65,1.44,2.3,2.3,0,0,0,1.83-.88Z"/><path class="cls-2" d="M212.77,274.93a2.89,2.89,0,0,0-1.07-.22c-.94,0-1.48.43-1.48,1.1,0,2,4.21,1.4,4.21,4.54,0,1.87-1.57,2.59-3.25,2.59a5.55,5.55,0,0,1-2.77-.68,4.31,4.31,0,0,1-.09-.87,5.26,5.26,0,0,1,.18-1.28,5.23,5.23,0,0,1,1.31.17v1.24a2.82,2.82,0,0,0,1.51.41,1.36,1.36,0,0,0,1.52-1.35c0-2.14-4.25-1.37-4.25-4.55,0-1.32,1.22-2.25,3-2.25a7.12,7.12,0,0,1,2.55.46,3.32,3.32,0,0,1,0,.56,5.85,5.85,0,0,1-.2,1.46,2.66,2.66,0,0,1-1.21-.27Z"/><path class="cls-2" d="M221.47,278.56a2.89,2.89,0,0,0,2.95,3.12,8.43,8.43,0,0,0,2.53-.5,1.91,1.91,0,0,1-.24,1,6.23,6.23,0,0,1-2.85.74c-2.59,0-4.07-1.93-4.07-4.41,0-2.65,1.64-4.75,4.17-4.75,2.17,0,3.1,1.56,3.1,3.83a7.69,7.69,0,0,1-.06.95Zm4-1c.12-1.24-.24-2.75-1.76-2.75-1.28,0-2.11,1.11-2.22,2.75Z"/><path class="cls-2" d="M231.54,281.54a5.91,5.91,0,0,1,1.32.23,2.72,2.72,0,0,1,0,.86h-4.34a2.31,2.31,0,0,1,.25-.81,7.2,7.2,0,0,1,1.16-.34v-6.39h-1.32a2.07,2.07,0,0,1,.32-.95,4.43,4.43,0,0,1,1.5-.26,3.18,3.18,0,0,1,.85.11v1.32h.18a3.25,3.25,0,0,1,2.92-1.53c1.42,0,2.69.45,2.69,3.24,0,1.51,0,3-.11,4.52a7.56,7.56,0,0,1,1.47.23,3,3,0,0,1,.05.56,1.46,1.46,0,0,1,0,.3h-4.28a2.31,2.31,0,0,1,.25-.81,6.54,6.54,0,0,1,1-.34v-4.21c0-1.39-.43-2.27-1.7-2.27a3.22,3.22,0,0,0-2.26,1.15Z"/><path class="cls-2" d="M240.82,271.88a3.31,3.31,0,0,1,1.21-.28v2.48h2.62a4.83,4.83,0,0,1,.06,1.05H242v4.95c0,1.17.16,1.67,1.18,1.67a7.36,7.36,0,0,0,1.68-.23,2.11,2.11,0,0,1,0,.23,1.6,1.6,0,0,1-.18.7,5.75,5.75,0,0,1-2.22.49c-1.39,0-2.1-.76-2.1-2.61,0-1.06,0-3.39.09-5.2h-1.24a2.74,2.74,0,0,1,.21-.94,6.45,6.45,0,0,1,1-.33Z"/><path class="cls-2" d="M248.77,275.7a2.42,2.42,0,0,1,2.35-1.92,2.62,2.62,0,0,1,.82.14,2.31,2.31,0,0,1,.23,1.08,1.89,1.89,0,0,1,0,.49,2.5,2.5,0,0,0-1.23-.31,2.24,2.24,0,0,0-2.08,1.48v4.82a8.89,8.89,0,0,1,1.79.33,2.46,2.46,0,0,1,0,.82h-4.81a2.31,2.31,0,0,1,.25-.81,7.2,7.2,0,0,1,1.16-.34v-6.39h-1.32a2.07,2.07,0,0,1,.32-.95,4.61,4.61,0,0,1,1.5-.26,3.18,3.18,0,0,1,.85.11v1.71Z"/><path class="cls-2" d="M254.87,278.56a2.89,2.89,0,0,0,2.95,3.12,8.43,8.43,0,0,0,2.53-.5,2,2,0,0,1-.24,1,6.24,6.24,0,0,1-2.86.74c-2.58,0-4.06-1.93-4.06-4.41,0-2.65,1.64-4.75,4.17-4.75,2.17,0,3.1,1.56,3.1,3.83a7.69,7.69,0,0,1-.06.95Zm4-1c.12-1.24-.24-2.75-1.76-2.75-1.28,0-2.11,1.11-2.22,2.75Z"/><path class="cls-2" d="M83.44,308.32c1.76,0,3.71-.07,5.61-.22a1.62,1.62,0,0,1,0,.31,8.49,8.49,0,0,1-.11,1.22H81.74l-.23-1.29C83.06,307,87,304.48,87,302.4c0-.94-.76-1.37-1.86-1.37a4.9,4.9,0,0,0-2,.47V303a3,3,0,0,1-1.23.27,6.16,6.16,0,0,1-.24-1.69c0-.24,0-.6,0-.81a7.48,7.48,0,0,1,3.53-.9c2,0,3.5.63,3.5,2.28,0,2.67-4,5-5.26,6.05Z"/><path class="cls-2" d="M100,304.77c0,3.41-1.79,5.22-4.68,5.22s-4.7-1.72-4.7-5.22c0-3,1.93-4.91,4.7-4.91S100,301.57,100,304.77Zm-4.68,4.09c2,0,3-1.51,3-4.09,0-2.21-1.12-3.8-3-3.8s-3,1.46-3,3.8C92.29,307.29,93.41,308.86,95.27,308.86Z"/><path class="cls-2" d="M111.36,304.77c0,3.41-1.79,5.22-4.68,5.22s-4.7-1.72-4.7-5.22c0-3,1.93-4.91,4.7-4.91S111.36,301.57,111.36,304.77Zm-4.68,4.09c2,0,3-1.51,3-4.09,0-2.21-1.12-3.8-3-3.8s-3,1.46-3,3.8C103.7,307.29,104.82,308.86,106.68,308.86Z"/><path class="cls-2" d="M119.7,305.78a3,3,0,0,1-2.68,1.33,3.3,3.3,0,0,1-3.56-3.47,3.62,3.62,0,0,1,3.82-3.78c2.73,0,4.19,1.89,4.19,5.29,0,4-2.37,6.54-5.41,6.54a7,7,0,0,1-2.24-.44,2.19,2.19,0,0,1-.25-1.26,7.37,7.37,0,0,0,2.35.38c2,0,3.67-1.65,3.91-4.59Zm-2.42-4.88c-1.4,0-2.19,1.06-2.19,2.63a2.22,2.22,0,0,0,2.37,2.45,3,3,0,0,0,2.33-1.23C119.79,302.2,119.08,300.9,117.28,300.9Z"/><path class="cls-2" d="M131.15,308.64c.1-.43.34-1.36.48-1.8l.91-2.86a12.76,12.76,0,0,1,.67-1.75,4.58,4.58,0,0,1-1.09-.23,3.06,3.06,0,0,1-.14-.92h3.45a3.68,3.68,0,0,1-.18,1,4,4,0,0,1-.85.16l-1,3a53.12,53.12,0,0,1-2,5.31,6.38,6.38,0,0,1-3.66,3.42,2.4,2.4,0,0,1-.67-1.33,4.91,4.91,0,0,0,3.28-2.64l-3-7.66a4.51,4.51,0,0,1-.94-.3,4,4,0,0,1-.18-.94h4.09a4,4,0,0,1-.15.94,7.94,7.94,0,0,1-1.32.21,11.38,11.38,0,0,1,.65,1.52l1.14,3.15a11.64,11.64,0,0,1,.4,1.74Z"/><path class="cls-2" d="M142.1,308.32c1.76,0,3.71-.07,5.61-.22a1.62,1.62,0,0,1,0,.31,8.49,8.49,0,0,1-.11,1.22H140.4l-.23-1.29c1.55-1.39,5.44-3.86,5.44-5.94,0-.94-.76-1.37-1.86-1.37a4.9,4.9,0,0,0-2,.47V303a3,3,0,0,1-1.23.27,6.57,6.57,0,0,1-.23-1.69c0-.24,0-.6,0-.81a7.48,7.48,0,0,1,3.53-.9c2,0,3.51.63,3.51,2.28,0,2.67-4,5-5.27,6.05Z"/><path class="cls-2" d="M158.61,304.77c0,3.41-1.79,5.22-4.68,5.22s-4.7-1.72-4.7-5.22c0-3,1.93-4.91,4.7-4.91S158.61,301.57,158.61,304.77Zm-4.68,4.09c2,0,3-1.51,3-4.09,0-2.21-1.13-3.8-3-3.8s-3,1.46-3,3.8C151,307.29,152.07,308.86,153.93,308.86Z"/><path class="cls-2" d="M162.83,301.37l-2.61.32a3,3,0,0,1,.29-1.11,16.09,16.09,0,0,1,3.94-.72v8.51a20.1,20.1,0,0,1,2.1.31,2.69,2.69,0,0,1,.09.7,1.19,1.19,0,0,1,0,.25h-6a3.87,3.87,0,0,1,.33-.9,15.32,15.32,0,0,1,1.88-.45Z"/><path class="cls-2" d="M170.55,303.64a2.8,2.8,0,0,1-2.08-2.52c0-2.09,1.83-3,3.56-3s3.51.72,3.51,2.7a3.07,3.07,0,0,1-2.08,2.81v.09a3.16,3.16,0,0,1,2.31,2.79c0,2.31-1.86,3.44-3.92,3.44-1.75,0-3.87-.68-3.87-3a3.48,3.48,0,0,1,2.57-3.24Zm-1,3A2.11,2.11,0,0,0,172,309a2,2,0,0,0,2.21-2.22c0-1.33-1.34-1.94-2.7-2.57A2.63,2.63,0,0,0,169.57,306.66ZM174,301a1.85,1.85,0,0,0-2.08-1.87,1.78,1.78,0,0,0-1.93,1.8c0,1.12,1.19,1.71,2.49,2.31A2.46,2.46,0,0,0,174,301Z"/><path class="cls-2" d="M180.49,308.66a1.07,1.07,0,0,1-1.12,1.19,1,1,0,0,1-1.15-1.19,1.08,1.08,0,0,1,1.15-1.1A1,1,0,0,1,180.49,308.66Z"/><path d="M18,177.7h3v16.48H16.91V182.33l-4.53,2.47-1.53-3.07Z"/><path d="M39,194.42a4.71,4.71,0,0,1-3.61-1.4v1.16H31.28V177h4.07v5.64A5.31,5.31,0,0,1,39,181.29c3.49,0,5.86,2.71,5.86,6.54S42.45,194.42,39,194.42Zm-1.16-9.59a3.83,3.83,0,0,0-2.45.94V190a3.88,3.88,0,0,0,2.45.92,2.79,2.79,0,0,0,2.88-3.06A2.75,2.75,0,0,0,37.8,184.83Z"/><path d="M60.53,189.84c0,.63.16,1.17.77,1.17a2.72,2.72,0,0,0,1.21-.34l.15,3.22a8.78,8.78,0,0,1-3,.53,2.69,2.69,0,0,1-2.88-1.81,5,5,0,0,1-3.88,1.79c-3.47,0-5.84-2.71-5.84-6.52s2.37-6.59,5.84-6.59a4.77,4.77,0,0,1,3.58,1.33v-1.11h4.08Zm-4.08-4.09a3.61,3.61,0,0,0-2.42-.92,3,3,0,0,0,0,6.06,3.78,3.78,0,0,0,2.42-.92Z"/><path d="M69.22,177v12.79c0,.75.22,1.24.85,1.24a3.14,3.14,0,0,0,1.29-.34l.14,3.22a9.37,9.37,0,0,1-3.08.53c-2,0-3.27-1-3.27-3.63V177Z"/><path d="M86.77,189.84c0,.63.17,1.17.77,1.17a2.68,2.68,0,0,0,1.21-.34l.15,3.22a8.78,8.78,0,0,1-3,.53A2.69,2.69,0,0,1,83,192.61a5,5,0,0,1-3.88,1.79c-3.46,0-5.84-2.71-5.84-6.52s2.38-6.59,5.84-6.59a4.78,4.78,0,0,1,3.59,1.33v-1.11h4.07Zm-4.07-4.09a3.66,3.66,0,0,0-2.43-.92,3,3,0,0,0,0,6.06A3.8,3.8,0,0,0,82.7,190Z"/><path d="M98.55,198.74V185.87c0-.68-.13-1.16-.78-1.16a2.5,2.5,0,0,0-1.24.34l-.12-3.25a8.75,8.75,0,0,1,3-.53,2.73,2.73,0,0,1,2.91,1.72,4.66,4.66,0,0,1,3.87-1.7c3.47,0,5.87,2.74,5.87,6.59s-2.4,6.54-5.87,6.54a5.18,5.18,0,0,1-3.58-1.3v5.62Zm4.07-13V190a3.81,3.81,0,0,0,2.42.9,3,3,0,0,0,0-6.06A3.61,3.61,0,0,0,102.62,185.75Z"/><path d="M121,181.17a6.68,6.68,0,1,1-6.81,6.71A6.58,6.58,0,0,1,121,181.17Zm0,9.67a3,3,0,1,0-2.88-3A2.87,2.87,0,0,0,121,190.84Z"/><path d="M131.74,185.87c0-.65-.12-1.16-.77-1.16a3.23,3.23,0,0,0-1.24.31l-.12-3.2a7.7,7.7,0,0,1,3-.53,2.74,2.74,0,0,1,2.95,1.87,3.18,3.18,0,0,1,3.08-1.87,3.68,3.68,0,0,1,2.25.61l-.51,3.7a4.65,4.65,0,0,0-2.42-.55c-1.5,0-2,1.21-2.16,2.52v6.61h-4.07Z"/><path d="M157.94,185.46a8.54,8.54,0,0,0-3.78-1c-.83,0-1.53.24-1.53.85s.32.65,1,.85l2.26.6c2.3.63,3,1.87,3,3.59,0,2.45-1.94,4.09-5.29,4.09a11.46,11.46,0,0,1-5-1.09l.75-3.17a9.28,9.28,0,0,0,3.95,1.19c1,0,1.5-.2,1.5-.75s-.48-.63-1.28-.85l-2-.56c-2.06-.61-3.08-1.74-3.08-3.66,0-2.52,2.21-4.24,5.74-4.24a13.27,13.27,0,0,1,4.73.92Z"/><path d="M173.52,192.8a8.55,8.55,0,0,1-5.38,1.72c-4.77,0-7-2.88-7-6.64a6.46,6.46,0,0,1,6.74-6.71c3.85,0,5.69,2.37,5.69,5.28a11.17,11.17,0,0,1-.26,2.42h-8.12a2.83,2.83,0,0,0,3.15,2.43,6.85,6.85,0,0,0,3.64-1.21ZM170.08,186c0-1-.68-1.75-2.18-1.75a2.46,2.46,0,0,0-2.6,2h4.78Z"/><path d="M181.73,181.29a5,5,0,0,1,3.61,1.28v-1.06h4.07v10.93c0,4.38-2.9,6.54-6.66,6.54a11.27,11.27,0,0,1-5.16-1.21l.85-3.25a8.34,8.34,0,0,0,4.09,1.16c1.5,0,2.81-.55,2.81-2.4v-1a5.34,5.34,0,0,1-3.61,1.21,6.08,6.08,0,0,1,0-12.16Zm1.17,8.63a3.72,3.72,0,0,0,2.44-.95V185.8a3.78,3.78,0,0,0-2.44-1A2.54,2.54,0,0,0,180,187.4C180,188.92,181.15,189.92,182.9,189.92Z"/><path d="M205.58,181.51v8.33c0,.63.12,1.17.72,1.17a3,3,0,0,0,1.24-.34l.14,3.22a8.06,8.06,0,0,1-3,.53,2.71,2.71,0,0,1-2.84-1.64,5.41,5.41,0,0,1-4.17,1.64c-3.27,0-4.65-2.35-4.65-5.59v-7.32h4.07v6.73c0,1.68.49,2.48,2.13,2.48a2.67,2.67,0,0,0,2.31-1.24v-8Z"/><path d="M214.37,181.51v1.4a5.24,5.24,0,0,1,3.86-1.62c3.27,0,4.65,2.5,4.65,5.6v3c0,.63.14,1.17.77,1.17a3.13,3.13,0,0,0,1.24-.34l.12,3.22a8.07,8.07,0,0,1-3,.53c-2,0-3.2-1-3.2-3.58v-3.27c0-1.63-.75-2.52-2.14-2.52a2.69,2.69,0,0,0-2.3,1.57v7.56H210.3V181.51Z"/><path d="M240.08,177v12.86c0,.66.15,1.17.78,1.17a3.49,3.49,0,0,0,1.21-.34l.14,3.22a8.62,8.62,0,0,1-3,.53,2.7,2.7,0,0,1-2.89-1.72,4.69,4.69,0,0,1-3.9,1.72c-3.44,0-5.84-2.76-5.84-6.59s2.4-6.54,5.84-6.54A5.25,5.25,0,0,1,236,182.6V177Zm-6.49,13.91A3.89,3.89,0,0,0,236,190v-4.24a3.66,3.66,0,0,0-2.42-.92,3,3,0,0,0,0,6.06Z"/><path d="M250.79,181.17a6.68,6.68,0,1,1-6.81,6.71A6.58,6.58,0,0,1,250.79,181.17Zm0,9.67a3,3,0,1,0-2.88-3A2.87,2.87,0,0,0,250.79,190.84Z"/><circle class="cls-3" cx="130.29" cy="86" r="53.82"/><path class="cls-4" d="M103.74,36.57c3.57,6.17,26.12-16.86,26.9-15.53,0,0-10.2,7.3-8.88,9.59,1.87,3.24,16.84-9.73,16.84-9.73,1.29,2.23-8.46,8.27-8.46,8.27,1.8,3.12,13.1-7.57,13.1-7.57.29.51-11.71,8.16-11.71,8.16,2.11,3.65,11.55-6.68,11.55-6.68.34.6-11.26,7-11.26,7,.49.84,12.61-7.28,12.61-7.28l-5.88,6.91c.56,1,9.54-5.51,9.54-5.51,1.29,2.24-7.88,4.06-6.88,5.78,1.28,2.22,10.53-6.08,10.53-6.08,1,1.82-9.05,7.54-9.05,7.54.66,1.15,12.26-7.08,12.26-7.08s-7.73,8.39-7.5,8.78c0,0,8.58-7.12,9.52-5.5,0,0-8.59,4.59-8.24,5.2s8-5.21,8.28-4.79c.69,1.2-5.38,5.93-5.38,5.93,1.52,2.64,7.6-6.5,8.51-4.92.82,1.42-7.1,6-6.33,7.37,1.5,2.59,9.93-5.74,9.93-5.74s-5,4.84-4.13,6.29l7.87-4.54c.15.26-4.81,6.42-4.81,6.42l7.62-4.39c.53.92-6.35,4.69-6.35,4.69,1.44,2.49,7.14-4.12,7.14-4.12l-8.86,5.48c0,.07,8.78-7.51,9.84-5.68.77,1.35-10.31,5-9.74,6,.1.19,8.6-7.55,9.72-5.61l-6.47,4.9c.7,1.2,7.19-4.34,7.27-4.2s-6.68,6.38-6.68,6.38l6.9-4L165.77,44c1,1.69,9.91-5.72,9.91-5.72s-9.76,4.37-8.48,6.59c.16.27,8.49-4.9,8.49-4.9s-4.41,4.07-3.59,5.49c.4.71,5.59-3.23,5.59-3.23.54,1-4.66,7-4.66,7s7.84-4.72,7.93-4.58c1.06,1.85-6,7-6,7s9.1-5.63,9.26-5.35c0,0-9.06,6-8.84,6.32.94,1.64,8.55-5.68,8.87-5.12.07.12-7.16,5.13-7.16,5.13.95,1.64,6-3.48,6-3.48.74,1.29-5.37,5-5.1,5.5,0,0,8.35-6.26,9-5.18.73,1.25-8,9.12-8,9.12.59,1,9.74-5.62,9.74-5.62,1,1.67-9.24,5.57-9,6l9.37-5.42c.35.6-8.69,7-8,8.07s10.25-5.92,10.25-5.92c1.35,2.35-7.46,6-7.12,6.57s4.21-4.5,5.11-2.95-6.61,7-6.5,7.16c0,0,9.58-7.14,10.28-5.93,1.55,2.69-9,6.43-7.67,8.7.31.54,6.14-5.58,7-4,0,0-9,2.38-7.76,4.56s7.41-5,7.74-4.47c0,0-6.33,2.93-5.7,4,.9,1.56,5.3-4.6,6-3.44.2.35-6.42,5-6.42,5,.64,1.12,7.8-4.51,7.8-4.51,1,1.75-6.26,4.9-6.26,4.9.34.58,3.94-5,5.13-3,.05.09-5,3.06-5,3.06s5.77-5.68,6.79-3.92c1.23,2.14-8,3.06-6.82,5.14,1.06,1.83,7.65-4.42,7.65-4.42l-7.06,6.6c.3.51,6.47-3.73,6.47-3.73.75,1.29-8.89,6.08-8.89,6.08.29.5,9.44-7.3,10.24-5.91s-10.06,4.53-8.73,6.82c.18.33,8-4.64,8-4.64,1.18,2-6.33,5.69-6.33,5.69.42.72,6.42-5.83,7.34-4.24,1.25,2.18-7.41,5.76-7.41,5.76l8.48-4.89c1,1.79-9.17,7.56-9.17,7.56l8.09-4.67-9,6.67c.43.75,8.63-5.17,8.71-5s-9.36,4.46-8.29,6.32l10.07-5.82s-9.54,7.61-8.54,9.35L196.68,86,188,92.91s9.89-8.13,10.94-6.31l-11.19,6.47s7.87-5.32,8.21-4.74c.61,1.06-6.62,6-6.62,6,.56,1,8.63-5,8.63-5,.35.62-9.39,9.28-9.39,9.28.71,1.22,8.8-5.09,8.8-5.09.32.56-11.16,6.67-11.16,6.67,1,1.81,8.55-7,9.46-5.47s-7,4.08-7,4.08c.44.76,8.77-5.06,8.77-5.06s-12.53,3.44-10.77,6.49c1,1.75,11.36-7.61,11.81-6.83.93,1.6-14.56,5.45-12.39,9.2,0,0,9.61-7.26,10.35-6,0,0-10.94,8.86-10.22,10.1.44.77,10.84-6.25,10.84-6.25.93,1.61-15.13,6.41-12.77,10.5,1.81,3.13,10.38-8.14,11.31-6.53,1.52,2.62-11.13,6.93-11.13,6.93l9.64-5.56c1.07,1.85-13.56,5.44-11.9,8.31l13.52-7.8c1.34,2.33-16.13,9.33-14.88,11.49.61,1.06,12.11-10.86,13.79-7.95,2.66,4.6-16.63,9.51-16.07,10.48,0,0,12.5-8.59,13.1-7.56.17.29-13.55,9.29-13.55,9.29,1,1.79,15.32-8.84,15.32-8.84s-24.9,12.18-22.67,16c2.72,4.7,18.55-10.71,18.55-10.71.27.45-21.7,13.67-21.7,13.67,3.26,5.64,19.4-16.1,21.52-12.43,4,6.85-30.51,12.41-27.7,17.29l28.62-16.52"/><path class="cls-4" d="M93.51,32s7.74-5.78,8.31-4.79c1.56,2.71-22.89,9-19.55,14.76,0,0,33.58-21.74,34.6-20,3.9,6.75-42.39,22.69-40.29,26.32,0,0,38.63-40.43,46.48-26.83,0,0-49.37,23.06-46.8,27.5,2.35,4.07,45.12-29.27,46.51-26.86.35.6-49.11,30.3-49.11,30.3.58,1,55.8-32.22,55.8-32.22l-56,33.49c2.43,4.22,47.16-45.7,55.16-31.85L72.74,55.12c.79,1.37,20.75-15.86,22.44-12.95C99.38,49.45,68.23,54.82,70,57.94L91.2,45.72c3.41,5.9-24.37,15.31-23.41,17l16-9.26S65,61.67,67.34,65.75c.57,1,13-9.61,13.88-8L67.12,68.92c.31.54,10-6.28,10.19-5.89,0,0-13.39,11-13.12,11.48.37.63,10.19-8.83,11.46-6.62.74,1.28-11.06,8.47-11.06,8.47s8.55-5.91,9-5.19l-8.89,5.64,9.53-5.5c1.43,2.48-11.7,7.81-11.7,7.81.16.27,12.67-7.31,12.67-7.31L62.4,82.06c1.4,2.44,11.38-6.58,11.38-6.58,1.63,2.82-13.69,5.94-11.55,9.64,1.47,2.55,12-6.9,12-6.9.64,1.11-11.67,6.55-9.76,9.86.58,1,8.06-4.65,8.06-4.65,1.86,3.22-10.11,9.44-10.11,9.44l9.06-5.24c.45.78-9.28,4.07-8.11,6.1,0,0,6.9-6.41,7.95-4.59,0,0-6.89,6-6.54,6.62.51.88,6.47-3.74,6.47-3.74.21.36-7.54,3.75-6.59,5.4.57,1,5-5.84,6.3-3.64.22.38-5.82,3.41-5.79,3.47s7.29-6.45,8.26-4.77c0,0-9.67,3.24-8.52,5.23l7.84-4.53c.39.68-10.37,5.8-8.81,8.5l8-4.61s-7.76,5-6.95,6.39c0,0,9.22-6.41,9.69-5.6,0,0-11.73,6.16-10.86,7.68,0,0,8.68-6,9.08-5.25.32.55-7.45,5.53-6.8,6.65.3.52,8.16-4.71,8.16-4.71l-6.37,5.88c.73,1.25,7.34-4.24,7.34-4.24.85,1.47-9.26,5.61-9.26,5.61,1.14,2,6.14-6.18,7.28-4.21l-5.94,3.45c.11.18,6.88-4,6.88-4s-8.44,2.91-7.45,4.63c.16.27,7.4-4.27,7.4-4.27l-7.89,7.1,8.46-4.89s-6.53,6.19-5.64,7.75c.39.67,8.36-5.11,8.48-4.89s-7.15,6.26-7.15,6.26c1,1.72,7-5.77,7.76-4.48,1.62,2.81-10,5.91-10,5.91l9.44-5.45s-7.78,6.41-7.08,7.63l8.69-5c.17.3-8.62,5-7.84,6.4l9.13-5.27s-8,5.18-7,6.86c1.27,2.2,7.19-4.15,7.19-4.15.9,1.56-6.82,5.76-6.82,5.76l6.65-3.84s-7.62,5-6.8,6.45c0,0,6.9-6.42,8-4.59l-6.13,5.12s7.8-4.74,7.9-4.56c1.06,1.84-7.38,3.39-6.71,4.55l7.52-4.34c.19.33-5.11,6-5.11,6l8.33-4.81c1.36,2.35-8.29,8-8.29,8s6.34-5.4,7.09-4.09c0,0-8.13,4.31-7.88,4.74,1.21,2.11,8-4.63,8-4.63s-5.33,3.91-4.67,5.05c1.28,2.22,5.47-6,6.72-3.87.12.21-6,6.23-5.75,6.67.63,1.1,8.87-5.12,8.87-5.12s-5.77,4.56-5.52,5c.39.69,5.82-3.36,5.82-3.36l-5.78,4.49s5.13-5.11,6.06-3.5c0,0-7.8,4.61-6.9,6.17s9.35-6,9.63-5.56c.52.89-8.6,2.51-7.47,4.46.64,1.11,7.46-6.05,8.22-4.75,1.09,1.91-8.6,5.31-8.6,5.31l9.65-5.57-5,7c1.24,2.15,6.73-4.32,6.92-4S90,142,91.17,144c.62,1.07,11-7.17,11.37-6.56,0,0-7.75,5-6.59,7.05.43.75,7.21-5.14,7.63-4.4.34.58-8.19,3.74-7.71,4.56.73,1.28,9.32-5.38,9.32-5.38.56,1-10,7.67-10,7.67,1.19,2.05,10.89-6.29,10.89-6.29.54.94-8,3.77-7.2,5.17,0,0,5.43-5.54,6.48-3.74,0,0-6.13,4.35-5.69,5.12,0,0,8.35-7.29,9.42-5.44,0,0-9.33,5.68-8.65,6.86s11.06-6.39,11.06-6.39-10.24,6.27-9.69,7.22c.45.78,11-6.42,11-6.35s-7.86,5.26-6.69,7.3c0,0,8.62-8.06,10-5.75,0,0-10.14,4.27-8.83,6.54s8.9-9.31,10.71-6.18c.25.44-7.92,7.13-7.74,7.43l12-6.91C123.24,147.35,113,153,113,153c.3.51,12.44-7.18,12.44-7.18,1,1.76-13.4,7.66-13.08,8.22s12.4-7.17,12.4-7.17-8.61,5.65-8.22,6.32c0,0,9.71-9.59,11.44-6.6,1.49,2.58-9,8.6-9,8.6l17.23-9.95c1.74,3-13.23,9.09-12.2,10.87l20.24-11.68c1.23,2.14-11.36,10.38-11.36,10.38s54.78-33.58,55.62-32.12c2.08,3.6-55.64,26.81-52,33.05,7.31,12.66,43-35.78,47.72-27.55,0,0-43.88,21.07-40.93,26.18l36.12-20.85S143.28,149.4,145.93,154l32.53-18.78-29.18,17.66,27.76-16-15.46,10.73c.18.32,5.77-3.33,5.77-3.33"/><path class="cls-4" d="M97.07,22.71s17.21-11.8,18-10.4c.63,1.1-12.23,7.85-12.23,7.85s13.18-7.68,13.21-7.63l-3.18,4.85,4.5-2.6c.24.42,1.28.42,1.5.8,0,.08.31-.18.31-.18"/><path class="cls-4" d="M81.08,11.9s7.86-6,8.5-4.91c3.28,5.68-18.91,15.33-18.91,15.33C73.94,28,99.76-5.47,104.52,2.78L69.07,25.93S103.14-8.77,109.65,2.5c4,6.91-42.73,26.28-42.73,26.28C68,30.63,104.51-4.86,109.68,4.09c3.78,6.54-42,25.84-41.7,26.28L109.85,6.19C116.37,17.49,68,30.47,68,30.47S107.86-3,112.41,4.85c6.84,11.84-43.65,27.21-43.65,27.21C75.05,43,112.43,6.84,112.43,6.84L71.26,33.72c4.06,7,36.42-32.34,41.32-23.85,0,0-41.15,24.61-40.49,25.74.52.9,40-34.11,44.79-25.86,0,0-46.4,22.59-44.08,26.61C74.34,39,110.66,1.57,116.25,11.27c0,0-52.44,13.67-45,26.55,2.16,3.74,14.53-12.88,16.47-9.51,0,.05-17.11,6.34-15.41,9.28,0,0,12.37-8.41,12.92-7.46,0,0-15.29,6.07-13.82,8.62,0,0,10.43-9.23,11.82-6.82L73.13,39.77l3.61-2.08S73,40.54,73.57,41.55a1.77,1.77,0,0,0,.33-.19"/><path class="cls-4" d="M149.78,5c.23.41,2.63-1.85,2.77-1.6S147.37,7,147.37,7c.29.5,7.55-4.36,7.55-4.36l-9.58,7.66s12.64-8,12.94-7.47c0,0-16.93,11.49-16.21,12.74.94,1.62,19.28-11.13,19.28-11.13S141.51,13.68,143,16.32L162.67,5c2.44,4.23-17.7,8.16-15.26,12.39.21.37,19.81-11.43,19.81-11.43L150,17.37c2,3.43,19.11-11,19.11-11,2.56,4.44-19.11,11.11-18.65,11.91,0,0,18-14.41,19.77-11.41L151.44,18.48,170.92,7.24s-20.07,8.14-18.38,11.07c0,0,15.76-14.93,18.28-10.55.46.79-18.72,11-18.72,11s17.61-12.2,18.49-10.67C171.3,9.35,156,19.65,156,19.65c1.88,3.27,16.32-16.5,19.38-11.19,2.58,4.46-17.59,11.21-17.59,11.21s15.84-10.77,16.54-9.55c1.94,3.36-16.54,11.34-16.54,11.34s18.46-12.95,19.45-11.23c0,0-18.88,7.08-16.21,11.71l18.31-10.57s-19.25,8-16.54,12.66L182.2,12.84c2.25,3.89-20.07,7.14-17.69,11.27,0,0,14.8-15,17.6-10.16.81,1.4-13.7,11.06-13.33,11.71,1.25,2.15,15.81-9.13,15.81-9.13,2.18,3.79-15.51,9.8-15.51,9.8s14.42-14.61,17.14-9.89c1.4,2.42-15.55,8.68-14,11.33,1.88,3.26,12.87-13.15,15.35-8.86l-14.1,11.64c1.38,2.4,14.9-8.87,15-8.67.71,1.23-12.33,9.22-11.47,10.7l13.61-7.85L179.41,35.24s12.42-7.71,12.65-7.31L183,34.77l8.08-4.67s-6,7.14-5.66,7.67l4-2.3c.86,1.48-2.49,5.86-2.49,5.86s.68-.64.8-.45-1.38,1.34-1.38,1.34,1.71-1,1.73-1"/><path class="cls-4" d="M81.47,85.68c.27.48,3.75-2.82,4-2.33.79,1.37-4.9,7-4.74,7.31,1.58,2.75,12.39-7.16,12.39-7.16l-7.82,8.35c.36.64,11.92-10.6,13.53-7.81,1.52,2.63-11.32,5.65-9.5,8.81,1.29,2.23,15.69-13.53,17.63-10.17.36.61-15.34,10.21-15.24,10.39,0,0,15.54-10.19,16.07-9.28,0,0-13.57,8-12.55,9.73,1.92,3.34,15.21-13.42,17.22-9.94L99,93.13c.12.2,16.31-10.18,16.64-9.6.57,1-16.41,9.86-16.41,9.86s15.7-11,16.53-9.55c1.27,2.2-11,8-11,8,1.31,2.26,11.51-11,13.4-7.73,1.23,2.13-11.52,5.61-9.91,8.39s14-13,16.16-9.33c1.07,1.86-11.54,10-11.54,10,1.42,2.46,20.91-12.07,20.91-12.07L117.49,93.6s16.38-14.91,18.74-10.82c.08.15-10.44,9.7-10.44,9.7.13.22,7.65-4.42,7.65-4.42.54.93-6.38,5.51-6.38,5.51.36.63,7.9-4.56,7.9-4.56.7,1.22-5.91,3.62-5.91,3.62.28.49,6.5-5.23,7.13-4.12l-6.82,4.74c.45.78,5.24-3.83,5.58-3.22L131,92.79,134.12,91"/><path class="cls-4" d="M127.59,40.26l.73-.42s-2.78,4.5-2.48,5c0,0,7.47-5.89,8.15-4.71,1.4,2.42-8.38,8.35-8.38,8.35.64,1.12,10.68-6.44,10.8-6.24.73,1.26-10.59,8.54-10.59,8.54l10.42-6S125.17,53.28,125.56,54c1.36,2.34,7-5.86,7.77-4.49,1.33,2.3-9.85,4-9.06,5.35,1.07,1.85,9.6-7,10.25-5.92,0,0-9.78,6.09-9.52,6.56,0,0,9.67-8.53,10.94-6.32s-12.63,8.71-11.54,10.6c.64,1.11,10.14-6.08,10.23-5.91.41.7-10.26,6.55-10.26,6.55,1,1.74,11-6.33,11-6.33,1.44,2.48-8.9,5.57-8.9,5.57.88,1.53,8.23-4.74,8.23-4.74l-8.3,8.37s6.17-7,7.63-4.41c.13.22-8.75,8.33-8.75,8.33,1.44,2.49,8.25-4.76,8.25-4.76,1,1.82-7.69,6.27-7.69,6.27s9.34-5.9,9.56-5.51c0,0-8.1,8-8.1,8l7.52-4.35c1.32,2.28-8.27,5-8.27,5s7.06-5.56,7.7-4.45l-9.64,8.87L135.35,70c.31.54-11,5.1-10.1,6.7,1,1.78,7.92-5,8.12-4.69l-6.55,4.89c1.08,1.87,8.93-6.27,9.41-5.44,0,0-11.82,7.37-11.71,7.56,0,0,11.16-7.33,11.54-6.67,1,1.81-10.39,7.81-10.39,7.81.42.75,9.69-6.82,10.22-5.9,1.46,2.53-11.58,8-10.73,9.5l11.08-6.4"/></g></g></svg>