<svg xmlns="http://www.w3.org/2000/svg" viewBox="0 0 263.31 377.37"><defs><style>.cls-1{fill:#333;}.cls-2{fill:#f8e2e2;}.cls-3{fill:none;stroke:#ee6a5a;stroke-linecap:round;stroke-linejoin:round;stroke-width:0.5px;}</style></defs><title>cantidad de armas por 100mil</title><g id="Layer_2" data-name="Layer 2"><g id="Layer_1-2" data-name="Layer 1"><path class="cls-1" d="M20.19,260.76a2.9,2.9,0,0,0,2.95,3.12,8.43,8.43,0,0,0,2.53-.5,1.91,1.91,0,0,1-.24,1,6.23,6.23,0,0,1-2.85.74c-2.59,0-4.07-1.93-4.07-4.41,0-2.65,1.64-4.75,4.18-4.75,2.16,0,3.09,1.56,3.09,3.83a7.69,7.69,0,0,1-.06.95Zm4-1c.12-1.24-.24-2.75-1.76-2.75-1.28,0-2.11,1.11-2.22,2.75Z"/><path class="cls-1" d="M32,257.13a2.89,2.89,0,0,0-1.07-.22c-.94,0-1.48.43-1.48,1.1,0,2,4.21,1.4,4.21,4.54,0,1.87-1.57,2.59-3.25,2.59a5.55,5.55,0,0,1-2.77-.68,4.31,4.31,0,0,1-.09-.87,5.26,5.26,0,0,1,.18-1.28,5.73,5.73,0,0,1,1.31.16v1.25a2.83,2.83,0,0,0,1.52.41A1.36,1.36,0,0,0,32,262.78c0-2.14-4.25-1.37-4.25-4.55,0-1.32,1.22-2.25,3-2.25a7.12,7.12,0,0,1,2.55.46,3.32,3.32,0,0,1,0,.56,5.85,5.85,0,0,1-.2,1.46,2.69,2.69,0,0,1-1.21-.27Z"/><path class="cls-1" d="M38.69,252.88a2.11,2.11,0,0,1,.32-1,5.48,5.48,0,0,1,1.63-.25,3.74,3.74,0,0,1,.92.11v11.94A8,8,0,0,1,43,264a3,3,0,0,1,0,.56,1.46,1.46,0,0,1,0,.3H38.58a2.82,2.82,0,0,1,.25-.81,7.2,7.2,0,0,1,1.16-.34v-10.8Z"/><path class="cls-1" d="M49.38,263.77a2.81,2.81,0,0,1-2.54,1.37,2.35,2.35,0,0,1-2.56-2.41c0-1.86,1.57-2.81,3.36-2.81a4.66,4.66,0,0,1,1.68.3v-1c0-1.33-.58-2-1.72-2a5.83,5.83,0,0,0-2.64.88,1.6,1.6,0,0,1-.09-.61,2,2,0,0,1,.2-.9,7.31,7.31,0,0,1,3-.63c2,0,2.84,1,2.84,3.42v3.49a1.69,1.69,0,0,0,.23.94,5.58,5.58,0,0,0,1.25-.22.71.71,0,0,1,0,.2,1.89,1.89,0,0,1-.18.81,4.64,4.64,0,0,1-2,.52,1.88,1.88,0,0,1-.76-1.37Zm0-2.75a5.88,5.88,0,0,0-1.27-.15c-1.41,0-2.2.63-2.2,1.59a1.46,1.46,0,0,0,1.64,1.44,2.27,2.27,0,0,0,1.83-.88Z"/><path class="cls-1" d="M59.63,267.84a9.72,9.72,0,0,1,1.72.33,2.47,2.47,0,0,1,0,.82H56.65a2.31,2.31,0,0,1,.25-.81,6.91,6.91,0,0,1,1.16-.34V257.29H56.72a2.07,2.07,0,0,1,.32-1,4.61,4.61,0,0,1,1.5-.26,3.18,3.18,0,0,1,.85.11v1.17h.18A2.81,2.81,0,0,1,62.23,256c1.59,0,3.42,1.08,3.42,4.33,0,2.9-1.83,4.83-4.43,4.83a3.1,3.1,0,0,1-1.59-.43Zm0-4a5,5,0,0,0,1.5.25c2,0,2.89-1.42,2.89-3.51s-1-3.39-2.33-3.39a2.38,2.38,0,0,0-2.06,1.1Z"/><path class="cls-1" d="M70.15,257.9A2.42,2.42,0,0,1,72.5,256a2.62,2.62,0,0,1,.82.14,2.58,2.58,0,0,1,.18,1.57,2.5,2.5,0,0,0-1.23-.31,2.24,2.24,0,0,0-2.08,1.48v4.82A9,9,0,0,1,72,264a2.47,2.47,0,0,1,0,.82h-4.8a2.31,2.31,0,0,1,.25-.81,6.91,6.91,0,0,1,1.16-.34v-6.39H67.3a2,2,0,0,1,.32-1,4.61,4.61,0,0,1,1.5-.26,3.18,3.18,0,0,1,.85.11v1.71Z"/><path class="cls-1" d="M82.79,260.42c0,3-1.61,4.72-4.1,4.72s-4.13-1.62-4.13-4.72c0-2.75,1.78-4.44,4.13-4.44S82.79,257.56,82.79,260.42Zm-4.1,3.64c1.66,0,2.46-1.4,2.46-3.64,0-1.92-1-3.38-2.46-3.38s-2.48,1.35-2.48,3.38C76.21,262.62,77.15,264.06,78.69,264.06Z"/><path class="cls-1" d="M87,267.84a9.72,9.72,0,0,1,1.72.33,2.47,2.47,0,0,1,0,.82H84a2.56,2.56,0,0,1,.26-.81,7.08,7.08,0,0,1,1.15-.34V257.29H84.08a2,2,0,0,1,.32-1,4.61,4.61,0,0,1,1.5-.26,3.18,3.18,0,0,1,.85.11v1.17h.18A2.81,2.81,0,0,1,89.59,256c1.59,0,3.42,1.08,3.42,4.33,0,2.9-1.83,4.83-4.43,4.83a3.07,3.07,0,0,1-1.59-.43Zm0-4a5,5,0,0,0,1.5.25c2,0,2.89-1.42,2.89-3.51s-1-3.39-2.33-3.39a2.38,2.38,0,0,0-2.06,1.1Z"/><path class="cls-1" d="M103,260.42c0,3-1.61,4.72-4.11,4.72s-4.12-1.62-4.12-4.72c0-2.75,1.77-4.44,4.12-4.44S103,257.56,103,260.42Zm-4.11,3.64c1.67,0,2.46-1.4,2.46-3.64,0-1.92-1-3.38-2.46-3.38s-2.47,1.35-2.47,3.38C96.43,262.62,97.37,264.06,98.9,264.06Z"/><path class="cls-1" d="M107.51,257.9a2.42,2.42,0,0,1,2.35-1.92,2.62,2.62,0,0,1,.82.14,2.58,2.58,0,0,1,.18,1.57,2.5,2.5,0,0,0-1.23-.31,2.24,2.24,0,0,0-2.08,1.48v4.82a9,9,0,0,1,1.79.33,2.47,2.47,0,0,1,0,.82h-4.81a2.56,2.56,0,0,1,.26-.81,6.91,6.91,0,0,1,1.16-.34v-6.39h-1.33a2.08,2.08,0,0,1,.33-1,4.61,4.61,0,0,1,1.5-.26,3.18,3.18,0,0,1,.85.11v1.71Z"/><path class="cls-1" d="M117.37,257.29a2.37,2.37,0,0,0-1.05-.27c-1.56,0-2.68,1-2.68,3.38s1.2,3.5,2.82,3.5a7.94,7.94,0,0,0,2.23-.43,2.15,2.15,0,0,1-.26,1,6.28,6.28,0,0,1-2.67.65c-2.34,0-3.84-1.87-3.84-4.39,0-2.79,1.79-4.77,4.43-4.77a4.41,4.41,0,0,1,2.37.64c0,.18,0,.47,0,.65a4.35,4.35,0,0,1-.25,1.53,3.13,3.13,0,0,1-1.14-.23Z"/><path class="cls-1" d="M120.22,257.29a2.08,2.08,0,0,1,.33-1,5.15,5.15,0,0,1,1.63-.26,4,4,0,0,1,.94.11v7.53a7.74,7.74,0,0,1,1.43.25,3,3,0,0,1,0,.56,1.46,1.46,0,0,1,0,.3h-4.45a2.56,2.56,0,0,1,.26-.81,7.08,7.08,0,0,1,1.15-.34v-6.39Zm3.17-4.2a1,1,0,0,1-1,1.07.94.94,0,0,1-1-1.07,1,1,0,0,1,1-1A.93.93,0,0,1,123.39,253.09Z"/><path class="cls-1" d="M134.09,260.42c0,3-1.61,4.72-4.1,4.72-2.64,0-4.12-1.62-4.12-4.72,0-2.75,1.77-4.44,4.12-4.44S134.09,257.56,134.09,260.42Zm-4.1,3.64c1.66,0,2.46-1.4,2.46-3.64,0-1.92-1-3.38-2.46-3.38s-2.48,1.35-2.48,3.38C127.51,262.62,128.45,264.06,130,264.06Zm-.38-8.93a2.45,2.45,0,0,1-.92-.78l2-2.8a3.62,3.62,0,0,1,1.59.63Z"/><path class="cls-1" d="M138.63,263.74A5.91,5.91,0,0,1,140,264a2.72,2.72,0,0,1,0,.86h-4.34a2.82,2.82,0,0,1,.25-.81,7.2,7.2,0,0,1,1.16-.34v-6.39h-1.32a2.07,2.07,0,0,1,.32-1,4.44,4.44,0,0,1,1.51-.26,3.3,3.3,0,0,1,.85.11v1.32h.18a3.22,3.22,0,0,1,2.91-1.53c1.43,0,2.69.44,2.69,3.24,0,1.51,0,3-.11,4.52a7.44,7.44,0,0,1,1.47.23,3,3,0,0,1,.05.56,1.46,1.46,0,0,1,0,.3h-4.28a2.54,2.54,0,0,1,.25-.81,6.9,6.9,0,0,1,1-.34v-4.21c0-1.39-.43-2.27-1.7-2.27a3.22,3.22,0,0,0-2.26,1.15Z"/><path class="cls-1" d="M156.53,252.88h-1.3a2.12,2.12,0,0,1,.33-1,5.42,5.42,0,0,1,1.63-.25,3.8,3.8,0,0,1,.92.11v10.68a4.83,4.83,0,0,0,.14,1.28h1.36a1,1,0,0,1,0,.23,2.3,2.3,0,0,1-.15.72,9.94,9.94,0,0,1-2.44.36,3.24,3.24,0,0,1-.36-1.3h-.09a2.92,2.92,0,0,1-2.71,1.39c-1.58,0-3.37-1.08-3.37-4.34,0-2.9,1.79-4.82,4.38-4.82a3.12,3.12,0,0,1,1.64.43Zm0,4.43a4.67,4.67,0,0,0-1.5-.25c-2,0-2.89,1.4-2.89,3.49s1,3.37,2.33,3.37a2.39,2.39,0,0,0,2.06-1.08Z"/><path class="cls-1" d="M162.54,260.76a2.89,2.89,0,0,0,3,3.12,8.43,8.43,0,0,0,2.53-.5,1.91,1.91,0,0,1-.24,1,6.23,6.23,0,0,1-2.85.74c-2.59,0-4.07-1.93-4.07-4.41,0-2.65,1.64-4.75,4.17-4.75,2.17,0,3.09,1.56,3.09,3.83a7.66,7.66,0,0,1-.05.95Zm4-1c.12-1.24-.24-2.75-1.76-2.75-1.28,0-2.11,1.11-2.22,2.75Z"/><path class="cls-1" d="M178.6,263.77a2.81,2.81,0,0,1-2.54,1.37,2.35,2.35,0,0,1-2.56-2.41c0-1.86,1.57-2.81,3.36-2.81a4.66,4.66,0,0,1,1.68.3v-1c0-1.33-.58-2-1.72-2a5.83,5.83,0,0,0-2.64.88,1.6,1.6,0,0,1-.09-.61,2,2,0,0,1,.2-.9,7.31,7.31,0,0,1,3-.63c2,0,2.84,1,2.84,3.42v3.49a1.69,1.69,0,0,0,.23.94,5.58,5.58,0,0,0,1.25-.22.71.71,0,0,1,0,.2,1.89,1.89,0,0,1-.18.81,4.64,4.64,0,0,1-2,.52,1.88,1.88,0,0,1-.76-1.37Zm0-2.75a5.88,5.88,0,0,0-1.27-.15c-1.41,0-2.2.63-2.2,1.59a1.46,1.46,0,0,0,1.64,1.44,2.27,2.27,0,0,0,1.83-.88Z"/><path class="cls-1" d="M185.45,257.9A2.4,2.4,0,0,1,187.8,256a2.51,2.51,0,0,1,.81.14,2.3,2.3,0,0,1,.24,1.08,1.88,1.88,0,0,1-.06.49,2.44,2.44,0,0,0-1.23-.31,2.22,2.22,0,0,0-2.07,1.48v4.82a9,9,0,0,1,1.79.33,2.47,2.47,0,0,1,0,.82H182.5a2.56,2.56,0,0,1,.26-.81,6.79,6.79,0,0,1,1.15-.34v-6.39h-1.32a2.08,2.08,0,0,1,.33-1,4.56,4.56,0,0,1,1.5-.26,3.18,3.18,0,0,1,.85.11v1.71Z"/><path class="cls-1" d="M192.74,263.74a6,6,0,0,1,1.32.23,2.73,2.73,0,0,1,0,.86h-4.34A2.56,2.56,0,0,1,190,264a6.79,6.79,0,0,1,1.15-.34v-6.39h-1.32a2.08,2.08,0,0,1,.33-1,4.43,4.43,0,0,1,1.5-.26,3.18,3.18,0,0,1,.85.11v1.32h.18a3.19,3.19,0,0,1,2.86-1.53,2.12,2.12,0,0,1,2.4,1.63h.09A3.19,3.19,0,0,1,201,256c1.41,0,2.66.44,2.66,3.24,0,1.53,0,3-.11,4.52A7.44,7.44,0,0,1,205,264a3,3,0,0,1,.05.56,1.46,1.46,0,0,1,0,.3h-4.28A2.54,2.54,0,0,1,201,264a6.9,6.9,0,0,1,1-.34v-4.21c0-1.39-.41-2.27-1.66-2.27a3.17,3.17,0,0,0-2.21,1.15v5.37a5.85,5.85,0,0,1,1.32.25,2.46,2.46,0,0,1,0,.86h-4.18a2.56,2.56,0,0,1,.26-.81,6.54,6.54,0,0,1,1-.34v-4.21c0-1.39-.42-2.27-1.67-2.27a3.12,3.12,0,0,0-2.2,1.15Z"/><path class="cls-1" d="M211.27,263.77a2.79,2.79,0,0,1-2.53,1.37,2.36,2.36,0,0,1-2.57-2.41c0-1.86,1.58-2.81,3.37-2.81a4.74,4.74,0,0,1,1.68.3v-1c0-1.33-.58-2-1.72-2a5.75,5.75,0,0,0-2.64.88,1.6,1.6,0,0,1-.09-.61,2,2,0,0,1,.2-.9,7.27,7.27,0,0,1,2.95-.63c2,0,2.83,1,2.83,3.42v3.49a1.6,1.6,0,0,0,.24.94,5.68,5.68,0,0,0,1.25-.22,1.41,1.41,0,0,1,0,.2,1.89,1.89,0,0,1-.18.81,4.55,4.55,0,0,1-1.95.52,1.94,1.94,0,0,1-.76-1.37Zm0-2.75a5.87,5.87,0,0,0-1.26-.15c-1.41,0-2.21.63-2.21,1.59a1.46,1.46,0,0,0,1.65,1.44,2.27,2.27,0,0,0,1.82-.88Z"/><path class="cls-1" d="M219.86,257.13a2.89,2.89,0,0,0-1.07-.22c-.94,0-1.48.43-1.48,1.1,0,2,4.21,1.4,4.21,4.54,0,1.87-1.57,2.59-3.25,2.59a5.55,5.55,0,0,1-2.77-.68,4.31,4.31,0,0,1-.09-.87,5.26,5.26,0,0,1,.18-1.28,5.58,5.58,0,0,1,1.3.16v1.25a2.88,2.88,0,0,0,1.52.41,1.36,1.36,0,0,0,1.52-1.35c0-2.14-4.25-1.37-4.25-4.55,0-1.32,1.21-2.25,3-2.25a7,7,0,0,1,2.54.46,2.5,2.5,0,0,1,0,.56,5.85,5.85,0,0,1-.2,1.46,2.66,2.66,0,0,1-1.21-.27Z"/><path class="cls-1" d="M228.56,260.76a2.89,2.89,0,0,0,2.95,3.12,8.43,8.43,0,0,0,2.53-.5,2,2,0,0,1-.24,1,6.23,6.23,0,0,1-2.85.74c-2.59,0-4.07-1.93-4.07-4.41,0-2.65,1.64-4.75,4.17-4.75,2.17,0,3.1,1.56,3.1,3.83a7.69,7.69,0,0,1-.06.95Zm4-1c.12-1.24-.24-2.75-1.76-2.75-1.28,0-2.11,1.11-2.22,2.75Z"/><path class="cls-1" d="M238.63,263.74A6,6,0,0,1,240,264a3.05,3.05,0,0,1,0,.86h-4.34a2.31,2.31,0,0,1,.25-.81,7.2,7.2,0,0,1,1.16-.34v-6.39h-1.32a2.07,2.07,0,0,1,.32-1,4.43,4.43,0,0,1,1.5-.26,3.18,3.18,0,0,1,.85.11v1.32h.18a3.25,3.25,0,0,1,2.92-1.53c1.42,0,2.69.44,2.69,3.24,0,1.51,0,3-.11,4.52a7.56,7.56,0,0,1,1.47.23,3,3,0,0,1,.05.56,1.46,1.46,0,0,1,0,.3h-4.28a2.31,2.31,0,0,1,.25-.81,6.54,6.54,0,0,1,1-.34v-4.21c0-1.39-.43-2.27-1.7-2.27a3.22,3.22,0,0,0-2.26,1.15Z"/><path class="cls-1" d="M15.32,291.4a16.48,16.48,0,0,1-4.4.79c-3.58,0-5.66-2.5-5.66-6.23,0-4.21,2.59-7,6.64-7a6.39,6.39,0,0,1,3.51.93,15.75,15.75,0,0,1-.24,2.81,3.7,3.7,0,0,1-1.25-.29v-1.72a4,4,0,0,0-2.2-.62c-2.52,0-4.7,1.82-4.7,5.6,0,3.59,1.82,5.26,4.39,5.26a15.85,15.85,0,0,0,2.3-.21v-3.8a24.53,24.53,0,0,1-2.46-.18,4,4,0,0,1-.13-1.07h5.75a8.1,8.1,0,0,1-.16,1.1,12.32,12.32,0,0,1-1.39.15Z"/><path class="cls-1" d="M24.38,284.29H23.07a2.08,2.08,0,0,1,.33-1,4.6,4.6,0,0,1,1.63-.26,3.8,3.8,0,0,1,.92.11v6.27a5.23,5.23,0,0,0,.14,1.28h1.38a1,1,0,0,1,0,.23,2.3,2.3,0,0,1-.15.72,10.32,10.32,0,0,1-2.48.36,3.8,3.8,0,0,1-.36-1.42h-.09a3.18,3.18,0,0,1-2.87,1.51c-1.41,0-2.66-.45-2.66-3.24,0-1.51,0-3.1.09-4.61H17.59a2.36,2.36,0,0,1,.33-.94,5,5,0,0,1,1.65-.27,3.8,3.8,0,0,1,.92.11v5.46c0,1.37.43,2.25,1.66,2.25a3.13,3.13,0,0,0,2.23-1.1Z"/><path class="cls-1" d="M33.92,290.77a2.78,2.78,0,0,1-2.53,1.37,2.36,2.36,0,0,1-2.57-2.41c0-1.86,1.58-2.81,3.37-2.81a4.66,4.66,0,0,1,1.68.3v-1c0-1.33-.58-2-1.72-2a5.75,5.75,0,0,0-2.64.88,1.6,1.6,0,0,1-.09-.61,2,2,0,0,1,.2-.9,7.31,7.31,0,0,1,2.95-.63c2,0,2.84.95,2.84,3.42v3.49a1.69,1.69,0,0,0,.23.94,5.68,5.68,0,0,0,1.25-.22.71.71,0,0,1,0,.2,2.05,2.05,0,0,1-.18.81,4.64,4.64,0,0,1-2,.52,1.94,1.94,0,0,1-.76-1.37Zm0-2.75a6,6,0,0,0-1.27-.15c-1.41,0-2.2.63-2.2,1.59a1.45,1.45,0,0,0,1.64,1.44,2.27,2.27,0,0,0,1.83-.88Z"/><path class="cls-1" d="M39.15,281.09a3.12,3.12,0,0,1,1.21-.29v2.48H43a4.83,4.83,0,0,1,.06,1.05H40.36v4.95c0,1.17.16,1.67,1.18,1.67a7.36,7.36,0,0,0,1.68-.23,1.06,1.06,0,0,1,0,.23,1.48,1.48,0,0,1-.19.7,5.75,5.75,0,0,1-2.22.49c-1.39,0-2.1-.76-2.1-2.61,0-1.06,0-3.39.09-5.2H37.58a2.74,2.74,0,0,1,.21-.94,5.59,5.59,0,0,1,1.05-.32Z"/><path class="cls-1" d="M45.7,287.76a2.89,2.89,0,0,0,2.94,3.12,8.3,8.3,0,0,0,2.53-.5,1.9,1.9,0,0,1-.23,1,6.27,6.27,0,0,1-2.86.74c-2.58,0-4.07-1.93-4.07-4.41,0-2.65,1.65-4.75,4.18-4.75,2.17,0,3.09,1.56,3.09,3.83,0,.31,0,.63-.05.95Zm4-1c.13-1.24-.23-2.75-1.75-2.75-1.28,0-2.12,1.11-2.22,2.75Z"/><path class="cls-1" d="M55.77,290.74a6,6,0,0,1,1.32.23,2.73,2.73,0,0,1,0,.86H52.78A2.56,2.56,0,0,1,53,291a7.08,7.08,0,0,1,1.15-.34v-6.39H52.87a2.08,2.08,0,0,1,.33-1,4.43,4.43,0,0,1,1.5-.26,3.18,3.18,0,0,1,.85.11v1.32h.18A3.19,3.19,0,0,1,58.59,283a2.12,2.12,0,0,1,2.4,1.63h.09A3.19,3.19,0,0,1,64,283c1.41,0,2.65.44,2.65,3.24,0,1.53,0,3-.11,4.52A7.44,7.44,0,0,1,68,291a2.33,2.33,0,0,1,0,.56,2.91,2.91,0,0,1,0,.3H63.76A2.82,2.82,0,0,1,64,291a6.9,6.9,0,0,1,1-.34v-4.21c0-1.39-.41-2.27-1.66-2.27a3.17,3.17,0,0,0-2.21,1.15v5.37a5.74,5.74,0,0,1,1.32.25,2.46,2.46,0,0,1,0,.86H58.35a2.56,2.56,0,0,1,.26-.81,6.54,6.54,0,0,1,1-.34v-4.21c0-1.39-.42-2.27-1.67-2.27a3.12,3.12,0,0,0-2.2,1.15Z"/><path class="cls-1" d="M74.3,290.77a2.78,2.78,0,0,1-2.53,1.37,2.36,2.36,0,0,1-2.57-2.41c0-1.86,1.58-2.81,3.37-2.81a4.66,4.66,0,0,1,1.68.3v-1c0-1.33-.58-2-1.72-2a5.75,5.75,0,0,0-2.64.88,1.6,1.6,0,0,1-.09-.61,2,2,0,0,1,.2-.9,7.31,7.31,0,0,1,3-.63c2,0,2.84.95,2.84,3.42v3.49a1.69,1.69,0,0,0,.23.94,5.68,5.68,0,0,0,1.25-.22.71.71,0,0,1,0,.2,1.9,1.9,0,0,1-.19.81,4.55,4.55,0,0,1-1.95.52,1.94,1.94,0,0,1-.76-1.37Zm0-2.75a6,6,0,0,0-1.27-.15c-1.41,0-2.21.63-2.21,1.59a1.46,1.46,0,0,0,1.65,1.44,2.29,2.29,0,0,0,1.83-.88Z"/><path class="cls-1" d="M78.14,279.88a2,2,0,0,1,.32-1,5.48,5.48,0,0,1,1.63-.25,3.8,3.8,0,0,1,.92.11v11.94a8.19,8.19,0,0,1,1.47.25,3,3,0,0,1,0,.56,1.46,1.46,0,0,1,0,.3H78a2.31,2.31,0,0,1,.25-.81,7.2,7.2,0,0,1,1.16-.34v-10.8Z"/><path class="cls-1" d="M88.82,290.77a2.78,2.78,0,0,1-2.53,1.37,2.36,2.36,0,0,1-2.57-2.41c0-1.86,1.58-2.81,3.37-2.81a4.66,4.66,0,0,1,1.68.3v-1c0-1.33-.58-2-1.72-2a5.75,5.75,0,0,0-2.64.88,1.6,1.6,0,0,1-.09-.61,2,2,0,0,1,.2-.9,7.31,7.31,0,0,1,3-.63c2,0,2.84.95,2.84,3.42v3.49a1.69,1.69,0,0,0,.23.94,5.68,5.68,0,0,0,1.25-.22.71.71,0,0,1,0,.2,2.05,2.05,0,0,1-.18.81,4.64,4.64,0,0,1-2,.52,1.94,1.94,0,0,1-.76-1.37Zm0-2.75a6,6,0,0,0-1.27-.15c-1.41,0-2.21.63-2.21,1.59A1.46,1.46,0,0,0,87,290.9a2.27,2.27,0,0,0,1.83-.88Z"/><path class="cls-1" d="M95.8,290.86a1.07,1.07,0,0,1-1.12,1.19,1,1,0,0,1-1.16-1.19,1.09,1.09,0,0,1,1.16-1.1A1,1,0,0,1,95.8,290.86Z"/><path class="cls-1" d="M103.13,280.6c-.42,0-.94,0-1.34-.06a4.27,4.27,0,0,1,0-1.08c1.43-.14,3.4-.25,4.78-.25,3.5,0,6.34,2.16,6.34,6.14,0,4.61-2.76,6.56-5.8,6.56-1.63,0-3.89,0-5.57-.09a5.61,5.61,0,0,1,.22-1,9.44,9.44,0,0,1,1.41-.23Zm1.66,10.12c.54,0,1.21,0,1.75,0,2.88,0,4.58-1.53,4.58-5.33a4.71,4.71,0,0,0-4.9-5.11c-.34,0-1.09,0-1.43.05Z"/><path class="cls-1" d="M120.72,284.29h-1.3a2.07,2.07,0,0,1,.32-1,4.68,4.68,0,0,1,1.63-.26,3.74,3.74,0,0,1,.92.11v6.27a5.25,5.25,0,0,0,.15,1.28h1.37a1,1,0,0,1,0,.23,2.3,2.3,0,0,1-.14.72,10.39,10.39,0,0,1-2.48.36,3.62,3.62,0,0,1-.36-1.42h-.09a3.22,3.22,0,0,1-2.88,1.51c-1.41,0-2.66-.45-2.66-3.24,0-1.51,0-3.1.09-4.61h-1.37a2.21,2.21,0,0,1,.33-.94,4.89,4.89,0,0,1,1.64-.27,3.74,3.74,0,0,1,.92.11v5.46c0,1.37.44,2.25,1.67,2.25a3.13,3.13,0,0,0,2.22-1.1Z"/><path class="cls-1" d="M128,284.9A2.42,2.42,0,0,1,130.3,283a2.62,2.62,0,0,1,.82.14,2.31,2.31,0,0,1,.23,1.08,1.89,1.89,0,0,1,0,.49,2.5,2.5,0,0,0-1.23-.31,2.24,2.24,0,0,0-2.08,1.48v4.82a8.89,8.89,0,0,1,1.79.33,2.76,2.76,0,0,1,0,.82H125a2.31,2.31,0,0,1,.25-.81,7.2,7.2,0,0,1,1.16-.34v-6.39H125.1a2.07,2.07,0,0,1,.32-1,4.61,4.61,0,0,1,1.5-.26,3.18,3.18,0,0,1,.85.11v1.71Z"/><path class="cls-1" d="M137.38,290.77a2.81,2.81,0,0,1-2.54,1.37,2.35,2.35,0,0,1-2.56-2.41c0-1.86,1.57-2.81,3.36-2.81a4.66,4.66,0,0,1,1.68.3v-1c0-1.33-.58-2-1.72-2a5.83,5.83,0,0,0-2.64.88,1.6,1.6,0,0,1-.09-.61,2,2,0,0,1,.2-.9,7.31,7.31,0,0,1,3-.63c2,0,2.84.95,2.84,3.42v3.49a1.69,1.69,0,0,0,.23.94,5.58,5.58,0,0,0,1.25-.22.71.71,0,0,1,0,.2,1.89,1.89,0,0,1-.18.81,4.64,4.64,0,0,1-2,.52,1.88,1.88,0,0,1-.76-1.37Zm0-2.75a5.88,5.88,0,0,0-1.27-.15c-1.41,0-2.2.63-2.2,1.59a1.46,1.46,0,0,0,1.64,1.44,2.27,2.27,0,0,0,1.83-.88Z"/><path class="cls-1" d="M144.26,290.74a5.81,5.81,0,0,1,1.32.23,2.46,2.46,0,0,1,0,.86h-4.34a2.82,2.82,0,0,1,.25-.81,7.2,7.2,0,0,1,1.16-.34v-6.39h-1.32a2.08,2.08,0,0,1,.33-1,4.43,4.43,0,0,1,1.5-.26,3.24,3.24,0,0,1,.85.11v1.32h.18a3.22,3.22,0,0,1,2.91-1.53c1.43,0,2.69.44,2.69,3.24,0,1.51,0,3-.1,4.52a7.45,7.45,0,0,1,1.46.23,2.33,2.33,0,0,1,.05.56,2.91,2.91,0,0,1,0,.3h-4.29a2.82,2.82,0,0,1,.25-.81,7.31,7.31,0,0,1,1-.34v-4.21c0-1.39-.43-2.27-1.7-2.27a3.22,3.22,0,0,0-2.26,1.15Z"/><path class="cls-1" d="M153.54,281.09a3.12,3.12,0,0,1,1.21-.29v2.48h2.63a4.89,4.89,0,0,1,.05,1.05h-2.68v4.95c0,1.17.17,1.67,1.18,1.67a7.36,7.36,0,0,0,1.68-.23,1.06,1.06,0,0,1,0,.23,1.6,1.6,0,0,1-.18.7,5.79,5.79,0,0,1-2.23.49c-1.39,0-2.09-.76-2.09-2.61,0-1.06,0-3.39.09-5.2H152a2.75,2.75,0,0,1,.22-.94,5.49,5.49,0,0,1,1-.32Z"/><path class="cls-1" d="M160.09,287.76a2.89,2.89,0,0,0,2.95,3.12,8.43,8.43,0,0,0,2.53-.5,2,2,0,0,1-.24,1,6.24,6.24,0,0,1-2.86.74c-2.58,0-4.06-1.93-4.06-4.41,0-2.65,1.64-4.75,4.17-4.75,2.17,0,3.09,1.56,3.09,3.83a7.66,7.66,0,0,1,0,.95Zm4-1c.12-1.24-.24-2.75-1.76-2.75-1.28,0-2.11,1.11-2.22,2.75Z"/><path class="cls-1" d="M170.81,279.88a2.12,2.12,0,0,1,.33-1,5.41,5.41,0,0,1,1.62-.25,3.83,3.83,0,0,1,.93.11v11.94a8.08,8.08,0,0,1,1.46.25,2.29,2.29,0,0,1,.06.56,1.46,1.46,0,0,1,0,.3H170.7A2.56,2.56,0,0,1,171,291a7.08,7.08,0,0,1,1.15-.34v-10.8Z"/><path class="cls-1" d="M184.68,287.42c0,3-1.61,4.72-4.1,4.72-2.64,0-4.13-1.62-4.13-4.72,0-2.75,1.77-4.44,4.13-4.44S184.68,284.56,184.68,287.42Zm-4.1,3.64c1.66,0,2.46-1.4,2.46-3.64,0-1.92-1-3.38-2.46-3.38s-2.48,1.35-2.48,3.38C178.1,289.62,179,291.06,180.58,291.06Z"/><path class="cls-1" d="M190.92,284.13a2.89,2.89,0,0,0-1.07-.22c-.94,0-1.48.43-1.48,1.1,0,2,4.21,1.4,4.21,4.54,0,1.87-1.57,2.59-3.25,2.59a5.55,5.55,0,0,1-2.77-.68,4.31,4.31,0,0,1-.09-.87,5.26,5.26,0,0,1,.18-1.28,5.64,5.64,0,0,1,1.3.16v1.25a2.88,2.88,0,0,0,1.52.41,1.36,1.36,0,0,0,1.52-1.35c0-2.14-4.25-1.37-4.25-4.55,0-1.32,1.21-2.25,3-2.25a7,7,0,0,1,2.55.46,2.5,2.5,0,0,1,0,.56,5.85,5.85,0,0,1-.2,1.46,2.66,2.66,0,0,1-1.21-.27Z"/><path class="cls-1" d="M204.25,284.29h-1.31a2.08,2.08,0,0,1,.33-1,4.64,4.64,0,0,1,1.63-.26,3.8,3.8,0,0,1,.92.11v6.27a5.76,5.76,0,0,0,.14,1.28h1.38a1,1,0,0,1,0,.23,2.3,2.3,0,0,1-.15.72,10.32,10.32,0,0,1-2.48.36,4,4,0,0,1-.36-1.42h-.09a3.18,3.18,0,0,1-2.87,1.51c-1.41,0-2.66-.45-2.66-3.24,0-1.51,0-3.1.09-4.61h-1.38a2.36,2.36,0,0,1,.33-.94,5,5,0,0,1,1.65-.27,3.8,3.8,0,0,1,.92.11v5.46c0,1.37.43,2.25,1.66,2.25a3.13,3.13,0,0,0,2.23-1.1Zm-2.45-2.16a2.45,2.45,0,0,1-.92-.78l2-2.8a3.67,3.67,0,0,1,1.59.63Z"/><path class="cls-1" d="M208.46,279.88a2,2,0,0,1,.33-1,5.41,5.41,0,0,1,1.62-.25,3.74,3.74,0,0,1,.92.11v11.94a8,8,0,0,1,1.47.25,2.33,2.33,0,0,1,0,.56,2.91,2.91,0,0,1,0,.3h-4.49a2.82,2.82,0,0,1,.25-.81,7.2,7.2,0,0,1,1.16-.34v-10.8Z"/><path class="cls-1" d="M215.2,281.09a3.17,3.17,0,0,1,1.22-.29v2.48H219a4.89,4.89,0,0,1,.05,1.05h-2.67v4.95c0,1.17.16,1.67,1.17,1.67a7.28,7.28,0,0,0,1.68-.23,1.06,1.06,0,0,1,0,.23,1.6,1.6,0,0,1-.18.7,5.75,5.75,0,0,1-2.22.49c-1.4,0-2.1-.76-2.1-2.61,0-1.06,0-3.39.09-5.2h-1.25a2.75,2.75,0,0,1,.22-.94,5.37,5.37,0,0,1,1.05-.32Z"/><path class="cls-1" d="M220.3,284.29a2.08,2.08,0,0,1,.33-1,5.11,5.11,0,0,1,1.63-.26,4,4,0,0,1,.94.11v7.53a7.49,7.49,0,0,1,1.42.25,2.29,2.29,0,0,1,.06.56,1.46,1.46,0,0,1,0,.3h-4.45a2.56,2.56,0,0,1,.26-.81,7.08,7.08,0,0,1,1.15-.34v-6.39Zm3.17-4.2a1,1,0,0,1-1,1.07.94.94,0,0,1-1-1.07,1,1,0,0,1,1-1A.93.93,0,0,1,223.47,280.09Z"/><path class="cls-1" d="M228.71,290.74A5.91,5.91,0,0,1,230,291a2.72,2.72,0,0,1,0,.86h-4.34A2.54,2.54,0,0,1,226,291a7.2,7.2,0,0,1,1.16-.34v-6.39h-1.32a2.07,2.07,0,0,1,.32-1,4.43,4.43,0,0,1,1.5-.26,3.32,3.32,0,0,1,.86.11v1.32h.18a3.16,3.16,0,0,1,2.85-1.53,2.13,2.13,0,0,1,2.41,1.63H234a3.18,3.18,0,0,1,2.91-1.63c1.41,0,2.66.44,2.66,3.24,0,1.53,0,3-.11,4.52A7.33,7.33,0,0,1,241,291a2.29,2.29,0,0,1,.06.56,1.46,1.46,0,0,1,0,.3H236.7A2.56,2.56,0,0,1,237,291a6.54,6.54,0,0,1,1-.34v-4.21c0-1.39-.42-2.27-1.67-2.27a3.15,3.15,0,0,0-2.2,1.15v5.37a6,6,0,0,1,1.32.25,2.73,2.73,0,0,1,0,.86H231.3a2.31,2.31,0,0,1,.25-.81,6.54,6.54,0,0,1,1-.34v-4.21c0-1.39-.41-2.27-1.66-2.27a3.12,3.12,0,0,0-2.21,1.15Z"/><path class="cls-1" d="M250.43,287.42c0,3-1.61,4.72-4.11,4.72s-4.12-1.62-4.12-4.72c0-2.75,1.77-4.44,4.12-4.44S250.43,284.56,250.43,287.42Zm-4.11,3.64c1.67,0,2.46-1.4,2.46-3.64,0-1.92-.95-3.38-2.46-3.38s-2.47,1.35-2.47,3.38C243.85,289.62,244.79,291.06,246.32,291.06Z"/><path class="cls-1" d="M256.67,284.13a2.89,2.89,0,0,0-1.07-.22c-.94,0-1.48.43-1.48,1.1,0,2,4.21,1.4,4.21,4.54,0,1.87-1.57,2.59-3.25,2.59a5.55,5.55,0,0,1-2.77-.68,4.31,4.31,0,0,1-.09-.87,5.26,5.26,0,0,1,.18-1.28,5.64,5.64,0,0,1,1.3.16v1.25a2.88,2.88,0,0,0,1.52.41,1.37,1.37,0,0,0,1.52-1.35c0-2.14-4.25-1.37-4.25-4.55,0-1.32,1.21-2.25,3-2.25a7.09,7.09,0,0,1,2.55.46,2.5,2.5,0,0,1,0,.56,5.85,5.85,0,0,1-.2,1.46,2.66,2.66,0,0,1-1.21-.27Z"/><path class="cls-1" d="M2.6,310.57l-2.6.32a3,3,0,0,1,.29-1.11,16,16,0,0,1,3.94-.72v8.51a20.1,20.1,0,0,1,2.1.31,3.19,3.19,0,0,1,.09.7,1.19,1.19,0,0,1,0,.25H.4a3.85,3.85,0,0,1,.32-.9,16.26,16.26,0,0,1,1.88-.45Z"/><path class="cls-1" d="M17.18,314c0,3.41-1.79,5.22-4.68,5.22S7.79,317.47,7.79,314c0-3,1.94-4.91,4.71-4.91S17.18,310.77,17.18,314Zm-4.68,4.09c2,0,3-1.51,3-4.09,0-2.21-1.12-3.8-3-3.8s-3,1.46-3,3.8C9.51,316.49,10.63,318.06,12.5,318.06Z"/><path class="cls-1" d="M27.83,317.77a2.79,2.79,0,0,1-2.53,1.37,2.36,2.36,0,0,1-2.57-2.41c0-1.86,1.57-2.81,3.36-2.81a4.66,4.66,0,0,1,1.68.3v-1c0-1.33-.57-2-1.71-2a5.75,5.75,0,0,0-2.64.88,1.43,1.43,0,0,1-.09-.61,2,2,0,0,1,.2-.9,7.22,7.22,0,0,1,2.94-.63c2,0,2.84.95,2.84,3.42v3.49a1.6,1.6,0,0,0,.24.94,5.51,5.51,0,0,0,1.24-.22.71.71,0,0,1,0,.2,1.89,1.89,0,0,1-.18.81,4.64,4.64,0,0,1-1.95.52,1.91,1.91,0,0,1-.76-1.37Zm0-2.75a5.87,5.87,0,0,0-1.26-.15c-1.41,0-2.21.63-2.21,1.59A1.46,1.46,0,0,0,26,317.9a2.27,2.27,0,0,0,1.82-.88Z"/><path class="cls-1" d="M34.72,317.74A6,6,0,0,1,36,318a3.05,3.05,0,0,1,0,.86H31.74A2.31,2.31,0,0,1,32,318a6.91,6.91,0,0,1,1.16-.34v-6.39H31.83a2,2,0,0,1,.32-1,4.43,4.43,0,0,1,1.5-.26,3.18,3.18,0,0,1,.85.11v1.32h.18A3.25,3.25,0,0,1,37.59,310c1.43,0,2.7.44,2.7,3.24,0,1.51,0,3-.11,4.52a7.33,7.33,0,0,1,1.46.23,2.29,2.29,0,0,1,.06.56,1.46,1.46,0,0,1,0,.3H37.4a2.31,2.31,0,0,1,.25-.81,6.54,6.54,0,0,1,1-.34v-4.21c0-1.39-.44-2.27-1.7-2.27a3.22,3.22,0,0,0-2.26,1.15Zm5.06-10.95A1.84,1.84,0,0,1,38,308.71c-.83,0-1.52-.77-2.22-.77a1,1,0,0,0-.94.76,1,1,0,0,1-.67-.4A1.79,1.79,0,0,1,36,306.63c1,0,1.43.73,2.23.73a.88.88,0,0,0,.85-.72A1.58,1.58,0,0,1,39.78,306.79Z"/><path class="cls-1" d="M51.12,314.42c0,3-1.61,4.72-4.1,4.72-2.64,0-4.13-1.62-4.13-4.72,0-2.75,1.78-4.44,4.13-4.44S51.12,311.56,51.12,314.42ZM47,318.06c1.66,0,2.45-1.4,2.45-3.64,0-1.92-.95-3.38-2.45-3.38s-2.48,1.35-2.48,3.38C44.54,316.62,45.48,318.06,47,318.06Z"/><path class="cls-1" d="M57.36,311.13a2.89,2.89,0,0,0-1.07-.22c-.94,0-1.48.43-1.48,1.1,0,2,4.21,1.4,4.21,4.54,0,1.87-1.57,2.59-3.25,2.59a5.55,5.55,0,0,1-2.77-.68,4.31,4.31,0,0,1-.09-.87,5.26,5.26,0,0,1,.18-1.28,5.64,5.64,0,0,1,1.3.16v1.25a2.88,2.88,0,0,0,1.52.41,1.36,1.36,0,0,0,1.52-1.35c0-2.14-4.25-1.37-4.25-4.55,0-1.32,1.21-2.25,3-2.25a7,7,0,0,1,2.55.46,2.5,2.5,0,0,1,0,.56,5.85,5.85,0,0,1-.2,1.46,2.66,2.66,0,0,1-1.21-.27Z"/><path class="cls-1" d="M60.79,318.35a3.92,3.92,0,0,1,.6-1.21,3.71,3.71,0,0,1,.74-.07,4.22,4.22,0,0,1,1.34.22,16,16,0,0,1-1.64,4.24,3.18,3.18,0,0,1-1-.46,15.51,15.51,0,0,0,.68-2.54Z"/><path class="cls-1" d="M70.6,314.76a2.89,2.89,0,0,0,2.94,3.12,8.3,8.3,0,0,0,2.53-.5,1.9,1.9,0,0,1-.23,1,6.27,6.27,0,0,1-2.86.74c-2.58,0-4.07-1.93-4.07-4.41,0-2.65,1.65-4.75,4.18-4.75,2.17,0,3.09,1.56,3.09,3.83,0,.31,0,.63-.05.95Zm4-1c.13-1.24-.23-2.75-1.75-2.75-1.28,0-2.12,1.11-2.22,2.75Z"/><path class="cls-1" d="M80.67,317.74A6,6,0,0,1,82,318a2.73,2.73,0,0,1,0,.86H77.68a2.56,2.56,0,0,1,.26-.81,7.08,7.08,0,0,1,1.15-.34v-6.39H77.77a2.08,2.08,0,0,1,.33-1,4.43,4.43,0,0,1,1.5-.26,3.18,3.18,0,0,1,.85.11v1.32h.18A3.25,3.25,0,0,1,83.54,310c1.43,0,2.7.44,2.7,3.24,0,1.51,0,3-.11,4.52a7.33,7.33,0,0,1,1.46.23,2.29,2.29,0,0,1,.06.56,1.46,1.46,0,0,1,0,.3H83.34a2.56,2.56,0,0,1,.26-.81,6.54,6.54,0,0,1,1-.34v-4.21c0-1.39-.44-2.27-1.7-2.27a3.22,3.22,0,0,0-2.26,1.15Z"/><path class="cls-1" d="M89.94,308.09a3.17,3.17,0,0,1,1.22-.29v2.48h2.62a4.89,4.89,0,0,1,0,1.05H91.16v4.95c0,1.17.16,1.67,1.17,1.67a7.28,7.28,0,0,0,1.68-.23,1.06,1.06,0,0,1,0,.23,1.6,1.6,0,0,1-.18.7,5.75,5.75,0,0,1-2.22.49c-1.4,0-2.1-.76-2.1-2.61,0-1.06,0-3.39.09-5.2H88.37a2.75,2.75,0,0,1,.22-.94,5.37,5.37,0,0,1,1-.32Z"/><path class="cls-1" d="M97.9,311.9a2.41,2.41,0,0,1,2.35-1.92,2.62,2.62,0,0,1,.82.14,2.58,2.58,0,0,1,.18,1.57,2.5,2.5,0,0,0-1.23-.31,2.23,2.23,0,0,0-2.08,1.48v4.82a9,9,0,0,1,1.79.33,2.47,2.47,0,0,1,0,.82H95a2.56,2.56,0,0,1,.26-.81,7.08,7.08,0,0,1,1.15-.34v-6.39H95a2.08,2.08,0,0,1,.33-1,4.61,4.61,0,0,1,1.5-.26,3.18,3.18,0,0,1,.85.11v1.71Z"/><path class="cls-1" d="M104,314.76a2.9,2.9,0,0,0,3,3.12,8.36,8.36,0,0,0,2.53-.5,1.9,1.9,0,0,1-.23,1,6.27,6.27,0,0,1-2.86.74c-2.58,0-4.07-1.93-4.07-4.41,0-2.65,1.65-4.75,4.18-4.75,2.17,0,3.09,1.56,3.09,3.83,0,.31,0,.63,0,.95Zm4-1c.13-1.24-.23-2.75-1.75-2.75-1.28,0-2.12,1.11-2.23,2.75Z"/><path class="cls-1" d="M116.69,314.76a2.9,2.9,0,0,0,3,3.12,8.43,8.43,0,0,0,2.53-.5,1.91,1.91,0,0,1-.24,1,6.23,6.23,0,0,1-2.85.74c-2.59,0-4.07-1.93-4.07-4.41,0-2.65,1.64-4.75,4.17-4.75,2.17,0,3.1,1.56,3.1,3.83a7.69,7.69,0,0,1-.06.95Zm4-1c.12-1.24-.24-2.75-1.76-2.75-1.28,0-2.11,1.11-2.22,2.75Z"/><path class="cls-1" d="M123.71,306.88a2,2,0,0,1,.32-1,5.48,5.48,0,0,1,1.63-.25,3.8,3.8,0,0,1,.92.11v11.94a8.19,8.19,0,0,1,1.47.25,3,3,0,0,1,0,.56,1.46,1.46,0,0,1,0,.3H123.6a2.31,2.31,0,0,1,.25-.81,7.2,7.2,0,0,1,1.16-.34v-10.8Z"/><path class="cls-1" d="M140.76,310.61a37.29,37.29,0,0,0-4.69,9.86,3,3,0,0,1-.81.09,4.71,4.71,0,0,1-1-.09A38.76,38.76,0,0,1,139,311v-.13h-4.77a8.79,8.79,0,0,1-.4,1.51,4.52,4.52,0,0,1-1.14-.21l.23-2.79h7.54Z"/><path class="cls-1" d="M151.14,314c0,3.41-1.79,5.22-4.69,5.22s-4.7-1.72-4.7-5.22c0-3,1.94-4.91,4.7-4.91S151.14,310.77,151.14,314Zm-4.69,4.09c2,0,3-1.51,3-4.09,0-2.21-1.12-3.8-3-3.8s-3,1.46-3,3.8C143.47,316.49,144.59,318.06,146.45,318.06Z"/><path class="cls-1" d="M158.68,311.81a2.63,2.63,0,0,1-2.91,2.85c-1.88,0-2.91-.94-2.91-2.85a2.66,2.66,0,0,1,2.91-2.7C157.54,309.11,158.68,310.05,158.68,311.81Zm-2.91,2c1,0,1.44-.72,1.44-2,0-1.06-.5-1.82-1.44-1.82s-1.47.71-1.47,1.82S154.83,313.77,155.77,313.77Zm1.8,5.51a2.54,2.54,0,0,1-1-.48L163.2,309a4.2,4.2,0,0,1,1.14.27Zm10.33-3a2.62,2.62,0,0,1-2.91,2.84c-1.88,0-2.91-.94-2.91-2.84a2.67,2.67,0,0,1,2.91-2.71C166.76,313.59,167.9,314.53,167.9,316.3Zm-2.91,2c1,0,1.45-.72,1.45-2,0-1.07-.51-1.82-1.45-1.82s-1.47.7-1.47,1.82S164.05,318.26,165,318.26Z"/><path class="cls-1" d="M177.32,317.84c.11-.43.35-1.37.49-1.8l.9-2.86a16,16,0,0,1,.67-1.75,4.6,4.6,0,0,1-1.08-.23,3.06,3.06,0,0,1-.15-.92h3.46a3.68,3.68,0,0,1-.18,1,4.11,4.11,0,0,1-.85.16l-1,3a50.79,50.79,0,0,1-2,5.31,6.41,6.41,0,0,1-3.65,3.43,2.51,2.51,0,0,1-.67-1.34,4.87,4.87,0,0,0,3.27-2.64l-2.94-7.66a4.51,4.51,0,0,1-.94-.3,4,4,0,0,1-.19-.94h4.09a4,4,0,0,1-.14.94,8.29,8.29,0,0,1-1.32.21,12.85,12.85,0,0,1,.65,1.52l1.14,3.15a14.78,14.78,0,0,1,.4,1.74Z"/><path class="cls-1" d="M188,314.76a2.9,2.9,0,0,0,2.95,3.12,8.36,8.36,0,0,0,2.53-.5,1.83,1.83,0,0,1-.24,1,6.23,6.23,0,0,1-2.85.74c-2.59,0-4.07-1.93-4.07-4.41,0-2.65,1.65-4.75,4.18-4.75,2.17,0,3.09,1.56,3.09,3.83a7.69,7.69,0,0,1-.06.95Zm4-1c.13-1.24-.24-2.75-1.76-2.75-1.28,0-2.11,1.11-2.22,2.75Z"/><path class="cls-1" d="M195,306.88a2.11,2.11,0,0,1,.32-1,5.48,5.48,0,0,1,1.63-.25,3.74,3.74,0,0,1,.92.11v11.94a8.19,8.19,0,0,1,1.47.25,3,3,0,0,1,.05.56,1.46,1.46,0,0,1,0,.3H194.9a2.82,2.82,0,0,1,.25-.81,7.2,7.2,0,0,1,1.16-.34v-10.8Z"/><path class="cls-1" d="M207,312.84a2.81,2.81,0,0,1-2.07-2.52c0-2.09,1.82-3,3.56-3s3.5.73,3.5,2.71a3.06,3.06,0,0,1-2.07,2.8V313a3.18,3.18,0,0,1,2.31,2.8c0,2.3-1.86,3.43-3.92,3.43-1.76,0-3.87-.68-3.87-3a3.48,3.48,0,0,1,2.56-3.24Zm-1,3a2.11,2.11,0,0,0,2.38,2.31,2,2,0,0,0,2.21-2.22c0-1.33-1.34-1.94-2.69-2.57A2.63,2.63,0,0,0,206,315.86Zm4.43-5.69a1.85,1.85,0,0,0-2.08-1.87,1.79,1.79,0,0,0-1.94,1.8c0,1.12,1.2,1.71,2.5,2.31A2.46,2.46,0,0,0,210.47,310.17Z"/><path class="cls-1" d="M223.61,314c0,3.41-1.79,5.22-4.68,5.22s-4.7-1.72-4.7-5.22c0-3,1.93-4.91,4.7-4.91S223.61,310.77,223.61,314Zm-4.68,4.09c2,0,3-1.51,3-4.09,0-2.21-1.12-3.8-3-3.8s-3,1.46-3,3.8C216,316.49,217.07,318.06,218.93,318.06Z"/><path class="cls-1" d="M231.15,311.81a2.63,2.63,0,0,1-2.91,2.85c-1.88,0-2.91-.94-2.91-2.85a2.66,2.66,0,0,1,2.91-2.7C230,309.11,231.15,310.05,231.15,311.81Zm-2.91,2c1,0,1.45-.72,1.45-2,0-1.06-.51-1.82-1.45-1.82s-1.46.71-1.46,1.82S227.3,313.77,228.24,313.77Zm1.81,5.51a2.47,2.47,0,0,1-1-.48l6.61-9.85a4,4,0,0,1,1.14.27Zm10.33-3a2.63,2.63,0,0,1-2.92,2.84c-1.88,0-2.91-.94-2.91-2.84a2.67,2.67,0,0,1,2.91-2.71C239.24,313.59,240.38,314.53,240.38,316.3Zm-2.92,2c1,0,1.45-.72,1.45-2,0-1.07-.5-1.82-1.45-1.82s-1.46.7-1.46,1.82S236.53,318.26,237.46,318.26Z"/><path class="cls-1" d="M251.71,306.88h-1.3a2.12,2.12,0,0,1,.33-1,5.42,5.42,0,0,1,1.63-.25,3.8,3.8,0,0,1,.92.11v10.68a4.83,4.83,0,0,0,.14,1.28h1.36a1,1,0,0,1,0,.23,2.3,2.3,0,0,1-.15.72,9.94,9.94,0,0,1-2.44.36,3.24,3.24,0,0,1-.36-1.3h-.09a2.92,2.92,0,0,1-2.71,1.39c-1.58,0-3.37-1.08-3.37-4.34,0-2.9,1.79-4.82,4.38-4.82a3.12,3.12,0,0,1,1.64.43Zm0,4.43a4.67,4.67,0,0,0-1.5-.25c-2,0-2.89,1.4-2.89,3.49s1,3.37,2.33,3.37a2.39,2.39,0,0,0,2.06-1.08Z"/><path class="cls-1" d="M257.72,314.76a2.89,2.89,0,0,0,2.95,3.12,8.43,8.43,0,0,0,2.53-.5,2,2,0,0,1-.24,1,6.23,6.23,0,0,1-2.85.74c-2.59,0-4.07-1.93-4.07-4.41,0-2.65,1.64-4.75,4.17-4.75,2.17,0,3.1,1.56,3.1,3.83a7.69,7.69,0,0,1-.06.95Zm4-1c.12-1.24-.24-2.75-1.76-2.75-1.28,0-2.11,1.11-2.22,2.75Z"/><path class="cls-1" d="M36.24,344.74a6,6,0,0,1,1.32.23,2.73,2.73,0,0,1,0,.86H33.25a2.56,2.56,0,0,1,.26-.81,6.91,6.91,0,0,1,1.16-.34v-6.39H33.34a2.08,2.08,0,0,1,.33-1,4.43,4.43,0,0,1,1.5-.26,3.18,3.18,0,0,1,.85.11v1.32h.18A3.19,3.19,0,0,1,39.06,337a2.12,2.12,0,0,1,2.4,1.63h.09A3.19,3.19,0,0,1,44.47,337c1.41,0,2.65.44,2.65,3.24,0,1.53,0,3-.11,4.52a7.44,7.44,0,0,1,1.47.23,2.33,2.33,0,0,1,.05.56,2.91,2.91,0,0,1,0,.3H44.23a2.82,2.82,0,0,1,.25-.81,6.9,6.9,0,0,1,1-.34v-4.21c0-1.39-.41-2.27-1.66-2.27a3.17,3.17,0,0,0-2.21,1.15v5.37A5.74,5.74,0,0,1,43,345a2.46,2.46,0,0,1,0,.86H38.82a2.56,2.56,0,0,1,.26-.81,6.54,6.54,0,0,1,1-.34v-4.21c0-1.39-.42-2.27-1.67-2.27a3.12,3.12,0,0,0-2.2,1.15Z"/><path class="cls-1" d="M56,338.29h-1.3a2,2,0,0,1,.32-1,4.64,4.64,0,0,1,1.63-.26,3.8,3.8,0,0,1,.92.11v6.27a5.25,5.25,0,0,0,.15,1.28h1.37a1,1,0,0,1,0,.23,2.05,2.05,0,0,1-.15.72,10.31,10.31,0,0,1-2.47.36,3.62,3.62,0,0,1-.36-1.42h-.1a3.18,3.18,0,0,1-2.87,1.51c-1.41,0-2.66-.45-2.66-3.24,0-1.51,0-3.1.09-4.61H49.26a2.2,2.2,0,0,1,.32-.94,5,5,0,0,1,1.65-.27,3.8,3.8,0,0,1,.92.11v5.46c0,1.37.43,2.25,1.66,2.25A3.13,3.13,0,0,0,56,343.8Z"/><path class="cls-1" d="M62.22,341.76a2.9,2.9,0,0,0,3,3.12,8.36,8.36,0,0,0,2.53-.5,1.9,1.9,0,0,1-.23,1,6.27,6.27,0,0,1-2.86.74c-2.59,0-4.07-1.93-4.07-4.41,0-2.65,1.65-4.75,4.18-4.75,2.17,0,3.09,1.56,3.09,3.83,0,.31,0,.63,0,.95Zm4-1c.13-1.24-.23-2.75-1.75-2.75-1.29,0-2.12,1.11-2.23,2.75Z"/><path class="cls-1" d="M72.26,338.9A2.4,2.4,0,0,1,74.61,337a2.51,2.51,0,0,1,.81.14,2.3,2.3,0,0,1,.24,1.08,1.88,1.88,0,0,1-.06.49,2.44,2.44,0,0,0-1.23-.31,2.25,2.25,0,0,0-2.08,1.48v4.82a8.76,8.76,0,0,1,1.79.33,2.22,2.22,0,0,1,0,.82H69.31a2.82,2.82,0,0,1,.25-.81,7.2,7.2,0,0,1,1.16-.34v-6.39H69.4a2.08,2.08,0,0,1,.33-1,4.56,4.56,0,0,1,1.5-.26,3.18,3.18,0,0,1,.85.11v1.71Z"/><path class="cls-1" d="M77.88,335.09a3.12,3.12,0,0,1,1.21-.29v2.48h2.63a4.89,4.89,0,0,1,0,1.05H79.09v4.95c0,1.17.17,1.67,1.18,1.67a7.28,7.28,0,0,0,1.68-.23,1.06,1.06,0,0,1,0,.23,1.6,1.6,0,0,1-.18.7,5.79,5.79,0,0,1-2.23.49c-1.39,0-2.09-.76-2.09-2.61,0-1.06,0-3.39.09-5.2H76.31a2.75,2.75,0,0,1,.22-.94,5.37,5.37,0,0,1,1-.32Z"/><path class="cls-1" d="M84.43,341.76a2.89,2.89,0,0,0,2.95,3.12,8.43,8.43,0,0,0,2.53-.5,1.91,1.91,0,0,1-.24,1,6.23,6.23,0,0,1-2.85.74c-2.59,0-4.07-1.93-4.07-4.41,0-2.65,1.64-4.75,4.17-4.75,2.17,0,3.1,1.56,3.1,3.83a7.69,7.69,0,0,1-.06.95Zm4-1c.12-1.24-.24-2.75-1.76-2.75-1.28,0-2.11,1.11-2.22,2.75Z"/><path class="cls-1" d="M96.2,338.13a2.89,2.89,0,0,0-1.07-.22c-.94,0-1.48.43-1.48,1.1,0,2,4.21,1.4,4.21,4.54,0,1.87-1.57,2.59-3.25,2.59a5.55,5.55,0,0,1-2.77-.68,4.31,4.31,0,0,1-.09-.87,5.26,5.26,0,0,1,.18-1.28,5.73,5.73,0,0,1,1.31.16v1.25a2.82,2.82,0,0,0,1.51.41,1.36,1.36,0,0,0,1.52-1.35c0-2.14-4.25-1.37-4.25-4.55,0-1.32,1.22-2.25,3-2.25a7.12,7.12,0,0,1,2.55.46,3.32,3.32,0,0,1,0,.56,5.85,5.85,0,0,1-.2,1.46,2.66,2.66,0,0,1-1.21-.27Z"/><path class="cls-1" d="M107.27,344.77c.09-.41.29-1.17.41-1.55l1.07-3.18a12.21,12.21,0,0,1,.67-1.61,4.41,4.41,0,0,1-1.07-.23,3.06,3.06,0,0,1-.14-.92h3.41a3.54,3.54,0,0,1-.18,1,4.11,4.11,0,0,1-.85.16l-2.78,7.46-1.65.18-2.67-7.55a4.32,4.32,0,0,1-.92-.3,3.56,3.56,0,0,1-.18-.94h4a4.1,4.1,0,0,1-.15,1,9.73,9.73,0,0,1-1.28.19,11.92,11.92,0,0,1,.65,1.53l1.12,3.34a13.75,13.75,0,0,1,.36,1.47Z"/><path class="cls-1" d="M112.46,338.29a2.07,2.07,0,0,1,.32-1,5.15,5.15,0,0,1,1.63-.26,3.91,3.91,0,0,1,.94.11v7.53a7.74,7.74,0,0,1,1.43.25,3,3,0,0,1,0,.56,1.46,1.46,0,0,1,0,.3h-4.44a2.31,2.31,0,0,1,.25-.81,7.2,7.2,0,0,1,1.16-.34v-6.39Zm3.16-4.2a1,1,0,0,1-1,1.07.94.94,0,0,1-1-1.07,1,1,0,0,1,1-1A.93.93,0,0,1,115.62,334.09Z"/><path class="cls-1" d="M126.33,341.42c0,3-1.61,4.72-4.11,4.72s-4.12-1.62-4.12-4.72c0-2.75,1.77-4.44,4.12-4.44S126.33,338.56,126.33,341.42Zm-4.11,3.64c1.67,0,2.46-1.4,2.46-3.64,0-1.92-1-3.38-2.46-3.38s-2.48,1.35-2.48,3.38C119.74,343.62,120.68,345.06,122.22,345.06Z"/><path class="cls-1" d="M127.81,333.88a2,2,0,0,1,.33-1,5.41,5.41,0,0,1,1.62-.25,3.74,3.74,0,0,1,.92.11v11.94a8,8,0,0,1,1.47.25,2.33,2.33,0,0,1,0,.56,2.91,2.91,0,0,1,0,.3H127.7A2.82,2.82,0,0,1,128,345a7.2,7.2,0,0,1,1.16-.34v-10.8Z"/><path class="cls-1" d="M135.13,341.76a2.9,2.9,0,0,0,3,3.12,8.36,8.36,0,0,0,2.53-.5,1.9,1.9,0,0,1-.23,1,6.27,6.27,0,0,1-2.86.74c-2.59,0-4.07-1.93-4.07-4.41,0-2.65,1.65-4.75,4.18-4.75,2.17,0,3.09,1.56,3.09,3.83,0,.31,0,.63-.05.95Zm4-1c.13-1.24-.23-2.75-1.75-2.75-1.29,0-2.12,1.11-2.23,2.75Z"/><path class="cls-1" d="M145.21,344.74a6,6,0,0,1,1.32.23,2.73,2.73,0,0,1,0,.86h-4.34a2.56,2.56,0,0,1,.26-.81,6.79,6.79,0,0,1,1.15-.34v-6.39h-1.32a2.08,2.08,0,0,1,.33-1,4.43,4.43,0,0,1,1.5-.26,3.18,3.18,0,0,1,.85.11v1.32h.18a3.22,3.22,0,0,1,2.91-1.53c1.43,0,2.69.44,2.69,3.24,0,1.51,0,3-.1,4.52a7.45,7.45,0,0,1,1.46.23,2.33,2.33,0,0,1,.05.56,2.91,2.91,0,0,1,0,.3h-4.29a2.82,2.82,0,0,1,.25-.81,7,7,0,0,1,1-.34v-4.21c0-1.39-.44-2.27-1.7-2.27a3.18,3.18,0,0,0-2.26,1.15Z"/><path class="cls-1" d="M154.48,335.09a3.12,3.12,0,0,1,1.21-.29v2.48h2.63a4.89,4.89,0,0,1,.05,1.05h-2.68v4.95c0,1.17.17,1.67,1.18,1.67a7.28,7.28,0,0,0,1.68-.23,1.06,1.06,0,0,1,0,.23,1.6,1.6,0,0,1-.18.7,5.79,5.79,0,0,1-2.23.49c-1.39,0-2.09-.76-2.09-2.61,0-1.06,0-3.39.09-5.2h-1.25a2.75,2.75,0,0,1,.22-.94,5.49,5.49,0,0,1,1-.32Z"/><path class="cls-1" d="M164.75,344.77a2.78,2.78,0,0,1-2.53,1.37,2.36,2.36,0,0,1-2.57-2.41c0-1.86,1.58-2.81,3.37-2.81a4.66,4.66,0,0,1,1.68.3v-1c0-1.33-.58-2-1.72-2a5.75,5.75,0,0,0-2.64.88,1.6,1.6,0,0,1-.09-.61,2,2,0,0,1,.2-.9,7.31,7.31,0,0,1,3-.63c2,0,2.84.95,2.84,3.42v3.49a1.69,1.69,0,0,0,.23.94,5.58,5.58,0,0,0,1.25-.22.71.71,0,0,1,0,.2,2.05,2.05,0,0,1-.18.81,4.64,4.64,0,0,1-2,.52,1.94,1.94,0,0,1-.76-1.37Zm0-2.75a6,6,0,0,0-1.27-.15c-1.41,0-2.2.63-2.2,1.59a1.45,1.45,0,0,0,1.64,1.44,2.27,2.27,0,0,0,1.83-.88Z"/><path class="cls-1" d="M173.34,338.13a2.88,2.88,0,0,0-1.06-.22c-.94,0-1.49.43-1.49,1.1,0,2,4.22,1.4,4.22,4.54,0,1.87-1.58,2.59-3.26,2.59a5.55,5.55,0,0,1-2.77-.68,4.31,4.31,0,0,1-.09-.87,4.79,4.79,0,0,1,.19-1.28,5.71,5.71,0,0,1,1.3.16v1.25a2.83,2.83,0,0,0,1.52.41,1.36,1.36,0,0,0,1.51-1.35c0-2.14-4.24-1.37-4.24-4.55,0-1.32,1.21-2.25,3-2.25a7.12,7.12,0,0,1,2.55.46,3.32,3.32,0,0,1,0,.56,5.85,5.85,0,0,1-.2,1.46,2.69,2.69,0,0,1-1.21-.27Z"/><path class="cls-1" d="M184.82,338.13a2.83,2.83,0,0,0-1.06-.22c-.94,0-1.48.43-1.48,1.1,0,2,4.21,1.4,4.21,4.54,0,1.87-1.57,2.59-3.26,2.59a5.48,5.48,0,0,1-2.76-.68,3.69,3.69,0,0,1-.09-.87,5.26,5.26,0,0,1,.18-1.28,5.64,5.64,0,0,1,1.3.16v1.25a2.88,2.88,0,0,0,1.52.41,1.37,1.37,0,0,0,1.52-1.35c0-2.14-4.25-1.37-4.25-4.55,0-1.32,1.21-2.25,3-2.25a7.12,7.12,0,0,1,2.55.46,2.5,2.5,0,0,1,0,.56,6.36,6.36,0,0,1-.2,1.46,2.7,2.7,0,0,1-1.22-.27Z"/><path class="cls-1" d="M189.82,341.76a2.89,2.89,0,0,0,2.94,3.12,8.36,8.36,0,0,0,2.53-.5,1.9,1.9,0,0,1-.23,1,6.27,6.27,0,0,1-2.86.74c-2.58,0-4.07-1.93-4.07-4.41,0-2.65,1.65-4.75,4.18-4.75,2.17,0,3.09,1.56,3.09,3.83,0,.31,0,.63-.05.95Zm4-1c.13-1.24-.23-2.75-1.75-2.75-1.28,0-2.12,1.11-2.22,2.75Z"/><path class="cls-1" d="M203.47,344.74a6.24,6.24,0,0,1,1.32.23,2.73,2.73,0,0,1,0,.86h-4.34a2.56,2.56,0,0,1,.26-.81,7.08,7.08,0,0,1,1.15-.34v-10.8h-1.3a2.12,2.12,0,0,1,.33-1,5,5,0,0,1,1.63-.25,3.8,3.8,0,0,1,.92.11v3.48c0,.73,0,1.51-.09,2.25h.18A2.92,2.92,0,0,1,206.4,337c1.44,0,2.73.44,2.73,3.24,0,1.51,0,3-.11,4.52a7.33,7.33,0,0,1,1.46.23,2.29,2.29,0,0,1,.06.56,1.46,1.46,0,0,1,0,.3h-4.29a2.56,2.56,0,0,1,.26-.81,6.54,6.54,0,0,1,1-.34v-4.21c0-1.39-.45-2.27-1.74-2.27a3.3,3.3,0,0,0-2.31,1.15Z"/><path class="cls-1" d="M216.78,344.77a2.79,2.79,0,0,1-2.53,1.37,2.36,2.36,0,0,1-2.57-2.41c0-1.86,1.57-2.81,3.36-2.81a4.66,4.66,0,0,1,1.68.3v-1c0-1.33-.58-2-1.71-2a5.75,5.75,0,0,0-2.64.88,1.43,1.43,0,0,1-.09-.61,2.12,2.12,0,0,1,.19-.9,7.31,7.31,0,0,1,2.95-.63c2,0,2.84.95,2.84,3.42v3.49a1.6,1.6,0,0,0,.24.94,5.51,5.51,0,0,0,1.24-.22.71.71,0,0,1,0,.2,1.89,1.89,0,0,1-.18.81,4.64,4.64,0,0,1-2,.52,1.91,1.91,0,0,1-.76-1.37Zm0-2.75a5.87,5.87,0,0,0-1.26-.15c-1.41,0-2.21.63-2.21,1.59a1.46,1.46,0,0,0,1.65,1.44,2.27,2.27,0,0,0,1.82-.88Z"/><path class="cls-1" d="M223.67,344.74A6,6,0,0,1,225,345a2.73,2.73,0,0,1,0,.86h-4.34a2.56,2.56,0,0,1,.26-.81,7.08,7.08,0,0,1,1.15-.34v-6.39h-1.32a2.08,2.08,0,0,1,.33-1,4.43,4.43,0,0,1,1.5-.26,3.18,3.18,0,0,1,.85.11v1.32h.18a3.23,3.23,0,0,1,2.91-1.53c1.43,0,2.7.44,2.7,3.24,0,1.51,0,3-.11,4.52a7.33,7.33,0,0,1,1.46.23,2.29,2.29,0,0,1,.06.56,1.46,1.46,0,0,1,0,.3h-4.29a2.56,2.56,0,0,1,.26-.81,6.54,6.54,0,0,1,1-.34v-4.21c0-1.39-.44-2.27-1.7-2.27a3.22,3.22,0,0,0-2.26,1.15Z"/><path class="cls-1" d="M17.49,368.76a2.89,2.89,0,0,0,2.94,3.12,8.3,8.3,0,0,0,2.53-.5,1.9,1.9,0,0,1-.23,1,6.27,6.27,0,0,1-2.86.74c-2.58,0-4.07-1.93-4.07-4.41,0-2.65,1.65-4.75,4.18-4.75,2.17,0,3.09,1.56,3.09,3.83a7.66,7.66,0,0,1-.05.95Zm4-1c.13-1.24-.23-2.75-1.75-2.75-1.28,0-2.12,1.11-2.22,2.75Z"/><path class="cls-1" d="M24.43,365.29a2.18,2.18,0,0,1,.31-1,5.22,5.22,0,0,1,1.64-.26,3.91,3.91,0,0,1,.94.11v7.38a7.54,7.54,0,0,1-2.75,5.57,1.86,1.86,0,0,1-.86-.71,6.28,6.28,0,0,0,2-4.41v-6.73Zm3.16-4.2a1,1,0,0,1-1,1.07.94.94,0,0,1-1-1.07,1,1,0,0,1,1-1A.93.93,0,0,1,27.59,361.09Z"/><path class="cls-1" d="M31.34,368.76a2.89,2.89,0,0,0,2.95,3.12,8.43,8.43,0,0,0,2.53-.5,2,2,0,0,1-.24,1,6.24,6.24,0,0,1-2.86.74c-2.58,0-4.06-1.93-4.06-4.41,0-2.65,1.64-4.75,4.17-4.75,2.17,0,3.09,1.56,3.09,3.83a7.66,7.66,0,0,1-.05.95Zm4-1c.12-1.24-.24-2.75-1.76-2.75-1.28,0-2.11,1.11-2.22,2.75Z"/><path class="cls-1" d="M44.09,365.29A2.37,2.37,0,0,0,43,365c-1.56,0-2.68,1-2.68,3.38s1.19,3.5,2.82,3.5a8,8,0,0,0,2.23-.43,2.15,2.15,0,0,1-.26,1,6.28,6.28,0,0,1-2.67.65c-2.34,0-3.84-1.87-3.84-4.39,0-2.79,1.79-4.77,4.43-4.77a4.41,4.41,0,0,1,2.37.64c0,.18,0,.47,0,.65a4.35,4.35,0,0,1-.25,1.53,3.13,3.13,0,0,1-1.14-.23Z"/><path class="cls-1" d="M53.38,365.29h-1.3a2.07,2.07,0,0,1,.32-1,4.68,4.68,0,0,1,1.63-.26,3.74,3.74,0,0,1,.92.11v6.27a5.25,5.25,0,0,0,.15,1.28h1.37a1,1,0,0,1,0,.23,2.3,2.3,0,0,1-.14.72,10.46,10.46,0,0,1-2.48.36,3.62,3.62,0,0,1-.36-1.42h-.09a3.22,3.22,0,0,1-2.88,1.51c-1.41,0-2.66-.45-2.66-3.24,0-1.51,0-3.1.09-4.61H46.6a2.21,2.21,0,0,1,.33-.94,4.89,4.89,0,0,1,1.64-.27,3.74,3.74,0,0,1,.92.11v5.46c0,1.37.44,2.25,1.67,2.25a3.13,3.13,0,0,0,2.22-1.1Z"/><path class="cls-1" d="M59,362.09a3.12,3.12,0,0,1,1.21-.29v2.48h2.62a4.32,4.32,0,0,1,0,1.05H60.2v4.95c0,1.17.16,1.67,1.17,1.67a7.28,7.28,0,0,0,1.68-.23,1.06,1.06,0,0,1,0,.23,1.6,1.6,0,0,1-.18.7,5.75,5.75,0,0,1-2.22.49c-1.39,0-2.1-.76-2.1-2.61,0-1.06,0-3.39.09-5.2H57.41a2.75,2.75,0,0,1,.22-.94,5.59,5.59,0,0,1,1-.32Z"/><path class="cls-1" d="M69.26,371.77a2.79,2.79,0,0,1-2.53,1.37,2.36,2.36,0,0,1-2.57-2.41c0-1.86,1.57-2.81,3.36-2.81a4.66,4.66,0,0,1,1.68.3v-1c0-1.33-.58-2-1.71-2a5.75,5.75,0,0,0-2.64.88,1.42,1.42,0,0,1-.1-.61,2.1,2.1,0,0,1,.2-.9,7.31,7.31,0,0,1,3-.63c2,0,2.84.95,2.84,3.42v3.49a1.6,1.6,0,0,0,.24.94,5.51,5.51,0,0,0,1.24-.22.71.71,0,0,1,0,.2,1.89,1.89,0,0,1-.18.81,4.64,4.64,0,0,1-2,.52,1.91,1.91,0,0,1-.76-1.37Zm0-2.75a5.87,5.87,0,0,0-1.26-.15c-1.41,0-2.21.63-2.21,1.59a1.46,1.46,0,0,0,1.65,1.44,2.27,2.27,0,0,0,1.82-.88Z"/><path class="cls-1" d="M79.4,360.88H78.1a2,2,0,0,1,.33-1,5.41,5.41,0,0,1,1.62-.25,3.89,3.89,0,0,1,.93.11v10.68a4.83,4.83,0,0,0,.14,1.28h1.36a1.93,1.93,0,0,1,0,.23,2.3,2.3,0,0,1-.14.72,9.94,9.94,0,0,1-2.44.36,3.09,3.09,0,0,1-.36-1.3h-.09a2.94,2.94,0,0,1-2.72,1.39c-1.57,0-3.36-1.08-3.36-4.34,0-2.9,1.79-4.82,4.38-4.82a3.15,3.15,0,0,1,1.64.43Zm0,4.43a4.67,4.67,0,0,0-1.5-.25c-2,0-2.89,1.4-2.89,3.49s1,3.37,2.33,3.37a2.39,2.39,0,0,0,2.06-1.08Z"/><path class="cls-1" d="M92,368.42c0,3-1.61,4.72-4.1,4.72s-4.13-1.62-4.13-4.72c0-2.75,1.78-4.44,4.13-4.44S92,365.56,92,368.42Zm-4.1,3.64c1.66,0,2.46-1.4,2.46-3.64,0-1.92-1-3.38-2.46-3.38s-2.48,1.35-2.48,3.38C85.37,370.62,86.31,372.06,87.85,372.06Z"/><path class="cls-1" d="M102.87,365.29a2.31,2.31,0,0,0-1.05-.27c-1.55,0-2.67,1-2.67,3.38s1.19,3.5,2.82,3.5a7.94,7.94,0,0,0,2.22-.43,2.13,2.13,0,0,1-.25,1,6.33,6.33,0,0,1-2.68.65c-2.33,0-3.83-1.87-3.83-4.39,0-2.79,1.79-4.77,4.43-4.77a4.44,4.44,0,0,1,2.37.64c0,.18,0,.47,0,.65a4.35,4.35,0,0,1-.26,1.53,3.18,3.18,0,0,1-1.14-.23Z"/><path class="cls-1" d="M114.08,368.42c0,3-1.6,4.72-4.1,4.72s-4.12-1.62-4.12-4.72c0-2.75,1.77-4.44,4.12-4.44S114.08,365.56,114.08,368.42Zm-4.1,3.64c1.66,0,2.46-1.4,2.46-3.64,0-1.92-1-3.38-2.46-3.38s-2.48,1.35-2.48,3.38C107.5,370.62,108.44,372.06,110,372.06Z"/><path class="cls-1" d="M118.62,371.74a5.81,5.81,0,0,1,1.32.23,2.46,2.46,0,0,1,0,.86h-4.34a2.82,2.82,0,0,1,.25-.81,7.2,7.2,0,0,1,1.16-.34v-6.39h-1.32a2.08,2.08,0,0,1,.33-1,4.43,4.43,0,0,1,1.5-.26,3.3,3.3,0,0,1,.85.11v1.32h.18A3.22,3.22,0,0,1,121.5,364c1.43,0,2.69.44,2.69,3.24,0,1.51,0,3-.11,4.52a7.44,7.44,0,0,1,1.47.23,2.33,2.33,0,0,1,0,.56,2.91,2.91,0,0,1,0,.3H121.3a2.82,2.82,0,0,1,.25-.81,6.9,6.9,0,0,1,1-.34v-4.21c0-1.39-.43-2.27-1.7-2.27a3.22,3.22,0,0,0-2.26,1.15Z"/><path class="cls-1" d="M135.55,371.77a2.79,2.79,0,0,1-2.53,1.37,2.36,2.36,0,0,1-2.57-2.41c0-1.86,1.57-2.81,3.36-2.81a4.75,4.75,0,0,1,1.69.3v-1c0-1.33-.58-2-1.72-2a5.75,5.75,0,0,0-2.64.88,1.6,1.6,0,0,1-.09-.61,2,2,0,0,1,.2-.9,7.26,7.26,0,0,1,2.94-.63c2,0,2.84.95,2.84,3.42v3.49a1.6,1.6,0,0,0,.24.94,5.68,5.68,0,0,0,1.25-.22,1.41,1.41,0,0,1,0,.2,1.89,1.89,0,0,1-.18.81,4.64,4.64,0,0,1-1.95.52,1.91,1.91,0,0,1-.76-1.37Zm0-2.75a5.87,5.87,0,0,0-1.26-.15c-1.41,0-2.21.63-2.21,1.59a1.46,1.46,0,0,0,1.65,1.44,2.27,2.27,0,0,0,1.82-.88Z"/><path class="cls-1" d="M142.4,365.9a2.42,2.42,0,0,1,2.35-1.92,2.62,2.62,0,0,1,.82.14,2.58,2.58,0,0,1,.18,1.57,2.5,2.5,0,0,0-1.23-.31,2.24,2.24,0,0,0-2.08,1.48v4.82a8.89,8.89,0,0,1,1.79.33,2.76,2.76,0,0,1,0,.82h-4.81a2.31,2.31,0,0,1,.25-.81,6.91,6.91,0,0,1,1.16-.34v-6.39h-1.32a2,2,0,0,1,.32-1,4.61,4.61,0,0,1,1.5-.26,3.18,3.18,0,0,1,.85.11v1.71Z"/><path class="cls-1" d="M149.69,371.74A5.91,5.91,0,0,1,151,372a3.05,3.05,0,0,1,0,.86h-4.34A2.31,2.31,0,0,1,147,372a7.2,7.2,0,0,1,1.16-.34v-6.39H146.8a2.07,2.07,0,0,1,.32-1,4.43,4.43,0,0,1,1.5-.26,3.18,3.18,0,0,1,.85.11v1.32h.18a3.19,3.19,0,0,1,2.86-1.53,2.14,2.14,0,0,1,2.41,1.63H155a3.16,3.16,0,0,1,2.91-1.63c1.41,0,2.66.44,2.66,3.24,0,1.53,0,3-.11,4.52a7.33,7.33,0,0,1,1.46.23,2.29,2.29,0,0,1,.06.56,1.46,1.46,0,0,1,0,.3h-4.29a2.56,2.56,0,0,1,.26-.81,6.54,6.54,0,0,1,1-.34v-4.21c0-1.39-.42-2.27-1.67-2.27a3.15,3.15,0,0,0-2.2,1.15v5.37a6,6,0,0,1,1.32.25,2.73,2.73,0,0,1,0,.86h-4.17a2.31,2.31,0,0,1,.25-.81,6.54,6.54,0,0,1,1-.34v-4.21c0-1.39-.42-2.27-1.66-2.27a3.12,3.12,0,0,0-2.21,1.15Z"/><path class="cls-1" d="M168.22,371.77a2.78,2.78,0,0,1-2.53,1.37,2.35,2.35,0,0,1-2.56-2.41c0-1.86,1.57-2.81,3.36-2.81a4.66,4.66,0,0,1,1.68.3v-1c0-1.33-.58-2-1.72-2a5.83,5.83,0,0,0-2.64.88,1.6,1.6,0,0,1-.09-.61,2,2,0,0,1,.2-.9,7.31,7.31,0,0,1,3-.63c2,0,2.84.95,2.84,3.42v3.49a1.69,1.69,0,0,0,.23.94,5.58,5.58,0,0,0,1.25-.22.71.71,0,0,1,0,.2,1.89,1.89,0,0,1-.18.81,4.64,4.64,0,0,1-1.95.52,1.88,1.88,0,0,1-.76-1.37Zm0-2.75a5.88,5.88,0,0,0-1.27-.15c-1.41,0-2.2.63-2.2,1.59a1.46,1.46,0,0,0,1.64,1.44,2.27,2.27,0,0,0,1.83-.88Z"/><path class="cls-1" d="M182.08,360.88h-1.3a2,2,0,0,1,.32-1,5.48,5.48,0,0,1,1.63-.25,3.8,3.8,0,0,1,.92.11v10.68a5.29,5.29,0,0,0,.14,1.28h1.36a1,1,0,0,1,0,.23,2.05,2.05,0,0,1-.15.72,9.94,9.94,0,0,1-2.44.36,3.24,3.24,0,0,1-.36-1.3h-.09a2.92,2.92,0,0,1-2.71,1.39c-1.57,0-3.36-1.08-3.36-4.34,0-2.9,1.79-4.82,4.37-4.82a3.16,3.16,0,0,1,1.65.43Zm0,4.43a4.62,4.62,0,0,0-1.5-.25c-2,0-2.89,1.4-2.89,3.49s1,3.37,2.33,3.37a2.39,2.39,0,0,0,2.06-1.08Z"/><path class="cls-1" d="M188.08,368.76a2.9,2.9,0,0,0,2.95,3.12,8.43,8.43,0,0,0,2.53-.5,1.83,1.83,0,0,1-.24,1,6.23,6.23,0,0,1-2.85.74c-2.59,0-4.07-1.93-4.07-4.41,0-2.65,1.64-4.75,4.18-4.75,2.17,0,3.09,1.56,3.09,3.83a7.69,7.69,0,0,1-.06.95Zm4-1c.13-1.24-.24-2.75-1.76-2.75-1.28,0-2.11,1.11-2.22,2.75Z"/><path class="cls-1" d="M204.23,364.28a8.27,8.27,0,0,1,.09,1.05h-2.46v6.35a10.55,10.55,0,0,1,1.79.33,2.76,2.76,0,0,1,0,.82h-4.81a2.31,2.31,0,0,1,.25-.81,6.91,6.91,0,0,1,1.16-.34v-6.35h-1.43a2.86,2.86,0,0,1,.22-.94,7.66,7.66,0,0,1,1.21-.32v-1c0-2.43,1.48-3.4,3.18-3.4a6.74,6.74,0,0,1,2,.31,3,3,0,0,1,.05.61,5.13,5.13,0,0,1-.25,1.58,2.35,2.35,0,0,1-1.07-.29v-1.2a1.31,1.31,0,0,0-.57-.13c-1,0-1.74.49-1.74,2.34v1.37Z"/><path class="cls-1" d="M211.53,365.29h-1.3a2.08,2.08,0,0,1,.33-1,4.58,4.58,0,0,1,1.62-.26,3.83,3.83,0,0,1,.93.11v6.27a5.23,5.23,0,0,0,.14,1.28h1.37a1,1,0,0,1,0,.23,2.3,2.3,0,0,1-.14.72,10.39,10.39,0,0,1-2.48.36,3.8,3.8,0,0,1-.36-1.42h-.09a3.21,3.21,0,0,1-2.87,1.51c-1.42,0-2.66-.45-2.66-3.24,0-1.51,0-3.1.09-4.61h-1.38a2.36,2.36,0,0,1,.33-.94,4.93,4.93,0,0,1,1.64-.27,3.83,3.83,0,0,1,.93.11v5.46c0,1.37.43,2.25,1.66,2.25a3.13,3.13,0,0,0,2.22-1.1Z"/><path class="cls-1" d="M217.72,368.76a2.89,2.89,0,0,0,2.95,3.12,8.43,8.43,0,0,0,2.53-.5,2,2,0,0,1-.24,1,6.23,6.23,0,0,1-2.85.74c-2.59,0-4.07-1.93-4.07-4.41,0-2.65,1.64-4.75,4.17-4.75,2.17,0,3.09,1.56,3.09,3.83a7.66,7.66,0,0,1-.05.95Zm4-1c.12-1.24-.24-2.75-1.76-2.75-1.28,0-2.11,1.11-2.22,2.75Z"/><path class="cls-1" d="M226.38,372.65a1.3,1.3,0,0,1-.87-1.27,1.88,1.88,0,0,1,1-1.54v-.08a2.85,2.85,0,0,1-1.16-2.56,3.19,3.19,0,0,1,3.47-3.22,4,4,0,0,1,2,.5,4.42,4.42,0,0,1,1.76-.34,2.33,2.33,0,0,1,.78.11,5.13,5.13,0,0,1,.14,1.08h-1.79a3.21,3.21,0,0,1,.52,1.87c0,2-1.3,3.2-3.45,3.2a4.78,4.78,0,0,1-1.46-.19,1.06,1.06,0,0,0-.28.73c0,.71,1,.83,2.63.83,2.09,0,3.7.45,3.7,2.38,0,2.16-2.09,3.22-4.53,3.22-2.14,0-4.07-.88-4.07-2.7a2.06,2.06,0,0,1,1.57-1.93Zm0,1.8c0,1.26,1.46,1.89,2.8,1.89s2.76-.63,2.76-1.85c0-.9-.68-1.35-2.54-1.35a10.34,10.34,0,0,1-2.07-.18A1.58,1.58,0,0,0,226.33,374.45Zm2.49-5c1.25,0,1.85-.88,1.85-2.25S230,365,228.82,365s-1.88.83-1.88,2.25S227.65,369.45,228.82,369.45Z"/><path class="cls-1" d="M243,368.42c0,3-1.61,4.72-4.1,4.72-2.64,0-4.12-1.62-4.12-4.72,0-2.75,1.77-4.44,4.12-4.44S243,365.56,243,368.42Zm-4.1,3.64c1.66,0,2.46-1.4,2.46-3.64,0-1.92-1-3.38-2.46-3.38s-2.48,1.35-2.48,3.38C236.45,370.62,237.39,372.06,238.93,372.06Z"/><path class="cls-1" d="M247.16,371.86a1.07,1.07,0,0,1-1.12,1.19,1,1,0,0,1-1.16-1.19,1.09,1.09,0,0,1,1.16-1.1A1,1,0,0,1,247.16,371.86Z"/><path class="cls-2" d="M28.94,3.13v3.1c.24,0,.44,0,.63,0H39.69l21.05,0H75.56l13.2,0c.92,0,.92,0,.77.86.33.14.5,0,.67-.28a6.54,6.54,0,0,1,9-2.52,19,19,0,0,1,1.91,1.6,1.63,1.63,0,0,0,.72.33,6.56,6.56,0,0,0,4-.61.56.56,0,0,1,.42,0A2.37,2.37,0,0,1,107,9.59c-.54.5-1.09,1-1.65,1.5a1.94,1.94,0,0,0-.65,2c0,.2.06.4.1.6.41,1.92.41,1.92,2,3.12,1,.82,2.09,1.65,3.14,2.46a.51.51,0,0,0,.32.08A9.48,9.48,0,0,0,116,17c.19-.18.61-.12.92-.17a2.41,2.41,0,0,1,0,.8A10.19,10.19,0,0,1,111.05,24a3.79,3.79,0,0,0-2.43,3.32,14.67,14.67,0,0,0,2,9.13c.42.71.29,1.41-.35,1.66a4.43,4.43,0,0,1-1,.17l-1.21.1,1.59,3.74,6.75,16c.14.31.2.71.44.89s.59,0,.94,0a14.06,14.06,0,0,1,0,1.72,1.59,1.59,0,0,1-1.61,1.4l-13.18.72c-2.16.12-4.31.27-6.46.36a10.53,10.53,0,0,1-1.94-.18.77.77,0,0,1-.46-.46q-1.7-4.82-3.35-9.64c-1.39-4-2.81-8-4.16-12a8.72,8.72,0,0,0-3.39-4.7,9.22,9.22,0,0,0-4.53-1.42c-3.15-.26-6.32-.48-9.46-.84A7.46,7.46,0,0,1,63,28.77a9.07,9.07,0,0,0-1.08-2.84A4.53,4.53,0,0,0,58.07,24H33.53c-.45,0-.6-.12-.58-.57,0-.75,0-1.51,0-2.32H22a1.46,1.46,0,0,1-1.64-1.61c0-.25,0-.51,0-.76a1.84,1.84,0,0,0-.68-1.84A2.76,2.76,0,0,1,19,14.65a23.73,23.73,0,0,1,0-2.53,2.65,2.65,0,0,1,1.09-2,.84.84,0,0,0,.26-.54c0-.57,0-1.14,0-1.71A1.42,1.42,0,0,1,22,6.27h.3c.36,0,.53,0,.58-.47a2.76,2.76,0,0,1,2.38-2.4l.45-.06ZM73.43,28.18a5.7,5.7,0,0,0-2.88-4.75.75.75,0,0,0-.47-.07,7.88,7.88,0,0,0-3.48,1.41,4,4,0,0,0-.94,5.92,7.07,7.07,0,0,0,4.55,2.37.48.48,0,0,0,.28-.08A5.79,5.79,0,0,0,73.43,28.18ZM105.37,9.72a1.6,1.6,0,1,0-1.59-1.61A1.62,1.62,0,0,0,105.37,9.72Z"/><path class="cls-2" d="M22.29,79l28.43,2.6,36.22,3.28c.22,0,.53,0,.65-.09a4.51,4.51,0,0,1,3.23-1.17,95.54,95.54,0,0,1,9.72-.06c6.22.44,12.42,1.13,18.62,1.76a3.13,3.13,0,0,1,1.63.77,25,25,0,0,1,2.32,2.5,5,5,0,0,0,4.48,2,15,15,0,0,0,3.81-1.17c1.06-.42,2-1.08,3-1.54a3.94,3.94,0,0,1,3.64.16c.23.14.33.49.5.74a2.29,2.29,0,0,1-.68.4A7.84,7.84,0,0,0,132,93.25a6,6,0,0,1-2.62,2.53.94.94,0,0,0-.37.66q-.25,3.63-.44,7.26a.84.84,0,0,0,.3.68,6.69,6.69,0,0,1,3.12,4,1.59,1.59,0,0,0,1.61,1.22c8.26.8,14.59,4.66,18.69,12a75.18,75.18,0,0,1,5.17,12.57c1.17,3.39,2.36,6.79,3.73,10.11.91,2.21,2.14,4.29,3.21,6.44a10.16,10.16,0,0,1,.35,1c-.32,0-.49,0-.66,0l-16.67-.8c-3.66-.18-7.31-.37-11-.53-.7,0-1-.27-.7-1,.21-.51.34-1,.53-1.58,1.31-3.68,2.42-7.41,2.06-11.39-.53-5.92-3.28-10.3-8.93-12.56-2.85-1.14-4.68-.63-6.62,1.72-.85,1-1.63,2.14-2.45,3.21a5.34,5.34,0,0,1-4,2.14,17.23,17.23,0,0,1-11.45-3.11,3.75,3.75,0,0,1-1.77-3.51c0-.73,0-1.47.12-2.19.24-2,.16-3.82-1.43-5.27a.54.54,0,0,1-.15-.22c-.27-1.11-1.19-1.35-2.1-1.57-1.54-.37-3.09-.66-4.62-1.07a1.18,1.18,0,0,1-.73-.75c-.06-.54-.38-.65-.77-.78l-1.66-.56a3.94,3.94,0,0,1-2.94-3.56A21,21,0,0,0,86.67,101a4.12,4.12,0,0,1-.4-1.51c-.1-1.15-.21-1.33-1.39-1.5s-2.21-.26-3.31-.38c-.74-.08-1.34-.28-1.22-1.23l-35.64-4c-.09,1.11-.14,2-.25,2.9A1.28,1.28,0,0,1,43,96.59a1.23,1.23,0,0,1-1.38-1.25c-.11-1-.19-1.91-.28-3l-.85-.07c-1.31-.14-2.64-.2-3.93-.43-1.54-.26-1.52-.32-1.63-1.87a3,3,0,0,0-.09-.45c-.24,0-.47-.08-.7-.1L17.93,87.72c-2.85-.31-5.71-.61-8.55-1a1.25,1.25,0,0,1-.9-.62,10.72,10.72,0,0,1,.17-7,2,2,0,0,1,1.28-1,14.42,14.42,0,0,1,2.18,0,1.5,1.5,0,0,0,.81-.41,11.77,11.77,0,0,1,1.77-1.76,7.6,7.6,0,0,1,5.64-.52,1,1,0,0,1,.57.67c.19.88.28,1.77.44,2.83ZM117.4,122.2c0,.61,0,1.23-.07,1.84-.16,1.92-.47,2.51-2.29,3.9a7,7,0,0,1,.36-2c1.27-2.52.15-4.93-.21-7.37a.6.6,0,0,0-.32-.38c-3.87-1.74-8.33-.43-9.82,3.41a4.56,4.56,0,0,0,1.81,5.7,12.73,12.73,0,0,0,10,1.65c3.86-.9,5.08-6.63,2.49-9.15a12.19,12.19,0,0,0-1.67-1.19C117.59,119.94,117.48,121.07,117.4,122.2Z"/><path class="cls-2" d="M147.63,10.89a5.61,5.61,0,0,1,2,1c1.33,1,2.3,1.32,3.76-.14.88-.88,2.85,1.43,4.14-.42a1.76,1.76,0,0,1,.74-.67c1.51-.62,3-1.67,4.58-1.67,12.2-.05,24.4.1,36.59.22a5.55,5.55,0,0,1,1.64.47,7.45,7.45,0,0,0,2.13.72q17.38.07,34.77,0a6.11,6.11,0,0,0,1.94-.66c1.18-.43,2.49-1.43,3.51-1.19,1.61.39,3,1.57,4.49,2.52.28.18.31.85.34,1.3.05.8,0,1.62,0,2.42.14,1.84-.7,2.58-2.51,2.51s-3.71,0-5.53,0c-.21,2.9-.42,3.09-3.07,3.1H205.82c-3.7,0-3.86.11-5,3.77a8,8,0,0,0-.32,1.16c-.38,2.64-.73,5.29-1.14,8.27-2.46,0-5.08.08-7.68,0a2.85,2.85,0,0,0-3.13,2c-.68,1.82-1.33,3.65-1.86,5.51a13.34,13.34,0,0,1-13.78,9.86c-6.18-.32-9.79-3.45-11-9.47-.13-.66-.33-1.3-.49-1.95-.49-2-1.94-2.82-3.75-3.22a3.59,3.59,0,0,0-4.11,1.89,9.62,9.62,0,0,0-1.54,4.65,131.82,131.82,0,0,0,1.35,13.44c.68,4.51,1.71,9,2.55,13.47.48,2.57,0,3.51-2.6,3.57-7.27.2-14.55.33-21.81.18-3.62-.07-4.66-1.26-4.31-4.85.54-5.61,1.43-11.19,2.31-16.76,1.05-6.65,2.78-13.1,7.6-18.13,3.1-3.24,5.48-6.65,4.88-11.42a1.5,1.5,0,0,1,.25-1.15c.75-.66,1.63-1.71,2.42-1.68,1.71.08,3.24.48,3.38-2a.83.83,0,0,1,.53-.55c1.41-.38,1.62-1.34,1.15-2.49s-1.3-2.22-2.88-2a14.6,14.6,0,0,1-1.5,0C145.68,10.94,146.53,10.6,147.63,10.89Zm31.26,34.47-.32.41a4,4,0,0,1-1.29,0,6.62,6.62,0,0,1-4.12-4.66c-.49-1.52-.85-2.93-2.79-3.2-.52-.07-1-.68-1.53-1.11-2.26.94-4.31,2.06-4.35,5a6.9,6.9,0,0,0,4.31,6,12,12,0,0,0,14.38-4.12c2.5-3.58.54-8.79-3.51-8.73a26.83,26.83,0,0,1-3.48-.38C173.18,39.38,174.13,42.88,178.89,45.36Z"/><path class="cls-2" d="M251,82.14c-2,1-4.78.48-6,3-.07.14-.38.17-.57.24l-5.06,1.82c-6,2.13-11.93,4.22-17.88,6.38-2.73,1-4.54,3.15-4.22,5.3s1.1,4.48,1.6,6.74a2.2,2.2,0,0,1-.14,1.63,19.26,19.26,0,0,1-10.41,7.32,63.13,63.13,0,0,1-9.35,1.25c-2.63.26-4.37,1.61-4.45,4.21a150,150,0,0,0,0,15.44c.22,3,1.48,6,2.32,9,.71,2.53.27,3.31-2.17,4.12a66.58,66.58,0,0,1-16.44,3,3.35,3.35,0,0,0-1.84.62c-2,1.76-3.79,1.67-5.85-.11-3.42-2.93-4.39-6.7-4-11,.44-4.93,1-9.85,1.5-14.77.38-3.78.83-7.55,1.07-11.33.19-3-1.4-4.45-4.33-4.25-1.63.11-3.23.52-4.86.62a2.5,2.5,0,0,1-1.83-.72c-1.07-1.2-.81-2,.57-2.88,2-1.39,3.87-3,4.46-5.52a6.85,6.85,0,0,0-1.4-6.64,4.3,4.3,0,0,1-.87-1.84c-.43-1.72.57-3.13,2.06-2.59,2.1.76,3.31,0,4.46-1.54a3.42,3.42,0,0,1,1.09-.91,3,3,0,0,0,1.7-2.56c.06-.49.87-1.07,1.45-1.25a1.62,1.62,0,0,1,1.47.59c.63,1.14,1.36,1.11,2.46.77,6.3-1.94,12.62-3.82,18.93-5.71.49-.14,1.36-.38,1.46-.22.61,1,1.32.41,1.94.22,4.4-1.29,8.8-2.62,13.19-3.94l27.73-8.34c.68-.2,1.37-.25,1.43-1.32.12-2,1.08-2.89,3.06-2.75a16.88,16.88,0,0,1,3.11,1,4.43,4.43,0,0,0,2,.28c2.5-.6,2.49-.65,3.61,1.71a8.35,8.35,0,0,1,.46,1.17c.91,3,.68,3.47-2.16,4.57-.08,0-.14.15-.11.12l2.15,8.57C251.71,81.88,251.36,82,251,82.14Zm-46.59,18.23c-1.91.58-2.15,1-1.64,2.92a5.05,5.05,0,0,0,2.95,3.31c1.19.56,2.45,1,3.65,1.51.33.15.76.56.75.85s-.45.67-.78.81a5.43,5.43,0,0,1-5.87-1.08c-1-.83-2.28-1.4-3.24-2.3a4,4,0,0,1-1-2.19c-.2-1.42-.93-1.55-2.09-1.24a4.81,4.81,0,0,0-3.23,6.63c.4.84,1.59,1.3,2,2.14.75,1.63,1.87,1.66,3.41,1.54,3.7-.28,7.44-.48,10.7-2.39a17.78,17.78,0,0,0,4.55-4,4.9,4.9,0,0,0,0-6A5,5,0,0,0,209,99c-.92.23-1.82.54-2.73.81h0Z"/><path class="cls-3" d="M106.85,37.2c.15.27,4.8-2.77,4.8-2.77s-1.77,1.71-1.77,1.71l.79-.46"/><path class="cls-3" d="M105.23,4.49s.57-.72.74-.42c0,.06,1,1.64,1,1.72l.63-.37a15.71,15.71,0,0,1-.84,1.64s.17-.18.2-.12-.38.26-.38.26c.09.16,1-.55,1-.55"/><path class="cls-3" d="M70.32,20.75,101.65,2.66c4,7-33.23,16.21-31.16,19.81.94,1.63,28.83-24,32-18.49L71,23.16c2.3,4,31.22-18,31.22-18C102.91,6.35,70,16.71,73.83,23.33c0,0,25.88-21.41,28.68-16.56,4,6.9-34.06,9.22-29.3,17.46,3.19,5.52,27.88-20.17,29.65-17.11L73.29,24.68c3.52,6.1,29.49-17.2,29.56-17.07L73.14,26.27c.12.22,28.19-24.61,31.8-18.36,0,0-32.66,16-30.56,19.6C76.05,30.39,104.49,9.06,105,9.86S68.78,23.76,72,29.37c.63,1.09,32.5-18.77,32.5-18.77L70.28,31c3,5.11,31.59-24.6,34.34-19.83"/><path class="cls-3" d="M91.9,3l1.39-.8s-3,1.94-2.68,2.52C91.31,5.9,97.08,1,97.08,1"/><path class="cls-3" d="M22.3,4s.58-.33.58-.33S21.82,4.63,22,5c0,0,7.47-5.54,8-4.62,0,0-10.52,4.56-9.57,6.19,1.41,2.44,8-6,8.6-5,0,0-11,5.49-10.2,6.79C19.4,9.3,30,1.18,30.35,1.72c1,1.74-10.3,7.91-10.3,7.91.51.89,7.27-8.06,9-5.16L19,10.66C20.15,12.61,31.25,3.6,31.25,3.6c1.25,2.17-12.55,8-12.55,8,1.89,3.28,13.62-9.14,14.17-8.18,1.28,2.21-12.72,8.22-12.72,8.22C21,13.12,33.48,4,33.48,4S17.11,10.69,19.08,14.1C20.34,16.28,35.2,4.79,35.2,4.79S18,12.61,19.89,15.91C21.53,18.76,41,3.72,41,3.72S17.9,11,21,16.44C21.14,16.63,42.64,4,42.64,4L21.46,17.31c.17.29,23.88-13.79,23.88-13.79C46.63,5.76,22,19,22,19L47.26,4.42S24.18,17.65,24.87,18.85c1.4,2.43,21.88-19.31,24.77-14.3,1.74,3-24.8,15.32-24.8,15.32L50.49,5.06c.51.87-20.11,13.19-20.11,13.19C34.35,25.13,52,.74,54.19,4.51c3,5.2-22.55,14-22.55,14S54.26,3.14,55.26,4.89c.33.55-22.58,14.76-22.58,14.76C33.28,20.7,58,4,58.44,4.78c3.22,5.58-27.24,11.46-24.61,16,4.27,7.38,28-16.19,28-16.19L34.54,21.45S64.42,2.94,65,3.89,33.28,22.83,33.28,22.83L65.52,4.22c2.1,3.64-28.42,18-28.42,18,2.31,4,26.75-21.85,29.52-17,1.43,2.47-30.05,12.22-27.78,16.15C40.68,24.54,68.9,4,68.9,4L41,22.09C45,29,73.29,3.48,73.29,3.48c1,1.76-31.11,18.38-31.11,18.38.87,1.49,31.25-18,31.25-18s-32.06,14.28-30,17.89c0,0,26.3-25.08,30.59-17.66.55,1-32.42,9.71-27.66,18C49.17,26.82,74.15,1.22,76.21,4.79c4.2,7.28-27.66,16.36-27.1,17.32L79,4.89S52.63,21.77,52.82,22.11c3.3,5.71,32-18.45,32-18.45S52.84,20.92,53.38,21.86c.45.77,26.88-24.62,30.82-17.79C85.09,5.62,54,21.8,54.55,22.82c3.94,6.83,30.82-19,31.34-18.1S57.8,21.63,57.8,21.63L89.1,3.56c3,5.18-32.17,14.06-30,17.76,0,0,26.34-20.1,28.46-16.43L61.23,21.64c1.59,2.74,26.1-18.28,27.49-15.87,4.1,7.11-30,12.91-27.32,17.6,5,8.73,38.09-22,38.09-22S61.81,22.19,63.17,24.54c6.3,10.91,36.5-21.08,36.5-21.08,5,8.64-37.24,23.74-37.24,23.74s3.16-2.37,3.4-2c.48.84-2.8,1.71-2.37,2.46,0,0,1.23-1,1.34-.78s.42,1.29.48,1.38,1.33-1.19,1.51-.87c0,0-2.2,1.23-2,1.62,0,0,1.64-1,1.66-.95a9.06,9.06,0,0,0,0,2.14c.18.32,0-.4.2-.12a11.81,11.81,0,0,1,1.24,1.05c.2.36,1.11-1,1.26-.73,0,0-2.51,1.54-2.5,1.56s3.59-2.07,3.59-2.07l-1.51,1.94,1.35-.78.94.31L106.2,11.12,69.14,33C73.61,40.77,98.48,3.31,104,12.89c5.11,8.84-33.7,19.25-33.46,19.66,5.24,9.08,32.52-23.2,34.44-19.88l-29.15,19,30.34-17.52c2.95,5.11-29.79,17.49-29.79,17.49,3.34,5.79,30.89-17.84,30.89-17.84,4,7-35,9.53-30.15,17.93,1.77,3.06,24.73-21.91,28-16.19,0,0-28.81,13.65-27,16.73,2.3,4,29.47-17,29.47-17S78.17,32.35,78.33,32.62c4.42,7.65,29.81-17.21,29.81-17.21C108.85,16.64,78,33.28,78,33.28c3.65,6.33,29.53-17,29.53-17,2.71,4.69-27,16.47-27,16.47,4.33,7.5,22.67-24,27.4-15.82,0,0-30,11.6-26.74,17.24,0,0,28.08-21.53,30.38-17.54L81.52,35.12C85,41.18,114.27,14.48,115,15.78c3.34,5.78-34.3,14.75-31.68,19.28C84.54,37.15,116,16.22,116,16.22s-33.2,18.56-32.42,19.9c0,0,32.67-20.54,33.4-19.29,0,0-34.89,17.33-33.48,19.76.11.2,33.61-19.4,33.61-19.4s-36,12.9-31.76,20.27C86.19,39,105.63,18.63,108.71,24c3.78,6.55-23.15,12.3-21.86,14.54.61,1.06,22.85-13.2,22.85-13.2.74,1.29-24,13.65-22.92,15.52,2.83,4.9,23-13.25,23-13.25C113,33.29,85.53,41.2,86.55,43c0,0,21-12.34,21.11-12.19.66,1.13-18.65,11-18.35,11.55,1.3,2.24,21.22-12.25,21.22-12.25.21.37-24.88,12-23.75,14C89.22,48.27,109.4,31,109.4,31S89.77,43.88,90.06,44.37c0,0,17.55-14.56,19.46-11.24.75,1.3-24.67,7.76-21.68,12.95,0,0,19.75-17.78,22.51-13L87.87,47.31c1.79,3.11,22.95-13.25,22.95-13.25,3,5.12-24.37,10.77-22,14.93C91.59,53.73,107,38.51,107,38.51c1.91,3.31-15.6,9.6-15.6,9.6l17.27-10c1.46,2.53-17,11.67-17,11.67s16.39-10.31,16.76-9.68C111.26,45,89.61,51.2,89.61,51.2c2.53,4.4,19.55-13.4,20.47-11.81L91.91,51.11s14.64-14.42,17.22-10c0,0-18.79,8.53-17.45,10.84,0,0,16.92-11.35,17.6-10.16,2.68,4.63-18.61,5.95-16.48,9.65C95.43,56,110,38.93,111.16,40.89c.11.21-19.54,13.21-19.54,13.21l19.61-11.33c2.48,4.31-17.51,11.65-17.51,11.65s13.82-14.6,16.69-9.63C113,49.27,88.67,51.5,91.55,56.5l18.8-10.85c1.73,3-18.44,12.22-18.44,12.22s20.74-13.21,21.27-12.28-23,7.69-20.13,12.66c2,3.46,18.23-10.53,18.23-10.53s-16.72,10.9-16.72,10.9c.7,1.22,16.56-12.18,17.69-10.22,0,0-20,11.73-19.47,12.73,1.44,2.5,20.2-11.66,20.2-11.66,1.66,2.86-19.81,6.12-17.09,10.83,1.56,2.69,18.57-10.72,18.57-10.72l-21,12.18c2.62,4.55,21-12.15,21-12.15C115.85,52,95.62,60.67,95.62,60.67s19-11.89,19.39-11.2c0,0-22.75,7.37-19.8,12.49C97,65,114.4,50.88,114.4,50.88s-17.49,7.3-15.64,10.51l16.4-9.47s-14.74,7.17-14.11,8.27c.36.62,11.85-12.51,14.3-8.26,1.61,2.78-11.65,8.35-11.65,8.35,1.72,3,10.62-8.27,11.55-6.67,1.25,2.16-10.84,4.6-9.6,6.73,1.07,1.87,8.78-6,9.19-5.31,0,0-8.72,4.14-8.09,5.23l10.49-6.06c.16.26-8.24,6.12-7.91,6.68.65,1.14,6.73-5.52,7.44-4.3.21.37-6.85,3.78-6.64,4.16.63,1.07,4.19-4.29,5-2.89,0,0-4.66,1.83-4.09,2.82s6.6-3.81,6.6-3.81c.62,1.08-6.21,4.1-6.21,4.1.47.82,6.25-5,6.84-4,.46.81-5,4-5,4s5.6-3.24,5.6-3.24c.56,1-4.1,3-4,3.22s1.42-.82,1.42-.82"/><path class="cls-3" d="M23.62,2.3c.06.11,1-.64,1-.59.27.47-1.84,1.41-1.84,1.41l1.59-.92s-2.91,1.15-2.46,1.92l4.24-2.45c.52.91-4.65,3.1-4.65,3.1S28.05-.82,28.84.54"/><path class="cls-3" d="M124.41,122.79c2,3.48,14.82-12.16,16.37-9.46,1.4,2.41-15.09,5.78-12.92,9.53,0,0,15.32-9.72,15.7-9.07,1.9,3.29-15.48,8.3-14.43,10.11l15.25-8.8-15,9.36c2,3.5,16.2-9.86,16.42-9.48,2.37,4.11-17.29,10.27-17.29,10.27l17-9.83c1.09,1.89-16.07,7.45-14.66,9.89,0,0,13.2-13,15.54-9,0,0-18.25,6.69-16.3,10.07.56,1,15.92-9.19,15.92-9.19s-16.79,6.08-14.44,10.16c1.09,1.88,16.53-11.76,17.49-10.1l-17.74,10.36s14.66-13.91,17-9.83c.36.63-15.2,10.29-15.2,10.29s14.43-8.44,14.48-8.36l-14.89,9.39c.91,1.58,16.55-9.56,16.55-9.56s-16.52,10.15-16.19,10.72c0,0,14.6-11,15.71-9.07,0,0-16.34,7-15,9.36.79,1.36,14.9-14.17,17.31-10,2.92,5.06-16.89,11.48-16.89,11.48,1.09,1.89,13.66-13.23,16-9.23,2.13,3.69-18.76,5.55-16.39,9.67l17-9.83c2.22,3.85-13.82,9.91-13.82,9.91,2.13,3.68,15.7-9.06,15.7-9.06s-18.53,7.51-16.38,11.25l16.13-9.31s-18,9.77-17.71,10.32c1.79,3.1,17.66-13.32,19-11,.31.53-20.64,6.63-18,11.22,2.11,3.66,18.31-10.56,18.31-10.56l-18.43,12.37c.82,1.43,15.71-9.76,16-9.24,0,0-17.45,7.33-16,9.89L155,127.39c3,5.21-23.06,6.82-19.75,12.55,1.81,3.14,16.74-11.29,17.45-10.07l-16.86,12S151,126.22,154,131.38c2.11,3.66-18.88,8.45-17,11.68,0,0,14.18-14.66,17-9.8L133.2,147.43s20.54-19.1,23.67-13.67c1.37,2.37-22.42,12.68-22.18,13.09,2.64,4.58,18-16.47,20.64-11.92,0,0-23.66,13.63-22.69,15.31L156,136.75S134.18,148,135.42,150.14c.42.74,20.46-13.69,21.27-12.28,1.8,3.12-17.25,10-16.34,11.59,0,0,14.34-12.11,16-9.24,2.31,4-15.06,10.31-14.83,10.7,1.37,2.37,15-9.72,15.46-8.92,0,0-13,7.29-12.68,7.88.85,1.47,14.4-10.81,15.48-8.94.55,1-17.88,6.33-15.69,10.13,1.67,2.9,13.07-12.4,15.17-8.76l-12,8.79c1.8,3.12,9.57-9,11.08-6.39l-6.86,5.65,7.73-4.46c.52.9-8,4.68-8,4.68l8.67-5c.6,1.05-6.21,5-6.21,5l6.78-3.92-2.53,3.73c.42.71,4.45-3.25,4.75-2.74,0,.07-2.55,2.34-2.15,3s-.06-1,.38-.22a8,8,0,0,1,1.46,1s.35-.21.36-.2c.16.29-1.34.63-1.23.82l2.45-1.42"/><path class="cls-3" d="M106.35,118c3.23,5.59,19.66-17.88,22.49-13l-19.51,12.85c1.56,2.69,17.27-16.74,20.2-11.67,1.71,3-20.34,7.51-17.81,11.89.69,1.19,14.77-13,16.72-9.65,0,0-15.91,8.41-15.47,9.17.23.39,14.6-14,17-9.81,2,3.49-17.32,11-17.32,11l16.27-9.4c.75,1.3-17.17,6.37-15.53,9.21,0,0,14.89-12.26,16.48-9.51,1.46,2.53-17.62,10.46-17.62,10.46s16.54-13.76,18.36-10.6l-18.08,11.73s4.34-2.6,4.38-2.53l-4,4.22.93-.53a3,3,0,0,1,.1.33,20.67,20.67,0,0,1,2.46-1.42c.27.46-2.52,1.44-2.13,2.13l1.38-.8c.17.3-2.13,2.7-2.13,2.7.17.28,1.21-.7,1.21-.7s-3.4,2.76-2.83,3.74a23,23,0,0,0,2.31-1.33c.23.38-2.34,1.51-2.34,1.51s1.43-.83,1.43-.83-1.33.54-1.15.85c0,.07,2.46-1.41,2.46-1.41"/><path class="cls-3" d="M116.49,118l13.87-8c.07.13-13.51,8.89-13.51,8.89l16.73-9.66c.92,1.58-14.43,9.78-14.43,9.78,1.48,2.56,16.32-10.18,16.65-9.61,2.66,4.62-19.24,7.06-16.58,11.66l17.88-10.32c1.76,3-18.58,12.31-18.52,12.41s20.19-13.94,21.18-12.23c.52.9-23.65,9.12-21.1,13.54,0,0,20.05-13.47,20.87-12.05l-23.7,15.92,5.84-3.37c.18.32-6.61,2.83-6.15,3.61.29.52,6.5-3.75,6.5-3.75"/><path class="cls-3" d="M133.34,89.88l3.65-2.1c0,.07-.07.43-.07.43s.68-.66.8-.46"/><path class="cls-3" d="M41.87,92.81c.32.55,18.31-11.46,18.7-10.79.23.41-15.09,8.82-14.3,10.17,2.24,3.89,13.88-11,15.19-8.77,0,0-14.31,6.06-12.94,8.43,0,0,13.41-9.59,14.21-8.2l-16.13,10S63.78,82.52,64.32,83.46c.31.53-14,7.08-12.89,9C54.07,97,67.6,83.09,67.6,83.09s-20,5.43-17.3,10.12L68.78,82.54c2.64,4.58-19.32,8.77-17.79,11.4L70,83s-15.87,7-14.29,9.72c0,0,12-13.11,14.64-8.45,0,0-13.68,8.28-12.87,9.68.27.47,16.1-13,17.72-10.23,0,0-17,7.69-15.83,9.66l16.35-9.44L59.77,94.45c.07.11,18.89-10.91,18.89-10.91,1.38,2.39-15,10.52-15,10.52l18-10.4C84.33,88.23,64,93.18,64.58,94.28c0,0,16-14.26,18.14-10.48C84.5,86.87,66.46,94,66.46,94c1.26,2.18,14.93-14.1,17.3-10,.38.66-19.19,5.5-16.65,9.9,1.23,2.13,14.14-9.36,14.66-8.46C82.47,86.65,67.4,95,67.4,95L85,84.84C86.56,87.55,69.15,93.62,69.92,95c.23.41,18.75-10.83,18.75-10.83C90.5,87.28,69.49,96,69.49,96c.18.31,20.11-17.61,22.71-13.11,2.88,5-19.51,10.34-18.56,12,.6,1,20-14.17,21.16-12.22C98.25,88.65,74.68,96,74.68,96s19.83-13.54,20.74-12c.1.18-17.69,11.46-17.69,11.46,1.49,2.58,21.1-12.64,21.3-12.3,3.22,5.58-24.15,10.61-22.2,14L100,83.81c.89,1.53-20.28,12.71-20.25,12.76S100.47,81.19,102,83.77C105.14,89.29,78.23,98,78.23,98c3,5.22,23.24-13.42,23.24-13.42.26.46-22.12,13.52-22.12,13.52,3.85,6.67,25.52-14.73,25.52-14.73.9,1.56-23.28,11.47-21.81,14,0,0,23.41-14.37,23.78-13.73.79,1.37-22.37,14.56-22.37,14.56S106,78.92,108.94,84.1s-24.74,16-24.74,16c3.58,6.21,26.56-15.34,26.56-15.34L83.55,101.55C86.94,107.44,113,83.17,113.6,84.2c3.43,5.94-28.46,17.58-28.46,17.58,1.13,2,29.18-16.84,29.18-16.84.93,1.61-30.58,13.06-28,17.55l29.72-17.16c2,3.53-34.64,12.07-31.09,18.22l33.27-19.2S82.57,99.93,85.65,105.28c0,0,29.35-26.1,33.32-19.24L85.31,106.67l32.77-18.92c3.79,6.56-29.77,18.46-29.77,18.46s32.46-20.36,33.17-19.15c4.78,8.29-35.41,17-33.58,20.19,4.25,7.36,32.57-18.81,32.57-18.81,1.93,3.34-33,20-33,20l34.37-19.84c2.17,3.76-34.25,21.25-34.25,21.25s32.14-28.26,36.35-21c0,0-41.54,11.61-35.63,21.86,1.18,2,35.49-20.49,35.49-20.49s-41.57,12.1-35.84,22c0,0,33.85-29,38-21.91,2.52,4.37-37.65,15.8-34.78,20.76,1.44,2.49,37.56-21.68,37.56-21.68s-43,14.89-38.64,22.37c4,6.85,36.52-27.11,39.13-22.59,0,0-42.26,14.75-37.52,23,5.06,8.78,43.38-25,43.38-25,5,8.6-40.92,25.12-40.58,25.71,5.83,10.09,34.56-24.15,36.38-21C132.35,94.4,90.4,108.41,93.65,114c0,0,35.19-22.33,36.07-20.82L93.41,114.71,128.94,94.2c2.94,5.09-35.24,14-32.28,19.14,0,0,27.94-21.59,30.3-17.5,0,0-35.19,10.57-30.64,18.46.73,1.26,31.34-18.09,31.34-18.09L95.84,115.12l31.07-17.94s-31.47,16.1-30.15,18.38c4.29,7.42,29.73-17.17,29.73-17.17,2.26,3.91-28.67,16.87-28.67,16.87s25.63-22.58,29-16.75l-27.1,16,25.7-14.84c.32.56-24.53,15.59-24.53,15.59.1.17,26.1-15.07,26.1-15.07S96.5,109,100.82,116.42c2.11,3.66,24.94-19,27-15.56,2.92,5.06-27.61,16.15-27.61,16.15,3,5.23,28-16.15,28-16.15s-28.3,12.92-26.32,16.35c3.32,5.74,23.7-13.81,23.75-13.72,3.79,6.56-25.64,14.86-25.64,14.86,1.9,3.3,27.44-15.85,27.44-15.85.13.22-28.65,11.21-26,15.87,0,0,22.42-17.8,24.52-14.16,0,0-26.28,8.55-23.15,14l23.35-13.48c3.71,6.43-24.81,13.07-24.19,14.14,0,0,23.55-16.48,24.8-14.32,0,0-25.91,12.68-24.21,15.62,0,.07,2.31-1.33,2.31-1.33s-2.55,2.28-2.06,3.13c.1.18.82-.5.83-.48l-2.27,3.62c0,.07,1.28-1.14,1.45-.84s-1.68,2.62-1.59,2.78c0,0,1.18-.9,1.28-.73l1,1.57s1.22-.84,1.28-.74l-1.74,2.2a26.21,26.21,0,0,0,2.52-1.46c.14.23-1.26.81-1.14,1,0,0,1.88-1.13,1.9-1.09l1.22.72c0,.07.44-.36.48-.28l-1.73,2.42c0,.06,3.15-2,3.23-1.87.28.49-1.28,1.88-1,2.34,0,0,3.91-2.64,4.07-2.35a7.47,7.47,0,0,1,.31,1.18l3.46-2a26.19,26.19,0,0,0-2.6,2.25l7.47-4.31c1,1.75-6.51,5-6.51,5,.19.33,4.1-2.37,4.1-2.37"/><path class="cls-3" d="M12.26,76.23c.07.13,1.1-.82,1.18-.68.47.82-4,2-3.69,2.63l4.54-2.62"/><path class="cls-3" d="M5.9,79.26c.12.2,3-2.05,3.14-1.81,0,0-3.18,1.78-2.75,2.53,0,0,3-2,3.08-1.79L5.58,81c.16.27,10.55-6.09,10.55-6.09,1.06,1.84-12.77,5.25-10.93,8.43l12.13-7S3.14,81.3,4.83,84.22c1.29,2.24,14.79-8.83,14.91-8.61L5.68,83.79S18.37,74.48,19.23,76c.33.56-14.34,8.68-14.34,8.68C6.23,87,18.28,76.92,18.28,76.92c.32.54-11.34,6.28-11,6.78,0,0,10-7.9,10.93-6.31.79,1.37-12.52,6-11.44,7.87.9,1.57,12-7.2,12.11-7,.59,1-10.8,6.82-10.8,6.82l12.39-7.15c.3.53-13.67,8.61-13.31,9.24.56,1,14.53-10.56,15.47-8.94,0,0-13.48,6.4-12,9l12.69-7.33c.86,1.49-12.27,4.72-10.72,7.41,0,0,11.58-8.27,12.27-7.09L16.94,87l13-7.49C31.35,82,13.85,84.13,16,87.88c.95,1.65,14.57-8.42,14.57-8.42s-12.51,8.69-12.51,8.69c2.18,3.78,13.54-7.82,13.54-7.82l-10,7.49L35.69,79.7,22.28,89s15.26-9.48,15.55-9c2.17,3.76-17.17,5.27-15.15,8.78,0,0,12-11,13.71-7.91,0,0-12.55,6-11.27,8.25.73,1.27,14.37-8.3,14.37-8.3s-15,7.36-14.42,8.42c2,3.5,14.85-8.57,14.85-8.57s-11.72,6.91-11.07,8l12.26-7.08s-9.66,6.6-9.45,7l12.5-7.22c.81,1.41-9.82,7-9.62,7.38,0,0,12.11-9.81,13.33-7.7,0,0-18.16,5.63-15.78,9.76C33,92.48,49.86,80.61,49.86,80.61c1.63,2.82-20,6-17.35,10.54.67,1.16,16.59-9.58,16.59-9.58l-15.58,9.5S48.88,79.69,50,81.57c.91,1.59-15.62,9.61-14.9,10.86C36.07,94.17,52.45,77,54.8,81c1.86,3.23-21.12,7.2-18.88,11.08,0,0,16.13-14,18.14-10.48L37,91.78c2.45,4.24,14.7-14.72,17.4-10,0,0-17.49,9.19-16.55,10.82C39.73,95.78,57.35,81.3,57.35,81.3c2.79,4.84-20.14,11.4-19.26,12.93,0,0,19.45-16.25,21.62-12.49S37.82,90.89,39.5,93.8c3.21,5.56,20.16-11.64,20.16-11.64.52.9-22.66,7.07-19.63,12.33.17.29.94-1.35,1.29-.74.1.17-1,.93-1,.93s3-2,3.08-1.78c.34.58-2.12,3.16-2.12,3.16.18.32.18-.65.42-.24.14.25-1,.84-1,.84l2-1.17"/><path class="cls-3" d="M192.26,32.17c1.08,1.88,8.2-4.73,8.2-4.73.24.41-7.82,5.78-7.82,5.78l7.19-4.15-4.09,3.22c.43.73,4.21-2.43,4.21-2.43l-2.67,3.64s1.49-1.15,1.62-.93c0,0,.6.12.65.22s.26-.19.27-.16"/><path class="cls-3" d="M240.47,16.75c1.22,2.11,6.52-3.93,6.59-3.81.64,1.11-4.43,3.34-4.43,3.34S248,12,248.54,12.87l-5.3,3.76c.66,1.14,4.34-2.51,4.34-2.51.48.82-2.46,2.37-2.16,2.89.15.25,1.89-1.09,1.89-1.09s-1.75.91-1.54,1.27c0,0,1.8-1.33,1.93-1.11"/><path class="cls-3" d="M204.82,19.07s15.29-11.15,16.3-9.41c0,0-18.84,10.11-18.38,10.9,1.63,2.82,19.1-11,19.1-11s-17.92,10.57-17.79,10.8c0,0,17.75-14.78,19.72-11.38,1.37,2.38-17,11-17,11S222.38,9.54,223,10.59c0,0-17.64,5.57-15.36,9.53,2.74,4.74,16.61-16,19.4-11.2L212.29,19.41c2.33,4.05,14.41-10.61,15.4-8.89L216.45,19s13.06-11.62,14.83-8.56L219.5,19c1.22,2.12,15.8-9.12,15.8-9.12s-15.86,9.76-15.83,9.81,17.85-11.06,18.18-10.5c.84,1.45-16.45,9.64-15.9,10.6C223,22,238.28,4,241,8.68c0,0-18.25,9.85-17.34,11.42,0,0,17.77-17.8,21-12.15,0,0-20.83,7.93-18.95,11.18,1.43,2.49,19.62-12.34,20.06-11.58.28.47-20.16,12-20.16,12C227.09,22.08,245,8.34,245,8.34c2.58,4.48-17.28,8-15.46,11.17l17.65-10.2s-15.54,9.31-14.91,10.41l14.95-8.63s-12.15,7.48-11.55,8.53c0,0,5.82-3.44,5.86-3.38.61,1.07-4.87,3-4.87,3,.42.73,5-3.48,5.25-3s-5.42,2.34-4.62,3.72c0,0,3.3-2.27,3.46-2,0,0-2.95,1.81-2.69,2.25.07.12,3.11-1.94,3.17-1.83"/><path class="cls-3" d="M168.82,36.3s39.77-34.17,44.62-25.76c1.69,2.93-45.68,21.9-42.83,26.84,0,0,6.43-4.21,6.64-3.84.77,1.32-5.44,2.61-5.05,3.29,0,0,4.47-2.83,4.58-2.65s-5.14,3.27-5,3.59c.53.92,4.74-4.08,5.32-3.07l-4.73,4.11c.3.51,2.87-1.66,2.87-1.66.37.65-1.83,1.86-1.83,1.86.22.38,2.83-1.65,2.84-1.64a28.71,28.71,0,0,0-2.57,3.14c.21.36,1.26-.73,1.26-.73s-.06,1.14,0,1.2l.26-.15c.13.21-1,.72-1,.76s0-.37.17-.1c0,.07-.26.32-.21.41s1-.57,1-.57a6.38,6.38,0,0,1,.31,1.34c.17.29,1-.84,1.13-.66s-2.89,1.84-2.82,2L178,41.57c.38.66-1.92,2.84-1.92,2.84s.15-.29.23-.14.54.2.6.32l1.14-.66.73,1.08c.05.08.44-.26.44-.26"/><path class="cls-3" d="M177.85,33.29s34.56-35,41.06-23.7c5.71,9.89-43.11,16.84-38.93,24.09l23.28-13.44c2.76,4.78-27.5,8.1-24,14.09l22.51-13s-25.28,6.85-21.81,12.86c.73,1.28,23.1-13.34,23.1-13.34L182.26,34.93c2,3.46,17.68-10.21,17.68-10.21C202.36,28.91,183.77,36,183.77,36c2.15,3.72,17.88-10.32,17.88-10.32,1.51,2.62-18,8.35-16.53,10.84.46.79,4.63-3.09,4.81-2.78.58,1-5.6,2.15-4.85,3.46.35.61,3.87-2.24,3.87-2.24.22.38-4.12,4-3.95,4.27l3.3-1.91c.64,1.11-3.58,3.55-3.58,3.55.19.32,1.33-.77,1.33-.77.16.26-3.73,3.78-3.73,3.78S187.18,41,187.21,41c.7,1.21-4.67,3.13-4.67,3.13.42.73,2.6-1.71,2.69-1.56s-5,3.15-4.84,3.46,6.32-3.66,6.32-3.66"/><path class="cls-3" d="M155.62,35.88c1,1.81,45-26,45-26S150.69,25,157.1,36.15c2.47,4.27,47.51-27.43,47.51-27.43C208.54,15.52,157,36.27,157,36.27c.44.75,38.7-37.12,45.1-26,6.9,12-41.31,26-41.31,26s41.83-35.62,46.8-27L161.09,36.5C164.84,43,207.52,7.79,208.35,9.22c5.61,9.71-47.1,27.93-47.1,27.93,5.74,9.94,48.1-27.77,48.1-27.77S156,26,162.49,37.36c.52.9,41.86-41.46,49.35-28.49L162.12,37.69,210.81,9.58s-50.64,25.23-48.26,29.36c0,0,49.81-34.1,52.13-30.1,0,0-52.12,30.42-52.11,30.44,3.28,5.69,52-30,52-30S155.27,28.2,162.64,41l3.21-1.85-2.46,2,.89-.52c.18.32-2.34,2.88-2.05,3.38a17.3,17.3,0,0,0,2.25-1.3s-1.08,2.12-.81,2.6c.17.29,1.17-1.08,1.35-.78a16.19,16.19,0,0,0,0,1.87c.19.33,1.48-1.42,1.72-1s-1.94,2.12-1.94,2.12l2.77-1.59.07,1.73L170,46.23s-3.12,2-2.77,2.63,2.56-1.48,2.56-1.48a28.38,28.38,0,0,1-2,2.23c.21.37,2.92-1.69,2.92-1.69.1.18-1.53.68-1.3,1.09.12.21.68-.38.68-.38a5.31,5.31,0,0,0,.67.6s3-2.21,3.2-1.85l-2.77,2.33,2.25-1.29a7.91,7.91,0,0,1,.43,1.63l13-7.47S175,49.06,175.79,50.51L183.53,46c.53.92-4.78,2.51-4.53,3,.17.29,5.43-3.14,5.43-3.14s-4,2.48-3.94,2.5,2.6-1.84,2.75-1.58"/><path class="cls-3" d="M144.74,19c.08.14.59-.34.59-.34.15.26-2.71,2.2-2.71,2.2.5.87,1.72-2.07,2.19-1.26.15.26-1.51,3.06-1.51,3.06,1.45,2.52,24.79-17.26,26.06-15,2.43,4.2-28.94,12.26-26.29,16.85,3.27,5.67,28.57-16.49,28.57-16.49L142.86,25.75c1.65,2.86,27.61-21,29.81-17.21,3.08,5.33-32,19.67-31.68,20.15,4.06,7,30.43-29.16,35.45-20.46L141.3,29.07,176.44,8.79S135.23,28.51,137.82,33c3.79,6.57,37.62-34.3,43.07-24.87,0,0-47.14,21.57-44.26,26.55.2.34,38-38.57,45.17-26.07,0,0-51.14,21.07-46.82,28.56,3.11,5.38,48.89-29.77,49.56-28.61,5.51,9.54-53.51,24.76-50,30.74C137,43.67,179.93-7.56,188.85,7.9c.28.49-64,23-57.65,33.91C140.53,58,187.21,6,188.73,8.6c0,0-66,21-58,34.78C131.9,45.45,185.82-4,192.54,7.68c0,0-68.65,23.17-61.28,35.94,2.35,4.06,50-51.71,59.86-34.56,2.16,3.75-63.8,32.12-61,37.05,0,0,58.23-48.87,64.83-37.43,5.87,10.17-65.47,40.06-65.47,40.06,7.26,12.58,67.24-44.36,69.64-40.2.21.37-72.82,31.53-67.94,40,2.18,3.78,67.66-40.21,68.16-39.35,5.57,9.66-75.62,29.65-69.45,40.34,8.65,15,59.53-59.9,70.59-40.75L131.34,50.36l23-13.31s-28.56,10.72-25.91,15.31c3.34,5.78,24.57-17.52,26-15C156,40,127.06,49.42,129.37,53.41c0,0,23.86-15.06,24.41-14.09l-25,16.56,22.66-13.09C154,47.12,130.55,57,130.55,57l21.14-12.21c3,5.26-23,15.48-23,15.48,2.83,4.91,22.76-13.14,22.76-13.14L129.28,61.33c3.34,5.78,20.74-18.53,23.58-13.61,1.14,2-23.54,13.81-23.54,13.81.66,1.15,20.43-20,24-13.84L127.51,64.48l25.89-15c1.35,2.35-25.25,15.63-25.25,15.63S151.48,48,153.09,50.76c3,5.24-26.29,17.29-26.29,17.29C127,68.32,155,51.77,155,51.77c3.73,6.46-28.62,15-27.31,17.26,4.3,7.44,27.38-15.8,27.38-15.8,3.73,6.46-26.51,16.13-26.51,16.13s22.83-15.21,23.71-13.69c0,0-26.4,11.61-23.88,16,.42.72,26.15-15.09,26.15-15.09,3,5.27-29.35,11.39-26.61,16.14,0,0,22.49-18.91,25.06-14.46,0,0-25.11,10.88-23.42,13.81,2.69,4.65,25.55-15.18,25.74-14.86L131,71.88l23.36-13.49L131.73,72.58c1.66,2.88,20.31-14.31,21.43-12.38,0,0-21.63,12-21.39,12.47,3.75,6.48,22.81-13.17,22.81-13.17s-27.86,7.16-24,13.91c2.76,4.78,24.45-14.12,24.45-14.12S130.28,68.56,133,73.22s20.75-15.13,22.12-12.77c0,0-23.43,8-20.5,13.11,0,0,20.42-12.06,20.53-11.85,0,0-17.81,6.29-15.44,10.39,1,1.83,14.51-9,14.79-8.53,1.46,2.53-11.71,8.24-11.71,8.24s10.82-7.44,11.34-6.54c.41.71-8,6.9-8,6.9.65,1.12,9.94-8.39,11.1-6.4,0,0-8.91,3.75-7.6,6,1.05,1.82,4.91-5.6,6.11-3.53,0,0-7.62,3.34-6.85,4.67s6.9-4,6.9-4-4.8,2.82-4.19,3.87l3.9-2.25c.19.33-.48,1.78-.47,1.79s1-.87,1.11-.64"/><path class="cls-3" d="M148,17c1.57,2.71,13.86-8,13.86-8,1.88,3.25-12.07,7.11-12.07,7.11l12.69-7.32c.28.49-15.4,8.58-14.77,9.67C149.51,21.59,165.79,8,165.79,8"/><path class="cls-3" d="M159,9.92c.27.47,1.32-.95,1.4-.81L157,11.27c.06.09,3.42-2.73,3.75-2.17"/><path class="cls-3" d="M147.18,10.17s.53-.58.65-.37c.6,1-3.27,2.52-3.12,2.78,0,0,4-2.58,4.1-2.37l-.53,1.85,2.83-1.63c.37.64-2.38,3.53-2.38,3.53s2.78-2.21,3-1.76-2.17,2.65-2,2.9l7.58-4.38s-8,4.26-7.53,5.07c1.16,2,11.31-6.53,11.31-6.53"/><path class="cls-3" d="M179.07,151.24s15.51-15.47,18.33-10.58c.61,1.05-20.42,7.58-18.48,11,2.39,4.14,19.32-11.16,19.32-11.16,2.25,3.9-13,9.36-12.92,9.51.61,1,12.08-8.1,12.56-7.25,1.7,2.94-15.78,4.47-13.62,8.21.17.3,14.4-10.31,15.26-8.81,2.23,3.85-14.28,8.49-14.28,8.49l14.24-8.23s-11.35,5.75-10.3,7.57c0,0,8.73-7.87,10-5.75,0,0-8.75,4.83-8.21,5.76,0,0,9.33-5.57,9.4-5.44.51.88-5.25,4.2-5.25,4.2s3.27-1.88,3.27-1.88-1.58.78-1.45,1c0,0,2.58-2,2.81-1.62"/><path class="cls-3" d="M250.53,81.84c.18.32,4.85-2.8,4.85-2.8.33.58-2.12,1.58-1.76,2.19a11.2,11.2,0,0,1,1.54-.89"/><path class="cls-3" d="M222.92,93.25C225.35,97.46,252.84,76,252.84,76l-21,13.73c.16.28,22.77-13.15,22.77-13.15,1.78,3.09-19.95,7.28-17.37,11.75C239.36,92,252.52,74,254.89,78.12c0,0-10,5.24-9,6.88.08.15,1.82-1.07,1.83-1.06"/><path class="cls-3" d="M198.31,102.7s54.1-36.81,56.52-32.63C262.94,84.12,200.59,102,200.59,102l53-30.58c1.82,3.16-52.74,31.85-52.74,31.85l3.18-1.84c.37.65-2.47,2-2.37,2.2l3-1.74c.15.25-2,1.77-1.91,1.87.47.81.72-1.53,1.2-.69s-3.07,2.12-2.57,3l2.51-1.45a14.53,14.53,0,0,1-.4,2.1l2.71-1.57c0,.06-.46,1.44-.39,1.56s1.62-1.18,1.73-1-.78,1.94-.45,2.52c.18.31,2.16-1.25,2.16-1.25l-.26,2c.25.43,1.44-1.41,1.69-1s1.29.25,1.42.48,1.22-.7,1.22-.7"/><path class="cls-3" d="M207.07,99.25S246.5,66.68,250.74,74c0,0-45.74,26.53-45.73,26.55l46.6-26.91c.1.16-43.65,22.51-42,25.46l41.67-24.06c2.35,4.07-45.08,12.07-38.87,22.82,2.57,4.46,36.72-29.06,40.12-23.16,1.65,2.86-42,21-40,24.56.79,1.38,9.3-5.37,9.3-5.37,1.1,1.91-9.74,2.81-8.38,5.15,0,0,7.18-6.31,8.12-4.68.71,1.23-4.61,3.83-4.47,4.07.48.82,1.63-.94,1.63-.94.17.3-1.92,1.14-1.58,1.72l2.36-1.36s-2.13,1.93-1.67,2.73c.21.37,2.35-1.85,2.56-1.48,0,0-2.19,2-2.18,2,.18.31,2.47-2.08,2.76-1.59.19.34-4.17,3.75-4,4,0,0,1.11-1.18,1.35-.78.45.79-2.42,3.53-2.42,3.53.34.6,5.11-3,5.11-3s-10,4.33-8.72,6.61c.47.82,9.94-5.73,9.94-5.73"/><path class="cls-3" d="M198.9,115.87s5.35-4.84,6.11-3.53c.15.26-1.6,2.62-1.49,2.82.43.74,6.7-6.16,7.69-4.44,0,0-4.71,2.61-4.2,3.5.3.52,13.49-10.83,14.81-8.55l-8.23,6.85,2.42-1.39"/><path class="cls-3" d="M242.87,64.5l1.25-.72c.33.56-1.24,1.8-1.07,2.08.59,1,3.39-2,3.39-2l-4.73,3.35c.34.59,5.59-3.23,5.59-3.23"/><path class="cls-3" d="M162.51,91.49c0,.05,1.83-1.06,1.83-1.06s-3.14,1.88-2.75,2.56c0,0,4.07-2.91,4.32-2.49l-4.45,3.32c.42.73,4.53-2.61,4.53-2.61.73,1.26-4.38,3.84-4.38,3.84.47.81,13.19-12.91,15.48-8.94,0,0-15.31,6-13.51,9.1.76,1.32,18.67-13.35,19.79-11.42,1.2,2.09-20,12.92-20,12.92l24.54-14.17c2.34,4-21.79,13-21.79,13s21.11-14.63,22.17-12.8L165.66,97.31c1.44,2.5,29.84-17.23,29.84-17.23,1.42,2.46-31.89,18.69-31.89,18.69S190.67,75.37,194,81.2c3.2,5.55-30,19.33-30,19.33,2.33,4,36.47-21,36.47-21s-39.35,14.68-35,22.23l39.85-23c2.78,4.82-41.27,24-41.27,24,.47.82,38.29-29.71,41.58-24l-43.7,27c.87,1.51,52.34-30.22,52.34-30.22,6.81,11.79-51,29.66-51,29.66,5.84,10.11,44.8-42.39,52-30,0,0-53.19,27.78-51.82,30.15,7.67,13.29,51.13-32.86,52.57-30.35l-55,32.62c6.87,11.9,51.17-42.33,56.71-32.75,0,0-65,21.88-57.54,34.74,0,0,56.55-50.74,64.39-37.17l-64.37,39c11.17,19.34,69.56-40.17,69.56-40.17,3.09,5.34-72.14,24.86-63.9,39.14s72.74-42,72.74-42l-69.82,41.92c3.32,5.75,68.42-65.84,79.82-46.09,0,0-85.52,38.48-80.39,47.38,12.23,21.17,79.69-46,79.69-46,9.24,16-77.48,46.68-77.48,46.68C183.84,135.46,254,64,254,64l-82.32,49.22c10.64,18.42,71.48-63.88,81.27-46.92,5.46,9.45-83.64,42.27-80.33,48,8.41,14.58,71-67.77,82.61-47.69,12.73,22-95.95,32-85.58,49.94,9,15.56,85.14-49.15,85.14-49.15,5.29,9.16-93.18,32.88-83.48,49.67,4.55,7.89,73-64.18,82.57-47.68,1.84,3.17-82.16,47.77-82.16,47.77,2.69,4.65,82.52-47.65,82.52-47.65L169.4,120.65s24.21-15.37,24.82-14.33c4,6.92-23.71,15.47-23.71,15.47S194,103.34,196.13,107l-26.42,16.25s23.29-20,26.12-15.08c0,0-27.76,12-25.19,16.46,0,0,24.39-16.23,25.32-14.63,2.25,3.89-27.47,17.07-27.47,17.07S194.7,106.68,197,110.62L170.54,126s25.63-15,25.71-14.84c2.49,4.32-30.66,13.26-27.91,18l28.92-16.69c4.73,8.2-30.2,13.56-28.06,17.26,4.35,7.54,30.37-17.53,30.37-17.53l-31,18.63c.94,1.61,29-23.32,31.85-18.39,5.06,8.75-32.33,20.33-32.18,20.6C172.71,140.77,203.1,113,203.1,113c2.72,4.71-33,18.88-32.66,19.49L198.9,116c4.48,7.76-33.68,12.37-29.64,19.37.44.76,28.08-16.21,28.08-16.21,2.52,4.38-29.68,14.44-27.66,17.94.25.44,26.37-15.23,26.37-15.23,2.06,3.55-27.71,14.41-26.43,16.62.41.71,23.74-18,25.61-14.79,0,0-26.74,14.62-25.88,16.11,4.05,7,23.46-19.56,26.07-15.05l-28,17.62s26.23-18.81,27.82-16.06c4.09,7.09-27.26,17.84-27.26,17.84.68,1.17,28.16-16.26,28.16-16.26,2.75,4.76-30.69,11.1-27.68,16.31,3.23,5.61,24.32-21.88,27.72-16,3,5.2-31,11.78-27.49,17.91,0,.07,28.6-16.51,28.6-16.51s-29,12.09-26.86,15.81L196,130.64c3.85,6.67-25.19,15.38-25.19,15.38,2.25,3.9,22.81-19,25.33-14.63,0,0-31.49,11.06-28.37,16.47L197,131s-28.23,13-26.35,16.24l25.08-14.49c2.58,4.47-26.3,17.16-26.3,17.16,1.88,3.26,25.61-14.79,25.61-14.79l-24.06,16c1,1.66,23.58-19.93,26.31-15.2,0,0-25.31,11-22.83,15.34,1.22,2.11,18.63-17.61,21.6-12.47.28.47-23.14,10.78-21.44,13.73,3.52,6.1,19-19.25,22.6-13,1.09,1.89-21.92,13.81-21.92,13.81,3.5,6,19.26-17.94,22.22-12.83"/><path class="cls-3" d="M172.4,85.16c.1.17,1.3-.75,1.3-.75.11.2-1.87.88-1.57,1.38,0,.07,3.08-1.78,3.08-1.78s-2.57,2-2.55,2.07c.46.81.5-1.09.85-.49s-4.6,3.08-4.41,3.4l5.15-3s-6.3,2.27-5.42,3.78c.1.17,5.64-5.11,6.44-3.72"/><path d="M31.82,197.5v2.95h-4V197.5H19.39v-2.67L26.54,184h5.28v10.34h2.6v3.18Zm-4-3.18v-6.59l-4.36,6.59Z"/><path d="M56.44,196.12c0,.63.17,1.16.78,1.16a2.75,2.75,0,0,0,1.21-.34l.15,3.22a8.75,8.75,0,0,1-3,.54,2.71,2.71,0,0,1-2.89-1.82,5,5,0,0,1-3.87,1.79c-3.47,0-5.84-2.71-5.84-6.52s2.37-6.59,5.84-6.59a4.74,4.74,0,0,1,3.58,1.34v-1.12h4.07ZM52.37,192A3.65,3.65,0,0,0,50,191.1a3,3,0,0,0,0,6.06,3.72,3.72,0,0,0,2.42-.92Z"/><path d="M62.11,192.14c0-.65-.12-1.16-.77-1.16a3.23,3.23,0,0,0-1.24.31L60,188.1a7.43,7.43,0,0,1,3-.54,2.73,2.73,0,0,1,2.95,1.87A3.18,3.18,0,0,1,69,187.56a3.68,3.68,0,0,1,2.25.61l-.51,3.71a4.62,4.62,0,0,0-2.42-.56c-1.5,0-2,1.21-2.16,2.52v6.61H62.11Z"/><path d="M77.62,187.78V189a5.26,5.26,0,0,1,3.83-1.5c2,0,3.3.7,4,2.16a5.14,5.14,0,0,1,4.36-2.14c3.27,0,4.6,2.5,4.6,5.6v3c0,.63.13,1.16.73,1.16a3.22,3.22,0,0,0,1.24-.34l.17,3.22a9,9,0,0,1-3.06.54c-2,0-3.15-1-3.15-3.59v-3.27c0-1.63-.75-2.52-2.13-2.52A2.34,2.34,0,0,0,86,192.67v7.78H82v-6.64c0-1.6-.7-2.49-2.11-2.49a2.44,2.44,0,0,0-2.23,1.4v7.73H73.55V187.78Z"/><path d="M111.57,196.12c0,.63.17,1.16.78,1.16a2.75,2.75,0,0,0,1.21-.34l.14,3.22a8.75,8.75,0,0,1-3,.54,2.71,2.71,0,0,1-2.88-1.82,5,5,0,0,1-3.88,1.79c-3.46,0-5.84-2.71-5.84-6.52s2.38-6.59,5.84-6.59a4.75,4.75,0,0,1,3.59,1.34v-1.12h4.07ZM107.5,192a3.65,3.65,0,0,0-2.42-.92,3,3,0,0,0,0,6.06,3.74,3.74,0,0,0,2.42-.92Z"/><path d="M125,191.73a8.47,8.47,0,0,0-3.78-1c-.82,0-1.52.25-1.52.85s.31.65,1,.85l2.25.6c2.31.63,3,1.87,3,3.59,0,2.45-1.94,4.1-5.28,4.1a11.61,11.61,0,0,1-5-1.09l.75-3.18a9.24,9.24,0,0,0,4,1.19c.94,0,1.5-.2,1.5-.75s-.48-.63-1.28-.85l-2-.56c-2.06-.6-3.08-1.74-3.08-3.66,0-2.52,2.2-4.24,5.74-4.24a13.36,13.36,0,0,1,4.73.92Z"/><path d="M136.09,205V192.14c0-.68-.12-1.16-.77-1.16a2.46,2.46,0,0,0-1.24.34l-.12-3.25a8.73,8.73,0,0,1,3-.53,2.73,2.73,0,0,1,2.91,1.72,4.73,4.73,0,0,1,3.88-1.7c3.46,0,5.86,2.74,5.86,6.59s-2.4,6.55-5.86,6.55a5.21,5.21,0,0,1-3.59-1.31V205Zm4.07-13v4.24a3.8,3.8,0,0,0,2.43.9,3,3,0,0,0,0-6.06A3.66,3.66,0,0,0,140.16,192Z"/><path d="M158.53,187.44a6.68,6.68,0,1,1-6.81,6.71A6.59,6.59,0,0,1,158.53,187.44Zm0,9.67a3,3,0,1,0-2.88-3A2.86,2.86,0,0,0,158.53,197.11Z"/><path d="M169.29,192.14c0-.65-.12-1.16-.78-1.16a3.23,3.23,0,0,0-1.23.31l-.12-3.19a7.36,7.36,0,0,1,3-.54,2.74,2.74,0,0,1,3,1.87,3.17,3.17,0,0,1,3.08-1.87,3.74,3.74,0,0,1,2.25.61l-.51,3.71a4.62,4.62,0,0,0-2.42-.56c-1.5,0-2,1.21-2.16,2.52v6.61h-4.07Z"/><path d="M198.37,199.05a8.92,8.92,0,0,1-5.43,1.74c-4.77,0-6.93-2.83-6.93-6.64a6.41,6.41,0,0,1,6.71-6.71c3.76,0,5.7,2.06,5.82,5l-3.61.8c-.1-1.4-.66-2.28-2.18-2.28s-2.55,1.29-2.55,3a3,3,0,0,0,3.22,3.2,6,6,0,0,0,3.4-1.33Z"/><path d="M214.09,196.12c0,.63.17,1.16.78,1.16a2.72,2.72,0,0,0,1.21-.34l.15,3.22a8.75,8.75,0,0,1-3,.54,2.71,2.71,0,0,1-2.89-1.82,5,5,0,0,1-3.87,1.79c-3.47,0-5.84-2.71-5.84-6.52s2.37-6.59,5.84-6.59A4.74,4.74,0,0,1,210,188.9v-1.12h4.07ZM210,192a3.63,3.63,0,0,0-2.42-.92,3,3,0,0,0,0,6.06,3.72,3.72,0,0,0,2.42-.92Z"/><path d="M231.57,183.25v12.87c0,.65.14,1.16.77,1.16a3.49,3.49,0,0,0,1.21-.34l.15,3.22a8.61,8.61,0,0,1-3,.54,2.7,2.7,0,0,1-2.88-1.72,4.73,4.73,0,0,1-3.91,1.72c-3.44,0-5.84-2.77-5.84-6.6s2.4-6.54,5.84-6.54a5.32,5.32,0,0,1,3.62,1.31v-5.62Zm-6.5,13.91a3.88,3.88,0,0,0,2.43-.9V192a3.71,3.71,0,0,0-2.43-.92,3,3,0,0,0,0,6.06Z"/><path d="M249,196.12c0,.63.17,1.16.77,1.16a2.68,2.68,0,0,0,1.21-.34l.15,3.22a8.75,8.75,0,0,1-3,.54,2.7,2.7,0,0,1-2.88-1.82,5,5,0,0,1-3.88,1.79c-3.47,0-5.84-2.71-5.84-6.52s2.37-6.59,5.84-6.59A4.76,4.76,0,0,1,245,188.9v-1.12H249ZM245,192a3.66,3.66,0,0,0-2.43-.92,3,3,0,0,0,0,6.06,3.75,3.75,0,0,0,2.43-.92Z"/><path d="M17.78,213.05h3v16.48H16.69V217.68l-4.53,2.47-1.53-3.07Z"/><path d="M31.93,212.81c4.87,0,7.34,3.27,7.34,8.51s-2.47,8.45-7.34,8.45-7.32-3.27-7.32-8.45S27.11,212.81,31.93,212.81Zm0,13.23c2.64,0,3.39-2.13,3.39-4.72s-.75-4.8-3.39-4.8-3.37,2.16-3.37,4.8S29.34,226,31.93,226Z"/><path d="M49.55,212.81c4.87,0,7.34,3.27,7.34,8.51s-2.47,8.45-7.34,8.45-7.32-3.27-7.32-8.45S44.73,212.81,49.55,212.81Zm0,13.23c2.64,0,3.39-2.13,3.39-4.72s-.75-4.8-3.39-4.8-3.37,2.16-3.37,4.8S47,226,49.55,226Z"/><path d="M70.36,216.86v1.26a5.26,5.26,0,0,1,3.83-1.5c2,0,3.3.7,4,2.15a5.17,5.17,0,0,1,4.36-2.13c3.27,0,4.61,2.5,4.61,5.6v2.95c0,.63.12,1.17.72,1.17a3.22,3.22,0,0,0,1.24-.34l.17,3.22a9,9,0,0,1-3,.53c-2,0-3.15-1-3.15-3.58v-3.27c0-1.63-.75-2.52-2.14-2.52a2.34,2.34,0,0,0-2.13,1.35v7.78H74.7v-6.64c0-1.6-.7-2.49-2.11-2.49a2.45,2.45,0,0,0-2.23,1.4v7.73H66.29V216.86Z"/><path d="M93.58,211.46c1.31,0,2.18.48,2.18,1.84s-.87,1.84-2.18,1.84-2.23-.49-2.23-1.84S92.25,211.46,93.58,211.46Zm2,13.73c0,.63.12,1.17.77,1.17a2.59,2.59,0,0,0,1.19-.34l.17,3.22a8.17,8.17,0,0,1-3,.53c-2,0-3.17-1-3.17-3.58v-9.33h4.07Z"/><path d="M104.34,212.33v12.79c0,.75.21,1.24.84,1.24a3.14,3.14,0,0,0,1.29-.34l.14,3.22a9.3,9.3,0,0,1-3.07.53c-2,0-3.27-1-3.27-3.63V212.33Z"/><path d="M119.26,212.33v5.89a5.18,5.18,0,0,1,3.86-1.58c3.27,0,4.65,2.5,4.65,5.6v2.95c0,.63.14,1.17.77,1.17a3.36,3.36,0,0,0,1.24-.34l.12,3.22a8.23,8.23,0,0,1-3,.53c-2,0-3.2-1-3.2-3.58v-3.27c0-1.63-.75-2.52-2.13-2.52a2.71,2.71,0,0,0-2.31,1.57v7.56h-4.07v-17.2Z"/><path d="M145,225.19c0,.63.17,1.17.78,1.17A2.75,2.75,0,0,0,147,226l.15,3.22a8.78,8.78,0,0,1-3,.53,2.71,2.71,0,0,1-2.89-1.81,5,5,0,0,1-3.87,1.79c-3.47,0-5.84-2.71-5.84-6.52s2.37-6.59,5.84-6.59A4.77,4.77,0,0,1,140.9,218v-1.11H145Zm-4.07-4.09a3.65,3.65,0,0,0-2.42-.92,3,3,0,0,0,0,6.06,3.78,3.78,0,0,0,2.42-.92Z"/><path d="M157.38,229.77a4.71,4.71,0,0,1-3.61-1.4v1.16H149.7v-17.2h4.07V218a5.31,5.31,0,0,1,3.61-1.33c3.49,0,5.86,2.72,5.86,6.54S160.87,229.77,157.38,229.77Zm-1.16-9.59a3.83,3.83,0,0,0-2.45.94v4.2a3.88,3.88,0,0,0,2.45.92,2.79,2.79,0,0,0,2.88-3.06A2.75,2.75,0,0,0,156.22,220.18Z"/><path d="M168.21,211.46c1.31,0,2.18.48,2.18,1.84s-.87,1.84-2.18,1.84-2.23-.49-2.23-1.84S166.88,211.46,168.21,211.46Zm2,13.73c0,.63.12,1.17.78,1.17a2.64,2.64,0,0,0,1.19-.34l.17,3.22a8.23,8.23,0,0,1-3,.53c-2,0-3.18-1-3.18-3.58v-9.33h4.07Z"/><path d="M179.84,213.64v3.22h4.39V220h-4.39v4.41c0,1.28.54,1.82,1.51,1.82a4.45,4.45,0,0,0,2.37-.85l1.24,3.1a9.33,9.33,0,0,1-4.92,1.28c-2.64,0-4.27-1.6-4.27-4.65V220h-2.15v-3.15h2.27l.51-3.22Z"/><path d="M200.17,225.19c0,.63.17,1.17.78,1.17a2.75,2.75,0,0,0,1.21-.34l.15,3.22a8.78,8.78,0,0,1-3,.53,2.71,2.71,0,0,1-2.89-1.81,5,5,0,0,1-3.87,1.79c-3.47,0-5.84-2.71-5.84-6.52s2.37-6.59,5.84-6.59A4.77,4.77,0,0,1,196.1,218v-1.11h4.07Zm-4.07-4.09a3.65,3.65,0,0,0-2.42-.92,3,3,0,0,0,0,6.06,3.78,3.78,0,0,0,2.42-.92Z"/><path d="M209,216.86v1.4a5.24,5.24,0,0,1,3.85-1.62c3.27,0,4.65,2.5,4.65,5.6v2.95c0,.63.15,1.17.78,1.17a3.17,3.17,0,0,0,1.24-.34l.12,3.22a8.09,8.09,0,0,1-3,.53c-2,0-3.2-1-3.2-3.58v-3.27c0-1.63-.75-2.52-2.13-2.52A2.68,2.68,0,0,0,209,222v7.56H204.9V216.86Z"/><path d="M226.78,213.64v3.22h4.39V220h-4.39v4.41c0,1.28.53,1.82,1.5,1.82a4.49,4.49,0,0,0,2.38-.85l1.23,3.1a9.3,9.3,0,0,1-4.92,1.28c-2.64,0-4.26-1.6-4.26-4.65V220h-2.16v-3.15h2.28l.51-3.22Z"/><path d="M245.9,228.15a8.53,8.53,0,0,1-5.38,1.72c-4.77,0-7-2.88-7-6.64a6.45,6.45,0,0,1,6.73-6.71c3.85,0,5.7,2.37,5.7,5.28a10.68,10.68,0,0,1-.27,2.43h-8.12a2.84,2.84,0,0,0,3.15,2.42,6.85,6.85,0,0,0,3.64-1.21Zm-3.44-6.78c0-1-.68-1.75-2.18-1.75a2.47,2.47,0,0,0-2.6,2h4.78Z"/><path d="M257.72,220.81a8.47,8.47,0,0,0-3.78-1c-.82,0-1.52.24-1.52.85s.31.65,1,.85l2.25.6c2.3.63,3,1.87,3,3.59,0,2.45-1.94,4.09-5.28,4.09a11.46,11.46,0,0,1-5-1.09l.75-3.17a9.24,9.24,0,0,0,3.95,1.19c.94,0,1.5-.2,1.5-.75s-.48-.63-1.28-.85l-2-.56c-2.06-.61-3.08-1.74-3.08-3.66,0-2.52,2.2-4.24,5.74-4.24a13.36,13.36,0,0,1,4.73.92Z"/></g></g></svg>