<svg xmlns="http://www.w3.org/2000/svg" viewBox="0 0 260.34 435.09"><defs><style>.cls-1{fill:#333;}.cls-2{fill:#f8e2e2;}.cls-3{fill:none;stroke:#ee6a5a;stroke-linecap:round;stroke-linejoin:round;stroke-width:0.5px;}</style></defs><title>22 empresas</title><g id="Layer_2" data-name="Layer 2"><g id="Layer_1-2" data-name="Layer 1"><path class="cls-1" d="M4,275.79a9.72,9.72,0,0,1,1.72.33,2.52,2.52,0,0,1,0,.83H1a2.25,2.25,0,0,1,.25-.81,7.19,7.19,0,0,1,1.16-.35V265.24H1a2.11,2.11,0,0,1,.32-.95A4.63,4.63,0,0,1,2.87,264a3.3,3.3,0,0,1,.85.1v1.18H3.9a2.78,2.78,0,0,1,2.65-1.39c1.6,0,3.42,1.08,3.42,4.34,0,2.9-1.82,4.82-4.43,4.82A3.1,3.1,0,0,1,4,272.66Zm0-4a4.71,4.71,0,0,0,1.5.25c2,0,2.9-1.42,2.9-3.51s-1-3.38-2.34-3.38a2.38,2.38,0,0,0-2.06,1.1Z"/><path class="cls-1" d="M14.47,265.86a2.43,2.43,0,0,1,2.36-1.93,2.6,2.6,0,0,1,.81.14,2.31,2.31,0,0,1,.23,1.08,1.85,1.85,0,0,1-.05.49,2.5,2.5,0,0,0-1.23-.31,2.24,2.24,0,0,0-2.08,1.48v4.83a8.77,8.77,0,0,1,1.79.32,2.84,2.84,0,0,1,0,.83H11.53a2.25,2.25,0,0,1,.25-.81,6.31,6.31,0,0,1,1.16-.34v-6.4H11.62a2.11,2.11,0,0,1,.32-.95,4.62,4.62,0,0,1,1.5-.25,3.2,3.2,0,0,1,.85.1v1.72Z"/><path class="cls-1" d="M18.87,265.24a2.11,2.11,0,0,1,.32-.95,5.22,5.22,0,0,1,1.63-.25,3.93,3.93,0,0,1,.94.1v7.53a9.88,9.88,0,0,1,1.43.25,2.38,2.38,0,0,1,0,.56c0,.11,0,.2,0,.31H18.78A2.25,2.25,0,0,1,19,272a6.31,6.31,0,0,1,1.16-.34v-6.4ZM22,261.05a1,1,0,0,1-1,1.06.93.93,0,0,1-1-1.06,1,1,0,0,1,1-1A.93.93,0,0,1,22,261.05Z"/><path class="cls-1" d="M28.27,271.72c.09-.41.29-1.17.42-1.54L29.75,267a13.6,13.6,0,0,1,.67-1.6,5,5,0,0,1-1.06-.24,3.06,3.06,0,0,1-.15-.92h3.42a3.54,3.54,0,0,1-.18,1,4.27,4.27,0,0,1-.85.17l-2.79,7.45-1.64.18-2.68-7.54a4,4,0,0,1-.92-.31,4,4,0,0,1-.18-.94h4.05a4,4,0,0,1-.14,1,11.41,11.41,0,0,1-1.29.2,9.77,9.77,0,0,1,.65,1.53l1.12,3.33c.11.32.29,1.08.37,1.47Z"/><path class="cls-1" d="M38.14,271.72a2.76,2.76,0,0,1-2.53,1.37,2.34,2.34,0,0,1-2.56-2.41c0-1.85,1.57-2.81,3.36-2.81a4.45,4.45,0,0,1,1.68.31v-1c0-1.34-.58-2-1.72-2a5.83,5.83,0,0,0-2.64.88,1.6,1.6,0,0,1-.09-.61,2,2,0,0,1,.2-.9,7.48,7.48,0,0,1,2.95-.63c2,0,2.84.95,2.84,3.42v3.49a1.66,1.66,0,0,0,.23.94,5.58,5.58,0,0,0,1.25-.22.79.79,0,0,1,0,.2,1.86,1.86,0,0,1-.18.81,4.64,4.64,0,0,1-2,.52,1.92,1.92,0,0,1-.76-1.37Zm0-2.75a6,6,0,0,0-1.27-.14c-1.41,0-2.2.63-2.2,1.58a1.45,1.45,0,0,0,1.64,1.44,2.27,2.27,0,0,0,1.83-.88Z"/><path class="cls-1" d="M48.29,260.83H47a2.11,2.11,0,0,1,.32-.95,5.17,5.17,0,0,1,1.63-.25,3.76,3.76,0,0,1,.92.1v10.68a4.83,4.83,0,0,0,.15,1.28h1.35a1,1,0,0,1,0,.23,2.25,2.25,0,0,1-.14.72,10,10,0,0,1-2.44.36,3.24,3.24,0,0,1-.37-1.29h-.09a2.91,2.91,0,0,1-2.71,1.38c-1.57,0-3.36-1.08-3.36-4.34,0-2.89,1.79-4.82,4.37-4.82a3.16,3.16,0,0,1,1.65.43Zm0,4.43a5,5,0,0,0-1.5-.25c-2,0-2.9,1.4-2.9,3.49s1,3.37,2.34,3.37a2.38,2.38,0,0,0,2.06-1.08Z"/><path class="cls-1" d="M57.66,271.72a2.78,2.78,0,0,1-2.54,1.37,2.34,2.34,0,0,1-2.56-2.41c0-1.85,1.57-2.81,3.36-2.81a4.45,4.45,0,0,1,1.68.31v-1c0-1.34-.58-2-1.72-2a5.83,5.83,0,0,0-2.64.88,1.6,1.6,0,0,1-.09-.61,2,2,0,0,1,.2-.9,7.48,7.48,0,0,1,2.95-.63c2,0,2.84.95,2.84,3.42v3.49a1.66,1.66,0,0,0,.23.94,5.49,5.49,0,0,0,1.25-.22.79.79,0,0,1,0,.2,1.86,1.86,0,0,1-.18.81,4.64,4.64,0,0,1-2,.52,1.86,1.86,0,0,1-.76-1.37Zm0-2.75a5.88,5.88,0,0,0-1.27-.14c-1.41,0-2.2.63-2.2,1.58a1.46,1.46,0,0,0,1.64,1.44,2.27,2.27,0,0,0,1.83-.88Z"/><path class="cls-1" d="M66.25,265.08a2.93,2.93,0,0,0-1.07-.22c-.94,0-1.48.44-1.48,1.1,0,2,4.21,1.41,4.21,4.54,0,1.87-1.57,2.59-3.26,2.59a5.51,5.51,0,0,1-2.76-.68,3.66,3.66,0,0,1-.09-.86,5.12,5.12,0,0,1,.18-1.28,5.14,5.14,0,0,1,1.3.16v1.24a2.89,2.89,0,0,0,1.52.42,1.37,1.37,0,0,0,1.52-1.36c0-2.14-4.25-1.36-4.25-4.55,0-1.32,1.21-2.25,3-2.25a6.89,6.89,0,0,1,2.55.47,2.41,2.41,0,0,1,0,.55,5.79,5.79,0,0,1-.2,1.46,2.63,2.63,0,0,1-1.21-.27Z"/><path class="cls-1" d="M79.28,260.83H78a2.12,2.12,0,0,1,.33-.95,5.11,5.11,0,0,1,1.62-.25,3.9,3.9,0,0,1,.93.1v10.68a4.83,4.83,0,0,0,.14,1.28h1.36a1.93,1.93,0,0,1,0,.23,2.25,2.25,0,0,1-.14.72,9.94,9.94,0,0,1-2.44.36,3.08,3.08,0,0,1-.36-1.29h-.09a2.93,2.93,0,0,1-2.72,1.38c-1.57,0-3.36-1.08-3.36-4.34,0-2.89,1.79-4.82,4.38-4.82a3.12,3.12,0,0,1,1.64.43Zm0,4.43a5,5,0,0,0-1.5-.25c-2,0-2.89,1.4-2.89,3.49s1,3.37,2.33,3.37a2.36,2.36,0,0,0,2.06-1.08Z"/><path class="cls-1" d="M85.29,268.72a2.88,2.88,0,0,0,2.94,3.11,8.43,8.43,0,0,0,2.54-.5,2,2,0,0,1-.24,1,6.28,6.28,0,0,1-2.86.73c-2.58,0-4.07-1.92-4.07-4.41s1.65-4.75,4.18-4.75c2.17,0,3.09,1.57,3.09,3.83a7.92,7.92,0,0,1-.05,1Zm4-1.05c.13-1.24-.23-2.75-1.75-2.75-1.28,0-2.11,1.12-2.22,2.75Z"/><path class="cls-1" d="M100.77,265.08a2.93,2.93,0,0,0-1.07-.22c-.94,0-1.48.44-1.48,1.1,0,2,4.21,1.41,4.21,4.54,0,1.87-1.57,2.59-3.26,2.59a5.51,5.51,0,0,1-2.76-.68,3.66,3.66,0,0,1-.09-.86,5.12,5.12,0,0,1,.18-1.28,5.14,5.14,0,0,1,1.3.16v1.24a2.89,2.89,0,0,0,1.52.42,1.37,1.37,0,0,0,1.52-1.36c0-2.14-4.25-1.36-4.25-4.55,0-1.32,1.21-2.25,3-2.25a6.89,6.89,0,0,1,2.55.47,2.41,2.41,0,0,1,0,.55,5.79,5.79,0,0,1-.2,1.46,2.63,2.63,0,0,1-1.21-.27Z"/><path class="cls-1" d="M105.76,268.72a2.88,2.88,0,0,0,2.94,3.11,8.3,8.3,0,0,0,2.53-.5,1.94,1.94,0,0,1-.23,1,6.28,6.28,0,0,1-2.86.73c-2.58,0-4.07-1.92-4.07-4.41s1.65-4.75,4.18-4.75c2.17,0,3.09,1.57,3.09,3.83a7.92,7.92,0,0,1,0,1Zm4-1.05c.13-1.24-.23-2.75-1.75-2.75-1.28,0-2.12,1.12-2.22,2.75Z"/><path class="cls-1" d="M114.42,272.61a1.31,1.31,0,0,1-.87-1.28,1.85,1.85,0,0,1,1-1.53v-.09a2.82,2.82,0,0,1-1.15-2.56,3.19,3.19,0,0,1,3.47-3.22,4.13,4.13,0,0,1,2,.5,4.42,4.42,0,0,1,1.76-.34,2.51,2.51,0,0,1,.77.11,4.54,4.54,0,0,1,.15,1.08h-1.79a3.33,3.33,0,0,1,.52,1.87c0,2-1.3,3.21-3.45,3.21a4.89,4.89,0,0,1-1.47-.2,1.13,1.13,0,0,0-.27.74c0,.7,1,.82,2.63.82,2.09,0,3.7.46,3.7,2.38,0,2.16-2.1,3.22-4.54,3.22-2.13,0-4.07-.88-4.07-2.7a2.07,2.07,0,0,1,1.58-1.92Zm-.06,1.8c0,1.26,1.47,1.89,2.81,1.89s2.76-.63,2.76-1.86c0-.9-.68-1.35-2.55-1.35a9.57,9.57,0,0,1-2.06-.18A1.59,1.59,0,0,0,114.36,274.41Zm2.5-5c1.25,0,1.84-.88,1.84-2.25s-.7-2.25-1.84-2.25-1.88.83-1.88,2.25S115.68,269.4,116.86,269.4Z"/><path class="cls-1" d="M129.15,265.24h-1.3a2.12,2.12,0,0,1,.33-.95,4.86,4.86,0,0,1,1.63-.25,3.82,3.82,0,0,1,.92.1v6.27a5.18,5.18,0,0,0,.14,1.28h1.38a1,1,0,0,1,0,.23,2.24,2.24,0,0,1-.15.72,10.32,10.32,0,0,1-2.48.36,3.75,3.75,0,0,1-.36-1.42h-.09a3.18,3.18,0,0,1-2.87,1.51c-1.41,0-2.66-.45-2.66-3.24,0-1.51,0-3.09.09-4.61h-1.38a2.26,2.26,0,0,1,.33-.93,4.75,4.75,0,0,1,1.65-.27,3.82,3.82,0,0,1,.92.1v5.46c0,1.37.43,2.25,1.66,2.25a3.07,3.07,0,0,0,2.22-1.1Z"/><path class="cls-1" d="M136.39,265.86a2.41,2.41,0,0,1,2.35-1.93,2.51,2.51,0,0,1,.81.14,2.3,2.3,0,0,1,.24,1.08,1.83,1.83,0,0,1-.06.49,2.44,2.44,0,0,0-1.23-.31,2.25,2.25,0,0,0-2.08,1.48v4.83a8.77,8.77,0,0,1,1.79.32,2.29,2.29,0,0,1,0,.83h-4.81a2.73,2.73,0,0,1,.25-.81,6.31,6.31,0,0,1,1.16-.34v-6.4h-1.32a2.12,2.12,0,0,1,.33-.95,4.53,4.53,0,0,1,1.5-.25,3.25,3.25,0,0,1,.85.1v1.72Z"/><path class="cls-1" d="M140.78,265.24a2.12,2.12,0,0,1,.33-.95,5.12,5.12,0,0,1,1.63-.25,4,4,0,0,1,.94.1v7.53a9.73,9.73,0,0,1,1.42.25,2.34,2.34,0,0,1,.06.56,1.62,1.62,0,0,1,0,.31h-4.45A2.48,2.48,0,0,1,141,272a6,6,0,0,1,1.15-.34v-6.4Zm3.17-4.19a1,1,0,0,1-1,1.06.94.94,0,0,1-1-1.06,1,1,0,0,1,1-1A.94.94,0,0,1,144,261.05Z"/><path class="cls-1" d="M152.45,260.83h-1.31a2.12,2.12,0,0,1,.33-.95,5.12,5.12,0,0,1,1.63-.25,3.82,3.82,0,0,1,.92.1v10.68a4.83,4.83,0,0,0,.14,1.28h1.36a1,1,0,0,1,0,.23,2.24,2.24,0,0,1-.15.72A9.94,9.94,0,0,1,153,273a3.24,3.24,0,0,1-.36-1.29h-.09a2.91,2.91,0,0,1-2.71,1.38c-1.58,0-3.37-1.08-3.37-4.34,0-2.89,1.79-4.82,4.38-4.82a3.16,3.16,0,0,1,1.65.43Zm0,4.43A5,5,0,0,0,151,265c-2,0-2.89,1.4-2.89,3.49s1,3.37,2.33,3.37a2.36,2.36,0,0,0,2.06-1.08Z"/><path class="cls-1" d="M161.81,271.72a2.76,2.76,0,0,1-2.53,1.37,2.35,2.35,0,0,1-2.57-2.41c0-1.85,1.58-2.81,3.37-2.81a4.49,4.49,0,0,1,1.68.31v-1c0-1.34-.58-2-1.72-2a5.75,5.75,0,0,0-2.64.88,1.6,1.6,0,0,1-.09-.61,2,2,0,0,1,.2-.9,7.48,7.48,0,0,1,3-.63c2,0,2.83.95,2.83,3.42v3.49a1.66,1.66,0,0,0,.24.94,5.68,5.68,0,0,0,1.25-.22.79.79,0,0,1,0,.2,1.86,1.86,0,0,1-.19.81,4.55,4.55,0,0,1-2,.52,1.92,1.92,0,0,1-.76-1.37Zm0-2.75a6,6,0,0,0-1.27-.14c-1.41,0-2.21.63-2.21,1.58a1.46,1.46,0,0,0,1.65,1.44,2.3,2.3,0,0,0,1.83-.88Z"/><path class="cls-1" d="M172,260.83h-1.31a2.12,2.12,0,0,1,.33-.95,5.17,5.17,0,0,1,1.63-.25,3.82,3.82,0,0,1,.92.1v10.68a5.29,5.29,0,0,0,.14,1.28H175a1,1,0,0,1,0,.23,2,2,0,0,1-.15.72,9.87,9.87,0,0,1-2.44.36,3.24,3.24,0,0,1-.36-1.29H172a2.91,2.91,0,0,1-2.71,1.38c-1.57,0-3.36-1.08-3.36-4.34,0-2.89,1.79-4.82,4.37-4.82a3.16,3.16,0,0,1,1.65.43Zm0,4.43a5,5,0,0,0-1.51-.25c-2,0-2.89,1.4-2.89,3.49s1,3.37,2.33,3.37a2.39,2.39,0,0,0,2.07-1.08Z"/><path class="cls-1" d="M185.12,264.23a6.77,6.77,0,0,1,.09,1h-2.46v6.36a9.51,9.51,0,0,1,1.79.32,2.54,2.54,0,0,1,0,.83h-4.81A2.73,2.73,0,0,1,180,272a6.31,6.31,0,0,1,1.16-.34v-6.36h-1.43a2.92,2.92,0,0,1,.22-.94,8.92,8.92,0,0,1,1.21-.32v-1c0-2.43,1.48-3.41,3.18-3.41a6.69,6.69,0,0,1,2,.31,3.08,3.08,0,0,1,.06.61,4.89,4.89,0,0,1-.26,1.59,2.4,2.4,0,0,1-1.06-.29v-1.21a1.37,1.37,0,0,0-.58-.12c-1,0-1.74.48-1.74,2.34v1.36Z"/><path class="cls-1" d="M192.43,265.24h-1.31a2.12,2.12,0,0,1,.33-.95,4.9,4.9,0,0,1,1.63-.25,3.82,3.82,0,0,1,.92.1v6.27a5.7,5.7,0,0,0,.14,1.28h1.38a1,1,0,0,1,0,.23,2.24,2.24,0,0,1-.15.72,10.32,10.32,0,0,1-2.48.36,4,4,0,0,1-.36-1.42h-.09a3.18,3.18,0,0,1-2.87,1.51c-1.41,0-2.66-.45-2.66-3.24,0-1.51,0-3.09.09-4.61h-1.37a2.11,2.11,0,0,1,.32-.93,4.75,4.75,0,0,1,1.65-.27,3.82,3.82,0,0,1,.92.1v5.46c0,1.37.43,2.25,1.66,2.25a3.09,3.09,0,0,0,2.23-1.1Z"/><path class="cls-1" d="M198.61,268.72a2.9,2.9,0,0,0,2.95,3.11,8.36,8.36,0,0,0,2.53-.5,1.86,1.86,0,0,1-.24,1,6.23,6.23,0,0,1-2.85.73c-2.59,0-4.07-1.92-4.07-4.41s1.64-4.75,4.18-4.75c2.17,0,3.09,1.57,3.09,3.83a8,8,0,0,1-.06,1Zm4-1.05c.13-1.24-.24-2.75-1.76-2.75-1.28,0-2.11,1.12-2.22,2.75Z"/><path class="cls-1" d="M208.65,265.86a2.41,2.41,0,0,1,2.35-1.93,2.6,2.6,0,0,1,.81.14,2.3,2.3,0,0,1,.24,1.08,1.83,1.83,0,0,1-.06.49,2.44,2.44,0,0,0-1.23-.31,2.25,2.25,0,0,0-2.08,1.48v4.83a8.77,8.77,0,0,1,1.79.32,2.29,2.29,0,0,1,0,.83H205.7A2.47,2.47,0,0,1,206,272a6.31,6.31,0,0,1,1.16-.34v-6.4h-1.32a2,2,0,0,1,.33-.95,4.53,4.53,0,0,1,1.5-.25,3.3,3.3,0,0,1,.85.1v1.72Z"/><path class="cls-1" d="M221.29,268.38c0,3-1.61,4.71-4.11,4.71s-4.12-1.62-4.12-4.71c0-2.76,1.77-4.45,4.12-4.45S221.29,265.51,221.29,268.38ZM217.18,272c1.67,0,2.46-1.4,2.46-3.63,0-1.93-1-3.39-2.46-3.39s-2.48,1.35-2.48,3.39S215.65,272,217.18,272Z"/><path class="cls-1" d="M225.82,271.69a6.65,6.65,0,0,1,1.33.23,2.79,2.79,0,0,1,0,.87h-4.34a2.48,2.48,0,0,1,.26-.81,6,6,0,0,1,1.15-.34v-6.4h-1.32a2.12,2.12,0,0,1,.33-.95,4.44,4.44,0,0,1,1.5-.25,3.25,3.25,0,0,1,.85.1v1.32h.18a3.24,3.24,0,0,1,2.91-1.53c1.43,0,2.7.45,2.7,3.24,0,1.51,0,3-.11,4.52a8.28,8.28,0,0,1,1.46.23,2.34,2.34,0,0,1,.06.56,1.62,1.62,0,0,1,0,.31H228.5a2.73,2.73,0,0,1,.25-.81,6,6,0,0,1,1-.34v-4.22c0-1.38-.44-2.27-1.7-2.27a3.21,3.21,0,0,0-2.27,1.16Z"/><path class="cls-1" d="M237.42,260.83a2.11,2.11,0,0,1,.32-.95,5.17,5.17,0,0,1,1.63-.25,3.76,3.76,0,0,1,.92.1v11.94a10.46,10.46,0,0,1,1.47.25,3.06,3.06,0,0,1,.05.56,1.62,1.62,0,0,1,0,.31h-4.48a2.47,2.47,0,0,1,.25-.81,6.31,6.31,0,0,1,1.16-.34V260.83Z"/><path class="cls-1" d="M248.1,271.72a2.76,2.76,0,0,1-2.53,1.37,2.35,2.35,0,0,1-2.57-2.41c0-1.85,1.58-2.81,3.37-2.81a4.45,4.45,0,0,1,1.68.31v-1c0-1.34-.58-2-1.72-2a5.75,5.75,0,0,0-2.64.88,1.6,1.6,0,0,1-.09-.61,2,2,0,0,1,.2-.9,7.48,7.48,0,0,1,2.95-.63c2,0,2.84.95,2.84,3.42v3.49a1.66,1.66,0,0,0,.23.94,5.58,5.58,0,0,0,1.25-.22.79.79,0,0,1,0,.2,2,2,0,0,1-.18.81,4.64,4.64,0,0,1-2,.52,1.92,1.92,0,0,1-.76-1.37Zm0-2.75a6,6,0,0,0-1.27-.14c-1.41,0-2.2.63-2.2,1.58a1.45,1.45,0,0,0,1.64,1.44,2.27,2.27,0,0,0,1.83-.88Z"/><path class="cls-1" d="M256.69,265.08a2.88,2.88,0,0,0-1.06-.22c-.94,0-1.49.44-1.49,1.1,0,2,4.22,1.41,4.22,4.54,0,1.87-1.58,2.59-3.26,2.59a5.48,5.48,0,0,1-2.76-.68,3.63,3.63,0,0,1-.1-.86,5.09,5.09,0,0,1,.19-1.28,5.2,5.2,0,0,1,1.3.16v1.24a2.84,2.84,0,0,0,1.52.42,1.37,1.37,0,0,0,1.52-1.36c0-2.14-4.25-1.36-4.25-4.55,0-1.32,1.21-2.25,3-2.25a6.93,6.93,0,0,1,2.55.47,3.2,3.2,0,0,1,0,.55,5.79,5.79,0,0,1-.2,1.46,2.69,2.69,0,0,1-1.21-.27Z"/><path class="cls-1" d="M14.31,298.69a6.55,6.55,0,0,1,1.32.23,2.79,2.79,0,0,1,0,.87H11.33a2.47,2.47,0,0,1,.25-.81,6.31,6.31,0,0,1,1.16-.34v-6.4H11.42a2.11,2.11,0,0,1,.32-.95,4.45,4.45,0,0,1,1.51-.25,3.3,3.3,0,0,1,.85.1v1.32h.18a3.18,3.18,0,0,1,2.85-1.53,2.13,2.13,0,0,1,2.41,1.64h.09a3.16,3.16,0,0,1,2.91-1.64c1.41,0,2.66.45,2.66,3.24,0,1.53,0,3-.11,4.52a8.14,8.14,0,0,1,1.46.23,2.34,2.34,0,0,1,.06.56,1.62,1.62,0,0,1,0,.31H22.3a2.48,2.48,0,0,1,.26-.81,5.65,5.65,0,0,1,1-.34v-4.22c0-1.38-.42-2.27-1.67-2.27a3.12,3.12,0,0,0-2.2,1.16v5.36a7.39,7.39,0,0,1,1.32.25,2.79,2.79,0,0,1,0,.87H16.9a2.25,2.25,0,0,1,.25-.81,5.65,5.65,0,0,1,1-.34v-4.22c0-1.38-.41-2.27-1.66-2.27a3.09,3.09,0,0,0-2.21,1.16Z"/><path class="cls-1" d="M32.85,298.72a2.77,2.77,0,0,1-2.53,1.37,2.35,2.35,0,0,1-2.57-2.41c0-1.85,1.57-2.81,3.36-2.81a4.45,4.45,0,0,1,1.68.31v-1c0-1.34-.58-2-1.72-2a5.75,5.75,0,0,0-2.63.88,1.42,1.42,0,0,1-.1-.61,2.14,2.14,0,0,1,.2-.9,7.48,7.48,0,0,1,2.95-.63c2,0,2.84.95,2.84,3.42v3.49a1.66,1.66,0,0,0,.23.94,5.49,5.49,0,0,0,1.25-.22.79.79,0,0,1,0,.2,1.86,1.86,0,0,1-.18.81,4.64,4.64,0,0,1-1.95.52,1.86,1.86,0,0,1-.76-1.37Zm0-2.75a5.88,5.88,0,0,0-1.27-.14c-1.41,0-2.2.63-2.2,1.58A1.46,1.46,0,0,0,31,298.85a2.27,2.27,0,0,0,1.83-.88Zm-1.72-5.89a2.52,2.52,0,0,1-.92-.77l2-2.81a3.67,3.67,0,0,1,1.59.63Z"/><path class="cls-1" d="M41.44,292.08a2.93,2.93,0,0,0-1.07-.22c-.94,0-1.48.44-1.48,1.1,0,2,4.21,1.41,4.21,4.54,0,1.87-1.57,2.59-3.25,2.59a5.52,5.52,0,0,1-2.77-.68,3.66,3.66,0,0,1-.09-.86,5.12,5.12,0,0,1,.18-1.28,5.14,5.14,0,0,1,1.3.16v1.24a2.89,2.89,0,0,0,1.52.42,1.37,1.37,0,0,0,1.52-1.36c0-2.14-4.25-1.36-4.25-4.55,0-1.32,1.21-2.25,3-2.25a6.89,6.89,0,0,1,2.55.47,2.41,2.41,0,0,1,0,.55,5.79,5.79,0,0,1-.2,1.46,2.63,2.63,0,0,1-1.21-.27Z"/><path class="cls-1" d="M53.9,292.24a2.37,2.37,0,0,0-1-.27c-1.56,0-2.68,1-2.68,3.39s1.19,3.49,2.82,3.49a7.54,7.54,0,0,0,2.22-.43,2.17,2.17,0,0,1-.25,1,6.48,6.48,0,0,1-2.67.64c-2.34,0-3.84-1.87-3.84-4.39,0-2.79,1.79-4.77,4.43-4.77a4.33,4.33,0,0,1,2.37.65c0,.18,0,.47,0,.64a4.37,4.37,0,0,1-.26,1.54,2.9,2.9,0,0,1-1.13-.24Z"/><path class="cls-1" d="M65.11,295.38c0,3-1.61,4.71-4.11,4.71s-4.12-1.62-4.12-4.71c0-2.76,1.77-4.45,4.12-4.45S65.11,292.51,65.11,295.38ZM61,299c1.67,0,2.46-1.4,2.46-3.63,0-1.93-1-3.39-2.46-3.39s-2.48,1.35-2.48,3.39S59.46,299,61,299Z"/><path class="cls-1" d="M69.65,298.69a6.68,6.68,0,0,1,1.32.23,2.79,2.79,0,0,1,0,.87H66.66a2.48,2.48,0,0,1,.26-.81,6,6,0,0,1,1.15-.34v-6.4H66.75a2.12,2.12,0,0,1,.33-.95,4.44,4.44,0,0,1,1.5-.25,3.2,3.2,0,0,1,.85.1v1.32h.18a3.25,3.25,0,0,1,2.91-1.53c1.43,0,2.69.45,2.69,3.24,0,1.51,0,3-.1,4.52a8.28,8.28,0,0,1,1.46.23,2.38,2.38,0,0,1,.05.56c0,.11,0,.2,0,.31H72.32a2.73,2.73,0,0,1,.25-.81,6,6,0,0,1,1-.34v-4.22c0-1.38-.44-2.27-1.7-2.27a3.17,3.17,0,0,0-2.26,1.16Z"/><path class="cls-1" d="M78.92,289a3.12,3.12,0,0,1,1.21-.29v2.48h2.63a4.89,4.89,0,0,1,0,1H80.13v5c0,1.17.17,1.68,1.18,1.68a6.81,6.81,0,0,0,1.68-.24,1.1,1.1,0,0,1,0,.24,1.6,1.6,0,0,1-.18.7,6,6,0,0,1-2.23.48c-1.39,0-2.09-.75-2.09-2.61,0-1.06,0-3.38.09-5.2H77.35a2.86,2.86,0,0,1,.22-.94,6.16,6.16,0,0,1,1.05-.32Z"/><path class="cls-1" d="M86.88,292.86a2.41,2.41,0,0,1,2.35-1.93,2.51,2.51,0,0,1,.81.14,2.3,2.3,0,0,1,.24,1.08,1.83,1.83,0,0,1-.06.49,2.44,2.44,0,0,0-1.23-.31,2.22,2.22,0,0,0-2.07,1.48v4.83a9,9,0,0,1,1.79.32,2.54,2.54,0,0,1,0,.83H83.93a2.48,2.48,0,0,1,.26-.81,6,6,0,0,1,1.15-.34v-6.4H84a2.12,2.12,0,0,1,.33-.95,4.57,4.57,0,0,1,1.5-.25,3.25,3.25,0,0,1,.85.1v1.72Z"/><path class="cls-1" d="M96.3,298.72a2.77,2.77,0,0,1-2.53,1.37,2.35,2.35,0,0,1-2.57-2.41c0-1.85,1.57-2.81,3.36-2.81a4.54,4.54,0,0,1,1.69.31v-1c0-1.34-.58-2-1.72-2a5.75,5.75,0,0,0-2.64.88,1.6,1.6,0,0,1-.09-.61,2,2,0,0,1,.2-.9,7.43,7.43,0,0,1,2.94-.63c2,0,2.84.95,2.84,3.42v3.49a1.58,1.58,0,0,0,.24.94,5.68,5.68,0,0,0,1.25-.22,1.56,1.56,0,0,1,0,.2,1.86,1.86,0,0,1-.18.81,4.64,4.64,0,0,1-1.95.52,1.89,1.89,0,0,1-.76-1.37Zm0-2.75a5.86,5.86,0,0,0-1.26-.14c-1.41,0-2.21.63-2.21,1.58a1.46,1.46,0,0,0,1.65,1.44,2.27,2.27,0,0,0,1.82-.88Z"/><path class="cls-1" d="M101.53,289a3.12,3.12,0,0,1,1.21-.29v2.48h2.62a4.32,4.32,0,0,1,0,1h-2.67v5c0,1.17.16,1.68,1.17,1.68a6.81,6.81,0,0,0,1.68-.24,1.1,1.1,0,0,1,0,.24,1.6,1.6,0,0,1-.18.7,5.92,5.92,0,0,1-2.22.48c-1.39,0-2.1-.75-2.1-2.61,0-1.06,0-3.38.09-5.2H100a2.86,2.86,0,0,1,.22-.94,6.44,6.44,0,0,1,1-.32Z"/><path class="cls-1" d="M111.8,298.72a2.77,2.77,0,0,1-2.53,1.37,2.35,2.35,0,0,1-2.57-2.41c0-1.85,1.57-2.81,3.36-2.81a4.45,4.45,0,0,1,1.68.31v-1c0-1.34-.58-2-1.72-2a5.75,5.75,0,0,0-2.63.88,1.42,1.42,0,0,1-.1-.61,2.14,2.14,0,0,1,.2-.9,7.48,7.48,0,0,1,3-.63c2,0,2.84.95,2.84,3.42v3.49a1.66,1.66,0,0,0,.23.94,5.49,5.49,0,0,0,1.25-.22.79.79,0,0,1,0,.2,1.86,1.86,0,0,1-.18.81,4.64,4.64,0,0,1-1.95.52,1.89,1.89,0,0,1-.76-1.37Zm0-2.75a5.86,5.86,0,0,0-1.26-.14c-1.42,0-2.21.63-2.21,1.58a1.46,1.46,0,0,0,1.64,1.44,2.27,2.27,0,0,0,1.83-.88Z"/><path class="cls-1" d="M121.94,287.83h-1.3a2.11,2.11,0,0,1,.32-.95,5.22,5.22,0,0,1,1.63-.25,3.76,3.76,0,0,1,.92.1v10.68a4.83,4.83,0,0,0,.15,1.28H125a1.93,1.93,0,0,1,0,.23,2.25,2.25,0,0,1-.14.72,9.94,9.94,0,0,1-2.44.36,3.08,3.08,0,0,1-.36-1.29H122a2.93,2.93,0,0,1-2.72,1.38c-1.57,0-3.36-1.08-3.36-4.34,0-2.89,1.79-4.82,4.38-4.82a3.15,3.15,0,0,1,1.64.43Zm0,4.43a5,5,0,0,0-1.5-.25c-2,0-2.89,1.4-2.89,3.49s1,3.37,2.33,3.37a2.36,2.36,0,0,0,2.06-1.08Z"/><path class="cls-1" d="M131.31,298.72a2.77,2.77,0,0,1-2.53,1.37,2.35,2.35,0,0,1-2.57-2.41c0-1.85,1.57-2.81,3.36-2.81a4.45,4.45,0,0,1,1.68.31v-1c0-1.34-.57-2-1.71-2a5.75,5.75,0,0,0-2.64.88,1.43,1.43,0,0,1-.09-.61,2.15,2.15,0,0,1,.19-.9,7.48,7.48,0,0,1,2.95-.63c2,0,2.84.95,2.84,3.42v3.49a1.58,1.58,0,0,0,.24.94,5.51,5.51,0,0,0,1.24-.22.79.79,0,0,1,0,.2,1.86,1.86,0,0,1-.18.81,4.64,4.64,0,0,1-2,.52,1.89,1.89,0,0,1-.76-1.37Zm0-2.75a5.86,5.86,0,0,0-1.26-.14c-1.41,0-2.21.63-2.21,1.58a1.46,1.46,0,0,0,1.65,1.44,2.27,2.27,0,0,0,1.82-.88Z"/><path class="cls-1" d="M139.9,292.08a2.93,2.93,0,0,0-1.07-.22c-.94,0-1.48.44-1.48,1.1,0,2,4.21,1.41,4.21,4.54,0,1.87-1.57,2.59-3.25,2.59a5.55,5.55,0,0,1-2.77-.68,4.29,4.29,0,0,1-.09-.86,5.12,5.12,0,0,1,.18-1.28,5.14,5.14,0,0,1,1.3.16v1.24a2.89,2.89,0,0,0,1.52.42,1.37,1.37,0,0,0,1.52-1.36c0-2.14-4.25-1.36-4.25-4.55,0-1.32,1.21-2.25,3-2.25a6.89,6.89,0,0,1,2.55.47,2.41,2.41,0,0,1,0,.55,5.79,5.79,0,0,1-.2,1.46,2.66,2.66,0,0,1-1.21-.27Z"/><path class="cls-1" d="M149.34,302.79a9.43,9.43,0,0,1,1.71.33,2.27,2.27,0,0,1,0,.83h-4.74a2.48,2.48,0,0,1,.26-.81,7.07,7.07,0,0,1,1.15-.35V292.24h-1.33a2,2,0,0,1,.32-.95,4.62,4.62,0,0,1,1.5-.25,3.2,3.2,0,0,1,.85.1v1.18h.18a2.79,2.79,0,0,1,2.66-1.39c1.59,0,3.42,1.08,3.42,4.34,0,2.9-1.83,4.82-4.43,4.82a3.07,3.07,0,0,1-1.59-.43Zm0-4a4.67,4.67,0,0,0,1.5.25c2,0,2.89-1.42,2.89-3.51s-1-3.38-2.33-3.38a2.38,2.38,0,0,0-2.06,1.1Z"/><path class="cls-1" d="M165.36,295.38c0,3-1.61,4.71-4.11,4.71s-4.12-1.62-4.12-4.71c0-2.76,1.77-4.45,4.12-4.45S165.36,292.51,165.36,295.38ZM161.25,299c1.67,0,2.46-1.4,2.46-3.63,0-1.93-1-3.39-2.46-3.39s-2.47,1.35-2.47,3.39S159.72,299,161.25,299Z"/><path class="cls-1" d="M169.86,292.86a2.42,2.42,0,0,1,2.35-1.93,2.62,2.62,0,0,1,.82.14,2.45,2.45,0,0,1,.23,1.08,2.38,2.38,0,0,1,0,.49,2.5,2.5,0,0,0-1.23-.31,2.24,2.24,0,0,0-2.08,1.48v4.83a9,9,0,0,1,1.79.32,2.54,2.54,0,0,1,0,.83h-4.81a2.48,2.48,0,0,1,.26-.81,6.2,6.2,0,0,1,1.15-.34v-6.4H167a2.12,2.12,0,0,1,.33-.95,4.62,4.62,0,0,1,1.5-.25,3.2,3.2,0,0,1,.85.1v1.72Z"/><path class="cls-1" d="M179.77,295.72a2.9,2.9,0,0,0,2.95,3.11,8.43,8.43,0,0,0,2.53-.5,1.86,1.86,0,0,1-.24,1,6.23,6.23,0,0,1-2.85.73c-2.59,0-4.07-1.92-4.07-4.41s1.64-4.75,4.18-4.75c2.17,0,3.09,1.57,3.09,3.83a8,8,0,0,1-.06,1Zm4-1.05c.13-1.24-.24-2.75-1.76-2.75-1.28,0-2.11,1.12-2.22,2.75Z"/><path class="cls-1" d="M186.79,287.83a2.11,2.11,0,0,1,.32-.95,5.17,5.17,0,0,1,1.63-.25,3.82,3.82,0,0,1,.92.1v11.94a10.46,10.46,0,0,1,1.47.25,3.06,3.06,0,0,1,.05.56,1.62,1.62,0,0,1,0,.31h-4.48a2.47,2.47,0,0,1,.25-.81,6.31,6.31,0,0,1,1.16-.34V287.83Z"/><path class="cls-1" d="M195.77,299.79a4.6,4.6,0,0,1,.22-1,11.22,11.22,0,0,1,1.41-.23V288.44a12.12,12.12,0,0,1-1.34-.12,4,4,0,0,1,0-1h8.57v2.65a4.91,4.91,0,0,1-1-.13,9.93,9.93,0,0,1-.21-1.42h-4.31V293h3.42a6.15,6.15,0,0,1,.18-1,4.66,4.66,0,0,1,1-.14v3.31a3.28,3.28,0,0,1-1-.07,7.14,7.14,0,0,1-.17-1h-3.42v4.61h4.38a14.46,14.46,0,0,1,.22-1.55,5.57,5.57,0,0,1,1.12-.12v2.81Z"/><path class="cls-1" d="M210.84,292.08a2.93,2.93,0,0,0-1.07-.22c-.94,0-1.48.44-1.48,1.1,0,2,4.21,1.41,4.21,4.54,0,1.87-1.57,2.59-3.25,2.59a5.55,5.55,0,0,1-2.77-.68,3.66,3.66,0,0,1-.09-.86,5.12,5.12,0,0,1,.18-1.28,5.14,5.14,0,0,1,1.3.16v1.24a2.89,2.89,0,0,0,1.52.42,1.37,1.37,0,0,0,1.52-1.36c0-2.14-4.25-1.36-4.25-4.55,0-1.32,1.21-2.25,3-2.25a6.89,6.89,0,0,1,2.55.47,2.41,2.41,0,0,1,0,.55,5.79,5.79,0,0,1-.2,1.46,2.63,2.63,0,0,1-1.21-.27Z"/><path class="cls-1" d="M215.25,289a3.12,3.12,0,0,1,1.21-.29v2.48h2.62a4.83,4.83,0,0,1,.06,1h-2.68v5c0,1.17.16,1.68,1.18,1.68a6.87,6.87,0,0,0,1.68-.24,1.1,1.1,0,0,1,0,.24,1.6,1.6,0,0,1-.19.7,5.92,5.92,0,0,1-2.22.48c-1.39,0-2.1-.75-2.1-2.61,0-1.06,0-3.38.09-5.2h-1.24a2.84,2.84,0,0,1,.21-.94,6.44,6.44,0,0,1,1.05-.32Z"/><path class="cls-1" d="M225.52,298.72a2.77,2.77,0,0,1-2.53,1.37,2.35,2.35,0,0,1-2.57-2.41c0-1.85,1.57-2.81,3.36-2.81a4.54,4.54,0,0,1,1.69.31v-1c0-1.34-.58-2-1.72-2a5.75,5.75,0,0,0-2.64.88,1.6,1.6,0,0,1-.09-.61,2,2,0,0,1,.2-.9,7.43,7.43,0,0,1,2.94-.63c2,0,2.84.95,2.84,3.42v3.49a1.58,1.58,0,0,0,.24.94,5.51,5.51,0,0,0,1.24-.22.79.79,0,0,1,0,.2,1.86,1.86,0,0,1-.18.81,4.64,4.64,0,0,1-1.95.52,1.89,1.89,0,0,1-.76-1.37Zm0-2.75a5.86,5.86,0,0,0-1.26-.14c-1.41,0-2.21.63-2.21,1.58a1.46,1.46,0,0,0,1.65,1.44,2.27,2.27,0,0,0,1.82-.88Z"/><path class="cls-1" d="M235.66,287.83h-1.3a2.12,2.12,0,0,1,.33-.95,5.11,5.11,0,0,1,1.62-.25,3.84,3.84,0,0,1,.93.1v10.68a4.83,4.83,0,0,0,.14,1.28h1.36a1,1,0,0,1,0,.23,2.24,2.24,0,0,1-.15.72,9.94,9.94,0,0,1-2.44.36,3.08,3.08,0,0,1-.36-1.29h-.09a2.93,2.93,0,0,1-2.71,1.38c-1.58,0-3.37-1.08-3.37-4.34,0-2.89,1.79-4.82,4.38-4.82a3.12,3.12,0,0,1,1.64.43Zm0,4.43a5,5,0,0,0-1.5-.25c-2,0-2.89,1.4-2.89,3.49s1,3.37,2.33,3.37a2.36,2.36,0,0,0,2.06-1.08Z"/><path class="cls-1" d="M248.21,295.38c0,3-1.61,4.71-4.1,4.71-2.64,0-4.12-1.62-4.12-4.71,0-2.76,1.77-4.45,4.12-4.45S248.21,292.51,248.21,295.38Zm-4.1,3.63c1.66,0,2.46-1.4,2.46-3.63,0-1.93-1-3.39-2.46-3.39s-2.48,1.35-2.48,3.39S242.57,299,244.11,299Z"/><path class="cls-1" d="M3.31,322.72a2.9,2.9,0,0,0,2.95,3.11,8.43,8.43,0,0,0,2.53-.5,2,2,0,0,1-.24,1,6.23,6.23,0,0,1-2.85.73c-2.59,0-4.07-1.92-4.07-4.41s1.64-4.75,4.17-4.75c2.17,0,3.1,1.57,3.1,3.83a8,8,0,0,1-.06,1Zm4-1.05c.12-1.24-.24-2.75-1.76-2.75-1.28,0-2.11,1.12-2.22,2.75Z"/><path class="cls-1" d="M13.38,325.69a6.55,6.55,0,0,1,1.32.23,2.79,2.79,0,0,1,0,.87H10.4a2.25,2.25,0,0,1,.25-.81,6.31,6.31,0,0,1,1.16-.34v-6.4H10.49a2.11,2.11,0,0,1,.32-.95,4.44,4.44,0,0,1,1.5-.25,3.2,3.2,0,0,1,.85.1v1.32h.18a3.27,3.27,0,0,1,2.92-1.53c1.42,0,2.69.45,2.69,3.24,0,1.51,0,3-.11,4.52a8.41,8.41,0,0,1,1.47.23,3.06,3.06,0,0,1,.05.56,1.62,1.62,0,0,1,0,.31H16.06a2.25,2.25,0,0,1,.25-.81,5.65,5.65,0,0,1,1-.34v-4.22c0-1.38-.43-2.27-1.7-2.27a3.19,3.19,0,0,0-2.26,1.16Z"/><path class="cls-1" d="M22.66,316a3.12,3.12,0,0,1,1.21-.29v2.48h2.62a4.83,4.83,0,0,1,.06,1H23.87v5c0,1.17.16,1.68,1.17,1.68a6.88,6.88,0,0,0,1.69-.24,2.18,2.18,0,0,1,0,.24,1.6,1.6,0,0,1-.18.7,5.92,5.92,0,0,1-2.22.48c-1.39,0-2.1-.75-2.1-2.61,0-1.06,0-3.38.09-5.2H21.08a2.86,2.86,0,0,1,.22-.94,6.44,6.44,0,0,1,1.05-.32Z"/><path class="cls-1" d="M30.61,319.86A2.43,2.43,0,0,1,33,317.93a2.62,2.62,0,0,1,.82.14,2.31,2.31,0,0,1,.23,1.08,1.85,1.85,0,0,1,0,.49,2.5,2.5,0,0,0-1.23-.31,2.24,2.24,0,0,0-2.08,1.48v4.83a8.9,8.9,0,0,1,1.79.32,2.84,2.84,0,0,1,0,.83H27.67a2.25,2.25,0,0,1,.25-.81,6.31,6.31,0,0,1,1.16-.34v-6.4H27.76a2.11,2.11,0,0,1,.32-.95,4.62,4.62,0,0,1,1.5-.25,3.2,3.2,0,0,1,.85.1v1.72Z"/><path class="cls-1" d="M36.71,322.72a2.89,2.89,0,0,0,2.95,3.11,8.43,8.43,0,0,0,2.53-.5,2,2,0,0,1-.24,1,6.23,6.23,0,0,1-2.85.73c-2.59,0-4.07-1.92-4.07-4.41s1.64-4.75,4.17-4.75c2.17,0,3.1,1.57,3.1,3.83a8,8,0,0,1-.06,1Zm4-1.05c.12-1.24-.24-2.75-1.76-2.75-1.28,0-2.11,1.12-2.22,2.75Z"/><path class="cls-1" d="M49.69,325.47c1.76,0,3.71-.07,5.61-.21a1.46,1.46,0,0,1,0,.3,8.78,8.78,0,0,1-.11,1.23H48l-.23-1.3c1.55-1.39,5.44-3.85,5.44-5.94,0-.94-.76-1.37-1.86-1.37a4.86,4.86,0,0,0-2,.47v1.49a2.82,2.82,0,0,1-1.23.27,6.11,6.11,0,0,1-.24-1.69c0-.23,0-.59,0-.81a7.48,7.48,0,0,1,3.53-.9c2,0,3.5.63,3.5,2.29,0,2.66-4,5-5.26,6.05Z"/><path class="cls-1" d="M66.2,321.93c0,3.4-1.79,5.22-4.68,5.22s-4.7-1.73-4.7-5.22c0-3.05,1.93-4.92,4.7-4.92S66.2,318.72,66.2,321.93ZM61.52,326c2,0,3-1.51,3-4.08,0-2.22-1.12-3.8-3-3.8s-3,1.46-3,3.8C58.53,324.45,59.66,326,61.52,326Z"/><path class="cls-1" d="M77.61,321.93c0,3.4-1.79,5.22-4.68,5.22s-4.7-1.73-4.7-5.22c0-3.05,1.93-4.92,4.7-4.92S77.61,318.72,77.61,321.93ZM72.93,326c2,0,3-1.51,3-4.08,0-2.22-1.12-3.8-3-3.8s-3,1.46-3,3.8C69.94,324.45,71.07,326,72.93,326Z"/><path class="cls-1" d="M86,328.44a5.1,5.1,0,0,1-1.56,0v-3.13H79.24l-.25-.94a73.1,73.1,0,0,1,5.15-7.31l1.83.29v6.75h1.6a3.27,3.27,0,0,1,.1.78,2.74,2.74,0,0,1,0,.43H86ZM84.41,320a14.07,14.07,0,0,1,.09-1.43h-.13A49.2,49.2,0,0,0,80.58,324v.13c.27,0,.77,0,1.14,0h2.69Z"/><path class="cls-1" d="M96.82,325.8c.1-.44.34-1.37.48-1.8l.91-2.87a12.14,12.14,0,0,1,.67-1.74,5.12,5.12,0,0,1-1.09-.24,3.06,3.06,0,0,1-.14-.92h3.45a3.61,3.61,0,0,1-.18,1,4,4,0,0,1-.85.17l-1,3a54.08,54.08,0,0,1-2,5.31,6.41,6.41,0,0,1-3.66,3.42,2.44,2.44,0,0,1-.67-1.33A4.9,4.9,0,0,0,96,327.13l-3-7.65a4,4,0,0,1-.94-.31,4,4,0,0,1-.18-.94H96a4,4,0,0,1-.15.94,9.07,9.07,0,0,1-1.32.22,11.23,11.23,0,0,1,.65,1.51l1.14,3.15a12.07,12.07,0,0,1,.4,1.75Z"/><path class="cls-1" d="M107.77,325.47c1.76,0,3.71-.07,5.61-.21a1.46,1.46,0,0,1,0,.3,8.78,8.78,0,0,1-.11,1.23h-7.22l-.23-1.3c1.55-1.39,5.44-3.85,5.44-5.94,0-.94-.76-1.37-1.86-1.37a4.9,4.9,0,0,0-2,.47v1.49a2.82,2.82,0,0,1-1.23.27,6.51,6.51,0,0,1-.23-1.69c0-.23,0-.59,0-.81a7.48,7.48,0,0,1,3.53-.9c2,0,3.51.63,3.51,2.29,0,2.66-4,5-5.27,6.05Z"/><path class="cls-1" d="M124.28,321.93c0,3.4-1.79,5.22-4.68,5.22s-4.7-1.73-4.7-5.22c0-3.05,1.93-4.92,4.7-4.92S124.28,318.72,124.28,321.93ZM119.6,326c2,0,3-1.51,3-4.08,0-2.22-1.13-3.8-3-3.8s-3,1.46-3,3.8C116.62,324.45,117.74,326,119.6,326Z"/><path class="cls-1" d="M128.5,318.52l-2.61.33a3.09,3.09,0,0,1,.29-1.12,16.59,16.59,0,0,1,3.94-.72v8.52a17.69,17.69,0,0,1,2.1.3,2.76,2.76,0,0,1,.09.71,1.24,1.24,0,0,1,0,.25h-6a3.56,3.56,0,0,1,.33-.9,14,14,0,0,1,1.88-.45Z"/><path class="cls-1" d="M136.22,320.79a2.81,2.81,0,0,1-2.08-2.52c0-2.09,1.83-2.95,3.56-2.95s3.51.72,3.51,2.7a3.07,3.07,0,0,1-2.08,2.81v.09a3.14,3.14,0,0,1,2.31,2.79c0,2.3-1.86,3.44-3.92,3.44-1.75,0-3.87-.69-3.87-3a3.48,3.48,0,0,1,2.57-3.24Zm-1,3a2.11,2.11,0,0,0,2.39,2.3,2,2,0,0,0,2.21-2.21c0-1.34-1.34-2-2.7-2.58A2.63,2.63,0,0,0,135.24,323.82Zm4.43-5.69a1.86,1.86,0,0,0-2.08-1.88,1.79,1.79,0,0,0-1.93,1.8c0,1.12,1.19,1.72,2.49,2.31A2.45,2.45,0,0,0,139.67,318.13Z"/><path class="cls-1" d="M143.43,326.3a3.92,3.92,0,0,1,.6-1.21,3.71,3.71,0,0,1,.74-.07,4.22,4.22,0,0,1,1.34.22,16,16,0,0,1-1.64,4.25,3.18,3.18,0,0,1-1-.47,15.25,15.25,0,0,0,.68-2.54Z"/><path class="cls-1" d="M157.57,314.83h-1.3a2.12,2.12,0,0,1,.33-.95,5.12,5.12,0,0,1,1.63-.25,3.82,3.82,0,0,1,.92.1v10.68a4.83,4.83,0,0,0,.14,1.28h1.36a1,1,0,0,1,0,.23,2.24,2.24,0,0,1-.15.72,9.94,9.94,0,0,1-2.44.36,3.24,3.24,0,0,1-.36-1.29h-.09a2.91,2.91,0,0,1-2.71,1.38c-1.58,0-3.37-1.08-3.37-4.34,0-2.89,1.79-4.82,4.38-4.82a3.12,3.12,0,0,1,1.64.43Zm0,4.43a5,5,0,0,0-1.5-.25c-2,0-2.89,1.4-2.89,3.49s1,3.37,2.33,3.37a2.36,2.36,0,0,0,2.06-1.08Z"/><path class="cls-1" d="M163.58,322.72a2.89,2.89,0,0,0,2.95,3.11,8.43,8.43,0,0,0,2.53-.5,2,2,0,0,1-.24,1,6.23,6.23,0,0,1-2.85.73c-2.59,0-4.07-1.92-4.07-4.41s1.64-4.75,4.17-4.75c2.17,0,3.1,1.57,3.1,3.83a8,8,0,0,1-.06,1Zm4-1.05c.12-1.24-.24-2.75-1.76-2.75-1.28,0-2.11,1.12-2.22,2.75Z"/><path class="cls-1" d="M180.9,319.24h-1.3a2,2,0,0,1,.33-.95,4.84,4.84,0,0,1,1.62-.25,3.9,3.9,0,0,1,.93.1v6.27a5.18,5.18,0,0,0,.14,1.28H184a1,1,0,0,1,0,.23,2.25,2.25,0,0,1-.14.72,10.39,10.39,0,0,1-2.48.36,3.58,3.58,0,0,1-.36-1.42h-.09a3.22,3.22,0,0,1-2.88,1.51c-1.41,0-2.66-.45-2.66-3.24,0-1.51,0-3.09.09-4.61h-1.37a2.26,2.26,0,0,1,.33-.93,4.65,4.65,0,0,1,1.64-.27,3.76,3.76,0,0,1,.92.1v5.46c0,1.37.44,2.25,1.67,2.25a3.09,3.09,0,0,0,2.22-1.1Z"/><path class="cls-1" d="M188.17,325.69a6.55,6.55,0,0,1,1.32.23,2.79,2.79,0,0,1,0,.87h-4.34a2.25,2.25,0,0,1,.25-.81,6.31,6.31,0,0,1,1.16-.34v-6.4h-1.32a2.11,2.11,0,0,1,.32-.95,4.44,4.44,0,0,1,1.5-.25,3.2,3.2,0,0,1,.85.1v1.32h.19a3.24,3.24,0,0,1,2.91-1.53c1.43,0,2.69.45,2.69,3.24,0,1.51,0,3-.11,4.52a8.41,8.41,0,0,1,1.47.23,3.06,3.06,0,0,1,.05.56,1.62,1.62,0,0,1,0,.31h-4.28a2.25,2.25,0,0,1,.25-.81,5.65,5.65,0,0,1,1-.34v-4.22c0-1.38-.43-2.27-1.7-2.27a3.19,3.19,0,0,0-2.26,1.16Z"/><path class="cls-1" d="M201.15,316a3.17,3.17,0,0,1,1.22-.29v2.48H205a4.89,4.89,0,0,1,0,1h-2.67v5c0,1.17.16,1.68,1.17,1.68a6.81,6.81,0,0,0,1.68-.24,1.1,1.1,0,0,1,0,.24,1.6,1.6,0,0,1-.18.7,5.92,5.92,0,0,1-2.22.48c-1.4,0-2.1-.75-2.1-2.61,0-1.06,0-3.38.09-5.2h-1.25a2.86,2.86,0,0,1,.22-.94,6.16,6.16,0,0,1,1-.32Z"/><path class="cls-1" d="M214.25,322.38c0,3-1.61,4.71-4.11,4.71s-4.12-1.62-4.12-4.71c0-2.76,1.77-4.45,4.12-4.45S214.25,319.51,214.25,322.38ZM210.14,326c1.67,0,2.46-1.4,2.46-3.63,0-1.93-1-3.39-2.46-3.39s-2.48,1.35-2.48,3.39S208.61,326,210.14,326Z"/><path class="cls-1" d="M217.12,316a3.12,3.12,0,0,1,1.21-.29v2.48H221a4.89,4.89,0,0,1,0,1h-2.68v5c0,1.17.17,1.68,1.18,1.68a6.81,6.81,0,0,0,1.68-.24,1.1,1.1,0,0,1,0,.24,1.6,1.6,0,0,1-.18.7,5.93,5.93,0,0,1-2.23.48c-1.39,0-2.09-.75-2.09-2.61,0-1.06,0-3.38.09-5.2h-1.25a2.86,2.86,0,0,1,.22-.94,6.32,6.32,0,0,1,1-.32Z"/><path class="cls-1" d="M227.39,325.72a2.76,2.76,0,0,1-2.53,1.37,2.35,2.35,0,0,1-2.57-2.41c0-1.85,1.58-2.81,3.37-2.81a4.45,4.45,0,0,1,1.68.31v-1c0-1.34-.58-2-1.72-2a5.75,5.75,0,0,0-2.64.88,1.6,1.6,0,0,1-.09-.61,2,2,0,0,1,.2-.9,7.48,7.48,0,0,1,2.95-.63c2,0,2.84.95,2.84,3.42v3.49a1.66,1.66,0,0,0,.23.94,5.58,5.58,0,0,0,1.25-.22.79.79,0,0,1,0,.2,1.86,1.86,0,0,1-.18.81,4.64,4.64,0,0,1-2,.52,1.92,1.92,0,0,1-.76-1.37Zm0-2.75a6,6,0,0,0-1.27-.14c-1.41,0-2.2.63-2.2,1.58a1.45,1.45,0,0,0,1.64,1.44,2.27,2.27,0,0,0,1.83-.88Z"/><path class="cls-1" d="M231.23,314.83a2.11,2.11,0,0,1,.32-.95,5.17,5.17,0,0,1,1.63-.25,3.76,3.76,0,0,1,.92.1v11.94a10.21,10.21,0,0,1,1.47.25,3.06,3.06,0,0,1,.05.56,1.62,1.62,0,0,1,0,.31h-4.48a2.47,2.47,0,0,1,.25-.81,6.31,6.31,0,0,1,1.16-.34V314.83Z"/><path class="cls-1" d="M246.6,314.83h-1.3a2,2,0,0,1,.32-.95,5.17,5.17,0,0,1,1.63-.25,3.82,3.82,0,0,1,.92.1v10.68a5.29,5.29,0,0,0,.14,1.28h1.36a1,1,0,0,1,0,.23,2.25,2.25,0,0,1-.14.72,10,10,0,0,1-2.45.36,3.24,3.24,0,0,1-.36-1.29h-.09a2.91,2.91,0,0,1-2.71,1.38c-1.57,0-3.36-1.08-3.36-4.34,0-2.89,1.79-4.82,4.37-4.82a3.16,3.16,0,0,1,1.65.43Zm0,4.43a5,5,0,0,0-1.51-.25c-2,0-2.89,1.4-2.89,3.49s1,3.37,2.33,3.37a2.38,2.38,0,0,0,2.07-1.08Z"/><path class="cls-1" d="M252.6,322.72a2.9,2.9,0,0,0,3,3.11,8.36,8.36,0,0,0,2.53-.5,1.94,1.94,0,0,1-.23,1,6.31,6.31,0,0,1-2.86.73c-2.59,0-4.07-1.92-4.07-4.41s1.64-4.75,4.18-4.75c2.17,0,3.09,1.57,3.09,3.83a8,8,0,0,1-.06,1Zm4-1.05c.13-1.24-.24-2.75-1.76-2.75-1.28,0-2.11,1.12-2.22,2.75Z"/><path class="cls-1" d="M29.89,345.52l-2.6.33a2.74,2.74,0,0,1,.29-1.12,16.49,16.49,0,0,1,3.94-.72v8.52a18.29,18.29,0,0,1,2.1.3,3.29,3.29,0,0,1,.09.71,1.24,1.24,0,0,1,0,.25h-6a3.56,3.56,0,0,1,.33-.9,16.26,16.26,0,0,1,1.88-.45Z"/><path class="cls-1" d="M37.61,347.79a2.81,2.81,0,0,1-2.08-2.52c0-2.09,1.83-2.95,3.56-2.95s3.51.72,3.51,2.7a3.06,3.06,0,0,1-2.08,2.81v.09a3.15,3.15,0,0,1,2.32,2.79c0,2.3-1.86,3.44-3.93,3.44-1.75,0-3.87-.69-3.87-3a3.48,3.48,0,0,1,2.57-3.24Zm-1,3a2.1,2.1,0,0,0,2.38,2.3,2,2,0,0,0,2.21-2.21c0-1.34-1.34-2-2.7-2.58A2.63,2.63,0,0,0,36.64,350.82Zm4.43-5.69A1.86,1.86,0,0,0,39,343.25a1.79,1.79,0,0,0-1.94,1.8c0,1.12,1.19,1.72,2.5,2.31A2.47,2.47,0,0,0,41.07,345.13Z"/><path class="cls-1" d="M51.16,355.44a5.1,5.1,0,0,1-1.56,0v-3.13H44.43l-.25-.94a73.1,73.1,0,0,1,5.15-7.31l1.83.29v6.75h1.6a3.27,3.27,0,0,1,.1.78,2.74,2.74,0,0,1,0,.43H51.16ZM49.6,347a14.07,14.07,0,0,1,.09-1.43h-.13A49.2,49.2,0,0,0,45.77,351v.13c.27,0,.77,0,1.14,0H49.6Z"/><path class="cls-1" d="M60.32,356.79a9.72,9.72,0,0,1,1.72.33,2.52,2.52,0,0,1,0,.83H57.34a2.73,2.73,0,0,1,.25-.81,7.19,7.19,0,0,1,1.16-.35V346.24H57.41a2.12,2.12,0,0,1,.33-.95,4.57,4.57,0,0,1,1.5-.25,3.2,3.2,0,0,1,.85.1v1.18h.18a2.79,2.79,0,0,1,2.66-1.39c1.59,0,3.42,1.08,3.42,4.34,0,2.9-1.83,4.82-4.43,4.82a3.11,3.11,0,0,1-1.6-.43Zm0-4a4.62,4.62,0,0,0,1.5.25c2,0,2.89-1.42,2.89-3.51s-1-3.38-2.33-3.38a2.38,2.38,0,0,0-2.06,1.1Z"/><path class="cls-1" d="M76.35,349.38c0,3-1.61,4.71-4.11,4.71s-4.12-1.62-4.12-4.71c0-2.76,1.77-4.45,4.12-4.45S76.35,346.51,76.35,349.38ZM72.24,353c1.66,0,2.46-1.4,2.46-3.63,0-1.93-1-3.39-2.46-3.39s-2.48,1.35-2.48,3.39S70.7,353,72.24,353Z"/><path class="cls-1" d="M82.58,346.08a2.83,2.83,0,0,0-1.06-.22c-.94,0-1.49.44-1.49,1.1,0,2,4.22,1.41,4.22,4.54,0,1.87-1.58,2.59-3.26,2.59a5.48,5.48,0,0,1-2.76-.68,3.66,3.66,0,0,1-.09-.86,5.12,5.12,0,0,1,.18-1.28,5.2,5.2,0,0,1,1.3.16v1.24a2.86,2.86,0,0,0,1.52.42,1.37,1.37,0,0,0,1.52-1.36c0-2.14-4.25-1.36-4.25-4.55,0-1.32,1.21-2.25,3-2.25a6.93,6.93,0,0,1,2.55.47,3.2,3.2,0,0,1,0,.55,6.31,6.31,0,0,1-.19,1.46,2.7,2.7,0,0,1-1.22-.27Z"/><path class="cls-1" d="M85.77,346.24a2,2,0,0,1,.32-.95,5.17,5.17,0,0,1,1.63-.25,4,4,0,0,1,.94.1v7.53a9.88,9.88,0,0,1,1.43.25,3.06,3.06,0,0,1,0,.56,1.62,1.62,0,0,1,0,.31H85.68a2.25,2.25,0,0,1,.25-.81,6.31,6.31,0,0,1,1.16-.34v-6.4Zm3.16-4.19a1,1,0,0,1-1,1.06.93.93,0,0,1-1-1.06,1,1,0,0,1,1-1A.93.93,0,0,1,88.93,342.05Z"/><path class="cls-1" d="M92,341.83H90.7a2.12,2.12,0,0,1,.33-.95,5.22,5.22,0,0,1,1.63-.25,3.82,3.82,0,0,1,.92.1v3.48c0,.7,0,1.4-.09,2.11h.18a2.51,2.51,0,0,1,2.57-1.39c1.57,0,3.36,1.08,3.36,4.34,0,2.9-1.79,4.82-4.38,4.82a7.34,7.34,0,0,1-3.21-.72Zm1.55,11a5,5,0,0,0,1.5.23c2,0,2.89-1.42,2.89-3.51s-1-3.37-2.33-3.37a2.39,2.39,0,0,0-2.06,1.08Z"/><path class="cls-1" d="M101.08,341.83a2.12,2.12,0,0,1,.33-.95,5.12,5.12,0,0,1,1.63-.25,3.82,3.82,0,0,1,.92.1v11.94a10.31,10.31,0,0,1,1.46.25,2.34,2.34,0,0,1,.06.56,1.62,1.62,0,0,1,0,.31H101a2.48,2.48,0,0,1,.26-.81,6.2,6.2,0,0,1,1.15-.34V341.83Z"/><path class="cls-1" d="M108.41,349.72a2.88,2.88,0,0,0,2.94,3.11,8.43,8.43,0,0,0,2.54-.5,2,2,0,0,1-.24,1,6.28,6.28,0,0,1-2.86.73c-2.58,0-4.06-1.92-4.06-4.41s1.64-4.75,4.17-4.75c2.17,0,3.09,1.57,3.09,3.83a7.92,7.92,0,0,1,0,1Zm4-1.05c.13-1.24-.23-2.75-1.75-2.75-1.28,0-2.11,1.12-2.22,2.75Z"/><path class="cls-1" d="M120.18,346.08a2.89,2.89,0,0,0-1.07-.22c-.94,0-1.48.44-1.48,1.1,0,2,4.21,1.41,4.21,4.54,0,1.87-1.57,2.59-3.25,2.59a5.55,5.55,0,0,1-2.77-.68,4.29,4.29,0,0,1-.09-.86,5.12,5.12,0,0,1,.18-1.28,5.14,5.14,0,0,1,1.3.16v1.24a2.89,2.89,0,0,0,1.52.42,1.37,1.37,0,0,0,1.52-1.36c0-2.14-4.25-1.36-4.25-4.55,0-1.32,1.21-2.25,3-2.25a6.89,6.89,0,0,1,2.55.47,2.41,2.41,0,0,1,0,.55,5.79,5.79,0,0,1-.2,1.46,2.66,2.66,0,0,1-1.21-.27Z"/><path class="cls-1" d="M126.34,352.82a1.07,1.07,0,0,1-1.12,1.18,1,1,0,0,1-1.15-1.18,1.08,1.08,0,0,1,1.15-1.1A1,1,0,0,1,126.34,352.82Z"/><path class="cls-1" d="M132,353.79a4.6,4.6,0,0,1,.22-1,10.93,10.93,0,0,1,1.41-.23V342.44a12.12,12.12,0,0,1-1.34-.12,4.45,4.45,0,0,1,0-1h8.57v2.65a4.9,4.9,0,0,1-1-.13,8.69,8.69,0,0,1-.21-1.42h-4.31V347h3.42a6.15,6.15,0,0,1,.18-1,4.58,4.58,0,0,1,1-.14v3.31a3.34,3.34,0,0,1-1.05-.07,8.66,8.66,0,0,1-.16-1h-3.42v4.61h4.38a12.33,12.33,0,0,1,.21-1.55,5.76,5.76,0,0,1,1.13-.12v2.81Z"/><path class="cls-1" d="M145.4,352.69a7.18,7.18,0,0,1,1.32.23,2.51,2.51,0,0,1,0,.87h-4.34a2.73,2.73,0,0,1,.25-.81,6.31,6.31,0,0,1,1.16-.34v-6.4h-1.32a2.12,2.12,0,0,1,.33-.95,4.39,4.39,0,0,1,1.5-.25,3.3,3.3,0,0,1,.85.1v1.32h.18a3.24,3.24,0,0,1,2.91-1.53c1.43,0,2.69.45,2.69,3.24,0,1.51,0,3-.11,4.52a9.28,9.28,0,0,1,1.47.23,2.38,2.38,0,0,1,0,.56c0,.11,0,.2,0,.31h-4.29a2.73,2.73,0,0,1,.25-.81,5.92,5.92,0,0,1,1-.34v-4.22c0-1.38-.43-2.27-1.7-2.27a3.19,3.19,0,0,0-2.26,1.16Z"/><path class="cls-1" d="M159.6,345.52l-2.6.33a2.74,2.74,0,0,1,.29-1.12,16.49,16.49,0,0,1,3.94-.72v8.52a17.83,17.83,0,0,1,2.09.3,2.76,2.76,0,0,1,.09.71,2.45,2.45,0,0,1,0,.25h-6a3.56,3.56,0,0,1,.33-.9,15.77,15.77,0,0,1,1.88-.45Z"/><path class="cls-1" d="M166.56,349a10.33,10.33,0,0,1,1.74-.18c2,0,3.56,1,3.56,2.93,0,2.83-2.35,4.09-4.67,4.09a9.33,9.33,0,0,1-2.4-.31,2.11,2.11,0,0,1-.25-1,1.72,1.72,0,0,1,0-.2,13.31,13.31,0,0,0,2.61.26,2.75,2.75,0,0,0,3-2.72c0-1.37-1-2-2.69-2a11.85,11.85,0,0,0-2.28.24l.43-5.8h6.3a8.43,8.43,0,0,1-.2,1.6c-1.61-.09-3.26-.12-4.89-.16Z"/><path class="cls-1" d="M183.23,341.83h-1.3a2.12,2.12,0,0,1,.33-.95,5.12,5.12,0,0,1,1.63-.25,3.82,3.82,0,0,1,.92.1v10.68a4.83,4.83,0,0,0,.14,1.28h1.36a1,1,0,0,1,0,.23,2.24,2.24,0,0,1-.15.72,9.94,9.94,0,0,1-2.44.36,3.08,3.08,0,0,1-.36-1.29h-.09a2.93,2.93,0,0,1-2.71,1.38c-1.58,0-3.37-1.08-3.37-4.34,0-2.89,1.79-4.82,4.38-4.82a3.12,3.12,0,0,1,1.64.43Zm0,4.43a5,5,0,0,0-1.5-.25c-2,0-2.89,1.4-2.89,3.49s1,3.37,2.33,3.37a2.36,2.36,0,0,0,2.06-1.08Z"/><path class="cls-1" d="M189.24,349.72a2.88,2.88,0,0,0,2.95,3.11,8.43,8.43,0,0,0,2.53-.5,2,2,0,0,1-.24,1,6.24,6.24,0,0,1-2.86.73c-2.58,0-4.06-1.92-4.06-4.41s1.64-4.75,4.17-4.75c2.17,0,3.09,1.57,3.09,3.83a7.92,7.92,0,0,1,0,1Zm4-1.05c.12-1.24-.24-2.75-1.76-2.75-1.28,0-2.11,1.12-2.22,2.75Z"/><path class="cls-1" d="M201.93,349.72a2.9,2.9,0,0,0,2.95,3.11,8.36,8.36,0,0,0,2.53-.5,1.94,1.94,0,0,1-.23,1,6.31,6.31,0,0,1-2.86.73c-2.59,0-4.07-1.92-4.07-4.41s1.65-4.75,4.18-4.75c2.17,0,3.09,1.57,3.09,3.83,0,.31,0,.63-.05,1Zm4-1.05c.13-1.24-.24-2.75-1.75-2.75-1.29,0-2.12,1.12-2.23,2.75Z"/><path class="cls-1" d="M213.7,346.08a2.88,2.88,0,0,0-1.06-.22c-.94,0-1.49.44-1.49,1.1,0,2,4.22,1.41,4.22,4.54,0,1.87-1.58,2.59-3.26,2.59a5.48,5.48,0,0,1-2.76-.68,3.66,3.66,0,0,1-.09-.86,5.12,5.12,0,0,1,.18-1.28,5.2,5.2,0,0,1,1.3.16v1.24a2.86,2.86,0,0,0,1.52.42,1.37,1.37,0,0,0,1.52-1.36c0-2.14-4.25-1.36-4.25-4.55,0-1.32,1.21-2.25,3-2.25a6.93,6.93,0,0,1,2.55.47,3.2,3.2,0,0,1,0,.55,5.79,5.79,0,0,1-.2,1.46,2.69,2.69,0,0,1-1.21-.27Z"/><path class="cls-1" d="M222.06,352.73a2.78,2.78,0,0,1-2.53,1.36,2.35,2.35,0,0,1-2.57-2.41c0-1.85,1.57-2.81,3.36-2.81a4.45,4.45,0,0,1,1.68.31v-1c0-1.34-.58-2-1.71-2a5.75,5.75,0,0,0-2.64.88,1.43,1.43,0,0,1-.09-.61,2.15,2.15,0,0,1,.19-.9,7.48,7.48,0,0,1,2.95-.63c2,0,2.84.95,2.84,3.42v3.49a1.58,1.58,0,0,0,.24.94,5.51,5.51,0,0,0,1.24-.22.79.79,0,0,1,0,.2,1.86,1.86,0,0,1-.18.81,4.64,4.64,0,0,1-2,.52,1.89,1.89,0,0,1-.76-1.36Zm0-2.76a5.86,5.86,0,0,0-1.26-.14c-1.41,0-2.21.63-2.21,1.58a1.46,1.46,0,0,0,1.65,1.44A2.27,2.27,0,0,0,222,352Z"/><path class="cls-1" d="M230.65,346.08a2.93,2.93,0,0,0-1.07-.22c-.94,0-1.48.44-1.48,1.1,0,2,4.21,1.41,4.21,4.54,0,1.87-1.57,2.59-3.25,2.59a5.55,5.55,0,0,1-2.77-.68,3.66,3.66,0,0,1-.09-.86,5.12,5.12,0,0,1,.18-1.28,5.14,5.14,0,0,1,1.3.16v1.24a2.89,2.89,0,0,0,1.52.42,1.37,1.37,0,0,0,1.52-1.36c0-2.14-4.25-1.36-4.25-4.55,0-1.32,1.21-2.25,3-2.25a6.89,6.89,0,0,1,2.55.47,2.41,2.41,0,0,1,0,.55,5.79,5.79,0,0,1-.2,1.46,2.63,2.63,0,0,1-1.21-.27Z"/><path class="cls-1" d="M1.68,376.72a2.89,2.89,0,0,0,3,3.11,8.36,8.36,0,0,0,2.53-.5,1.94,1.94,0,0,1-.23,1,6.31,6.31,0,0,1-2.86.73c-2.59,0-4.07-1.92-4.07-4.41s1.65-4.75,4.18-4.75c2.17,0,3.09,1.57,3.09,3.83a8,8,0,0,1-.06,1Zm4-1.05c.13-1.24-.24-2.75-1.75-2.75-1.29,0-2.12,1.12-2.23,2.75Z"/><path class="cls-1" d="M11.75,379.69a7.18,7.18,0,0,1,1.32.23,2.51,2.51,0,0,1,0,.87H8.77A2.73,2.73,0,0,1,9,380a6.31,6.31,0,0,1,1.16-.34v-6.4H8.86a2.12,2.12,0,0,1,.33-.95,4.65,4.65,0,0,1,1.5-.25,2.91,2.91,0,0,1,.85.11v1.31h.18a3.18,3.18,0,0,1,2.85-1.53A2.13,2.13,0,0,1,17,373.57h.09A3.16,3.16,0,0,1,20,371.93c1.41,0,2.66.45,2.66,3.24,0,1.53,0,3-.11,4.52a9.14,9.14,0,0,1,1.46.23,2.34,2.34,0,0,1,.06.56,1.62,1.62,0,0,1,0,.31H19.75A2.25,2.25,0,0,1,20,380a5.65,5.65,0,0,1,1-.34v-4.22c0-1.38-.42-2.27-1.66-2.27a3.12,3.12,0,0,0-2.21,1.16v5.36a7.39,7.39,0,0,1,1.32.25,3.12,3.12,0,0,1,0,.87H14.34a2.73,2.73,0,0,1,.25-.81,5.92,5.92,0,0,1,1-.34v-4.22c0-1.38-.41-2.27-1.66-2.27a3.11,3.11,0,0,0-2.21,1.16Z"/><path class="cls-1" d="M27.67,383.79a9.6,9.6,0,0,1,1.71.33,2.28,2.28,0,0,1,0,.83H24.68a2.48,2.48,0,0,1,.26-.81,7.07,7.07,0,0,1,1.15-.35V373.24H24.76a2,2,0,0,1,.32-.95,4.9,4.9,0,0,1,1.5-.25,2.82,2.82,0,0,1,.85.11v1.17h.18a2.81,2.81,0,0,1,2.66-1.39c1.59,0,3.42,1.08,3.42,4.34,0,2.9-1.83,4.82-4.43,4.82a3.07,3.07,0,0,1-1.59-.43Zm0-4a4.67,4.67,0,0,0,1.5.25c2,0,2.89-1.42,2.89-3.51s-1-3.38-2.33-3.38a2.38,2.38,0,0,0-2.06,1.1Z"/><path class="cls-1" d="M38.19,373.86a2.42,2.42,0,0,1,2.35-1.93,2.51,2.51,0,0,1,.81.14,2.3,2.3,0,0,1,.24,1.08,2.38,2.38,0,0,1-.05.49,2.5,2.5,0,0,0-1.23-.31,2.23,2.23,0,0,0-2.08,1.48v4.83A9,9,0,0,1,40,380a2.54,2.54,0,0,1,0,.83H35.24a2.48,2.48,0,0,1,.26-.81,6.2,6.2,0,0,1,1.15-.34v-6.4H35.33a2.12,2.12,0,0,1,.33-.95,4.9,4.9,0,0,1,1.5-.25,2.82,2.82,0,0,1,.85.11v1.71Z"/><path class="cls-1" d="M44.28,376.72a2.89,2.89,0,0,0,2.95,3.11,8.36,8.36,0,0,0,2.53-.5,1.94,1.94,0,0,1-.23,1,6.28,6.28,0,0,1-2.86.73c-2.58,0-4.07-1.92-4.07-4.41s1.65-4.75,4.18-4.75c2.17,0,3.09,1.57,3.09,3.83,0,.31,0,.63,0,1Zm4-1.05c.13-1.24-.23-2.75-1.75-2.75-1.29,0-2.12,1.12-2.23,2.75Z"/><path class="cls-1" d="M56.06,373.08a2.93,2.93,0,0,0-1.07-.22c-.94,0-1.48.44-1.48,1.1,0,2,4.21,1.41,4.21,4.54,0,1.87-1.57,2.59-3.25,2.59a5.52,5.52,0,0,1-2.77-.68,3.66,3.66,0,0,1-.09-.86,5.19,5.19,0,0,1,.18-1.28,5.14,5.14,0,0,1,1.3.16v1.24a2.89,2.89,0,0,0,1.52.42,1.37,1.37,0,0,0,1.52-1.35c0-2.15-4.25-1.37-4.25-4.56,0-1.32,1.21-2.25,3-2.25a6.89,6.89,0,0,1,2.55.47,2.41,2.41,0,0,1,0,.55,5.79,5.79,0,0,1-.2,1.46,2.63,2.63,0,0,1-1.21-.27Z"/><path class="cls-1" d="M64.41,379.73a2.78,2.78,0,0,1-2.53,1.36,2.35,2.35,0,0,1-2.57-2.41c0-1.85,1.57-2.81,3.36-2.81a4.54,4.54,0,0,1,1.69.31v-1c0-1.34-.58-2-1.72-2a5.75,5.75,0,0,0-2.64.88,1.6,1.6,0,0,1-.09-.61,2,2,0,0,1,.2-.9,7.43,7.43,0,0,1,2.94-.63c2,0,2.84.95,2.84,3.42v3.49a1.58,1.58,0,0,0,.24.94,5.68,5.68,0,0,0,1.25-.22,1.56,1.56,0,0,1,0,.2,1.86,1.86,0,0,1-.18.81,4.59,4.59,0,0,1-1.95.52,1.92,1.92,0,0,1-.76-1.36Zm0-2.76a5.86,5.86,0,0,0-1.26-.14c-1.41,0-2.21.63-2.21,1.58a1.46,1.46,0,0,0,1.65,1.44,2.27,2.27,0,0,0,1.82-.88Z"/><path class="cls-1" d="M73,373.08a2.89,2.89,0,0,0-1.07-.22c-.94,0-1.48.44-1.48,1.1,0,2,4.21,1.41,4.21,4.54,0,1.87-1.57,2.59-3.25,2.59a5.55,5.55,0,0,1-2.77-.68,4.29,4.29,0,0,1-.09-.86,5.19,5.19,0,0,1,.18-1.28,5.14,5.14,0,0,1,1.3.16v1.24a2.89,2.89,0,0,0,1.52.42,1.36,1.36,0,0,0,1.52-1.35c0-2.15-4.25-1.37-4.25-4.56,0-1.32,1.21-2.25,3-2.25a6.85,6.85,0,0,1,2.55.47,2.41,2.41,0,0,1,0,.55,5.79,5.79,0,0,1-.2,1.46,2.66,2.66,0,0,1-1.21-.27Z"/><path class="cls-1" d="M76.44,380.3a3.54,3.54,0,0,1,.59-1.2,3.16,3.16,0,0,1,.74-.08,4.22,4.22,0,0,1,1.34.22,16,16,0,0,1-1.64,4.25,3.18,3.18,0,0,1-1-.47,15.25,15.25,0,0,0,.68-2.54Z"/><path class="cls-1" d="M90.58,368.83H89.27a2.12,2.12,0,0,1,.33-.95,5.17,5.17,0,0,1,1.63-.25,3.82,3.82,0,0,1,.92.1v10.68a5.29,5.29,0,0,0,.14,1.28h1.36a1,1,0,0,1,0,.23,2,2,0,0,1-.15.72,9.94,9.94,0,0,1-2.44.36,3.24,3.24,0,0,1-.36-1.29h-.09a2.91,2.91,0,0,1-2.71,1.38c-1.58,0-3.37-1.08-3.37-4.34,0-2.89,1.79-4.82,4.38-4.82a3.16,3.16,0,0,1,1.65.43Zm0,4.43a4.9,4.9,0,0,0-1.5-.25c-2,0-2.89,1.4-2.89,3.49s1,3.37,2.33,3.37a2.36,2.36,0,0,0,2.06-1.08Z"/><path class="cls-1" d="M94.77,373.24a2.12,2.12,0,0,1,.33-.95,5.41,5.41,0,0,1,1.62-.25,3.47,3.47,0,0,1,.94.11v7.52a9.64,9.64,0,0,1,1.43.25,2.34,2.34,0,0,1,.06.56,1.62,1.62,0,0,1,0,.31H94.68a2.73,2.73,0,0,1,.25-.81,6.31,6.31,0,0,1,1.16-.34v-6.4Zm3.17-4.19a1,1,0,0,1-1,1.06.93.93,0,0,1-1-1.06,1,1,0,0,1,1-1A.94.94,0,0,1,97.94,369.05Z"/><path class="cls-1" d="M104.17,379.73c.09-.42.29-1.17.42-1.55l1.07-3.19a10.89,10.89,0,0,1,.67-1.6,4.93,4.93,0,0,1-1.07-.24,3,3,0,0,1-.15-.91h3.42a3.68,3.68,0,0,1-.18,1,5.08,5.08,0,0,1-.85.16l-2.78,7.45-1.65.18-2.67-7.54a4.06,4.06,0,0,1-.93-.31,4,4,0,0,1-.18-.93h4a4,4,0,0,1-.14.95,11.41,11.41,0,0,1-1.29.2,9.77,9.77,0,0,1,.65,1.53l1.13,3.33c.1.32.29,1.08.36,1.48Z"/><path class="cls-1" d="M111,376.72a2.88,2.88,0,0,0,2.94,3.11,8.3,8.3,0,0,0,2.53-.5,1.94,1.94,0,0,1-.23,1,6.28,6.28,0,0,1-2.86.73c-2.58,0-4.07-1.92-4.07-4.41s1.65-4.75,4.18-4.75c2.17,0,3.09,1.57,3.09,3.83,0,.31,0,.63-.05,1Zm4-1.05c.13-1.24-.23-2.75-1.75-2.75-1.28,0-2.12,1.12-2.22,2.75Z"/><path class="cls-1" d="M121,373.86a2.42,2.42,0,0,1,2.35-1.93,2.62,2.62,0,0,1,.82.14,2.45,2.45,0,0,1,.23,1.08,2.38,2.38,0,0,1,0,.49,2.5,2.5,0,0,0-1.23-.31,2.23,2.23,0,0,0-2.08,1.48v4.83a9,9,0,0,1,1.79.32,2.54,2.54,0,0,1,0,.83H118a2.48,2.48,0,0,1,.26-.81,6.2,6.2,0,0,1,1.15-.34v-6.4h-1.32a2.12,2.12,0,0,1,.33-.95A4.9,4.9,0,0,1,120,372a2.82,2.82,0,0,1,.85.11v1.71Z"/><path class="cls-1" d="M130,373.08a2.89,2.89,0,0,0-1.07-.22c-.94,0-1.48.44-1.48,1.1,0,2,4.21,1.41,4.21,4.54,0,1.87-1.57,2.59-3.25,2.59a5.55,5.55,0,0,1-2.77-.68,4.29,4.29,0,0,1-.09-.86,5.19,5.19,0,0,1,.18-1.28,5.14,5.14,0,0,1,1.3.16v1.24a2.89,2.89,0,0,0,1.52.42,1.36,1.36,0,0,0,1.52-1.35c0-2.15-4.25-1.37-4.25-4.56,0-1.32,1.21-2.25,3-2.25a6.89,6.89,0,0,1,2.55.47,2.41,2.41,0,0,1,0,.55,5.79,5.79,0,0,1-.2,1.46,2.66,2.66,0,0,1-1.21-.27Z"/><path class="cls-1" d="M141.51,376.38c0,3-1.6,4.71-4.1,4.71s-4.12-1.62-4.12-4.71c0-2.76,1.77-4.45,4.12-4.45S141.51,373.51,141.51,376.38Zm-4.1,3.63c1.66,0,2.46-1.4,2.46-3.63,0-1.93-1-3.39-2.46-3.39s-2.48,1.35-2.48,3.39S135.87,380,137.41,380Z"/><path class="cls-1" d="M147.75,373.08a2.88,2.88,0,0,0-1.06-.22c-.94,0-1.49.44-1.49,1.1,0,2,4.22,1.41,4.22,4.54,0,1.87-1.58,2.59-3.26,2.59a5.48,5.48,0,0,1-2.76-.68,3.66,3.66,0,0,1-.09-.86,5.19,5.19,0,0,1,.18-1.28,5.2,5.2,0,0,1,1.3.16v1.24a2.84,2.84,0,0,0,1.52.42,1.37,1.37,0,0,0,1.52-1.35c0-2.15-4.25-1.37-4.25-4.56,0-1.32,1.21-2.25,3-2.25a6.93,6.93,0,0,1,2.55.47,3.2,3.2,0,0,1,0,.55,5.79,5.79,0,0,1-.2,1.46,2.69,2.69,0,0,1-1.21-.27Z"/><path class="cls-1" d="M157.54,379.69a7.5,7.5,0,0,1,1.32.23,2.79,2.79,0,0,1,0,.87h-4.34a2.48,2.48,0,0,1,.26-.81,6.2,6.2,0,0,1,1.15-.34v-6.4h-1.32a2.12,2.12,0,0,1,.33-.95,4.7,4.7,0,0,1,1.5-.25,2.82,2.82,0,0,1,.85.11v1.31h.18a3.21,3.21,0,0,1,2.86-1.53,2.13,2.13,0,0,1,2.4,1.64h.09a3.18,3.18,0,0,1,2.91-1.64c1.41,0,2.66.45,2.66,3.24,0,1.53,0,3-.11,4.52a9.28,9.28,0,0,1,1.47.23,3.06,3.06,0,0,1,.05.56,1.62,1.62,0,0,1,0,.31h-4.28a2.25,2.25,0,0,1,.25-.81,5.65,5.65,0,0,1,1-.34v-4.22c0-1.38-.41-2.27-1.66-2.27a3.14,3.14,0,0,0-2.21,1.16v5.36a7.22,7.22,0,0,1,1.32.25,2.79,2.79,0,0,1,0,.87h-4.18a2.48,2.48,0,0,1,.26-.81,5.65,5.65,0,0,1,1-.34v-4.22c0-1.38-.42-2.27-1.67-2.27a3.09,3.09,0,0,0-2.2,1.16Z"/><path class="cls-1" d="M170.9,373.24a2,2,0,0,1,.33-.95,5.41,5.41,0,0,1,1.62-.25,3.47,3.47,0,0,1,.94.11v7.52a9.88,9.88,0,0,1,1.43.25,2.34,2.34,0,0,1,.06.56,1.62,1.62,0,0,1,0,.31h-4.45a2.73,2.73,0,0,1,.25-.81,6.31,6.31,0,0,1,1.16-.34v-6.4Zm3.16-4.19a1,1,0,0,1-1,1.06.93.93,0,0,1-1-1.06,1,1,0,0,1,1-1A.93.93,0,0,1,174.06,369.05Z"/><path class="cls-1" d="M176.25,368.83a2.12,2.12,0,0,1,.33-.95,5.11,5.11,0,0,1,1.62-.25,3.84,3.84,0,0,1,.93.1v11.94a10.31,10.31,0,0,1,1.46.25,2.34,2.34,0,0,1,.06.56,1.62,1.62,0,0,1,0,.31h-4.49a2.48,2.48,0,0,1,.26-.81,6.2,6.2,0,0,1,1.15-.34V368.83Z"/><path class="cls-1" d="M181.77,373.24a2.11,2.11,0,0,1,.32-.95,5.48,5.48,0,0,1,1.63-.25,3.47,3.47,0,0,1,.94.11v7.52a9.88,9.88,0,0,1,1.43.25,2.38,2.38,0,0,1,0,.56c0,.11,0,.2,0,.31h-4.45a2.25,2.25,0,0,1,.25-.81,6.31,6.31,0,0,1,1.16-.34v-6.4Zm3.16-4.19a1,1,0,0,1-1,1.06.93.93,0,0,1-1-1.06,1,1,0,0,1,1-1A.93.93,0,0,1,184.93,369.05Z"/><path class="cls-1" d="M188.51,370a3.12,3.12,0,0,1,1.21-.29v2.49h2.63a4.76,4.76,0,0,1,.05,1h-2.68v5c0,1.17.17,1.68,1.18,1.68a6.87,6.87,0,0,0,1.68-.24,1.1,1.1,0,0,1,0,.24,1.6,1.6,0,0,1-.18.7,6,6,0,0,1-2.23.48c-1.39,0-2.09-.75-2.09-2.61,0-1.06,0-3.38.09-5.2h-1.25a2.86,2.86,0,0,1,.22-.94,6.32,6.32,0,0,1,1-.32Z"/><path class="cls-1" d="M198.78,379.73a2.77,2.77,0,0,1-2.53,1.36,2.35,2.35,0,0,1-2.57-2.41c0-1.85,1.58-2.81,3.37-2.81a4.45,4.45,0,0,1,1.68.31v-1c0-1.34-.58-2-1.72-2a5.75,5.75,0,0,0-2.64.88,1.6,1.6,0,0,1-.09-.61,2,2,0,0,1,.2-.9,7.48,7.48,0,0,1,3-.63c2,0,2.84.95,2.84,3.42v3.49a1.66,1.66,0,0,0,.23.94,5.68,5.68,0,0,0,1.25-.22.79.79,0,0,1,0,.2,2,2,0,0,1-.18.81,4.64,4.64,0,0,1-2,.52,1.92,1.92,0,0,1-.76-1.36Zm0-2.76a6,6,0,0,0-1.27-.14c-1.41,0-2.21.63-2.21,1.58a1.46,1.46,0,0,0,1.65,1.44,2.27,2.27,0,0,0,1.83-.88Z"/><path class="cls-1" d="M205.64,373.86a2.41,2.41,0,0,1,2.35-1.93,2.6,2.6,0,0,1,.81.14,2.3,2.3,0,0,1,.24,1.08,1.83,1.83,0,0,1-.06.49,2.44,2.44,0,0,0-1.23-.31,2.24,2.24,0,0,0-2.08,1.48v4.83a8.77,8.77,0,0,1,1.79.32,2.29,2.29,0,0,1,0,.83h-4.81a2.47,2.47,0,0,1,.25-.81,6.31,6.31,0,0,1,1.16-.34v-6.4h-1.32a2.11,2.11,0,0,1,.32-.95,4.92,4.92,0,0,1,1.51-.25,2.91,2.91,0,0,1,.85.11v1.71Z"/><path class="cls-1" d="M211.73,376.72a2.89,2.89,0,0,0,3,3.11,8.36,8.36,0,0,0,2.53-.5,2,2,0,0,1-.24,1,6.23,6.23,0,0,1-2.85.73c-2.59,0-4.07-1.92-4.07-4.41s1.64-4.75,4.18-4.75c2.17,0,3.09,1.57,3.09,3.83a8,8,0,0,1-.06,1Zm4-1.05c.12-1.24-.24-2.75-1.76-2.75-1.28,0-2.11,1.12-2.22,2.75Z"/><path class="cls-1" d="M223.5,373.08a2.88,2.88,0,0,0-1.06-.22c-.95,0-1.49.44-1.49,1.1,0,2,4.22,1.41,4.22,4.54,0,1.87-1.58,2.59-3.26,2.59a5.48,5.48,0,0,1-2.76-.68,3.63,3.63,0,0,1-.1-.86,5.71,5.71,0,0,1,.18-1.28,5.22,5.22,0,0,1,1.31.16v1.24a2.84,2.84,0,0,0,1.52.42,1.36,1.36,0,0,0,1.51-1.35c0-2.15-4.25-1.37-4.25-4.56,0-1.32,1.22-2.25,3-2.25a6.93,6.93,0,0,1,2.55.47,3.2,3.2,0,0,1,0,.55,5.79,5.79,0,0,1-.2,1.46,2.69,2.69,0,0,1-1.21-.27Z"/><path class="cls-1" d="M233.16,379.69a7.84,7.84,0,0,1,1.32.23,2.79,2.79,0,0,1,0,.87h-4.34a2.48,2.48,0,0,1,.26-.81,6.2,6.2,0,0,1,1.15-.34V368.83h-1.3a2.12,2.12,0,0,1,.33-.95,5,5,0,0,1,1.63-.25,3.82,3.82,0,0,1,.92.1v3.48c0,.74,0,1.51-.09,2.25h.18a2.94,2.94,0,0,1,2.84-1.53c1.44,0,2.73.45,2.73,3.24,0,1.51,0,3-.11,4.52a9.14,9.14,0,0,1,1.46.23,2.34,2.34,0,0,1,.06.56,1.62,1.62,0,0,1,0,.31h-4.29a2.48,2.48,0,0,1,.26-.81,5.65,5.65,0,0,1,1-.34v-4.22c0-1.38-.45-2.27-1.74-2.27a3.26,3.26,0,0,0-2.31,1.16Z"/><path class="cls-1" d="M246.47,379.73a2.78,2.78,0,0,1-2.53,1.36,2.35,2.35,0,0,1-2.57-2.41c0-1.85,1.57-2.81,3.36-2.81a4.45,4.45,0,0,1,1.68.31v-1c0-1.34-.58-2-1.71-2a5.75,5.75,0,0,0-2.64.88,1.43,1.43,0,0,1-.09-.61,2.15,2.15,0,0,1,.19-.9,7.48,7.48,0,0,1,3-.63c2,0,2.84.95,2.84,3.42v3.49a1.58,1.58,0,0,0,.24.94,5.51,5.51,0,0,0,1.24-.22.79.79,0,0,1,0,.2,1.86,1.86,0,0,1-.18.81,4.64,4.64,0,0,1-2,.52,1.89,1.89,0,0,1-.76-1.36Zm0-2.76a5.86,5.86,0,0,0-1.26-.14c-1.41,0-2.21.63-2.21,1.58a1.46,1.46,0,0,0,1.64,1.44,2.27,2.27,0,0,0,1.83-.88Z"/><path class="cls-1" d="M253.36,379.69a7.5,7.5,0,0,1,1.32.23,2.79,2.79,0,0,1,0,.87h-4.34a2.48,2.48,0,0,1,.26-.81,6.2,6.2,0,0,1,1.15-.34v-6.4h-1.32a2.12,2.12,0,0,1,.33-.95,4.7,4.7,0,0,1,1.5-.25,2.82,2.82,0,0,1,.85.11v1.31h.18a3.25,3.25,0,0,1,2.91-1.53c1.43,0,2.7.45,2.7,3.24,0,1.51,0,3-.11,4.52a9.14,9.14,0,0,1,1.46.23,2.34,2.34,0,0,1,.06.56,1.62,1.62,0,0,1,0,.31H256a2.48,2.48,0,0,1,.26-.81,5.65,5.65,0,0,1,1-.34v-4.22c0-1.38-.44-2.27-1.7-2.27a3.19,3.19,0,0,0-2.26,1.16Z"/><path class="cls-1" d="M19,403.38c0,3-1.61,4.71-4.11,4.71s-4.12-1.62-4.12-4.71c0-2.76,1.77-4.45,4.12-4.45S19,400.51,19,403.38ZM14.85,407c1.67,0,2.46-1.4,2.46-3.63,0-1.93-.95-3.39-2.46-3.39s-2.47,1.35-2.47,3.39S13.32,407,14.85,407Z"/><path class="cls-1" d="M26.17,400.24a2.3,2.3,0,0,0-1-.27c-1.56,0-2.68,1-2.68,3.39s1.19,3.49,2.82,3.49a7.54,7.54,0,0,0,2.22-.43,2.17,2.17,0,0,1-.25,1,6.48,6.48,0,0,1-2.67.64c-2.34,0-3.84-1.87-3.84-4.39,0-2.79,1.79-4.77,4.43-4.77a4.33,4.33,0,0,1,2.37.65c0,.18,0,.47,0,.65a4.35,4.35,0,0,1-.26,1.53,3,3,0,0,1-1.14-.24Z"/><path class="cls-1" d="M35.47,400.24h-1.3a2.11,2.11,0,0,1,.32-.95,4.9,4.9,0,0,1,1.63-.25,3.32,3.32,0,0,1,.92.11v6.26a5.14,5.14,0,0,0,.15,1.28h1.37a1,1,0,0,1,0,.23,2.25,2.25,0,0,1-.14.72A10.46,10.46,0,0,1,36,408a3.58,3.58,0,0,1-.36-1.42h-.09a3.22,3.22,0,0,1-2.88,1.51c-1.41,0-2.66-.45-2.66-3.24,0-1.51,0-3.09.09-4.61H28.69a2.24,2.24,0,0,1,.32-.93,5,5,0,0,1,1.65-.27,3.32,3.32,0,0,1,.92.11v5.45c0,1.37.44,2.25,1.67,2.25a3.09,3.09,0,0,0,2.22-1.1Z"/><path class="cls-1" d="M42.4,410.79a9.6,9.6,0,0,1,1.71.33,2.28,2.28,0,0,1,0,.83H39.41a2.48,2.48,0,0,1,.26-.81,6.78,6.78,0,0,1,1.15-.35V400.24H39.48a2.12,2.12,0,0,1,.33-.95,4.9,4.9,0,0,1,1.5-.25,2.82,2.82,0,0,1,.85.11v1.17h.18A2.81,2.81,0,0,1,45,398.93c1.59,0,3.42,1.08,3.42,4.34,0,2.9-1.83,4.82-4.43,4.82a3,3,0,0,1-1.59-.43Zm0-4a4.67,4.67,0,0,0,1.5.25c2,0,2.89-1.42,2.89-3.51s-1-3.38-2.33-3.38a2.38,2.38,0,0,0-2.06,1.1Z"/><path class="cls-1" d="M55.23,406.73a2.77,2.77,0,0,1-2.53,1.36,2.35,2.35,0,0,1-2.57-2.41c0-1.85,1.58-2.81,3.37-2.81a4.45,4.45,0,0,1,1.68.31v-1c0-1.34-.58-2-1.72-2a5.79,5.79,0,0,0-2.64.88,1.6,1.6,0,0,1-.09-.61,2,2,0,0,1,.2-.9,7.48,7.48,0,0,1,3-.63c2,0,2.84.95,2.84,3.42v3.49a1.66,1.66,0,0,0,.23.94,5.58,5.58,0,0,0,1.25-.22.79.79,0,0,1,0,.2,1.86,1.86,0,0,1-.18.81,4.64,4.64,0,0,1-2,.52,1.92,1.92,0,0,1-.76-1.36Zm0-2.76a6,6,0,0,0-1.27-.14c-1.41,0-2.2.63-2.2,1.58a1.45,1.45,0,0,0,1.64,1.44A2.27,2.27,0,0,0,55.2,406Z"/><path class="cls-1" d="M65.38,395.83h-1.3a2,2,0,0,1,.32-.95,5.17,5.17,0,0,1,1.63-.25,3.82,3.82,0,0,1,.92.1v10.68a4.83,4.83,0,0,0,.15,1.28h1.35a1,1,0,0,1,0,.23,2.25,2.25,0,0,1-.14.72,10,10,0,0,1-2.45.36,3.41,3.41,0,0,1-.36-1.29h-.09a2.91,2.91,0,0,1-2.71,1.38c-1.57,0-3.36-1.08-3.36-4.34,0-2.89,1.79-4.82,4.37-4.82a3.16,3.16,0,0,1,1.65.43Zm0,4.43a5,5,0,0,0-1.5-.25c-2,0-2.9,1.4-2.9,3.49s1,3.37,2.33,3.37a2.38,2.38,0,0,0,2.07-1.08Z"/><path class="cls-1" d="M77.93,403.38c0,3-1.61,4.71-4.11,4.71s-4.12-1.62-4.12-4.71c0-2.76,1.77-4.45,4.12-4.45S77.93,400.51,77.93,403.38ZM73.82,407c1.67,0,2.46-1.4,2.46-3.63,0-1.93-1-3.39-2.46-3.39s-2.47,1.35-2.47,3.39S72.29,407,73.82,407Z"/><path class="cls-1" d="M88.85,400.24a2.31,2.31,0,0,0-1-.27c-1.55,0-2.67,1-2.67,3.39s1.19,3.49,2.82,3.49a7.6,7.6,0,0,0,2.22-.43,2.17,2.17,0,0,1-.25,1,6.53,6.53,0,0,1-2.68.64c-2.33,0-3.83-1.87-3.83-4.39,0-2.79,1.79-4.77,4.43-4.77a4.35,4.35,0,0,1,2.37.65c0,.18,0,.47,0,.65a4.35,4.35,0,0,1-.25,1.53,3,3,0,0,1-1.14-.24Z"/><path class="cls-1" d="M96.88,406.73a2.78,2.78,0,0,1-2.53,1.36,2.35,2.35,0,0,1-2.57-2.41c0-1.85,1.57-2.81,3.36-2.81a4.45,4.45,0,0,1,1.68.31v-1c0-1.34-.57-2-1.71-2a5.75,5.75,0,0,0-2.64.88,1.6,1.6,0,0,1-.09-.61,2,2,0,0,1,.2-.9,7.39,7.39,0,0,1,2.94-.63c2,0,2.84.95,2.84,3.42v3.49a1.58,1.58,0,0,0,.24.94,5.51,5.51,0,0,0,1.24-.22.79.79,0,0,1,0,.2,1.86,1.86,0,0,1-.18.81,4.64,4.64,0,0,1-2,.52,1.89,1.89,0,0,1-.76-1.36Zm0-2.76a5.86,5.86,0,0,0-1.26-.14c-1.41,0-2.21.63-2.21,1.58A1.46,1.46,0,0,0,95,406.85a2.27,2.27,0,0,0,1.82-.88Z"/><path class="cls-1" d="M103.73,400.86a2.43,2.43,0,0,1,2.35-1.93,2.62,2.62,0,0,1,.82.14,2.45,2.45,0,0,1,.23,1.08,2.38,2.38,0,0,1,0,.49,2.5,2.5,0,0,0-1.23-.31,2.24,2.24,0,0,0-2.08,1.48v4.83a9,9,0,0,1,1.79.32,2.54,2.54,0,0,1,0,.83h-4.8A2.25,2.25,0,0,1,101,407a6.09,6.09,0,0,1,1.16-.34v-6.4h-1.32a2,2,0,0,1,.32-.95,4.9,4.9,0,0,1,1.5-.25,2.82,2.82,0,0,1,.85.11v1.71Z"/><path class="cls-1" d="M109.46,407.61a1.31,1.31,0,0,1-.86-1.28,1.87,1.87,0,0,1,1-1.53v-.09a2.83,2.83,0,0,1-1.16-2.56,3.2,3.2,0,0,1,3.48-3.22,4.15,4.15,0,0,1,2,.5,4.33,4.33,0,0,1,1.75-.34,2.62,2.62,0,0,1,.78.11,5.13,5.13,0,0,1,.14,1.08h-1.79a3.26,3.26,0,0,1,.53,1.87c0,2-1.3,3.21-3.45,3.21a4.89,4.89,0,0,1-1.47-.2,1.13,1.13,0,0,0-.27.74c0,.7,1,.83,2.62.83,2.1,0,3.71.45,3.71,2.37,0,2.16-2.1,3.22-4.54,3.22-2.13,0-4.07-.88-4.07-2.7a2.06,2.06,0,0,1,1.57-1.92Zm0,1.8c0,1.26,1.47,1.89,2.8,1.89s2.77-.63,2.77-1.86c0-.9-.69-1.35-2.55-1.35a9.57,9.57,0,0,1-2.06-.18A1.59,1.59,0,0,0,109.41,409.41Zm2.5-5c1.24,0,1.84-.88,1.84-2.25s-.71-2.25-1.84-2.25c-1.29,0-1.88.83-1.88,2.25S110.73,404.4,111.91,404.4Z"/><path class="cls-1" d="M126.12,403.38c0,3-1.61,4.71-4.11,4.71s-4.12-1.62-4.12-4.71c0-2.76,1.77-4.45,4.12-4.45S126.12,400.51,126.12,403.38ZM122,407c1.67,0,2.46-1.4,2.46-3.63,0-1.93-1-3.39-2.46-3.39s-2.47,1.35-2.47,3.39S120.48,407,122,407Z"/><path class="cls-1" d="M132.36,400.08a2.93,2.93,0,0,0-1.07-.22c-.94,0-1.48.44-1.48,1.1,0,2,4.21,1.41,4.21,4.54,0,1.87-1.57,2.59-3.25,2.59a5.55,5.55,0,0,1-2.77-.68,4.29,4.29,0,0,1-.09-.86,5.19,5.19,0,0,1,.18-1.28,5.14,5.14,0,0,1,1.3.16v1.24a2.89,2.89,0,0,0,1.52.42,1.37,1.37,0,0,0,1.52-1.35c0-2.15-4.25-1.37-4.25-4.56,0-1.32,1.21-2.25,3-2.25a6.89,6.89,0,0,1,2.55.47,2.41,2.41,0,0,1,0,.55,5.79,5.79,0,0,1-.2,1.46,2.66,2.66,0,0,1-1.21-.27Z"/><path class="cls-1" d="M145.4,395.83h-1.31a2.12,2.12,0,0,1,.33-.95,5.12,5.12,0,0,1,1.63-.25,3.82,3.82,0,0,1,.92.1v10.68a4.83,4.83,0,0,0,.14,1.28h1.36a1,1,0,0,1,0,.23,2.24,2.24,0,0,1-.15.72,9.94,9.94,0,0,1-2.44.36,3.24,3.24,0,0,1-.36-1.29h-.09a2.91,2.91,0,0,1-2.71,1.38c-1.58,0-3.37-1.08-3.37-4.34,0-2.89,1.79-4.82,4.38-4.82a3.16,3.16,0,0,1,1.65.43Zm0,4.43a5,5,0,0,0-1.5-.25c-2,0-2.89,1.4-2.89,3.49s1,3.37,2.33,3.37a2.36,2.36,0,0,0,2.06-1.08Z"/><path class="cls-1" d="M151.4,403.72a2.89,2.89,0,0,0,2.95,3.11,8.43,8.43,0,0,0,2.53-.5,2,2,0,0,1-.24,1,6.23,6.23,0,0,1-2.85.73c-2.59,0-4.07-1.92-4.07-4.41s1.64-4.75,4.17-4.75c2.17,0,3.1,1.57,3.1,3.83a8,8,0,0,1-.06,1Zm4-1.05c.12-1.24-.24-2.75-1.76-2.75-1.28,0-2.11,1.12-2.22,2.75Z"/><path class="cls-1" d="M168.43,395.83h-1.3a2.12,2.12,0,0,1,.33-.95,5.11,5.11,0,0,1,1.62-.25,3.9,3.9,0,0,1,.93.1v10.68a4.83,4.83,0,0,0,.14,1.28h1.36a1.93,1.93,0,0,1,0,.23,2.25,2.25,0,0,1-.14.72,9.94,9.94,0,0,1-2.44.36,3.08,3.08,0,0,1-.36-1.29h-.09a2.93,2.93,0,0,1-2.72,1.38c-1.57,0-3.36-1.08-3.36-4.34,0-2.89,1.79-4.82,4.38-4.82a3.12,3.12,0,0,1,1.64.43Zm0,4.43A5,5,0,0,0,167,400c-2,0-2.89,1.4-2.89,3.49s1,3.37,2.33,3.37a2.36,2.36,0,0,0,2.06-1.08Z"/><path class="cls-1" d="M172.63,400.24a2.11,2.11,0,0,1,.32-.95,5.48,5.48,0,0,1,1.63-.25,3.47,3.47,0,0,1,.94.11v7.52a9.88,9.88,0,0,1,1.43.25,2.38,2.38,0,0,1,.05.56c0,.11,0,.2,0,.31h-4.45a2.25,2.25,0,0,1,.25-.81,6.31,6.31,0,0,1,1.16-.34v-6.4Zm3.16-4.19a1,1,0,0,1-1,1.06.93.93,0,0,1-1-1.06,1,1,0,0,1,1-1A.93.93,0,0,1,175.79,396.05Z"/><path class="cls-1" d="M181,400.86a2.42,2.42,0,0,1,2.35-1.93,2.51,2.51,0,0,1,.81.14,2.3,2.3,0,0,1,.24,1.08,2.38,2.38,0,0,1-.05.49,2.5,2.5,0,0,0-1.23-.31,2.23,2.23,0,0,0-2.08,1.48v4.83a9,9,0,0,1,1.79.32,2.54,2.54,0,0,1,0,.83h-4.81a2.48,2.48,0,0,1,.26-.81,6.2,6.2,0,0,1,1.15-.34v-6.4h-1.32a2.12,2.12,0,0,1,.33-.95A4.9,4.9,0,0,1,180,399a2.82,2.82,0,0,1,.85.11v1.71Z"/><path class="cls-1" d="M187.09,403.72a2.89,2.89,0,0,0,2.95,3.11,8.36,8.36,0,0,0,2.53-.5,1.94,1.94,0,0,1-.23,1,6.28,6.28,0,0,1-2.86.73c-2.58,0-4.07-1.92-4.07-4.41s1.65-4.75,4.18-4.75c2.17,0,3.09,1.57,3.09,3.83,0,.31,0,.63-.05,1Zm4-1.05c.13-1.24-.23-2.75-1.75-2.75-1.29,0-2.12,1.12-2.23,2.75Z"/><path class="cls-1" d="M199.84,400.24a2.31,2.31,0,0,0-1.05-.27c-1.55,0-2.67,1-2.67,3.39s1.19,3.49,2.82,3.49a7.6,7.6,0,0,0,2.22-.43,2.17,2.17,0,0,1-.25,1,6.53,6.53,0,0,1-2.68.64c-2.33,0-3.83-1.87-3.83-4.39,0-2.79,1.79-4.77,4.43-4.77a4.35,4.35,0,0,1,2.37.65c0,.18,0,.47,0,.65a4.35,4.35,0,0,1-.25,1.53,3,3,0,0,1-1.14-.24Z"/><path class="cls-1" d="M208.27,400.24a2.34,2.34,0,0,0-1.05-.27c-1.56,0-2.68,1-2.68,3.39s1.2,3.49,2.82,3.49a7.6,7.6,0,0,0,2.23-.43,2.17,2.17,0,0,1-.25,1,6.53,6.53,0,0,1-2.68.64c-2.33,0-3.83-1.87-3.83-4.39,0-2.79,1.79-4.77,4.43-4.77a4.35,4.35,0,0,1,2.37.65c0,.18,0,.47,0,.65a4.35,4.35,0,0,1-.25,1.53,3,3,0,0,1-1.14-.24Z"/><path class="cls-1" d="M211.13,400.24a2.11,2.11,0,0,1,.32-.95,5.48,5.48,0,0,1,1.63-.25,3.51,3.51,0,0,1,.94.11v7.52a9.88,9.88,0,0,1,1.43.25,3.06,3.06,0,0,1,.05.56,1.62,1.62,0,0,1,0,.31H211a2.25,2.25,0,0,1,.25-.81,6.09,6.09,0,0,1,1.16-.34v-6.4Zm3.16-4.19a1,1,0,0,1-1,1.06.93.93,0,0,1-1-1.06,1,1,0,0,1,1-1A.93.93,0,0,1,214.29,396.05Z"/><path class="cls-1" d="M225,403.38c0,3-1.61,4.71-4.11,4.71s-4.12-1.62-4.12-4.71c0-2.76,1.77-4.45,4.12-4.45S225,400.51,225,403.38ZM220.89,407c1.67,0,2.46-1.4,2.46-3.63,0-1.93-1-3.39-2.46-3.39s-2.48,1.35-2.48,3.39S219.35,407,220.89,407Zm-.38-8.93a2.52,2.52,0,0,1-.92-.77l2-2.81a3.71,3.71,0,0,1,1.6.63Z"/><path class="cls-1" d="M229.53,406.69a7.18,7.18,0,0,1,1.32.23,2.51,2.51,0,0,1,0,.87h-4.34a2.48,2.48,0,0,1,.26-.81,6,6,0,0,1,1.15-.34v-6.4h-1.32a2.12,2.12,0,0,1,.33-.95,4.7,4.7,0,0,1,1.5-.25,2.87,2.87,0,0,1,.85.11v1.31h.18a3.24,3.24,0,0,1,2.91-1.53c1.43,0,2.69.45,2.69,3.24,0,1.51,0,3-.1,4.52a9.33,9.33,0,0,1,1.46.23,2.38,2.38,0,0,1,0,.56c0,.11,0,.2,0,.31h-4.29a2.73,2.73,0,0,1,.25-.81,5.92,5.92,0,0,1,1-.34v-4.22c0-1.38-.43-2.27-1.69-2.27a3.19,3.19,0,0,0-2.27,1.16Z"/><path class="cls-1" d="M245.52,406.8c.11-.44.34-1.37.49-1.8l.9-2.87a12.14,12.14,0,0,1,.67-1.74,5.17,5.17,0,0,1-1.08-.24,3,3,0,0,1-.15-.91h3.46a3.75,3.75,0,0,1-.18,1,4.84,4.84,0,0,1-.86.16l-1,3a51.67,51.67,0,0,1-2,5.31,6.39,6.39,0,0,1-3.65,3.42,2.37,2.37,0,0,1-.67-1.33,4.85,4.85,0,0,0,3.27-2.65l-2.94-7.65a4.24,4.24,0,0,1-1-.31,4,4,0,0,1-.18-.93h4.09a4,4,0,0,1-.14.93,9.55,9.55,0,0,1-1.32.22,12.67,12.67,0,0,1,.65,1.51l1.14,3.15a13.54,13.54,0,0,1,.39,1.75Z"/><path class="cls-1" d="M71.71,433.73a2.78,2.78,0,0,1-2.53,1.36,2.35,2.35,0,0,1-2.57-2.41c0-1.85,1.57-2.81,3.36-2.81a4.45,4.45,0,0,1,1.68.31v-1c0-1.34-.58-2-1.72-2a5.83,5.83,0,0,0-2.64.88,1.6,1.6,0,0,1-.09-.61,2,2,0,0,1,.2-.9,7.48,7.48,0,0,1,2.95-.63c2,0,2.84.95,2.84,3.42v3.49a1.66,1.66,0,0,0,.23.94,5.49,5.49,0,0,0,1.25-.22.79.79,0,0,1,0,.2,1.86,1.86,0,0,1-.18.81,4.64,4.64,0,0,1-2,.52,1.85,1.85,0,0,1-.76-1.36Zm0-2.76a5.88,5.88,0,0,0-1.27-.14c-1.41,0-2.2.63-2.2,1.58a1.46,1.46,0,0,0,1.64,1.44,2.27,2.27,0,0,0,1.83-.88Z"/><path class="cls-1" d="M81.85,422.83h-1.3a2.11,2.11,0,0,1,.32-.95,5.22,5.22,0,0,1,1.63-.25,3.76,3.76,0,0,1,.92.1v10.68a4.83,4.83,0,0,0,.15,1.28h1.35a1,1,0,0,1,0,.23,2.25,2.25,0,0,1-.14.72,9.94,9.94,0,0,1-2.44.36,3.08,3.08,0,0,1-.36-1.29h-.09a2.93,2.93,0,0,1-2.72,1.38c-1.57,0-3.36-1.08-3.36-4.34,0-2.89,1.79-4.82,4.38-4.82a3.15,3.15,0,0,1,1.64.43Zm0,4.43a5,5,0,0,0-1.5-.25c-2,0-2.89,1.4-2.89,3.49s1,3.37,2.33,3.37a2.36,2.36,0,0,0,2.06-1.08Z"/><path class="cls-1" d="M88.94,433.69a7.5,7.5,0,0,1,1.32.23,3.12,3.12,0,0,1,0,.87H86a2.25,2.25,0,0,1,.25-.81,6.09,6.09,0,0,1,1.16-.34v-6.4H86.05a2,2,0,0,1,.32-.95,4.7,4.7,0,0,1,1.5-.25,2.82,2.82,0,0,1,.85.11v1.31h.18a3.21,3.21,0,0,1,2.86-1.53,2.15,2.15,0,0,1,2.41,1.64h.09a3.15,3.15,0,0,1,2.91-1.64c1.41,0,2.65.45,2.65,3.24,0,1.53,0,3-.1,4.52a9.33,9.33,0,0,1,1.46.23,2.34,2.34,0,0,1,.06.56,1.62,1.62,0,0,1,0,.31H96.93a2.48,2.48,0,0,1,.26-.81,5.65,5.65,0,0,1,1-.34v-4.22c0-1.38-.42-2.27-1.67-2.27a3.12,3.12,0,0,0-2.2,1.16v5.36a7.39,7.39,0,0,1,1.32.25,2.79,2.79,0,0,1,0,.87H91.53a2.25,2.25,0,0,1,.25-.81,5.65,5.65,0,0,1,1-.34v-4.22c0-1.38-.42-2.27-1.66-2.27a3.09,3.09,0,0,0-2.21,1.16Z"/><path class="cls-1" d="M102.3,427.24a2.12,2.12,0,0,1,.33-.95,5.42,5.42,0,0,1,1.63-.25,3.56,3.56,0,0,1,.94.11v7.52a9.73,9.73,0,0,1,1.42.25,2.34,2.34,0,0,1,.06.56,1.62,1.62,0,0,1,0,.31h-4.45a2.48,2.48,0,0,1,.26-.81,6,6,0,0,1,1.15-.34v-6.4Zm3.17-4.19a1,1,0,0,1-1,1.06.94.94,0,0,1-1-1.06,1,1,0,0,1,1-1A.94.94,0,0,1,105.47,423.05Z"/><path class="cls-1" d="M110.71,433.69a7.33,7.33,0,0,1,1.32.23,2.79,2.79,0,0,1,0,.87h-4.34A2.25,2.25,0,0,1,108,434a6.31,6.31,0,0,1,1.16-.34v-6.4h-1.32a2.11,2.11,0,0,1,.32-.95,4.7,4.7,0,0,1,1.5-.25,2.82,2.82,0,0,1,.85.11v1.31h.18a3.27,3.27,0,0,1,2.92-1.53c1.42,0,2.69.45,2.69,3.24,0,1.51,0,3-.11,4.52a9.47,9.47,0,0,1,1.47.23,3.06,3.06,0,0,1,0,.56,1.62,1.62,0,0,1,0,.31h-4.28a2.25,2.25,0,0,1,.25-.81,5.65,5.65,0,0,1,1-.34v-4.22c0-1.38-.43-2.27-1.7-2.27a3.19,3.19,0,0,0-2.26,1.16Z"/><path class="cls-1" d="M118.76,427.24a2.11,2.11,0,0,1,.32-.95,5.48,5.48,0,0,1,1.63-.25,3.47,3.47,0,0,1,.94.11v7.52a9.88,9.88,0,0,1,1.43.25,2.38,2.38,0,0,1,0,.56c0,.11,0,.2,0,.31h-4.45a2.25,2.25,0,0,1,.25-.81,6.31,6.31,0,0,1,1.16-.34v-6.4Zm3.16-4.19a1,1,0,0,1-1,1.06.93.93,0,0,1-1-1.06,1,1,0,0,1,1-1A.93.93,0,0,1,121.92,423.05Z"/><path class="cls-1" d="M128.87,427.08a2.93,2.93,0,0,0-1.07-.22c-.94,0-1.48.44-1.48,1.1,0,2,4.21,1.41,4.21,4.54,0,1.87-1.57,2.59-3.26,2.59a5.51,5.51,0,0,1-2.76-.68,3.66,3.66,0,0,1-.09-.86,5.19,5.19,0,0,1,.18-1.28,5.14,5.14,0,0,1,1.3.16v1.24a2.89,2.89,0,0,0,1.52.42,1.37,1.37,0,0,0,1.52-1.35c0-2.15-4.25-1.37-4.25-4.56,0-1.32,1.21-2.25,3-2.25a6.89,6.89,0,0,1,2.55.47,2.41,2.41,0,0,1,0,.55,5.79,5.79,0,0,1-.2,1.46,2.63,2.63,0,0,1-1.21-.27Z"/><path class="cls-1" d="M133.28,424a3.12,3.12,0,0,1,1.21-.29v2.49h2.62a4.69,4.69,0,0,1,.06,1h-2.68v5c0,1.17.16,1.68,1.18,1.68a6.87,6.87,0,0,0,1.68-.24,2.18,2.18,0,0,1,0,.24,1.6,1.6,0,0,1-.18.7,5.92,5.92,0,0,1-2.22.48c-1.39,0-2.1-.75-2.1-2.61,0-1.06,0-3.38.09-5.2h-1.24a2.84,2.84,0,0,1,.21-.94A6.44,6.44,0,0,1,133,426Z"/><path class="cls-1" d="M141.23,427.86a2.43,2.43,0,0,1,2.36-1.93,2.6,2.6,0,0,1,.81.14,2.31,2.31,0,0,1,.23,1.08,1.85,1.85,0,0,1,0,.49,2.5,2.5,0,0,0-1.23-.31,2.24,2.24,0,0,0-2.08,1.48v4.83a8.77,8.77,0,0,1,1.79.32,2.54,2.54,0,0,1,0,.83h-4.81a2.25,2.25,0,0,1,.25-.81,6.31,6.31,0,0,1,1.16-.34v-6.4h-1.32a2.11,2.11,0,0,1,.32-.95,4.9,4.9,0,0,1,1.5-.25,2.82,2.82,0,0,1,.85.11v1.71Z"/><path class="cls-1" d="M150.66,433.73a2.79,2.79,0,0,1-2.54,1.36,2.34,2.34,0,0,1-2.56-2.41c0-1.85,1.57-2.81,3.36-2.81a4.45,4.45,0,0,1,1.68.31v-1c0-1.34-.58-2-1.72-2a5.83,5.83,0,0,0-2.64.88,1.6,1.6,0,0,1-.09-.61,2,2,0,0,1,.2-.9,7.48,7.48,0,0,1,3-.63c2,0,2.84.95,2.84,3.42v3.49a1.66,1.66,0,0,0,.23.94,5.49,5.49,0,0,0,1.25-.22.79.79,0,0,1,0,.2,1.86,1.86,0,0,1-.18.81,4.64,4.64,0,0,1-2,.52,1.85,1.85,0,0,1-.76-1.36Zm0-2.76a5.88,5.88,0,0,0-1.27-.14c-1.41,0-2.2.63-2.2,1.58a1.46,1.46,0,0,0,1.64,1.44,2.27,2.27,0,0,0,1.83-.88Z"/><path class="cls-1" d="M160.22,427.24a2.31,2.31,0,0,0-1.05-.27c-1.55,0-2.67,1-2.67,3.39s1.19,3.49,2.82,3.49a7.6,7.6,0,0,0,2.22-.43,2.17,2.17,0,0,1-.25,1,6.53,6.53,0,0,1-2.68.64c-2.33,0-3.83-1.87-3.83-4.39,0-2.79,1.79-4.77,4.43-4.77a4.35,4.35,0,0,1,2.37.65c0,.18,0,.47,0,.65a4.35,4.35,0,0,1-.25,1.53,3,3,0,0,1-1.14-.24Z"/><path class="cls-1" d="M163.08,427.24a2.11,2.11,0,0,1,.32-.95A5.53,5.53,0,0,1,165,426a3.47,3.47,0,0,1,.94.11v7.52a9.88,9.88,0,0,1,1.43.25,2.34,2.34,0,0,1,.06.56,1.62,1.62,0,0,1,0,.31H163a2.47,2.47,0,0,1,.25-.81,6.31,6.31,0,0,1,1.16-.34v-6.4Zm3.16-4.19a1,1,0,0,1-1,1.06.93.93,0,0,1-1-1.06,1,1,0,0,1,1-1A.93.93,0,0,1,166.24,423.05Z"/><path class="cls-1" d="M177,430.38c0,3-1.61,4.71-4.11,4.71s-4.12-1.62-4.12-4.71c0-2.76,1.77-4.45,4.12-4.45S177,427.51,177,430.38ZM172.84,434c1.67,0,2.46-1.4,2.46-3.63,0-1.93-1-3.39-2.46-3.39s-2.47,1.35-2.47,3.39S171.31,434,172.84,434Zm-.38-8.93a2.52,2.52,0,0,1-.92-.77l2-2.81a3.67,3.67,0,0,1,1.59.63Z"/><path class="cls-1" d="M181.49,433.69a7.5,7.5,0,0,1,1.32.23,2.79,2.79,0,0,1,0,.87H178.5a2.48,2.48,0,0,1,.26-.81,6.2,6.2,0,0,1,1.15-.34v-6.4h-1.32a2.12,2.12,0,0,1,.33-.95,4.7,4.7,0,0,1,1.5-.25,2.82,2.82,0,0,1,.85.11v1.31h.18a3.25,3.25,0,0,1,2.91-1.53c1.43,0,2.7.45,2.7,3.24,0,1.51,0,3-.11,4.52a9.14,9.14,0,0,1,1.46.23,2.34,2.34,0,0,1,.06.56,1.62,1.62,0,0,1,0,.31h-4.29a2.48,2.48,0,0,1,.26-.81,5.65,5.65,0,0,1,1-.34v-4.22c0-1.38-.44-2.27-1.7-2.27a3.19,3.19,0,0,0-2.26,1.16Z"/><path class="cls-1" d="M192.52,433.82A1.07,1.07,0,0,1,191.4,435a1,1,0,0,1-1.16-1.18,1.09,1.09,0,0,1,1.16-1.1A1,1,0,0,1,192.52,433.82Z"/><path class="cls-2" d="M195.83,173.16h15.64v16.39H45.08V173.44H59.79c.12-1.8.28-3.13.28-4.47q0-58,0-116c0-2.45.28-4.93-3.41-4.62v-7h71.09c-.57,2.63,2,5.86-2,7.78-.37.17-.42,1.26-.42,1.93,0,17.77,0,35.53,0,53.62h12.52v-83l58-16Zm-89.2-14.91c8.43,1.44,8.43,1.42,8.43-6.69q0-44.73,0-89.46c0-1.47-.14-2.94-.22-4.4h-8.21Zm38.26-123c0,3.59-.31,6.83.19,9.94.14.93,2.53,2.1,3.88,2.09,1.55,0,4.27-1,4.43-1.94.55-3.23.21-6.6.21-10.09Zm8.73,34.22c0-3.5.16-6.83-.05-10.13s-2.89-1.87-4.57-2-4-.91-4.08,2.07c-.1,3.29,0,6.6,0,10Zm9.29-11.61V69.39h8C171.93,56.06,172.43,56.59,162.91,57.9Zm-18,56h8.71a74.51,74.51,0,0,0-.17-9.87c-.12-.87-2.27-2.06-3.49-2.05-1.74,0-4.7-1.54-5,1.91C144.69,107.2,144.91,110.53,144.91,113.91Zm26.44.14c0-3.61.31-6.85-.19-10-.15-.93-2.49-2-3.9-2.12-1.61-.14-4.35-1.23-4.54,2s0,6.64,0,10.12Zm-8.7-78.71a88.4,88.4,0,0,0,.14,9.83c.1.86,2,2.22,3,2.15,1.89-.15,5,1.7,5.48-1.81.44-3.26.09-6.62.09-10.17Zm-9,123.22a81.44,81.44,0,0,0-.16-10.05c-.11-.86-2.26-2.1-3.43-2-1.72.07-4.7.91-4.87,1.83-.59,3.3-.23,6.77-.23,10.27Zm17.27,0c1-13,1.78-13.35-7.95-11.58v11.58ZM171,91.67V79.82h-8.1V91.67ZM153.35,79.94H145.1V91.62h8.25Zm0,44.55h-8.25v11.66h8.25Zm9.57,0v12a36.75,36.75,0,0,0,6.09-.1,3.31,3.31,0,0,0,2.2-2.15c.26-3.15.1-6.32.1-9.72Zm26.17-55V57.73H181V69.48ZM75.6,102.24H67.49v11.7H75.6Zm105.41-.1v11.78h8.11V102.14ZM75.4,158.63v-12H67.58v12ZM189,158.54V146.61h-8v11.93Zm.06-123.12h-8.14V47.18h8.14ZM67.54,57.61V69.36h8V57.61Zm8,34.1V80h-8V91.71ZM181,79.82V91.65H189V79.82ZM75.65,124.47h-8.1v11.58h8.1Zm113.45.09H181V136.1h8.08Z"/><path class="cls-3" d="M183.79,143l15.32-8.84-7.19,7.93,8.09-4.67c.16.29-8.68,8-8,9.17,0,0,5.43-5.29,6.36-3.67,0,0-6.27,4.48-5.73,5.43.29.5,6.13-6.06,7.23-4.17.61,1.06-9,9-8.7,9.6,0,0,6.19-3.81,6.29-3.63,0,0-4.77,2.47-4.1,3.62s7-4,7-4"/><path class="cls-3" d="M183.7,121s15.47-9.08,15.53-9c1.29,2.23-13.41,6.65-12.36,8.47.52.91,10.74-6.21,10.74-6.21l-4.54,6.36,6.84-3.94c.32.56-6.76,9.06-6.56,9.4.82,1.42,5.29-4.71,6-3.47.07.13-8,5.36-7.26,6.55,0,0,5.25-4.9,6.06-3.5,0,0-6,3.85-4.87,5.73.54.94,5.2-5.46,6.26-3.62"/><path class="cls-3" d="M167.3,142.46c.73,1.27,15.64-11.29,16.62-9.59,0,0-17.8,5.92-15.87,9.26,2.45,4.24,14.71-12.27,16.35-9.43L173,142.63c.73,1.26,15.37-15.74,18.34-10.59,0,0-17.84,9-15.33,13.33.29.5,23.15-13.36,23.15-13.36s-27.33,13.37-24.5,18.27c1.45,2.51,10.66-6.16,10.66-6.16,1.65,2.85-10.07,7-10.07,7,.75,1.29,8.1-7.05,9.13-5.27.36.63-12,5.72-10.85,7.77.37.64,10-5.76,10-5.76l-8.17,5.92s9.53-5.9,9.7-5.6"/><path class="cls-3" d="M183.51,98.69l16-9.23L190,97.15c1,1.7,9.24-5.33,9.24-5.33,1.11,1.93-8.93,4-7.51,6.46l8.16-4.72c.39.67-8.46,6-8.46,6l7-4-4.56,6.31c.46.79,5.59-3.68,5.79-3.34.73,1.28-6.6,7.64-6.6,7.64.4.69,5-2.87,5-2.87s-6.4,7-6.4,7c.73,1.26,6-4.2,6.34-3.66"/><path class="cls-3" d="M167,120.09l16.57-9.56c.24.42-15.78,10.08-15.78,10.08s18.9-11.33,19.08-11c1.76,3-17.13,11.6-17.13,11.6s17.75-14.46,19.58-11.29c0,0-15.71,13.81-15.3,14.52,0,0,21-19.28,24.12-13.93l-24.93,19.84c.41.7,9.54-7.37,10.35-6,.55,1-8.67,5.88-8.67,5.88.54.93,7.86-4.54,7.86-4.54,1,1.65-10,6.05-9.89,6.29.34.59,9.42-9.46,11.16-6.45"/><path class="cls-3" d="M149.28,143.57l19.84-11.45c1.75,3-11.86,11.77-11.61,12.2,0,0,23.76-22.81,27.7-16,1.87,3.24-27.76,17.34-27.76,17.34s25.78-15.44,26-15c0,0-31.08,12.76-26.86,20.07.57,1,8.34-4.82,8.34-4.82L156,152.51c.14.24,10.12-8.74,11.37-6.57.42.72-10.06,8.23-10.06,8.23.45.78,8.86-8,10.09-5.83"/><path class="cls-3" d="M184.81,75.58c1.12,1.93,11.45-11.18,13.43-7.76,1.34,2.32-10.77,4.78-9.35,7.23L198,69.79l-9.56,5.62c1.24,2.15,10.14-6.8,10.55-6.1l-8.53,6.07c.28.48,9.65-6,9.82-5.67,1,1.68-8.4,5.71-8.34,5.82L199.77,71l-7.35,4.84c.22.38,6.7-3.87,6.7-3.87,1.72,3-7.8,10.22-7.8,10.22.19.33,7.82-5,8-4.63,1.09,1.89-7.39,7.2-7.39,7.2l6-3.48-7.21,7.1s7.72-5.58,8.21-4.74"/><path class="cls-3" d="M166.36,98.39c2.07,3.59,19.46-11.24,19.46-11.24L167.93,98.09c.24.41,16.33-12,17.46-10.08l-11.58,12.13c3.93,6.8,24.39-14.08,24.39-14.08S175,103.78,175.61,104.87c0,0,8.23-7.92,9.6-5.54,1,1.69-10.15,7.78-9.78,8.42,0,0,7.87-5.53,8.29-4.79l-9,6.88c.26.45,9.17-5.29,9.17-5.29"/><path class="cls-3" d="M148.9,120.3c2.92,5.07,17.09-9.87,17.09-9.87.43.74-9,10.34-9,10.34,2.83,4.9,27-15.59,27-15.59s-26.57,18.49-25.75,19.92c0,0,8-8,9.44-5.45,1.7,2.95-11.6,7.13-9.78,10.28,1.05,1.82,9-5.21,9-5.21.62,1.09-9.62,5.62-9.06,6.6,0,0,8.83-7.24,9.76-5.63"/><path class="cls-3" d="M183.08,54.53s16-11.7,17.07-9.85c.6,1-12.64,7.75-12.2,8.51.74,1.29,12-6.95,12-6.95,1,1.67-6.12,7.37-6.12,7.37.28.48,4.27-2.47,4.27-2.47l-6.78,5.13c.53.92,7.44-4.86,7.69-4.44,0,0-8.66,6.07-7.35,8.34.7,1.23,8.29-4.79,8.29-4.79,1.45,2.52-8.18,7-7.8,7.6,0,.07,8.11-4.68,8.11-4.68s-9,6.34-9,6.34,6.25-3.77,6.32-3.65c.86,1.48-7.56,3.22-6.49,5.07.78,1.34,7.16-5.33,7.68-4.43"/><path class="cls-3" d="M166.53,75.72c.52.9,15.17-13.78,17.35-10,2.77,4.8-19.51,8.36-18.15,10.72C168.42,81.1,183.91,61,186,64.7c1.22,2.11-12.71,10.77-12.71,10.77,1.57,2.73,17.16-13.7,18.81-10.86,3,5.13-20.36,10.58-19.82,11.52,0,0,15.35-15.54,18.24-10.53,0,0-20.51,5.34-17.66,10.29,1.44,2.48,17.68-10.45,17.79-10.27,2.3,4-18.47,8.68-17.54,10.28,0,0,18.93-10.94,18.93-10.94,1.86,3.21-19.32,11.41-19.32,11.41s16.11-14.62,18.41-10.64L172.82,77S198.1,60.39,199,61.92c2.73,4.74-26.6,14-25,16.81,3.39,5.86,23.05-20.42,26.13-15.09,3.43,5.94-28.26,11.92-26.06,15.74,3.62,6.27,23.48-13.56,23.48-13.56,4.21,7.3-24.3,19.09-24.3,19.09,1.38,2.38,8.87-6.22,9.35-5.4,1,1.79-9.79,5-9.33,5.8,1.53,2.65,11-8.16,11.76-6.79.56,1-10.28,8.72-10.28,8.72.43.74,9.8-5.65,9.8-5.65"/><path class="cls-3" d="M148.32,98.52c1.24,2.14,20-11.57,20-11.57s-14.21,9-12.49,12l26.86-15.51c1.46,2.53-28.31,15.29-26.55,18.35,3.72,6.44,28.67-16.55,28.67-16.55,2.3,4-32.88,13.09-28.3,21,1.44,2.49,8.86-5.12,8.86-5.12l-8.36,6.7c.49.83,6.77-5.13,7.3-4.22.94,1.62-8.41,5.36-7.84,6.35l9.78-5.64"/><path class="cls-3" d="M184.37,31.43s14.35-8.67,14.52-8.38l-12,8.05s11.42-7.79,11.94-6.89l-9.9,7.53s11.29-7.13,11.55-6.67c1.39,2.4-8.08,5.95-8.08,5.95.94,1.61,5-3.82,5.44-3.14l-4.09,3.78,6.46-3.73c.43.73-9.64,8.39-8.43,10.48,0,0,6.38-4.09,6.56-3.78,1.31,2.27-8.5,4.13-7.15,6.47l7.94-4.58c.74,1.28-6.38,3.34-5.73,4.45l6.3-3.64c1,1.72-7.66,3.75-6.72,5.37l5.9-3.41"/><path class="cls-3" d="M168,53s17.33-12.54,18.43-10.64-13.53,13.46-13.53,13.46L199.2,40.58s-23.83,13.57-23.14,14.76c.45.79,23.59-13.62,23.59-13.62,2.08,3.61-24.84,12.83-24.12,14.08.43.75,22-12.72,22-12.72,4.28,7.42-24.3,17.22-24.3,17.22L184.13,54c.15.26-11.79,6.31-10.42,8.68l9.37-5.41-10,7.22c.91,1.59,11-8.91,12.13-7L175,64.77c1.42,2.47,8.72-8,10-5.78"/><path class="cls-3" d="M148.42,76s16.38-14,18.35-10.6c0,0-10.94,10.41-10.8,10.66,2,3.51,28.73-16.75,28.8-16.63s-30.63,12.34-27.88,17.1c1.81,3.14,23-22.77,27.14-15.67.35.61-30.6,12.38-26.24,19.92,0,0,9.77-5.66,9.78-5.64,2.07,3.59-12,11.56-11.87,11.81,0,0,8.92-5.6,9.12-5.27,0,0-10.2,4.13-9,6.25l8.74-5.06"/><path class="cls-3" d="M165.81,31.5c5,8.68,33.47-19.32,33.47-19.32L175.79,31C178.77,36.2,198,18.2,198,18.2c1.88,3.25-25.8,16.17-24.13,19.07,0,0,22.88-17.91,24.92-14.38.57,1-25.65,13.17-24.85,14.56.64,1.1,10.64-6.14,10.64-6.14.49.85-10.16,3.95-9.1,5.77S184.25,32,184.25,32L172.69,43.73l11.49-6.63"/><path class="cls-3" d="M150.88,52.54s14.65-10.36,15.48-8.93c1.16,2-11,10.38-11,10.38s26.5-19,28.1-16.22c1.07,1.83-28.95,13.1-25.34,19.36l25-14.41S152,55.17,156.47,63c0,0,9.66-6,9.83-5.67.28.48-9.52,4.78-8.22,7,.85,1.48,6.92-4,6.92-4l-9.29,5.73,10-5.8"/><path class="cls-3" d="M149.5,30.61S190.63-9.91,197.89,2.67L149.74,32.08c3.94,6.83,48.57-30,49.44-28.55L156,32.42C159.74,39,194.82-.9,199.53,7.26S153,27.17,157.1,34.33c1.53,2.65,41.64-24,41.64-24l-43,24.86C157.45,38,194.9,3.94,198.64,10.41c5.71,9.9-43,26.92-43,26.92s7.84-7.38,9.07-5.24c.84,1.45-10.22,9.7-9.74,10.54.79,1.36,8.38-8,9.73-5.62"/><path class="cls-3" d="M141,17.91c0,.05.48-.28.48-.28a30.68,30.68,0,0,0,.38,4.7l17-9.8s-19.56,10.12-17.7,13.34l26-15S141,24.25,141.85,25.78c3.31,5.74,26.63-15.38,26.63-15.38L140.76,30,181.7,6.38c3.56,6.16-42.15,26.26-42.15,26.26S187.71,1.7,189.06,4.05c0,0-57,19.33-49.47,32.39,0,0,8.69-6.22,9.21-5.31,0,0-10,6.6-8.76,8.83,0,0,7.19-4.34,7.27-4.19l-6.52,4.9,8.15-4.7L141.41,45c.82,1.42,5.56-3.36,5.62-3.24s-5.72,5.7-5.29,6.44c0,0,8.74-7.71,9.9-5.71,2,3.44-14.32,7-12,11,1.09,1.89,27.25-15.74,27.25-15.74S141.5,54.15,142.44,55.78C146,62,165,37.71,167.17,41.5c2.36,4.08-27,17-27,17C142.21,62.08,168.86,42,168.86,42c4.28,7.42-27.66,16.44-27.51,16.69l7-4c.37.64-8.2,8.55-8.2,8.55.18.31,5.28-5.56,6.37-3.67s-6.18,5.4-6.18,5.4c.64,1.11,5.28-5.19,6.2-3.59.16.29-4.43,3.59-4.43,3.59.55,1,5.91-3.42,5.91-3.42,1.06,1.85-8.28,6.77-7.11,8.81,1.08,1.87,7.1-4.09,7.1-4.09.16.28-9.73,4.34-8.18,7,0,0,10.17-9.91,11.92-6.88l-10.14,6s9-9.92,11-6.37c0,0-13.62,5.57-12.42,7.65,0,0,13.91-9.19,14.41-8.32,0,0-16.36,4.57-14.17,8.37,0,0,13.32-8.11,13.5-7.79L139.78,78.53S162.62,55.84,166.73,63c0,0-27.28,14-25.33,17.42,0,0,6.15-4,6.35-3.66,1.39,2.42-7.42,7-7.42,7l6.56-3.79S139,82.69,140,84.35c0,0,7.29-6.56,8.3-4.8,0,0-8.45,2.53-7.27,4.59.58,1,7.13-5.46,7.71-4.46.44.76-6.43,5.2-6.11,5.74s4.74-4.61,5.55-3.2-7,4.74-7,4.74,4.69-5.44,5.88-3.39c.85,1.47-7.07,3.78-6.54,4.7.16.28,9.31-5.37,9.31-5.37l-7.43,7.21c1.06,1.84,4.35-2.52,4.35-2.52l-6.21,5c.71,1.24,9.74-5.62,9.74-5.62l-9.07,6.66c.56,1,10.74-6.83,11-6.36.63,1.09-12.55,10.48-12.55,10.48l27.11-15.65c4.62,8-30.65,12.71-27.18,18.71,1.15,2,23.14-17.9,25.1-14.49l-23.32,14.13c2.38,4.13,19.4-20.64,23.49-13.56"/><path class="cls-3" d="M109.53,54c2.2,3.81,22.35-12.9,22.35-12.9s-18.35,9.73-16.37,13.15c.51.88,13-10.59,14.35-8.29,0,0-14.89,6-12.6,10,0,0,11.06-9.7,12.5-7.22,0,0-12.37,7.34-10.32,10.88,0,.09,7.64-5.28,8-4.63l-9,10.57,9.12-5.27c.8,1.37-10.83,11-10.83,11L129.3,64c.52.89-12.46,10.11-12.46,10.11C118.42,76.9,127,68.3,127,68.3l-9.85,8.13c.36.62,10.83-6.25,10.83-6.25s-9.78,11.1-9.69,11.26c0,0,8.63-6.39,9.24-5.34,0,0-8.66,6.75-8.58,6.89,1.14,2,9.94-7,10.47-6,2.07,3.59-12.18,10.7-12.18,10.7,1.46,2.54,11.88-7.86,12.31-7.11,0,0-12.85,8.86-11.58,11.07,0,0,11.08-8.74,12.09-7,.68,1.18-11.69,6-10.7,7.7,1.29,2.23,8.66-5,8.66-5,.16.27-10.77,9.48-10.77,9.48.18.3,12.27-7.37,12.4-7.15,0,0-10.5,6.74-10.43,6.87.84,1.45,10.38-6,10.38-6,.2.34-12.45,8.37-12.45,8.37,1.63,2.83,12.63-7.53,12.74-7.35,0,0-12.5,11.78-12.27,12.17l10.4-6c1.32,2.29-8.64,9.83-8.64,9.83.75,1.29,11.49-6.64,11.49-6.64s-15.91,4.32-13.66,8.2l13.81-8s-14.08,7.07-12.62,9.61c1.15,2,17.76-10.25,17.76-10.25s-19.88,9.33-18.28,12.09c0,0,17.22-15.18,19.49-11.25,0,0-19,11.35-17.44,14,0,0,27.91-17.21,28.38-16.39,0,0-33.91,9.2-29.1,17.53,0,0,26.27-23.18,29.74-17.17,1.74,3-33.53,12.81-30.52,18,3.76,6.52,27.6-20.66,29.64-17.12,4,7-29.31,22.48-29.31,22.48,2.7,4.69,30.62-17.67,30.62-17.67,1.09,1.89-32.33,23.11-32.33,23.11.4.68,32.07-20.38,32.88-19l-31.13,22.71s35.08-30.29,39.43-22.76l-38.74,26.31c2,3.5,46.18-26.67,46.18-26.67,7.16,12.41-47.41,30.35-47,31.1,0,0,24.46-25.27,29.29-16.9,0,0-31.61,15.66-29.4,19.49,0,0,24.55-23.82,28.73-16.58L117,146.94s28.39-21.39,30.56-17.64c0,0-31.73,19-29.92,22.1,0,0,31.67-21.7,33.15-19.14,2,3.45-32.63,20.12-32,21.21,0,0,32.46-32.32,38.34-22.14"/><path class="cls-3" d="M48.29,169.62c0,.06.24-.16.25-.15.25.43-.49,2-.16,2.57.59,1,3-1.77,3-1.77.53.91-2,3.44-2,3.44s7.46-5.23,7.86-4.53c1.14,2-7.56,8.14-7.56,8.14s48.77-51.32,58.8-33.95L48.9,179.21l62-35.79c2.2,3.81-61,37-61,37l60.42-34.89c8.32,14.4-63.45,38.63-63.45,38.63,4.89,8.47,62.05-36.73,62.44-36.05,0,0-64.77,32.84-62.31,37.1l62.54-36.11C118,163.88,53,183.19,54.27,185.44l55.87-32.26c1.44,2.49-51.56,23.44-46.7,31.85,5.84,10.12,46.94-38.66,51.94-30,1.53,2.64-45.7,30.32-45.7,30.32,1.09,1.88,97.67-56.39,97.67-56.39.23.39-90.89,53.35-89.27,56.17,6.42,11.1,69-39.85,69-39.85s-68.94,25-60.37,39.84c7,12.13,61.93-37.54,62.7-36.2l-55.79,37.3s51.85-38.65,55.62-32.11c0,0-51.75,29.8-51.33,30.53l51-29.44s-47.1,29.93-46.42,31.11L167.21,149S100.32,173,107.75,185.89c3.58,6.2,52.62-44.82,58.87-34l-52.09,33c2,3.55,52.13-30.1,52.13-30.1,5.06,8.76-49.23,30.09-49.23,30.09,1.74,3,52.44-30.27,52.44-30.27,2.41,4.17-50.38,26.12-48.09,30.09C130,199,168.25,146.29,173.26,155c7.72,13.38-49.13,31.35-49.13,31.35s55.4-40,58.89-34c3.23,5.61-57.18,26.61-53.69,32.66l54.35-31.39c8.07,14-53.84,32.35-53.84,32.35l53.35-30.8-47.6,29.51c2.09,3.62,51.33-29.64,51.33-29.64S138.29,183.9,139,185.19c0,0,51.69-33.09,53.09-30.65,0,0-55.47,23.34-51.52,30.17,5.28,9.15,51.79-47.47,59.39-34.3,1.36,2.36-56.15,35.73-56.15,35.73s50.29-39.56,54.85-31.66c0,0-52.75,29.26-51.48,31.46.22.38,50.91-29.39,50.91-29.39l-41,29.4,41.32-23.85-32.61,23.16c.54.93,28.56-25.33,32.39-18.7,2.37,4.1-31.83,16.07-30.57,18.25l31.52-18.2c2,3.49-30.32,18.48-30.32,18.48,4.7,8.14,27.52-24.94,31.44-18.15,3.56,6.17-31.95,10.26-27.19,18.5,1.35,2.33,25.78-16.78,26.6-15.36,1.38,2.38-30.34,9.48-26.46,16.2,3.62,6.27,30.58-17.65,30.58-17.65.2.34-26.69,16.15-26.58,16.34.74,1.29,27.5-16.55,27.79-16.05,3.35,5.79-27.36,15.89-27.36,15.89,1.3,2.27,28.61-16.52,28.61-16.52,1.33,2.3-21.45,17.61-21.45,17.61,2.9,5,23.35-24.18,28-16.16,0,0-20.9,14-20.35,15,1.24,2.14,21.54-12.44,21.54-12.44s-15.95,13.19-15.7,13.63c.56,1,15.63-10.94,16.46-9.5l-12.61,8.52c2.06,3.56,9.9-10.08,11.79-6.81,1.21,2.09-9.05,5.56-7.93,7.51.71,1.23,9.9-6,10-5.77s-2.63,4.7-2.1,5.61c0,0,.71-.44.73-.42s-.41.5-.4.51h0"/><path class="cls-3" d="M70.39,143s37.09-28.66,40.22-23.22l-36,22s31.55-24.39,34.22-19.76c4,6.88-32.1,20.44-32.1,20.44.65,1.12,32.78-18.93,32.78-18.93,1.49,2.58-35.55,15.64-32.29,21.29,2.69,4.66,31.11-18,31.11-18s-29.06,19-28.67,19.71c0,0,28.46-20,30-17.33.38.66-29.55,21.65-29.55,21.65l29.77-17.18S77,153.5,77.13,153.74s29.16-25.83,33.05-19.08c1.73,3-38.22,11.83-33.08,20.74,1.35,2.34,32.56-18.8,32.56-18.8"/><path class="cls-3" d="M70.27,120.89l40.47-23.37c4,7-31.41,22.69-31.41,22.69,2.86,5,29.2-19.28,30.25-17.46C111.29,105.7,76,114.14,80,121c3.52,6.1,28.76-22,31.08-17.94,0,0-34.21,17.28-33,19.4l32.91-19c4.43,7.68-35.62,16.45-33.43,20.24,4.89,8.47,28-27.35,32.82-19,0,0-30.24,21.74-30.17,21.86s27.08-19.77,28.87-16.67c3,5.29-32,15.1-28.56,21.11,4.72,8.17,26.61-19.41,28.36-16.38"/><path class="cls-3" d="M70.12,98.7c2.19,3.79,40.75-23.52,40.75-23.52.95,1.65-38.12,20.25-36.44,23.15l35.95-20.76L74.16,98.77l35.26-20.36C111.22,81.52,78.64,100,78.64,100l31.83-18.38c2.92,5.06-36.08,16.13-32.1,23,3.24,5.61,32.7-18.88,32.7-18.88S79.05,106.44,80,108l28.28-16.33L80.4,108.91l30.3-17.49"/><path class="cls-3" d="M71.66,75.58S123.9,29.32,130.87,41.4c1.95,3.38-61.34,18.82-52.34,34.41,0,0,27.08-22.07,29.87-17.24,0,0-36.19,13.17-30.76,22.58C79,83.5,110.18,62.37,110.18,62.37c4.31,7.47-31.88,16-30.66,18.14l30.2-17.44c.56,1-30.17,21.45-30.17,21.45.76,1.32,27.34-24.25,31-17.9,4.8,8.32-33,15.43-30.91,19,0,0,27.87-22.34,30.58-17.66,0,0-32.35,13.67-30,17.76,2.19,3.8,28.86-19.41,30.06-17.35,0,0-32,17.67-31.21,19l31.71-18.31"/><path class="cls-3" d="M71.53,53.28,98.77,37.56,73.45,53.92C76.29,58.85,100,35.4,101.38,37.8c3.41,5.92-22.7,17.12-22.7,17.12,4.16,7.22,27.91-18.77,29.06-16.78L80.19,58l35-20.23-38,23.71,43.13-24.9c4.37,7.57-44.65,18.07-40.86,24.65,6.75,11.69,40.85-23.59,40.85-23.59,5.48,9.5-40.14,26.78-40.14,26.78l46-26.53"/><path class="cls-3" d="M60,37.6s.25-.14.25-.14c.83,1.43-1.84,5.85-1.73,6,0,0,10.59-6.33,10.68-6.16.59,1-7.16,5-6.13,6.75,0,0,9.87-10.24,11.84-6.83,2.07,3.58-13,9.15-13,9.15,1.06,1.83,12.38-12,14.47-8.35L62.65,51.32S85.07,37,85.67,38c1.3,2.25-24.36,9-21.76,13.47C67.65,58,87.05,38.13,87.05,38.13c.22.38-22.32,15.45-22.32,15.45,1.94,3.36,29-16.72,29-16.72C97.12,42.81,62.94,57,62.94,57s31.4-20.53,32.44-18.73L62.86,58.21C63,58.49,70.2,54,70.2,54L64,57.6c.62,1.07,6.75-3.9,6.75-3.9l-6.42,5.15,6.29-3.63c.71,1.22-7.36,5.18-7,5.86s7.88-4.55,7.88-4.55c.27.47-9.92,3.54-8.75,5.57l7-4.05L63.13,66c1,1.81,6.54-6.47,7.71-4.45.9,1.57-8.6,5.83-8.37,6.22,0,0,9.4-5.62,9.48-5.47.55,1-9.84,7.2-9.84,7.2.57,1,10-5.74,10-5.74l-8.93,6.57,8.39-4.85S64.39,71.32,64.78,72c1.28,2.22,11-10.86,13-7.5C78.64,66,60.94,71.36,62.48,74c.49.84,14-11.61,15.56-9l-13.28,10s60-48.68,66.1-38.17c0,0-73.57,32.48-67.94,42.22,10.17,17.62,65.62-41.64,67.25-38.83,11.49,19.92-68,42.25-68,42.25.81,1.4,8.37-5.29,8.57-4.94L64.85,83,69.91,80c1.58,2.74-8.41,7.58-7.71,8.8,0,0,8.54-5.71,8.88-5.13.15.26-6.31,4.66-6.31,4.66s5.71-3.69,5.88-3.4l-6.27,7.55c.71,1.23,6.45-6.1,7.48-4.32.64,1.1-10.06,9.24-10.06,9.24S78.72,86.05,79.42,87.26c2.19,3.8-17.3,8.85-15,12.8,7.32,12.67,45.84-26.47,45.84-26.47,2.36,4.1-46,30.48-46,30.48,1.21,2.1,6.3-3.64,6.3-3.64s-9.17,6.2-8.24,7.8c.17.3,6.2-5.49,7-4.06,1.12,1.94-8.47,6.32-7.19,8.55.93,1.61,10-5.77,10-5.77s-9.31,4.92-8.76,5.87L70,109s-7.24,7.41-6.2,9.21c1.49,2.58,14.09-10.31,15-8.68,0,0-18.75,9.44-16.54,13.26l46.93-27.1c4.44,7.69-47.6,31.27-47.16,32,0,0,6.81-6.34,7.85-4.53,0,0-7,6.18-5.49,8.74.36.62,5.61-6,6.8-3.92l-8.46,9.42c1.28,2.22,9.54-5.5,9.54-5.5l-7.66,4.64c.12.19,6.83-3.94,6.83-3.94s-7.31,3.49-6.92,4.17c1,1.73,8.09-4.67,8.09-4.67l-8.75,7.27s13.37-9.13,14-8.07c1.14,2-13.27,11.24-13.27,11.24s39.76-38.38,46.44-26.81L62.8,145l48-27.73c.14.24-46.13,31.36-46.13,31.36.46.79,5.64-3.26,5.64-3.26,1.19,2.06-8.68,7.49-8,8.74,0,0,7.07-4.67,7.33-4.23l-6,4.14c.22.38,7.66-4.43,7.66-4.43,1,1.72-7.57,4.71-7.57,4.71.18.31,6.06-4,6.28-3.62,0,0-7.39,8.35-7,9.09,0,0,8.26-5,8.37-4.83,0,0-11.37,7.55-9.66,10.51,1.87,3.24,46.31-31.66,48.45-28,4.26,7.39-50.11,24.9-47.08,30.15,0,0,40.64-38.57,47.18-27.24,0,0-55.07,17.77-48.31,29.47,5.41,9.37,48.43-29.9,49.27-28.44"/><path d="M61.69,244.42H48.8v-3l6.2-4.63c1.55-1.16,2.14-2.13,2.14-3.27a2.05,2.05,0,0,0-2.28-2.08c-2,0-2.86,1.23-2.86,3l-3.71-.7c.1-3.66,2.5-6,6.64-6,4.31,0,6.37,2.55,6.37,5.43,0,2-.68,3.73-3.34,5.6l-3.13,2.15h6.86Z"/><path d="M77.9,244.42H65v-3l6.2-4.63c1.56-1.16,2.14-2.13,2.14-3.27a2.05,2.05,0,0,0-2.28-2.08c-2,0-2.86,1.23-2.86,3l-3.71-.7c.1-3.66,2.5-6,6.64-6,4.31,0,6.37,2.55,6.37,5.43,0,2-.67,3.73-3.34,5.6L71,240.88H77.9Z"/><path d="M98.86,243a8.53,8.53,0,0,1-5.38,1.72c-4.77,0-7-2.88-7-6.64a6.46,6.46,0,0,1,6.74-6.71c3.85,0,5.69,2.37,5.69,5.28a10.51,10.51,0,0,1-.27,2.42H90.57a2.85,2.85,0,0,0,3.16,2.43,6.85,6.85,0,0,0,3.63-1.21Zm-3.44-6.78c0-1-.68-1.75-2.18-1.75a2.45,2.45,0,0,0-2.59,2h4.77Z"/><path d="M106.06,231.75V233a5.25,5.25,0,0,1,3.83-1.5c2,0,3.29.7,4,2.15a5.14,5.14,0,0,1,4.36-2.13c3.27,0,4.6,2.5,4.6,5.6v3c0,.63.12,1.17.73,1.17a3.31,3.31,0,0,0,1.24-.34l.17,3.22a9.06,9.06,0,0,1-3.06.53c-2,0-3.15-1-3.15-3.58v-3.27c0-1.63-.75-2.52-2.13-2.52a2.33,2.33,0,0,0-2.13,1.35v7.78H110.4v-6.64c0-1.6-.71-2.49-2.11-2.49a2.42,2.42,0,0,0-2.23,1.4v7.73H102V231.75Z"/><path d="M128.26,249V236.11c0-.68-.12-1.16-.78-1.16a2.5,2.5,0,0,0-1.24.34l-.12-3.25a8.75,8.75,0,0,1,3-.53,2.73,2.73,0,0,1,2.91,1.72,4.68,4.68,0,0,1,3.87-1.7c3.47,0,5.87,2.74,5.87,6.59s-2.4,6.54-5.87,6.54a5.13,5.13,0,0,1-3.58-1.31V249Zm4.07-13v4.24a3.81,3.81,0,0,0,2.42.9,3,3,0,0,0,0-6.06A3.65,3.65,0,0,0,132.33,236Z"/><path d="M145.7,236.11c0-.65-.12-1.16-.77-1.16a3.23,3.23,0,0,0-1.24.31l-.12-3.2a7.68,7.68,0,0,1,3-.53,2.74,2.74,0,0,1,3,1.87,3.18,3.18,0,0,1,3.08-1.87,3.68,3.68,0,0,1,2.25.61l-.51,3.7a4.65,4.65,0,0,0-2.42-.55c-1.5,0-2,1.21-2.16,2.52v6.61H145.7Z"/><path d="M168.55,243a8.53,8.53,0,0,1-5.38,1.72c-4.77,0-6.95-2.88-6.95-6.64a6.46,6.46,0,0,1,6.74-6.71c3.85,0,5.69,2.37,5.69,5.28a10.51,10.51,0,0,1-.27,2.42h-8.11a2.83,2.83,0,0,0,3.15,2.43,6.85,6.85,0,0,0,3.63-1.21Zm-3.44-6.78c0-1-.68-1.75-2.18-1.75a2.45,2.45,0,0,0-2.59,2h4.77Z"/><path d="M180.38,235.7a8.54,8.54,0,0,0-3.78-1c-.83,0-1.53.24-1.53.85s.32.65,1,.85l2.26.6c2.3.63,3,1.87,3,3.59,0,2.45-1.94,4.09-5.29,4.09a11.46,11.46,0,0,1-5-1.09l.75-3.17a9.47,9.47,0,0,0,3.95,1.19c1,0,1.5-.2,1.5-.75s-.48-.63-1.28-.85l-2-.56c-2.06-.61-3.08-1.75-3.08-3.66,0-2.52,2.21-4.24,5.74-4.24a13.27,13.27,0,0,1,4.73.92Z"/><path d="M197.17,240.08c0,.63.17,1.17.78,1.17a2.75,2.75,0,0,0,1.21-.34l.14,3.22a8.78,8.78,0,0,1-3,.53,2.7,2.7,0,0,1-2.88-1.81,5,5,0,0,1-3.88,1.79c-3.46,0-5.84-2.71-5.84-6.52s2.38-6.59,5.84-6.59a4.74,4.74,0,0,1,3.59,1.33v-1.11h4.07ZM193.1,236a3.65,3.65,0,0,0-2.42-.92,3,3,0,0,0,0,6.06,3.8,3.8,0,0,0,2.42-.92Z"/><path d="M210.59,235.7a8.47,8.47,0,0,0-3.78-1c-.82,0-1.52.24-1.52.85s.31.65,1,.85l2.25.6c2.31.63,3,1.87,3,3.59,0,2.45-1.94,4.09-5.28,4.09a11.46,11.46,0,0,1-5-1.09l.75-3.17a9.38,9.38,0,0,0,3.95,1.19c.94,0,1.5-.2,1.5-.75s-.48-.63-1.28-.85l-2-.56c-2.06-.61-3.08-1.75-3.08-3.66,0-2.52,2.2-4.24,5.74-4.24a13.36,13.36,0,0,1,4.73.92Z"/></g></g></svg>