<svg xmlns="http://www.w3.org/2000/svg" viewBox="0 0 261.89 466.32"><defs><style>.cls-1{fill:#333;}.cls-2{fill:#f8e2e2;}.cls-3{fill:none;stroke:#ee6a5a;stroke-linecap:round;stroke-linejoin:round;stroke-width:0.5px;}</style></defs><title>empresas</title><g id="Layer_2" data-name="Layer 2"><g id="Layer_1-2" data-name="Layer 1"><path class="cls-1" d="M25.35,260.83h-1.3a2,2,0,0,1,.33-.95,5.11,5.11,0,0,1,1.62-.25,3.9,3.9,0,0,1,.93.1v10.68a4.83,4.83,0,0,0,.14,1.28h1.36a1.93,1.93,0,0,1,0,.23,2.25,2.25,0,0,1-.14.72,9.94,9.94,0,0,1-2.44.36,3.08,3.08,0,0,1-.36-1.29h-.09a2.93,2.93,0,0,1-2.72,1.38c-1.57,0-3.36-1.08-3.36-4.34,0-2.89,1.79-4.82,4.38-4.82a3.12,3.12,0,0,1,1.64.43Zm0,4.43a5,5,0,0,0-1.5-.25c-2,0-2.89,1.4-2.89,3.49s1,3.37,2.33,3.37a2.36,2.36,0,0,0,2.06-1.08Z"/><path class="cls-1" d="M31.36,268.72a2.88,2.88,0,0,0,2.94,3.11,8.3,8.3,0,0,0,2.53-.5,1.94,1.94,0,0,1-.23,1,6.28,6.28,0,0,1-2.86.73c-2.58,0-4.07-1.92-4.07-4.41s1.65-4.75,4.18-4.75c2.17,0,3.09,1.57,3.09,3.83,0,.31,0,.63,0,1Zm4-1.05c.13-1.24-.23-2.75-1.75-2.75-1.28,0-2.12,1.12-2.22,2.75Z"/><path class="cls-1" d="M46.83,265.08a2.83,2.83,0,0,0-1.06-.22c-.94,0-1.48.44-1.48,1.1,0,2,4.21,1.41,4.21,4.54,0,1.87-1.58,2.59-3.26,2.59a5.48,5.48,0,0,1-2.76-.68,3.66,3.66,0,0,1-.09-.86,5.12,5.12,0,0,1,.18-1.28,5.14,5.14,0,0,1,1.3.16v1.24a2.89,2.89,0,0,0,1.52.42,1.37,1.37,0,0,0,1.52-1.36c0-2.14-4.25-1.36-4.25-4.55,0-1.32,1.21-2.25,3-2.25a6.89,6.89,0,0,1,2.55.47,2.41,2.41,0,0,1,0,.55,6.28,6.28,0,0,1-.2,1.46,2.7,2.7,0,0,1-1.22-.27Z"/><path class="cls-1" d="M51.83,268.72a2.88,2.88,0,0,0,2.94,3.11,8.3,8.3,0,0,0,2.53-.5,1.94,1.94,0,0,1-.23,1,6.28,6.28,0,0,1-2.86.73c-2.58,0-4.07-1.92-4.07-4.41s1.65-4.75,4.18-4.75c2.17,0,3.09,1.57,3.09,3.83,0,.31,0,.63,0,1Zm4-1.05c.13-1.24-.23-2.75-1.75-2.75-1.28,0-2.12,1.12-2.22,2.75Z"/><path class="cls-1" d="M60.49,272.61a1.31,1.31,0,0,1-.87-1.28,1.85,1.85,0,0,1,1-1.53v-.09a2.82,2.82,0,0,1-1.15-2.56,3.19,3.19,0,0,1,3.47-3.22,4.13,4.13,0,0,1,2,.5,4.42,4.42,0,0,1,1.76-.34,2.55,2.55,0,0,1,.77.11,4.54,4.54,0,0,1,.15,1.08H65.86a3.33,3.33,0,0,1,.52,1.87c0,2-1.3,3.21-3.45,3.21a4.89,4.89,0,0,1-1.47-.2,1.13,1.13,0,0,0-.27.74c0,.7,1,.82,2.62.82,2.1,0,3.71.46,3.71,2.38,0,2.16-2.1,3.22-4.54,3.22-2.13,0-4.07-.88-4.07-2.7a2.07,2.07,0,0,1,1.58-1.92Zm-.06,1.8c0,1.26,1.47,1.89,2.81,1.89s2.76-.63,2.76-1.86c0-.9-.69-1.35-2.55-1.35a9.57,9.57,0,0,1-2.06-.18A1.59,1.59,0,0,0,60.43,274.41Zm2.5-5c1.25,0,1.84-.88,1.84-2.25s-.7-2.25-1.84-2.25c-1.29,0-1.88.83-1.88,2.25S61.75,269.4,62.93,269.4Z"/><path class="cls-1" d="M75.22,265.24h-1.3a2.12,2.12,0,0,1,.33-.95,4.86,4.86,0,0,1,1.63-.25,3.82,3.82,0,0,1,.92.1v6.27a5.18,5.18,0,0,0,.14,1.28h1.38a1.93,1.93,0,0,1,0,.23,2.25,2.25,0,0,1-.14.72,10.39,10.39,0,0,1-2.48.36,3.75,3.75,0,0,1-.36-1.42h-.09a3.2,3.2,0,0,1-2.87,1.51c-1.41,0-2.66-.45-2.66-3.24,0-1.51,0-3.09.09-4.61H68.44a2.26,2.26,0,0,1,.33-.93,4.73,4.73,0,0,1,1.64-.27,3.84,3.84,0,0,1,.93.1v5.46c0,1.37.43,2.25,1.66,2.25a3.09,3.09,0,0,0,2.22-1.1Z"/><path class="cls-1" d="M82.46,265.86a2.41,2.41,0,0,1,2.35-1.93,2.56,2.56,0,0,1,.81.14,2.3,2.3,0,0,1,.24,1.08,1.83,1.83,0,0,1-.06.49,2.44,2.44,0,0,0-1.23-.31,2.25,2.25,0,0,0-2.08,1.48v4.83a8.77,8.77,0,0,1,1.79.32,2.29,2.29,0,0,1,0,.83H79.51a2.73,2.73,0,0,1,.25-.81,6.31,6.31,0,0,1,1.16-.34v-6.4H79.6a2.12,2.12,0,0,1,.33-.95,4.53,4.53,0,0,1,1.5-.25,3.3,3.3,0,0,1,.85.1v1.72Z"/><path class="cls-1" d="M86.85,265.24a2.12,2.12,0,0,1,.33-.95A5.11,5.11,0,0,1,88.8,264a3.93,3.93,0,0,1,.94.1v7.53a9.64,9.64,0,0,1,1.43.25,2.34,2.34,0,0,1,.06.56,1.62,1.62,0,0,1,0,.31H86.76A2.73,2.73,0,0,1,87,272a6.31,6.31,0,0,1,1.16-.34v-6.4ZM90,261.05a1,1,0,0,1-1,1.06.93.93,0,0,1-1-1.06,1,1,0,0,1,1-1A.94.94,0,0,1,90,261.05Z"/><path class="cls-1" d="M98.51,260.83h-1.3a2.12,2.12,0,0,1,.33-.95,5.12,5.12,0,0,1,1.63-.25,3.82,3.82,0,0,1,.92.1v10.68a4.83,4.83,0,0,0,.14,1.28h1.36a1,1,0,0,1,0,.23,2.24,2.24,0,0,1-.15.72A9.94,9.94,0,0,1,99,273a3.24,3.24,0,0,1-.36-1.29h-.09a2.91,2.91,0,0,1-2.71,1.38c-1.58,0-3.37-1.08-3.37-4.34,0-2.89,1.79-4.82,4.38-4.82a3.12,3.12,0,0,1,1.64.43Zm0,4.43A5,5,0,0,0,97,265c-2,0-2.89,1.4-2.89,3.49s1,3.37,2.33,3.37a2.36,2.36,0,0,0,2.06-1.08Z"/><path class="cls-1" d="M107.88,271.72a2.76,2.76,0,0,1-2.53,1.37,2.35,2.35,0,0,1-2.57-2.41c0-1.85,1.58-2.81,3.37-2.81a4.49,4.49,0,0,1,1.68.31v-1c0-1.34-.58-2-1.72-2a5.75,5.75,0,0,0-2.64.88,1.6,1.6,0,0,1-.09-.61,2,2,0,0,1,.2-.9,7.44,7.44,0,0,1,3-.63c2,0,2.83.95,2.83,3.42v3.49a1.58,1.58,0,0,0,.24.94,5.68,5.68,0,0,0,1.25-.22,1.56,1.56,0,0,1,0,.2,1.86,1.86,0,0,1-.18.81,4.55,4.55,0,0,1-2,.52,1.92,1.92,0,0,1-.76-1.37Zm0-2.75a6,6,0,0,0-1.27-.14c-1.41,0-2.21.63-2.21,1.58a1.46,1.46,0,0,0,1.65,1.44,2.3,2.3,0,0,0,1.83-.88Z"/><path class="cls-1" d="M118,260.83h-1.31a2.12,2.12,0,0,1,.33-.95,5.17,5.17,0,0,1,1.63-.25,3.82,3.82,0,0,1,.92.1v10.68a5.29,5.29,0,0,0,.14,1.28h1.36a1,1,0,0,1,0,.23,2,2,0,0,1-.15.72,9.94,9.94,0,0,1-2.44.36,3.24,3.24,0,0,1-.36-1.29h-.09a2.91,2.91,0,0,1-2.71,1.38c-1.58,0-3.37-1.08-3.37-4.34,0-2.89,1.79-4.82,4.38-4.82a3.16,3.16,0,0,1,1.65.43Zm0,4.43a4.9,4.9,0,0,0-1.5-.25c-2,0-2.89,1.4-2.89,3.49s1,3.37,2.33,3.37a2.36,2.36,0,0,0,2.06-1.08Z"/><path class="cls-1" d="M128.48,275.79a9.72,9.72,0,0,1,1.72.33,2.52,2.52,0,0,1,0,.83h-4.74a2.48,2.48,0,0,1,.26-.81,7.07,7.07,0,0,1,1.15-.35V265.24h-1.33a2,2,0,0,1,.32-.95,4.62,4.62,0,0,1,1.5-.25,3.2,3.2,0,0,1,.85.1v1.18h.18a2.8,2.8,0,0,1,2.66-1.39c1.59,0,3.42,1.08,3.42,4.34,0,2.9-1.83,4.82-4.43,4.82a3.07,3.07,0,0,1-1.59-.43Zm0-4a4.67,4.67,0,0,0,1.5.25c2,0,2.89-1.42,2.89-3.51s-1-3.38-2.33-3.38a2.38,2.38,0,0,0-2.06,1.1Z"/><path class="cls-1" d="M139,265.86a2.43,2.43,0,0,1,2.35-1.93,2.62,2.62,0,0,1,.82.14,2.45,2.45,0,0,1,.23,1.08,2.38,2.38,0,0,1-.05.49,2.5,2.5,0,0,0-1.23-.31,2.24,2.24,0,0,0-2.08,1.48v4.83a9,9,0,0,1,1.79.32,2.54,2.54,0,0,1,0,.83h-4.81a2.48,2.48,0,0,1,.26-.81,6.09,6.09,0,0,1,1.16-.34v-6.4h-1.32a2,2,0,0,1,.32-.95A4.62,4.62,0,0,1,138,264a3.2,3.2,0,0,1,.85.1v1.72Z"/><path class="cls-1" d="M143.4,265.24a2,2,0,0,1,.32-.95,5.17,5.17,0,0,1,1.63-.25,4,4,0,0,1,.94.1v7.53a9.88,9.88,0,0,1,1.43.25,3.06,3.06,0,0,1,.05.56,1.62,1.62,0,0,1,0,.31h-4.44a2.25,2.25,0,0,1,.25-.81,6.09,6.09,0,0,1,1.16-.34v-6.4Zm3.16-4.19a1,1,0,0,1-1,1.06.93.93,0,0,1-1-1.06,1,1,0,0,1,1-1A.93.93,0,0,1,146.56,261.05Z"/><path class="cls-1" d="M152.8,271.72c.09-.41.29-1.17.41-1.54l1.07-3.19a12.09,12.09,0,0,1,.67-1.6,5.21,5.21,0,0,1-1.07-.24,3.06,3.06,0,0,1-.14-.92h3.42a3.54,3.54,0,0,1-.18,1,4.41,4.41,0,0,1-.85.17l-2.79,7.45-1.64.18L149,265.48a3.82,3.82,0,0,1-.92-.31,4,4,0,0,1-.18-.94H152a3.58,3.58,0,0,1-.15,1,11.57,11.57,0,0,1-1.28.2,9.77,9.77,0,0,1,.65,1.53l1.12,3.33a13.75,13.75,0,0,1,.36,1.47Z"/><path class="cls-1" d="M162.67,271.72a2.76,2.76,0,0,1-2.53,1.37,2.35,2.35,0,0,1-2.57-2.41c0-1.85,1.58-2.81,3.37-2.81a4.49,4.49,0,0,1,1.68.31v-1c0-1.34-.58-2-1.72-2a5.75,5.75,0,0,0-2.64.88,1.6,1.6,0,0,1-.09-.61,2,2,0,0,1,.2-.9,7.48,7.48,0,0,1,2.95-.63c2,0,2.83.95,2.83,3.42v3.49a1.66,1.66,0,0,0,.24.94,5.68,5.68,0,0,0,1.25-.22.79.79,0,0,1,0,.2,1.86,1.86,0,0,1-.19.81,4.55,4.55,0,0,1-1.95.52,1.92,1.92,0,0,1-.76-1.37Zm0-2.75a6,6,0,0,0-1.27-.14c-1.41,0-2.21.63-2.21,1.58a1.46,1.46,0,0,0,1.65,1.44,2.3,2.3,0,0,0,1.83-.88Z"/><path class="cls-1" d="M172.82,260.83h-1.31a2.12,2.12,0,0,1,.33-.95,5.17,5.17,0,0,1,1.63-.25,3.82,3.82,0,0,1,.92.1v10.68a5.29,5.29,0,0,0,.14,1.28h1.36a1,1,0,0,1,0,.23,2,2,0,0,1-.15.72,9.87,9.87,0,0,1-2.44.36,3.24,3.24,0,0,1-.36-1.29h-.09a2.91,2.91,0,0,1-2.71,1.38c-1.57,0-3.37-1.08-3.37-4.34,0-2.89,1.8-4.82,4.38-4.82a3.16,3.16,0,0,1,1.65.43Zm0,4.43a4.9,4.9,0,0,0-1.5-.25c-2,0-2.89,1.4-2.89,3.49s1,3.37,2.33,3.37a2.35,2.35,0,0,0,2.06-1.08Z"/><path class="cls-1" d="M182.18,271.72a2.76,2.76,0,0,1-2.53,1.37,2.35,2.35,0,0,1-2.57-2.41c0-1.85,1.58-2.81,3.37-2.81a4.45,4.45,0,0,1,1.68.31v-1c0-1.34-.58-2-1.72-2a5.75,5.75,0,0,0-2.64.88,1.6,1.6,0,0,1-.09-.61,2,2,0,0,1,.2-.9,7.48,7.48,0,0,1,3-.63c2,0,2.84.95,2.84,3.42v3.49a1.66,1.66,0,0,0,.23.94,5.68,5.68,0,0,0,1.25-.22.79.79,0,0,1,0,.2,2,2,0,0,1-.18.81,4.64,4.64,0,0,1-2,.52,1.92,1.92,0,0,1-.76-1.37Zm0-2.75a6,6,0,0,0-1.27-.14c-1.41,0-2.2.63-2.2,1.58a1.45,1.45,0,0,0,1.64,1.44,2.27,2.27,0,0,0,1.83-.88Z"/><path class="cls-1" d="M195.15,264.23a8.27,8.27,0,0,1,.09,1h-2.46v6.36a9.66,9.66,0,0,1,1.79.32,2.84,2.84,0,0,1,0,.83H189.8a2.25,2.25,0,0,1,.25-.81,6.31,6.31,0,0,1,1.16-.34v-6.36h-1.43a2.92,2.92,0,0,1,.22-.94,8.92,8.92,0,0,1,1.21-.32v-1c0-2.43,1.48-3.41,3.18-3.41a6.74,6.74,0,0,1,2,.31,3.08,3.08,0,0,1,0,.61,4.91,4.91,0,0,1-.25,1.59,2.48,2.48,0,0,1-1.07-.29v-1.21a1.3,1.3,0,0,0-.57-.12c-1,0-1.74.48-1.74,2.34v1.36Z"/><path class="cls-1" d="M202.45,265.24h-1.3a2.12,2.12,0,0,1,.33-.95,4.86,4.86,0,0,1,1.63-.25,3.82,3.82,0,0,1,.92.1v6.27a5.18,5.18,0,0,0,.14,1.28h1.38a1.93,1.93,0,0,1,0,.23,2.25,2.25,0,0,1-.14.72,10.39,10.39,0,0,1-2.48.36,3.75,3.75,0,0,1-.36-1.42h-.09a3.21,3.21,0,0,1-2.87,1.51c-1.41,0-2.66-.45-2.66-3.24,0-1.51,0-3.09.09-4.61h-1.38a2.26,2.26,0,0,1,.33-.93,4.69,4.69,0,0,1,1.64-.27,3.9,3.9,0,0,1,.93.1v5.46c0,1.37.43,2.25,1.66,2.25a3.09,3.09,0,0,0,2.22-1.1Z"/><path class="cls-1" d="M208.64,268.72a2.89,2.89,0,0,0,3,3.11,8.43,8.43,0,0,0,2.53-.5,2,2,0,0,1-.24,1,6.23,6.23,0,0,1-2.85.73c-2.59,0-4.07-1.92-4.07-4.41s1.64-4.75,4.17-4.75c2.17,0,3.1,1.57,3.1,3.83a8,8,0,0,1-.06,1Zm4-1.05c.12-1.24-.24-2.75-1.76-2.75-1.28,0-2.11,1.12-2.22,2.75Z"/><path class="cls-1" d="M218.67,265.86a2.43,2.43,0,0,1,2.36-1.93,2.6,2.6,0,0,1,.81.14,2.45,2.45,0,0,1,.23,1.08,1.85,1.85,0,0,1,0,.49,2.5,2.5,0,0,0-1.23-.31,2.24,2.24,0,0,0-2.08,1.48v4.83a8.9,8.9,0,0,1,1.79.32,2.84,2.84,0,0,1,0,.83h-4.81A2.25,2.25,0,0,1,216,272a6.31,6.31,0,0,1,1.16-.34v-6.4h-1.32a2.11,2.11,0,0,1,.32-.95,4.62,4.62,0,0,1,1.5-.25,3.2,3.2,0,0,1,.85.1v1.72Z"/><path class="cls-1" d="M231.31,268.38c0,3-1.6,4.71-4.1,4.71s-4.12-1.62-4.12-4.71c0-2.76,1.77-4.45,4.12-4.45S231.31,265.51,231.31,268.38Zm-4.1,3.63c1.66,0,2.46-1.4,2.46-3.63,0-1.93-1-3.39-2.46-3.39s-2.48,1.35-2.48,3.39S225.67,272,227.21,272Z"/><path class="cls-1" d="M235.85,271.69a6.55,6.55,0,0,1,1.32.23,2.51,2.51,0,0,1,0,.87h-4.34a2.73,2.73,0,0,1,.25-.81,6.31,6.31,0,0,1,1.16-.34v-6.4H233a2.12,2.12,0,0,1,.33-.95,4.39,4.39,0,0,1,1.5-.25,3.3,3.3,0,0,1,.85.1v1.32h.18a3.24,3.24,0,0,1,2.91-1.53c1.43,0,2.69.45,2.69,3.24,0,1.51,0,3-.11,4.52a8.26,8.26,0,0,1,1.47.23,3.06,3.06,0,0,1,.05.56,1.62,1.62,0,0,1,0,.31h-4.28a2.73,2.73,0,0,1,.25-.81,5.92,5.92,0,0,1,1-.34v-4.22c0-1.38-.43-2.27-1.7-2.27a3.19,3.19,0,0,0-2.26,1.16Z"/><path class="cls-1" d="M.09,292.24a2.12,2.12,0,0,1,.33-.95A5.11,5.11,0,0,1,2,291a3.93,3.93,0,0,1,.94.1v7.53a9.64,9.64,0,0,1,1.43.25,2.34,2.34,0,0,1,.06.56,1.62,1.62,0,0,1,0,.31H0A2.73,2.73,0,0,1,.25,299a6.31,6.31,0,0,1,1.16-.34v-6.4Zm3.16-4.19a1,1,0,0,1-1,1.06.93.93,0,0,1-1-1.06,1,1,0,0,1,1-1A.93.93,0,0,1,3.25,288.05Z"/><path class="cls-1" d="M11.75,287.83h-1.3a2.12,2.12,0,0,1,.33-.95,5.11,5.11,0,0,1,1.62-.25,3.84,3.84,0,0,1,.93.1v10.68a4.83,4.83,0,0,0,.14,1.28h1.36a1,1,0,0,1,0,.23,2.24,2.24,0,0,1-.15.72,9.94,9.94,0,0,1-2.44.36,3.08,3.08,0,0,1-.36-1.29h-.09a2.93,2.93,0,0,1-2.71,1.38c-1.58,0-3.37-1.08-3.37-4.34,0-2.89,1.79-4.82,4.38-4.82a3.12,3.12,0,0,1,1.64.43Zm0,4.43a5,5,0,0,0-1.5-.25c-2,0-2.89,1.4-2.89,3.49s1,3.37,2.33,3.37a2.36,2.36,0,0,0,2.06-1.08Z"/><path class="cls-1" d="M17.76,295.72a2.88,2.88,0,0,0,2.94,3.11,8.43,8.43,0,0,0,2.54-.5,2,2,0,0,1-.24,1,6.28,6.28,0,0,1-2.86.73c-2.58,0-4.06-1.92-4.06-4.41s1.64-4.75,4.17-4.75c2.17,0,3.09,1.57,3.09,3.83a7.92,7.92,0,0,1-.05,1Zm4-1.05c.13-1.24-.23-2.75-1.75-2.75-1.28,0-2.11,1.12-2.22,2.75Z"/><path class="cls-1" d="M27.83,298.69a6.68,6.68,0,0,1,1.32.23,3.12,3.12,0,0,1,0,.87H24.85a2.25,2.25,0,0,1,.25-.81,6.09,6.09,0,0,1,1.16-.34v-6.4H24.94a2,2,0,0,1,.32-.95,4.44,4.44,0,0,1,1.5-.25,3.2,3.2,0,0,1,.85.1v1.32h.18a3.27,3.27,0,0,1,2.91-1.53c1.43,0,2.7.45,2.7,3.24,0,1.51,0,3-.11,4.52a8.14,8.14,0,0,1,1.46.23,2.34,2.34,0,0,1,.06.56,1.62,1.62,0,0,1,0,.31H30.51a2.25,2.25,0,0,1,.25-.81,5.65,5.65,0,0,1,1-.34v-4.22c0-1.38-.44-2.27-1.7-2.27a3.19,3.19,0,0,0-2.26,1.16Z"/><path class="cls-1" d="M37.11,289a3.12,3.12,0,0,1,1.21-.29v2.48h2.62a4.32,4.32,0,0,1,.05,1H38.32v5c0,1.17.16,1.68,1.17,1.68a6.81,6.81,0,0,0,1.68-.24,1.1,1.1,0,0,1,0,.24,1.6,1.6,0,0,1-.18.7,5.92,5.92,0,0,1-2.22.48c-1.39,0-2.1-.75-2.1-2.61,0-1.06,0-3.38.09-5.2H35.53a2.86,2.86,0,0,1,.22-.94,6.44,6.44,0,0,1,1-.32Z"/><path class="cls-1" d="M42.21,292.24a2,2,0,0,1,.32-.95,5.17,5.17,0,0,1,1.63-.25,4,4,0,0,1,.94.1v7.53a9.88,9.88,0,0,1,1.43.25,3.06,3.06,0,0,1,0,.56,1.62,1.62,0,0,1,0,.31H42.12a2.25,2.25,0,0,1,.25-.81,6.09,6.09,0,0,1,1.16-.34v-6.4Zm3.16-4.19a1,1,0,0,1-1,1.06.93.93,0,0,1-1-1.06,1,1,0,0,1,1-1A.93.93,0,0,1,45.37,288.05Z"/><path class="cls-1" d="M52.73,291.23a8.27,8.27,0,0,1,.09,1H50.61v6.36a10.59,10.59,0,0,1,1.76.3,2.67,2.67,0,0,1,0,.85H47.63a2.73,2.73,0,0,1,.25-.81,6.31,6.31,0,0,1,1.16-.34v-6.36H47.61a2.28,2.28,0,0,1,.22-.94A8.92,8.92,0,0,1,49,291v-.47c0-2.77,1.52-3.91,4.11-3.91a9.4,9.4,0,0,1,3.18.65,5.34,5.34,0,0,1,0,.6,5.61,5.61,0,0,1-.19,1.42A3.37,3.37,0,0,1,54.9,289v-1a4,4,0,0,0-1.63-.36c-1.7,0-2.66.76-2.66,2.79v.79Zm.79,1a1.68,1.68,0,0,1,.33-.95,5.17,5.17,0,0,1,1.63-.25,4,4,0,0,1,.94.1v7.53a9.88,9.88,0,0,1,1.43.25,3.06,3.06,0,0,1,0,.56,1.62,1.62,0,0,1,0,.31H53.43a2.48,2.48,0,0,1,.26-.81,6.09,6.09,0,0,1,1.16-.34v-6.4Z"/><path class="cls-1" d="M64.61,292.24a2.34,2.34,0,0,0-1-.27c-1.55,0-2.68,1-2.68,3.39s1.2,3.49,2.83,3.49a7.6,7.6,0,0,0,2.22-.43,2.17,2.17,0,0,1-.25,1,6.53,6.53,0,0,1-2.68.64c-2.33,0-3.83-1.87-3.83-4.39,0-2.79,1.79-4.77,4.43-4.77a4.35,4.35,0,0,1,2.37.65c0,.18,0,.47,0,.64a4.37,4.37,0,0,1-.25,1.54,3,3,0,0,1-1.14-.24Z"/><path class="cls-1" d="M72.64,298.72a2.77,2.77,0,0,1-2.53,1.37,2.35,2.35,0,0,1-2.57-2.41c0-1.85,1.57-2.81,3.36-2.81a4.45,4.45,0,0,1,1.68.31v-1c0-1.34-.57-2-1.71-2a5.75,5.75,0,0,0-2.64.88,1.43,1.43,0,0,1-.09-.61,2,2,0,0,1,.2-.9,7.39,7.39,0,0,1,2.94-.63c2,0,2.84.95,2.84,3.42v3.49a1.58,1.58,0,0,0,.24.94,5.51,5.51,0,0,0,1.24-.22.79.79,0,0,1,0,.2,1.86,1.86,0,0,1-.18.81,4.64,4.64,0,0,1-2,.52,1.89,1.89,0,0,1-.76-1.37Zm0-2.75a5.86,5.86,0,0,0-1.26-.14c-1.41,0-2.21.63-2.21,1.58a1.46,1.46,0,0,0,1.65,1.44A2.27,2.27,0,0,0,72.6,298Z"/><path class="cls-1" d="M82.78,287.83h-1.3a2.12,2.12,0,0,1,.33-.95,5.11,5.11,0,0,1,1.62-.25,3.9,3.9,0,0,1,.93.1v10.68a4.83,4.83,0,0,0,.14,1.28h1.36a1,1,0,0,1,0,.23,2.24,2.24,0,0,1-.15.72,9.94,9.94,0,0,1-2.44.36,3.08,3.08,0,0,1-.36-1.29h-.09a2.93,2.93,0,0,1-2.72,1.38c-1.57,0-3.36-1.08-3.36-4.34,0-2.89,1.79-4.82,4.38-4.82a3.12,3.12,0,0,1,1.64.43Zm0,4.43a5,5,0,0,0-1.5-.25c-2,0-2.89,1.4-2.89,3.49s1,3.37,2.33,3.37a2.36,2.36,0,0,0,2.06-1.08Z"/><path class="cls-1" d="M92.15,298.72a2.77,2.77,0,0,1-2.53,1.37,2.35,2.35,0,0,1-2.57-2.41c0-1.85,1.57-2.81,3.36-2.81a4.54,4.54,0,0,1,1.69.31v-1c0-1.34-.58-2-1.72-2a5.75,5.75,0,0,0-2.64.88,1.6,1.6,0,0,1-.09-.61,2,2,0,0,1,.2-.9,7.43,7.43,0,0,1,2.94-.63c2,0,2.84.95,2.84,3.42v3.49a1.58,1.58,0,0,0,.24.94,5.68,5.68,0,0,0,1.25-.22,1.56,1.56,0,0,1,0,.2,1.86,1.86,0,0,1-.18.81,4.64,4.64,0,0,1-2,.52,1.89,1.89,0,0,1-.76-1.37Zm0-2.75a5.86,5.86,0,0,0-1.26-.14c-1.41,0-2.21.63-2.21,1.58a1.46,1.46,0,0,0,1.65,1.44,2.27,2.27,0,0,0,1.82-.88Z"/><path class="cls-1" d="M100.74,292.08a2.89,2.89,0,0,0-1.07-.22c-.94,0-1.48.44-1.48,1.1,0,2,4.21,1.41,4.21,4.54,0,1.87-1.57,2.59-3.25,2.59a5.55,5.55,0,0,1-2.77-.68,4.29,4.29,0,0,1-.09-.86,5.12,5.12,0,0,1,.18-1.28,5.14,5.14,0,0,1,1.3.16v1.24a2.89,2.89,0,0,0,1.52.42,1.37,1.37,0,0,0,1.52-1.36c0-2.14-4.25-1.36-4.25-4.55,0-1.32,1.21-2.25,3-2.25a6.85,6.85,0,0,1,2.55.47,2.41,2.41,0,0,1,0,.55,5.79,5.79,0,0,1-.2,1.46,2.66,2.66,0,0,1-1.21-.27Z"/><path class="cls-1" d="M110.18,302.79a9.72,9.72,0,0,1,1.72.33,2.52,2.52,0,0,1,0,.83H107.2a2.25,2.25,0,0,1,.25-.81,6.9,6.9,0,0,1,1.16-.35V292.24h-1.34a2.11,2.11,0,0,1,.32-.95,4.62,4.62,0,0,1,1.5-.25,3.2,3.2,0,0,1,.85.1v1.18h.18a2.8,2.8,0,0,1,2.66-1.39c1.59,0,3.42,1.08,3.42,4.34,0,2.9-1.83,4.82-4.43,4.82a3.1,3.1,0,0,1-1.59-.43Zm0-4a4.67,4.67,0,0,0,1.5.25c2,0,2.89-1.42,2.89-3.51s-1-3.38-2.33-3.38a2.38,2.38,0,0,0-2.06,1.1Z"/><path class="cls-1" d="M126.2,295.38c0,3-1.61,4.71-4.1,4.71s-4.13-1.62-4.13-4.71c0-2.76,1.77-4.45,4.13-4.45S126.2,292.51,126.2,295.38ZM122.1,299c1.66,0,2.45-1.4,2.45-3.63,0-1.93-1-3.39-2.45-3.39s-2.48,1.35-2.48,3.39S120.56,299,122.1,299Z"/><path class="cls-1" d="M130.7,292.86a2.43,2.43,0,0,1,2.35-1.93,2.62,2.62,0,0,1,.82.14,2.45,2.45,0,0,1,.23,1.08,2.38,2.38,0,0,1,0,.49,2.5,2.5,0,0,0-1.23-.31,2.24,2.24,0,0,0-2.08,1.48v4.83a8.9,8.9,0,0,1,1.79.32,2.54,2.54,0,0,1,0,.83h-4.8A2.25,2.25,0,0,1,128,299a6.09,6.09,0,0,1,1.16-.34v-6.4h-1.32a2,2,0,0,1,.32-.95,4.62,4.62,0,0,1,1.5-.25,3.2,3.2,0,0,1,.85.1v1.72Z"/><path class="cls-1" d="M140.61,295.72a2.9,2.9,0,0,0,2.95,3.11,8.36,8.36,0,0,0,2.53-.5,1.94,1.94,0,0,1-.23,1,6.31,6.31,0,0,1-2.86.73c-2.59,0-4.07-1.92-4.07-4.41s1.65-4.75,4.18-4.75c2.17,0,3.09,1.57,3.09,3.83,0,.31,0,.63,0,1Zm4-1.05c.13-1.24-.24-2.75-1.75-2.75-1.29,0-2.12,1.12-2.23,2.75Z"/><path class="cls-1" d="M147.63,287.83a2.11,2.11,0,0,1,.32-.95,5.17,5.17,0,0,1,1.63-.25,3.76,3.76,0,0,1,.92.1v11.94a10.21,10.21,0,0,1,1.47.25,3.06,3.06,0,0,1,.05.56,1.62,1.62,0,0,1,0,.31h-4.48a2.73,2.73,0,0,1,.25-.81,6.31,6.31,0,0,1,1.16-.34V287.83Z"/><path class="cls-1" d="M158.24,288.44a12.35,12.35,0,0,1-1.34-.12,4,4,0,0,1,0-1h4.74a2.87,2.87,0,0,1,0,1,14.09,14.09,0,0,1-1.66.14v10.2h4.48a17.55,17.55,0,0,1,.2-1.81,4.92,4.92,0,0,1,1.18-.12v3.08h-9.15a4,4,0,0,1,.21-1,11.53,11.53,0,0,1,1.41-.23Z"/><path class="cls-1" d="M172,298.72a2.76,2.76,0,0,1-2.53,1.37,2.35,2.35,0,0,1-2.57-2.41c0-1.85,1.58-2.81,3.37-2.81a4.45,4.45,0,0,1,1.68.31v-1c0-1.34-.58-2-1.72-2a5.75,5.75,0,0,0-2.64.88,1.6,1.6,0,0,1-.09-.61,2,2,0,0,1,.2-.9,7.48,7.48,0,0,1,3-.63c2,0,2.84.95,2.84,3.42v3.49a1.66,1.66,0,0,0,.23.94,5.68,5.68,0,0,0,1.25-.22.79.79,0,0,1,0,.2,2,2,0,0,1-.18.81,4.64,4.64,0,0,1-2,.52,1.92,1.92,0,0,1-.76-1.37Zm0-2.75a6,6,0,0,0-1.27-.14c-1.41,0-2.2.63-2.2,1.58a1.45,1.45,0,0,0,1.64,1.44A2.27,2.27,0,0,0,172,298Z"/><path class="cls-1" d="M176.72,287.83h-1.3a2.12,2.12,0,0,1,.33-.95,5.22,5.22,0,0,1,1.63-.25,3.82,3.82,0,0,1,.92.1v3.48c0,.7,0,1.4-.09,2.11h.18a2.51,2.51,0,0,1,2.57-1.39c1.57,0,3.36,1.08,3.36,4.34,0,2.9-1.79,4.82-4.38,4.82a7.41,7.41,0,0,1-3.22-.72Zm1.56,11a5,5,0,0,0,1.5.23c2,0,2.89-1.42,2.89-3.51s-1-3.37-2.33-3.37a2.39,2.39,0,0,0-2.06,1.08Z"/><path class="cls-1" d="M187.77,295.72a2.9,2.9,0,0,0,2.95,3.11,8.36,8.36,0,0,0,2.53-.5,1.94,1.94,0,0,1-.23,1,6.28,6.28,0,0,1-2.86.73c-2.59,0-4.07-1.92-4.07-4.41s1.65-4.75,4.18-4.75c2.17,0,3.09,1.57,3.09,3.83a8,8,0,0,1-.06,1Zm4-1.05c.13-1.24-.23-2.75-1.75-2.75-1.29,0-2.12,1.12-2.23,2.75Z"/><path class="cls-1" d="M197.81,292.86a2.41,2.41,0,0,1,2.35-1.93,2.51,2.51,0,0,1,.81.14,2.3,2.3,0,0,1,.24,1.08,1.83,1.83,0,0,1-.06.49,2.44,2.44,0,0,0-1.23-.31,2.25,2.25,0,0,0-2.08,1.48v4.83a8.77,8.77,0,0,1,1.79.32,2.29,2.29,0,0,1,0,.83h-4.81a2.73,2.73,0,0,1,.25-.81,6.31,6.31,0,0,1,1.16-.34v-6.4H195a2.12,2.12,0,0,1,.33-.95,4.53,4.53,0,0,1,1.5-.25,3.3,3.3,0,0,1,.85.1v1.72Z"/><path class="cls-1" d="M202.2,292.24a2.12,2.12,0,0,1,.33-.95,5.12,5.12,0,0,1,1.63-.25,4,4,0,0,1,.94.1v7.53a9.73,9.73,0,0,1,1.42.25,2.34,2.34,0,0,1,.06.56,1.62,1.62,0,0,1,0,.31h-4.45a2.48,2.48,0,0,1,.26-.81,6,6,0,0,1,1.15-.34v-6.4Zm3.17-4.19a1,1,0,0,1-1,1.06.94.94,0,0,1-1-1.06,1,1,0,0,1,1-1A.94.94,0,0,1,205.37,288.05Z"/><path class="cls-1" d="M210.61,298.69a6.55,6.55,0,0,1,1.32.23,3.12,3.12,0,0,1,0,.87h-4.34a2.25,2.25,0,0,1,.25-.81,6.31,6.31,0,0,1,1.16-.34v-6.4h-1.32a2.11,2.11,0,0,1,.32-.95,4.44,4.44,0,0,1,1.5-.25,3.2,3.2,0,0,1,.85.1v1.32h.18a3.27,3.27,0,0,1,2.92-1.53c1.42,0,2.69.45,2.69,3.24,0,1.51,0,3-.11,4.52a8.41,8.41,0,0,1,1.47.23,3.06,3.06,0,0,1,.05.56,1.62,1.62,0,0,1,0,.31h-4.28a2.25,2.25,0,0,1,.25-.81,5.65,5.65,0,0,1,1-.34v-4.22c0-1.38-.43-2.27-1.7-2.27a3.19,3.19,0,0,0-2.26,1.16Z"/><path class="cls-1" d="M219.89,289a3.12,3.12,0,0,1,1.21-.29v2.48h2.62a4.83,4.83,0,0,1,.06,1H221.1v5c0,1.17.16,1.68,1.17,1.68a6.88,6.88,0,0,0,1.69-.24,2.18,2.18,0,0,1,0,.24,1.6,1.6,0,0,1-.18.7,5.92,5.92,0,0,1-2.22.48c-1.39,0-2.1-.75-2.1-2.61,0-1.06,0-3.38.09-5.2h-1.25a2.86,2.86,0,0,1,.22-.94,6.44,6.44,0,0,1,1.05-.32Z"/><path class="cls-1" d="M233,295.38c0,3-1.61,4.71-4.1,4.71-2.65,0-4.13-1.62-4.13-4.71,0-2.76,1.77-4.45,4.13-4.45S233,292.51,233,295.38Zm-4.1,3.63c1.66,0,2.45-1.4,2.45-3.63,0-1.93-1-3.39-2.45-3.39s-2.48,1.35-2.48,3.39S227.34,299,228.88,299Z"/><path class="cls-1" d="M244.48,287.83h-1.3a2.11,2.11,0,0,1,.32-.95,5.22,5.22,0,0,1,1.63-.25,3.76,3.76,0,0,1,.92.1v10.68a4.83,4.83,0,0,0,.15,1.28h1.35a1,1,0,0,1,0,.23,2.25,2.25,0,0,1-.14.72A10,10,0,0,1,245,300a3.24,3.24,0,0,1-.37-1.29h-.08a2.94,2.94,0,0,1-2.72,1.38c-1.57,0-3.36-1.08-3.36-4.34,0-2.89,1.79-4.82,4.37-4.82a3.16,3.16,0,0,1,1.65.43Zm0,4.43A5,5,0,0,0,243,292c-2,0-2.9,1.4-2.9,3.49s1,3.37,2.34,3.37a2.36,2.36,0,0,0,2.06-1.08Z"/><path class="cls-1" d="M250.48,295.72a2.9,2.9,0,0,0,3,3.11,8.36,8.36,0,0,0,2.53-.5,1.94,1.94,0,0,1-.23,1,6.28,6.28,0,0,1-2.86.73c-2.58,0-4.07-1.92-4.07-4.41s1.65-4.75,4.18-4.75c2.17,0,3.09,1.57,3.09,3.83,0,.31,0,.63-.05,1Zm4-1.05c.13-1.24-.23-2.75-1.75-2.75-1.29,0-2.12,1.12-2.23,2.75Z"/><path class="cls-1" d="M257.5,287.83a2,2,0,0,1,.33-.95,5.11,5.11,0,0,1,1.62-.25,3.9,3.9,0,0,1,.93.1v11.94a10.31,10.31,0,0,1,1.46.25,2.38,2.38,0,0,1,.05.56c0,.11,0,.2,0,.31h-4.49a2.73,2.73,0,0,1,.25-.81,6.31,6.31,0,0,1,1.16-.34V287.83Z"/><path class="cls-1" d="M4.86,315.46a11.56,11.56,0,0,1-1.33,0,4,4,0,0,1,0-1.1c1.57-.14,3.16-.2,4.61-.2,2.66,0,4.68,1.24,4.68,3.75,0,2.75-2.11,4-4.25,4a15.47,15.47,0,0,1-2-.15v3.95a19.32,19.32,0,0,1,2,.18,3,3,0,0,1,0,1H3.24a4,4,0,0,1,.21-1,11.53,11.53,0,0,1,1.41-.23Zm1.67,5.15c.58.06,1.3.09,1.93.09,1.65,0,2.61-.79,2.61-2.75,0-1.77-1.32-2.7-3.22-2.7-.35,0-1,0-1.32.07Z"/><path class="cls-1" d="M21.65,322.38c0,3-1.61,4.71-4.11,4.71s-4.12-1.62-4.12-4.71c0-2.76,1.77-4.45,4.12-4.45S21.65,319.51,21.65,322.38ZM17.54,326c1.66,0,2.46-1.4,2.46-3.63,0-1.93-1-3.39-2.46-3.39s-2.48,1.35-2.48,3.39S16,326,17.54,326Z"/><path class="cls-1" d="M29.44,314.83h-1.3a2.11,2.11,0,0,1,.32-.95,5.17,5.17,0,0,1,1.63-.25,3.76,3.76,0,0,1,.92.1v10.68a4.83,4.83,0,0,0,.15,1.28h1.35a1,1,0,0,1,0,.23,2.25,2.25,0,0,1-.14.72A10,10,0,0,1,30,327a3.24,3.24,0,0,1-.37-1.29h-.09a2.91,2.91,0,0,1-2.71,1.38c-1.57,0-3.36-1.08-3.36-4.34,0-2.89,1.79-4.82,4.37-4.82a3.16,3.16,0,0,1,1.65.43Zm0,4.43A5,5,0,0,0,28,319c-2,0-2.9,1.4-2.9,3.49s1,3.37,2.34,3.37a2.38,2.38,0,0,0,2.06-1.08Z"/><path class="cls-1" d="M35.44,322.72a2.9,2.9,0,0,0,3,3.11,8.36,8.36,0,0,0,2.53-.5,1.94,1.94,0,0,1-.23,1,6.28,6.28,0,0,1-2.86.73c-2.59,0-4.07-1.92-4.07-4.41s1.65-4.75,4.18-4.75c2.17,0,3.09,1.57,3.09,3.83,0,.31,0,.63-.05,1Zm4-1.05c.13-1.24-.23-2.75-1.75-2.75-1.29,0-2.12,1.12-2.23,2.75Z"/><path class="cls-1" d="M45.48,319.86a2.41,2.41,0,0,1,2.35-1.93,2.51,2.51,0,0,1,.81.14,2.3,2.3,0,0,1,.24,1.08,1.83,1.83,0,0,1-.06.49,2.44,2.44,0,0,0-1.23-.31,2.25,2.25,0,0,0-2.08,1.48v4.83a8.77,8.77,0,0,1,1.79.32,2.29,2.29,0,0,1,0,.83H42.53a2.73,2.73,0,0,1,.25-.81,6.31,6.31,0,0,1,1.16-.34v-6.4H42.62a2.12,2.12,0,0,1,.33-.95,4.57,4.57,0,0,1,1.5-.25,3.25,3.25,0,0,1,.85.1v1.72Z"/><path class="cls-1" d="M59.15,319.24a2.34,2.34,0,0,0-1-.27c-1.56,0-2.68,1-2.68,3.39s1.2,3.49,2.82,3.49a7.6,7.6,0,0,0,2.23-.43,2.17,2.17,0,0,1-.25,1,6.53,6.53,0,0,1-2.68.64c-2.33,0-3.83-1.87-3.83-4.39,0-2.79,1.79-4.77,4.43-4.77a4.29,4.29,0,0,1,2.36.65c0,.18,0,.47,0,.64a4.37,4.37,0,0,1-.25,1.54,3,3,0,0,1-1.14-.24Z"/><path class="cls-1" d="M70.36,322.38c0,3-1.61,4.71-4.1,4.71-2.64,0-4.13-1.62-4.13-4.71,0-2.76,1.78-4.45,4.13-4.45S70.36,319.51,70.36,322.38ZM66.26,326c1.66,0,2.45-1.4,2.45-3.63,0-1.93-.95-3.39-2.45-3.39s-2.48,1.35-2.48,3.39S64.72,326,66.26,326Z"/><path class="cls-1" d="M74.9,325.69a6.68,6.68,0,0,1,1.32.23,3.12,3.12,0,0,1,0,.87H71.92a2.25,2.25,0,0,1,.25-.81,6.09,6.09,0,0,1,1.16-.34v-6.4H72a2,2,0,0,1,.32-.95,4.44,4.44,0,0,1,1.5-.25,3.2,3.2,0,0,1,.85.1v1.32h.18a3.21,3.21,0,0,1,2.86-1.53,2.12,2.12,0,0,1,2.4,1.64h.1a3.15,3.15,0,0,1,2.91-1.64c1.41,0,2.65.45,2.65,3.24,0,1.53,0,3-.1,4.52a8.28,8.28,0,0,1,1.46.23,2.34,2.34,0,0,1,.06.56,1.62,1.62,0,0,1,0,.31H82.89a2.48,2.48,0,0,1,.26-.81,5.65,5.65,0,0,1,1-.34v-4.22c0-1.38-.42-2.27-1.67-2.27a3.12,3.12,0,0,0-2.2,1.16v5.36a7.39,7.39,0,0,1,1.32.25,2.79,2.79,0,0,1,0,.87H77.49a2.25,2.25,0,0,1,.25-.81,5.65,5.65,0,0,1,1-.34v-4.22c0-1.38-.42-2.27-1.66-2.27a3.09,3.09,0,0,0-2.21,1.16Z"/><path class="cls-1" d="M96.62,322.38c0,3-1.61,4.71-4.11,4.71s-4.12-1.62-4.12-4.71c0-2.76,1.77-4.45,4.12-4.45S96.62,319.51,96.62,322.38ZM92.51,326c1.67,0,2.46-1.4,2.46-3.63,0-1.93-1-3.39-2.46-3.39S90,320.34,90,322.38,91,326,92.51,326Z"/><path class="cls-1" d="M101.81,314.83a2.11,2.11,0,0,1,.32-.95,5.17,5.17,0,0,1,1.63-.25,3.76,3.76,0,0,1,.92.1v11.94a10.46,10.46,0,0,1,1.47.25,3.06,3.06,0,0,1,0,.56,1.62,1.62,0,0,1,0,.31H101.7A2.47,2.47,0,0,1,102,326a6.31,6.31,0,0,1,1.16-.34V314.83Z"/><path class="cls-1" d="M112.49,325.72a2.76,2.76,0,0,1-2.53,1.37,2.35,2.35,0,0,1-2.57-2.41c0-1.85,1.58-2.81,3.37-2.81a4.45,4.45,0,0,1,1.68.31v-1c0-1.34-.58-2-1.72-2a5.75,5.75,0,0,0-2.64.88,1.6,1.6,0,0,1-.09-.61,2,2,0,0,1,.2-.9,7.48,7.48,0,0,1,3-.63c2,0,2.84.95,2.84,3.42v3.49a1.66,1.66,0,0,0,.23.94,5.58,5.58,0,0,0,1.25-.22.79.79,0,0,1,0,.2,2,2,0,0,1-.18.81,4.64,4.64,0,0,1-2,.52,1.92,1.92,0,0,1-.76-1.37Zm0-2.75a6,6,0,0,0-1.27-.14c-1.41,0-2.2.63-2.2,1.58a1.45,1.45,0,0,0,1.64,1.44,2.27,2.27,0,0,0,1.83-.88Z"/><path class="cls-1" d="M121.08,319.08a2.88,2.88,0,0,0-1.06-.22c-.94,0-1.49.44-1.49,1.1,0,2,4.22,1.41,4.22,4.54,0,1.87-1.58,2.59-3.26,2.59a5.48,5.48,0,0,1-2.76-.68,3.66,3.66,0,0,1-.09-.86,5.12,5.12,0,0,1,.18-1.28,5.2,5.2,0,0,1,1.3.16v1.24a2.84,2.84,0,0,0,1.52.42,1.37,1.37,0,0,0,1.52-1.36c0-2.14-4.25-1.36-4.25-4.55,0-1.32,1.21-2.25,3-2.25a6.93,6.93,0,0,1,2.55.47,3.2,3.2,0,0,1,0,.55,5.79,5.79,0,0,1-.2,1.46,2.69,2.69,0,0,1-1.21-.27Z"/><path class="cls-1" d="M130.87,325.69a6.68,6.68,0,0,1,1.32.23,2.79,2.79,0,0,1,0,.87h-4.34a2.48,2.48,0,0,1,.26-.81,6,6,0,0,1,1.15-.34v-6.4H128a2.12,2.12,0,0,1,.33-.95,4.44,4.44,0,0,1,1.5-.25,3.2,3.2,0,0,1,.85.1v1.32h.18a3.21,3.21,0,0,1,2.86-1.53,2.12,2.12,0,0,1,2.4,1.64h.09a3.18,3.18,0,0,1,2.91-1.64c1.41,0,2.66.45,2.66,3.24,0,1.53,0,3-.11,4.52a8.26,8.26,0,0,1,1.47.23,3.06,3.06,0,0,1,0,.56,1.62,1.62,0,0,1,0,.31h-4.28a2.25,2.25,0,0,1,.25-.81,5.65,5.65,0,0,1,1-.34v-4.22c0-1.38-.41-2.27-1.66-2.27a3.14,3.14,0,0,0-2.21,1.16v5.36a7.22,7.22,0,0,1,1.32.25,2.79,2.79,0,0,1,0,.87h-4.18a2.73,2.73,0,0,1,.25-.81,6,6,0,0,1,1-.34v-4.22c0-1.38-.42-2.27-1.67-2.27a3.09,3.09,0,0,0-2.2,1.16Z"/><path class="cls-1" d="M149.4,325.72a2.77,2.77,0,0,1-2.53,1.37,2.35,2.35,0,0,1-2.57-2.41c0-1.85,1.57-2.81,3.36-2.81a4.54,4.54,0,0,1,1.69.31v-1c0-1.34-.58-2-1.72-2a5.75,5.75,0,0,0-2.64.88,1.6,1.6,0,0,1-.09-.61,2,2,0,0,1,.2-.9,7.43,7.43,0,0,1,2.94-.63c2,0,2.84.95,2.84,3.42v3.49a1.58,1.58,0,0,0,.24.94,5.68,5.68,0,0,0,1.25-.22,1.56,1.56,0,0,1,0,.2,1.86,1.86,0,0,1-.18.81,4.55,4.55,0,0,1-1.95.52,1.89,1.89,0,0,1-.76-1.37Zm0-2.75a5.86,5.86,0,0,0-1.26-.14c-1.41,0-2.21.63-2.21,1.58a1.46,1.46,0,0,0,1.65,1.44,2.27,2.27,0,0,0,1.82-.88Zm-1.71-5.89a2.63,2.63,0,0,1-.93-.77l2-2.81a3.62,3.62,0,0,1,1.59.63Z"/><path class="cls-1" d="M158,319.08a2.89,2.89,0,0,0-1.07-.22c-.94,0-1.48.44-1.48,1.1,0,2,4.21,1.41,4.21,4.54,0,1.87-1.57,2.59-3.25,2.59a5.55,5.55,0,0,1-2.77-.68,4.29,4.29,0,0,1-.09-.86,5.12,5.12,0,0,1,.18-1.28,5.14,5.14,0,0,1,1.3.16v1.24a2.89,2.89,0,0,0,1.52.42,1.37,1.37,0,0,0,1.52-1.36c0-2.14-4.25-1.36-4.25-4.55,0-1.32,1.21-2.25,3-2.25a6.85,6.85,0,0,1,2.55.47,2.41,2.41,0,0,1,0,.55,5.79,5.79,0,0,1-.2,1.46,2.66,2.66,0,0,1-1.21-.27Z"/><path class="cls-1" d="M170.45,319.24a2.34,2.34,0,0,0-1-.27c-1.56,0-2.68,1-2.68,3.39s1.2,3.49,2.82,3.49a7.6,7.6,0,0,0,2.23-.43,2.17,2.17,0,0,1-.25,1,6.53,6.53,0,0,1-2.68.64c-2.33,0-3.83-1.87-3.83-4.39,0-2.79,1.79-4.77,4.43-4.77a4.29,4.29,0,0,1,2.36.65c0,.18,0,.47,0,.64a4.37,4.37,0,0,1-.25,1.54,3,3,0,0,1-1.14-.24Z"/><path class="cls-1" d="M181.66,322.38c0,3-1.61,4.71-4.1,4.71-2.64,0-4.13-1.62-4.13-4.71,0-2.76,1.78-4.45,4.13-4.45S181.66,319.51,181.66,322.38Zm-4.1,3.63c1.66,0,2.45-1.4,2.45-3.63,0-1.93-.95-3.39-2.45-3.39s-2.48,1.35-2.48,3.39S176,326,177.56,326Z"/><path class="cls-1" d="M186.2,325.69a6.68,6.68,0,0,1,1.32.23,3.12,3.12,0,0,1,0,.87h-4.34a2.25,2.25,0,0,1,.25-.81,6.09,6.09,0,0,1,1.16-.34v-6.4h-1.32a2,2,0,0,1,.32-.95,4.44,4.44,0,0,1,1.5-.25,3.2,3.2,0,0,1,.85.1v1.32h.18a3.27,3.27,0,0,1,2.91-1.53c1.43,0,2.7.45,2.7,3.24,0,1.51,0,3-.11,4.52a8.14,8.14,0,0,1,1.46.23,2.34,2.34,0,0,1,.06.56,1.62,1.62,0,0,1,0,.31h-4.28a2.25,2.25,0,0,1,.25-.81,5.65,5.65,0,0,1,1-.34v-4.22c0-1.38-.44-2.27-1.7-2.27a3.19,3.19,0,0,0-2.26,1.16Z"/><path class="cls-1" d="M195.48,316a3.12,3.12,0,0,1,1.21-.29v2.48h2.62a4.32,4.32,0,0,1,.05,1h-2.67v5c0,1.17.16,1.68,1.17,1.68a6.81,6.81,0,0,0,1.68-.24,1.1,1.1,0,0,1,0,.24,1.6,1.6,0,0,1-.18.7,5.92,5.92,0,0,1-2.22.48c-1.39,0-2.1-.75-2.1-2.61,0-1.06,0-3.38.09-5.2H193.9a2.86,2.86,0,0,1,.22-.94,6.44,6.44,0,0,1,1-.32Z"/><path class="cls-1" d="M203.43,319.86a2.43,2.43,0,0,1,2.35-1.93,2.62,2.62,0,0,1,.82.14,2.45,2.45,0,0,1,.23,1.08,2.38,2.38,0,0,1-.05.49,2.5,2.5,0,0,0-1.23-.31,2.24,2.24,0,0,0-2.08,1.48v4.83a9,9,0,0,1,1.79.32,2.54,2.54,0,0,1,0,.83h-4.8a2.25,2.25,0,0,1,.25-.81,6.09,6.09,0,0,1,1.16-.34v-6.4h-1.32a2,2,0,0,1,.32-.95,4.62,4.62,0,0,1,1.5-.25,3.2,3.2,0,0,1,.85.1v1.72Z"/><path class="cls-1" d="M212.85,325.72a2.76,2.76,0,0,1-2.53,1.37,2.35,2.35,0,0,1-2.57-2.41c0-1.85,1.58-2.81,3.37-2.81a4.45,4.45,0,0,1,1.68.31v-1c0-1.34-.58-2-1.72-2a5.75,5.75,0,0,0-2.64.88,1.6,1.6,0,0,1-.09-.61,2,2,0,0,1,.2-.9,7.48,7.48,0,0,1,2.95-.63c2,0,2.84.95,2.84,3.42v3.49a1.66,1.66,0,0,0,.23.94,5.58,5.58,0,0,0,1.25-.22.79.79,0,0,1,0,.2,2,2,0,0,1-.18.81,4.64,4.64,0,0,1-2,.52,1.92,1.92,0,0,1-.76-1.37Zm0-2.75a6,6,0,0,0-1.27-.14c-1.41,0-2.2.63-2.2,1.58a1.45,1.45,0,0,0,1.64,1.44,2.27,2.27,0,0,0,1.83-.88Z"/><path class="cls-1" d="M218.08,316a3.12,3.12,0,0,1,1.21-.29v2.48h2.62a4.83,4.83,0,0,1,.06,1h-2.68v5c0,1.17.16,1.68,1.18,1.68a6.87,6.87,0,0,0,1.68-.24,1.1,1.1,0,0,1,0,.24,1.6,1.6,0,0,1-.18.7,6,6,0,0,1-2.23.48c-1.39,0-2.1-.75-2.1-2.61,0-1.06,0-3.38.09-5.2h-1.24a3.12,3.12,0,0,1,.21-.94,6.44,6.44,0,0,1,1.05-.32Z"/><path class="cls-1" d="M228.35,325.72a2.77,2.77,0,0,1-2.53,1.37,2.35,2.35,0,0,1-2.57-2.41c0-1.85,1.57-2.81,3.37-2.81a4.53,4.53,0,0,1,1.68.31v-1c0-1.34-.58-2-1.72-2a5.75,5.75,0,0,0-2.64.88,1.6,1.6,0,0,1-.09-.61,2,2,0,0,1,.2-.9,7.43,7.43,0,0,1,2.94-.63c2,0,2.84.95,2.84,3.42v3.49a1.58,1.58,0,0,0,.24.94,5.68,5.68,0,0,0,1.25-.22,1.56,1.56,0,0,1,0,.2,1.86,1.86,0,0,1-.18.81,4.55,4.55,0,0,1-2,.52,1.92,1.92,0,0,1-.76-1.37Zm0-2.75a5.86,5.86,0,0,0-1.26-.14c-1.41,0-2.21.63-2.21,1.58a1.46,1.46,0,0,0,1.65,1.44,2.27,2.27,0,0,0,1.82-.88Z"/><path class="cls-1" d="M238.5,314.83h-1.31a2.12,2.12,0,0,1,.33-.95,5.12,5.12,0,0,1,1.63-.25,3.82,3.82,0,0,1,.92.1v10.68a4.83,4.83,0,0,0,.14,1.28h1.36a1,1,0,0,1,0,.23,2.24,2.24,0,0,1-.15.72A9.94,9.94,0,0,1,239,327a3.24,3.24,0,0,1-.36-1.29h-.09a2.91,2.91,0,0,1-2.71,1.38c-1.58,0-3.37-1.08-3.37-4.34,0-2.89,1.79-4.82,4.38-4.82a3.16,3.16,0,0,1,1.65.43Zm0,4.43A5,5,0,0,0,237,319c-2,0-2.89,1.4-2.89,3.49s1,3.37,2.33,3.37a2.36,2.36,0,0,0,2.06-1.08Z"/><path class="cls-1" d="M247.86,325.72a2.76,2.76,0,0,1-2.53,1.37,2.35,2.35,0,0,1-2.57-2.41c0-1.85,1.58-2.81,3.37-2.81a4.45,4.45,0,0,1,1.68.31v-1c0-1.34-.58-2-1.72-2a5.75,5.75,0,0,0-2.64.88,1.6,1.6,0,0,1-.09-.61,2,2,0,0,1,.2-.9,7.48,7.48,0,0,1,2.95-.63c2,0,2.83.95,2.83,3.42v3.49a1.66,1.66,0,0,0,.24.94,5.68,5.68,0,0,0,1.25-.22.79.79,0,0,1,0,.2,1.86,1.86,0,0,1-.19.81,4.55,4.55,0,0,1-1.95.52,1.92,1.92,0,0,1-.76-1.37Zm0-2.75a6,6,0,0,0-1.27-.14c-1.41,0-2.21.63-2.21,1.58a1.46,1.46,0,0,0,1.65,1.44,2.29,2.29,0,0,0,1.83-.88Z"/><path class="cls-1" d="M256.45,319.08a2.89,2.89,0,0,0-1.07-.22c-.94,0-1.48.44-1.48,1.1,0,2,4.22,1.41,4.22,4.54,0,1.87-1.58,2.59-3.26,2.59a5.55,5.55,0,0,1-2.77-.68,4.29,4.29,0,0,1-.09-.86,5.12,5.12,0,0,1,.18-1.28,5.22,5.22,0,0,1,1.31.16v1.24a2.83,2.83,0,0,0,1.51.42,1.37,1.37,0,0,0,1.52-1.36c0-2.14-4.25-1.36-4.25-4.55,0-1.32,1.22-2.25,3-2.25a6.93,6.93,0,0,1,2.55.47,3.2,3.2,0,0,1,0,.55,5.79,5.79,0,0,1-.2,1.46,2.69,2.69,0,0,1-1.21-.27Z"/><path class="cls-1" d="M7.29,349.72a2.89,2.89,0,0,0,2.94,3.11,8.43,8.43,0,0,0,2.54-.5,2,2,0,0,1-.24,1,6.28,6.28,0,0,1-2.86.73c-2.58,0-4.06-1.92-4.06-4.41s1.64-4.75,4.17-4.75c2.17,0,3.09,1.57,3.09,3.83a7.92,7.92,0,0,1,0,1Zm4-1.05c.12-1.24-.24-2.75-1.76-2.75-1.28,0-2.11,1.12-2.22,2.75Z"/><path class="cls-1" d="M17.36,352.69a7.5,7.5,0,0,1,1.32.23,3.12,3.12,0,0,1,0,.87H14.38a2.25,2.25,0,0,1,.25-.81,6.09,6.09,0,0,1,1.16-.34v-6.4H14.47a2,2,0,0,1,.32-.95,4.44,4.44,0,0,1,1.5-.25,3.2,3.2,0,0,1,.85.1v1.32h.18a3.27,3.27,0,0,1,2.91-1.53c1.43,0,2.7.45,2.7,3.24,0,1.51,0,3-.11,4.52a9.14,9.14,0,0,1,1.46.23,2.34,2.34,0,0,1,.06.56,1.62,1.62,0,0,1,0,.31H20a2.25,2.25,0,0,1,.25-.81,5.65,5.65,0,0,1,1-.34v-4.22c0-1.38-.43-2.27-1.7-2.27a3.19,3.19,0,0,0-2.26,1.16Z"/><path class="cls-1" d="M26.64,343a3.12,3.12,0,0,1,1.21-.29v2.48h2.62a4.32,4.32,0,0,1,.05,1H27.85v5c0,1.17.16,1.68,1.17,1.68a6.81,6.81,0,0,0,1.68-.24,1.1,1.1,0,0,1,0,.24,1.6,1.6,0,0,1-.18.7,5.92,5.92,0,0,1-2.22.48c-1.39,0-2.1-.75-2.1-2.61,0-1.06,0-3.38.09-5.2H25.06a2.86,2.86,0,0,1,.22-.94,6.44,6.44,0,0,1,1-.32Z"/><path class="cls-1" d="M34.59,346.86a2.43,2.43,0,0,1,2.35-1.93,2.62,2.62,0,0,1,.82.14,2.45,2.45,0,0,1,.23,1.08,2.38,2.38,0,0,1-.05.49,2.5,2.5,0,0,0-1.23-.31,2.24,2.24,0,0,0-2.08,1.48v4.83a8.9,8.9,0,0,1,1.79.32,2.84,2.84,0,0,1,0,.83H31.65a2.25,2.25,0,0,1,.25-.81,6.09,6.09,0,0,1,1.16-.34v-6.4H31.74a2,2,0,0,1,.32-.95,4.62,4.62,0,0,1,1.5-.25,3.2,3.2,0,0,1,.85.1v1.72Z"/><path class="cls-1" d="M40.69,349.72a2.88,2.88,0,0,0,2.94,3.11,8.43,8.43,0,0,0,2.54-.5,2,2,0,0,1-.24,1,6.28,6.28,0,0,1-2.86.73c-2.58,0-4.06-1.92-4.06-4.41s1.64-4.75,4.17-4.75c2.17,0,3.09,1.57,3.09,3.83a7.92,7.92,0,0,1-.05,1Zm4-1.05c.13-1.24-.23-2.75-1.75-2.75-1.28,0-2.11,1.12-2.22,2.75Z"/><path class="cls-1" d="M53.67,352.47c1.75,0,3.71-.07,5.61-.21a2.91,2.91,0,0,1,0,.3,8.87,8.87,0,0,1-.1,1.23H52l-.23-1.3c1.55-1.39,5.44-3.85,5.44-5.94,0-.94-.76-1.37-1.86-1.37a4.82,4.82,0,0,0-2,.47v1.49a2.82,2.82,0,0,1-1.23.27,6.11,6.11,0,0,1-.24-1.69c0-.23,0-.59,0-.81a7.47,7.47,0,0,1,3.52-.9c2,0,3.51.63,3.51,2.29,0,2.66-4,5-5.26,6.05Z"/><path class="cls-1" d="M70.18,348.93c0,3.4-1.79,5.22-4.68,5.22s-4.7-1.73-4.7-5.22c0-3.05,1.93-4.92,4.7-4.92S70.18,345.72,70.18,348.93ZM65.5,353c2,0,3-1.51,3-4.08,0-2.22-1.12-3.8-3-3.8s-3,1.46-3,3.8C62.51,351.45,63.63,353,65.5,353Z"/><path class="cls-1" d="M81.59,348.93c0,3.4-1.79,5.22-4.68,5.22s-4.7-1.73-4.7-5.22c0-3.05,1.93-4.92,4.7-4.92S81.59,345.72,81.59,348.93ZM76.91,353c2,0,3-1.51,3-4.08,0-2.22-1.12-3.8-3-3.8s-3,1.46-3,3.8C73.92,351.45,75,353,76.91,353Z"/><path class="cls-1" d="M89.94,355.44a3.79,3.79,0,0,1-.77.06,4,4,0,0,1-.78-.06v-3.13H83.22l-.25-.94a73.1,73.1,0,0,1,5.15-7.31l1.82.29v6.75h1.61a3.27,3.27,0,0,1,.09.78,2.81,2.81,0,0,1,0,.43H89.94ZM88.39,347a14.07,14.07,0,0,1,.09-1.43h-.13A49.2,49.2,0,0,0,84.56,351v.13c.27,0,.77,0,1.14,0h2.69Z"/><path class="cls-1" d="M100.79,352.8c.11-.44.35-1.37.49-1.8l.91-2.87a12.14,12.14,0,0,1,.67-1.74,5.12,5.12,0,0,1-1.09-.24,3.06,3.06,0,0,1-.14-.92h3.45a3.61,3.61,0,0,1-.18,1,4.13,4.13,0,0,1-.85.17l-1,3a56.73,56.73,0,0,1-2,5.31,6.41,6.41,0,0,1-3.66,3.42,2.44,2.44,0,0,1-.67-1.33,4.9,4.9,0,0,0,3.28-2.65l-3-7.65a4,4,0,0,1-.94-.31,4,4,0,0,1-.18-.94h4.08a4,4,0,0,1-.14.94,9.3,9.3,0,0,1-1.32.22,11.23,11.23,0,0,1,.65,1.51l1.14,3.15a12.07,12.07,0,0,1,.4,1.75Z"/><path class="cls-1" d="M111.75,352.47c1.76,0,3.71-.07,5.61-.21a1.46,1.46,0,0,1,0,.3,8.78,8.78,0,0,1-.11,1.23h-7.22l-.23-1.3c1.55-1.39,5.44-3.85,5.44-5.94,0-.94-.76-1.37-1.86-1.37a4.9,4.9,0,0,0-2,.47v1.49a2.82,2.82,0,0,1-1.23.27,6.51,6.51,0,0,1-.23-1.69c0-.23,0-.59,0-.81a7.48,7.48,0,0,1,3.53-.9c2,0,3.51.63,3.51,2.29,0,2.66-4,5-5.27,6.05Z"/><path class="cls-1" d="M128.26,348.93c0,3.4-1.79,5.22-4.68,5.22s-4.7-1.73-4.7-5.22c0-3.05,1.93-4.92,4.7-4.92S128.26,345.72,128.26,348.93ZM123.58,353c2,0,3-1.51,3-4.08,0-2.22-1.12-3.8-3-3.8s-3,1.46-3,3.8C120.6,351.45,121.72,353,123.58,353Z"/><path class="cls-1" d="M132.48,345.52l-2.61.33a3.09,3.09,0,0,1,.29-1.12,16.59,16.59,0,0,1,3.94-.72v8.52a17.69,17.69,0,0,1,2.1.3,2.76,2.76,0,0,1,.09.71,1.24,1.24,0,0,1,0,.25h-6a3.56,3.56,0,0,1,.33-.9,15.32,15.32,0,0,1,1.88-.45Z"/><path class="cls-1" d="M140.2,347.79a2.79,2.79,0,0,1-2.08-2.52c0-2.09,1.83-2.95,3.56-2.95s3.51.72,3.51,2.7a3.07,3.07,0,0,1-2.08,2.81v.09a3.14,3.14,0,0,1,2.31,2.79c0,2.3-1.86,3.44-3.92,3.44-1.75,0-3.87-.69-3.87-3a3.48,3.48,0,0,1,2.57-3.24Zm-1,3a2.11,2.11,0,0,0,2.39,2.3,2,2,0,0,0,2.2-2.21c0-1.34-1.33-2-2.69-2.58A2.63,2.63,0,0,0,139.22,350.82Zm4.43-5.69a1.86,1.86,0,0,0-2.08-1.88,1.79,1.79,0,0,0-1.93,1.8c0,1.12,1.19,1.72,2.49,2.31A2.45,2.45,0,0,0,143.65,345.13Z"/><path class="cls-1" d="M150.14,352.82A1.07,1.07,0,0,1,149,354a1,1,0,0,1-1.15-1.18,1.08,1.08,0,0,1,1.15-1.1A1,1,0,0,1,150.14,352.82Z"/><path class="cls-1" d="M155.84,353.79a4.6,4.6,0,0,1,.22-1,10.93,10.93,0,0,1,1.41-.23V342.44a12.12,12.12,0,0,1-1.34-.12,4.45,4.45,0,0,1,0-1h8.57v2.65a4.9,4.9,0,0,1-1-.13,10,10,0,0,1-.22-1.42h-4.3V347h3.42a6.15,6.15,0,0,1,.18-1,4.5,4.5,0,0,1,1-.14v3.31a3.34,3.34,0,0,1-1-.07,8.66,8.66,0,0,1-.16-1h-3.42v4.61h4.38a12.33,12.33,0,0,1,.21-1.55,5.74,5.74,0,0,1,1.12-.12v2.81Z"/><path class="cls-1" d="M169.2,352.69a7.18,7.18,0,0,1,1.32.23,2.51,2.51,0,0,1,0,.87h-4.34a2.73,2.73,0,0,1,.25-.81,6.31,6.31,0,0,1,1.16-.34v-6.4h-1.32a2.12,2.12,0,0,1,.33-.95,4.39,4.39,0,0,1,1.5-.25,3.3,3.3,0,0,1,.85.1v1.32h.18a3.24,3.24,0,0,1,2.91-1.53c1.43,0,2.69.45,2.69,3.24,0,1.51,0,3-.11,4.52a9.28,9.28,0,0,1,1.47.23,3.06,3.06,0,0,1,.05.56,1.62,1.62,0,0,1,0,.31h-4.28a2.73,2.73,0,0,1,.25-.81,5.92,5.92,0,0,1,1-.34v-4.22c0-1.38-.43-2.27-1.7-2.27a3.19,3.19,0,0,0-2.26,1.16Z"/><path class="cls-1" d="M183.4,345.52l-2.61.33a3.09,3.09,0,0,1,.29-1.12A16.69,16.69,0,0,1,185,344v8.52a17.83,17.83,0,0,1,2.09.3,2.76,2.76,0,0,1,.09.71,2.45,2.45,0,0,1,0,.25h-6a3.56,3.56,0,0,1,.33-.9,15.77,15.77,0,0,1,1.88-.45Z"/><path class="cls-1" d="M190.36,349a10.22,10.22,0,0,1,1.74-.18c2,0,3.56,1,3.56,2.93,0,2.83-2.35,4.09-4.67,4.09a9.33,9.33,0,0,1-2.4-.31,2,2,0,0,1-.25-1,1.72,1.72,0,0,1,0-.2,13.31,13.31,0,0,0,2.61.26,2.75,2.75,0,0,0,3-2.72c0-1.37-1-2-2.69-2a11.85,11.85,0,0,0-2.28.24l.43-5.8h6.3a9.33,9.33,0,0,1-.2,1.6c-1.61-.09-3.26-.12-4.89-.16Z"/><path class="cls-1" d="M207,341.83h-1.3a2.12,2.12,0,0,1,.33-.95,5.11,5.11,0,0,1,1.62-.25,3.9,3.9,0,0,1,.93.1v10.68a4.83,4.83,0,0,0,.14,1.28h1.36a1.93,1.93,0,0,1,0,.23,2.25,2.25,0,0,1-.14.72,9.94,9.94,0,0,1-2.44.36,3.08,3.08,0,0,1-.36-1.29h-.09a2.93,2.93,0,0,1-2.71,1.38c-1.58,0-3.37-1.08-3.37-4.34,0-2.89,1.79-4.82,4.38-4.82a3.12,3.12,0,0,1,1.64.43Zm0,4.43a5,5,0,0,0-1.5-.25c-2,0-2.89,1.4-2.89,3.49s1,3.37,2.33,3.37a2.36,2.36,0,0,0,2.06-1.08Z"/><path class="cls-1" d="M213,349.72a2.89,2.89,0,0,0,2.94,3.11,8.43,8.43,0,0,0,2.54-.5,2,2,0,0,1-.24,1,6.28,6.28,0,0,1-2.86.73c-2.58,0-4.06-1.92-4.06-4.41s1.64-4.75,4.17-4.75c2.17,0,3.09,1.57,3.09,3.83a7.92,7.92,0,0,1-.05,1Zm4-1.05c.13-1.24-.23-2.75-1.75-2.75-1.28,0-2.11,1.12-2.22,2.75Z"/><path class="cls-1" d="M225.73,349.72a2.9,2.9,0,0,0,3,3.11,8.36,8.36,0,0,0,2.53-.5,1.86,1.86,0,0,1-.24,1,6.23,6.23,0,0,1-2.85.73c-2.59,0-4.07-1.92-4.07-4.41s1.65-4.75,4.18-4.75c2.17,0,3.09,1.57,3.09,3.83a8,8,0,0,1-.06,1Zm4-1.05c.13-1.24-.24-2.75-1.75-2.75-1.29,0-2.12,1.12-2.23,2.75Z"/><path class="cls-1" d="M237.5,346.08a2.88,2.88,0,0,0-1.06-.22c-.94,0-1.49.44-1.49,1.1,0,2,4.22,1.41,4.22,4.54,0,1.87-1.58,2.59-3.26,2.59a5.48,5.48,0,0,1-2.76-.68,3.63,3.63,0,0,1-.1-.86,5.09,5.09,0,0,1,.19-1.28,5.2,5.2,0,0,1,1.3.16v1.24a2.84,2.84,0,0,0,1.52.42,1.37,1.37,0,0,0,1.52-1.36c0-2.14-4.25-1.36-4.25-4.55,0-1.32,1.21-2.25,3-2.25a6.93,6.93,0,0,1,2.55.47,3.2,3.2,0,0,1,0,.55,5.79,5.79,0,0,1-.2,1.46,2.69,2.69,0,0,1-1.21-.27Z"/><path class="cls-1" d="M245.86,352.73a2.78,2.78,0,0,1-2.53,1.36,2.35,2.35,0,0,1-2.57-2.41c0-1.85,1.57-2.81,3.36-2.81a4.45,4.45,0,0,1,1.68.31v-1c0-1.34-.58-2-1.72-2a5.75,5.75,0,0,0-2.63.88,1.42,1.42,0,0,1-.1-.61,2.14,2.14,0,0,1,.2-.9,7.48,7.48,0,0,1,2.95-.63c2,0,2.84.95,2.84,3.42v3.49a1.66,1.66,0,0,0,.23.94,5.49,5.49,0,0,0,1.25-.22.79.79,0,0,1,0,.2,1.86,1.86,0,0,1-.18.81,4.64,4.64,0,0,1-1.95.52,1.89,1.89,0,0,1-.76-1.36Zm0-2.76a5.88,5.88,0,0,0-1.27-.14c-1.41,0-2.2.63-2.2,1.58a1.46,1.46,0,0,0,1.64,1.44,2.27,2.27,0,0,0,1.83-.88Z"/><path class="cls-1" d="M254.45,346.08a2.93,2.93,0,0,0-1.07-.22c-.94,0-1.48.44-1.48,1.1,0,2,4.21,1.41,4.21,4.54,0,1.87-1.57,2.59-3.25,2.59a5.52,5.52,0,0,1-2.77-.68,4.29,4.29,0,0,1-.09-.86,5.12,5.12,0,0,1,.18-1.28,5.14,5.14,0,0,1,1.3.16v1.24a2.89,2.89,0,0,0,1.52.42,1.37,1.37,0,0,0,1.52-1.36c0-2.14-4.25-1.36-4.25-4.55,0-1.32,1.21-2.25,3-2.25a6.89,6.89,0,0,1,2.55.47,2.41,2.41,0,0,1,0,.55,5.79,5.79,0,0,1-.2,1.46,2.63,2.63,0,0,1-1.21-.27Z"/><path class="cls-1" d="M25.4,376.72a2.88,2.88,0,0,0,2.94,3.11,8.43,8.43,0,0,0,2.54-.5,2,2,0,0,1-.24,1,6.24,6.24,0,0,1-2.86.73c-2.58,0-4.06-1.92-4.06-4.41s1.64-4.75,4.17-4.75c2.17,0,3.09,1.57,3.09,3.83a7.92,7.92,0,0,1-.05,1Zm4-1.05c.12-1.24-.24-2.75-1.76-2.75-1.28,0-2.11,1.12-2.22,2.75Z"/><path class="cls-1" d="M35.47,379.69a7.5,7.5,0,0,1,1.32.23,3.12,3.12,0,0,1,0,.87H32.49a2.25,2.25,0,0,1,.25-.81,6.09,6.09,0,0,1,1.16-.34v-6.4H32.58a2,2,0,0,1,.32-.95,4.7,4.7,0,0,1,1.5-.25,2.82,2.82,0,0,1,.85.11v1.31h.18a3.21,3.21,0,0,1,2.86-1.53,2.13,2.13,0,0,1,2.4,1.64h.1a3.15,3.15,0,0,1,2.91-1.64c1.41,0,2.65.45,2.65,3.24,0,1.53,0,3-.1,4.52a9.33,9.33,0,0,1,1.46.23,2.34,2.34,0,0,1,.06.56,1.62,1.62,0,0,1,0,.31H43.46a2.73,2.73,0,0,1,.25-.81,6,6,0,0,1,1-.34v-4.22c0-1.38-.42-2.27-1.67-2.27a3.12,3.12,0,0,0-2.2,1.16v5.36a7.39,7.39,0,0,1,1.32.25,2.79,2.79,0,0,1,0,.87H38.06a2.25,2.25,0,0,1,.25-.81,5.65,5.65,0,0,1,1-.34v-4.22c0-1.38-.42-2.27-1.66-2.27a3.09,3.09,0,0,0-2.21,1.16Z"/><path class="cls-1" d="M51.38,383.79a9.72,9.72,0,0,1,1.72.33,2.83,2.83,0,0,1,0,.83H48.4a2.73,2.73,0,0,1,.25-.81,7.19,7.19,0,0,1,1.16-.35V373.24H48.47a2.12,2.12,0,0,1,.33-.95,4.8,4.8,0,0,1,1.5-.25,2.91,2.91,0,0,1,.85.11v1.17h.18A2.81,2.81,0,0,1,54,371.93c1.59,0,3.41,1.08,3.41,4.34,0,2.9-1.82,4.82-4.43,4.82a3.1,3.1,0,0,1-1.59-.43Zm0-4a4.71,4.71,0,0,0,1.5.25c2,0,2.9-1.42,2.9-3.51s-1-3.38-2.33-3.38a2.39,2.39,0,0,0-2.07,1.1Z"/><path class="cls-1" d="M61.91,373.86a2.41,2.41,0,0,1,2.35-1.93,2.6,2.6,0,0,1,.81.14,2.3,2.3,0,0,1,.24,1.08,1.83,1.83,0,0,1-.06.49,2.44,2.44,0,0,0-1.23-.31,2.24,2.24,0,0,0-2.08,1.48v4.83a8.77,8.77,0,0,1,1.79.32,2.29,2.29,0,0,1,0,.83H59a2.73,2.73,0,0,1,.25-.81,6.31,6.31,0,0,1,1.16-.34v-6.4H59.05a2,2,0,0,1,.33-.95,4.8,4.8,0,0,1,1.5-.25,2.91,2.91,0,0,1,.85.11v1.71Z"/><path class="cls-1" d="M68,376.72a2.89,2.89,0,0,0,3,3.11,8.36,8.36,0,0,0,2.53-.5,1.86,1.86,0,0,1-.24,1,6.23,6.23,0,0,1-2.85.73c-2.59,0-4.07-1.92-4.07-4.41s1.64-4.75,4.18-4.75c2.17,0,3.09,1.57,3.09,3.83a8,8,0,0,1-.06,1Zm4-1.05c.12-1.24-.24-2.75-1.76-2.75-1.28,0-2.11,1.12-2.22,2.75Z"/><path class="cls-1" d="M79.77,373.08a2.88,2.88,0,0,0-1.06-.22c-.94,0-1.49.44-1.49,1.1,0,2,4.22,1.41,4.22,4.54,0,1.87-1.58,2.59-3.26,2.59a5.55,5.55,0,0,1-2.77-.68,4.29,4.29,0,0,1-.09-.86,5.19,5.19,0,0,1,.18-1.28,5.22,5.22,0,0,1,1.31.16v1.24a2.84,2.84,0,0,0,1.52.42,1.36,1.36,0,0,0,1.51-1.35c0-2.15-4.24-1.37-4.24-4.56,0-1.32,1.21-2.25,3-2.25a6.93,6.93,0,0,1,2.55.47,3.2,3.2,0,0,1,0,.55,5.79,5.79,0,0,1-.2,1.46,2.69,2.69,0,0,1-1.21-.27Z"/><path class="cls-1" d="M88.13,379.73a2.79,2.79,0,0,1-2.54,1.36A2.34,2.34,0,0,1,83,378.68c0-1.85,1.57-2.81,3.36-2.81a4.45,4.45,0,0,1,1.68.31v-1c0-1.34-.58-2-1.72-2a5.83,5.83,0,0,0-2.64.88,1.6,1.6,0,0,1-.09-.61,2,2,0,0,1,.2-.9,7.48,7.48,0,0,1,3-.63c2,0,2.84.95,2.84,3.42v3.49a1.66,1.66,0,0,0,.23.94,5.49,5.49,0,0,0,1.25-.22.79.79,0,0,1,0,.2,1.86,1.86,0,0,1-.18.81,4.64,4.64,0,0,1-2,.52,1.85,1.85,0,0,1-.76-1.36Zm0-2.76a5.88,5.88,0,0,0-1.27-.14c-1.41,0-2.2.63-2.2,1.58a1.46,1.46,0,0,0,1.64,1.44,2.27,2.27,0,0,0,1.83-.88Z"/><path class="cls-1" d="M96.72,373.08a2.93,2.93,0,0,0-1.07-.22c-.94,0-1.48.44-1.48,1.1,0,2,4.21,1.41,4.21,4.54,0,1.87-1.57,2.59-3.26,2.59a5.51,5.51,0,0,1-2.76-.68,3.66,3.66,0,0,1-.09-.86,5.19,5.19,0,0,1,.18-1.28,5.14,5.14,0,0,1,1.3.16v1.24a2.89,2.89,0,0,0,1.52.42,1.37,1.37,0,0,0,1.52-1.35c0-2.15-4.25-1.37-4.25-4.56,0-1.32,1.21-2.25,3-2.25a6.89,6.89,0,0,1,2.55.47,2.41,2.41,0,0,1,0,.55,5.79,5.79,0,0,1-.2,1.46,2.63,2.63,0,0,1-1.21-.27Z"/><path class="cls-1" d="M100.15,380.3a3.56,3.56,0,0,1,.6-1.2,3.11,3.11,0,0,1,.74-.08,4.22,4.22,0,0,1,1.34.22,16.38,16.38,0,0,1-1.65,4.25,3.3,3.3,0,0,1-1-.47,16.36,16.36,0,0,0,.69-2.54Z"/><path class="cls-1" d="M114.73,382.44a5.1,5.1,0,0,1-1.56,0v-3.13H108l-.25-.94a71.85,71.85,0,0,1,5.15-7.3l1.83.28v6.76h1.6a3.12,3.12,0,0,1,.1.77,2.74,2.74,0,0,1,0,.43h-1.66ZM113.17,374a13.71,13.71,0,0,1,.09-1.42h-.13a48.17,48.17,0,0,0-3.79,5.41v.13c.27,0,.77,0,1.14,0h2.69Z"/><path class="cls-1" d="M127.27,375.93c0,3.4-1.79,5.22-4.68,5.22s-4.7-1.73-4.7-5.22c0-3.05,1.94-4.92,4.7-4.92S127.27,372.72,127.27,375.93ZM122.59,380c2,0,3-1.51,3-4.08,0-2.22-1.12-3.8-3-3.8s-3,1.46-3,3.8C119.61,378.45,120.73,380,122.59,380Z"/><path class="cls-1" d="M135.65,379.69a7.5,7.5,0,0,1,1.32.23,2.79,2.79,0,0,1,0,.87h-4.34a2.48,2.48,0,0,1,.26-.81,6.2,6.2,0,0,1,1.15-.34v-6.4h-1.32a2.12,2.12,0,0,1,.33-.95,4.7,4.7,0,0,1,1.5-.25,2.82,2.82,0,0,1,.85.11v1.31h.18a3.21,3.21,0,0,1,2.86-1.53,2.13,2.13,0,0,1,2.4,1.64H141a3.18,3.18,0,0,1,2.92-1.64c1.41,0,2.65.45,2.65,3.24,0,1.53,0,3-.11,4.52a9.28,9.28,0,0,1,1.47.23,2.38,2.38,0,0,1,.05.56c0,.11,0,.2,0,.31h-4.29a2.73,2.73,0,0,1,.25-.81,5.92,5.92,0,0,1,1-.34v-4.22c0-1.38-.41-2.27-1.66-2.27a3.14,3.14,0,0,0-2.21,1.16v5.36a7.06,7.06,0,0,1,1.32.25,2.51,2.51,0,0,1,0,.87h-4.18a2.48,2.48,0,0,1,.26-.81,5.65,5.65,0,0,1,1-.34v-4.22c0-1.38-.42-2.27-1.67-2.27a3.09,3.09,0,0,0-2.2,1.16Z"/><path class="cls-1" d="M149,373.24a2.12,2.12,0,0,1,.33-.95A5.41,5.41,0,0,1,151,372a3.47,3.47,0,0,1,.94.11v7.52a9.64,9.64,0,0,1,1.43.25,2.34,2.34,0,0,1,.06.56,1.62,1.62,0,0,1,0,.31h-4.45a2.73,2.73,0,0,1,.25-.81,6.31,6.31,0,0,1,1.16-.34v-6.4Zm3.17-4.19a1,1,0,0,1-1,1.06.93.93,0,0,1-1-1.06,1,1,0,0,1,1-1A.94.94,0,0,1,152.18,369.05Z"/><path class="cls-1" d="M154.36,368.83a2.12,2.12,0,0,1,.33-.95,5.12,5.12,0,0,1,1.63-.25,3.82,3.82,0,0,1,.92.1v11.94a10.31,10.31,0,0,1,1.46.25,2.34,2.34,0,0,1,.06.56,1.62,1.62,0,0,1,0,.31h-4.49a2.48,2.48,0,0,1,.26-.81,6.09,6.09,0,0,1,1.16-.34V368.83Z"/><path class="cls-1" d="M159.88,373.24a2.11,2.11,0,0,1,.32-.95,5.48,5.48,0,0,1,1.63-.25,3.47,3.47,0,0,1,.94.11v7.52a9.88,9.88,0,0,1,1.43.25,2.38,2.38,0,0,1,.05.56c0,.11,0,.2,0,.31h-4.45A2.25,2.25,0,0,1,160,380a6.31,6.31,0,0,1,1.16-.34v-6.4Zm3.16-4.19a1,1,0,0,1-1,1.06.93.93,0,0,1-1-1.06,1,1,0,0,1,1-1A.93.93,0,0,1,163,369.05Z"/><path class="cls-1" d="M166.62,370a3.12,3.12,0,0,1,1.21-.29v2.49h2.63a4.76,4.76,0,0,1,0,1h-2.68v5c0,1.17.17,1.68,1.18,1.68a6.81,6.81,0,0,0,1.68-.24,1.1,1.1,0,0,1,0,.24,1.6,1.6,0,0,1-.18.7,5.93,5.93,0,0,1-2.23.48c-1.39,0-2.09-.75-2.09-2.61,0-1.06,0-3.38.09-5.2h-1.25a2.86,2.86,0,0,1,.22-.94,6.16,6.16,0,0,1,1-.32Z"/><path class="cls-1" d="M176.89,379.73a2.77,2.77,0,0,1-2.53,1.36,2.35,2.35,0,0,1-2.57-2.41c0-1.85,1.58-2.81,3.37-2.81a4.45,4.45,0,0,1,1.68.31v-1c0-1.34-.58-2-1.72-2a5.79,5.79,0,0,0-2.64.88,1.6,1.6,0,0,1-.09-.61,2,2,0,0,1,.2-.9,7.48,7.48,0,0,1,2.95-.63c2,0,2.84.95,2.84,3.42v3.49a1.66,1.66,0,0,0,.23.94,5.58,5.58,0,0,0,1.25-.22.79.79,0,0,1,0,.2,2,2,0,0,1-.18.81,4.64,4.64,0,0,1-2,.52,1.92,1.92,0,0,1-.76-1.36Zm0-2.76a6,6,0,0,0-1.27-.14c-1.41,0-2.2.63-2.2,1.58a1.45,1.45,0,0,0,1.64,1.44,2.27,2.27,0,0,0,1.83-.88Z"/><path class="cls-1" d="M183.75,373.86a2.41,2.41,0,0,1,2.35-1.93,2.51,2.51,0,0,1,.81.14,2.3,2.3,0,0,1,.24,1.08,1.83,1.83,0,0,1-.06.49,2.44,2.44,0,0,0-1.23-.31,2.25,2.25,0,0,0-2.08,1.48v4.83a8.77,8.77,0,0,1,1.79.32,2.29,2.29,0,0,1,0,.83H180.8a2.73,2.73,0,0,1,.25-.81,6.31,6.31,0,0,1,1.16-.34v-6.4h-1.32a2.12,2.12,0,0,1,.33-.95,4.8,4.8,0,0,1,1.5-.25,2.91,2.91,0,0,1,.85.11v1.71Z"/><path class="cls-1" d="M189.84,376.72a2.89,2.89,0,0,0,2.95,3.11,8.36,8.36,0,0,0,2.53-.5,1.86,1.86,0,0,1-.24,1,6.23,6.23,0,0,1-2.85.73c-2.59,0-4.07-1.92-4.07-4.41s1.64-4.75,4.18-4.75c2.17,0,3.09,1.57,3.09,3.83,0,.31,0,.63-.05,1Zm4-1.05c.13-1.24-.24-2.75-1.75-2.75-1.29,0-2.12,1.12-2.23,2.75Z"/><path class="cls-1" d="M201.61,373.08a2.88,2.88,0,0,0-1.06-.22c-.94,0-1.49.44-1.49,1.1,0,2,4.22,1.41,4.22,4.54,0,1.87-1.58,2.59-3.26,2.59a5.48,5.48,0,0,1-2.76-.68,3.66,3.66,0,0,1-.09-.86,5.19,5.19,0,0,1,.18-1.28,5.2,5.2,0,0,1,1.3.16v1.24a2.84,2.84,0,0,0,1.52.42,1.37,1.37,0,0,0,1.52-1.35c0-2.15-4.25-1.37-4.25-4.56,0-1.32,1.21-2.25,3-2.25a6.93,6.93,0,0,1,2.55.47,3.2,3.2,0,0,1,0,.55,5.79,5.79,0,0,1-.2,1.46,2.69,2.69,0,0,1-1.21-.27Z"/><path class="cls-1" d="M211.27,379.69a7.84,7.84,0,0,1,1.32.23,2.79,2.79,0,0,1,0,.87h-4.33a2.25,2.25,0,0,1,.25-.81,6.09,6.09,0,0,1,1.16-.34V368.83h-1.31a2.12,2.12,0,0,1,.33-.95,5,5,0,0,1,1.63-.25,3.82,3.82,0,0,1,.92.1v3.48c0,.74,0,1.51-.09,2.25h.18a2.94,2.94,0,0,1,2.84-1.53c1.45,0,2.73.45,2.73,3.24,0,1.51,0,3-.11,4.52a9.47,9.47,0,0,1,1.47.23,3.06,3.06,0,0,1,.05.56,1.62,1.62,0,0,1,0,.31H214a2.25,2.25,0,0,1,.25-.81,5.65,5.65,0,0,1,1-.34v-4.22c0-1.38-.45-2.27-1.74-2.27a3.26,3.26,0,0,0-2.31,1.16Z"/><path class="cls-1" d="M224.58,379.73a2.78,2.78,0,0,1-2.53,1.36,2.35,2.35,0,0,1-2.57-2.41c0-1.85,1.57-2.81,3.36-2.81a4.45,4.45,0,0,1,1.68.31v-1c0-1.34-.57-2-1.71-2a5.75,5.75,0,0,0-2.64.88,1.43,1.43,0,0,1-.09-.61,2,2,0,0,1,.2-.9,7.39,7.39,0,0,1,2.94-.63c2,0,2.84.95,2.84,3.42v3.49a1.58,1.58,0,0,0,.24.94,5.51,5.51,0,0,0,1.24-.22.79.79,0,0,1,0,.2,1.86,1.86,0,0,1-.18.81,4.64,4.64,0,0,1-1.95.52,1.89,1.89,0,0,1-.76-1.36Zm0-2.76a5.86,5.86,0,0,0-1.26-.14c-1.41,0-2.21.63-2.21,1.58a1.46,1.46,0,0,0,1.65,1.44,2.27,2.27,0,0,0,1.82-.88Z"/><path class="cls-1" d="M231.47,379.69a7.5,7.5,0,0,1,1.32.23,2.79,2.79,0,0,1,0,.87h-4.34a2.48,2.48,0,0,1,.26-.81,6.09,6.09,0,0,1,1.16-.34v-6.4h-1.32a2,2,0,0,1,.32-.95,4.7,4.7,0,0,1,1.5-.25,2.82,2.82,0,0,1,.85.11v1.31h.18a3.27,3.27,0,0,1,2.91-1.53c1.43,0,2.7.45,2.7,3.24,0,1.51,0,3-.11,4.52a9.14,9.14,0,0,1,1.46.23,2.34,2.34,0,0,1,.06.56,1.62,1.62,0,0,1,0,.31h-4.29a2.48,2.48,0,0,1,.26-.81,5.65,5.65,0,0,1,1-.34v-4.22c0-1.38-.44-2.27-1.7-2.27a3.19,3.19,0,0,0-2.26,1.16Z"/><path class="cls-1" d="M16.32,397a3.12,3.12,0,0,1,1.21-.29v2.49h2.62a4.69,4.69,0,0,1,.06,1H17.53v5c0,1.17.16,1.68,1.18,1.68a6.87,6.87,0,0,0,1.68-.24,1.1,1.1,0,0,1,0,.24,1.6,1.6,0,0,1-.18.7,6,6,0,0,1-2.23.48c-1.39,0-2.1-.75-2.1-2.61,0-1.06,0-3.38.09-5.2H14.75a2.84,2.84,0,0,1,.21-.94A6.44,6.44,0,0,1,16,399Z"/><path class="cls-1" d="M22.87,403.72a2.88,2.88,0,0,0,2.94,3.11,8.3,8.3,0,0,0,2.53-.5,1.94,1.94,0,0,1-.23,1,6.28,6.28,0,0,1-2.86.73c-2.58,0-4.07-1.92-4.07-4.41s1.65-4.75,4.18-4.75c2.17,0,3.09,1.57,3.09,3.83a7.92,7.92,0,0,1-.05,1Zm4-1.05c.13-1.24-.23-2.75-1.75-2.75-1.28,0-2.12,1.12-2.22,2.75Z"/><path class="cls-1" d="M32.94,406.69a7.5,7.5,0,0,1,1.32.23,2.79,2.79,0,0,1,0,.87H30a2.48,2.48,0,0,1,.26-.81,6.09,6.09,0,0,1,1.16-.34v-6.4H30a2.12,2.12,0,0,1,.33-.95,4.7,4.7,0,0,1,1.5-.25,2.82,2.82,0,0,1,.85.11v1.31h.18a3.27,3.27,0,0,1,2.91-1.53c1.43,0,2.7.45,2.7,3.24,0,1.51,0,3-.11,4.52a9.14,9.14,0,0,1,1.46.23,2.34,2.34,0,0,1,.06.56,1.62,1.62,0,0,1,0,.31H35.61a2.48,2.48,0,0,1,.26-.81,5.65,5.65,0,0,1,1-.34v-4.22c0-1.38-.44-2.27-1.7-2.27a3.19,3.19,0,0,0-2.26,1.16Z"/><path class="cls-1" d="M41,400.24a2,2,0,0,1,.32-.95,5.48,5.48,0,0,1,1.63-.25,3.51,3.51,0,0,1,.94.11v7.52a9.88,9.88,0,0,1,1.43.25,3.06,3.06,0,0,1,0,.56,1.62,1.62,0,0,1,0,.31H40.9a2.25,2.25,0,0,1,.25-.81,6.09,6.09,0,0,1,1.16-.34v-6.4Zm3.16-4.19a1,1,0,0,1-1,1.06.93.93,0,0,1-1-1.06,1,1,0,0,1,1-1A.93.93,0,0,1,44.15,396.05Z"/><path class="cls-1" d="M52.65,395.83h-1.3a2,2,0,0,1,.32-.95,5.17,5.17,0,0,1,1.63-.25,3.82,3.82,0,0,1,.92.1v10.68a4.83,4.83,0,0,0,.15,1.28h1.35a1,1,0,0,1,0,.23,2.25,2.25,0,0,1-.14.72,10,10,0,0,1-2.45.36,3.41,3.41,0,0,1-.36-1.29H52.7A2.91,2.91,0,0,1,50,408.09c-1.57,0-3.36-1.08-3.36-4.34,0-2.89,1.79-4.82,4.37-4.82a3.16,3.16,0,0,1,1.65.43Zm0,4.43a5,5,0,0,0-1.5-.25c-2,0-2.9,1.4-2.9,3.49s1,3.37,2.33,3.37a2.38,2.38,0,0,0,2.07-1.08Z"/><path class="cls-1" d="M65.2,403.38c0,3-1.61,4.71-4.11,4.71S57,406.47,57,403.38c0-2.76,1.77-4.45,4.12-4.45S65.2,400.51,65.2,403.38ZM61.09,407c1.67,0,2.46-1.4,2.46-3.63,0-1.93-1-3.39-2.46-3.39s-2.47,1.35-2.47,3.39S59.56,407,61.09,407Z"/><path class="cls-1" d="M76.12,400.24a2.31,2.31,0,0,0-1.05-.27c-1.55,0-2.67,1-2.67,3.39s1.19,3.49,2.82,3.49a7.6,7.6,0,0,0,2.22-.43,2.17,2.17,0,0,1-.25,1,6.53,6.53,0,0,1-2.68.64c-2.33,0-3.83-1.87-3.83-4.39,0-2.79,1.79-4.77,4.43-4.77a4.35,4.35,0,0,1,2.37.65c0,.18,0,.47,0,.65a4.35,4.35,0,0,1-.25,1.53,3,3,0,0,1-1.14-.24Z"/><path class="cls-1" d="M84.15,406.73a2.78,2.78,0,0,1-2.53,1.36,2.35,2.35,0,0,1-2.57-2.41c0-1.85,1.57-2.81,3.36-2.81a4.45,4.45,0,0,1,1.68.31v-1c0-1.34-.57-2-1.71-2a5.75,5.75,0,0,0-2.64.88,1.6,1.6,0,0,1-.09-.61,2,2,0,0,1,.2-.9,7.39,7.39,0,0,1,2.94-.63c2,0,2.84.95,2.84,3.42v3.49a1.58,1.58,0,0,0,.24.94,5.51,5.51,0,0,0,1.24-.22.79.79,0,0,1,0,.2,1.86,1.86,0,0,1-.18.81,4.64,4.64,0,0,1-2,.52,1.89,1.89,0,0,1-.76-1.36Zm0-2.76a5.86,5.86,0,0,0-1.26-.14c-1.41,0-2.21.63-2.21,1.58a1.46,1.46,0,0,0,1.65,1.44,2.27,2.27,0,0,0,1.82-.88Z"/><path class="cls-1" d="M91,400.86a2.43,2.43,0,0,1,2.35-1.93,2.62,2.62,0,0,1,.82.14,2.45,2.45,0,0,1,.23,1.08,2.38,2.38,0,0,1-.05.49,2.5,2.5,0,0,0-1.23-.31A2.24,2.24,0,0,0,91,401.81v4.83a9,9,0,0,1,1.79.32,2.54,2.54,0,0,1,0,.83h-4.8a2.25,2.25,0,0,1,.25-.81,6.09,6.09,0,0,1,1.16-.34v-6.4H88.15a2,2,0,0,1,.32-.95A4.9,4.9,0,0,1,90,399a2.82,2.82,0,0,1,.85.11v1.71Z"/><path class="cls-1" d="M96.73,407.61a1.31,1.31,0,0,1-.86-1.28,1.87,1.87,0,0,1,1-1.53v-.09a2.83,2.83,0,0,1-1.16-2.56,3.2,3.2,0,0,1,3.48-3.22,4.15,4.15,0,0,1,2,.5,4.33,4.33,0,0,1,1.75-.34,2.62,2.62,0,0,1,.78.11,5.12,5.12,0,0,1,.15,1.08h-1.8a3.26,3.26,0,0,1,.53,1.87c0,2-1.3,3.21-3.45,3.21a4.89,4.89,0,0,1-1.47-.2,1.13,1.13,0,0,0-.27.74c0,.7,1,.83,2.62.83,2.1,0,3.71.45,3.71,2.37,0,2.16-2.1,3.22-4.54,3.22-2.13,0-4.07-.88-4.07-2.7a2.06,2.06,0,0,1,1.57-1.92Zm0,1.8c0,1.26,1.47,1.89,2.8,1.89s2.77-.63,2.77-1.86c0-.9-.69-1.35-2.55-1.35a9.57,9.57,0,0,1-2.06-.18A1.59,1.59,0,0,0,96.68,409.41Zm2.5-5c1.24,0,1.84-.88,1.84-2.25s-.71-2.25-1.84-2.25c-1.29,0-1.88.83-1.88,2.25S98,404.4,99.18,404.4Z"/><path class="cls-1" d="M113.39,403.38c0,3-1.61,4.71-4.11,4.71s-4.12-1.62-4.12-4.71c0-2.76,1.77-4.45,4.12-4.45S113.39,400.51,113.39,403.38ZM109.28,407c1.67,0,2.46-1.4,2.46-3.63,0-1.93-1-3.39-2.46-3.39s-2.47,1.35-2.47,3.39S107.75,407,109.28,407Z"/><path class="cls-1" d="M119.63,400.08a2.93,2.93,0,0,0-1.07-.22c-.94,0-1.48.44-1.48,1.1,0,2,4.21,1.41,4.21,4.54,0,1.87-1.57,2.59-3.25,2.59a5.55,5.55,0,0,1-2.77-.68,4.29,4.29,0,0,1-.09-.86,5.19,5.19,0,0,1,.18-1.28,5.14,5.14,0,0,1,1.3.16v1.24a2.89,2.89,0,0,0,1.52.42,1.37,1.37,0,0,0,1.52-1.35c0-2.15-4.25-1.37-4.25-4.56,0-1.32,1.21-2.25,3-2.25a6.89,6.89,0,0,1,2.55.47,2.41,2.41,0,0,1,0,.55,5.79,5.79,0,0,1-.2,1.46,2.66,2.66,0,0,1-1.21-.27Z"/><path class="cls-1" d="M132.09,400.24A2.37,2.37,0,0,0,131,400c-1.56,0-2.68,1-2.68,3.39s1.2,3.49,2.82,3.49a7.67,7.67,0,0,0,2.23-.43,2.19,2.19,0,0,1-.26,1,6.44,6.44,0,0,1-2.67.64c-2.34,0-3.84-1.87-3.84-4.39,0-2.79,1.79-4.77,4.43-4.77a4.33,4.33,0,0,1,2.37.65c0,.18,0,.47,0,.65a4.35,4.35,0,0,1-.25,1.53,3,3,0,0,1-1.14-.24Z"/><path class="cls-1" d="M143.3,403.38c0,3-1.61,4.71-4.11,4.71s-4.12-1.62-4.12-4.71c0-2.76,1.77-4.45,4.12-4.45S143.3,400.51,143.3,403.38ZM139.19,407c1.67,0,2.46-1.4,2.46-3.63,0-1.93-1-3.39-2.46-3.39s-2.47,1.35-2.47,3.39S137.66,407,139.19,407Z"/><path class="cls-1" d="M147.84,406.69a7.5,7.5,0,0,1,1.32.23,2.79,2.79,0,0,1,0,.87h-4.34a2.48,2.48,0,0,1,.26-.81,6.2,6.2,0,0,1,1.15-.34v-6.4h-1.32a2.12,2.12,0,0,1,.33-.95,4.7,4.7,0,0,1,1.5-.25,2.82,2.82,0,0,1,.85.11v1.31h.18a3.21,3.21,0,0,1,2.86-1.53,2.13,2.13,0,0,1,2.4,1.64h.09a3.18,3.18,0,0,1,2.91-1.64c1.41,0,2.66.45,2.66,3.24,0,1.53,0,3-.11,4.52a9.28,9.28,0,0,1,1.47.23,3.06,3.06,0,0,1,0,.56,1.62,1.62,0,0,1,0,.31h-4.28a2.73,2.73,0,0,1,.25-.81,5.92,5.92,0,0,1,1-.34v-4.22c0-1.38-.41-2.27-1.66-2.27a3.14,3.14,0,0,0-2.21,1.16v5.36a7.06,7.06,0,0,1,1.32.25,2.51,2.51,0,0,1,0,.87h-4.18a2.48,2.48,0,0,1,.26-.81,5.65,5.65,0,0,1,1-.34v-4.22c0-1.38-.42-2.27-1.67-2.27a3.09,3.09,0,0,0-2.2,1.16Z"/><path class="cls-1" d="M169.55,403.38c0,3-1.6,4.71-4.1,4.71s-4.12-1.62-4.12-4.71c0-2.76,1.77-4.45,4.12-4.45S169.55,400.51,169.55,403.38Zm-4.1,3.63c1.66,0,2.46-1.4,2.46-3.63,0-1.93-1-3.39-2.46-3.39s-2.48,1.35-2.48,3.39S163.91,407,165.45,407Z"/><path class="cls-1" d="M176.39,407.61a1.31,1.31,0,0,1-.87-1.28,1.88,1.88,0,0,1,1-1.53v-.09a2.83,2.83,0,0,1-1.16-2.56,3.19,3.19,0,0,1,3.47-3.22,4.19,4.19,0,0,1,2,.5,4.33,4.33,0,0,1,1.75-.34,2.62,2.62,0,0,1,.78.11,5.13,5.13,0,0,1,.14,1.08h-1.79a3.26,3.26,0,0,1,.53,1.87c0,2-1.31,3.21-3.46,3.21a4.77,4.77,0,0,1-1.46-.2,1.08,1.08,0,0,0-.27.74c0,.7,1,.83,2.62.83,2.09,0,3.7.45,3.7,2.37,0,2.16-2.09,3.22-4.54,3.22-2.13,0-4.06-.88-4.06-2.7a2.06,2.06,0,0,1,1.57-1.92Zm0,1.8c0,1.26,1.46,1.89,2.8,1.89s2.76-.63,2.76-1.86c0-.9-.68-1.35-2.54-1.35a9.71,9.71,0,0,1-2.07-.18A1.58,1.58,0,0,0,176.34,409.41Zm2.49-5c1.25,0,1.85-.88,1.85-2.25s-.71-2.25-1.85-2.25-1.88.83-1.88,2.25S177.66,404.4,178.83,404.4Z"/><path class="cls-1" d="M186.5,403.72a2.88,2.88,0,0,0,2.95,3.11,8.43,8.43,0,0,0,2.53-.5,2,2,0,0,1-.24,1,6.24,6.24,0,0,1-2.86.73c-2.58,0-4.06-1.92-4.06-4.41s1.64-4.75,4.17-4.75c2.17,0,3.1,1.57,3.1,3.83a8,8,0,0,1-.06,1Zm4-1.05c.12-1.24-.24-2.75-1.76-2.75-1.28,0-2.11,1.12-2.22,2.75Z"/><path class="cls-1" d="M196.53,400.86a2.43,2.43,0,0,1,2.35-1.93,2.62,2.62,0,0,1,.82.14,2.31,2.31,0,0,1,.23,1.08,1.85,1.85,0,0,1-.05.49,2.5,2.5,0,0,0-1.23-.31,2.24,2.24,0,0,0-2.08,1.48v4.83a8.77,8.77,0,0,1,1.79.32,2.54,2.54,0,0,1,0,.83h-4.81a2.25,2.25,0,0,1,.25-.81,6.31,6.31,0,0,1,1.16-.34v-6.4h-1.32a2.11,2.11,0,0,1,.32-.95,4.9,4.9,0,0,1,1.5-.25,2.82,2.82,0,0,1,.85.11v1.71Z"/><path class="cls-1" d="M202.63,403.72a2.88,2.88,0,0,0,3,3.11,8.43,8.43,0,0,0,2.53-.5,2,2,0,0,1-.24,1,6.23,6.23,0,0,1-2.85.73c-2.59,0-4.07-1.92-4.07-4.41s1.64-4.75,4.17-4.75c2.17,0,3.09,1.57,3.09,3.83a7.92,7.92,0,0,1-.05,1Zm4-1.05c.12-1.24-.24-2.75-1.76-2.75-1.28,0-2.11,1.12-2.22,2.75Z"/><path class="cls-1" d="M212.7,406.69a7.33,7.33,0,0,1,1.32.23,3.12,3.12,0,0,1,0,.87h-4.34A2.25,2.25,0,0,1,210,407a6.31,6.31,0,0,1,1.16-.34v-6.4h-1.32a2.11,2.11,0,0,1,.32-.95,4.7,4.7,0,0,1,1.5-.25,2.82,2.82,0,0,1,.85.11v1.31h.18a3.27,3.27,0,0,1,2.92-1.53c1.42,0,2.69.45,2.69,3.24,0,1.51,0,3-.11,4.52a9.14,9.14,0,0,1,1.46.23,2.34,2.34,0,0,1,.06.56,1.62,1.62,0,0,1,0,.31h-4.28a2.25,2.25,0,0,1,.25-.81,5.65,5.65,0,0,1,1-.34v-4.22c0-1.38-.43-2.27-1.7-2.27a3.19,3.19,0,0,0-2.26,1.16Z"/><path class="cls-1" d="M222,397a3.12,3.12,0,0,1,1.21-.29v2.49h2.62a4.69,4.69,0,0,1,.06,1h-2.68v5c0,1.17.16,1.68,1.17,1.68a6.74,6.74,0,0,0,1.68-.24,1.1,1.1,0,0,1,0,.24,1.6,1.6,0,0,1-.18.7,5.92,5.92,0,0,1-2.22.48c-1.39,0-2.1-.75-2.1-2.61,0-1.06,0-3.38.09-5.2H220.4a2.86,2.86,0,0,1,.22-.94,6.44,6.44,0,0,1,1-.32Z"/><path class="cls-1" d="M228.52,403.72a2.89,2.89,0,0,0,2.95,3.11,8.36,8.36,0,0,0,2.53-.5,1.94,1.94,0,0,1-.23,1,6.28,6.28,0,0,1-2.86.73c-2.59,0-4.07-1.92-4.07-4.41s1.65-4.75,4.18-4.75c2.17,0,3.09,1.57,3.09,3.83,0,.31,0,.63-.05,1Zm4-1.05c.13-1.24-.23-2.75-1.75-2.75-1.29,0-2.12,1.12-2.23,2.75Z"/><path class="cls-1" d="M240.29,400.08a2.83,2.83,0,0,0-1.06-.22c-.94,0-1.48.44-1.48,1.1,0,2,4.21,1.41,4.21,4.54,0,1.87-1.58,2.59-3.26,2.59a5.48,5.48,0,0,1-2.76-.68,3.66,3.66,0,0,1-.09-.86,5.19,5.19,0,0,1,.18-1.28,5.14,5.14,0,0,1,1.3.16v1.24a2.89,2.89,0,0,0,1.52.42,1.37,1.37,0,0,0,1.52-1.35c0-2.15-4.25-1.37-4.25-4.56,0-1.32,1.21-2.25,3-2.25a6.89,6.89,0,0,1,2.55.47,2.41,2.41,0,0,1,0,.55,5.79,5.79,0,0,1-.2,1.46,2.7,2.7,0,0,1-1.22-.27Z"/><path class="cls-1" d="M243.73,407.3a3.56,3.56,0,0,1,.6-1.2,3.11,3.11,0,0,1,.74-.08,4.22,4.22,0,0,1,1.34.22,16.38,16.38,0,0,1-1.65,4.25,3.3,3.3,0,0,1-1-.47,16.36,16.36,0,0,0,.69-2.54Z"/><path class="cls-1" d="M39.68,433.73a2.77,2.77,0,0,1-2.53,1.36,2.35,2.35,0,0,1-2.57-2.41c0-1.85,1.58-2.81,3.37-2.81a4.49,4.49,0,0,1,1.68.31v-1c0-1.34-.58-2-1.72-2a5.75,5.75,0,0,0-2.64.88,1.6,1.6,0,0,1-.09-.61,2,2,0,0,1,.2-.9,7.48,7.48,0,0,1,2.95-.63c2,0,2.84.95,2.84,3.42v3.49a1.66,1.66,0,0,0,.23.94,5.68,5.68,0,0,0,1.25-.22.79.79,0,0,1,0,.2,1.86,1.86,0,0,1-.19.81,4.55,4.55,0,0,1-1.95.52,1.92,1.92,0,0,1-.76-1.36Zm0-2.76a6,6,0,0,0-1.27-.14c-1.41,0-2.21.63-2.21,1.58a1.46,1.46,0,0,0,1.65,1.44,2.3,2.3,0,0,0,1.83-.88Z"/><path class="cls-1" d="M49.83,422.83H48.52a2.12,2.12,0,0,1,.33-.95,5.17,5.17,0,0,1,1.63-.25,3.82,3.82,0,0,1,.92.1v10.68a5.29,5.29,0,0,0,.14,1.28H52.9a1,1,0,0,1,0,.23,2,2,0,0,1-.15.72,9.87,9.87,0,0,1-2.44.36,3.24,3.24,0,0,1-.36-1.29h-.09a2.91,2.91,0,0,1-2.71,1.38c-1.57,0-3.36-1.08-3.36-4.34,0-2.89,1.79-4.82,4.37-4.82a3.16,3.16,0,0,1,1.65.43Zm0,4.43a4.9,4.9,0,0,0-1.5-.25c-2,0-2.89,1.4-2.89,3.49s1,3.37,2.33,3.37a2.36,2.36,0,0,0,2.06-1.08Z"/><path class="cls-1" d="M56.92,433.69a7.5,7.5,0,0,1,1.32.23,2.79,2.79,0,0,1,0,.87H53.93a2.48,2.48,0,0,1,.26-.81,6,6,0,0,1,1.15-.34v-6.4H54a2.12,2.12,0,0,1,.33-.95,4.7,4.7,0,0,1,1.5-.25,2.82,2.82,0,0,1,.85.11v1.31h.18a3.19,3.19,0,0,1,2.86-1.53,2.13,2.13,0,0,1,2.4,1.64h.09a3.18,3.18,0,0,1,2.91-1.64c1.41,0,2.66.45,2.66,3.24,0,1.53,0,3-.11,4.52a9.47,9.47,0,0,1,1.47.23,3.06,3.06,0,0,1,0,.56,1.62,1.62,0,0,1,0,.31H64.91a2.25,2.25,0,0,1,.25-.81,5.65,5.65,0,0,1,1-.34v-4.22c0-1.38-.41-2.27-1.66-2.27a3.14,3.14,0,0,0-2.21,1.16v5.36a7.22,7.22,0,0,1,1.32.25,2.79,2.79,0,0,1,0,.87H59.5a2.73,2.73,0,0,1,.25-.81,6.21,6.21,0,0,1,1-.34v-4.22c0-1.38-.41-2.27-1.66-2.27a3.07,3.07,0,0,0-2.2,1.16Z"/><path class="cls-1" d="M70.28,427.24a2.11,2.11,0,0,1,.32-.95,5.48,5.48,0,0,1,1.63-.25,3.47,3.47,0,0,1,.94.11v7.52a9.88,9.88,0,0,1,1.43.25,2.38,2.38,0,0,1,.05.56c0,.11,0,.2,0,.31H70.19a2.25,2.25,0,0,1,.25-.81,6.31,6.31,0,0,1,1.16-.34v-6.4Zm3.16-4.19a1,1,0,0,1-1,1.06.93.93,0,0,1-1-1.06,1,1,0,0,1,1-1A.93.93,0,0,1,73.44,423.05Z"/><path class="cls-1" d="M78.69,433.69a7.5,7.5,0,0,1,1.32.23,2.79,2.79,0,0,1,0,.87H75.7A2.48,2.48,0,0,1,76,434a6.2,6.2,0,0,1,1.15-.34v-6.4H75.79a2.12,2.12,0,0,1,.33-.95,4.7,4.7,0,0,1,1.5-.25,2.82,2.82,0,0,1,.85.11v1.31h.18a3.25,3.25,0,0,1,2.91-1.53c1.43,0,2.7.45,2.7,3.24,0,1.51,0,3-.11,4.52a9.14,9.14,0,0,1,1.46.23,2.34,2.34,0,0,1,.06.56,1.62,1.62,0,0,1,0,.31H81.36a2.48,2.48,0,0,1,.26-.81,5.65,5.65,0,0,1,1-.34v-4.22c0-1.38-.44-2.27-1.7-2.27a3.17,3.17,0,0,0-2.26,1.16Z"/><path class="cls-1" d="M86.73,427.24a2.12,2.12,0,0,1,.33-.95,5.48,5.48,0,0,1,1.63-.25,3.51,3.51,0,0,1,.94.11v7.52a9.88,9.88,0,0,1,1.43.25,3.06,3.06,0,0,1,0,.56,1.62,1.62,0,0,1,0,.31H86.64a2.48,2.48,0,0,1,.26-.81,6.2,6.2,0,0,1,1.15-.34v-6.4Zm3.17-4.19a1,1,0,0,1-1,1.06.94.94,0,0,1-1-1.06,1,1,0,0,1,1-1A.93.93,0,0,1,89.9,423.05Z"/><path class="cls-1" d="M96.84,427.08a2.89,2.89,0,0,0-1.07-.22c-.94,0-1.48.44-1.48,1.1,0,2,4.22,1.41,4.22,4.54,0,1.87-1.58,2.59-3.26,2.59a5.55,5.55,0,0,1-2.77-.68,4.29,4.29,0,0,1-.09-.86,5.19,5.19,0,0,1,.18-1.28,5.22,5.22,0,0,1,1.31.16v1.24a2.84,2.84,0,0,0,1.52.42,1.36,1.36,0,0,0,1.51-1.35c0-2.15-4.24-1.37-4.24-4.56,0-1.32,1.21-2.25,3-2.25a6.93,6.93,0,0,1,2.55.47,3.2,3.2,0,0,1,0,.55,5.79,5.79,0,0,1-.2,1.46,2.69,2.69,0,0,1-1.21-.27Z"/><path class="cls-1" d="M101.25,424a3.17,3.17,0,0,1,1.22-.29v2.49h2.62a4.76,4.76,0,0,1,0,1h-2.67v5c0,1.17.16,1.68,1.17,1.68a6.81,6.81,0,0,0,1.68-.24,1.1,1.1,0,0,1,0,.24,1.6,1.6,0,0,1-.18.7,5.92,5.92,0,0,1-2.22.48c-1.4,0-2.1-.75-2.1-2.61,0-1.06,0-3.38.09-5.2H99.68a2.86,2.86,0,0,1,.22-.94,6.16,6.16,0,0,1,1-.32Z"/><path class="cls-1" d="M109.21,427.86a2.42,2.42,0,0,1,2.35-1.93,2.62,2.62,0,0,1,.82.14,2.45,2.45,0,0,1,.23,1.08,2.38,2.38,0,0,1,0,.49,2.5,2.5,0,0,0-1.23-.31,2.23,2.23,0,0,0-2.08,1.48v4.83A9,9,0,0,1,111,434a2.54,2.54,0,0,1,0,.83h-4.81a2.48,2.48,0,0,1,.26-.81,6.2,6.2,0,0,1,1.15-.34v-6.4h-1.32a2.12,2.12,0,0,1,.33-.95,4.9,4.9,0,0,1,1.5-.25,2.82,2.82,0,0,1,.85.11v1.71Z"/><path class="cls-1" d="M118.63,433.73a2.77,2.77,0,0,1-2.53,1.36,2.35,2.35,0,0,1-2.57-2.41c0-1.85,1.58-2.81,3.37-2.81a4.53,4.53,0,0,1,1.68.31v-1c0-1.34-.58-2-1.72-2a5.75,5.75,0,0,0-2.64.88,1.6,1.6,0,0,1-.09-.61,2,2,0,0,1,.2-.9,7.44,7.44,0,0,1,3-.63c2,0,2.83.95,2.83,3.42v3.49a1.58,1.58,0,0,0,.24.94,5.68,5.68,0,0,0,1.25-.22,1.56,1.56,0,0,1,0,.2,1.86,1.86,0,0,1-.18.81,4.55,4.55,0,0,1-2,.52,1.92,1.92,0,0,1-.76-1.36Zm0-2.76a6,6,0,0,0-1.27-.14c-1.41,0-2.21.63-2.21,1.58a1.46,1.46,0,0,0,1.65,1.44,2.3,2.3,0,0,0,1.83-.88Z"/><path class="cls-1" d="M128.78,422.83h-1.31a2.12,2.12,0,0,1,.33-.95,5.17,5.17,0,0,1,1.63-.25,3.82,3.82,0,0,1,.92.1v10.68a5.29,5.29,0,0,0,.14,1.28h1.36a1,1,0,0,1,0,.23,2,2,0,0,1-.15.72,9.94,9.94,0,0,1-2.44.36,3.24,3.24,0,0,1-.36-1.29h-.09a2.91,2.91,0,0,1-2.71,1.38c-1.58,0-3.37-1.08-3.37-4.34,0-2.89,1.79-4.82,4.38-4.82a3.16,3.16,0,0,1,1.65.43Zm0,4.43a4.9,4.9,0,0,0-1.5-.25c-2,0-2.89,1.4-2.89,3.49s1,3.37,2.33,3.37a2.36,2.36,0,0,0,2.06-1.08Z"/><path class="cls-1" d="M141.33,430.38c0,3-1.61,4.71-4.11,4.71s-4.12-1.62-4.12-4.71c0-2.76,1.77-4.45,4.12-4.45S141.33,427.51,141.33,430.38ZM137.22,434c1.66,0,2.46-1.4,2.46-3.63,0-1.93-1-3.39-2.46-3.39s-2.48,1.35-2.48,3.39S135.68,434,137.22,434Z"/><path class="cls-1" d="M145.83,427.86a2.41,2.41,0,0,1,2.35-1.93,2.51,2.51,0,0,1,.81.14,2.3,2.3,0,0,1,.24,1.08,1.83,1.83,0,0,1-.06.49,2.44,2.44,0,0,0-1.23-.31,2.25,2.25,0,0,0-2.08,1.48v4.83a8.77,8.77,0,0,1,1.79.32,2.29,2.29,0,0,1,0,.83h-4.81a2.73,2.73,0,0,1,.25-.81,6.31,6.31,0,0,1,1.16-.34v-6.4H143a2.12,2.12,0,0,1,.33-.95,4.8,4.8,0,0,1,1.5-.25,2.91,2.91,0,0,1,.85.11v1.71Z"/><path class="cls-1" d="M151.92,430.72a2.89,2.89,0,0,0,3,3.11,8.36,8.36,0,0,0,2.53-.5,1.94,1.94,0,0,1-.23,1,6.31,6.31,0,0,1-2.86.73c-2.59,0-4.07-1.92-4.07-4.41s1.65-4.75,4.18-4.75c2.17,0,3.09,1.57,3.09,3.83,0,.31,0,.63,0,1Zm4-1.05c.13-1.24-.23-2.75-1.75-2.75-1.29,0-2.12,1.12-2.23,2.75Z"/><path class="cls-1" d="M163.69,427.08a2.88,2.88,0,0,0-1.06-.22c-.94,0-1.49.44-1.49,1.1,0,2,4.22,1.41,4.22,4.54,0,1.87-1.58,2.59-3.26,2.59a5.48,5.48,0,0,1-2.76-.68,3.66,3.66,0,0,1-.09-.86,5.19,5.19,0,0,1,.18-1.28,5.2,5.2,0,0,1,1.3.16v1.24a2.86,2.86,0,0,0,1.52.42,1.37,1.37,0,0,0,1.52-1.35c0-2.15-4.25-1.37-4.25-4.56,0-1.32,1.21-2.25,3-2.25a6.93,6.93,0,0,1,2.55.47,3.2,3.2,0,0,1,0,.55,6.31,6.31,0,0,1-.19,1.46,2.7,2.7,0,0,1-1.22-.27Z"/><path class="cls-1" d="M177,427.24h-1.3a2.11,2.11,0,0,1,.32-.95,4.94,4.94,0,0,1,1.63-.25,3.32,3.32,0,0,1,.92.11v6.26a5.14,5.14,0,0,0,.15,1.28h1.37a1,1,0,0,1,0,.23,2.25,2.25,0,0,1-.14.72,10.46,10.46,0,0,1-2.48.36,3.58,3.58,0,0,1-.36-1.42h-.09a3.22,3.22,0,0,1-2.88,1.51c-1.41,0-2.66-.45-2.66-3.24,0-1.51,0-3.09.09-4.61h-1.37a2.13,2.13,0,0,1,.33-.93,4.89,4.89,0,0,1,1.64-.27,3.32,3.32,0,0,1,.92.11v5.45c0,1.37.44,2.25,1.67,2.25a3.09,3.09,0,0,0,2.22-1.1Zm-2.44-2.16a2.52,2.52,0,0,1-.92-.77l2-2.81a3.62,3.62,0,0,1,1.59.63Z"/><path class="cls-1" d="M184.29,433.69a7.33,7.33,0,0,1,1.32.23,3.12,3.12,0,0,1,0,.87h-4.34a2.25,2.25,0,0,1,.25-.81,6.31,6.31,0,0,1,1.16-.34v-6.4H181.4a2.11,2.11,0,0,1,.32-.95,4.7,4.7,0,0,1,1.5-.25,2.82,2.82,0,0,1,.85.11v1.31h.18a3.27,3.27,0,0,1,2.92-1.53c1.42,0,2.69.45,2.69,3.24,0,1.51,0,3-.11,4.52a9.14,9.14,0,0,1,1.46.23,2.34,2.34,0,0,1,.06.56,1.62,1.62,0,0,1,0,.31H187a2.25,2.25,0,0,1,.25-.81,5.65,5.65,0,0,1,1-.34v-4.22c0-1.38-.43-2.27-1.7-2.27a3.19,3.19,0,0,0-2.26,1.16Z"/><path class="cls-1" d="M192.34,427.24a2.11,2.11,0,0,1,.32-.95,5.48,5.48,0,0,1,1.63-.25,3.47,3.47,0,0,1,.94.11v7.52a9.88,9.88,0,0,1,1.43.25,2.38,2.38,0,0,1,.05.56c0,.11,0,.2,0,.31h-4.45a2.25,2.25,0,0,1,.25-.81,6.31,6.31,0,0,1,1.16-.34v-6.4Zm3.16-4.19a1,1,0,0,1-1,1.06.93.93,0,0,1-1-1.06,1,1,0,0,1,1-1A.93.93,0,0,1,195.5,423.05Z"/><path class="cls-1" d="M203.42,427.24a2.31,2.31,0,0,0-1-.27c-1.55,0-2.67,1-2.67,3.39s1.19,3.49,2.82,3.49a7.6,7.6,0,0,0,2.22-.43,2.17,2.17,0,0,1-.25,1,6.53,6.53,0,0,1-2.68.64c-2.33,0-3.83-1.87-3.83-4.39,0-2.79,1.79-4.77,4.43-4.77a4.35,4.35,0,0,1,2.37.65c0,.18,0,.47,0,.65a4.35,4.35,0,0,1-.25,1.53,3,3,0,0,1-1.14-.24Z"/><path class="cls-1" d="M214.63,430.38c0,3-1.61,4.71-4.1,4.71-2.64,0-4.12-1.62-4.12-4.71,0-2.76,1.77-4.45,4.12-4.45S214.63,427.51,214.63,430.38Zm-4.1,3.63c1.66,0,2.46-1.4,2.46-3.63,0-1.93-1-3.39-2.46-3.39s-2.48,1.35-2.48,3.39S209,434,210.53,434Z"/><path class="cls-1" d="M220.87,427.08a2.89,2.89,0,0,0-1.07-.22c-.93,0-1.48.44-1.48,1.1,0,2,4.22,1.41,4.22,4.54,0,1.87-1.58,2.59-3.26,2.59a5.55,5.55,0,0,1-2.77-.68,4.29,4.29,0,0,1-.09-.86,4.73,4.73,0,0,1,.19-1.28,5.2,5.2,0,0,1,1.3.16v1.24a2.84,2.84,0,0,0,1.52.42,1.36,1.36,0,0,0,1.51-1.35c0-2.15-4.24-1.37-4.24-4.56,0-1.32,1.21-2.25,3-2.25a6.93,6.93,0,0,1,2.55.47,3.2,3.2,0,0,1,0,.55,5.79,5.79,0,0,1-.2,1.46,2.69,2.69,0,0,1-1.21-.27Z"/><path class="cls-1" d="M224.31,434.3a3.74,3.74,0,0,1,.59-1.2,3.19,3.19,0,0,1,.75-.08,4.21,4.21,0,0,1,1.33.22,16,16,0,0,1-1.64,4.25,3.3,3.3,0,0,1-1-.47,16.36,16.36,0,0,0,.69-2.54Z"/><path class="cls-1" d="M18.62,460.73a2.79,2.79,0,0,1-2.54,1.36,2.35,2.35,0,0,1-2.56-2.41c0-1.85,1.57-2.81,3.36-2.81a4.45,4.45,0,0,1,1.68.31v-1c0-1.34-.58-2-1.72-2a5.83,5.83,0,0,0-2.64.88,1.6,1.6,0,0,1-.09-.61,2,2,0,0,1,.2-.9,7.48,7.48,0,0,1,3-.63c2,0,2.84.95,2.84,3.42v3.49a1.66,1.66,0,0,0,.23.94,5.49,5.49,0,0,0,1.25-.22.79.79,0,0,1,0,.2,1.86,1.86,0,0,1-.18.81,4.64,4.64,0,0,1-2,.52,1.85,1.85,0,0,1-.76-1.36Zm0-2.76a5.88,5.88,0,0,0-1.27-.14c-1.41,0-2.2.63-2.2,1.58a1.46,1.46,0,0,0,1.64,1.44,2.27,2.27,0,0,0,1.83-.88Z"/><path class="cls-1" d="M29.05,454.24h-1.3a2.11,2.11,0,0,1,.32-.95A4.9,4.9,0,0,1,29.7,453a3.32,3.32,0,0,1,.92.11v6.26a5.14,5.14,0,0,0,.15,1.28h1.37a1,1,0,0,1,0,.23,2.25,2.25,0,0,1-.14.72,10.46,10.46,0,0,1-2.48.36,3.58,3.58,0,0,1-.36-1.42h-.09a3.22,3.22,0,0,1-2.88,1.51c-1.41,0-2.66-.45-2.66-3.24,0-1.51,0-3.09.09-4.61H22.27a2.24,2.24,0,0,1,.32-.93,5,5,0,0,1,1.65-.27,3.32,3.32,0,0,1,.92.11v5.45c0,1.37.44,2.25,1.67,2.25a3.09,3.09,0,0,0,2.22-1.1Z"/><path class="cls-1" d="M36.3,460a4.38,4.38,0,0,1-.58.68,6.06,6.06,0,0,1,1.11.22,2.66,2.66,0,0,1,.16.9H33a2.71,2.71,0,0,1,.26-.85,7.33,7.33,0,0,1,1.12-.38l2.53-3.22-2.26-2.88a4,4,0,0,1-1-.31,3.44,3.44,0,0,1-.2-.91h3.77a5.15,5.15,0,0,1-.11.9,4.11,4.11,0,0,1-.87.21,4.37,4.37,0,0,1,.7.72L38,456.49l1.1-1.49a3,3,0,0,1,.58-.63,4.31,4.31,0,0,1-.94-.23,3,3,0,0,1-.15-.9h3.29a3.47,3.47,0,0,1-.18.95,3.27,3.27,0,0,1-.81.18l-2.26,3,2.6,3.33a5.21,5.21,0,0,1,1,.2,2.85,2.85,0,0,1,.19.92H38.4a3.09,3.09,0,0,1,.25-.9,5.39,5.39,0,0,1,1-.22,7.08,7.08,0,0,1-.81-.83l-1.28-1.64Z"/><path class="cls-1" d="M43.44,454.24a2.12,2.12,0,0,1,.33-.95A5.48,5.48,0,0,1,45.4,453a3.51,3.51,0,0,1,.94.11v7.52a9.88,9.88,0,0,1,1.43.25,3.06,3.06,0,0,1,0,.56,1.62,1.62,0,0,1,0,.31H43.35a2.48,2.48,0,0,1,.26-.81,6.2,6.2,0,0,1,1.15-.34v-6.4Zm3.17-4.19a1,1,0,0,1-1,1.06.94.94,0,0,1-1-1.06,1,1,0,0,1,1-1A.93.93,0,0,1,46.61,450.05Z"/><path class="cls-1" d="M48.8,449.83a2,2,0,0,1,.32-.95,5.17,5.17,0,0,1,1.63-.25,3.82,3.82,0,0,1,.92.1v11.94a10.46,10.46,0,0,1,1.47.25,3.06,3.06,0,0,1,0,.56,1.62,1.62,0,0,1,0,.31H48.69a2.25,2.25,0,0,1,.25-.81,6.31,6.31,0,0,1,1.16-.34V449.83Z"/><path class="cls-1" d="M54.31,454.24a2.12,2.12,0,0,1,.33-.95,5.41,5.41,0,0,1,1.62-.25,3.47,3.47,0,0,1,.94.11v7.52a9.64,9.64,0,0,1,1.43.25,2.34,2.34,0,0,1,.06.56,1.62,1.62,0,0,1,0,.31H54.22a2.73,2.73,0,0,1,.25-.81,6.31,6.31,0,0,1,1.16-.34v-6.4Zm3.17-4.19a1,1,0,0,1-1,1.06.93.93,0,0,1-1-1.06,1,1,0,0,1,1-1A.94.94,0,0,1,57.48,450.05Z"/><path class="cls-1" d="M65,460.73a2.78,2.78,0,0,1-2.53,1.36,2.35,2.35,0,0,1-2.57-2.41c0-1.85,1.57-2.81,3.36-2.81a4.45,4.45,0,0,1,1.68.31v-1c0-1.34-.57-2-1.71-2a5.75,5.75,0,0,0-2.64.88,1.43,1.43,0,0,1-.09-.61,2.15,2.15,0,0,1,.19-.9,7.48,7.48,0,0,1,3-.63c2,0,2.84.95,2.84,3.42v3.49a1.58,1.58,0,0,0,.24.94,5.51,5.51,0,0,0,1.24-.22.79.79,0,0,1,0,.2,1.86,1.86,0,0,1-.18.81,4.64,4.64,0,0,1-2,.52,1.89,1.89,0,0,1-.76-1.36ZM65,458a5.86,5.86,0,0,0-1.26-.14c-1.41,0-2.21.63-2.21,1.58a1.46,1.46,0,0,0,1.65,1.44A2.27,2.27,0,0,0,65,460Z"/><path class="cls-1" d="M71.85,454.86a2.42,2.42,0,0,1,2.35-1.93,2.62,2.62,0,0,1,.82.14,2.45,2.45,0,0,1,.23,1.08,2.38,2.38,0,0,1,0,.49,2.5,2.5,0,0,0-1.23-.31,2.24,2.24,0,0,0-2.08,1.48v4.83a9,9,0,0,1,1.79.32,2.54,2.54,0,0,1,0,.83H68.9a2.48,2.48,0,0,1,.26-.81,6.2,6.2,0,0,1,1.15-.34v-6.4H69a2.12,2.12,0,0,1,.33-.95,4.9,4.9,0,0,1,1.5-.25,2.82,2.82,0,0,1,.85.11v1.71Z"/><path class="cls-1" d="M78,457.72a2.88,2.88,0,0,0,2.94,3.11,8.3,8.3,0,0,0,2.53-.5,1.94,1.94,0,0,1-.23,1,6.28,6.28,0,0,1-2.86.73c-2.58,0-4.07-1.92-4.07-4.41s1.65-4.75,4.18-4.75c2.17,0,3.09,1.57,3.09,3.83,0,.31,0,.63,0,1Zm4-1.05c.13-1.24-.23-2.75-1.75-2.75-1.28,0-2.12,1.12-2.22,2.75Z"/><path class="cls-1" d="M89.72,454.08a2.93,2.93,0,0,0-1.07-.22c-.94,0-1.48.44-1.48,1.1,0,2,4.21,1.41,4.21,4.54,0,1.87-1.57,2.59-3.25,2.59a5.55,5.55,0,0,1-2.77-.68,4.29,4.29,0,0,1-.09-.86,5.19,5.19,0,0,1,.18-1.28,5.14,5.14,0,0,1,1.3.16v1.24a2.89,2.89,0,0,0,1.52.42,1.37,1.37,0,0,0,1.52-1.35c0-2.15-4.25-1.37-4.25-4.56,0-1.32,1.21-2.25,3-2.25a6.89,6.89,0,0,1,2.55.47,2.41,2.41,0,0,1,0,.55,5.79,5.79,0,0,1-.2,1.46,2.63,2.63,0,0,1-1.21-.27Z"/><path class="cls-1" d="M93.15,461.3a3.56,3.56,0,0,1,.6-1.2,3.11,3.11,0,0,1,.74-.08,4.22,4.22,0,0,1,1.34.22,15.7,15.7,0,0,1-1.65,4.25,3.23,3.23,0,0,1-1-.47,16.29,16.29,0,0,0,.68-2.54Z"/><path class="cls-1" d="M103,457.72a2.89,2.89,0,0,0,3,3.11,8.36,8.36,0,0,0,2.53-.5,1.94,1.94,0,0,1-.23,1,6.28,6.28,0,0,1-2.86.73c-2.59,0-4.07-1.92-4.07-4.41s1.65-4.75,4.18-4.75c2.17,0,3.09,1.57,3.09,3.83,0,.31,0,.63-.05,1Zm4-1.05c.13-1.24-.23-2.75-1.75-2.75-1.29,0-2.12,1.12-2.23,2.75Z"/><path class="cls-1" d="M113,460.69a7.5,7.5,0,0,1,1.32.23,2.79,2.79,0,0,1,0,.87H110a2.48,2.48,0,0,1,.26-.81,6,6,0,0,1,1.15-.34v-6.4h-1.32a2.12,2.12,0,0,1,.33-.95A4.7,4.7,0,0,1,112,453a2.82,2.82,0,0,1,.85.11v1.31H113a3.25,3.25,0,0,1,2.91-1.53c1.43,0,2.7.45,2.7,3.24,0,1.51,0,3-.11,4.52a9.14,9.14,0,0,1,1.46.23,2.34,2.34,0,0,1,.06.56,1.62,1.62,0,0,1,0,.31H115.7A2.48,2.48,0,0,1,116,461a5.65,5.65,0,0,1,1-.34v-4.22c0-1.38-.44-2.27-1.7-2.27a3.17,3.17,0,0,0-2.26,1.16Z"/><path class="cls-1" d="M122.3,451a3.12,3.12,0,0,1,1.21-.29v2.49h2.63a4.76,4.76,0,0,1,0,1h-2.68v5c0,1.17.17,1.68,1.18,1.68a6.81,6.81,0,0,0,1.68-.24,1.1,1.1,0,0,1,0,.24,1.6,1.6,0,0,1-.18.7,5.93,5.93,0,0,1-2.23.48c-1.39,0-2.09-.75-2.09-2.61,0-1.06,0-3.38.09-5.2h-1.25a2.86,2.86,0,0,1,.22-.94,6.16,6.16,0,0,1,1-.32Z"/><path class="cls-1" d="M130.26,454.86a2.41,2.41,0,0,1,2.35-1.93,2.51,2.51,0,0,1,.81.14,2.3,2.3,0,0,1,.24,1.08,1.83,1.83,0,0,1-.06.49,2.43,2.43,0,0,0-1.22-.31,2.23,2.23,0,0,0-2.08,1.48v4.83a9,9,0,0,1,1.79.32,2.54,2.54,0,0,1,0,.83h-4.81a2.48,2.48,0,0,1,.26-.81,6,6,0,0,1,1.15-.34v-6.4H127.4a2.12,2.12,0,0,1,.33-.95,4.85,4.85,0,0,1,1.5-.25,2.82,2.82,0,0,1,.85.11v1.71Z"/><path class="cls-1" d="M136.35,457.72a2.89,2.89,0,0,0,3,3.11,8.36,8.36,0,0,0,2.53-.5,1.94,1.94,0,0,1-.23,1,6.28,6.28,0,0,1-2.86.73c-2.59,0-4.07-1.92-4.07-4.41s1.65-4.75,4.18-4.75c2.17,0,3.09,1.57,3.09,3.83,0,.31,0,.63-.05,1Zm4-1.05c.13-1.24-.23-2.75-1.75-2.75-1.29,0-2.12,1.12-2.23,2.75Z"/><path class="cls-1" d="M155.59,457.38c0,3-1.61,4.71-4.1,4.71-2.64,0-4.12-1.62-4.12-4.71,0-2.76,1.77-4.45,4.12-4.45S155.59,454.51,155.59,457.38Zm-4.1,3.63c1.66,0,2.46-1.4,2.46-3.63,0-1.93-1-3.39-2.46-3.39s-2.48,1.35-2.48,3.39S150,461,151.49,461Z"/><path class="cls-1" d="M158.47,451a3.12,3.12,0,0,1,1.21-.29v2.49h2.62a4.69,4.69,0,0,1,.06,1h-2.68v5c0,1.17.16,1.68,1.18,1.68a6.87,6.87,0,0,0,1.68-.24,1.1,1.1,0,0,1,0,.24,1.6,1.6,0,0,1-.19.7,5.92,5.92,0,0,1-2.22.48c-1.39,0-2.1-.75-2.1-2.61,0-1.06,0-3.38.09-5.2H156.9a2.84,2.84,0,0,1,.21-.94,6.44,6.44,0,0,1,1-.32Z"/><path class="cls-1" d="M166.43,454.86a2.41,2.41,0,0,1,2.35-1.93,2.6,2.6,0,0,1,.81.14,2.31,2.31,0,0,1,.23,1.08,1.85,1.85,0,0,1,0,.49,2.47,2.47,0,0,0-1.23-.31,2.24,2.24,0,0,0-2.08,1.48v4.83a8.77,8.77,0,0,1,1.79.32,2.54,2.54,0,0,1,0,.83h-4.81a2.25,2.25,0,0,1,.25-.81,6.31,6.31,0,0,1,1.16-.34v-6.4h-1.32a2.11,2.11,0,0,1,.32-.95,4.9,4.9,0,0,1,1.5-.25,2.82,2.82,0,0,1,.85.11v1.71Z"/><path class="cls-1" d="M179.06,457.38c0,3-1.6,4.71-4.1,4.71s-4.12-1.62-4.12-4.71c0-2.76,1.77-4.45,4.12-4.45S179.06,454.51,179.06,457.38ZM175,461c1.66,0,2.46-1.4,2.46-3.63,0-1.93-1-3.39-2.46-3.39s-2.48,1.35-2.48,3.39S173.42,461,175,461Z"/><path class="cls-1" d="M185.3,454.08a2.88,2.88,0,0,0-1.06-.22c-.94,0-1.49.44-1.49,1.1,0,2,4.22,1.41,4.22,4.54,0,1.87-1.58,2.59-3.26,2.59a5.48,5.48,0,0,1-2.76-.68,3.66,3.66,0,0,1-.09-.86,5.19,5.19,0,0,1,.18-1.28,5.2,5.2,0,0,1,1.3.16v1.24a2.84,2.84,0,0,0,1.52.42,1.37,1.37,0,0,0,1.52-1.35c0-2.15-4.25-1.37-4.25-4.56,0-1.32,1.21-2.25,3-2.25a6.93,6.93,0,0,1,2.55.47,3.2,3.2,0,0,1,0,.55,6.31,6.31,0,0,1-.19,1.46,2.7,2.7,0,0,1-1.22-.27Z"/><path class="cls-1" d="M197.76,454.24a2.31,2.31,0,0,0-1-.27c-1.55,0-2.67,1-2.67,3.39s1.19,3.49,2.82,3.49a7.6,7.6,0,0,0,2.22-.43,2.17,2.17,0,0,1-.25,1,6.53,6.53,0,0,1-2.68.64c-2.33,0-3.83-1.87-3.83-4.39,0-2.79,1.79-4.77,4.43-4.77a4.35,4.35,0,0,1,2.37.65c0,.18,0,.47,0,.65a4.35,4.35,0,0,1-.25,1.53,3,3,0,0,1-1.14-.24Z"/><path class="cls-1" d="M205.79,460.73a2.77,2.77,0,0,1-2.53,1.36,2.35,2.35,0,0,1-2.57-2.41c0-1.85,1.58-2.81,3.37-2.81a4.49,4.49,0,0,1,1.68.31v-1c0-1.34-.58-2-1.72-2a5.75,5.75,0,0,0-2.64.88,1.6,1.6,0,0,1-.09-.61,2,2,0,0,1,.2-.9,7.44,7.44,0,0,1,2.95-.63c2,0,2.83.95,2.83,3.42v3.49a1.66,1.66,0,0,0,.24.94,5.68,5.68,0,0,0,1.25-.22.79.79,0,0,1,0,.2,1.86,1.86,0,0,1-.19.81,4.55,4.55,0,0,1-2,.52,1.92,1.92,0,0,1-.76-1.36Zm0-2.76a6,6,0,0,0-1.27-.14c-1.41,0-2.21.63-2.21,1.58a1.46,1.46,0,0,0,1.65,1.44,2.3,2.3,0,0,0,1.83-.88Z"/><path class="cls-1" d="M212.64,454.86a2.43,2.43,0,0,1,2.36-1.93,2.6,2.6,0,0,1,.81.14,2.31,2.31,0,0,1,.23,1.08,1.85,1.85,0,0,1,0,.49,2.47,2.47,0,0,0-1.23-.31,2.24,2.24,0,0,0-2.08,1.48v4.83a8.77,8.77,0,0,1,1.79.32,2.54,2.54,0,0,1,0,.83H209.7A2.25,2.25,0,0,1,210,461a6.31,6.31,0,0,1,1.16-.34v-6.4h-1.32a2.11,2.11,0,0,1,.32-.95,4.9,4.9,0,0,1,1.5-.25,2.82,2.82,0,0,1,.85.11v1.71Z"/><path class="cls-1" d="M218.38,461.61a1.31,1.31,0,0,1-.87-1.28,1.87,1.87,0,0,1,1-1.53v-.09a2.82,2.82,0,0,1-1.15-2.56,3.19,3.19,0,0,1,3.47-3.22,4.13,4.13,0,0,1,2,.5,4.42,4.42,0,0,1,1.76-.34,2.55,2.55,0,0,1,.77.11,5.12,5.12,0,0,1,.15,1.08h-1.79a3.33,3.33,0,0,1,.52,1.87c0,2-1.3,3.21-3.45,3.21a4.89,4.89,0,0,1-1.47-.2,1.13,1.13,0,0,0-.27.74c0,.7,1,.83,2.63.83,2.09,0,3.7.45,3.7,2.37,0,2.16-2.1,3.22-4.54,3.22-2.13,0-4.07-.88-4.07-2.7a2.07,2.07,0,0,1,1.58-1.92Zm-.06,1.8c0,1.26,1.47,1.89,2.81,1.89s2.76-.63,2.76-1.86c0-.9-.68-1.35-2.55-1.35a9.57,9.57,0,0,1-2.06-.18A1.59,1.59,0,0,0,218.32,463.41Zm2.5-5c1.25,0,1.84-.88,1.84-2.25s-.7-2.25-1.84-2.25-1.88.83-1.88,2.25S219.64,458.4,220.82,458.4Z"/><path class="cls-1" d="M235,457.38c0,3-1.61,4.71-4.1,4.71-2.64,0-4.13-1.62-4.13-4.71,0-2.76,1.78-4.45,4.13-4.45S235,454.51,235,457.38Zm-4.1,3.63c1.66,0,2.46-1.4,2.46-3.63,0-1.93-1-3.39-2.46-3.39s-2.48,1.35-2.48,3.39S229.39,461,230.93,461Z"/><path class="cls-1" d="M241.27,454.08a2.89,2.89,0,0,0-1.07-.22c-.94,0-1.48.44-1.48,1.1,0,2,4.21,1.41,4.21,4.54,0,1.87-1.57,2.59-3.25,2.59a5.55,5.55,0,0,1-2.77-.68,4.29,4.29,0,0,1-.09-.86,5.19,5.19,0,0,1,.18-1.28,5.14,5.14,0,0,1,1.3.16v1.24a2.89,2.89,0,0,0,1.52.42,1.36,1.36,0,0,0,1.52-1.35c0-2.15-4.25-1.37-4.25-4.56,0-1.32,1.21-2.25,3-2.25a6.85,6.85,0,0,1,2.55.47,2.41,2.41,0,0,1,0,.55,5.79,5.79,0,0,1-.2,1.46,2.66,2.66,0,0,1-1.21-.27Z"/><path class="cls-1" d="M247.44,460.82a1.07,1.07,0,0,1-1.12,1.18,1,1,0,0,1-1.16-1.18,1.09,1.09,0,0,1,1.16-1.1A1,1,0,0,1,247.44,460.82Z"/><path class="cls-2" d="M196.74,173.16h15.64v16.39H46V173.44H60.71c.11-1.8.27-3.13.27-4.47q0-58,0-116c0-2.45.27-4.93-3.42-4.62v-7h71.09c-.57,2.63,2,5.86-2,7.78-.37.17-.43,1.26-.43,1.93,0,17.77,0,35.53,0,53.62h12.53v-83l58-16Zm-89.19-14.91c8.42,1.44,8.43,1.42,8.42-6.69q0-44.73,0-89.46c0-1.47-.14-2.94-.22-4.4h-8.2Zm38.25-123c0,3.59-.3,6.83.19,9.94.15.93,2.53,2.1,3.89,2.09,1.55,0,4.26-1,4.42-1.94.55-3.23.21-6.6.21-10.09Zm8.73,34.22c0-3.5.17-6.83-.05-10.13s-2.89-1.87-4.57-2-4-.91-4.08,2.07c-.09,3.29,0,6.6,0,10Zm9.3-11.61V69.39h8C172.84,56.06,173.34,56.59,163.83,57.9Zm-18,56h8.71a74.51,74.51,0,0,0-.17-9.87c-.12-.87-2.27-2.06-3.49-2.05-1.73,0-4.69-1.54-5,1.91C145.6,107.2,145.82,110.53,145.82,113.91Zm26.44.14c0-3.61.31-6.85-.18-10-.15-.93-2.49-2-3.91-2.12-1.61-.14-4.34-1.23-4.53,2s0,6.64,0,10.12Zm-8.7-78.71a88.4,88.4,0,0,0,.14,9.83c.1.86,2,2.22,3,2.15,1.89-.15,5,1.7,5.48-1.81.44-3.26.1-6.62.1-10.17Zm-9,123.22a81.4,81.4,0,0,0-.17-10.05c-.11-.86-2.26-2.1-3.42-2-1.73.07-4.71.91-4.87,1.83-.6,3.3-.24,6.77-.24,10.27Zm17.26,0c1-13,1.78-13.35-7.95-11.58v11.58ZM172,91.67V79.82h-8.11V91.67ZM154.27,79.94H146V91.62h8.26Zm0,44.55H146v11.66h8.26Zm9.57,0v12a36.65,36.65,0,0,0,6.08-.1,3.27,3.27,0,0,0,2.2-2.15c.26-3.15.11-6.32.11-9.72Zm26.16-55V57.73h-8.1V69.48ZM76.52,102.24H68.41v11.7h8.11Zm105.4-.1v11.78H190V102.14ZM76.31,158.63v-12H68.5v12Zm113.62-.09V146.61h-8v11.93ZM190,35.42h-8.14V47.18H190ZM68.45,57.61V69.36h8V57.61Zm8,34.1V80h-8V91.71ZM181.86,79.82V91.65h8.07V79.82ZM76.56,124.47h-8.1v11.58h8.1Zm113.45.09h-8.07V136.1H190Z"/><path class="cls-3" d="M184.71,143,200,134.16l-7.2,7.93,8.09-4.67c.17.29-8.67,8-8,9.17,0,0,5.43-5.29,6.36-3.67,0,0-6.27,4.48-5.72,5.43.29.5,6.13-6.06,7.22-4.17.61,1.06-9,9-8.7,9.6,0,0,6.19-3.81,6.29-3.63,0,0-4.76,2.47-4.09,3.62s7-4,7-4"/><path class="cls-3" d="M184.61,121s15.48-9.08,15.54-9c1.28,2.23-13.42,6.65-12.37,8.47.53.91,10.75-6.21,10.75-6.21L194,120.66l6.84-3.94c.33.56-6.75,9.06-6.56,9.4.83,1.42,5.29-4.71,6-3.47.07.13-8,5.36-7.26,6.55,0,0,5.25-4.9,6.06-3.5,0,0-6,3.85-4.87,5.73.54.94,5.21-5.46,6.27-3.62"/><path class="cls-3" d="M168.21,142.46c.74,1.27,15.64-11.29,16.62-9.59,0,0-17.79,5.92-15.86,9.26,2.44,4.24,14.71-12.27,16.34-9.43l-11.44,9.93c.73,1.26,15.37-15.74,18.35-10.59,0,0-17.85,9-15.34,13.33C177.17,145.87,200,132,200,132s-27.32,13.37-24.5,18.27c1.45,2.51,10.67-6.16,10.67-6.16,1.64,2.85-10.07,7-10.07,7,.74,1.29,8.09-7.05,9.12-5.27.36.63-12,5.72-10.85,7.77.37.64,10-5.76,10-5.76l-8.18,5.92s9.54-5.9,9.71-5.6"/><path class="cls-3" d="M184.42,98.69l16-9.23-9.53,7.69c1,1.7,9.23-5.33,9.23-5.33,1.11,1.93-8.93,4-7.51,6.46l8.17-4.72c.38.67-8.46,6-8.46,6l7-4-4.57,6.31c.46.79,5.59-3.68,5.79-3.34.73,1.28-6.59,7.64-6.59,7.64.39.69,5-2.87,5-2.87s-6.39,7-6.39,7c.72,1.26,6-4.2,6.33-3.66"/><path class="cls-3" d="M167.9,120.09l16.56-9.56c.24.42-15.77,10.08-15.77,10.08s18.89-11.33,19.07-11c1.76,3-17.12,11.6-17.12,11.6s17.74-14.46,19.57-11.29c0,0-15.71,13.81-15.3,14.52,0,0,21-19.28,24.12-13.93l-24.92,19.84c.4.7,9.54-7.37,10.34-6,.55,1-8.67,5.88-8.67,5.88.54.93,7.87-4.54,7.87-4.54.95,1.65-10,6.05-9.9,6.29.34.59,9.42-9.46,11.16-6.45"/><path class="cls-3" d="M150.19,143.57,170,132.12c1.76,3-11.86,11.77-11.61,12.2,0,0,23.76-22.81,27.7-16,1.87,3.24-27.75,17.34-27.75,17.34s25.78-15.44,26-15c0,0-31.08,12.76-26.86,20.07.56,1,8.34-4.82,8.34-4.82l-9,6.62c.14.24,10.12-8.74,11.38-6.57.41.72-10.07,8.23-10.07,8.23.45.78,8.86-8,10.1-5.83"/><path class="cls-3" d="M185.72,75.58c1.12,1.93,11.45-11.18,13.43-7.76,1.34,2.32-10.77,4.78-9.35,7.23l9.12-5.26-9.57,5.62c1.25,2.15,10.15-6.8,10.56-6.1l-8.54,6.07c.28.48,9.65-6,9.82-5.67,1,1.68-8.4,5.71-8.34,5.82L200.69,71l-7.36,4.84c.22.38,6.7-3.87,6.7-3.87,1.73,3-7.79,10.22-7.79,10.22.19.33,7.82-5,8-4.63,1.08,1.89-7.39,7.2-7.39,7.2l6-3.48-7.2,7.1s7.71-5.58,8.2-4.74"/><path class="cls-3" d="M167.27,98.39c2.07,3.59,19.46-11.24,19.46-11.24L168.84,98.09c.24.41,16.34-12,17.46-10.08l-11.58,12.13c3.93,6.8,24.39-14.08,24.39-14.08s-23.22,17.72-22.59,18.81c0,0,8.23-7.92,9.6-5.54,1,1.69-10.14,7.78-9.78,8.42,0,0,7.87-5.53,8.3-4.79l-9,6.88c.27.45,9.17-5.29,9.17-5.29"/><path class="cls-3" d="M149.81,120.3c2.93,5.07,17.1-9.87,17.1-9.87.42.74-9,10.34-9,10.34,2.83,4.9,27-15.59,27-15.59s-26.58,18.49-25.75,19.92c0,0,7.95-8,9.44-5.45,1.7,2.95-11.61,7.13-9.79,10.28,1,1.82,9-5.21,9-5.21.63,1.09-9.62,5.62-9,6.6,0,0,8.83-7.24,9.75-5.63"/><path class="cls-3" d="M184,54.53s16-11.7,17.07-9.85c.6,1-12.64,7.75-12.2,8.51.75,1.29,12-6.95,12-6.95,1,1.67-6.13,7.37-6.13,7.37.28.48,4.28-2.47,4.28-2.47l-6.79,5.13c.53.92,7.45-4.86,7.69-4.44,0,0-8.66,6.07-7.35,8.34.71,1.23,8.29-4.79,8.29-4.79,1.46,2.52-8.17,7-7.8,7.6,0,.07,8.12-4.68,8.12-4.68s-9,6.34-9,6.34,6.25-3.77,6.33-3.65c.85,1.48-7.56,3.22-6.49,5.07.77,1.34,7.16-5.33,7.67-4.43"/><path class="cls-3" d="M167.44,75.72c.52.9,15.17-13.78,17.35-10,2.77,4.8-19.51,8.36-18.15,10.72C169.34,81.1,184.83,61,187,64.7c1.22,2.11-12.71,10.77-12.71,10.77,1.58,2.73,17.17-13.7,18.81-10.86,3,5.13-20.36,10.58-19.82,11.52,0,0,15.35-15.54,18.24-10.53,0,0-20.51,5.34-17.65,10.29,1.43,2.48,17.68-10.45,17.78-10.27,2.3,4-18.46,8.68-17.54,10.28C174.07,75.92,193,65,193,65c1.85,3.21-19.33,11.41-19.33,11.41s16.11-14.62,18.42-10.64L173.73,77S199,60.39,199.9,61.92c2.73,4.74-26.6,14-25,16.81,3.38,5.86,23.05-20.42,26.13-15.09,3.42,5.94-28.27,11.92-26.07,15.74,3.62,6.27,23.48-13.56,23.48-13.56,4.21,7.3-24.29,19.09-24.29,19.09,1.37,2.38,8.86-6.22,9.34-5.4,1,1.79-9.79,5-9.32,5.8,1.53,2.65,11-8.16,11.75-6.79.57,1-10.27,8.72-10.27,8.72.43.74,9.8-5.65,9.8-5.65"/><path class="cls-3" d="M149.23,98.52c1.24,2.14,20-11.57,20-11.57s-14.2,9-12.48,12l26.85-15.51c1.46,2.53-28.31,15.29-26.54,18.35,3.71,6.44,28.66-16.55,28.66-16.55,2.3,4-32.88,13.09-28.29,21,1.44,2.49,8.85-5.12,8.85-5.12l-8.35,6.7c.48.83,6.77-5.13,7.29-4.22.94,1.62-8.4,5.36-7.83,6.35l9.77-5.64"/><path class="cls-3" d="M185.28,31.43s14.36-8.67,14.52-8.38l-12,8.05s11.41-7.79,11.93-6.89l-9.9,7.53s11.29-7.13,11.56-6.67c1.39,2.4-8.08,5.95-8.08,5.95.93,1.61,5-3.82,5.43-3.14l-4.09,3.78,6.47-3.73c.42.73-9.64,8.39-8.44,10.48,0,0,6.39-4.09,6.56-3.78,1.31,2.27-8.5,4.13-7.14,6.47L200,36.52c.74,1.28-6.37,3.34-5.73,4.45l6.3-3.64c1,1.72-7.65,3.75-6.72,5.37l5.9-3.41"/><path class="cls-3" d="M168.9,53s17.34-12.54,18.44-10.64-13.53,13.46-13.53,13.46l26.3-15.19S176.28,54.15,177,55.34c.46.79,23.59-13.62,23.59-13.62,2.08,3.61-24.84,12.83-24.12,14.08.43.75,22-12.72,22-12.72,4.28,7.42-24.3,17.22-24.3,17.22L185.05,54c.15.26-11.8,6.31-10.43,8.68L184,57.29l-10,7.22c.92,1.59,11-8.91,12.14-7L175.9,64.77c1.43,2.47,8.72-8,10-5.78"/><path class="cls-3" d="M149.34,76s16.38-14,18.35-10.6c0,0-10.95,10.41-10.8,10.66,2,3.51,28.73-16.75,28.8-16.63s-30.64,12.34-27.89,17.1c1.82,3.14,23-22.77,27.14-15.67.35.61-30.59,12.38-26.24,19.92,0,0,9.77-5.66,9.78-5.64,2.08,3.59-12,11.56-11.87,11.81,0,0,8.92-5.6,9.12-5.27,0,0-10.19,4.13-9,6.25l8.75-5.06"/><path class="cls-3" d="M166.72,31.5c5,8.68,33.47-19.32,33.47-19.32L176.7,31c3,5.18,22.21-12.82,22.21-12.82,1.88,3.25-25.8,16.17-24.12,19.07,0,0,22.88-17.91,24.91-14.38.58,1-25.65,13.17-24.84,14.56.63,1.1,10.64-6.14,10.64-6.14.49.85-10.17,3.95-9.11,5.77S185.17,32,185.17,32L173.6,43.73l11.49-6.63"/><path class="cls-3" d="M151.8,52.54s14.64-10.36,15.47-8.93c1.16,2-11,10.38-11,10.38s26.5-19,28.11-16.22c1.06,1.83-29,13.1-25.34,19.36l25-14.41S152.89,55.17,157.39,63c0,0,9.65-6,9.83-5.67.28.48-9.52,4.78-8.22,7,.85,1.48,6.91-4,6.91-4l-9.29,5.73,10-5.8"/><path class="cls-3" d="M150.42,30.61S191.54-9.91,198.8,2.67L150.65,32.08c3.95,6.83,48.58-30,49.45-28.55L156.86,32.42C160.65,39,195.74-.9,200.45,7.26S153.88,27.17,158,34.33c1.53,2.65,41.63-24,41.63-24L156.71,35.15c1.65,2.87,39.11-31.21,42.84-24.74,5.72,9.9-43,26.92-43,26.92s7.84-7.38,9.08-5.24c.83,1.45-10.23,9.7-9.75,10.54.79,1.36,8.38-8,9.73-5.62"/><path class="cls-3" d="M142,17.91c0,.05.48-.28.48-.28a31.85,31.85,0,0,0,.37,4.7l17-9.8s-19.55,10.12-17.7,13.34l26-15s-26.22,13.4-25.34,14.93c3.31,5.74,26.64-15.38,26.64-15.38L141.67,30,182.61,6.38c3.56,6.16-42.14,26.26-42.14,26.26S188.62,1.7,190,4.05c0,0-57,19.33-49.48,32.39,0,0,8.69-6.22,9.21-5.31,0,0-10,6.6-8.75,8.83,0,0,7.18-4.34,7.27-4.19l-6.53,4.9,8.15-4.7L142.33,45c.82,1.42,5.55-3.36,5.62-3.24s-5.73,5.7-5.3,6.44c0,0,8.75-7.71,9.9-5.71,2,3.44-14.32,7-12,11,1.09,1.89,27.25-15.74,27.25-15.74s-25.4,16.31-24.46,17.94C146.93,62,165.9,37.71,168.08,41.5c2.36,4.08-27,17-27,17,2.06,3.56,28.7-16.57,28.7-16.57,4.28,7.42-27.66,16.44-27.51,16.69l7-4c.37.64-8.19,8.55-8.19,8.55.18.31,5.28-5.56,6.36-3.67s-6.18,5.4-6.18,5.4c.64,1.11,5.28-5.19,6.21-3.59.16.29-4.44,3.59-4.44,3.59.55,1,5.91-3.42,5.91-3.42,1.07,1.85-8.28,6.77-7.1,8.81,1.07,1.87,7.09-4.09,7.09-4.09.16.28-9.73,4.34-8.17,7,0,0,10.16-9.91,11.92-6.88l-10.15,6s9-9.92,11-6.37c0,0-13.61,5.57-12.41,7.65,0,0,13.9-9.19,14.41-8.32,0,0-16.37,4.57-14.18,8.37,0,0,13.33-8.11,13.51-7.79L140.69,78.53s22.84-22.69,27-15.56c0,0-27.29,14-25.33,17.42,0,0,6.15-4,6.34-3.66,1.4,2.42-7.42,7-7.42,7l6.57-3.79s-7.88,2.75-6.92,4.41c0,0,7.28-6.56,8.3-4.8,0,0-8.46,2.53-7.28,4.59.58,1,7.14-5.46,7.72-4.46.43.76-6.43,5.2-6.12,5.74s4.74-4.61,5.55-3.2-7,4.74-7,4.74,4.7-5.44,5.88-3.39c.85,1.47-7.07,3.78-6.53,4.7.16.28,9.31-5.37,9.31-5.37l-7.44,7.21c1.07,1.84,4.35-2.52,4.35-2.52l-6.21,5c.72,1.24,9.74-5.62,9.74-5.62L142.1,93.6c.56,1,10.75-6.83,11-6.36.63,1.09-12.56,10.48-12.56,10.48l27.11-15.65c4.62,8-30.64,12.71-27.18,18.71,1.15,2,23.14-17.9,25.11-14.49l-23.33,14.13c2.38,4.13,19.41-20.64,23.49-13.56"/><path class="cls-3" d="M110.44,54c2.2,3.81,22.36-12.9,22.36-12.9s-18.36,9.73-16.38,13.15c.51.88,13-10.59,14.35-8.29,0,0-14.89,6-12.6,10,0,0,11.07-9.7,12.5-7.22,0,0-12.37,7.34-10.32,10.88.05.09,7.64-5.28,8-4.63l-9,10.57,9.13-5.27c.79,1.37-10.84,11-10.84,11L130.22,64c.52.89-12.47,10.11-12.47,10.11,1.59,2.75,10.13-5.85,10.13-5.85L118,76.43c.35.62,10.83-6.25,10.83-6.25s-9.79,11.1-9.7,11.26c0,0,8.64-6.39,9.24-5.34,0,0-8.66,6.75-8.58,6.89,1.14,2,10-7,10.47-6,2.07,3.59-12.18,10.7-12.18,10.7,1.47,2.54,11.88-7.86,12.31-7.11,0,0-12.85,8.86-11.58,11.07,0,0,11.08-8.74,12.09-7,.68,1.18-11.68,6-10.7,7.7,1.29,2.23,8.67-5,8.67-5,.15.27-10.77,9.48-10.77,9.48.17.3,12.27-7.37,12.39-7.15,0,0-10.5,6.74-10.43,6.87.84,1.45,10.39-6,10.39-6,.19.34-12.45,8.37-12.45,8.37,1.63,2.83,12.63-7.53,12.73-7.35,0,0-12.5,11.78-12.27,12.17l10.4-6c1.32,2.29-8.63,9.83-8.63,9.83.74,1.29,11.49-6.64,11.49-6.64s-15.91,4.32-13.67,8.2l13.81-8s-14.08,7.07-12.61,9.61c1.14,2,17.75-10.25,17.75-10.25s-19.87,9.33-18.28,12.09c0,0,17.23-15.18,19.49-11.25,0,0-19,11.35-17.44,14,0,0,27.91-17.21,28.39-16.39,0,0-33.92,9.2-29.11,17.53,0,0,26.28-23.18,29.75-17.17,1.73,3-33.53,12.81-30.53,18,3.76,6.52,27.6-20.66,29.65-17.12,4,7-29.32,22.48-29.32,22.48,2.71,4.69,30.62-17.67,30.62-17.67,1.09,1.89-32.32,23.11-32.32,23.11.39.68,32.07-20.38,32.87-19l-31.12,22.71s35.07-30.29,39.42-22.76l-38.74,26.31c2,3.5,46.19-26.67,46.19-26.67,7.16,12.41-47.42,30.35-47,31.1,0,0,24.46-25.27,29.28-16.9,0,0-31.61,15.66-29.4,19.49,0,0,24.55-23.82,28.73-16.58l-30.25,21.11s28.38-21.39,30.55-17.64c0,0-31.72,19-29.91,22.1,0,0,31.66-21.7,33.14-19.14,2,3.45-32.63,20.12-32,21.21,0,0,32.46-32.32,38.35-22.14"/><path class="cls-3" d="M49.21,169.62c0,.06.24-.16.25-.15.24.43-.5,2-.17,2.57.6,1,3.06-1.77,3.06-1.77.52.91-2,3.44-2,3.44s7.46-5.23,7.86-4.53c1.14,2-7.56,8.14-7.56,8.14S99.45,126,109.49,143.37L49.82,179.21l62-35.79c2.2,3.81-61,37-61,37l60.43-34.89c8.31,14.4-63.45,38.63-63.45,38.63,4.89,8.47,62-36.73,62.44-36.05,0,0-64.77,32.84-62.31,37.1l62.54-36.11c8.52,14.76-56.54,34.07-55.24,36.32l55.88-32.26c1.44,2.49-51.56,23.44-46.71,31.85,5.84,10.12,47-38.66,52-30,1.53,2.64-45.7,30.32-45.7,30.32,1.08,1.88,97.67-56.39,97.67-56.39.23.39-90.9,53.35-89.27,56.17,6.41,11.1,69-39.85,69-39.85s-68.93,25-60.37,39.84c7,12.13,61.93-37.54,62.71-36.2l-55.8,37.3s51.85-38.65,55.63-32.11c0,0-51.76,29.8-51.34,30.53l51-29.44s-47.1,29.93-46.41,31.11L168.13,149S101.24,173,108.66,185.89c3.58,6.2,52.62-44.82,58.87-34l-52.09,33c2,3.55,52.14-30.1,52.14-30.1,5,8.76-49.24,30.09-49.24,30.09,1.75,3,52.44-30.27,52.44-30.27,2.41,4.17-50.38,26.12-48.09,30.09,8.25,14.29,46.47-38.39,51.48-29.72C181.9,168.34,125,186.31,125,186.31s55.4-40,58.89-34c3.24,5.61-57.18,26.61-53.69,32.66l54.36-31.39c8.06,14-53.84,32.35-53.84,32.35l53.34-30.8-47.59,29.51c2.09,3.62,51.33-29.64,51.33-29.64S139.21,183.9,140,185.19c0,0,51.69-33.09,53.1-30.65,0,0-55.47,23.34-51.53,30.17,5.28,9.15,51.79-47.47,59.4-34.3,1.36,2.36-56.15,35.73-56.15,35.73s50.29-39.56,54.84-31.66c0,0-52.75,29.26-51.48,31.46.22.38,50.91-29.39,50.91-29.39l-41,29.4,41.32-23.85-32.61,23.16c.55.93,28.57-25.33,32.39-18.7,2.37,4.1-31.82,16.07-30.57,18.25l31.53-18.2c2,3.49-30.33,18.48-30.33,18.48,4.71,8.14,27.52-24.94,31.44-18.15,3.57,6.17-31.94,10.26-27.18,18.5,1.34,2.33,25.77-16.78,26.6-15.36,1.37,2.38-30.34,9.48-26.46,16.2,3.61,6.27,30.58-17.65,30.58-17.65.19.34-26.7,16.15-26.59,16.34.74,1.29,27.5-16.55,27.8-16.05,3.34,5.79-27.37,15.89-27.37,15.89,1.31,2.27,28.62-16.52,28.62-16.52,1.32,2.3-21.45,17.61-21.45,17.61,2.9,5,23.35-24.18,28-16.16,0,0-20.9,14-20.36,15,1.24,2.14,21.54-12.44,21.54-12.44S199,185.46,199.25,185.9c.55,1,15.62-10.94,16.45-9.5l-12.61,8.52c2.06,3.56,9.91-10.08,11.8-6.81,1.2,2.09-9.06,5.56-7.93,7.51.7,1.23,9.9-6,10-5.77s-2.62,4.7-2.1,5.61c0,0,.71-.44.73-.42s-.41.5-.4.51,0,0,0,0"/><path class="cls-3" d="M71.31,143s37.08-28.66,40.22-23.22l-36,22s31.56-24.39,34.23-19.76c4,6.88-32.11,20.44-32.11,20.44.65,1.12,32.79-18.93,32.79-18.93,1.49,2.58-35.56,15.64-32.3,21.29,2.69,4.66,31.12-18,31.12-18s-29.07,19-28.68,19.71c0,0,28.47-20,30-17.33C111,130,81,150.94,81,150.94l29.77-17.18S77.9,153.5,78,153.74s29.16-25.83,33.06-19.08c1.72,3-38.23,11.83-33.09,20.74,1.35,2.34,32.56-18.8,32.56-18.8"/><path class="cls-3" d="M71.18,120.89l40.47-23.37c4,7-31.41,22.69-31.41,22.69,2.86,5,29.21-19.28,30.26-17.46,1.7,3-33.57,11.39-29.64,18.2,3.53,6.1,28.76-22,31.08-17.94,0,0-34.2,17.28-33,19.4l32.9-19c4.44,7.68-35.62,16.45-33.43,20.24,4.89,8.47,28-27.35,32.82-19,0,0-30.24,21.74-30.17,21.86s27.08-19.77,28.88-16.67c3,5.29-32,15.1-28.56,21.11,4.71,8.17,26.61-19.41,28.36-16.38"/><path class="cls-3" d="M71,98.7c2.19,3.79,40.74-23.52,40.74-23.52,1,1.65-38.11,20.25-36.44,23.15l36-20.76L75.07,98.77l35.26-20.36C112.13,81.52,79.55,100,79.55,100l31.83-18.38c2.93,5.06-36.07,16.13-32.1,23,3.24,5.61,32.7-18.88,32.7-18.88S80,106.44,80.89,108l28.28-16.33-27.85,17.2,30.29-17.49"/><path class="cls-3" d="M72.57,75.58s52.24-46.26,59.21-34.18c1.95,3.38-61.34,18.82-52.34,34.41,0,0,27.08-22.07,29.87-17.24,0,0-36.19,13.17-30.75,22.58,1.35,2.35,32.53-18.78,32.53-18.78,4.31,7.47-31.88,16-30.66,18.14l30.21-17.44c.55,1-30.18,21.45-30.18,21.45.77,1.32,27.34-24.25,31-17.9,4.81,8.32-33,15.43-30.9,19,0,0,27.87-22.34,30.57-17.66,0,0-32.34,13.67-30,17.76,2.2,3.8,28.87-19.41,30.06-17.35,0,0-32,17.67-31.21,19l31.71-18.31"/><path class="cls-3" d="M72.44,53.28,99.68,37.56,74.36,53.92c2.85,4.93,26.54-18.52,27.93-16.12,3.42,5.92-22.7,17.12-22.7,17.12,4.16,7.22,27.91-18.77,29.06-16.78L81.11,58l35-20.23L78.19,61.46l43.13-24.9c4.36,7.57-44.66,18.07-40.86,24.65C87.21,72.9,121.3,37.62,121.3,37.62c5.48,9.5-40.14,26.78-40.14,26.78l46-26.53"/><path class="cls-3" d="M60.87,37.6s.25-.14.25-.14c.83,1.43-1.84,5.85-1.72,6,0,0,10.58-6.33,10.68-6.16.59,1-7.17,5-6.14,6.75,0,0,9.87-10.24,11.84-6.83,2.07,3.58-13,9.15-13,9.15,1.05,1.83,12.38-12,14.46-8.35L63.56,51.32S86,37,86.59,38c1.3,2.25-24.37,9-21.77,13.47C68.56,58,88,38.13,88,38.13c.21.38-22.33,15.45-22.33,15.45,2,3.36,29-16.72,29-16.72C98,42.81,63.86,57,63.86,57S95.25,36.51,96.29,38.31L63.77,58.21c.16.28,7.34-4.24,7.34-4.24L64.92,57.6c.62,1.07,6.76-3.9,6.76-3.9l-6.42,5.15,6.28-3.63c.71,1.22-7.35,5.18-7,5.86s7.88-4.55,7.88-4.55c.28.47-9.92,3.54-8.74,5.57l7-4.05L64,66c1,1.81,6.54-6.47,7.71-4.45.91,1.57-8.59,5.83-8.36,6.22,0,0,9.39-5.62,9.48-5.47.54,1-9.85,7.2-9.85,7.2.57,1,9.95-5.74,9.95-5.74L64,70.29l8.4-4.85S65.3,71.32,65.69,72c1.28,2.22,11-10.86,13-7.5C79.55,66,61.85,71.36,63.4,74c.48.84,14-11.61,15.55-9l-13.27,10s60-48.68,66.1-38.17c0,0-73.57,32.48-67.95,42.22C74,96.76,129.46,37.5,131.08,40.31c11.5,19.92-68,42.25-68,42.25.8,1.4,8.36-5.29,8.56-4.94L65.77,83l5-2.92c1.58,2.74-8.41,7.58-7.71,8.8,0,0,8.55-5.71,8.88-5.13.15.26-6.3,4.66-6.3,4.66s5.7-3.69,5.87-3.4L65.3,92.51c.71,1.23,6.45-6.1,7.48-4.32.63,1.1-10.06,9.24-10.06,9.24S79.63,86.05,80.33,87.26c2.2,3.8-17.3,8.85-15,12.8,7.32,12.67,45.84-26.47,45.84-26.47,2.37,4.1-46.05,30.48-46.05,30.48,1.22,2.1,6.31-3.64,6.31-3.64s-9.17,6.2-8.25,7.8c.17.3,6.21-5.49,7-4.06,1.12,1.94-8.48,6.32-7.19,8.55.92,1.61,10-5.77,10-5.77s-9.31,4.92-8.76,5.87l6.7-3.87s-7.24,7.41-6.2,9.21c1.49,2.58,14.09-10.31,15-8.68,0,0-18.75,9.44-16.55,13.26l46.94-27.1c4.43,7.69-47.6,31.27-47.17,32,0,0,6.81-6.34,7.86-4.53,0,0-7,6.18-5.49,8.74.35.62,5.6-6,6.79-3.92l-8.45,9.42c1.28,2.22,9.53-5.5,9.53-5.5l-7.65,4.64c.11.19,6.83-3.94,6.83-3.94s-7.32,3.49-6.93,4.17c1,1.73,8.09-4.67,8.09-4.67l-8.74,7.27s13.36-9.13,14-8.07c1.15,2-13.26,11.24-13.26,11.24S105.3,104.13,112,115.7L63.71,145l48-27.73c.14.24-46.13,31.36-46.13,31.36.46.79,5.64-3.26,5.64-3.26,1.19,2.06-8.68,7.49-8,8.74,0,0,7.08-4.67,7.33-4.23l-6,4.14c.22.38,7.66-4.43,7.66-4.43,1,1.72-7.57,4.71-7.57,4.71.18.31,6.06-4,6.28-3.62,0,0-7.38,8.35-7,9.09,0,0,8.27-5,8.37-4.83,0,0-11.37,7.55-9.66,10.51,1.87,3.24,46.32-31.66,48.45-28,4.27,7.39-50.11,24.9-47.08,30.15,0,0,40.64-38.57,47.18-27.24,0,0-55.07,17.77-48.31,29.47,5.41,9.37,48.43-29.9,49.27-28.44"/><path d="M62.6,244.42H49.71v-3l6.21-4.63c1.55-1.16,2.13-2.13,2.13-3.27a2.05,2.05,0,0,0-2.28-2.08c-2,0-2.86,1.23-2.86,3l-3.7-.7c.09-3.66,2.49-6,6.63-6,4.32,0,6.38,2.55,6.38,5.43,0,2-.68,3.73-3.35,5.6l-3.12,2.15H62.6Z"/><path d="M78.82,244.42H65.92v-3l6.21-4.63c1.55-1.16,2.13-2.13,2.13-3.27A2.05,2.05,0,0,0,72,231.41c-2,0-2.86,1.23-2.86,3l-3.7-.7c.09-3.66,2.49-6,6.63-6,4.32,0,6.38,2.55,6.38,5.43,0,2-.68,3.73-3.35,5.6L72,240.88h6.86Z"/><path d="M99.78,243a8.55,8.55,0,0,1-5.38,1.72c-4.78,0-7-2.88-7-6.64a6.46,6.46,0,0,1,6.74-6.71c3.85,0,5.69,2.37,5.69,5.28a11.17,11.17,0,0,1-.26,2.42H91.49a2.83,2.83,0,0,0,3.15,2.43,6.82,6.82,0,0,0,3.63-1.21Zm-3.44-6.78c0-1-.68-1.75-2.18-1.75a2.46,2.46,0,0,0-2.6,2h4.78Z"/><path d="M107,231.75V233a5.26,5.26,0,0,1,3.83-1.5c2,0,3.3.7,4,2.15a5.17,5.17,0,0,1,4.36-2.13c3.27,0,4.61,2.5,4.61,5.6v3c0,.63.12,1.17.72,1.17a3.22,3.22,0,0,0,1.24-.34l.17,3.22a9,9,0,0,1-3,.53c-2,0-3.15-1-3.15-3.58v-3.27c0-1.63-.75-2.52-2.14-2.52a2.34,2.34,0,0,0-2.13,1.35v7.78h-4.07v-6.64c0-1.6-.7-2.49-2.11-2.49a2.43,2.43,0,0,0-2.23,1.4v7.73H102.9V231.75Z"/><path d="M129.17,249V236.11c0-.68-.12-1.16-.78-1.16a2.45,2.45,0,0,0-1.23.34L127,232a8.66,8.66,0,0,1,3-.53,2.73,2.73,0,0,1,2.91,1.72,4.7,4.7,0,0,1,3.88-1.7c3.46,0,5.86,2.74,5.86,6.59s-2.4,6.54-5.86,6.54a5.14,5.14,0,0,1-3.59-1.31V249Zm4.07-13v4.24a3.85,3.85,0,0,0,2.42.9,3,3,0,0,0,0-6.06A3.65,3.65,0,0,0,133.24,236Z"/><path d="M146.62,236.11c0-.65-.12-1.16-.78-1.16a3.17,3.17,0,0,0-1.23.31l-.13-3.2a7.75,7.75,0,0,1,3-.53,2.75,2.75,0,0,1,3,1.87,3.16,3.16,0,0,1,3.07-1.87,3.75,3.75,0,0,1,2.26.61l-.51,3.7a4.66,4.66,0,0,0-2.43-.55c-1.5,0-2,1.21-2.15,2.52v6.61h-4.07Z"/><path d="M169.47,243a8.55,8.55,0,0,1-5.38,1.72c-4.78,0-7-2.88-7-6.64a6.46,6.46,0,0,1,6.74-6.71c3.85,0,5.69,2.37,5.69,5.28a11.17,11.17,0,0,1-.26,2.42h-8.12a2.83,2.83,0,0,0,3.15,2.43,6.79,6.79,0,0,0,3.63-1.21ZM166,236.26c0-1-.68-1.75-2.18-1.75a2.46,2.46,0,0,0-2.6,2H166Z"/><path d="M181.29,235.7a8.51,8.51,0,0,0-3.78-1c-.82,0-1.52.24-1.52.85s.31.65,1,.85l2.25.6c2.3.63,3,1.87,3,3.59,0,2.45-1.94,4.09-5.28,4.09a11.42,11.42,0,0,1-5-1.09l.75-3.17a9.38,9.38,0,0,0,4,1.19c.94,0,1.5-.2,1.5-.75s-.49-.63-1.28-.85l-2-.56c-2.06-.61-3.07-1.75-3.07-3.66,0-2.52,2.2-4.24,5.74-4.24a13.26,13.26,0,0,1,4.72.92Z"/><path d="M198.08,240.08c0,.63.17,1.17.78,1.17a2.72,2.72,0,0,0,1.21-.34l.15,3.22a8.78,8.78,0,0,1-3,.53,2.71,2.71,0,0,1-2.89-1.81,5,5,0,0,1-3.87,1.79c-3.47,0-5.84-2.71-5.84-6.52s2.37-6.59,5.84-6.59a4.74,4.74,0,0,1,3.58,1.33v-1.11h4.07ZM194,236a3.63,3.63,0,0,0-2.42-.92,3,3,0,0,0,0,6.06,3.78,3.78,0,0,0,2.42-.92Z"/><path d="M211.51,235.7a8.51,8.51,0,0,0-3.78-1c-.82,0-1.53.24-1.53.85s.32.65,1,.85l2.26.6c2.3.63,3,1.87,3,3.59,0,2.45-1.94,4.09-5.29,4.09a11.5,11.5,0,0,1-5-1.09l.75-3.17a9.47,9.47,0,0,0,3.95,1.19c1,0,1.51-.2,1.51-.75s-.49-.63-1.29-.85l-2-.56c-2.06-.61-3.08-1.75-3.08-3.66,0-2.52,2.21-4.24,5.75-4.24a13.26,13.26,0,0,1,4.72.92Z"/></g></g></svg>