<svg xmlns="http://www.w3.org/2000/svg" viewBox="0 0 252.76 395.22"><defs><style>.cls-1{fill:#f8e2e2;}.cls-2{fill:none;stroke:#ee6a5a;stroke-linecap:round;stroke-linejoin:round;stroke-width:0.5px;}.cls-3{fill:#fff;}.cls-4{fill:#333;}</style></defs><title>leyes</title><g id="Layer_2" data-name="Layer 2"><g id="Layer_1-2" data-name="Layer 1"><path class="cls-1" d="M63.73,3.18,195.5,7.57a2.3,2.3,0,0,0,.44.23c3.88,1.16,5.68,3.65,5.55,7.65L196,180.25a6.92,6.92,0,0,1-7.49,7.08c-2.06-.05-4.12-.13-6.17-.2L68.67,183.35c-4.73-.16-7.46-3.09-7.31-7.79q2.55-76.24,5.08-152.47c0-.35,0-.7,0-1a6.67,6.67,0,0,1,2.57-4.95,7.57,7.57,0,0,1,5.2-1.51q24.73.86,49.47,1.66,32.88,1.09,65.77,2.21a2.37,2.37,0,0,0,2.13-.94c1.85-2.23,3.77-4.39,5.66-6.59.16-.19.29-.42.51-.74C166,10.25,71.69,7.39,68.52,7.36c-3.93,0-7.85.08-11.32,2.4a6.62,6.62,0,0,1,4.54-6C62.39,3.54,63.06,3.38,63.73,3.18Z"/><path class="cls-1" d="M71.6,184.9A12,12,0,0,1,61,174.25c0-.21,0-.42,0-.63-.1-3.86-.27-7.73-.27-11.59q0-73.24,0-146.49V14.38C64,16.89,67.91,17,72.07,17.26c-2.86.91-4.63,2.53-5.3,5.18a7.27,7.27,0,0,0-.2,1.86q0,76.82,0,153.61C66.56,181.34,68.3,183.51,71.6,184.9Z"/><path class="cls-1" d="M101.42,211c-.43-.29-.74-.48-1-.69-3.13-2.16-6.26-4.29-9.36-6.49a1.16,1.16,0,0,0-1.69,0c-3,2.42-6,4.79-9,7.17-.26.21-.54.4-.91.68l-.81-23.59,22-.75Z"/><path class="cls-2" d="M62.56,15.14c.16.27,1.09-1,1.25-.72.06.1-2.67,1.18-2.39,1.67,0,0,5.3-3.68,5.56-3.22.65,1.12-6.3,4.6-5.88,5.32.22.39,7.51-6.48,8.44-4.87,1.15,2-9.27,5.57-8.61,6.71,0,0,10.24-5.91,10.24-5.91,1.79,3.1-12.14,4-10.66,6.53,0,0,9.31-10.31,11.44-6.61S60.14,23,60.14,23s14.38-13,16.42-9.48c1.87,3.25-15.37,11.09-15.37,11.09L81.3,13c1.16,2-19.67,11.45-19.67,11.45s17.89-13.2,19.13-11.05C84.18,19.3,60.27,27,60.27,27c2.95,5.11,22.95-17.53,24.8-14.32L59.41,28.34C61.27,31.57,85,13.57,85,13.57L60.05,29.86,88.2,13.61,61.8,28.89l26-15C92.19,21.48,60,31.43,60,31.43S89.68,9.28,91.85,13c4.92,8.52-34,12-30.35,18.47C62.3,32.89,90,5.3,94.25,12.59c0,0-35.5,16.85-33.24,20.77C64.27,39,94.76,13.88,94.76,13.88c2.13,3.68-34.59,22.23-34.59,22.23C61.23,37.94,98,6.74,101.24,12.4,102.52,14.61,59,32.09,61.68,36.83c2.28,3.94,40.38-24.24,40.78-23.55L60.63,39.21S103.1,9.49,105.35,13.38c7.72,13.38-46.94,26.4-45.71,28.53l49.63-28.66S54,31,61,43.13c0,0,49.63-36,52.79-30.47,0,0-61.21,18-53.11,32L114,13.83,61.46,45.73s52.92-38,56.15-32.42c9.2,15.93-56,34.48-56,34.48S111.51-3,121,13.47c3.64,6.3-67.17,22.87-59.33,36.44,7.5,13,55.28-48.85,62.62-36.15,0,0-65,33.7-63.31,36.71,3.46,6,59.76-44.08,63.91-36.9,6.71,11.63-63.59,37.59-63.59,37.59S123,8.66,126,13.85c.76,1.32-64.88,37.82-64.88,37.82S118-4.29,128,13L59.59,53.52C69.56,70.8,128,14,128,14L60.68,53.43c11.59,20.06,70.64-40.79,70.64-40.79S52.59,40.37,60.74,54.5C71,72.19,132.32,13.17,132.32,13.17c3.1,5.37-72.12,43.62-72.12,43.62,11.52,20,67.58-59,76.22-44C146,29.37,61.9,56,61.9,56s66.38-57.8,74.82-43.19c0,0-79.74,41-76.95,45.86C66.78,70.82,138,13.52,138,13.52s-88.25,24-76.09,45.09c0,0,78.28-45.53,78.43-45.28,1.1,1.91-80.27,47.94-80.27,47.94C70.88,80,143.36,13.19,143.36,13.19,153.07,30,58.94,60.31,60.55,63.1c10.51,18.21,79.13-58.91,84.86-49,11.09,19.2-84.33,50.1-84.33,50.1l88-50.77C157.6,28.3,47.82,41.6,61.9,66c0,0,90.43-57.6,92.77-53.56,2.16,3.74-94.77,56.84-94.77,56.84,8.65,15,98.34-56.77,98.34-56.77,9.29,16.1-97.21,58-97.21,58L161.28,12.61,59.63,71.49s85-86.43,101.17-58.42c8.65,15-101,57.79-100.53,58.54C73.68,94.83,161,13.43,161,13.43c4.1,7.11-106.9,46.25-100,58.24,17,29.46,91.41-74.06,100.63-58.1,0,0-109.75,41.19-99.77,58.48,7.56,13.08,87.42-81.46,100.84-58.22L62,73C68.9,84.93,166.72,12.6,166.72,12.6S45.25,44.52,62,73.51c7.43,12.87,105.9-61.14,105.9-61.14.56,1-106,63.29-106,63.29l107.4-62C175.52,24.38,59.81,79.05,59.81,79.05s98-90.6,112.75-65.1c18,31.2-112,65.84-112,65.84,15.66,27.14,116.19-67.08,116.19-67.08C186.91,30.32,61.19,81.08,61.19,81.08s101-98.85,118.54-68.44c10.68,18.5-123.6,64.63-120,70.85L182.06,12.86c2.55,4.41-120.75,70.78-120.75,70.78,9,15.64,103.42-104.53,122.83-70.91,2.19,3.8-124.87,73.79-124.87,73.79L194.57,8.4,59.2,87.15C72,109.37,195.05,8.72,195.05,8.72c2,3.53-134.52,78.59-134.52,78.59C73.74,110.19,193.26,6.6,195,9.66,205.16,27.21,56.83,85.43,59.54,90.12L195.75,11.48C206.42,30,52.73,75.84,61.52,91.06,75.89,116,188.5.87,195.81,13.53c0,0-138.53,72.22-134.6,79,19.59,33.93,135.28-78.1,135.28-78.1C211,39.53,60,94.11,60,94.11S182.68-3.25,194.17,16.65c18.88,32.7-146.7,54.51-132.71,78.74,0,0,115.73-107.39,133.3-77,21.41,37.09-153.44,49-135.85,79.46.6,1,127.21-96.35,137.13-79.17,5.78,10-135.41,79.53-135.41,79.53.82,1.42,115.64-113.5,135.88-78.45C218.63,58.12,47.44,78.6,59.74,99.91c3.41,5.91,134.11-77.42,134.11-77.42L60.26,101.91S177.14-10.54,196.61,23.18c6,10.38-141.19,69.25-135.6,78.93,17,29.46,132.74-76.64,132.74-76.64,14,24.26-133.54,78.78-133.54,78.78C71.07,123.07,178.08-6.2,196.44,25.6c13,22.45-137.55,80.56-137.55,80.56l137-79.11C204.3,41.59,48,82.69,61,105.12c12.33,21.37,134-77.35,134-77.35,21.95,38-134.67,79.74-134.67,79.74S189.38,22.15,194.07,30.27L59.57,110C82,148.83,184,9.88,196.29,31.11l-135,78.15s123.61-94.4,133.58-77.12c0,0-136.15,76.54-134.66,79.11L194.41,33.73C202,46.83,60.12,113.56,60.12,113.56,80,147.93,181.47,14.69,194,36.29,210.44,64.86,44.85,85.35,61.5,114.18,80.16,146.5,183.81,13.82,196.69,36.13c22.59,39.13-137.31,81.4-137.31,81.4S189.76,32.07,194.17,39.71L59.14,118s118.93-105.76,135-77.94c12.76,22.09-133.69,77.4-133.69,77.4,6.11,10.58,134.4-77.6,134.4-77.6,2.76,4.78-152,45.06-133.32,77.46L194.21,40.71c.61,1-133,77.47-133,77.47C73,138.52,194.76,41.1,194.76,41.1L59.28,120.67,195.83,41.84,59,122.14c22.13,38.32,121-107.75,137.43-79.34,0,0-150.31,56-136.12,80.62C70.54,141.07,175.14,12.41,194.51,46,194.51,46,43,93.06,61,124.23c0,0,116.88-105.35,133.28-76.95,11,19-132.49,77.45-132.49,77.45,5,8.7,110.64-115.84,133.14-76.86,0,0-155.09,39.48-133.37,77.11,14,24.21,134.89-77.88,134.89-77.88,5.24,9.07-143.78,65.44-135.74,79.37C76.14,153.27,183,24.78,196.42,48.1,207.93,68,41.31,96.16,59.84,128.25,70.94,147.48,188.33,37.74,195.4,50c3.48,6-152,48.14-134.12,79L194.09,52.34S38.56,95.81,59.46,132c6.32,11,119.28-103.35,134.21-77.49,0,0-153.42,45.29-134.51,78L193.75,54.86C206.4,76.77,59.09,134.15,59.09,134.15c13.3,23,128.45-94.71,137.34-79.3L59.75,134.54c12,20.87,117.19-110.68,135.82-78.41,2.53,4.38-133.71,78.93-133.71,78.93L195.51,57.89,62,135.56s115.51-108,133.39-77c14.9,25.81-135.25,79.8-135.25,79.8,15.28,26.46,135.13-78,135.13-78S51.77,123,60.5,138.14l134.06-77.4c16.73,29-156,41.1-134.4,78.5,13.65,23.63,133.68-77.18,133.68-77.18,10.56,18.29-132.33,78-132.33,78s113.61-114,134.57-77.7c14.3,24.77-135.92,79.39-135.92,79.39,14.43,25,133.52-77.09,133.52-77.09,12.73,22-139.17,69.49-134,78.37,0,0,115.42-110.1,134.24-77.51,0,0-150.57,50.07-134.53,77.84,0,0,135.54-81.6,137-79.09L59.94,144.18S188.37,56,194.46,66.52L60.9,145.81S177.32,35.54,196,67.83c0,0-143.11,62.52-134,78.23,0,0,127.91-89,134.48-77.64l-134.53,79S185.72,52.14,196,70c12.75,22.09-147.94,56.87-134.83,79.58,3.83,6.64,129.9-85.92,134.63-77.73,5.82,10.09-134.6,79.09-134.6,79.09l135.18-78s-146,59.47-135.12,78.26c6.36,11,132.85-76.7,132.85-76.7C204.8,92.91,57.26,147.15,60.78,153.25L196,75.21C209.5,98.65,60,155.2,60,155.2,71.38,174.88,187.76,63.85,195.38,77c3.58,6.2-133.76,78.42-133.76,78.42,11.58,20.06,118-103.88,133.51-77.08,0,0-137,73.57-133.95,78.81L193.72,80.66S59,152.9,62,158.23c4.66,8.07,129.4-84,133.41-77l-134.6,80s112.74-112.74,133.37-77C208.73,109.36,59.5,160.56,61,163.11c17,29.49,135-78,135-78,22.66,39.25-159.48,41-136.95,80,0,0,125.93-97.63,136.72-78.93,0,0-144.7,65.32-136.71,79.15,0,0,112.55-116.17,134.71-77.78,16,27.65-134,77.61-134,77.61,9.88,17.12,130.75-85.75,135.19-78.06L60.34,165.91,196.53,87.28s-148.34,59.11-136,80.44L196,89.51C209.87,113.58,58.88,170,58.88,170s117.9-108,135.19-78c20.48,35.49-144,61.54-133.87,79L195.08,93.15c21.37,37-134.2,78.6-134.2,78.6C72.45,191.79,193.79,95,193.79,95,201,107.51,60.05,173.35,60.05,173.35c10.1,17.49,135.14-78,135.14-78,14.65,25.37-143.09,63.25-134.38,78.33L193.63,97c12.24,21.18-153.79,43.41-133.88,77.89C67.34,188,191.33,90.07,195.14,96.68c21,36.43-133.9,78-133.9,78,20.32,35.18,129.34-82.9,132.9-76.73,0,0-134.29,75.54-133.35,77.18C67.88,187.38,180.84,73.05,195,97.61c10.26,17.78-142.73,62.17-133,78.94L194,100.3C212.12,131.64,61.9,176.65,61.9,176.65c18.41,31.87,132.46-76.6,132.51-76.51,15.27,26.45-134.08,77.72-134.08,77.72s114-110.52,133.32-77L60,178.4c6,10.36,123.6-95.44,134-77.38,5.19,9-138,69.49-133.34,77.56,14.43,25,134.42-77.6,134.42-77.6S51.88,162.19,61.86,179.47c8.54,14.8,129.91-82.09,133-76.77,0,0-142.16,56.4-130.93,75.86L196,102.3S59.28,173.2,63.33,180.23c0,0,125.05-89.56,132.57-76.54,12.58,21.8-132,76.7-132,76.7s132-77.19,132.43-76.45c0,0-142.62,53.37-129.53,76,14.62,25.33,129.11-74.54,129.11-74.54,1.61,2.78-138.14,62-129.95,76.23l127.84-73.81C214.42,143.53,66,181.79,66,181.79c16.33,28.29,109.19-109.13,129.15-74.56L68.57,181.85C76,194.67,193,102.69,196.14,108.2c12.06,20.89-142.47,39-122.8,73,13,22.48,110.67-87.15,120.74-69.71L74.38,181.3S190.69,101.49,196.18,111c0,0-141.12,37.45-121.78,71,5.43,9.41,119.75-69.13,119.75-69.13,5.66,9.8-133.94,35.79-115.07,68.47l116.08-67C204.26,130,70.8,162.73,81.45,181.19c4.17,7.21,113.65-65.62,113.65-65.62C198.78,122,74.28,164.62,84,181.45c0,0,103.05-80.61,112.19-64.77,2.71,4.68-120.62,45.83-110.25,63.79l110.45-63.76-111.3,65s98.44-83.55,110-63.52c9,15.63-123,39-108.84,63.57,0,0,107.52-67.16,109.72-63.35,0,0-122.71,36.4-107.53,62.69,14.68,25.43,104.57-68.2,108-62.33,0,0-114.08,47.55-105.61,62.22,0,0,100.79-65.36,103.89-60L90.23,181.87c14.87,25.75,106.05-61.23,106.05-61.23S91.58,175.71,94.5,180.78c4.49,7.76,94.48-69.61,101-58.31L98,180.86c2.92,5.06,97.67-56.39,97.67-56.39,9.1,15.76-97.62,56.64-97.62,56.64l98.61-56.93c16.15,28-102.08,51.64-98.75,57.4l96-55.44S91.51,162.9,101.85,180.81c0,0,85.94-69,94.34-54.48,9.52,16.49-98.27,43.13-91.45,55,4.76,8.23,74.92-77.86,89.91-51.91,2.2,3.82-102.24,28.7-88.47,52.55,0,0,75.75-76.9,90.11-52,6.78,11.74-100.16,30.5-88.21,51.21,0,0,81.68-62.26,88.22-50.93,12,20.84-93.44,37.67-86.35,49.95l83.69-48.32-84.31,48.79c12.81,22.18,87.36-50.44,87.36-50.44,9.1,15.77-86.84,50.93-86.84,50.93.56,1,86.67-50,86.67-50,14,24.27-84.45,49.35-84.45,49.35,6,10.44,72-65.6,82.38-47.56l-79.33,47.44c2.45,4.23,79.86-46.11,79.86-46.11,8.53,14.78-85.74,36.71-79.92,46.8,7.9,13.69,66.74-68.42,79.68-46,0,0-83.39,37.09-78.47,45.63,12.18,21.09,79.11-45.67,79.11-45.67,12.3,21.31-76.35,45.62-76.35,45.62s72-52.17,76.6-44.23c0,0-78.27,39.47-75.17,44.84C132.14,201.39,196,137.53,196,137.53c6.43,11.15-72.65,43.21-72.65,43.21.27.47,61.21-56.45,70.35-40.62,5.66,9.79-67.53,40.73-67.53,40.73,6.74,11.67,67.48-44,69.66-40.22,8.18,14.17-71.42,33.14-67.26,40.34,5.13,8.88,60.65-51.41,67.75-39.11,0,0-65.14,38.69-64.94,39,2.06,3.56,62.4-36,62.4-36,7.09,12.28-60.84,36.2-60.84,36.2s59.58-42.07,62.91-36.32c5.24,9.09-61.57,33.87-60.68,35.4,6.54,11.34,57.09-43,61.45-35.48,3.86,6.68-69.52,19.31-59.83,36.1l57.45-33.17c4.94,8.56-55.3,33.62-55.3,33.62,7.63,13.22,48.68-46,56.44-32.59,4.17,7.21-54.49,31.65-53.73,33,7.65,13.25,53.4-30.82,53.4-30.82S134,167.16,142.24,181.37c0,0,51-34.08,53-30.62,6.78,11.74-56.64,17-48.89,30.46,0,0,43.6-34.78,47.76-27.58,4.78,8.29-44.63,26.74-44.63,26.74,1.4,2.42,46.1-26.62,46.1-26.62,5.62,9.73-47.94,28.13-47.94,28.13l49-28.3c4.46,7.71-44.12,26.57-44.12,26.57,6.62,11.48,42.45-25.78,43-24.82,5.38,9.32-46.36,21-43.66,25.69,6.61,11.44,44.21-25.53,44.21-25.53l-43,26.43c6.63,11.48,41.81-24.14,41.81-24.14S151.64,174,156,181.59c2,3.49,38.56-22.27,38.56-22.27,1.89,3.28-33.74,21.76-33.74,21.76.24.42,31.16-23.48,33.54-19.36l-31.49,18.55,31.93-18.44c3.12,5.4-31.65,19.79-31.65,19.79s30.6-22.13,32.53-18.78l-28.47,17.75,27.71-16-26.42,16.54c.07.13,26-18.31,27.44-15.85,0,0-28.07,8.4-24,15.36,0,0,21.79-17.88,24.09-13.9,2.78,4.82-20.52,13.68-20.52,13.68s19-11,19-11c.83,1.44-23.09,9-21.15,12.39,1.21,2.09,20-18.29,22.9-13.23,2.35,4.08-24.52,6.47-21.05,12.48,1.61,2.79,17.26-14,19-11,0,.07-15.91,11-15.91,11s13.57-12.09,15.41-8.89c1.41,2.43-10.21,8.13-10.21,8.13l12.23-7.07-11.1,7c1.81,3.15,11-6.38,11-6.38,1.43,2.46-11.42,7.57-11.42,7.57s11.87-7.68,12.23-7.06c.18.32-13.22,3.84-11.57,6.7,0,0,8.1-7.34,9.25-5.34,0,0-8.11,2.82-7,4.81,0,0,5.81-4.14,6.15-3.55l-6.38,4c.26.46,7.34-7.06,8.56-4.94.59,1-4.1,4-4.1,4s1.93-1.11,1.93-1.11"/><path class="cls-2" d="M54.33,2.42c.31.53,1.5-1.61,1.82-1,.77,1.32-5.64,3.3-4.74,4.85C52,7.16,61.47.4,61.47.4c.5.87-8.32,4.15-7.27,6,.59,1,7.93-4.79,8-4.64.19.33-3.32,3.2-3.32,3.2S66.27-.53,66.79.37c.93,1.62-7.09,2.73-6,4.57L67.82.86c.93,1.61-6.21,4.51-6.21,4.51s6-4.51,6.42-3.7c0,0-2.1,3-2.06,3S73.24,0,73.47.38c.59,1-4.27,3.61-4,4.15S75.12,1,75.25,1.22c.46.8-4.37,3.86-4.37,3.86,1,1.78,5.74-3.32,5.74-3.32L73.55,5.54c.48.84,9-5.39,9.09-5.25C83.31,1.45,78,3.16,78.81,4.5c.94,1.63,5.26-3,5.26-3,.31.54-7.78,2.35-6.8,4.06.38.66,6.38-4.75,6.85-3.95,0,0-6.1,3.56-5.87,4L84.89,1.7c.27.45-2.39,2.2-2,2.84L89.49.72c.11.19-3.85,3.13-3.55,3.65l5.4-3.12c.22.38-5,4.08-5,4.08,1.07,1.86,8.4-4.85,8.4-4.85.45.79-5.58,3.81-5.58,3.81S94.51-1.09,95.5.64c.18.3-6.63,2.57-5.66,4.26l6.08-3.51c0,.07-4.55,2.29-4.25,2.82.53.91,5.8-3.35,5.8-3.35.24.41-5.59,4.05-5.08,4.92.21.36,7.79-4.5,7.79-4.5S96,5,96.24,5.45c0,0,5.17-5.23,6.15-3.54l-3.91,2.9s5.47-3.67,5.69-3.28c.8,1.37-6.41,3.75-6.41,3.75l8-4.65L98.64,5.3c.19.33,8.6-5.23,8.71-5,.57,1-6.21,2.78-5.31,4.33,1,1.76,7.2-4.15,7.2-4.15s-5.19,3.6-4.77,4.32c0,0,3.8-4.39,4.75-2.74.33.58-2.42,3.49-2.42,3.49S112.14.63,112.92,2s-4.73,2.55-4.61,2.76C109,6,115.63.53,115.63.53c.16.28-7.62,3-6.45,5,.56,1,8.29-4.79,8.29-4.79l-3.71,4L120.17,1S113,4.42,113.66,5.5c.76,1.31,6-3.48,6-3.48s-3.85,3.07-3.79,3.17c.47.81,5.93-3.42,5.93-3.42l-3.27,2.46s4.7-3.39,5-2.89c0,0-5.86,3-5.25,4.09.37.64,5.78-3.33,5.78-3.33.47.82-1.69,3.28-1.69,3.28.93,1.61,5.69-3.29,5.69-3.29l-.8,2s3.4-2.06,3.44-2c1,1.73-6.21,3.12-5.91,3.65.81,1.4,8.66-6.41,9.28-5.36.79,1.39-7.4,4.29-7.06,4.89l5.83-3.36c.27.47-5.5,3.81-5.5,3.81.77,1.34,7.83-5.1,8.08-4.67l-4.8,4.27C131.25,6.4,137.81.65,138,1c.09.17-6.39,3.49-5.88,4.38.89,1.54,8.71-5,8.71-5s-8.28,3.62-7.6,4.78,6.38-4,6.53-3.77-2.61,3.65-2.61,3.65c.35.61,5.89-3.4,5.89-3.4.48.84-4.2,4.1-4.2,4.1.15.25,7.38-4.26,7.38-4.26a22.3,22.3,0,0,1-2.34,2.87c.07.13,4.64-4.52,5.44-3.14,0,0-1.77,3.13-1.77,3.13s5.67-4.67,6.27-3.62l-7.48,4.54c.85,1.47,7.17-5.54,7.77-4.49.37.63-3.46,3.63-3.46,3.63.45.79,4.19-4.83,5.23-3,0,0-6.09,2.94-5.36,4.2.09.15,5.94-4.1,6.23-3.6,0,0-2.76,2.46-2.17,3.48l8.61-5L158.07,5c.16.28,6.57-3.79,6.57-3.79.24.42-3.8,2.66-3.34,3.45S168.45.57,168.45.57c.61,1.06-4.91,3.52-4.45,4.32.59,1,5.21-3.4,5.38-3.1.34.6-6.66,1.92-5.69,3.61l6.81-3.94c.14.24-3,2.49-2.44,3.52.41.71,6.64-3.93,6.68-3.86l-4.63,3.22c.58,1,6.29-3.63,6.29-3.63s-6.5,2.81-6.08,3.54c.91,1.58,6-4.38,6.37-3.68,1.24,2.16-8.16,3.63-7.4,4.94S177.56-.75,178.2.36c.28.48-6.23,3.82-5.84,4.51,0,0,5.1-3.06,5.15-3,.14.25-2.55,3.43-2.4,3.69L182,1.64c.21.35-4.68,2-4.14,2.89.17.29,6.6-3.81,6.6-3.81l-4.3,4.05c.48.84,5.62-4.84,6.31-3.64.16.27-4,4.45-4,4.45s7.12-5.45,7.7-4.44c0,0-2.37,2.91-2.37,2.91.75,1.3,2.14-2.7,2.77-1.6.08.12.25,1.11.38,1.33l.89-.52a18.8,18.8,0,0,1-.05,1.88c.43.74,1.88-2,2.29-1.32,0,0-7.38,3.42-6.53,4.88.3.53,6.39-3.69,6.39-3.69s-7.46,5.48-7.37,5.64c.65,1.12,9.38-5.42,9.38-5.42,1.93,3.34-13.39,6.23-12.27,8.17.7,1.22,9.82-5.67,9.82-5.67"/><path class="cls-2" d="M50.72,10.57l.12-.07a10.39,10.39,0,0,1-.52,1.43s.28-.57.45-.26L51,13c.4.68,2.35-2.08,2.66-1.53,0,0-1.82.87-1.59,1.28a24.56,24.56,0,0,1,2.28-1.32c.24.42-2.37,1.56-2.37,1.56.38.65,2.88-1.8,2.94-1.69.49.83-4.81,3.64-4.81,3.64l6-3.46c.45.78-5.42,2.78-4.78,3.88.33.58,4.69-2.71,4.69-2.71l-4.73,3.53c.41.7,6-3.44,6-3.44l-6.14,3.89s7.14-5.75,7.85-4.53-10.13,4.35-8.59,7c.66,1.16,8.68-7.22,9.64-5.57,0,0-8.9,7.07-8.77,7.29,0,0,5.6-3.53,5.73-3.31l-5,3.24c.65,1.12,4.78-3.8,5.23-3,0,0-9.23,3.64-8,5.69,0,0,6.64-5.38,7.31-4.22,0,0-6,2.62-5.25,3.87.87,1.5,5.53-3.19,5.53-3.19.8,1.38-7.41,4.65-6.86,5.59,0,0,4.41-4.72,5.35-3.09,0,0-6,3.77-5.55,4.61.73,1.27,7.58-4.38,7.58-4.38s-5.69,3.1-5.22,3.91c.94,1.63,3.56-3.74,4.29-2.47,0,0-6.16,3.47-5.37,4.84L56,26S49.2,29,50.2,30.76c0,0,4.72-3.13,4.89-2.83.3.52-3.09,3.78-3.09,3.78s4.36-4.36,5.15-3c.92,1.59-6,4.22-6,4.22.12.19,6.65-4.37,6.88-4,.54.94-8.41,6-8.41,6L55,31.85c.24.42-5,3.26-4.93,3.33s6-5.62,7-4c1.06,1.85-7.34,6-7.29,6.05.94,1.62,6.24-5.38,7-4.05.32.56-5.77,3.25-5.23,4.18.3.52,3.66-2.11,3.66-2.11.17.3-6.1,2.16-5.23,3.67.74,1.28,7.26-4.74,7.5-4.33,0,0-8,5-7.78,5.44,0,0,8-5.44,8.32-4.81.84,1.45-7.67,5.08-7.67,5.08.18.31,6-3.47,6-3.47S50,39.49,50.57,40.48c0,0,5.86-4.5,6.34-3.66s-5.5,4.12-5.48,4.14,5-5.05,5.91-3.41c.79,1.38-6.24,3.44-5.9,4s5.45-3.15,5.45-3.15c.63,1.1-7.28,4.41-7.28,4.41.45.78,5.31-3.76,5.61-3.24.5.86-5.87,4.53-5.87,4.53s6.72-5.25,7.32-4.22-5.2,3.86-5.2,3.86c.77,1.33,3.78-2.19,3.78-2.19.42.74-3.07,3.18-3.07,3.18L58,41.43s-6.83,3.2-6.36,4L58,41.76s-7.27,2.81-6.59,4c.78,1.35,3-3.06,3.61-2.09.38.65-3.21,1.23-2.84,1.87.85,1.47,4.15-2.4,4.15-2.4.66,1.14-6.46,4.13-5.65,5.53l7.15-4.13c.83,1.44-8.36,3.42-7.4,5.08S55,47,55,47L49.49,50.4l7.35-4.24c.46.8-7.37,4.44-7.37,4.44.11.2,6.54-3.77,6.54-3.77s-4.33,3.27-4.33,3.27c.81,1.4,2.78-3.35,3.54-2,.92,1.6-5.87,4.16-5.78,4.31L56.94,48c.74,1.27-6.94,4.14-6.94,4.14s6.78-4.94,7.22-4.17l-7.12,4.9c.4.7,4.93-4.74,5.75-3.31L51.79,53l5.06-2.92c.87,1.49-6.38,3.22-5.93,4s6.95-4,6.95-4-9.45,3.58-8.22,5.71c.44.77,7.12-4.12,7.12-4.11.51.88-5.26,2.83-4.71,3.78,0,0,5.47-4.12,5.89-3.4L50.82,57.7C51.57,59,57.07,52,58,53.57c1.15,2-8.55,5.06-8.55,5.06.51.88,7.53-6.54,8.48-4.9,0,0-8.61,6.84-8.61,6.84.56,1,8.28-4.78,8.28-4.78s-7.85,6.13-7.63,6.51c.52.9,5.13-3.33,5.29-3,.56,1-6.5,4.38-5.83,5.53,0,0,7.69-4.44,7.69-4.44l-5.57,5c.07.12,6.27-3.62,6.27-3.62s-7.12,3.44-6.6,4.35c0,0,3.5-3.22,4-2.32.61,1.06-3.62,3.81-3.62,3.81.41.71,6.24-4.24,6.51-3.76,0,0-8,4.34-7.16,5.77.29.5,6.06-5.63,7-4,1,1.8-7.39,4.66-7.39,4.66.23.4,7.56-4.37,7.56-4.37,1,1.68-7.29,4.06-6.47,5.5.43.73,5.51-3.18,5.51-3.18,1,1.79-7.24,5.79-7.08,6.08,0,0,7-4.54,7.18-4.15.56,1-7.43,4-6.51,5.55.28.49,6.93-4,6.93-4,.16.27-6.49,3.47-6.36,3.7.62,1.07,5.94-5.16,6.69-3.86s-6.83,5-6.83,5c.81,1.41,6.13-3.54,6.13-3.54l-5.86,5.58s2.85-3.49,3.64-2.11l-5.59,4.27s6.73-5.94,7.62-4.4c.53.91-6.25,3-5.34,4.59.39.68,5.26-4,5.67-3.28,1.07,1.85-8.71,3.82-7.41,6.07.53.91,7.26-4.36,7.34-4.23.84,1.45-6.15,3.11-5.61,4l4.4-2.54-4.48,3.18S56.47,80.16,57,81c0,0-6.25,3.81-5.81,4.58L55,83.34c.52.89-3.68,2.71-3.68,2.71.48.83,4-2.29,4-2.29l-4.19,4.33c.8,1.38,5.93-3.43,5.93-3.43.64,1.1-6.07,3.79-5.6,4.6l5.44-3.14c.06.12-5.26,3.08-5.26,3.08l6.08-3.51c.88,1.51-6.3,4.27-5.8,5.12,0,0,4.53-3.09,4.73-2.73,0,0-5.37,3.13-4.66,4.37,0,0,3.81-3,4.16-2.4.7,1.22-5.06,2-4.31,3.3.23.39,3.85-3.38,4.35-2.51,1,1.73-6.22,5.14-6,5.44l6.41-3.7-7,4.29,7.72-4.46S49.8,96.29,50.19,97c.23.39,6.7-3.87,6.7-3.87s-7.14,3.5-6.67,4.32c0,0,6.8-4.08,6.86-4s-6.87,4.14-6.19,5.31,6.67-4.28,6.86-4c1,1.77-8.24,3-7.24,4.7l6.58-3.79s-5.3,3.24-5.24,3.33c.48.83,4.3-4.27,5.07-2.93.65,1.12-5.85,2.22-5.06,3.6.26.45,4.88-3.21,5-2.91l-6,4.6c.47.82,5.58-3.59,5.74-3.32.43.75-6,4.23-5.52,5.05s4.62-2.67,4.62-2.67-4.82,3.09-4.31,4,4.6-4,5.18-3c.33.57-5.91,4-5.91,4s3.8-3.79,4.49-2.6c0,0-4.3,4-4,4.52.88,1.51,5-3.59,5.31-3.07.57,1-5.46,4.52-5.46,4.52.7,1.22,3.77-3.77,4.46-2.57,0,0-4.49,1.81-3.82,3,.88,1.52,5.38-3.11,5.38-3.11.55,1-5.23,3.15-5.23,3.15s3.88-2.73,4.09-2.36c0,0-4.31,2.17-3.8,3.05l5.52-3.18c.29.5-8.6,3.92-8,5l7.45-4.3c.78,1.36-6.32,3.79-5.78,4.72.26.45,4.63-3,4.77-2.75s-7.73,4-6.57,6c.62,1.07,6.34-3.66,6.34-3.66.41.72-5.43,3.4-5.1,4,.58,1,4.69-2.7,4.69-2.7.44.76-5.49,2.34-4.63,3.83,0,0,5.7-5.33,6.58-3.8,1.54,2.67-8.09,7-8.09,7,.54.93,7-4.07,7-4.07.53.91-5.24,4.63-5.24,4.63l5.33-3.08L50,122.3c.67,1.16,5.66-3.44,5.74-3.31,1,1.75-5.89,3.45-5,4.94,0,0,6.53-5,7.05-4.07,1,1.72-6.33,3.9-5.6,5.17.31.53,4.13-2.38,4.13-2.38s-5.29,3.21-5.13,3.47c.87,1.52,3.18-3.85,4-2.34.41.71-3.39,2.23-3.39,2.23s4.33-2.5,4.33-2.5c.21.36-4.5,3.94-4.16,4.53s4.13-2.39,4.13-2.39-6.73,2.87-5.94,4.24c0,0,5.71-5.24,6.55-3.78s-4.52,4-4.52,4c.27.47,5.05-2.92,5.05-2.92.5.86-5.36,5.42-5.36,5.42s4.76-3.73,5.19-3c.56,1-6.61,3.59-5.62,5.32.49.84,6.6-3.81,6.6-3.81.47.83-6.8,4.51-6.8,4.51s6.21-4.25,6.5-3.75c0,0-8.43,4.76-7.75,5.94s6.42-4.93,7-4c.19.32-5.11,4.78-5.11,4.78.34.59,4.61-3.21,4.85-2.8,1,1.8-6.67,4.19-6.67,4.19.88,1.52,6.56-4.13,6.71-3.87,0,0-5.14,2.93-4.92,3.33,0,0,3.54-2.61,3.79-2.19,0,0-5.78,4.05-5.57,4.42l5-2.87a42.33,42.33,0,0,1-3.11,3.82c.32.56,6-3.92,6.2-3.58,1.1,1.9-7,6.36-7,6.36.32.54,3.85-3,4.19-2.42,0,0-6.09,3-5.78,3.55,0,0,5.52-4.53,6.1-3.52,0,0-6.42,4.57-6.2,4.94.3.53,7.95-6.15,8.63-5,.43.75-7.79,4-7.22,5,0,0,5.8-4.16,6.15-3.55l-7.58,6c.55,1,6.77-4.76,7.14-4.12,0,0-6.72,3-6,4.26l7-4.06-6.23,5.12,5.37-3.11c.29.5-6.7,5.17-6.7,5.17l6-3.45c.56,1-4.53,1.6-4,2.47,0,0,3.12-2.39,3.37-1.94.48.83-6,4.73-6,4.73l8.52-4.92c.78,1.36-8.64,5.38-8.64,5.38,1,1.67,6.7-3.86,6.7-3.86s-5.52,2.74-4.92,3.78c.46.79,4.72-2.73,4.72-2.73L51,156c.63,1.08,4.91-4.95,5.83-3.36,1.08,1.87-6.54,4.43-6.54,4.43l5.49-3.17c.69,1.19-5.48,4-5.48,4,.49.84,7.06-4.29,7.15-4.13s-5.28,3.85-5.28,3.85l2.93-1.7c.62,1.06-5.16,3.61-5.16,3.61.27.46,6.07-5.33,6.87-4l-7.33,5.78c.65,1.14,5.81-3.64,5.94-3.43l-4.33,4.7c.35.61,5.23-4.38,5.82-3.37l-6.35,6s5.68-3.41,5.73-3.31-5.2,3.72-5.2,3.72,4.68-4.64,5.52-3.19c0,0-4.28,3-4.09,3.33.39.68,4.11-2.38,4.11-2.38.46.79-6.93,3-6.44,3.86l6.23-3.6s-5.72,5.36-5.7,5.4c.69,1.2,5.23-3,5.23-3l-5.09,3.32c.46.78,6.2-3.58,6.2-3.58s-5,4.4-4.91,4.63c.24.43,4.74-4,5.3-3.06.13.23-5.25,4.5-5.25,4.5S55.64,169,56,169.67c0,.06-3.59,2.3-3.59,2.3s2.4-2.51,2.89-1.67c.32.57-4.31,3.91-4.31,3.91s4.5-4,5.09-2.94-3.59,2.73-3.33,3.19c0,0,2.94-2.64,3.35-1.93l-3.43,3.29c.37.65,5.3-3.06,5.3-3.06s-4.6,2.25-4.06,3.18l2.37-1.37s-3.48,2.93-3.3,3.25,3.44-2,3.44-2-.86.66-.85.69c.39.67.1-.57.32-.19l-1.38,2.21c.1.19,1.5-1.43,1.74-1l-.6.89a10.18,10.18,0,0,1,1.69-1c.17.29-1,1.55-.81,1.93,0,0,2.45-1.41,2.45-1.41l-.48,2.09s.76-.53.79-.46a14.38,14.38,0,0,1,.54,1.62c0,.05,1.54-.95,1.56-.9l-.19.47s.06,0,.06,0"/><path class="cls-2" d="M83.78,198l10-5.77c1.19,2-9.55,4.42-8.14,6.86.88,1.52,8.3-4.8,8.3-4.8.6,1-10.62,4-9.54,5.91,0,0,11.57-6.68,11.57-6.68.57,1-9.85,7.37-9.85,7.37.25.43,9.14-5.28,9.14-5.28.66,1.16-6.53,5.57-6.33,5.91s4.89-5,5.82-3.35l-5.56,3.36s4.49-4.31,5.23-3-6.49,3.09-6.19,3.61c.72,1.25,5.65-3.26,5.65-3.26s-5.19,3.77-4.63,4.74c.31.53,5.52-4.28,6-3.46,0,.09-4.86,2-4.33,3l4.39-2.54a48.07,48.07,0,0,1-3.82,3.62c.18.32,3.9-2.29,3.92-2.26s-2.23,1.32-1.91,1.87S96,202.4,96,202.4c.43.75-1.22,2.72-1.19,2.76s1.33-.93,1.4-.81-1.47,1.42-1.47,1.42.11-.07.11-.07"/><path class="cls-2" d="M72.85,182.44l.25-.15.91,1.14s1.34-1.18,1.52-.87A17.56,17.56,0,0,1,73.37,184c.18.31,3.4-2,3.4-2s-5.27,3-4.73,4c0,0,6.57-4.1,6.7-3.87.39.66-5.79,3.3-5.48,3.83,0,0,5.14-3,5.14-3,.91,1.57-5.55,4.38-5.51,4.46s7.56-5.92,8.24-4.75c0,0-10.21,5.46-9.17,7.27.61,1.06,12.38-9.48,13.39-7.73.8,1.39-10.92,7.85-10.92,7.85s13.1-10.11,14.2-8.2c0,0-17.88,7.49-15.66,11.32.06.1,17.59-10.16,17.59-10.16,1.28,2.21-19.3,8.57-18,10.72s18.56-13,19.53-11.28c3.29,5.69-21.48,10.2-20.15,12.51.33.56,23.42-13.52,23.42-13.52L74.4,195.76c1.83,3.17,19-11,19-11l-20,12.46c3.26,5.63,20.31-17,22.58-13L72.29,198.26s20.87-13,21.3-12.31L74.24,197.78,95.16,185.7s-25,10.67-23.3,13.68c.92,1.6,22.5-13,22.5-13s-24.25,12.17-22.93,14.45L93.3,188.22c3.45,6-21.86,12.74-21.86,12.74,1.74,3,22.83-14.25,23.3-13.45l-20.32,12c.9,1.56,18.92-10.93,18.92-10.93.87,1.5-24.21,9-21.71,13.29,1.63,2.83,23-13.26,23-13.26s-22.33,13.67-22.3,13.72S91.87,183.74,95,189.18L72.79,203.25l21.12-12.19c1.85,3.22-19.61,12.47-19.61,12.47.63,1.08,7.29-4.21,7.29-4.21S72.07,203.37,73,205c0,0,3.33-3.66,4.08-2.36.66,1.14-5.27,3.1-5,3.53.09.15,1.2-.89,1.28-.74"/><path class="cls-1" d="M82.94,72.56v32.88h6.53v8.22H72.2V72.56Z"/><path class="cls-1" d="M92.07,72.56H110v8.22h-7.17v7.8h6.71V96.4h-6.71v9h7.88v8.22H92.07Z"/><path class="cls-1" d="M136.66,72.56l-7.83,26.23v14.87h-10V98.79l-7.55-26.23h9.87q2.31,12,2.6,16.2.9-6.58,3-16.2Z"/><path class="cls-1" d="M138.5,72.56h17.9v8.22h-7.17v7.8h6.71V96.4h-6.71v9h7.89v8.22H138.5Z"/><path class="cls-1" d="M183,85H173V82a6.06,6.06,0,0,0-.38-2.72,1.41,1.41,0,0,0-1.28-.58,1.61,1.61,0,0,0-1.46.79,4.55,4.55,0,0,0-.5,2.39,6.8,6.8,0,0,0,.56,3.1,8.12,8.12,0,0,0,3,2.51q7.17,4.23,9,7t1.86,8.76a15.48,15.48,0,0,1-1,6.48,8.11,8.11,0,0,1-4,3.49,15.8,15.8,0,0,1-6.88,1.41,15.36,15.36,0,0,1-7.36-1.63,7.93,7.93,0,0,1-4-4.14,21,21,0,0,1-1-7.13V98.94h10v5a6.52,6.52,0,0,0,.43,3,1.62,1.62,0,0,0,1.49.66,1.75,1.75,0,0,0,1.59-.84,4.75,4.75,0,0,0,.53-2.49c0-2.42-.34-4-1-4.74a31.51,31.51,0,0,0-5-3.74,49.34,49.34,0,0,1-5.31-3.83,9,9,0,0,1-2.16-3.3,14.48,14.48,0,0,1-.85-5.38q0-4.73,1.21-6.91a8.16,8.16,0,0,1,3.92-3.42A15.69,15.69,0,0,1,171,71.69,17.05,17.05,0,0,1,178.1,73a7.49,7.49,0,0,1,3.9,3.39c.64,1.36,1,3.68,1,6.94Z"/><path class="cls-3" d="M82.94,72.56v32.88h6.53v8.22H72.2V72.56Z"/><path class="cls-3" d="M92.07,72.56H110v8.22h-7.17v7.8h6.71V96.4h-6.71v9h7.88v8.22H92.07Z"/><path class="cls-3" d="M136.66,72.56l-7.83,26.23v14.87h-10V98.79l-7.55-26.23h9.87q2.31,12,2.6,16.2.9-6.58,3-16.2Z"/><path class="cls-3" d="M138.5,72.56h17.9v8.22h-7.17v7.8h6.71V96.4h-6.71v9h7.89v8.22H138.5Z"/><path class="cls-3" d="M183,85H173V82a6.06,6.06,0,0,0-.38-2.72,1.41,1.41,0,0,0-1.28-.58,1.61,1.61,0,0,0-1.46.79,4.55,4.55,0,0,0-.5,2.39,6.8,6.8,0,0,0,.56,3.1,8.12,8.12,0,0,0,3,2.51q7.17,4.23,9,7t1.86,8.76a15.48,15.48,0,0,1-1,6.48,8.11,8.11,0,0,1-4,3.49,15.8,15.8,0,0,1-6.88,1.41,15.36,15.36,0,0,1-7.36-1.63,7.93,7.93,0,0,1-4-4.14,21,21,0,0,1-1-7.13V98.94h10v5a6.52,6.52,0,0,0,.43,3,1.62,1.62,0,0,0,1.49.66,1.75,1.75,0,0,0,1.59-.84,4.75,4.75,0,0,0,.53-2.49c0-2.42-.34-4-1-4.74a31.51,31.51,0,0,0-5-3.74,49.34,49.34,0,0,1-5.31-3.83,9,9,0,0,1-2.16-3.3,14.48,14.48,0,0,1-.85-5.38q0-4.73,1.21-6.91a8.16,8.16,0,0,1,3.92-3.42A15.69,15.69,0,0,1,171,71.69,17.05,17.05,0,0,1,178.1,73a7.49,7.49,0,0,1,3.9,3.39c.64,1.36,1,3.68,1,6.94Z"/><path class="cls-4" d="M1.63,309.72a1.31,1.31,0,0,1-.87-1.28,1.85,1.85,0,0,1,1-1.53v-.09A2.82,2.82,0,0,1,.6,304.26,3.19,3.19,0,0,1,4.07,301a4.13,4.13,0,0,1,2,.5,4.42,4.42,0,0,1,1.76-.34,2.55,2.55,0,0,1,.77.11,4.54,4.54,0,0,1,.15,1.08H7a3.33,3.33,0,0,1,.52,1.87c0,2-1.3,3.21-3.45,3.21a4.89,4.89,0,0,1-1.47-.2,1.13,1.13,0,0,0-.27.74c0,.7,1,.83,2.62.83,2.1,0,3.71.45,3.71,2.37,0,2.16-2.1,3.22-4.54,3.22-2.13,0-4.07-.88-4.07-2.7a2.07,2.07,0,0,1,1.58-1.92Zm-.06,1.8c0,1.26,1.47,1.89,2.81,1.89s2.76-.63,2.76-1.86c0-.9-.68-1.35-2.55-1.35A9.57,9.57,0,0,1,2.53,310,1.59,1.59,0,0,0,1.57,311.52Zm2.5-5c1.25,0,1.84-.88,1.84-2.25S5.21,302,4.07,302c-1.29,0-1.88.83-1.88,2.25S2.89,306.51,4.07,306.51Z"/><path class="cls-4" d="M15,308.84a2.77,2.77,0,0,1-2.53,1.36,2.35,2.35,0,0,1-2.57-2.41c0-1.85,1.58-2.81,3.37-2.81a4.49,4.49,0,0,1,1.68.31v-1c0-1.34-.58-2-1.72-2a5.75,5.75,0,0,0-2.64.88,1.6,1.6,0,0,1-.09-.61,2,2,0,0,1,.2-.9,7.48,7.48,0,0,1,2.95-.63c2,0,2.84.95,2.84,3.42V308a1.66,1.66,0,0,0,.23.94,5.68,5.68,0,0,0,1.25-.22.79.79,0,0,1,0,.2,1.9,1.9,0,0,1-.19.81,4.55,4.55,0,0,1-1.95.52,1.92,1.92,0,0,1-.76-1.36Zm0-2.76a6,6,0,0,0-1.27-.14c-1.41,0-2.21.63-2.21,1.58A1.46,1.46,0,0,0,13.11,309a2.3,2.3,0,0,0,1.83-.88Z"/><path class="cls-4" d="M21.83,303A2.41,2.41,0,0,1,24.18,301a2.6,2.6,0,0,1,.81.14,2.3,2.3,0,0,1,.24,1.08,1.83,1.83,0,0,1-.06.49,2.44,2.44,0,0,0-1.23-.31,2.24,2.24,0,0,0-2.08,1.48v4.83a8.77,8.77,0,0,1,1.79.32,2.54,2.54,0,0,1,0,.83H18.88a2.25,2.25,0,0,1,.25-.81,6.31,6.31,0,0,1,1.16-.34v-6.4H19a2.11,2.11,0,0,1,.32-1,4.62,4.62,0,0,1,1.5-.25,3.33,3.33,0,0,1,.86.1V303Z"/><path class="cls-4" d="M31.25,308.84a2.78,2.78,0,0,1-2.53,1.36,2.35,2.35,0,0,1-2.57-2.41c0-1.85,1.57-2.81,3.36-2.81a4.45,4.45,0,0,1,1.68.31v-1c0-1.34-.58-2-1.72-2a5.83,5.83,0,0,0-2.64.88,1.6,1.6,0,0,1-.09-.61,2,2,0,0,1,.2-.9,7.48,7.48,0,0,1,2.95-.63c2,0,2.84.95,2.84,3.42V308a1.66,1.66,0,0,0,.23.94,5.49,5.49,0,0,0,1.25-.22.79.79,0,0,1,0,.2,1.89,1.89,0,0,1-.18.81,4.64,4.64,0,0,1-1.95.52,1.85,1.85,0,0,1-.76-1.36Zm0-2.76a5.88,5.88,0,0,0-1.27-.14c-1.41,0-2.2.63-2.2,1.58A1.46,1.46,0,0,0,29.38,309a2.27,2.27,0,0,0,1.83-.88Z"/><path class="cls-4" d="M38.14,308.8a7.5,7.5,0,0,1,1.32.23,2.79,2.79,0,0,1,0,.87H35.15a2.48,2.48,0,0,1,.26-.81,6.2,6.2,0,0,1,1.15-.34v-6.4H35.24a2.12,2.12,0,0,1,.33-1,4.44,4.44,0,0,1,1.5-.25,3.2,3.2,0,0,1,.85.1v1.32h.18A3.25,3.25,0,0,1,41,301c1.43,0,2.7.45,2.7,3.24,0,1.51,0,3-.11,4.52a9.14,9.14,0,0,1,1.46.23,2.34,2.34,0,0,1,.06.56,1.62,1.62,0,0,1,0,.31H40.81a2.48,2.48,0,0,1,.26-.81,5.65,5.65,0,0,1,1-.34v-4.22c0-1.38-.44-2.27-1.7-2.27a3.17,3.17,0,0,0-2.26,1.16Z"/><path class="cls-4" d="M47.41,299.15a3.12,3.12,0,0,1,1.21-.29v2.48h2.63a4.92,4.92,0,0,1,0,1.05H48.62v4.95c0,1.17.17,1.68,1.18,1.68a6.81,6.81,0,0,0,1.68-.24,1.1,1.1,0,0,1,0,.24,1.64,1.64,0,0,1-.18.7,5.93,5.93,0,0,1-2.23.48c-1.39,0-2.09-.75-2.09-2.61,0-1.06,0-3.38.09-5.2H45.84a2.86,2.86,0,0,1,.22-.94,6.16,6.16,0,0,1,1-.32Z"/><path class="cls-4" d="M52.51,302.35a2.12,2.12,0,0,1,.33-1,5.12,5.12,0,0,1,1.63-.25,4,4,0,0,1,.94.1v7.53a9.73,9.73,0,0,1,1.42.25,2.34,2.34,0,0,1,.06.56,1.62,1.62,0,0,1,0,.31H52.42a2.48,2.48,0,0,1,.26-.81,6,6,0,0,1,1.15-.34v-6.4Zm3.17-4.19a1,1,0,0,1-1,1.06.94.94,0,0,1-1-1.06,1,1,0,0,1,1-1A.94.94,0,0,1,55.68,298.16Z"/><path class="cls-4" d="M58.06,309.12l4.69-6.64v-.13h-3a5.22,5.22,0,0,1-.32,1.28,4.32,4.32,0,0,1-1.14-.18v-2.11h6.27l.2.78-4.68,6.64v.13a34.12,34.12,0,0,0,3.42-.16,11.13,11.13,0,0,1,.39-1.28,2.76,2.76,0,0,1,.71-.09,4.16,4.16,0,0,1,.45,0l-.31,2.51H58.26Z"/><path class="cls-4" d="M71.39,308.84a2.78,2.78,0,0,1-2.53,1.36,2.35,2.35,0,0,1-2.57-2.41c0-1.85,1.58-2.81,3.37-2.81a4.53,4.53,0,0,1,1.68.31v-1c0-1.34-.58-2-1.72-2a5.75,5.75,0,0,0-2.64.88,1.6,1.6,0,0,1-.09-.61,2,2,0,0,1,.2-.9,7.44,7.44,0,0,1,3-.63c2,0,2.83.95,2.83,3.42V308a1.58,1.58,0,0,0,.24.94,5.68,5.68,0,0,0,1.25-.22,1.56,1.56,0,0,1,0,.2,1.89,1.89,0,0,1-.18.81,4.55,4.55,0,0,1-2,.52,1.92,1.92,0,0,1-.76-1.36Zm0-2.76a5.86,5.86,0,0,0-1.26-.14c-1.41,0-2.21.63-2.21,1.58A1.46,1.46,0,0,0,69.53,309a2.27,2.27,0,0,0,1.82-.88Z"/><path class="cls-4" d="M78.28,308.8a7.33,7.33,0,0,1,1.32.23,2.79,2.79,0,0,1,0,.87H75.3a2.25,2.25,0,0,1,.25-.81,6.31,6.31,0,0,1,1.16-.34v-6.4H75.39a2.11,2.11,0,0,1,.32-1,4.44,4.44,0,0,1,1.5-.25,3.2,3.2,0,0,1,.85.1v1.32h.18A3.27,3.27,0,0,1,81.16,301c1.42,0,2.69.45,2.69,3.24,0,1.51,0,3-.11,4.52a9.47,9.47,0,0,1,1.47.23,3.06,3.06,0,0,1,.05.56,1.62,1.62,0,0,1,0,.31H81a2.25,2.25,0,0,1,.25-.81,5.65,5.65,0,0,1,1-.34v-4.22c0-1.38-.43-2.27-1.7-2.27a3.19,3.19,0,0,0-2.26,1.16Z"/><path class="cls-4" d="M89.87,297.94a2.12,2.12,0,0,1,.33-.95,5.12,5.12,0,0,1,1.63-.25,3.82,3.82,0,0,1,.92.1v11.94a10.31,10.31,0,0,1,1.46.25,2.34,2.34,0,0,1,.06.56,1.62,1.62,0,0,1,0,.31H89.76a2.48,2.48,0,0,1,.26-.81,6.2,6.2,0,0,1,1.15-.34V297.94Z"/><path class="cls-4" d="M100.56,308.84A2.78,2.78,0,0,1,98,310.2a2.35,2.35,0,0,1-2.57-2.41c0-1.85,1.57-2.81,3.36-2.81a4.45,4.45,0,0,1,1.68.31v-1c0-1.34-.57-2-1.71-2a5.75,5.75,0,0,0-2.64.88,1.43,1.43,0,0,1-.09-.61,2,2,0,0,1,.2-.9A7.39,7.39,0,0,1,99.2,301c2,0,2.84.95,2.84,3.42V308a1.58,1.58,0,0,0,.24.94,5.51,5.51,0,0,0,1.24-.22.79.79,0,0,1,0,.2,1.89,1.89,0,0,1-.18.81,4.64,4.64,0,0,1-2,.52,1.89,1.89,0,0,1-.76-1.36Zm0-2.76a5.86,5.86,0,0,0-1.26-.14c-1.41,0-2.21.63-2.21,1.58A1.46,1.46,0,0,0,98.7,309a2.27,2.27,0,0,0,1.82-.88Z"/><path class="cls-4" d="M109.49,299.15a3.12,3.12,0,0,1,1.21-.29v2.48h2.63a4.92,4.92,0,0,1,0,1.05H110.7v4.95c0,1.17.17,1.68,1.18,1.68a6.81,6.81,0,0,0,1.68-.24,1.1,1.1,0,0,1,0,.24,1.64,1.64,0,0,1-.18.7,6,6,0,0,1-2.23.48c-1.39,0-2.09-.75-2.09-2.61,0-1.06,0-3.38.09-5.2h-1.25a2.86,2.86,0,0,1,.22-.94,6.16,6.16,0,0,1,1-.32Z"/><path class="cls-4" d="M116,305.83a2.89,2.89,0,0,0,2.95,3.11,8.43,8.43,0,0,0,2.53-.5,1.89,1.89,0,0,1-.24,1,6.11,6.11,0,0,1-2.85.74c-2.59,0-4.07-1.92-4.07-4.41,0-2.64,1.64-4.75,4.17-4.75,2.17,0,3.1,1.57,3.1,3.83a8,8,0,0,1-.06,1Zm4-1.05c.12-1.24-.24-2.75-1.76-2.75-1.28,0-2.11,1.12-2.22,2.75Z"/><path class="cls-4" d="M126.11,308.8a7.33,7.33,0,0,1,1.32.23,2.79,2.79,0,0,1,0,.87h-4.34a2.25,2.25,0,0,1,.25-.81,6.31,6.31,0,0,1,1.16-.34v-6.4h-1.32a2.11,2.11,0,0,1,.32-1,4.44,4.44,0,0,1,1.5-.25,3.2,3.2,0,0,1,.85.1v1.32h.18A3.27,3.27,0,0,1,129,301c1.42,0,2.69.45,2.69,3.24,0,1.51,0,3-.11,4.52A9.47,9.47,0,0,1,133,309a3.06,3.06,0,0,1,.05.56,1.62,1.62,0,0,1,0,.31h-4.28a2.25,2.25,0,0,1,.25-.81,5.65,5.65,0,0,1,1-.34v-4.22c0-1.38-.43-2.27-1.7-2.27a3.19,3.19,0,0,0-2.26,1.16Z"/><path class="cls-4" d="M136,305.83a2.88,2.88,0,0,0,2.94,3.11,8.43,8.43,0,0,0,2.54-.5,2,2,0,0,1-.24,1,6.15,6.15,0,0,1-2.86.74c-2.58,0-4.06-1.92-4.06-4.41,0-2.64,1.64-4.75,4.17-4.75,2.17,0,3.09,1.57,3.09,3.83a7.92,7.92,0,0,1-.05,1Zm4-1.05c.13-1.24-.23-2.75-1.75-2.75-1.28,0-2.11,1.12-2.22,2.75Z"/><path class="cls-4" d="M146,308.8a7.5,7.5,0,0,1,1.32.23,3.12,3.12,0,0,1,0,.87h-4.34a2.25,2.25,0,0,1,.25-.81,6.09,6.09,0,0,1,1.16-.34v-6.4h-1.32a2,2,0,0,1,.32-1,4.44,4.44,0,0,1,1.5-.25,3.2,3.2,0,0,1,.85.1v1.32H146a3.27,3.27,0,0,1,2.91-1.53c1.43,0,2.7.45,2.7,3.24,0,1.51,0,3-.11,4.52A9.14,9.14,0,0,1,153,309a2.34,2.34,0,0,1,.06.56,1.62,1.62,0,0,1,0,.31h-4.29a2.48,2.48,0,0,1,.26-.81,5.65,5.65,0,0,1,1-.34v-4.22c0-1.38-.44-2.27-1.7-2.27a3.19,3.19,0,0,0-2.26,1.16Z"/><path class="cls-4" d="M159.66,302.35a2.37,2.37,0,0,0-1-.27c-1.56,0-2.68,1-2.68,3.39s1.19,3.49,2.82,3.49a7.67,7.67,0,0,0,2.23-.43,2.24,2.24,0,0,1-.26,1,6.32,6.32,0,0,1-2.67.65c-2.34,0-3.84-1.87-3.84-4.39,0-2.79,1.79-4.77,4.43-4.77a4.33,4.33,0,0,1,2.37.65c0,.18,0,.47,0,.65a4.14,4.14,0,0,1-.26,1.53,2.9,2.9,0,0,1-1.13-.24Z"/><path class="cls-4" d="M162.51,302.35a2.12,2.12,0,0,1,.33-1,5.12,5.12,0,0,1,1.63-.25,4,4,0,0,1,.94.1v7.53a9.73,9.73,0,0,1,1.42.25,2.34,2.34,0,0,1,.06.56,1.62,1.62,0,0,1,0,.31h-4.45a2.48,2.48,0,0,1,.26-.81,6,6,0,0,1,1.15-.34v-6.4Zm3.17-4.19a1,1,0,0,1-1,1.06.94.94,0,0,1-1-1.06,1,1,0,0,1,1-1A.94.94,0,0,1,165.68,298.16Z"/><path class="cls-4" d="M173.2,308.84a2.78,2.78,0,0,1-2.53,1.36,2.35,2.35,0,0,1-2.57-2.41c0-1.85,1.57-2.81,3.36-2.81a4.54,4.54,0,0,1,1.69.31v-1c0-1.34-.58-2-1.72-2a5.75,5.75,0,0,0-2.64.88,1.6,1.6,0,0,1-.09-.61,2,2,0,0,1,.2-.9,7.39,7.39,0,0,1,2.94-.63c2,0,2.84.95,2.84,3.42V308a1.58,1.58,0,0,0,.24.94,5.51,5.51,0,0,0,1.24-.22.79.79,0,0,1,0,.2,1.89,1.89,0,0,1-.18.81,4.64,4.64,0,0,1-1.95.52,1.89,1.89,0,0,1-.76-1.36Zm0-2.76a5.86,5.86,0,0,0-1.26-.14c-1.41,0-2.21.63-2.21,1.58a1.46,1.46,0,0,0,1.65,1.44,2.27,2.27,0,0,0,1.82-.88Z"/><path class="cls-4" d="M187.05,297.94h-1.3a2.11,2.11,0,0,1,.32-.95,5.17,5.17,0,0,1,1.63-.25,3.76,3.76,0,0,1,.92.1v10.68a4.78,4.78,0,0,0,.15,1.28h1.35a1,1,0,0,1,0,.23,2.25,2.25,0,0,1-.14.72,10,10,0,0,1-2.44.36,3.24,3.24,0,0,1-.37-1.29h-.09a2.91,2.91,0,0,1-2.71,1.38c-1.57,0-3.36-1.08-3.36-4.34,0-2.9,1.79-4.82,4.38-4.82a3.15,3.15,0,0,1,1.64.43Zm0,4.43a5,5,0,0,0-1.5-.25c-2,0-2.89,1.4-2.89,3.49s1,3.37,2.33,3.37a2.36,2.36,0,0,0,2.06-1.08Z"/><path class="cls-4" d="M193.05,305.83a2.9,2.9,0,0,0,2.95,3.11,8.36,8.36,0,0,0,2.53-.5,1.88,1.88,0,0,1-.23,1,6.15,6.15,0,0,1-2.86.74c-2.59,0-4.07-1.92-4.07-4.41,0-2.64,1.65-4.75,4.18-4.75,2.17,0,3.09,1.57,3.09,3.83,0,.31,0,.63,0,1Zm4-1.05c.13-1.24-.23-2.75-1.75-2.75-1.29,0-2.12,1.12-2.23,2.75Z"/><path class="cls-4" d="M209.11,308.84a2.77,2.77,0,0,1-2.53,1.36,2.35,2.35,0,0,1-2.57-2.41c0-1.85,1.58-2.81,3.37-2.81a4.53,4.53,0,0,1,1.68.31v-1c0-1.34-.58-2-1.72-2a5.75,5.75,0,0,0-2.64.88,1.6,1.6,0,0,1-.09-.61,2,2,0,0,1,.2-.9,7.48,7.48,0,0,1,2.95-.63c2,0,2.84.95,2.84,3.42V308a1.66,1.66,0,0,0,.23.94,5.68,5.68,0,0,0,1.25-.22.79.79,0,0,1,0,.2,1.9,1.9,0,0,1-.19.81,4.55,4.55,0,0,1-1.95.52,1.92,1.92,0,0,1-.76-1.36Zm0-2.76a6,6,0,0,0-1.27-.14c-1.41,0-2.21.63-2.21,1.58a1.46,1.46,0,0,0,1.65,1.44,2.3,2.3,0,0,0,1.83-.88Z"/><path class="cls-4" d="M216,303a2.41,2.41,0,0,1,2.35-1.92,2.6,2.6,0,0,1,.81.14,2.31,2.31,0,0,1,.23,1.08,1.85,1.85,0,0,1-.05.49,2.47,2.47,0,0,0-1.23-.31,2.24,2.24,0,0,0-2.08,1.48v4.83a8.77,8.77,0,0,1,1.79.32,2.54,2.54,0,0,1,0,.83H213a2.25,2.25,0,0,1,.25-.81,6.31,6.31,0,0,1,1.16-.34v-6.4h-1.32a2.11,2.11,0,0,1,.32-1,4.63,4.63,0,0,1,1.51-.25,3.17,3.17,0,0,1,.84.1V303Z"/><path class="cls-4" d="M223.25,308.8a7.33,7.33,0,0,1,1.32.23,2.51,2.51,0,0,1,0,.87h-4.34a2.73,2.73,0,0,1,.25-.81,6.31,6.31,0,0,1,1.16-.34v-6.4h-1.32a2,2,0,0,1,.33-1,4.35,4.35,0,0,1,1.5-.25,3.3,3.3,0,0,1,.85.1v1.32h.18a3.18,3.18,0,0,1,2.85-1.53,2.13,2.13,0,0,1,2.41,1.64h.09a3.16,3.16,0,0,1,2.91-1.64c1.41,0,2.66.45,2.66,3.24,0,1.53,0,3-.11,4.52a9.14,9.14,0,0,1,1.46.23,2.34,2.34,0,0,1,.06.56,1.62,1.62,0,0,1,0,.31h-4.29a2.48,2.48,0,0,1,.26-.81,5.65,5.65,0,0,1,1-.34v-4.22c0-1.38-.42-2.27-1.67-2.27a3.12,3.12,0,0,0-2.2,1.16v5.36A7.39,7.39,0,0,1,230,309a3.12,3.12,0,0,1,0,.87h-4.18a2.25,2.25,0,0,1,.25-.81,5.65,5.65,0,0,1,1-.34v-4.22c0-1.38-.41-2.27-1.66-2.27a3.09,3.09,0,0,0-2.21,1.16Z"/><path class="cls-4" d="M241.79,308.84a2.78,2.78,0,0,1-2.53,1.36,2.35,2.35,0,0,1-2.57-2.41c0-1.85,1.57-2.81,3.36-2.81a4.45,4.45,0,0,1,1.68.31v-1c0-1.34-.58-2-1.71-2a5.75,5.75,0,0,0-2.64.88,1.42,1.42,0,0,1-.1-.61,2.14,2.14,0,0,1,.2-.9,7.48,7.48,0,0,1,3-.63c2,0,2.84.95,2.84,3.42V308a1.58,1.58,0,0,0,.24.94,5.51,5.51,0,0,0,1.24-.22.79.79,0,0,1,0,.2,1.89,1.89,0,0,1-.18.81,4.64,4.64,0,0,1-2,.52,1.85,1.85,0,0,1-.76-1.36Zm0-2.76a5.86,5.86,0,0,0-1.26-.14c-1.41,0-2.21.63-2.21,1.58a1.46,1.46,0,0,0,1.65,1.44,2.27,2.27,0,0,0,1.82-.88Z"/><path class="cls-4" d="M250.38,302.19a2.93,2.93,0,0,0-1.07-.22c-.94,0-1.48.44-1.48,1.1,0,2,4.21,1.41,4.21,4.54,0,1.87-1.57,2.59-3.25,2.59a5.55,5.55,0,0,1-2.77-.68,3.66,3.66,0,0,1-.09-.86,5.19,5.19,0,0,1,.18-1.28,5.14,5.14,0,0,1,1.3.16v1.24a2.89,2.89,0,0,0,1.52.42,1.37,1.37,0,0,0,1.52-1.36c0-2.14-4.25-1.36-4.25-4.55,0-1.32,1.21-2.25,3-2.25a6.89,6.89,0,0,1,2.55.47,2.41,2.41,0,0,1,0,.55,5.79,5.79,0,0,1-.2,1.46,2.63,2.63,0,0,1-1.21-.27Z"/><path class="cls-4" d="M1.93,332.83a2.88,2.88,0,0,0,2.94,3.11,8.3,8.3,0,0,0,2.53-.5,1.88,1.88,0,0,1-.23,1,6.15,6.15,0,0,1-2.86.74c-2.58,0-4.07-1.92-4.07-4.41,0-2.64,1.65-4.75,4.18-4.75,2.17,0,3.09,1.57,3.09,3.83,0,.31,0,.63,0,1Zm4-1.05C6,330.54,5.67,329,4.15,329c-1.28,0-2.12,1.12-2.22,2.75Z"/><path class="cls-4" d="M12,335.8a7.5,7.5,0,0,1,1.32.23,2.79,2.79,0,0,1,0,.87H9a2.48,2.48,0,0,1,.26-.81,6.2,6.2,0,0,1,1.15-.34v-6.4H9.1a2.12,2.12,0,0,1,.33-1,4.44,4.44,0,0,1,1.5-.25,3.2,3.2,0,0,1,.85.1v1.32H12A3.27,3.27,0,0,1,14.87,328c1.43,0,2.7.45,2.7,3.24,0,1.51,0,3-.11,4.52a9.14,9.14,0,0,1,1.46.23,2.34,2.34,0,0,1,.06.56,1.62,1.62,0,0,1,0,.31H14.67a2.48,2.48,0,0,1,.26-.81,5.65,5.65,0,0,1,1-.34v-4.22c0-1.38-.44-2.27-1.7-2.27A3.19,3.19,0,0,0,12,330.42Z"/><path class="cls-4" d="M28.34,329.19a2.83,2.83,0,0,0-1.06-.22c-.94,0-1.48.44-1.48,1.1,0,2,4.21,1.41,4.21,4.54,0,1.87-1.57,2.59-3.26,2.59a5.48,5.48,0,0,1-2.76-.68,3.66,3.66,0,0,1-.09-.86,5.19,5.19,0,0,1,.18-1.28,5.14,5.14,0,0,1,1.3.16v1.24a2.89,2.89,0,0,0,1.52.42,1.37,1.37,0,0,0,1.52-1.36c0-2.14-4.25-1.36-4.25-4.55,0-1.32,1.21-2.25,3-2.25a6.89,6.89,0,0,1,2.55.47,2.41,2.41,0,0,1,0,.55,5.79,5.79,0,0,1-.2,1.46,2.7,2.7,0,0,1-1.22-.27Z"/><path class="cls-4" d="M38,329.35h-1.3a2.12,2.12,0,0,1,.33-1,4.86,4.86,0,0,1,1.63-.25,3.82,3.82,0,0,1,.92.1v6.27a5.18,5.18,0,0,0,.14,1.28h1.38a1.93,1.93,0,0,1,0,.23,2.25,2.25,0,0,1-.14.72,10.32,10.32,0,0,1-2.48.36,3.75,3.75,0,0,1-.36-1.42H38a3.2,3.2,0,0,1-2.87,1.51c-1.41,0-2.66-.45-2.66-3.24,0-1.51,0-3.09.09-4.61H31.18a2.26,2.26,0,0,1,.33-.93,4.73,4.73,0,0,1,1.64-.27,3.84,3.84,0,0,1,.93.1v5.46c0,1.37.43,2.25,1.66,2.25a3.09,3.09,0,0,0,2.22-1.1Z"/><path class="cls-4" d="M54.24,325.59a4.64,4.64,0,0,0-2-.4c-2.41,0-4.36,1.79-4.36,5.26,0,3.69,1.75,5.4,4.32,5.4a11.38,11.38,0,0,0,3.38-.63,2.85,2.85,0,0,1-.2,1.14,9.22,9.22,0,0,1-3.85.9c-3.24,0-5.42-2.69-5.42-6.34,0-4.32,2.84-6.88,6.23-6.88a7.56,7.56,0,0,1,3.35.69,17.93,17.93,0,0,1-.22,3,3.5,3.5,0,0,1-1.28-.28Z"/><path class="cls-4" d="M65.14,332.49c0,3-1.61,4.71-4.1,4.71s-4.12-1.62-4.12-4.71c0-2.76,1.77-4.45,4.12-4.45S65.14,329.62,65.14,332.49ZM61,336.12c1.66,0,2.46-1.4,2.46-3.63,0-1.93-1-3.39-2.46-3.39s-2.48,1.35-2.48,3.39S59.5,336.12,61,336.12Z"/><path class="cls-4" d="M69.68,335.8A7.33,7.33,0,0,1,71,336a2.51,2.51,0,0,1,0,.87H66.7a2.73,2.73,0,0,1,.25-.81,6.31,6.31,0,0,1,1.16-.34v-6.4H66.79a2,2,0,0,1,.33-1,4.39,4.39,0,0,1,1.5-.25,3.3,3.3,0,0,1,.85.1v1.32h.18A3.24,3.24,0,0,1,72.56,328c1.43,0,2.69.45,2.69,3.24,0,1.51,0,3-.11,4.52a9.28,9.28,0,0,1,1.47.23,3.06,3.06,0,0,1,0,.56,1.62,1.62,0,0,1,0,.31H72.36a2.73,2.73,0,0,1,.25-.81,5.92,5.92,0,0,1,1-.34v-4.22c0-1.38-.43-2.27-1.7-2.27a3.19,3.19,0,0,0-2.26,1.16Z"/><path class="cls-4" d="M82.32,329.19a2.88,2.88,0,0,0-1.06-.22c-.94,0-1.49.44-1.49,1.1,0,2,4.22,1.41,4.22,4.54,0,1.87-1.58,2.59-3.26,2.59a5.48,5.48,0,0,1-2.76-.68,3.66,3.66,0,0,1-.09-.86,5.19,5.19,0,0,1,.18-1.28,5.2,5.2,0,0,1,1.3.16v1.24a2.84,2.84,0,0,0,1.52.42,1.37,1.37,0,0,0,1.52-1.36c0-2.14-4.25-1.36-4.25-4.55,0-1.32,1.21-2.25,3-2.25a6.93,6.93,0,0,1,2.55.47,3.2,3.2,0,0,1,0,.55,5.79,5.79,0,0,1-.2,1.46,2.69,2.69,0,0,1-1.21-.27Z"/><path class="cls-4" d="M86.73,326.15a3.17,3.17,0,0,1,1.22-.29v2.48h2.62a4.92,4.92,0,0,1,.05,1.05H88v4.95c0,1.17.16,1.68,1.17,1.68a6.81,6.81,0,0,0,1.68-.24,1.1,1.1,0,0,1,0,.24,1.64,1.64,0,0,1-.18.7,5.92,5.92,0,0,1-2.22.48c-1.4,0-2.1-.75-2.1-2.61,0-1.06,0-3.38.09-5.2H85.16a2.86,2.86,0,0,1,.22-.94,6.16,6.16,0,0,1,1.05-.32Z"/><path class="cls-4" d="M91.83,329.35a2.12,2.12,0,0,1,.33-1,5.17,5.17,0,0,1,1.63-.25,4,4,0,0,1,.94.1v7.53a9.88,9.88,0,0,1,1.43.25,3.06,3.06,0,0,1,0,.56,1.62,1.62,0,0,1,0,.31H91.74a2.48,2.48,0,0,1,.26-.81,6.2,6.2,0,0,1,1.15-.34v-6.4ZM95,325.16a1,1,0,0,1-1,1.06.93.93,0,0,1-1-1.06,1,1,0,0,1,1-1A.93.93,0,0,1,95,325.16Z"/><path class="cls-4" d="M98.58,326.15a3.12,3.12,0,0,1,1.21-.29v2.48h2.62a4.87,4.87,0,0,1,.06,1.05H99.79v4.95c0,1.17.16,1.68,1.18,1.68a6.87,6.87,0,0,0,1.68-.24,1.1,1.1,0,0,1,0,.24,1.51,1.51,0,0,1-.19.7,5.92,5.92,0,0,1-2.22.48c-1.39,0-2.1-.75-2.1-2.61,0-1.06,0-3.38.09-5.2H97a2.84,2.84,0,0,1,.21-.94,6.44,6.44,0,0,1,1-.32Z"/><path class="cls-4" d="M110.12,329.35h-1.31a2.12,2.12,0,0,1,.33-1,4.9,4.9,0,0,1,1.63-.25,3.82,3.82,0,0,1,.92.1v6.27a5.7,5.7,0,0,0,.14,1.28h1.38a1,1,0,0,1,0,.23,2.24,2.24,0,0,1-.15.72,10.32,10.32,0,0,1-2.48.36,4,4,0,0,1-.36-1.42h-.09a3.18,3.18,0,0,1-2.87,1.51c-1.41,0-2.66-.45-2.66-3.24,0-1.51,0-3.09.09-4.61h-1.37a2.11,2.11,0,0,1,.32-.93,4.75,4.75,0,0,1,1.65-.27,3.82,3.82,0,0,1,.92.1v5.46c0,1.37.43,2.25,1.66,2.25a3.09,3.09,0,0,0,2.23-1.1Z"/><path class="cls-4" d="M120.06,329.35a2.31,2.31,0,0,0-1-.27c-1.55,0-2.67,1-2.67,3.39s1.19,3.49,2.82,3.49a7.6,7.6,0,0,0,2.22-.43,2.11,2.11,0,0,1-.25,1,6.37,6.37,0,0,1-2.68.65c-2.33,0-3.83-1.87-3.83-4.39,0-2.79,1.79-4.77,4.43-4.77a4.35,4.35,0,0,1,2.37.65c0,.18,0,.47,0,.65a4.35,4.35,0,0,1-.25,1.53,3,3,0,0,1-1.14-.24Z"/><path class="cls-4" d="M122.92,329.35a2.11,2.11,0,0,1,.32-1,5.22,5.22,0,0,1,1.63-.25,3.93,3.93,0,0,1,.94.1v7.53a9.88,9.88,0,0,1,1.43.25,2.38,2.38,0,0,1,.05.56c0,.11,0,.2,0,.31h-4.45a2.47,2.47,0,0,1,.25-.81,6.31,6.31,0,0,1,1.16-.34v-6.4Zm3.16-4.19a1,1,0,0,1-1,1.06.93.93,0,0,1-1-1.06,1,1,0,0,1,1-1A.93.93,0,0,1,126.08,325.16Z"/><path class="cls-4" d="M136.79,332.49c0,3-1.61,4.71-4.11,4.71s-4.12-1.62-4.12-4.71c0-2.76,1.77-4.45,4.12-4.45S136.79,329.62,136.79,332.49Zm-4.11,3.63c1.67,0,2.46-1.4,2.46-3.63,0-1.93-1-3.39-2.46-3.39s-2.47,1.35-2.47,3.39S131.15,336.12,132.68,336.12Zm-.38-8.93a2.52,2.52,0,0,1-.92-.77l2-2.81a3.67,3.67,0,0,1,1.59.63Z"/><path class="cls-4" d="M141.33,335.8a7.5,7.5,0,0,1,1.32.23,2.79,2.79,0,0,1,0,.87h-4.34a2.48,2.48,0,0,1,.26-.81,6.2,6.2,0,0,1,1.15-.34v-6.4h-1.32a2.12,2.12,0,0,1,.33-1,4.44,4.44,0,0,1,1.5-.25,3.2,3.2,0,0,1,.85.1v1.32h.18A3.25,3.25,0,0,1,144.2,328c1.43,0,2.7.45,2.7,3.24,0,1.51,0,3-.11,4.52a9.14,9.14,0,0,1,1.46.23,2.34,2.34,0,0,1,.06.56,1.62,1.62,0,0,1,0,.31H144a2.48,2.48,0,0,1,.26-.81,5.65,5.65,0,0,1,1-.34v-4.22c0-1.38-.44-2.27-1.7-2.27a3.19,3.19,0,0,0-2.26,1.16Z"/><path class="cls-4" d="M149.63,336.41a3.74,3.74,0,0,1,.59-1.2,3.19,3.19,0,0,1,.75-.08,4.21,4.21,0,0,1,1.33.22,16,16,0,0,1-1.64,4.25,3.18,3.18,0,0,1-1-.47,16.36,16.36,0,0,0,.69-2.54Z"/><path class="cls-4" d="M164.06,329.35h-1.3a2,2,0,0,1,.32-1,4.9,4.9,0,0,1,1.63-.25,3.82,3.82,0,0,1,.92.1v6.27a5.7,5.7,0,0,0,.14,1.28h1.38a1,1,0,0,1,0,.23,2,2,0,0,1-.15.72,10.31,10.31,0,0,1-2.47.36,3.75,3.75,0,0,1-.37-1.42h-.09a3.18,3.18,0,0,1-2.87,1.51c-1.41,0-2.66-.45-2.66-3.24,0-1.51,0-3.09.09-4.61h-1.37a2.11,2.11,0,0,1,.32-.93,4.75,4.75,0,0,1,1.65-.27,3.82,3.82,0,0,1,.92.1v5.46c0,1.37.43,2.25,1.66,2.25a3.09,3.09,0,0,0,2.23-1.1Z"/><path class="cls-4" d="M171.33,335.8a7.5,7.5,0,0,1,1.32.23,2.79,2.79,0,0,1,0,.87h-4.34a2.48,2.48,0,0,1,.26-.81,6.2,6.2,0,0,1,1.15-.34v-6.4h-1.32a2.12,2.12,0,0,1,.33-1,4.44,4.44,0,0,1,1.5-.25,3.2,3.2,0,0,1,.85.1v1.32h.18A3.25,3.25,0,0,1,174.2,328c1.43,0,2.7.45,2.7,3.24,0,1.51,0,3-.11,4.52a9.14,9.14,0,0,1,1.46.23,2.34,2.34,0,0,1,.06.56,1.62,1.62,0,0,1,0,.31H174a2.48,2.48,0,0,1,.26-.81,5.65,5.65,0,0,1,1-.34v-4.22c0-1.38-.44-2.27-1.7-2.27a3.19,3.19,0,0,0-2.26,1.16Z"/><path class="cls-4" d="M187.73,332.49c0,3-1.61,4.71-4.11,4.71s-4.12-1.62-4.12-4.71c0-2.76,1.77-4.45,4.12-4.45S187.73,329.62,187.73,332.49Zm-4.11,3.63c1.67,0,2.46-1.4,2.46-3.63,0-1.93-1-3.39-2.46-3.39s-2.47,1.35-2.47,3.39S182.09,336.12,183.62,336.12Z"/><path class="cls-4" d="M199.23,324.94h-1.3a2,2,0,0,1,.32-.95,5.17,5.17,0,0,1,1.63-.25,3.76,3.76,0,0,1,.92.1v10.68a4.78,4.78,0,0,0,.15,1.28h1.35a1,1,0,0,1,0,.23,2.25,2.25,0,0,1-.14.72,10,10,0,0,1-2.44.36,3.24,3.24,0,0,1-.37-1.29h-.09a2.91,2.91,0,0,1-2.71,1.38c-1.57,0-3.36-1.08-3.36-4.34,0-2.9,1.79-4.82,4.37-4.82a3.16,3.16,0,0,1,1.65.43Zm0,4.43a5,5,0,0,0-1.5-.25c-2,0-2.9,1.4-2.9,3.49s1,3.37,2.34,3.37a2.38,2.38,0,0,0,2.06-1.08Z"/><path class="cls-4" d="M205.23,332.83a2.9,2.9,0,0,0,3,3.11,8.36,8.36,0,0,0,2.53-.5,1.88,1.88,0,0,1-.23,1,6.15,6.15,0,0,1-2.86.74c-2.59,0-4.07-1.92-4.07-4.41,0-2.64,1.65-4.75,4.18-4.75,2.17,0,3.09,1.57,3.09,3.83,0,.31,0,.63,0,1Zm4-1.05c.13-1.24-.23-2.75-1.75-2.75-1.29,0-2.12,1.12-2.23,2.75Z"/><path class="cls-4" d="M217.93,332.83a2.89,2.89,0,0,0,2.94,3.11,8.43,8.43,0,0,0,2.54-.5,2,2,0,0,1-.24,1,6.12,6.12,0,0,1-2.86.74c-2.58,0-4.06-1.92-4.06-4.41,0-2.64,1.64-4.75,4.17-4.75,2.17,0,3.09,1.57,3.09,3.83a7.92,7.92,0,0,1,0,1Zm4-1.05c.13-1.24-.23-2.75-1.75-2.75-1.28,0-2.11,1.12-2.22,2.75Z"/><path class="cls-4" d="M224.94,324.94a2.12,2.12,0,0,1,.33-.95,5.17,5.17,0,0,1,1.63-.25,3.82,3.82,0,0,1,.92.1v11.94a10.31,10.31,0,0,1,1.46.25,2.34,2.34,0,0,1,.06.56,1.62,1.62,0,0,1,0,.31h-4.48a2.25,2.25,0,0,1,.25-.81,6.09,6.09,0,0,1,1.16-.34V324.94Z"/><path class="cls-4" d="M230.3,324.94a2,2,0,0,1,.32-.95,5.17,5.17,0,0,1,1.63-.25,3.82,3.82,0,0,1,.92.1v11.94a10.46,10.46,0,0,1,1.47.25,3.06,3.06,0,0,1,.05.56,1.62,1.62,0,0,1,0,.31h-4.48a2.25,2.25,0,0,1,.25-.81,6.31,6.31,0,0,1,1.16-.34V324.94Z"/><path class="cls-4" d="M244.17,332.49c0,3-1.61,4.71-4.11,4.71s-4.12-1.62-4.12-4.71c0-2.76,1.77-4.45,4.12-4.45S244.17,329.62,244.17,332.49Zm-4.11,3.63c1.66,0,2.46-1.4,2.46-3.63,0-1.93-1-3.39-2.46-3.39s-2.48,1.35-2.48,3.39S238.52,336.12,240.06,336.12Z"/><path class="cls-4" d="M250.4,329.19a2.88,2.88,0,0,0-1.06-.22c-.94,0-1.49.44-1.49,1.1,0,2,4.22,1.41,4.22,4.54,0,1.87-1.58,2.59-3.26,2.59a5.48,5.48,0,0,1-2.76-.68,3.66,3.66,0,0,1-.09-.86,5.19,5.19,0,0,1,.18-1.28,5.2,5.2,0,0,1,1.3.16v1.24a2.86,2.86,0,0,0,1.52.42,1.37,1.37,0,0,0,1.52-1.36c0-2.14-4.25-1.36-4.25-4.55,0-1.32,1.21-2.25,3-2.25a6.93,6.93,0,0,1,2.55.47,3.2,3.2,0,0,1,0,.55,5.79,5.79,0,0,1-.2,1.46,2.69,2.69,0,0,1-1.21-.27Z"/><path class="cls-4" d="M1.68,359.83a2.9,2.9,0,0,0,3,3.11,8.36,8.36,0,0,0,2.53-.5,1.88,1.88,0,0,1-.23,1,6.19,6.19,0,0,1-2.86.74c-2.59,0-4.07-1.92-4.07-4.41C0,357.15,1.65,355,4.18,355c2.17,0,3.09,1.57,3.09,3.83a8,8,0,0,1-.06,1Zm4-1.05c.13-1.24-.24-2.75-1.75-2.75-1.29,0-2.12,1.12-2.23,2.75Z"/><path class="cls-4" d="M13.45,356.19a2.88,2.88,0,0,0-1.06-.22c-.94,0-1.49.44-1.49,1.1,0,2,4.22,1.41,4.22,4.54,0,1.87-1.58,2.59-3.26,2.59a5.48,5.48,0,0,1-2.76-.68,3.66,3.66,0,0,1-.09-.86,5.19,5.19,0,0,1,.18-1.28,5.2,5.2,0,0,1,1.3.16v1.24a2.84,2.84,0,0,0,1.52.42,1.37,1.37,0,0,0,1.52-1.36c0-2.14-4.25-1.36-4.25-4.55,0-1.32,1.21-2.25,3-2.25a6.93,6.93,0,0,1,2.55.47,3.2,3.2,0,0,1,0,.55,5.79,5.79,0,0,1-.2,1.46,2.69,2.69,0,0,1-1.21-.27Z"/><path class="cls-4" d="M30.45,363.46a16.28,16.28,0,0,1-4.39.8c-3.58,0-5.66-2.51-5.66-6.23,0-4.22,2.58-7,6.63-7a6.4,6.4,0,0,1,3.51.94,16.9,16.9,0,0,1-.23,2.81,3.59,3.59,0,0,1-1.25-.29v-1.73a4.13,4.13,0,0,0-2.21-.61c-2.51,0-4.7,1.82-4.7,5.6,0,3.58,1.83,5.26,4.39,5.26a14.51,14.51,0,0,0,2.3-.22V359a22.07,22.07,0,0,1-2.46-.18,4,4,0,0,1-.12-1.06H32a7.16,7.16,0,0,1-.17,1.1,12.11,12.11,0,0,1-1.39.14Z"/><path class="cls-4" d="M39.51,356.35h-1.3a2.11,2.11,0,0,1,.32-1,4.9,4.9,0,0,1,1.63-.25,3.76,3.76,0,0,1,.92.1v6.27a5.2,5.2,0,0,0,.15,1.28H42.6a1,1,0,0,1,0,.23,2.25,2.25,0,0,1-.14.72,10.46,10.46,0,0,1-2.48.36,3.58,3.58,0,0,1-.36-1.42h-.09a3.22,3.22,0,0,1-2.88,1.51c-1.41,0-2.66-.45-2.66-3.24,0-1.51,0-3.09.09-4.61H32.73a2.13,2.13,0,0,1,.33-.93,4.65,4.65,0,0,1,1.64-.27,3.76,3.76,0,0,1,.92.1v5.46c0,1.37.44,2.25,1.67,2.25a3.09,3.09,0,0,0,2.22-1.1Z"/><path class="cls-4" d="M49.06,362.84a2.78,2.78,0,0,1-2.53,1.36A2.35,2.35,0,0,1,44,361.79c0-1.85,1.57-2.81,3.36-2.81a4.45,4.45,0,0,1,1.68.31v-1c0-1.34-.57-2-1.71-2a5.75,5.75,0,0,0-2.64.88,1.43,1.43,0,0,1-.09-.61,2.15,2.15,0,0,1,.19-.9,7.48,7.48,0,0,1,3-.63c2,0,2.84.95,2.84,3.42V362a1.58,1.58,0,0,0,.24.94,5.51,5.51,0,0,0,1.24-.22.79.79,0,0,1,0,.2,1.89,1.89,0,0,1-.18.81,4.64,4.64,0,0,1-2,.52,1.89,1.89,0,0,1-.76-1.36Zm0-2.76a5.86,5.86,0,0,0-1.26-.14c-1.41,0-2.21.63-2.21,1.58A1.46,1.46,0,0,0,47.2,363a2.27,2.27,0,0,0,1.82-.88Z"/><path class="cls-4" d="M54.28,353.15a3.17,3.17,0,0,1,1.22-.29v2.48h2.62a4.92,4.92,0,0,1,.05,1.05H55.5v4.95c0,1.17.16,1.68,1.17,1.68a6.81,6.81,0,0,0,1.68-.24,1.1,1.1,0,0,1,0,.24,1.64,1.64,0,0,1-.18.7,5.92,5.92,0,0,1-2.22.48c-1.4,0-2.1-.75-2.1-2.61,0-1.06,0-3.38.09-5.2H52.71a2.86,2.86,0,0,1,.22-.94,6.16,6.16,0,0,1,1-.32Z"/><path class="cls-4" d="M60.83,359.83a2.9,2.9,0,0,0,3,3.11,8.36,8.36,0,0,0,2.53-.5,1.81,1.81,0,0,1-.24,1,6.11,6.11,0,0,1-2.85.74c-2.59,0-4.07-1.92-4.07-4.41,0-2.64,1.64-4.75,4.18-4.75,2.17,0,3.09,1.57,3.09,3.83a8,8,0,0,1-.06,1Zm4-1.05c.13-1.24-.24-2.75-1.76-2.75-1.28,0-2.11,1.12-2.22,2.75Z"/><path class="cls-4" d="M70.9,362.8a7.33,7.33,0,0,1,1.32.23,2.51,2.51,0,0,1,0,.87H67.92a2.73,2.73,0,0,1,.25-.81,6.31,6.31,0,0,1,1.16-.34v-6.4H68a2,2,0,0,1,.33-1,4.39,4.39,0,0,1,1.5-.25,3.3,3.3,0,0,1,.85.1v1.32h.18A3.18,3.18,0,0,1,73.72,355a2.13,2.13,0,0,1,2.41,1.64h.09A3.16,3.16,0,0,1,79.13,355c1.41,0,2.66.45,2.66,3.24,0,1.53,0,3-.11,4.52a9.14,9.14,0,0,1,1.46.23,2.34,2.34,0,0,1,.06.56,1.62,1.62,0,0,1,0,.31H78.9a2.25,2.25,0,0,1,.25-.81,5.65,5.65,0,0,1,1-.34v-4.22c0-1.38-.42-2.27-1.66-2.27a3.12,3.12,0,0,0-2.21,1.16v5.36a7.39,7.39,0,0,1,1.32.25,3.12,3.12,0,0,1,0,.87H73.49a2.47,2.47,0,0,1,.25-.81,5.65,5.65,0,0,1,1-.34v-4.22c0-1.38-.41-2.27-1.66-2.27a3.11,3.11,0,0,0-2.21,1.16Z"/><path class="cls-4" d="M89.44,362.84a2.78,2.78,0,0,1-2.53,1.36,2.35,2.35,0,0,1-2.57-2.41c0-1.85,1.57-2.81,3.36-2.81a4.45,4.45,0,0,1,1.68.31v-1c0-1.34-.58-2-1.71-2a5.75,5.75,0,0,0-2.64.88,1.43,1.43,0,0,1-.09-.61,2.15,2.15,0,0,1,.19-.9,7.48,7.48,0,0,1,3-.63c2,0,2.84.95,2.84,3.42V362a1.58,1.58,0,0,0,.24.94,5.51,5.51,0,0,0,1.24-.22.79.79,0,0,1,0,.2,1.89,1.89,0,0,1-.18.81,4.64,4.64,0,0,1-1.95.52,1.89,1.89,0,0,1-.76-1.36Zm0-2.76a5.86,5.86,0,0,0-1.26-.14c-1.41,0-2.21.63-2.21,1.58A1.46,1.46,0,0,0,87.58,363a2.27,2.27,0,0,0,1.82-.88Z"/><path class="cls-4" d="M93.27,351.94a2.12,2.12,0,0,1,.33-.95,5.11,5.11,0,0,1,1.62-.25,3.84,3.84,0,0,1,.93.1v11.94a10.31,10.31,0,0,1,1.46.25,2.34,2.34,0,0,1,.06.56,1.62,1.62,0,0,1,0,.31H93.16a2.48,2.48,0,0,1,.26-.81,6.2,6.2,0,0,1,1.15-.34V351.94Z"/><path class="cls-4" d="M104,362.84a2.78,2.78,0,0,1-2.53,1.36,2.35,2.35,0,0,1-2.57-2.41c0-1.85,1.57-2.81,3.36-2.81a4.45,4.45,0,0,1,1.68.31v-1c0-1.34-.57-2-1.71-2a5.75,5.75,0,0,0-2.64.88,1.43,1.43,0,0,1-.09-.61,2.15,2.15,0,0,1,.19-.9,7.48,7.48,0,0,1,2.95-.63c2,0,2.84.95,2.84,3.42V362a1.58,1.58,0,0,0,.24.94,5.51,5.51,0,0,0,1.24-.22.79.79,0,0,1,0,.2,1.89,1.89,0,0,1-.18.81,4.64,4.64,0,0,1-2,.52,1.89,1.89,0,0,1-.76-1.36Zm0-2.76a5.86,5.86,0,0,0-1.26-.14c-1.41,0-2.21.63-2.21,1.58A1.46,1.46,0,0,0,102.1,363a2.27,2.27,0,0,0,1.82-.88Z"/><path class="cls-4" d="M110.94,362.93a1.07,1.07,0,0,1-1.12,1.18,1,1,0,0,1-1.16-1.18,1.09,1.09,0,0,1,1.16-1.1A1,1,0,0,1,110.94,362.93Z"/><path class="cls-4" d="M118.26,352.55a12.35,12.35,0,0,1-1.34-.12,4,4,0,0,1,0-1h4.74a2.87,2.87,0,0,1,0,1,14.09,14.09,0,0,1-1.66.14v10.2h4.48a17.55,17.55,0,0,1,.2-1.81,4.89,4.89,0,0,1,1.17-.12v3.08h-9.15a4.6,4.6,0,0,1,.22-1,11.22,11.22,0,0,1,1.41-.23Z"/><path class="cls-4" d="M135.21,359.49c0,3-1.61,4.71-4.11,4.71s-4.12-1.62-4.12-4.71c0-2.76,1.77-4.45,4.12-4.45S135.21,356.62,135.21,359.49Zm-4.11,3.63c1.66,0,2.46-1.4,2.46-3.63,0-1.93-1-3.39-2.46-3.39s-2.48,1.35-2.48,3.39S129.56,363.12,131.1,363.12Z"/><path class="cls-4" d="M141.44,356.19a2.88,2.88,0,0,0-1.06-.22c-.94,0-1.49.44-1.49,1.1,0,2,4.22,1.41,4.22,4.54,0,1.87-1.58,2.59-3.26,2.59a5.48,5.48,0,0,1-2.76-.68,3.66,3.66,0,0,1-.09-.86,5.19,5.19,0,0,1,.18-1.28,5.2,5.2,0,0,1,1.3.16v1.24a2.86,2.86,0,0,0,1.52.42,1.37,1.37,0,0,0,1.52-1.36c0-2.14-4.25-1.36-4.25-4.55,0-1.32,1.21-2.25,3-2.25a6.93,6.93,0,0,1,2.55.47,3.2,3.2,0,0,1,0,.55,6.31,6.31,0,0,1-.19,1.46,2.7,2.7,0,0,1-1.22-.27Z"/><path class="cls-4" d="M156.69,359.49c0,3-1.61,4.71-4.11,4.71s-4.12-1.62-4.12-4.71c0-2.76,1.77-4.45,4.12-4.45S156.69,356.62,156.69,359.49Zm-4.11,3.63c1.67,0,2.46-1.4,2.46-3.63,0-1.93-1-3.39-2.46-3.39s-2.48,1.35-2.48,3.39S151.05,363.12,152.58,363.12Z"/><path class="cls-4" d="M159.56,353.15a3.12,3.12,0,0,1,1.21-.29v2.48h2.63a4.92,4.92,0,0,1,0,1.05h-2.68v4.95c0,1.17.17,1.68,1.18,1.68a6.81,6.81,0,0,0,1.68-.24,1.1,1.1,0,0,1,0,.24,1.64,1.64,0,0,1-.18.7,5.93,5.93,0,0,1-2.23.48c-1.39,0-2.09-.75-2.09-2.61,0-1.06,0-3.38.09-5.2H158a2.86,2.86,0,0,1,.22-.94,6.16,6.16,0,0,1,1-.32Z"/><path class="cls-4" d="M167.52,357a2.41,2.41,0,0,1,2.35-1.92,2.51,2.51,0,0,1,.81.14,2.3,2.3,0,0,1,.24,1.08,1.83,1.83,0,0,1-.06.49,2.43,2.43,0,0,0-1.22-.31,2.23,2.23,0,0,0-2.08,1.48v4.83a9,9,0,0,1,1.79.32,2.54,2.54,0,0,1,0,.83h-4.81a2.48,2.48,0,0,1,.26-.81,6,6,0,0,1,1.15-.34v-6.4h-1.32a2.12,2.12,0,0,1,.33-1,4.57,4.57,0,0,1,1.5-.25,3.2,3.2,0,0,1,.85.1V357Z"/><path class="cls-4" d="M180.16,359.49c0,3-1.61,4.71-4.11,4.71s-4.12-1.62-4.12-4.71c0-2.76,1.77-4.45,4.12-4.45S180.16,356.62,180.16,359.49Zm-4.11,3.63c1.67,0,2.46-1.4,2.46-3.63,0-1.93-.95-3.39-2.46-3.39s-2.47,1.35-2.47,3.39S174.52,363.12,176.05,363.12Z"/><path class="cls-4" d="M186.4,356.19a2.89,2.89,0,0,0-1.07-.22c-.94,0-1.48.44-1.48,1.1,0,2,4.21,1.41,4.21,4.54,0,1.87-1.57,2.59-3.25,2.59a5.55,5.55,0,0,1-2.77-.68,4.29,4.29,0,0,1-.09-.86,5.19,5.19,0,0,1,.18-1.28,5.14,5.14,0,0,1,1.3.16v1.24a2.89,2.89,0,0,0,1.52.42,1.37,1.37,0,0,0,1.52-1.36c0-2.14-4.25-1.36-4.25-4.55,0-1.32,1.21-2.25,3-2.25a6.89,6.89,0,0,1,2.55.47,2.41,2.41,0,0,1,0,.55,5.79,5.79,0,0,1-.2,1.46,2.66,2.66,0,0,1-1.21-.27Z"/><path class="cls-4" d="M199.44,351.94h-1.31a2.12,2.12,0,0,1,.33-.95,5.12,5.12,0,0,1,1.63-.25,3.82,3.82,0,0,1,.92.1v10.68a4.79,4.79,0,0,0,.14,1.28h1.36a1,1,0,0,1,0,.23,2.24,2.24,0,0,1-.15.72,9.94,9.94,0,0,1-2.44.36,3.24,3.24,0,0,1-.36-1.29h-.09a2.91,2.91,0,0,1-2.71,1.38c-1.58,0-3.37-1.08-3.37-4.34,0-2.9,1.79-4.82,4.38-4.82a3.16,3.16,0,0,1,1.65.43Zm0,4.43a4.9,4.9,0,0,0-1.5-.25c-2,0-2.89,1.4-2.89,3.49s1,3.37,2.33,3.37a2.36,2.36,0,0,0,2.06-1.08Z"/><path class="cls-4" d="M212,359.49c0,3-1.6,4.71-4.1,4.71s-4.12-1.62-4.12-4.71c0-2.76,1.77-4.45,4.12-4.45S212,356.62,212,359.49Zm-4.1,3.63c1.66,0,2.46-1.4,2.46-3.63,0-1.93-1-3.39-2.46-3.39s-2.48,1.35-2.48,3.39S206.34,363.12,207.88,363.12Z"/><path class="cls-4" d="M218.22,356.19a2.88,2.88,0,0,0-1.06-.22c-.94,0-1.49.44-1.49,1.1,0,2,4.22,1.41,4.22,4.54,0,1.87-1.58,2.59-3.26,2.59a5.48,5.48,0,0,1-2.76-.68,3.66,3.66,0,0,1-.09-.86,5.19,5.19,0,0,1,.18-1.28,5.2,5.2,0,0,1,1.3.16v1.24a2.84,2.84,0,0,0,1.52.42,1.37,1.37,0,0,0,1.52-1.36c0-2.14-4.25-1.36-4.25-4.55,0-1.32,1.21-2.25,3-2.25a6.93,6.93,0,0,1,2.55.47,3.2,3.2,0,0,1,0,.55,6.31,6.31,0,0,1-.19,1.46,2.7,2.7,0,0,1-1.22-.27Z"/><path class="cls-4" d="M229.71,356.19a2.93,2.93,0,0,0-1.07-.22c-.94,0-1.48.44-1.48,1.1,0,2,4.21,1.41,4.21,4.54,0,1.87-1.57,2.59-3.26,2.59a5.51,5.51,0,0,1-2.76-.68,3.66,3.66,0,0,1-.09-.86,5.19,5.19,0,0,1,.18-1.28,5.14,5.14,0,0,1,1.3.16v1.24a2.89,2.89,0,0,0,1.52.42,1.37,1.37,0,0,0,1.52-1.36c0-2.14-4.25-1.36-4.25-4.55,0-1.32,1.21-2.25,3-2.25a6.89,6.89,0,0,1,2.55.47,2.41,2.41,0,0,1,0,.55,5.79,5.79,0,0,1-.2,1.46,2.63,2.63,0,0,1-1.21-.27Z"/><path class="cls-4" d="M241.24,359.49c0,3-1.61,4.71-4.1,4.71s-4.12-1.62-4.12-4.71c0-2.76,1.77-4.45,4.12-4.45S241.24,356.62,241.24,359.49Zm-4.1,3.63c1.66,0,2.46-1.4,2.46-3.63,0-1.93-1-3.39-2.46-3.39s-2.48,1.35-2.48,3.39S235.6,363.12,237.14,363.12Z"/><path class="cls-4" d="M245.78,362.8a7.33,7.33,0,0,1,1.32.23,2.79,2.79,0,0,1,0,.87H242.8a2.47,2.47,0,0,1,.25-.81,6.31,6.31,0,0,1,1.16-.34v-6.4h-1.32a2.11,2.11,0,0,1,.32-1,4.44,4.44,0,0,1,1.5-.25,3.2,3.2,0,0,1,.85.1v1.32h.19a3.24,3.24,0,0,1,2.91-1.53c1.43,0,2.69.45,2.69,3.24,0,1.51,0,3-.11,4.52a9.28,9.28,0,0,1,1.47.23,3.06,3.06,0,0,1,0,.56,1.62,1.62,0,0,1,0,.31h-4.28a2.25,2.25,0,0,1,.25-.81,5.92,5.92,0,0,1,1-.34v-4.22c0-1.38-.43-2.27-1.7-2.27a3.19,3.19,0,0,0-2.26,1.16Z"/><path class="cls-4" d="M28.71,383.26a18.41,18.41,0,0,1-1-3.67h-.12v10.17a9.55,9.55,0,0,1,1.26.18,3.41,3.41,0,0,1,0,1H24.82A4.33,4.33,0,0,1,25,390a8.1,8.1,0,0,1,1.28-.23v-10.2a12,12,0,0,1-1.32-.12,4.49,4.49,0,0,1,0-1h3.75L31.36,386a18.09,18.09,0,0,1,.85,3.08h.13a21.59,21.59,0,0,1,.9-3.08L36,378.4H39.7a2.65,2.65,0,0,1,0,1,10.64,10.64,0,0,1-1.46.14v10.18a13,13,0,0,1,1.61.18,3,3,0,0,1,.07.7,1.52,1.52,0,0,1,0,.29H35.11a4.56,4.56,0,0,1,.2-1,9.77,9.77,0,0,1,1.32-.23V379.59H36.5a19.54,19.54,0,0,1-1,3.71l-2.87,7.83h-1Z"/><path class="cls-4" d="M43,386.83a2.88,2.88,0,0,0,2.94,3.11,8.3,8.3,0,0,0,2.53-.5,1.88,1.88,0,0,1-.23,1,6.15,6.15,0,0,1-2.86.74c-2.58,0-4.07-1.92-4.07-4.41,0-2.64,1.65-4.75,4.18-4.75,2.17,0,3.09,1.57,3.09,3.83,0,.31,0,.63,0,1Zm4-1.05c.13-1.24-.23-2.75-1.75-2.75-1.28,0-2.12,1.12-2.22,2.75ZM45,381.19a2.63,2.63,0,0,1-.93-.77l2-2.81a3.62,3.62,0,0,1,1.59.63Z"/><path class="cls-4" d="M53,389.1a5.69,5.69,0,0,1-.58.68,5.79,5.79,0,0,1,1.1.22,2.44,2.44,0,0,1,.17.9h-4a2.71,2.71,0,0,1,.26-.85,7.33,7.33,0,0,1,1.12-.38l2.53-3.22-2.26-2.88a3.9,3.9,0,0,1-1-.31,3.08,3.08,0,0,1-.2-.92h3.76a5.17,5.17,0,0,1-.1.91,4.27,4.27,0,0,1-.87.21,4.37,4.37,0,0,1,.7.72l1.11,1.42,1.1-1.49a2.77,2.77,0,0,1,.58-.63,4.31,4.31,0,0,1-.94-.23,3,3,0,0,1-.15-.91h3.29a3.47,3.47,0,0,1-.18,1,3.37,3.37,0,0,1-.81.18l-2.26,3,2.6,3.33a5.35,5.35,0,0,1,1,.2,3.13,3.13,0,0,1,.18.92H55.11a2.81,2.81,0,0,1,.25-.9,5.22,5.22,0,0,1,1-.22,7.08,7.08,0,0,1-.81-.83l-1.29-1.64Z"/><path class="cls-4" d="M60.15,383.35a2.12,2.12,0,0,1,.33-1,5.11,5.11,0,0,1,1.62-.25,3.93,3.93,0,0,1,.94.1v7.53a9.64,9.64,0,0,1,1.43.25,2.34,2.34,0,0,1,.06.56,1.62,1.62,0,0,1,0,.31H60.06a2.73,2.73,0,0,1,.25-.81,6.31,6.31,0,0,1,1.16-.34v-6.4Zm3.17-4.19a1,1,0,0,1-1,1.06.93.93,0,0,1-1-1.06,1,1,0,0,1,1-1A.94.94,0,0,1,63.32,379.16Z"/><path class="cls-4" d="M71.24,383.35a2.37,2.37,0,0,0-1-.27c-1.56,0-2.68,1-2.68,3.39s1.2,3.49,2.82,3.49a7.67,7.67,0,0,0,2.23-.43,2.12,2.12,0,0,1-.26,1,6.28,6.28,0,0,1-2.67.65c-2.34,0-3.84-1.87-3.84-4.39,0-2.79,1.79-4.77,4.43-4.77a4.33,4.33,0,0,1,2.37.65c0,.18,0,.47,0,.65a4.35,4.35,0,0,1-.25,1.53,3,3,0,0,1-1.14-.24Z"/><path class="cls-4" d="M82.45,386.49c0,3-1.61,4.71-4.11,4.71s-4.12-1.62-4.12-4.71c0-2.76,1.77-4.45,4.12-4.45S82.45,383.62,82.45,386.49Zm-4.11,3.63c1.67,0,2.46-1.4,2.46-3.63,0-1.93-1-3.39-2.46-3.39s-2.47,1.35-2.47,3.39S76.81,390.12,78.34,390.12Z"/><path class="cls-4" d="M92,389.91c.11-.44.35-1.37.49-1.8l.9-2.87a15.07,15.07,0,0,1,.67-1.74,5.17,5.17,0,0,1-1.08-.24,3.06,3.06,0,0,1-.15-.92h3.46a3.75,3.75,0,0,1-.18,1,4.9,4.9,0,0,1-.85.16l-1,3a55.11,55.11,0,0,1-2.05,5.31,6.39,6.39,0,0,1-3.65,3.42,2.44,2.44,0,0,1-.67-1.33,4.85,4.85,0,0,0,3.27-2.65l-2.94-7.65a4,4,0,0,1-.94-.31,3.56,3.56,0,0,1-.18-.94h4.08a4,4,0,0,1-.14.94,9.55,9.55,0,0,1-1.32.22,12.67,12.67,0,0,1,.65,1.51l1.14,3.15a15.44,15.44,0,0,1,.4,1.75Z"/><path class="cls-4" d="M100.66,390.9a4,4,0,0,1,.22-1,10.93,10.93,0,0,1,1.41-.23V379.55a11.9,11.9,0,0,1-1.34-.12,4,4,0,0,1,0-1h8.57v2.65a4.82,4.82,0,0,1-1-.13,10,10,0,0,1-.22-1.42H104v4.57h3.42a5.35,5.35,0,0,1,.18-1,4.5,4.5,0,0,1,1-.14v3.31a3.34,3.34,0,0,1-1-.07,7.06,7.06,0,0,1-.16-1.05H104v4.61h4.37a14.46,14.46,0,0,1,.22-1.55,5.65,5.65,0,0,1,1.12-.12v2.81Z"/><path class="cls-4" d="M115.72,383.19a2.89,2.89,0,0,0-1.07-.22c-.94,0-1.48.44-1.48,1.1,0,2,4.21,1.41,4.21,4.54,0,1.87-1.57,2.59-3.25,2.59a5.55,5.55,0,0,1-2.77-.68,4.29,4.29,0,0,1-.09-.86,5.19,5.19,0,0,1,.18-1.28,5.22,5.22,0,0,1,1.31.16v1.24a2.83,2.83,0,0,0,1.51.42,1.37,1.37,0,0,0,1.52-1.36c0-2.14-4.25-1.36-4.25-4.55,0-1.32,1.22-2.25,3-2.25a6.93,6.93,0,0,1,2.55.47,3.2,3.2,0,0,1,0,.55,5.79,5.79,0,0,1-.2,1.46,2.66,2.66,0,0,1-1.21-.27Z"/><path class="cls-4" d="M120.13,380.15a3.12,3.12,0,0,1,1.21-.29v2.48H124a4.92,4.92,0,0,1,0,1.05h-2.68v4.95c0,1.17.17,1.68,1.18,1.68a6.81,6.81,0,0,0,1.68-.24,1.1,1.1,0,0,1,0,.24,1.64,1.64,0,0,1-.18.7,5.93,5.93,0,0,1-2.23.48c-1.39,0-2.09-.75-2.09-2.61,0-1.06,0-3.38.09-5.2h-1.25a2.86,2.86,0,0,1,.22-.94,6.16,6.16,0,0,1,1-.32Z"/><path class="cls-4" d="M130.4,389.84a2.77,2.77,0,0,1-2.53,1.36,2.35,2.35,0,0,1-2.57-2.41c0-1.85,1.58-2.81,3.37-2.81a4.45,4.45,0,0,1,1.68.31v-1c0-1.34-.58-2-1.72-2a5.75,5.75,0,0,0-2.64.88,1.6,1.6,0,0,1-.09-.61,2,2,0,0,1,.2-.9,7.48,7.48,0,0,1,3-.63c2,0,2.84.95,2.84,3.42V389a1.66,1.66,0,0,0,.23.94,5.58,5.58,0,0,0,1.25-.22.79.79,0,0,1,0,.2,2.05,2.05,0,0,1-.18.81,4.64,4.64,0,0,1-2,.52,1.92,1.92,0,0,1-.76-1.36Zm0-2.76a6,6,0,0,0-1.27-.14c-1.41,0-2.2.63-2.2,1.58a1.45,1.45,0,0,0,1.64,1.44,2.27,2.27,0,0,0,1.83-.88Z"/><path class="cls-4" d="M140.55,378.94h-1.3a2,2,0,0,1,.32-.95,5.17,5.17,0,0,1,1.63-.25,3.82,3.82,0,0,1,.92.1v10.68a4.78,4.78,0,0,0,.15,1.28h1.35a1,1,0,0,1,0,.23,2.25,2.25,0,0,1-.14.72,10,10,0,0,1-2.45.36,3.41,3.41,0,0,1-.36-1.29h-.09a2.91,2.91,0,0,1-2.71,1.38c-1.57,0-3.36-1.08-3.36-4.34,0-2.9,1.79-4.82,4.37-4.82a3.16,3.16,0,0,1,1.65.43Zm0,4.43a5,5,0,0,0-1.5-.25c-2,0-2.9,1.4-2.9,3.49s1,3.37,2.33,3.37a2.38,2.38,0,0,0,2.07-1.08Z"/><path class="cls-4" d="M153.1,386.49c0,3-1.61,4.71-4.11,4.71s-4.12-1.62-4.12-4.71c0-2.76,1.77-4.45,4.12-4.45S153.1,383.62,153.1,386.49ZM149,390.12c1.67,0,2.46-1.4,2.46-3.63,0-1.93-1-3.39-2.46-3.39s-2.47,1.35-2.47,3.39S147.46,390.12,149,390.12Z"/><path class="cls-4" d="M159.34,383.19a2.93,2.93,0,0,0-1.07-.22c-.94,0-1.48.44-1.48,1.1,0,2,4.21,1.41,4.21,4.54,0,1.87-1.57,2.59-3.25,2.59a5.52,5.52,0,0,1-2.77-.68,4.29,4.29,0,0,1-.09-.86,5.19,5.19,0,0,1,.18-1.28,5.14,5.14,0,0,1,1.3.16v1.24a2.89,2.89,0,0,0,1.52.42,1.37,1.37,0,0,0,1.52-1.36c0-2.14-4.25-1.36-4.25-4.55,0-1.32,1.21-2.25,3-2.25a6.89,6.89,0,0,1,2.55.47,2.41,2.41,0,0,1,0,.55,5.79,5.79,0,0,1-.2,1.46,2.63,2.63,0,0,1-1.21-.27Z"/><path class="cls-4" d="M168.87,386.27c0,2.45,1,3.82,3.18,3.82s3.25-1.7,3.25-3.86v-6.68a10.47,10.47,0,0,1-1.23-.12,2.76,2.76,0,0,1,0-1h4a1.94,1.94,0,0,1,0,.38,2.74,2.74,0,0,1-.07.63,8.22,8.22,0,0,1-1.28.14v6.58c0,3-1.5,5.13-5,5.13-3,0-4.49-1.71-4.49-4.85v-6.82c-.36,0-1-.11-1.35-.16a4.2,4.2,0,0,1-.15-1h4.78a2.87,2.87,0,0,1,0,1,12.38,12.38,0,0,1-1.57.14Z"/><path class="cls-4" d="M181.85,389.8a7.5,7.5,0,0,1,1.32.23,3.12,3.12,0,0,1,0,.87h-4.34a2.25,2.25,0,0,1,.25-.81,6.31,6.31,0,0,1,1.16-.34v-6.4H179a2,2,0,0,1,.32-1,4.44,4.44,0,0,1,1.5-.25,3.2,3.2,0,0,1,.85.1v1.32h.18a3.27,3.27,0,0,1,2.91-1.53c1.43,0,2.7.45,2.7,3.24,0,1.51,0,3-.11,4.52a9.14,9.14,0,0,1,1.46.23,2.34,2.34,0,0,1,.06.56,1.62,1.62,0,0,1,0,.31h-4.28a2.25,2.25,0,0,1,.25-.81,5.65,5.65,0,0,1,1-.34v-4.22c0-1.38-.43-2.27-1.7-2.27a3.19,3.19,0,0,0-2.26,1.16Z"/><path class="cls-4" d="M189.9,383.35a2.11,2.11,0,0,1,.32-1,5.17,5.17,0,0,1,1.63-.25,3.93,3.93,0,0,1,.94.1v7.53a9.88,9.88,0,0,1,1.43.25,2.38,2.38,0,0,1,.05.56c0,.11,0,.2,0,.31h-4.45a2.25,2.25,0,0,1,.25-.81,6.09,6.09,0,0,1,1.16-.34v-6.4Zm3.16-4.19a1,1,0,0,1-1,1.06.93.93,0,0,1-1-1.06,1,1,0,0,1,1-1A.93.93,0,0,1,193.06,379.16Z"/><path class="cls-4" d="M201.56,378.94h-1.3a2.11,2.11,0,0,1,.32-.95,5.17,5.17,0,0,1,1.63-.25,3.76,3.76,0,0,1,.92.1v10.68a4.78,4.78,0,0,0,.15,1.28h1.35a1,1,0,0,1,0,.23,2.25,2.25,0,0,1-.14.72,10,10,0,0,1-2.44.36,3.24,3.24,0,0,1-.37-1.29h-.09a2.91,2.91,0,0,1-2.71,1.38c-1.57,0-3.36-1.08-3.36-4.34,0-2.9,1.79-4.82,4.37-4.82a3.16,3.16,0,0,1,1.65.43Zm0,4.43a5,5,0,0,0-1.5-.25c-2,0-2.9,1.4-2.9,3.49s1,3.37,2.34,3.37a2.36,2.36,0,0,0,2.06-1.08Z"/><path class="cls-4" d="M214.11,386.49c0,3-1.61,4.71-4.1,4.71-2.65,0-4.13-1.62-4.13-4.71,0-2.76,1.77-4.45,4.13-4.45S214.11,383.62,214.11,386.49Zm-4.1,3.63c1.66,0,2.45-1.4,2.45-3.63,0-1.93-1-3.39-2.45-3.39s-2.48,1.35-2.48,3.39S208.47,390.12,210,390.12Z"/><path class="cls-4" d="M220.35,383.19a2.89,2.89,0,0,0-1.07-.22c-.94,0-1.48.44-1.48,1.1,0,2,4.21,1.41,4.21,4.54,0,1.87-1.57,2.59-3.25,2.59a5.55,5.55,0,0,1-2.77-.68,4.29,4.29,0,0,1-.09-.86,5.19,5.19,0,0,1,.18-1.28,5.14,5.14,0,0,1,1.3.16v1.24a2.89,2.89,0,0,0,1.52.42,1.37,1.37,0,0,0,1.52-1.36c0-2.14-4.25-1.36-4.25-4.55,0-1.32,1.21-2.25,3-2.25a6.85,6.85,0,0,1,2.55.47,2.41,2.41,0,0,1,0,.55,5.79,5.79,0,0,1-.2,1.46,2.66,2.66,0,0,1-1.21-.27Z"/><path class="cls-4" d="M226.51,389.93a1.07,1.07,0,0,1-1.12,1.18,1,1,0,0,1-1.15-1.18,1.08,1.08,0,0,1,1.15-1.1A1,1,0,0,1,226.51,389.93Z"/><path d="M24.09,235.44H27.7c1.6,0,2.4-.63,2.4-1.6s-1.09-1.6-2.64-1.6a14.47,14.47,0,0,0-4.66.94l-.92-3.44a18.72,18.72,0,0,1,5.55-.94c4.51,0,6.79,1.62,6.79,4.63a3.54,3.54,0,0,1-2.6,3.49c2.14.65,3.18,1.88,3.18,4.07,0,2.88-2.45,4.77-7.37,4.77a18.8,18.8,0,0,1-5.47-1l1-3.37a13.08,13.08,0,0,0,4.51.9c1.94,0,3.18-.75,3.18-2s-1-1.63-2.91-1.63H24.09Z"/><path d="M45.15,250.07V237.21c0-.68-.13-1.17-.78-1.17a2.5,2.5,0,0,0-1.24.34L43,233.13a8.75,8.75,0,0,1,3-.53,2.75,2.75,0,0,1,2.91,1.72,4.7,4.7,0,0,1,3.87-1.69c3.47,0,5.87,2.73,5.87,6.59s-2.4,6.54-5.87,6.54a5.13,5.13,0,0,1-3.58-1.31v5.62Zm4.07-13v4.24a3.8,3.8,0,0,0,2.42.89,3,3,0,0,0,0-6.06A3.64,3.64,0,0,0,49.22,237.09Z"/><path d="M74.34,241.18c0,.63.17,1.16.78,1.16a2.59,2.59,0,0,0,1.21-.34l.15,3.23a9,9,0,0,1-3,.53,2.71,2.71,0,0,1-2.89-1.82,5,5,0,0,1-3.87,1.8c-3.47,0-5.84-2.72-5.84-6.52s2.37-6.59,5.84-6.59A4.74,4.74,0,0,1,70.27,234v-1.12h4.07Zm-4.07-4.09a3.66,3.66,0,0,0-2.42-.93,3,3,0,0,0,0,6.06,3.72,3.72,0,0,0,2.42-.92Z"/><path d="M83.09,232.84v8.34c0,.63.12,1.16.78,1.16a2.42,2.42,0,0,0,1.18-.34l.17,3.23a8.33,8.33,0,0,1-3,.53c-2,0-3.18-1-3.18-3.59v-9.33Zm-.6-1.45H79.12l2-3.83h4Z"/><path d="M96.56,236.79a8.46,8.46,0,0,0-3.78-1c-.82,0-1.52.24-1.52.84s.31.66,1,.85l2.25.61c2.3.63,3,1.86,3,3.58,0,2.45-1.94,4.1-5.28,4.1a11.61,11.61,0,0,1-5-1.09l.75-3.18a9.24,9.24,0,0,0,4,1.19c.94,0,1.5-.19,1.5-.75,0-.41-.48-.63-1.28-.85l-2-.55c-2.06-.61-3.08-1.75-3.08-3.66,0-2.52,2.2-4.24,5.74-4.24a13.36,13.36,0,0,1,4.73.92Z"/><path d="M112.15,244.14a8.61,8.61,0,0,1-5.38,1.72c-4.78,0-7-2.89-7-6.64a6.46,6.46,0,0,1,6.74-6.72c3.85,0,5.69,2.38,5.69,5.29a11.17,11.17,0,0,1-.26,2.42h-8.12a2.82,2.82,0,0,0,3.15,2.42,6.82,6.82,0,0,0,3.63-1.21Zm-3.45-6.79c0-1-.67-1.74-2.18-1.74a2.45,2.45,0,0,0-2.59,2h4.77Z"/><path d="M124,236.79a8.49,8.49,0,0,0-3.78-1c-.82,0-1.53.24-1.53.84s.32.66,1,.85l2.25.61c2.3.63,3,1.86,3,3.58,0,2.45-1.94,4.1-5.28,4.1a11.66,11.66,0,0,1-5-1.09l.76-3.18a9.24,9.24,0,0,0,4,1.19c.94,0,1.5-.19,1.5-.75,0-.41-.49-.63-1.29-.85l-2-.55c-2.06-.61-3.08-1.75-3.08-3.66,0-2.52,2.21-4.24,5.75-4.24a13.26,13.26,0,0,1,4.72.92Z"/><path d="M145.61,244.14a8.59,8.59,0,0,1-5.38,1.72c-4.77,0-6.95-2.89-6.95-6.64A6.46,6.46,0,0,1,140,232.5c3.85,0,5.7,2.38,5.7,5.29a11.1,11.1,0,0,1-.27,2.42h-8.12a2.83,2.83,0,0,0,3.15,2.42,6.85,6.85,0,0,0,3.64-1.21Zm-3.44-6.79c0-1-.68-1.74-2.18-1.74a2.45,2.45,0,0,0-2.59,2h4.77Z"/><path d="M152.81,232.84v1.41a5.2,5.2,0,0,1,3.85-1.62c3.27,0,4.65,2.49,4.65,5.59v3c0,.63.15,1.16.78,1.16a3,3,0,0,0,1.23-.34l.12,3.23a8,8,0,0,1-3,.53c-2,0-3.2-1-3.2-3.59V238.9c0-1.62-.75-2.52-2.13-2.52a2.68,2.68,0,0,0-2.3,1.58v7.56h-4.07V232.84Z"/><path d="M176.87,229.62v3.22h4.38V236h-4.38v4.41c0,1.29.53,1.82,1.5,1.82a4.43,4.43,0,0,0,2.38-.85l1.23,3.1a9.3,9.3,0,0,1-4.92,1.29c-2.64,0-4.26-1.6-4.26-4.65V236h-2.16v-3.15h2.28l.51-3.22Z"/><path d="M190.41,232.5a6.68,6.68,0,1,1-6.81,6.72A6.58,6.58,0,0,1,190.41,232.5Zm0,9.67a3,3,0,1,0-2.88-2.95A2.86,2.86,0,0,0,190.41,242.17Z"/><path d="M212.93,228.31v12.87c0,.65.14,1.16.77,1.16a3.29,3.29,0,0,0,1.21-.34l.15,3.23a8.88,8.88,0,0,1-3,.53,2.7,2.7,0,0,1-2.88-1.72,4.7,4.7,0,0,1-3.91,1.72c-3.44,0-5.84-2.76-5.84-6.59s2.4-6.54,5.84-6.54a5.27,5.27,0,0,1,3.61,1.3v-5.62Zm-6.5,13.91a3.89,3.89,0,0,0,2.42-.89v-4.24a3.67,3.67,0,0,0-2.42-.93,3,3,0,0,0,0,6.06Z"/><path d="M223.64,232.5a6.68,6.68,0,1,1-6.81,6.72A6.58,6.58,0,0,1,223.64,232.5Zm0,9.67a3,3,0,1,0-2.89-2.95A2.86,2.86,0,0,0,223.64,242.17Z"/><path d="M78.4,273.21A8.53,8.53,0,0,1,73,274.93c-4.77,0-7-2.88-7-6.63a6.46,6.46,0,0,1,6.74-6.72c3.85,0,5.69,2.38,5.69,5.29a10.51,10.51,0,0,1-.27,2.42H70.12a2.82,2.82,0,0,0,3.15,2.42,6.85,6.85,0,0,0,3.63-1.21ZM75,266.43c0-1-.68-1.75-2.18-1.75a2.46,2.46,0,0,0-2.59,2H75Z"/><path d="M85.5,257.39v12.8c0,.75.22,1.23.85,1.23a3,3,0,0,0,1.29-.34l.14,3.22a9.32,9.32,0,0,1-3.08.54c-2,0-3.27-1-3.27-3.64V257.39Z"/><path d="M100.43,261.92v1.26a5.25,5.25,0,0,1,3.83-1.5c2,0,3.29.7,3.95,2.16a5.14,5.14,0,0,1,4.36-2.13c3.27,0,4.6,2.49,4.6,5.59v3c0,.63.12,1.16.73,1.16a3.13,3.13,0,0,0,1.24-.34l.17,3.22a9,9,0,0,1-3.06.54c-2,0-3.15-1-3.15-3.59V268c0-1.62-.75-2.52-2.13-2.52a2.32,2.32,0,0,0-2.13,1.36v7.78h-4.07V268c0-1.6-.71-2.5-2.11-2.5a2.43,2.43,0,0,0-2.23,1.41v7.73H96.36V261.92Z"/><path d="M134.06,261.92v8.34c0,.63.12,1.16.73,1.16a2.93,2.93,0,0,0,1.24-.34l.14,3.22a7.9,7.9,0,0,1-3,.54,2.71,2.71,0,0,1-2.83-1.65,5.4,5.4,0,0,1-4.17,1.65c-3.27,0-4.65-2.35-4.65-5.6v-7.32h4.07v6.74c0,1.67.48,2.47,2.13,2.47a2.66,2.66,0,0,0,2.3-1.24v-8Z"/><path d="M142.86,261.92v1.41a5.2,5.2,0,0,1,3.85-1.62c3.27,0,4.65,2.49,4.65,5.59v3c0,.63.15,1.16.78,1.16a3,3,0,0,0,1.24-.34l.12,3.22a7.87,7.87,0,0,1-3,.54c-2,0-3.2-1-3.2-3.59V268c0-1.62-.75-2.52-2.13-2.52a2.68,2.68,0,0,0-2.3,1.58v7.56h-4.07V261.92Z"/><path d="M168.57,257.39v12.87c0,.65.15,1.16.78,1.16a3.34,3.34,0,0,0,1.21-.34l.14,3.22a8.61,8.61,0,0,1-3,.54,2.7,2.7,0,0,1-2.88-1.72,4.72,4.72,0,0,1-3.9,1.72c-3.44,0-5.84-2.76-5.84-6.59s2.4-6.54,5.84-6.54a5.31,5.31,0,0,1,3.61,1.3v-5.62Zm-6.49,13.91a3.83,3.83,0,0,0,2.42-.9v-4.24a3.76,3.76,0,0,0-2.42-.92,3,3,0,0,0,0,6.06Z"/><path d="M179.28,261.58a6.68,6.68,0,1,1-6.81,6.72A6.59,6.59,0,0,1,179.28,261.58Zm0,9.67a3,3,0,1,0-2.88-2.95A2.85,2.85,0,0,0,179.28,271.25Z"/></g></g></svg>