<svg xmlns="http://www.w3.org/2000/svg" viewBox="0 0 240.81 276.81"><defs><style>.cls-1{fill:#333;}.cls-2{fill:#f8e2e2;}.cls-3{fill:none;stroke:#ee6a5a;stroke-linecap:round;stroke-linejoin:round;stroke-width:0.5px;}</style></defs><title>municiones</title><g id="Layer_2" data-name="Layer 2"><g id="Layer_1-2" data-name="Layer 1"><path class="cls-1" d="M39.43,206.54h-1.3a2.11,2.11,0,0,1,.32-1,5.48,5.48,0,0,1,1.63-.25,3.74,3.74,0,0,1,.92.11v10.68a4.88,4.88,0,0,0,.15,1.28H42.5a.93.93,0,0,1,0,.23,2.3,2.3,0,0,1-.14.72,10,10,0,0,1-2.44.36,3.24,3.24,0,0,1-.37-1.3h-.09a2.92,2.92,0,0,1-2.71,1.39c-1.57,0-3.36-1.08-3.36-4.34,0-2.9,1.79-4.83,4.37-4.83a3.16,3.16,0,0,1,1.65.44Zm0,4.43a4.71,4.71,0,0,0-1.5-.26c-2,0-2.9,1.41-2.9,3.5s1,3.36,2.34,3.36a2.38,2.38,0,0,0,2.06-1.08Z"/><path class="cls-1" d="M45.43,214.42a2.9,2.9,0,0,0,3,3.12,8.08,8.08,0,0,0,2.53-.51,1.94,1.94,0,0,1-.23,1,6.27,6.27,0,0,1-2.86.74c-2.59,0-4.07-1.93-4.07-4.41,0-2.65,1.65-4.76,4.18-4.76,2.17,0,3.09,1.57,3.09,3.84,0,.31,0,.63-.05.95Zm4-1c.13-1.24-.23-2.76-1.75-2.76-1.29,0-2.12,1.12-2.23,2.76Z"/><path class="cls-1" d="M59.21,217.4a5.91,5.91,0,0,1,1.32.23,2.71,2.71,0,0,1,0,.86H56.23a2.31,2.31,0,0,1,.25-.81,7.2,7.2,0,0,1,1.16-.34V211H56.32a2.11,2.11,0,0,1,.32-1,4.7,4.7,0,0,1,1.5-.25,3.32,3.32,0,0,1,.86.11v1.32h.18A3.16,3.16,0,0,1,62,209.63a2.14,2.14,0,0,1,2.41,1.64h.09a3.17,3.17,0,0,1,2.91-1.64c1.41,0,2.66.45,2.66,3.25,0,1.53,0,3-.11,4.52a7.33,7.33,0,0,1,1.46.23,2.29,2.29,0,0,1,.06.56,1.51,1.51,0,0,1,0,.3H67.2a2.56,2.56,0,0,1,.26-.81,6.54,6.54,0,0,1,1-.34v-4.21c0-1.39-.42-2.27-1.67-2.27a3.11,3.11,0,0,0-2.2,1.15v5.37a6,6,0,0,1,1.32.25,2.72,2.72,0,0,1,0,.86H61.8a2.31,2.31,0,0,1,.25-.81,6.54,6.54,0,0,1,1-.34v-4.21c0-1.39-.41-2.27-1.66-2.27A3.12,3.12,0,0,0,59.21,212Z"/><path class="cls-1" d="M79,211h-1.3a2,2,0,0,1,.33-1,4.84,4.84,0,0,1,1.62-.25,3.74,3.74,0,0,1,.92.11v6.27a5.25,5.25,0,0,0,.15,1.28H82.1a.93.93,0,0,1,0,.23,2.3,2.3,0,0,1-.14.72,10.39,10.39,0,0,1-2.48.36,3.62,3.62,0,0,1-.36-1.42h-.09a3.22,3.22,0,0,1-2.88,1.51c-1.41,0-2.65-.45-2.65-3.24,0-1.51,0-3.1.09-4.61H72.23a2.3,2.3,0,0,1,.33-.94,4.93,4.93,0,0,1,1.64-.27,3.74,3.74,0,0,1,.92.11v5.46c0,1.36.44,2.25,1.67,2.25a3.13,3.13,0,0,0,2.22-1.1Z"/><path class="cls-1" d="M86.28,217.4a5.91,5.91,0,0,1,1.32.23,2.71,2.71,0,0,1,0,.86H83.3a2.31,2.31,0,0,1,.25-.81,7.2,7.2,0,0,1,1.16-.34V211H83.39a2.11,2.11,0,0,1,.32-1,4.7,4.7,0,0,1,1.5-.25,3.18,3.18,0,0,1,.85.11v1.32h.19a3.23,3.23,0,0,1,2.91-1.54c1.42,0,2.69.45,2.69,3.25,0,1.51,0,3-.11,4.52a7.44,7.44,0,0,1,1.47.23,3,3,0,0,1,.05.56,1.51,1.51,0,0,1,0,.3H89a2.31,2.31,0,0,1,.25-.81,6.54,6.54,0,0,1,1-.34v-4.21c0-1.39-.43-2.27-1.7-2.27A3.22,3.22,0,0,0,86.28,212Z"/><path class="cls-1" d="M94.33,211a2.11,2.11,0,0,1,.32-1,5.53,5.53,0,0,1,1.63-.25,3.91,3.91,0,0,1,.94.11v7.53a7.74,7.74,0,0,1,1.43.25,2.29,2.29,0,0,1,.06.56,1.51,1.51,0,0,1,0,.3H94.24a2.54,2.54,0,0,1,.25-.81,7.2,7.2,0,0,1,1.16-.34V211Zm3.16-4.2a1,1,0,0,1-1,1.07.94.94,0,0,1-1-1.07,1,1,0,0,1,1-1A.93.93,0,0,1,97.49,206.75Z"/><path class="cls-1" d="M105.41,211a2.31,2.31,0,0,0-1-.27c-1.55,0-2.67,1-2.67,3.38s1.19,3.5,2.82,3.5a7.61,7.61,0,0,0,2.22-.44,2.14,2.14,0,0,1-.25,1,6.33,6.33,0,0,1-2.68.65c-2.33,0-3.83-1.87-3.83-4.39,0-2.79,1.79-4.78,4.43-4.78a4.44,4.44,0,0,1,2.37.65c0,.18,0,.47,0,.65a4.35,4.35,0,0,1-.26,1.53,3.18,3.18,0,0,1-1.14-.23Z"/><path class="cls-1" d="M108.27,211a2.12,2.12,0,0,1,.33-1,5.41,5.41,0,0,1,1.62-.25,3.91,3.91,0,0,1,.94.11v7.53a7.6,7.6,0,0,1,1.43.25,2.29,2.29,0,0,1,.06.56,1.51,1.51,0,0,1,0,.3h-4.45a2.82,2.82,0,0,1,.25-.81,7.2,7.2,0,0,1,1.16-.34V211Zm3.17-4.2a1,1,0,0,1-1,1.07.94.94,0,0,1-1-1.07,1,1,0,0,1,1-1A.94.94,0,0,1,111.44,206.75Z"/><path class="cls-1" d="M122.14,214.08c0,3-1.61,4.72-4.1,4.72-2.64,0-4.13-1.62-4.13-4.72,0-2.75,1.77-4.45,4.13-4.45S122.14,211.22,122.14,214.08Zm-4.1,3.64c1.66,0,2.45-1.41,2.45-3.64,0-1.92-.95-3.38-2.45-3.38s-2.48,1.35-2.48,3.38C115.56,216.28,116.5,217.72,118,217.72Z"/><path class="cls-1" d="M126.68,217.4a6,6,0,0,1,1.32.23,3,3,0,0,1,0,.86H123.7a2.31,2.31,0,0,1,.25-.81,6.91,6.91,0,0,1,1.16-.34V211h-1.32a2,2,0,0,1,.32-1,4.7,4.7,0,0,1,1.5-.25,3.18,3.18,0,0,1,.85.11v1.32h.18a3.25,3.25,0,0,1,2.91-1.54c1.43,0,2.7.45,2.7,3.25,0,1.51,0,3-.11,4.52a7.33,7.33,0,0,1,1.46.23,2.29,2.29,0,0,1,.06.56,1.51,1.51,0,0,1,0,.3h-4.28a2.31,2.31,0,0,1,.25-.81,6.54,6.54,0,0,1,1-.34v-4.21c0-1.39-.43-2.27-1.7-2.27a3.22,3.22,0,0,0-2.26,1.15Z"/><path class="cls-1" d="M136.53,214.42a2.9,2.9,0,0,0,2.95,3.12A8.08,8.08,0,0,0,142,217a1.94,1.94,0,0,1-.23,1,6.27,6.27,0,0,1-2.86.74c-2.58,0-4.07-1.93-4.07-4.41,0-2.65,1.65-4.76,4.18-4.76,2.17,0,3.09,1.57,3.09,3.84,0,.31,0,.63-.05.95Zm4-1c.13-1.24-.23-2.76-1.75-2.76-1.29,0-2.12,1.12-2.23,2.76Z"/><path class="cls-1" d="M148.31,210.79a2.93,2.93,0,0,0-1.07-.22c-.94,0-1.48.43-1.48,1.1,0,2,4.21,1.4,4.21,4.54,0,1.87-1.57,2.59-3.25,2.59a5.52,5.52,0,0,1-2.77-.68,3.69,3.69,0,0,1-.09-.87A5.26,5.26,0,0,1,144,216a5.64,5.64,0,0,1,1.3.16v1.25a2.88,2.88,0,0,0,1.52.41,1.37,1.37,0,0,0,1.52-1.35c0-2.14-4.25-1.37-4.25-4.55,0-1.32,1.21-2.26,3-2.26a7.1,7.1,0,0,1,2.55.47,2.46,2.46,0,0,1,0,.56,5.85,5.85,0,0,1-.2,1.46,2.63,2.63,0,0,1-1.21-.27Z"/><path class="cls-1" d="M160.46,209.94a8,8,0,0,1,.09,1h-2.46v6.36a10.55,10.55,0,0,1,1.79.33,2.76,2.76,0,0,1,0,.82h-4.81a2.31,2.31,0,0,1,.25-.81,6.91,6.91,0,0,1,1.16-.34V211h-1.43a3.12,3.12,0,0,1,.21-.93,9.5,9.5,0,0,1,1.22-.33v-1c0-2.43,1.48-3.4,3.18-3.4a6.74,6.74,0,0,1,2,.31,3,3,0,0,1,.05.61,4.85,4.85,0,0,1-.25,1.58,2.35,2.35,0,0,1-1.07-.29v-1.2a1.31,1.31,0,0,0-.57-.13c-1,0-1.74.49-1.74,2.34v1.37Z"/><path class="cls-1" d="M167.76,211h-1.3a2.12,2.12,0,0,1,.33-1,4.84,4.84,0,0,1,1.62-.25,3.83,3.83,0,0,1,.93.11v6.27a5.23,5.23,0,0,0,.14,1.28h1.38a1.85,1.85,0,0,1,0,.23,2.3,2.3,0,0,1-.14.72,10.39,10.39,0,0,1-2.48.36,3.8,3.8,0,0,1-.36-1.42h-.09a3.22,3.22,0,0,1-2.88,1.51c-1.41,0-2.65-.45-2.65-3.24,0-1.51,0-3.1.09-4.61H161a2.3,2.3,0,0,1,.33-.94,4.93,4.93,0,0,1,1.64-.27,3.89,3.89,0,0,1,.93.11v5.46c0,1.36.43,2.25,1.66,2.25a3.13,3.13,0,0,0,2.22-1.1Z"/><path class="cls-1" d="M174,214.42a2.89,2.89,0,0,0,3,3.12,8.13,8.13,0,0,0,2.53-.51,2,2,0,0,1-.24,1,6.24,6.24,0,0,1-2.86.74c-2.58,0-4.06-1.93-4.06-4.41,0-2.65,1.64-4.76,4.17-4.76,2.17,0,3.1,1.57,3.1,3.84a7.69,7.69,0,0,1-.06.95Zm4-1c.12-1.24-.24-2.76-1.76-2.76-1.28,0-2.11,1.12-2.22,2.76Z"/><path class="cls-1" d="M184,211.56a2.43,2.43,0,0,1,2.35-1.93,2.63,2.63,0,0,1,.82.15,2.41,2.41,0,0,1,.23,1.08,1.89,1.89,0,0,1,0,.49,2.5,2.5,0,0,0-1.23-.31,2.24,2.24,0,0,0-2.08,1.48v4.82a8.89,8.89,0,0,1,1.79.33,2.76,2.76,0,0,1,0,.82H181a2.31,2.31,0,0,1,.25-.81,6.91,6.91,0,0,1,1.16-.34V211h-1.32a2,2,0,0,1,.32-1,4.9,4.9,0,0,1,1.5-.25,3.18,3.18,0,0,1,.85.11v1.71Z"/><path class="cls-1" d="M196.62,214.08c0,3-1.61,4.72-4.1,4.72-2.64,0-4.12-1.62-4.12-4.72,0-2.75,1.77-4.45,4.12-4.45S196.62,211.22,196.62,214.08Zm-4.1,3.64c1.66,0,2.46-1.41,2.46-3.64,0-1.92-1-3.38-2.46-3.38s-2.48,1.35-2.48,3.38C190,216.28,191,217.72,192.52,217.72Z"/><path class="cls-1" d="M201.16,217.4a5.91,5.91,0,0,1,1.32.23,2.71,2.71,0,0,1,0,.86h-4.34a2.54,2.54,0,0,1,.25-.81,7.2,7.2,0,0,1,1.16-.34V211h-1.32a2.11,2.11,0,0,1,.32-1,4.71,4.71,0,0,1,1.51-.25,3.3,3.3,0,0,1,.85.11v1.32h.18a3.23,3.23,0,0,1,2.91-1.54c1.43,0,2.69.45,2.69,3.25,0,1.51,0,3-.11,4.52a7.44,7.44,0,0,1,1.47.23,3,3,0,0,1,0,.56,1.51,1.51,0,0,1,0,.3h-4.28a2.54,2.54,0,0,1,.25-.81,6.9,6.9,0,0,1,1-.34v-4.21c0-1.39-.43-2.27-1.7-2.27a3.22,3.22,0,0,0-2.26,1.15Z"/><path class="cls-1" d="M.09,238a2.12,2.12,0,0,1,.33-1A5.41,5.41,0,0,1,2,236.74a3.91,3.91,0,0,1,.94.11v7.53a7.6,7.6,0,0,1,1.43.25,2.29,2.29,0,0,1,.06.56,1.51,1.51,0,0,1,0,.3H0a2.82,2.82,0,0,1,.25-.81,7.2,7.2,0,0,1,1.16-.34V238Zm3.16-4.2a1,1,0,0,1-1,1.07.94.94,0,0,1-1-1.07,1,1,0,0,1,1-1A.93.93,0,0,1,3.25,233.75Z"/><path class="cls-1" d="M8.5,244.4a6,6,0,0,1,1.32.23,2.72,2.72,0,0,1,0,.86H5.51a2.56,2.56,0,0,1,.26-.81,6.91,6.91,0,0,1,1.16-.34V238H5.61a2,2,0,0,1,.32-1,4.7,4.7,0,0,1,1.5-.25,3.18,3.18,0,0,1,.85.11v1.32h.18a3.2,3.2,0,0,1,2.86-1.54,2.13,2.13,0,0,1,2.4,1.64h.09a3.2,3.2,0,0,1,2.92-1.64c1.41,0,2.65.45,2.65,3.25,0,1.53,0,3-.1,4.52a7.45,7.45,0,0,1,1.46.23,2.33,2.33,0,0,1,.05.56c0,.1,0,.2,0,.3H16.49a2.82,2.82,0,0,1,.25-.81,6.9,6.9,0,0,1,1-.34v-4.21c0-1.39-.41-2.27-1.66-2.27a3.09,3.09,0,0,0-2.2,1.15v5.37a5.76,5.76,0,0,1,1.31.25,2.44,2.44,0,0,1,0,.86H11.08a2.56,2.56,0,0,1,.26-.81,6.54,6.54,0,0,1,1-.34v-4.21c0-1.39-.42-2.27-1.67-2.27A3.12,3.12,0,0,0,8.5,239Z"/><path class="cls-1" d="M24.41,248.5a10.73,10.73,0,0,1,1.72.32,2.84,2.84,0,0,1,0,.83H21.43a2.31,2.31,0,0,1,.25-.81,7.2,7.2,0,0,1,1.16-.34V238H21.5a2,2,0,0,1,.33-1,4.8,4.8,0,0,1,1.5-.25,3.3,3.3,0,0,1,.85.11V238h.18A2.8,2.8,0,0,1,27,236.63c1.6,0,3.42,1.08,3.42,4.34,0,2.9-1.82,4.83-4.43,4.83a3.1,3.1,0,0,1-1.59-.43Zm0-4a5,5,0,0,0,1.5.25c2,0,2.9-1.42,2.9-3.51s-1-3.39-2.34-3.39a2.39,2.39,0,0,0-2.06,1.1Z"/><path class="cls-1" d="M40.43,241.08c0,3-1.61,4.72-4.1,4.72s-4.12-1.62-4.12-4.72c0-2.75,1.77-4.45,4.12-4.45S40.43,238.22,40.43,241.08Zm-4.1,3.64c1.66,0,2.46-1.41,2.46-3.64,0-1.92-1-3.38-2.46-3.38s-2.48,1.35-2.48,3.38C33.85,243.28,34.79,244.72,36.33,244.72Z"/><path class="cls-1" d="M44.94,238.56a2.41,2.41,0,0,1,2.35-1.93,2.62,2.62,0,0,1,.81.15,2.28,2.28,0,0,1,.23,1.08,1.89,1.89,0,0,1,0,.49,2.44,2.44,0,0,0-1.23-.31A2.24,2.24,0,0,0,45,239.52v4.82a8.76,8.76,0,0,1,1.79.33,2.46,2.46,0,0,1,0,.82H42a2.31,2.31,0,0,1,.25-.81,7.2,7.2,0,0,1,1.16-.34V238H42.08a2.11,2.11,0,0,1,.32-1,4.9,4.9,0,0,1,1.5-.25,3.18,3.18,0,0,1,.85.11v1.71Z"/><path class="cls-1" d="M50.56,234.74a3.31,3.31,0,0,1,1.21-.28v2.48h2.62a4.77,4.77,0,0,1,.06,1H51.77v5c0,1.17.16,1.67,1.18,1.67a7.36,7.36,0,0,0,1.68-.23,1,1,0,0,1,0,.23,1.6,1.6,0,0,1-.19.7,5.75,5.75,0,0,1-2.22.49c-1.39,0-2.1-.76-2.1-2.61,0-1.06,0-3.39.09-5.21H49a2.73,2.73,0,0,1,.21-.93,6.45,6.45,0,0,1,1-.33Z"/><path class="cls-1" d="M60.83,244.43a2.79,2.79,0,0,1-2.53,1.37,2.36,2.36,0,0,1-2.57-2.41c0-1.86,1.57-2.81,3.36-2.81a4.75,4.75,0,0,1,1.69.3v-1c0-1.33-.58-2-1.72-2a5.75,5.75,0,0,0-2.64.88,1.6,1.6,0,0,1-.09-.61,2,2,0,0,1,.2-.91,7.43,7.43,0,0,1,2.94-.63c2,0,2.84,1,2.84,3.43v3.49a1.55,1.55,0,0,0,.24.93,5.45,5.45,0,0,0,1.24-.21.71.71,0,0,1,0,.2,1.93,1.93,0,0,1-.18.81,4.64,4.64,0,0,1-2,.52,1.91,1.91,0,0,1-.76-1.37Zm0-2.75a5.87,5.87,0,0,0-1.26-.15c-1.41,0-2.21.63-2.21,1.59A1.46,1.46,0,0,0,59,244.56a2.27,2.27,0,0,0,1.82-.89Z"/><path class="cls-1" d="M71,233.54h-1.3a2.12,2.12,0,0,1,.33-1,5.41,5.41,0,0,1,1.62-.25,3.83,3.83,0,0,1,.93.11v10.68a4.88,4.88,0,0,0,.14,1.28h1.36a.93.93,0,0,1,0,.23,2.3,2.3,0,0,1-.15.72,9.94,9.94,0,0,1-2.44.36,3.24,3.24,0,0,1-.36-1.3H71a2.93,2.93,0,0,1-2.71,1.39c-1.58,0-3.37-1.08-3.37-4.34,0-2.9,1.79-4.83,4.38-4.83a3.12,3.12,0,0,1,1.64.44ZM71,238a4.66,4.66,0,0,0-1.5-.26c-2,0-2.89,1.41-2.89,3.5s1,3.36,2.33,3.36A2.36,2.36,0,0,0,71,243.49Z"/><path class="cls-1" d="M80.34,244.43a2.79,2.79,0,0,1-2.53,1.37,2.36,2.36,0,0,1-2.57-2.41c0-1.86,1.58-2.81,3.37-2.81a4.74,4.74,0,0,1,1.68.3v-1c0-1.33-.58-2-1.72-2a5.75,5.75,0,0,0-2.64.88,1.6,1.6,0,0,1-.09-.61,2,2,0,0,1,.2-.91,7.44,7.44,0,0,1,2.95-.63c2,0,2.83,1,2.83,3.43v3.49a1.55,1.55,0,0,0,.24.93,5.62,5.62,0,0,0,1.25-.21,1.41,1.41,0,0,1,0,.2,1.93,1.93,0,0,1-.18.81,4.55,4.55,0,0,1-2,.52,1.94,1.94,0,0,1-.76-1.37Zm0-2.75a5.87,5.87,0,0,0-1.26-.15c-1.41,0-2.21.63-2.21,1.59a1.46,1.46,0,0,0,1.65,1.44,2.27,2.27,0,0,0,1.82-.89Z"/><path class="cls-1" d="M88.93,237.79a2.89,2.89,0,0,0-1.07-.22c-.94,0-1.48.43-1.48,1.1,0,2,4.21,1.4,4.21,4.54,0,1.87-1.57,2.59-3.25,2.59a5.55,5.55,0,0,1-2.77-.68,4.31,4.31,0,0,1-.09-.87,5.26,5.26,0,0,1,.18-1.28,5.64,5.64,0,0,1,1.3.16v1.25a2.88,2.88,0,0,0,1.52.41A1.36,1.36,0,0,0,89,243.44c0-2.14-4.25-1.37-4.25-4.55,0-1.32,1.21-2.26,3-2.26a7.06,7.06,0,0,1,2.55.47,2.46,2.46,0,0,1,0,.56,5.85,5.85,0,0,1-.2,1.46,2.66,2.66,0,0,1-1.21-.27Z"/><path class="cls-1" d="M101,244.43a2.79,2.79,0,0,1-2.53,1.37,2.36,2.36,0,0,1-2.57-2.41c0-1.86,1.58-2.81,3.37-2.81a4.7,4.7,0,0,1,1.68.3v-1c0-1.33-.58-2-1.72-2a5.75,5.75,0,0,0-2.64.88,1.6,1.6,0,0,1-.09-.61,2,2,0,0,1,.2-.91,7.48,7.48,0,0,1,3-.63c2,0,2.83,1,2.83,3.43v3.49a1.55,1.55,0,0,0,.24.93,5.62,5.62,0,0,0,1.25-.21,1.41,1.41,0,0,1,0,.2,1.93,1.93,0,0,1-.18.81,4.55,4.55,0,0,1-2,.52,1.94,1.94,0,0,1-.76-1.37Zm0-2.75a6,6,0,0,0-1.27-.15c-1.41,0-2.21.63-2.21,1.59a1.46,1.46,0,0,0,1.65,1.44,2.31,2.31,0,0,0,1.83-.89Z"/><path class="cls-1" d="M118.8,245.06a16.32,16.32,0,0,1-4.39.79c-3.58,0-5.66-2.5-5.66-6.23,0-4.21,2.58-7,6.64-7a6.34,6.34,0,0,1,3.5.93,16.8,16.8,0,0,1-.23,2.81,3.64,3.64,0,0,1-1.25-.29v-1.72a4,4,0,0,0-2.2-.62c-2.52,0-4.71,1.82-4.71,5.6,0,3.59,1.83,5.26,4.4,5.26a15.6,15.6,0,0,0,2.29-.21v-3.8c-.79,0-1.7-.08-2.46-.18a4,4,0,0,1-.12-1.07h5.75a8.1,8.1,0,0,1-.16,1.1,12.5,12.5,0,0,1-1.4.15Z"/><path class="cls-1" d="M127.86,238h-1.3a2.12,2.12,0,0,1,.33-1,4.84,4.84,0,0,1,1.62-.25,3.83,3.83,0,0,1,.93.11v6.27a5.23,5.23,0,0,0,.14,1.28H131a1.85,1.85,0,0,1,0,.23,2.3,2.3,0,0,1-.14.72,10.39,10.39,0,0,1-2.48.36,3.8,3.8,0,0,1-.36-1.42h-.09A3.22,3.22,0,0,1,125,245.8c-1.41,0-2.65-.45-2.65-3.24,0-1.51,0-3.1.09-4.61h-1.38a2.3,2.3,0,0,1,.33-.94,4.93,4.93,0,0,1,1.64-.27,3.89,3.89,0,0,1,.93.11v5.46c0,1.36.43,2.25,1.66,2.25a3.13,3.13,0,0,0,2.22-1.1Z"/><path class="cls-1" d="M137.41,244.43a2.79,2.79,0,0,1-2.53,1.37,2.36,2.36,0,0,1-2.57-2.41c0-1.86,1.57-2.81,3.36-2.81a4.75,4.75,0,0,1,1.69.3v-1c0-1.33-.58-2-1.72-2a5.75,5.75,0,0,0-2.64.88,1.6,1.6,0,0,1-.09-.61,2,2,0,0,1,.2-.91,7.43,7.43,0,0,1,2.94-.63c2,0,2.84,1,2.84,3.43v3.49a1.55,1.55,0,0,0,.24.93,5.62,5.62,0,0,0,1.25-.21,1.41,1.41,0,0,1,0,.2,1.93,1.93,0,0,1-.18.81,4.55,4.55,0,0,1-2,.52,1.94,1.94,0,0,1-.76-1.37Zm0-2.75a5.87,5.87,0,0,0-1.26-.15c-1.41,0-2.21.63-2.21,1.59a1.46,1.46,0,0,0,1.65,1.44,2.27,2.27,0,0,0,1.82-.89Z"/><path class="cls-1" d="M142.64,234.74a3.31,3.31,0,0,1,1.21-.28v2.48h2.62a4.26,4.26,0,0,1,.05,1h-2.67v5c0,1.17.16,1.67,1.17,1.67a7.44,7.44,0,0,0,1.69-.23,2,2,0,0,1,0,.23,1.6,1.6,0,0,1-.18.7,5.75,5.75,0,0,1-2.22.49c-1.39,0-2.1-.76-2.1-2.61,0-1.06,0-3.39.09-5.21h-1.25a2.75,2.75,0,0,1,.22-.93,6.45,6.45,0,0,1,1.05-.33Z"/><path class="cls-1" d="M149.18,241.42a2.9,2.9,0,0,0,2.95,3.12,8.08,8.08,0,0,0,2.53-.51,1.94,1.94,0,0,1-.23,1,6.27,6.27,0,0,1-2.86.74c-2.59,0-4.07-1.93-4.07-4.41,0-2.65,1.65-4.76,4.18-4.76,2.17,0,3.09,1.57,3.09,3.84,0,.31,0,.63-.05.95Zm4-1c.13-1.24-.23-2.76-1.75-2.76-1.29,0-2.12,1.12-2.23,2.76Z"/><path class="cls-1" d="M159.25,244.4a6,6,0,0,1,1.33.23,2.72,2.72,0,0,1,0,.86h-4.34a2.56,2.56,0,0,1,.26-.81,6.79,6.79,0,0,1,1.15-.34V238h-1.32a2.12,2.12,0,0,1,.33-1,4.7,4.7,0,0,1,1.5-.25,3.18,3.18,0,0,1,.85.11v1.32h.18a3.17,3.17,0,0,1,2.86-1.54,2.13,2.13,0,0,1,2.4,1.64h.09a3.19,3.19,0,0,1,2.91-1.64c1.41,0,2.66.45,2.66,3.25,0,1.53,0,3-.11,4.52a7.56,7.56,0,0,1,1.47.23,3,3,0,0,1,.05.56,1.51,1.51,0,0,1,0,.3h-4.28a2.31,2.31,0,0,1,.25-.81,6.54,6.54,0,0,1,1-.34v-4.21c0-1.39-.41-2.27-1.66-2.27a3.14,3.14,0,0,0-2.21,1.15v5.37a5.85,5.85,0,0,1,1.32.25,2.71,2.71,0,0,1,0,.86h-4.18a2.82,2.82,0,0,1,.25-.81,7.31,7.31,0,0,1,1-.34v-4.21c0-1.39-.41-2.27-1.66-2.27a3.14,3.14,0,0,0-2.21,1.15Z"/><path class="cls-1" d="M177.79,244.43a2.79,2.79,0,0,1-2.53,1.37,2.36,2.36,0,0,1-2.57-2.41c0-1.86,1.57-2.81,3.36-2.81a4.75,4.75,0,0,1,1.69.3v-1c0-1.33-.58-2-1.72-2a5.75,5.75,0,0,0-2.64.88,1.6,1.6,0,0,1-.09-.61,2,2,0,0,1,.2-.91,7.43,7.43,0,0,1,2.94-.63c2,0,2.84,1,2.84,3.43v3.49a1.55,1.55,0,0,0,.24.93,5.45,5.45,0,0,0,1.24-.21.71.71,0,0,1,0,.2,1.93,1.93,0,0,1-.18.81,4.64,4.64,0,0,1-2,.52,1.91,1.91,0,0,1-.76-1.37Zm0-2.75a5.87,5.87,0,0,0-1.26-.15c-1.41,0-2.21.63-2.21,1.59a1.46,1.46,0,0,0,1.65,1.44,2.27,2.27,0,0,0,1.82-.89Z"/><path class="cls-1" d="M181.62,233.54a2.12,2.12,0,0,1,.33-1,5.48,5.48,0,0,1,1.63-.25,3.8,3.8,0,0,1,.92.11v11.94a8.08,8.08,0,0,1,1.46.25,2.29,2.29,0,0,1,.06.56,1.51,1.51,0,0,1,0,.3h-4.48a2.31,2.31,0,0,1,.25-.81,6.91,6.91,0,0,1,1.16-.34v-10.8Z"/><path class="cls-1" d="M192.31,244.43a2.79,2.79,0,0,1-2.53,1.37,2.36,2.36,0,0,1-2.57-2.41c0-1.86,1.57-2.81,3.36-2.81a4.75,4.75,0,0,1,1.69.3v-1c0-1.33-.58-2-1.72-2a5.75,5.75,0,0,0-2.64.88,1.6,1.6,0,0,1-.09-.61,2,2,0,0,1,.2-.91,7.43,7.43,0,0,1,2.94-.63c2,0,2.84,1,2.84,3.43v3.49a1.55,1.55,0,0,0,.24.93,5.62,5.62,0,0,0,1.25-.21,1.41,1.41,0,0,1,0,.2,1.93,1.93,0,0,1-.18.81,4.59,4.59,0,0,1-2,.52,1.94,1.94,0,0,1-.76-1.37Zm0-2.75a5.87,5.87,0,0,0-1.26-.15c-1.41,0-2.21.63-2.21,1.59a1.46,1.46,0,0,0,1.65,1.44,2.27,2.27,0,0,0,1.82-.89Z"/><path class="cls-1" d="M201.82,241.42a2.9,2.9,0,0,0,3,3.12,8.08,8.08,0,0,0,2.53-.51,1.94,1.94,0,0,1-.23,1,6.27,6.27,0,0,1-2.86.74c-2.59,0-4.07-1.93-4.07-4.41,0-2.65,1.65-4.76,4.18-4.76,2.17,0,3.09,1.57,3.09,3.84,0,.31,0,.63,0,.95Zm4-1c.13-1.24-.23-2.76-1.75-2.76-1.29,0-2.12,1.12-2.23,2.76Z"/><path class="cls-1" d="M211.89,244.4a5.81,5.81,0,0,1,1.32.23,2.44,2.44,0,0,1,0,.86h-4.34a2.82,2.82,0,0,1,.25-.81,7.2,7.2,0,0,1,1.16-.34V238H209a2.12,2.12,0,0,1,.33-1,4.7,4.7,0,0,1,1.5-.25,3.3,3.3,0,0,1,.85.11v1.32h.18a3.23,3.23,0,0,1,2.91-1.54c1.43,0,2.69.45,2.69,3.25,0,1.51,0,3-.1,4.52a7.45,7.45,0,0,1,1.46.23,2.33,2.33,0,0,1,.05.56c0,.1,0,.2,0,.3h-4.29a2.82,2.82,0,0,1,.25-.81,6.9,6.9,0,0,1,1-.34v-4.21c0-1.39-.43-2.27-1.7-2.27a3.22,3.22,0,0,0-2.26,1.15Z"/><path class="cls-1" d="M221.17,234.74a3.31,3.31,0,0,1,1.21-.28v2.48H225a4.77,4.77,0,0,1,.06,1h-2.68v5c0,1.17.17,1.67,1.18,1.67a7.36,7.36,0,0,0,1.68-.23,1,1,0,0,1,0,.23,1.6,1.6,0,0,1-.18.7,5.79,5.79,0,0,1-2.23.49c-1.39,0-2.09-.76-2.09-2.61,0-1.06,0-3.39.09-5.21H219.6a2.75,2.75,0,0,1,.22-.93,6,6,0,0,1,1-.33Z"/><path class="cls-1" d="M229.13,238.56a2.41,2.41,0,0,1,2.35-1.93,2.52,2.52,0,0,1,.81.15,2.27,2.27,0,0,1,.24,1.08,1.88,1.88,0,0,1-.06.49,2.44,2.44,0,0,0-1.23-.31,2.25,2.25,0,0,0-2.08,1.48v4.82a8.76,8.76,0,0,1,1.79.33,2.22,2.22,0,0,1,0,.82h-4.81a2.82,2.82,0,0,1,.25-.81,7.2,7.2,0,0,1,1.16-.34V238h-1.32a2.12,2.12,0,0,1,.33-1,4.8,4.8,0,0,1,1.5-.25,3.3,3.3,0,0,1,.85.11v1.71Z"/><path class="cls-1" d="M235.22,241.42a2.9,2.9,0,0,0,2.95,3.12,8.08,8.08,0,0,0,2.53-.51,1.94,1.94,0,0,1-.23,1,6.31,6.31,0,0,1-2.86.74c-2.59,0-4.07-1.93-4.07-4.41,0-2.65,1.65-4.76,4.18-4.76,2.17,0,3.09,1.57,3.09,3.84a7.69,7.69,0,0,1-.06.95Zm4-1c.13-1.24-.24-2.76-1.75-2.76-1.29,0-2.12,1.12-2.23,2.76Z"/><path class="cls-1" d="M45.86,264.23l-2.61.32a3,3,0,0,1,.29-1.11,16.1,16.1,0,0,1,4-.72v8.51a20.32,20.32,0,0,1,2.09.31,2.69,2.69,0,0,1,.09.7,2.36,2.36,0,0,1,0,.25h-6a3.71,3.71,0,0,1,.33-.9,15.77,15.77,0,0,1,1.88-.45Z"/><path class="cls-1" d="M57.07,268.64A3,3,0,0,1,54.39,270a3.3,3.3,0,0,1-3.56-3.47,3.62,3.62,0,0,1,3.82-3.78c2.73,0,4.19,1.89,4.19,5.29,0,4-2.37,6.54-5.41,6.54a7,7,0,0,1-2.24-.44,2.27,2.27,0,0,1-.25-1.26,7.37,7.37,0,0,0,2.35.38c2,0,3.67-1.66,3.91-4.59Zm-2.42-4.88c-1.4,0-2.19,1.06-2.19,2.63a2.22,2.22,0,0,0,2.37,2.45,2.93,2.93,0,0,0,2.33-1.23C57.16,265.06,56.46,263.76,54.65,263.76Z"/><path class="cls-1" d="M67.14,268.64A3,3,0,0,1,64.47,270a3.31,3.31,0,0,1-3.57-3.47,3.63,3.63,0,0,1,3.82-3.78c2.73,0,4.19,1.89,4.19,5.29,0,4-2.37,6.54-5.4,6.54a6.84,6.84,0,0,1-2.24-.44,2.28,2.28,0,0,1-.26-1.26,7.37,7.37,0,0,0,2.35.38c2,0,3.67-1.66,3.91-4.59Zm-2.42-4.88c-1.39,0-2.19,1.06-2.19,2.63a2.23,2.23,0,0,0,2.37,2.45,2.93,2.93,0,0,0,2.33-1.23C67.23,265.06,66.53,263.76,64.72,263.76Z"/><path class="cls-1" d="M72.84,266.93a3,3,0,0,1,2.66-1.35A3.34,3.34,0,0,1,79.08,269a3.66,3.66,0,0,1-3.86,3.85c-2.74,0-4.17-1.89-4.17-5.07,0-4.15,2.49-6.76,5.4-6.76a5.21,5.21,0,0,1,2,.4,3,3,0,0,1,.2,1.3,5.51,5.51,0,0,0-2.12-.45c-2,0-3.56,1.74-3.85,4.66Zm-.11,1.22c0,2.25.83,3.62,2.55,3.62a2.42,2.42,0,0,0,2.15-2.68,2.2,2.2,0,0,0-2.33-2.38,3.08,3.08,0,0,0-2.37,1.19Z"/><path class="cls-1" d="M88.71,271.5c.11-.43.35-1.37.49-1.8l.91-2.86a12.76,12.76,0,0,1,.67-1.75,4.58,4.58,0,0,1-1.09-.23,3.06,3.06,0,0,1-.14-.92H93a3.68,3.68,0,0,1-.18,1,4,4,0,0,1-.85.16l-1,3a55.68,55.68,0,0,1-2,5.31,6.38,6.38,0,0,1-3.66,3.42,2.44,2.44,0,0,1-.67-1.33,4.91,4.91,0,0,0,3.28-2.64l-2.95-7.66a4.51,4.51,0,0,1-.94-.3,4.12,4.12,0,0,1-.18-.94h4.09a4.1,4.1,0,0,1-.15.94,8.11,8.11,0,0,1-1.32.21,11.38,11.38,0,0,1,.65,1.52l1.14,3.15a13,13,0,0,1,.4,1.74Z"/><path class="cls-1" d="M102.75,271.43a2.79,2.79,0,0,1-2.53,1.37,2.36,2.36,0,0,1-2.57-2.41c0-1.86,1.57-2.81,3.36-2.81a4.66,4.66,0,0,1,1.68.3v-1c0-1.33-.58-2-1.71-2a5.75,5.75,0,0,0-2.64.88,1.43,1.43,0,0,1-.09-.61,2.17,2.17,0,0,1,.19-.91,7.48,7.48,0,0,1,3-.63c2,0,2.84,1,2.84,3.43v3.49a1.63,1.63,0,0,0,.23.93,5.44,5.44,0,0,0,1.25-.21.71.71,0,0,1,0,.2,1.93,1.93,0,0,1-.18.81,4.64,4.64,0,0,1-2,.52,1.91,1.91,0,0,1-.76-1.37Zm0-2.75a5.87,5.87,0,0,0-1.26-.15c-1.41,0-2.21.63-2.21,1.59a1.46,1.46,0,0,0,1.64,1.44,2.28,2.28,0,0,0,1.83-.89Z"/><path class="cls-1" d="M107.47,260.54h-1.3a2,2,0,0,1,.32-1,5.53,5.53,0,0,1,1.63-.25,3.8,3.8,0,0,1,.92.11v3.47c0,.71,0,1.41-.09,2.11h.18a2.51,2.51,0,0,1,2.57-1.39c1.57,0,3.36,1.08,3.36,4.34,0,2.9-1.79,4.83-4.37,4.83a7.35,7.35,0,0,1-3.22-.72Zm1.55,11a4.72,4.72,0,0,0,1.5.24c2,0,2.9-1.43,2.9-3.51s-1-3.37-2.34-3.37a2.38,2.38,0,0,0-2.06,1.08Z"/><path class="cls-1" d="M119.56,265.56a2.43,2.43,0,0,1,2.36-1.93,2.62,2.62,0,0,1,.81.15,2.28,2.28,0,0,1,.23,1.08,1.89,1.89,0,0,1,0,.49,2.5,2.5,0,0,0-1.23-.31,2.24,2.24,0,0,0-2.08,1.48v4.82a8.76,8.76,0,0,1,1.79.33,2.46,2.46,0,0,1,0,.82h-4.81a2.31,2.31,0,0,1,.25-.81,7.2,7.2,0,0,1,1.16-.34V265h-1.32a2.11,2.11,0,0,1,.32-1,4.9,4.9,0,0,1,1.5-.25,3.18,3.18,0,0,1,.85.11v1.71Z"/><path class="cls-1" d="M124,265a2.11,2.11,0,0,1,.32-1,5.53,5.53,0,0,1,1.63-.25,3.91,3.91,0,0,1,.94.11v7.53a7.74,7.74,0,0,1,1.43.25,2.33,2.33,0,0,1,.05.56c0,.1,0,.2,0,.3h-4.45a2.54,2.54,0,0,1,.25-.81,7.2,7.2,0,0,1,1.16-.34V265Zm3.16-4.2a1,1,0,0,1-1,1.07.94.94,0,0,1-1-1.07,1,1,0,0,1,1-1A.93.93,0,0,1,127.12,260.75Z"/><path class="cls-1" d="M129.31,260.54a2.12,2.12,0,0,1,.33-1,5.41,5.41,0,0,1,1.62-.25,3.83,3.83,0,0,1,.93.11v11.94a8.08,8.08,0,0,1,1.46.25,2.29,2.29,0,0,1,.06.56,1.51,1.51,0,0,1,0,.3H129.2a2.56,2.56,0,0,1,.26-.81,7.08,7.08,0,0,1,1.15-.34v-10.8Z"/><path class="cls-1" d="M144.68,260.54h-1.3a2,2,0,0,1,.33-1,5.41,5.41,0,0,1,1.62-.25,3.74,3.74,0,0,1,.92.11v10.68a4.88,4.88,0,0,0,.15,1.28h1.35a.93.93,0,0,1,0,.23,2.3,2.3,0,0,1-.14.72,9.94,9.94,0,0,1-2.44.36,3.09,3.09,0,0,1-.36-1.3h-.09A2.94,2.94,0,0,1,142,272.8c-1.57,0-3.36-1.08-3.36-4.34,0-2.9,1.79-4.83,4.38-4.83a3.15,3.15,0,0,1,1.64.44Zm0,4.43a4.66,4.66,0,0,0-1.5-.26c-2,0-2.89,1.41-2.89,3.5s1,3.36,2.33,3.36a2.36,2.36,0,0,0,2.06-1.08Z"/><path class="cls-1" d="M150.68,268.42a2.9,2.9,0,0,0,2.95,3.12,8,8,0,0,0,2.53-.51,1.94,1.94,0,0,1-.23,1,6.27,6.27,0,0,1-2.86.74c-2.58,0-4.07-1.93-4.07-4.41,0-2.65,1.65-4.76,4.18-4.76,2.17,0,3.09,1.57,3.09,3.84,0,.31,0,.63-.05.95Zm4-1c.13-1.24-.23-2.76-1.75-2.76-1.29,0-2.12,1.12-2.23,2.76Z"/><path class="cls-1" d="M163.67,271.18c1.75,0,3.71-.07,5.6-.22a1.62,1.62,0,0,1,0,.31,7.27,7.27,0,0,1-.11,1.22H162l-.24-1.29c1.56-1.39,5.45-3.86,5.45-5.95,0-.93-.76-1.36-1.87-1.36a5,5,0,0,0-2,.46v1.5a3,3,0,0,1-1.23.27,6.16,6.16,0,0,1-.24-1.69c0-.24,0-.6,0-.81a7.47,7.47,0,0,1,3.52-.9c2,0,3.51.63,3.51,2.28,0,2.67-4,5-5.26,6.05Z"/><path class="cls-1" d="M180.18,267.63c0,3.4-1.79,5.22-4.68,5.22s-4.71-1.73-4.71-5.22c0-3,1.94-4.91,4.71-4.91S180.18,264.43,180.18,267.63Zm-4.68,4.09c2,0,3-1.51,3-4.09,0-2.21-1.12-3.8-3-3.8s-3,1.46-3,3.8C172.51,270.15,173.63,271.72,175.5,271.72Z"/><path class="cls-1" d="M184.39,264.23l-2.6.32a2.86,2.86,0,0,1,.29-1.11,16,16,0,0,1,3.94-.72v8.51a20.5,20.5,0,0,1,2.1.31,3.19,3.19,0,0,1,.09.7,1.19,1.19,0,0,1,0,.25h-6a3.32,3.32,0,0,1,.32-.9,16.26,16.26,0,0,1,1.88-.45Z"/><path class="cls-1" d="M192.11,266.5A2.82,2.82,0,0,1,190,264c0-2.09,1.83-3,3.57-3s3.5.72,3.5,2.7a3.06,3.06,0,0,1-2.08,2.81v.09a3.17,3.17,0,0,1,2.32,2.79c0,2.31-1.86,3.44-3.92,3.44-1.76,0-3.87-.68-3.87-3a3.47,3.47,0,0,1,2.56-3.24Zm-1,3a2.11,2.11,0,0,0,2.38,2.31,2,2,0,0,0,2.21-2.22c0-1.33-1.34-1.94-2.69-2.57A2.63,2.63,0,0,0,191.14,269.52Zm4.43-5.69a1.85,1.85,0,0,0-2.08-1.87,1.79,1.79,0,0,0-1.94,1.8c0,1.12,1.2,1.71,2.5,2.31A2.47,2.47,0,0,0,195.57,263.83Z"/><path d="M52.65,181.09V184h-4v-2.95H40.22v-2.67l7.14-10.86h5.29v10.35h2.59v3.18Zm-4-3.18v-6.59l-4.36,6.59Z"/><path d="M63.7,167.56h3V184H62.61V172.19l-4.53,2.47-1.53-3.07Z"/><path d="M82.6,171.1H75.25L75,173.84h1.18c4.37,0,6.91,1.45,6.91,4.73,0,3.87-2.88,5.71-7.22,5.71a17,17,0,0,1-5.74-1l1-3.34a12.25,12.25,0,0,0,4.51.94c1.89,0,3.27-.7,3.27-2.18,0-1.31-1.14-1.84-3-1.84H71.23l-.17-.17.8-9.09H82.6Z"/><path d="M96.58,171.37v1.26a5.25,5.25,0,0,1,3.83-1.5c2,0,3.29.7,4,2.15a5.14,5.14,0,0,1,4.36-2.13c3.27,0,4.6,2.5,4.6,5.6v2.95c0,.63.12,1.17.73,1.17a3.31,3.31,0,0,0,1.24-.34l.17,3.22a9.06,9.06,0,0,1-3.06.53c-2,0-3.15-1-3.15-3.58v-3.27c0-1.63-.75-2.52-2.13-2.52a2.33,2.33,0,0,0-2.13,1.35V184h-4.07V177.4c0-1.6-.71-2.49-2.11-2.49a2.42,2.42,0,0,0-2.23,1.4V184H92.51V171.37Z"/><path d="M119.79,166c1.31,0,2.18.48,2.18,1.84s-.87,1.84-2.18,1.84-2.23-.49-2.23-1.84S118.46,166,119.79,166Zm2,13.73c0,.63.13,1.17.78,1.17a2.64,2.64,0,0,0,1.19-.34l.17,3.22a8.23,8.23,0,0,1-3,.53c-2,0-3.18-1-3.18-3.58v-9.33h4.07Z"/><path d="M130.55,166.84v12.79c0,.75.22,1.24.85,1.24a3.09,3.09,0,0,0,1.28-.34l.15,3.22a9.37,9.37,0,0,1-3.08.53c-2,0-3.27-1-3.27-3.63V166.84Z"/><path d="M139.32,166.84v12.79c0,.75.22,1.24.85,1.24a3.18,3.18,0,0,0,1.29-.34l.14,3.22a9.37,9.37,0,0,1-3.08.53c-2,0-3.27-1-3.27-3.63V166.84Z"/><path d="M150.11,171a6.68,6.68,0,1,1-6.81,6.71A6.58,6.58,0,0,1,150.11,171Zm0,9.67a3,3,0,1,0-2.89-3A2.86,2.86,0,0,0,150.11,180.7Z"/><path d="M163.94,171.37v1.4a5.2,5.2,0,0,1,3.86-1.62c3.27,0,4.65,2.5,4.65,5.6v2.95c0,.63.14,1.17.77,1.17a3.13,3.13,0,0,0,1.24-.34l.12,3.22a8.07,8.07,0,0,1-3,.53c-2,0-3.2-1-3.2-3.58v-3.27c0-1.63-.75-2.52-2.13-2.52a2.69,2.69,0,0,0-2.31,1.57V184h-4.07V171.37Z"/><path d="M188.44,182.66a8.53,8.53,0,0,1-5.38,1.72c-4.77,0-6.95-2.88-6.95-6.64a6.45,6.45,0,0,1,6.73-6.71c3.86,0,5.7,2.37,5.7,5.28a10.51,10.51,0,0,1-.27,2.42h-8.11a2.83,2.83,0,0,0,3.14,2.43,6.85,6.85,0,0,0,3.64-1.21ZM185,175.88c0-1-.68-1.75-2.18-1.75a2.45,2.45,0,0,0-2.59,2H185Z"/><path d="M200.27,175.32a8.54,8.54,0,0,0-3.78-1c-.83,0-1.53.24-1.53.85s.32.65,1,.85l2.26.6c2.3.63,3,1.87,3,3.59,0,2.45-1.93,4.09-5.28,4.09a11.46,11.46,0,0,1-5-1.09l.75-3.17a9.43,9.43,0,0,0,4,1.19c.95,0,1.5-.2,1.5-.75s-.48-.63-1.28-.85l-2-.56c-2.06-.61-3.08-1.74-3.08-3.66,0-2.52,2.21-4.24,5.74-4.24a13.27,13.27,0,0,1,4.73.92Z"/><path class="cls-2" d="M141.41,0a48.7,48.7,0,0,1,2,5.66c1.76,8.1,2.9,16.38,5.2,24.32,1.85,6.37.93,12.69,1.42,19,2.08,27.14,1.05,54.32,1.35,81.49,0,2,.79,4.1,1.16,6.16a7.92,7.92,0,0,1-.1,1.66H129.77c.21-2.08-1-4.25.92-6.29.48-.5.24-1.73.24-2.62,0-20.8-.59-41.62.28-62.38.45-10.72.79-21.45,1.1-32.18.06-2,1.4-4,1.82-6,1.57-7.81,3-15.65,4.54-23.46A44.29,44.29,0,0,1,140.4.07Z"/><path class="cls-2" d="M120.45,138.4H97.13c.54-2.26,1.05-4.25,1.48-6.25a12.33,12.33,0,0,0,.2-2.43c0-15.55,0-31.09.06-46.63a38.44,38.44,0,0,1,.82-7.32,93.67,93.67,0,0,0,1.43-19.13c0-3.79-.37-7.51,1.37-11.31,1.94-4.21,2.68-8.95,4.05-13.42a37.86,37.86,0,0,1,2.16-4.56,19.44,19.44,0,0,1,2.06,3.28c1.58,4.58,2.74,9.33,4.64,13.76,1.75,4.08,1.64,8.21,1.5,12.38a93.07,93.07,0,0,0,1.81,21.07,29.46,29.46,0,0,1,.48,5.63c0,15.13,0,30.26.09,45.39,0,2.31.79,4.6,1.15,6.91A18.9,18.9,0,0,1,120.45,138.4Z"/><path class="cls-2" d="M194.48,133.64l2.66.24v4.5H164.23V134l2.65-.47v-3.13q0-23.91,0-47.81c0-1.09-.6-2.55,1.32-2.93.25,0,.35-1.16.42-1.79.65-5.37,3.51-8.55,8.89-9.33a22,22,0,0,1,6.83.1c4.83.81,7.48,4.07,8,9a9.74,9.74,0,0,0,1.35,2.9l.79-.28Z"/><path class="cls-2" d="M88,135.23v3.13H64.69c0-1.35-1.17-3,1.42-3.38.25,0,.41-1.46.41-2.24,0-11-.47-22.06.24-33,.34-5.25,2.41-10.62,4.71-15.45s8-4.24,10.61.39a7.92,7.92,0,0,1,1.09,2.46c1,5.88,3.26,11.47,3,17.63-.3,9.36-.08,18.74-.08,28.1C86.14,134.18,85.75,135.79,88,135.23Z"/><path class="cls-2" d="M226,138.39h-23.2a37,37,0,0,0,2.06-3.18,5.24,5.24,0,0,0,.55-2.23c0-10.35,0-20.7,0-31,0-1.26-.61-2.88,1.53-3.22.25,0,.39-.85.55-1.3,1.25-3.55,3.54-5.09,7.52-5.06s5.28,1.92,7.29,5.07c2.51,3.93,1.44,7.87,1.56,11.79.23,7.88.05,15.77.08,23.66,0,1-.49,2.33,1.37,2.63C225.73,135.55,225.81,137.27,226,138.39Z"/><path class="cls-3" d="M143.66,3.53s.54-.33.55-.32-3.6,2-3.39,2.36c0,0,2.69-2,2.89-1.67.34.58-2.6,2.5-2.6,2.5s3.87-2.63,4-2.33c.4.7-5.21,3.82-5.21,3.82.43.74,5-3.15,5.14-3L142.35,7l2.32-1.34c.35.6-4.25,2.74-3.68,3.73.25.43,3.9-2.25,3.9-2.25.68,1.18-4.41,3.26-4.41,3.26S142.9,8,143.35,8.73c0,0-2.11,2-1.84,2.48.43.75,4.38-2.56,4.39-2.54s-8,4.18-7.22,5.52c.59,1,7.5-4.33,7.5-4.33s-8.51,3.43-7.66,4.9c.37.63,6-3.43,6-3.43l-5.43,4,5.55-3.21c.78,1.35-5,3.23-4.35,4.41.94,1.63,4.8-3.48,5.11-2.95.53.92-7,4.1-7,4.1.32.56,7-4.71,7.32-4.22,0,0-7.74,3.83-6.77,5.51,0,0,6.84-6.75,8.05-4.65l-7.54,5.43c1.2,2.07,7.59-4.38,7.59-4.38.64,1.12-8.19,6.89-8.19,6.89,1.1,1.91,7.59-7,8.74-5,0,0-9.29,6.11-8.67,7.19l7.12-4.11L137.77,26c0,.05,9.9-5.71,9.9-5.71l-10.78,8,10.51-6.07c1.8,3.13-13.22,5.32-11.46,8.37.14.25,10.66-6.68,10.89-6.29l-10.42,6.53c.57,1,12.49-7.2,12.49-7.2s-11,6.94-11,6.94c.75,1.3,9.75-6.91,10.3-5.95,0,0-13.92,7.3-13.06,8.79,0,0,11.79-6.89,11.83-6.83.49.85-11.92,5.57-10.84,7.44,1.49,2.59,10.94-10.76,12.87-7.43.59,1-14.31,9.21-14.31,9.21s15-8.66,15-8.66c1.07,1.86-13.78,8.09-13.78,8.09l12.87-7.43C150.25,30.33,134.49,38,134.49,38c1.76,3.06,15.71-9.06,15.71-9.06C151.62,31.39,133,40.23,133,40.23L149,31S131,37.12,133.61,41.69c.57,1,15.42-12.43,16.95-9.79,1.95,3.37-17.38,9.46-16.33,11.27,0,0,15.7-12.71,17.28-10L133,45.3l18.31-10.57c1.58,2.73-17.81,9.45-17.07,10.73l17.55-10.14-16.6,11.3,17.49-10.1c2,3.5-18.88,13-18.88,13,.29.5,16.62-9.59,16.62-9.59,1.86,3.22-17.94,8.07-16.48,10.59,0,0,14.15-14.49,16.89-9.75,3,5.26-20.35,7.23-17.63,11.93,0,0,19.68-11.66,19.81-11.44,0,0-21.28,11.78-20.2,13.66,3,5.14,17.92-16.12,20.42-11.78l-18.79,11s17-11.79,17.89-10.32c0,0-22.15,6.95-19,12.36l17.13-9.89s-18.42,11-18.22,11.34L151.66,46.4l-17,10.3c2.21,3.84,12.91-14.14,15.81-9.12.22.38-16,10.58-16,10.58s13.43-13.83,16.06-9.27-19,9.16-17.26,12.14c0,0,18.89-11.61,19.19-11.08,3.37,5.83-21.49,10.47-19.69,13.59l17.65-10.19L133.29,63.53c.81,1.4,16.46-14.68,18.7-10.8L135,63.52s16.06-10.8,16.72-9.65c0,0-22.11,8.43-19.31,13.28l21-12.12L133.71,67l17.9-10.34c1,1.68-17.25,11.8-17.25,11.8l19-11c.09.14-21.93,7.61-19.53,11.78,0,0,16.06-13.95,18.08-10.44,0,0-20.19,6.23-17.28,11.28,1,1.73,17.57-10.15,17.57-10.15.87,1.5-19.53,12.1-19.53,12.1,2,3.44,18.42-10.64,18.42-10.64,3,5.19-17.37,11.35-17.37,11.35,2.77,4.8,15-15.22,17.87-10.32,0,0-21.21,8.85-19.07,12.56,0,0,18.93-13.78,20.16-11.64,2.5,4.32-21.44,7.23-18.69,12,1,1.66,17.31-10.17,17.38-10s-21.29,5.84-18.46,10.74c.42.73,18.68-10.78,18.68-10.78s-17,11.11-17,11.11l19.18-11.07c1.07,1.86-25.71,8.35-21.92,14.92,0,.06,17.79-16.67,20.57-11.87s-20.9,14.18-20.9,14.18,18.72-18.2,21.93-12.66c3.31,5.74-20.9,13.34-20.9,13.34,2.8,4.85,16.14-16.28,19.15-11.06,0,0-19.1,9.18-17.53,11.91l19-11c.54.94-19.67,11.42-19.67,11.42C135,87,152.41,73.67,152.41,73.67c2.07,3.59-21.07,6-18.14,11l18.16-10.49s-22.68,9.25-20.38,13.25c2,3.4,20.65-15.54,22.21-12.82,0,0-22.39,9.16-20.17,13,1.75,3,20.48-11.82,20.48-11.82L133.05,89l20-11.54c2.56,4.43-20.68,13-20.68,13S149.07,74.14,152,79.14c0,0-22.3,8.75-20,12.8,0,0,19.36-12.5,19.93-11.5,3.07,5.3-18.81,11.66-18.81,11.66s17.55-17.76,20.85-12c3.15,5.44-20.67,14-20.67,14,1.63,2.82,20.26-11.7,20.26-11.7,1.87,3.24-21.94,14.05-21.94,14.05,2.51,4.35,17.61-16.93,20.55-11.86,0,0-20.58,9.47-18.54,13,1.2,2.08,19-11.34,19.19-11.08,2.24,3.87-21.42,7.77-19.22,11.58.54.92,19.65-11.34,19.65-11.34.37.65-19.66,11.58-19.66,11.58.3.51,18.48-10.67,18.48-10.67.55.94-19.25,12.35-19.25,12.35.43.75,19.28-16.17,21.47-12.39.66,1.15-26.07,8.15-22.54,14.26L154,88.94c2.72,4.72-21.17,14.34-21.17,14.34l20.41-11.79s-23.25,8-20.51,12.74c.33.58,21.2-13.68,21.82-12.61L131.72,107c3,5.2,20.13-11.62,20.13-11.62,2.56,4.44-21.41,8.59-19.15,12.5,2.94,5.08,21.07-12.17,21.07-12.17s-24.26,10.6-22.18,14.21c1.8,3.12,20.69-14.4,21.76-12.56,3.62,6.28-23.71,11.61-22,14.63C133.83,116.16,153.8,99,153.8,99c2.84,4.92-22,12.56-21.39,13.62,0,0,20.46-16.44,22.46-13,0,0-22.43,10.41-20.83,13.2.26.44,20.32-11.73,20.32-11.73s-23.07,9.77-21.14,13.13c2.79,4.82,18.31-14.19,19.87-11.48l-20.54,11.88c2.33,4,19.29-13.31,20.23-11.68l-18.73,12.92c.63,1.11,19.53-11.49,19.63-11.33,3.37,5.83-22.65,7.53-19.91,12.26,1.46,2.54,16.92-13.95,18.73-10.82,3,5.17-19.17,12.92-19.17,12.92l19.39-11.19c2,3.52-22.69,11.25-21.38,13.5,1.84,3.2,22.35-12.9,22.35-12.9.77,1.34-22.26,14.78-22.26,14.78,1.8,3.11,19.47-13.2,20.32-11.74,3,5.28-20.89,7-17.87,12.22s18.47-12,19.05-11c3.27,5.66-22.19,8.43-19.59,12.94,2.9,5,19.1-11,19.1-11,3.13,5.42-18.66,12.76-18.66,12.76s19.44-14.66,20.93-12.08l-21.47,13.48c1.44,2.49,21.11-12.19,21.11-12.19,1.91,3.29-22.13,12.06-21.23,13.62L153,118.63c.56,1-21.27,7.87-19.33,11.22,0,0,17.84-12,18.57-10.72l-19.59,12.1c2.52,4.35,22-13.12,22.2-12.82,0,0-20.89,13.16-20.71,13.48,3.18,5.51,18.76-13.2,19.78-11.43,3.23,5.58-23,7.15-19.72,12.83s18.78-10.85,18.78-10.85c3.31,5.74-23.07,7.25-19.69,13.11,2,3.47,17.91-13.15,19.12-11l-19.93,13.76c1.48,2.56,19.41-11.21,19.41-11.21l-20,11.62c.47.82,19.06-18,22.1-12.76,2.45,4.25-20.63,14.12-20.63,14.12,1.58,2.73,20.47-11.82,20.47-11.82,1.34,2.33-20.73,13-20.73,13L154.17,129c.55,1-23.87,7.54-20.53,13.33,2.29,4,16.46-17,19.71-11.38.15.27-18.21,11.27-17.84,11.91,2,3.44,15.77-12.35,17.18-9.92,0,0-17.21,6.69-15.7,9.32.73,1.26,16.48-12,17.54-10.13,1.79,3.1-14.08,10.27-14.08,10.27s12.1-9.59,13.22-7.64c.21.37-11.83,7.26-11.57,7.71l11.61-6.7c.95,1.63-11.94,7.22-11.94,7.22.09.16,11.68-6.74,11.68-6.74L145,141.7l8.26-4.77s-9.17,5.42-8.94,5.83c0,0,8.18-7.23,9.26-5.35s-6.59,3.67-6.3,4.17c0,0,6-3.5,6-3.49s-5,4.82-5,4.89,5.07-2.93,5.07-2.93l-1.94,2.75,2-1.14c.11.2.72.58.74.62l.26-.15"/><path class="cls-3" d="M110.6,31.61s.17-.11.18-.1l-.2.15.21-.12s-1.39,1.35-1.11,1.83L112,32c.33.57-2.32,3.18-2.32,3.18.17.3,2.56-2.71,3.1-1.79l-5,4.32s2.77-3.19,3.46-2c.37.63-4.68,3.14-4.68,3.14.49.85,5.72-3.3,5.72-3.3.66,1.16-4.11,2.42-4.11,2.42L113.46,35s-7.22,5.68-7,6l6.91-4-5.46,3.28c.74,1.28,6.7-4.35,6.9-4,0,0-8.14,3.4-7.14,5.13L113.57,38c1.05,1.83-7.4,5.46-7.4,5.46.26.44,7-4.62,7.28-4.21s-6.51,5.81-6.51,5.81c.68,1.18,8.82-5.82,9.14-5.27.23.4-12.3,7.65-11.76,8.58,0,0,8.78-7.59,9.87-5.7,1.37,2.37-10.92,6.47-10.8,6.69,1.27,2.19,12.11-7.51,12.34-7.12s-11.22,7.33-11.22,7.33,9.17-8.33,10.48-6.06c0,0-10.29,5-9.73,6,.78,1.35,10.94-6.69,11.1-6.41,0,0-12.58,6.27-11.86,7.51,1,1.74,8.77-7.69,9.91-5.72.06.12-11.08,7.46-11.08,7.46s12.44-8.51,13-7.52l-12,8.45c1.74,3,11.26-8.31,12-7,.51.88-17,5.81-14.65,9.84l16-9.21-13.22,9s11.93-7.79,12.32-7.11c0,0-13.38,8.11-12.84,9,.4.7,14.13-8.16,14.13-8.16,1,1.73-17.08,5.93-14.7,10.06,1.65,2.86,15.25-11.6,16.46-9.51L103.25,62.08l16.17-9.34c1.17,2-14.93,8.78-14.93,8.78s11.78-11.79,13.94-8.05-17.68,9-16.64,10.76c2.16,3.74,15.63-9,15.63-9,2.53,4.39-14.74,9.42-14.74,9.42s13.62-11.38,15.14-8.74c1.69,2.93-13.62,8.88-13.62,8.88,1,1.77,11.82-10.2,13.28-7.67L101.62,67.5s17.71-11.12,18.1-10.45l-17.46,10.2c1.38,2.4,17.6-10.16,17.6-10.16l-15.44,11,13.52-7.8s-15.59,6.32-14.13,8.85c1.76,3,15.3-8.91,15.33-8.85,1.93,3.34-15,10.66-15,10.66,1,1.67,15.31-8.84,15.31-8.84,2.26,3.91-16.59,10.63-16.59,10.63l16.62-9.6c.65,1.12-17,9.9-17,9.9,2.06,3.58,17.27-10,17.27-10,3,5.16-20.26,7.79-17.59,12.42.67,1.17,18-10.41,18-10.41,1.28,2.21-19.76,9-18.14,11.86.93,1.6,17.82-10.29,17.82-10.29l-18.5,12.83c1.1,1.9,15.11-11,16.09-9.28,0,0-17.59,5.53-15,10,0,0,13.09-13.07,15.48-8.94,0,0-15.68,10.06-15.45,10.47,2.9,5,15.91-9.18,15.91-9.18,2.34,4.06-17.88,12.3-17.88,12.3l20.21-11.67L101,86.62c2,3.4,18.87-11.07,19-10.94,2.84,4.92-20.59,8.69-18.58,12.16,1.13,2,14.65-15.75,17.81-10.28,0,0-20,9.74-18.57,12.23,0,0,19.34-12.55,19.94-11.51L99.61,90.81c2.58,4.46,20-11.56,20-11.56L100.49,90.32c.66,1.15,20.64-11.92,20.64-11.92.5.88-21.55,8.26-19.73,11.42l17.92-10.35C120.62,81.74,102,91.78,102,91.78c3.14,5.44,18.72-11.16,18.88-10.89L102,92.9C104.88,98,119.5,82.77,119.5,82.77c1.11,1.9-18.08,10.75-18.08,10.75,1.74,3,18.12-10.46,18.12-10.46L102.41,93.6c.91,1.57,16.17-14.67,18.48-10.67,0,0-22.14,7.34-19.37,12.14l19.85-11.45c2.14,3.72-20.18,12.75-20.18,12.75,3.34,5.78,18.39-11.41,18.74-10.81,0,0-19.62,9.17-18.28,11.48l20.19-11.66S97.05,93.3,100.63,99.5c2.51,4.35,21.49-12.41,21.49-12.41s-24.34,6.49-21,12.35c0,0,18.28-17.53,21.3-12.3,1.9,3.29-20.08,12.61-20.08,12.61l19-11c2.87,5-21.09,12.54-21.09,12.54.59,1,18.39-14,19.86-11.47,1.3,2.24-18.76,11.36-18,12.65.3.53,17-11.2,17.62-10.17L102.32,103c1.9,3.29,15.85-14.19,18-10.41,1.46,2.54-20.54,11.94-20.54,11.94,2.64,4.57,19.65-12.83,20.29-11.72s-20.88,8-19,11.24c2,3.43,20.45-11.81,20.45-11.81s-23.28,8.5-20.41,13.47c.43.74,18.56-10.71,18.56-10.71,1.21,2.1-20.15,10.14-19.3,11.61,1.12,1.94,22-12.73,22-12.73l-21,12.47c1.3,2.26,20-11.53,20-11.53l-20.67,13c3.23,5.6,20.13-11.62,20.13-11.62,3,5.15-20.66,13.14-20.66,13.14S117.92,92,121,97.3c2.63,4.55-21.89,12.18-21,13.67.6,1,18.7-17.37,21.55-12.44.44.77-22.21,14.89-22.21,14.89l20.32-11.73L99.9,113.59s19.1-18,22.14-12.78c0,0-20.59,13.81-20.45,14,0,0,18.13-14.88,20-11.57.36.62-21.84,9.59-20.27,12.31,2.68,4.64,17.69-14.59,19.58-11.31,1.53,2.64-21,9.28-19.47,12,.81,1.42,20.66-12.64,21-12.11,1.42,2.47-20.11,13.2-20.11,13.2,3.36,5.81,18.72-10.8,18.72-10.8s-22.52,10.29-21.23,12.53c0,0,20.11-12.56,20.52-11.85,2.43,4.2-17.92,12.21-17.92,12.21S120.2,105.13,122,108.16c2.55,4.42-20.3,14-20.3,14l18.88-10.89L100.16,123.2s18.55-16.73,21.16-12.22c0,.07-19.58,13.23-19.58,13.23.41.72,15.42-16.51,18.72-10.81,2.7,4.69-22.58,6.11-19.37,11.67,2.39,4.14,15.27-16.63,18.65-10.77,2.14,3.7-21.34,10.49-20.33,12.24,0,0,19.19-13.74,20.34-11.75,0,.09-20.36,8.72-18.75,11.51,0,0,19.68-14.75,21.15-12.21,0,0-21.63,11.51-21.1,12.42,2.41,4.19,20.71-12,20.71-12,2.52,4.36-23.31,8-20.14,13.53,0,0,18.6-14.78,20.35-11.75l-20.32,13.94c.8,1.38,16.49-17.05,19.75-11.4l-21.48,12.9c2.17,3.76,22.45-13,22.45-13L99.59,133.6c1.19,2.06,21.29-12.29,21.29-12.29l-20.52,11.94c2.68,4.64,18.53-18,21.69-12.52.91,1.58-23.19,11.43-22.27,13,0,0,19.46-18.26,22.5-13,.79,1.37-20.9,14.11-20.9,14.11s18.21-11.62,18.69-10.78c0,0-18.91,9.56-18.12,10.93,0,0,17.87-16.85,20.7-11.94,3.28,5.67-21.76,14.34-21.76,14.34,3.25,5.64,18.08-12.55,19-11,.25.43-21.07,11.69-20.6,12.5l23-13.28c2.45,4.25-21.37,12.61-21.13,13L119.65,128l-20,12.72s21.78-15.2,22.92-13.23c.94,1.64-24.2,12.69-22.85,15,0,0,20.79-16.84,22.89-13.21,3.51,6.08-23.47,8.43-20.3,13.93l20-11.53-16.81,11.11c2.11,3.66,13.26-12.06,15.17-8.76,1.25,2.17-14.44,6.82-13.65,8.19l12.92-7.46c1.34,2.31-14.38,4.71-12.26,8.38,0,0,11.15-9.08,12.29-7.1l-8,6.55c.33.58,10.25-7.09,10.76-6.21,0,0-13,4.58-11.64,6.84,0,0,10-6.78,10.4-6l-8.1,5.6,8.29-4.79s-5.21,3-4.83,3.7c.78,1.35,4.46-2.58,4.46-2.58,1,1.83-7.59,2.47-6.73,4,.39.66,7-4,7-4l-5.46,3.8c.48.83,4.56-3.28,4.84-2.8.19.32-3.56,2.16-3.1,3s3.68-2.78,4-2.29a6.33,6.33,0,0,1,.25,1.56c.05.09.46-.27.46-.27.2.36-1.77,1.09-1.75,1.13l1.54-.89"/><path class="cls-3" d="M166.23,138.19s.35-.24.37-.21-1.7,2.35-1.65,2.44c1,1.75,31.6-19.53,32.16-18.57,0,0-36.33,11.44-31.25,20.25.42.72,31-17.89,31-17.89s-30,17.19-29.73,17.73c0,0,26-20.06,28.2-16.27.24.42-24.38,16.09-24.38,16.09l24.86-14.36s-27.12,11-24.32,15.88C174,147.57,196,129.14,196,129.14L175,143c1.25,2.17,20.48-14.84,21.78-12.57.14.23-22.51,9.07-20.5,12.55,0,0,19.69-11.76,19.86-11.47.75,1.3-18.18,11.38-18.18,11.38l17.47-10.09c.94,1.63-15.8,8.09-14.9,9.66.66,1.13,14.78-14.15,17.21-9.94,0,0-16.51,6.1-14.61,9.38,0,0,12-11.58,14-8.1.49.84-12.65,9.42-12.65,9.42l11.09-6.41c.37.63-5,5.18-5,5.18s6.44-6.73,7.74-4.47c0,0-9.15,3.69-8.11,5.5,0,0,9.37-7.59,10.31-6l-6.63,5.06c.39.66,5.09-2.94,5.09-2.94l-5.4,3.28c.1.17,4.35-2.7,4.43-2.56s-2,2.13-2,2.13c.54.94,2.17-1.25,2.17-1.25s.26,1.53.26,1.53.6-.53.68-.39a2.55,2.55,0,0,0-.24.39l.24-.14"/><path class="cls-3" d="M168.68,84.58s2-1.4,2.13-1.23c.19.33-2.21,1.92-2.06,2.19,2.5,4.33,18.5-17.86,21.61-12.48,3.65,6.33-22.9,15.27-22.9,15.27C168.8,90.66,187.18,69,190.62,75c2.87,5-23.38,7.25-20.62,12,2.87,5,19.72-11.38,19.72-11.38L170.43,87.15l22.21-12.82s-25,8.63-22.2,13.46c2.3,4,20.4-11.77,20.4-11.77l-23.1,14.74,26-15C195.54,78.79,167.62,91,167.62,91c3.67,6.35,24.85-14.35,24.85-14.35l-24.3,14.42s24-15.79,24.83-14.34c2.74,4.74-27.81,9.62-24.05,16.13,1,1.69,24.89-14.37,24.89-14.37,1.89,3.28-27.39,13.57-26,16,3.4,5.89,25.19-18.33,26.82-15.49,3.27,5.65-26.3,17.4-26.3,17.4,2.51,4.34,21.73-21.07,25.42-14.68L169.13,97.4,193.8,83.15S164.15,94,167.54,99.87c2.94,5.1,28.84-16.65,28.84-16.65.94,1.64-26.53,16.56-26.53,16.56l27.46-15.85S167.12,99.79,168.42,102c4.22,7.31,26.69-15.42,26.69-15.42,2.41,4.19-25.67,17.11-25.67,17.11S193,82,196.54,88.08c2.74,4.75-30.07,9-26,15.94,1,1.73,25.7-18.87,27.44-15.85,1,1.77-30.81,13-28.66,16.75.72,1.24,26.9-17.54,27.77-16l-27.36,16.54,27.52-15.89s-33.74,10.55-29.82,17.33c1.5,2.6,28.18-16.27,28.18-16.27.33.58-25.31,14.72-25.31,14.72.33.58,25.52-14.73,25.52-14.73s-27.47,16.69-27.13,17.27c0,0,24.34-18.38,26.22-15.13,2,3.42-26.64,11-24.52,14.63,2.35,4.08,22.88-19.88,25.77-14.87,0,0-32.06,11-28.63,16.89,0,0,27.29-21.43,29.74-17.17,3.67,6.34-28.69,16.94-28.69,16.94s26.58-20.82,29-16.71c2.91,5-28.11,17.09-28.11,17.09,3.82,6.62,24.94-22.67,28.52-16.47l-30.16,18.46c3,5.22,27.39-15.82,27.39-15.82,2.62,4.54-26.51,15.9-26.51,15.9S194.26,95.14,195,96.39c1.88,3.26-25.66,15.29-25,16.45l26.2-15.13s-27.3,13.55-25.94,15.91c0,0,24.67-16.85,25.8-14.9.5.86-27,17.22-27,17.22,3,5.15,26.62-15.4,26.63-15.38,3.12,5.4-30.85,8.15-26.52,15.64l27.63-16c3.22,5.57-26.4,16-26.4,16s23.67-17,25.11-14.5c3,5.17-26.31,15.2-26.31,15.2l26.11-15.07c1.36,2.36-30,13.37-27.73,17.38,1.93,3.34,28.44-16.41,28.44-16.41,3.37,5.84-27,15.31-26.25,16.56.92,1.59,21.33-21.61,25.36-14.63,2.4,4.15-25.15,15.11-25.15,15.11s27.35-15.79,27.35-15.79S166.52,121,167.88,123.32c0,0,22.86-22.75,27-15.59,2.16,3.75-30.91,10.37-27,17.18s28.12-20.53,30-17.31c2.36,4.08-29,18.24-29,18.24l28.36-16.38-26.95,17.25c2.07,3.58,25.82-14.91,25.82-14.91,2.85,4.93-26.64,17.63-26.64,17.63.77,1.34,26.83-15.49,26.83-15.49,2.25,3.9-29.56,10.43-25.8,16.95,1.06,1.83,24-15.91,24.88-14.36s-25.94,17.28-25.94,17.28c4.4,7.61,27.18-15.69,27.18-15.69,1,1.66-31,11.35-27.3,17.76,1.87,3.23,26.79-15.46,26.79-15.46,2.25,3.91-27.53,15.49-27.13,16.2,0,0,23.93-20.4,26.78-15.47,1.88,3.25-31.2,11.71-28.15,17,.44.76,27.28-22.63,30.25-17.47"/><path class="cls-3" d="M175.47,74s-.21-.54.08,0c0,0-1.61,1-1.44,1.34L179.8,72c1,1.82-7.72,6.34-7.72,6.34,1.18,2.06,8.45-6.46,9.13-5.27s-9,7.16-9,7.16c.25.43,14.54-9,14.81-8.55L169.37,83c2.34,4,17.67-10.2,17.67-10.2s-17.38,6.09-15.23,9.81C173.5,85.57,184.56,70,186.87,74"/><path class="cls-3" d="M38,140l2.54-1.47c.38.66-2.83,3.3-2.78,3.39s20.54-12.79,20.94-12.1C60.59,133.1,41.22,142,41.22,142c3.07,5.32,17.8-13.11,19-11,0,.08-23,6.49-19.91,11.79,1.07,1.85,20.17-11.64,20.17-11.64s-18.66,8.25-16.67,11.71c2.3,4,14.63-8.44,14.63-8.44S46.19,138.66,48,141.79c1.2,2.09,12.2-7.37,12.34-7.13,1,1.8-13.12,6.13-11.9,8.25s10.21-9.57,11.8-6.82c.12.2-9.22,5.4-9.14,5.55.72,1.25,9.55-5.51,9.55-5.51.62,1.06-12.41,3.78-10.82,6.53,1,1.64,8.78-5.06,8.78-5.06.43.75-6.44,4.4-6.25,4.71l7.88-4.55c.32.55-4.15,4.05-4.15,4.05l5.56-3.21c.39.67-3.68,4-3.68,4,.34.59,2.67-2.49,3.08-1.78l0,1.13,1.37-.79c.27.48-1.73.85-1.53,1.19a9.09,9.09,0,0,1,1.35-.78c.2.33-2.33.88-2,1.5,0,0,1.78-1,1.78-1"/><path class="cls-3" d="M47.58,70.2l.08,0s-2.3,2.26-2.15,2.52c.26.45,3.88-4.25,4.75-2.74.56,1-6.73,5.88-6.73,5.88l9.17-5.3-10.17,8s12-7.52,12.26-7.08c2,3.37-14.27,4.65-12.5,7.71,1.49,2.57,12.9-7.45,12.9-7.45l-11.57,6.8c1.06,1.84,11.17-6.44,11.17-6.44S39.3,77.18,41.4,80.82c.46.8,11.82-6.83,11.82-6.83.82,1.44-11.71,5.62-10.33,8l13.72-7.92s-18,6.42-15.4,11c1.87,3.23,14-10.17,14.92-8.61,1.74,3-16.25,7.45-14.42,10.62,2.47,4.28,14-8.6,14.21-8.21,0,0-17.13,7.87-15.49,10.71,1.78,3.08,17.28-10,17.28-10,2.81,4.86-17.82,8-16,11.19L56.81,82.1,41.48,91.17s13.91-10.32,14.9-8.6c1.45,2.52-17.39,6.61-15.45,10,0,0,14.75-13.18,16.77-9.68C60,86.9,37.39,89.31,40.39,94.51l19.12-11C62.73,89.05,40,94.69,40.17,94.94c0,0,17.75-12,18.53-10.7.46.8-18.62,12.08-18.62,12.08C42.35,100.26,57.89,86,57.89,86s-18.13,9.8-17.43,11c2.34,4,18.84-10.88,18.84-10.88,2.64,4.56-19.94,8.58-17.78,12.33.12.2,15.52-9,15.52-9,1.84,3.19-15.87,11-15.87,11L59.23,90.1C62,94.93,40,100,41,101.8c2.3,4,18.38-11.45,18.74-10.82,0,0-18.66,11.36-18,12.47,2.72,4.72,14.61-12.28,16.27-9.4,2.79,4.83-20.31,7.45-17.75,11.89,3,5.26,19.9-11.49,19.9-11.49s-20.38,8-18.71,10.85c0,0,13.12-14.35,16.06-9.27.55,1-19.1,6.24-16.55,10.65S56.29,92.34,58.66,96.45c.37.63-19.15,8.64-17.25,11.92,0,0,17.86-10.85,18.09-10.45C60.72,100,37.86,107.14,40.07,111c2.81,4.85,15.2-13.92,17.43-10.06,1.17,2-18.52,7.46-16.7,10.6,2.3,4,17.19-10.06,17.25-10s-19.49,8.58-17.72,11.65c0,0,18.07-12.16,18.82-10.87,0,0-21,11.8-20,13.55,0,0,17.12-15.85,19.71-11.38L41.51,114.93c1.53,2.65,15.81-10.87,16.56-9.56,1.32,2.28-19.83,11.31-19.31,12.2,2.06,3.57,20.64-11.92,20.64-11.92.58,1-19,11.75-19,11.75,2.42,4.2,17.46-16.2,20.11-11.61,2,3.53-23.51,9.42-21.2,13.43C41.52,123,57.88,105,59.41,107.63c1.29,2.24-19.56,12.74-19.56,12.74C42.59,125.11,59,109.31,59,109.31c.93,1.61-21,5.86-18,11,0,0,14.09-14.15,16.69-9.64,0,0-17.44,10-16.67,11.34l18.22-10.52L40.73,122.86c.35.62,14.26-14.53,17-9.81.87,1.5-18.52,8.66-17.51,10.41,0,0,19.25-11.57,19.45-11.23.94,1.63-19.28,12.67-19,13.18l19.1-11-18.09,10.7s18.61-11.54,19-10.94c3.2,5.54-20.77,13.14-20.44,13.71,2.13,3.69,20.23-11.67,20.23-11.67C63,120.6,40.3,128.28,40.49,128.6l19.14-11c2.76,4.76-18.8,11.35-18.8,11.35L57.93,119s-18.37,9.44-17.16,11.53c0,.07,17.48-10.37,17.6-10.16,0,0-21.35,7.11-19,11.13l20.72-12c1.69,2.93-22.1,7.88-19.44,12.5.45.77,17.7-13.5,19.12-11,0,0-22.45,8.85-20.52,12.21.06.1,17.7-12.36,18.63-10.75L38.73,134s18.34-16.4,20.86-12L40.88,134.77l17.34-10c2.87,5-21.1,8.87-19.58,11.51,2.34,4,16.54-16.15,19.4-11.2,0,0-18.77,12.51-18.71,12.62.88,1.52,19.19-11.08,19.19-11.08s-17.94,9-17.32,10.07c0,0,17.43-15.1,19.61-11.32.61,1-20.29,13-20.29,13C43.6,143.66,56.78,125,58.5,128c0,0-19.87,10.78-19.54,11.35,3.21,5.56,20.35-11.75,20.35-11.75"/><path class="cls-3" d="M66.73,139.67c0,.09.37-.21.37-.21l.46.62c2,3.37,21.73-12.55,21.73-12.55L65.65,142.68c.4.68,22.68-13.1,22.68-13.1s-23.48,12.75-23,13.68,19.56-16.54,21.83-12.61L69.56,142c.13.23,17.22-10,17.22-10,.93,1.62-18.55,11-18.55,11L87.46,132s-19,6-16.26,10.78L88,133c2.11,3.66-12.76,9.24-12.76,9.24C77,145.23,89.6,134,89.6,134c.7,1.2-11,8.53-11,8.53,1.26,2.19,10.55-6.09,10.55-6.09s-6.42,3.21-5.39,5c.5.88,4.42-4,5-2.9.29.5-3.29,3.37-3.18,3.56.31.54,4.15-4.05,4.86-2.81a20.35,20.35,0,0,0-1.61,2.48s.62-.73.78-.45l-.37,1.33.68-.39"/><path class="cls-3" d="M73.61,87.08c.15.25,4.14-2.41,4.15-2.39.69,1.2-4.41,2.94-4.41,2.94S76,85.46,76.25,86l-2.06,2.51c.44.77,4.1-4.66,5.1-2.94,0,0-10.19,4.83-8.74,7.33l10.28-5.94-8.86,7s11.57-7.27,11.83-6.83c.4.7-14.93,9.84-14.83,10l13.9-8L69.24,97.93c1.65,2.86,14.46-11.8,16-9.21,0,0-17.31,7.72-15.74,10.43l13.89-8L69,101.07c2.66,4.6,14.74-9.85,15.32-8.85L67.7,102.59c1.32,2.29,14.82-14,17.17-9.91L67.42,104.59s17.71-13,18.91-10.92c.58,1-18.76,12.48-18.76,12.48,1.68,2.91,18.53-10.7,18.53-10.7.81,1.4-19,10.62-18.33,11.85,0,0,16.93-10.38,17.2-9.93L67.82,109.29S87,96.94,87.56,97.9c.91,1.58-21.74,8.92-19.82,12.25L87.9,98.51c.36.61-19.46,8.48-17.94,11.13S85.27,99.11,86,100.38L68.42,111.23,88.78,99.47s-23.33,6.89-20.3,12.14C70,114.29,86.92,101,86.92,101c.23.39-18.57,12.52-18.57,12.52L88.29,102c2.56,4.44-22.38,6.89-19.49,11.9.93,1.6,20.37-11.76,20.37-11.76,2.08,3.59-23.86,8.8-20.8,14.1,2.4,4.16,18-17.23,21-12.11,0,0-25.23,7.07-21.69,13.21,0,0,18.65-17.64,21.62-12.48,2.75,4.75-21.9,14-21.9,14s17.65-17.5,20.82-12l-21,12.33s20.64-14.46,21.74-12.55c1.72,3-25.53,7.32-21.94,13.54l20.45-11.81L67.88,122l21.46-12.39c2,3.41-22.85,7-19.66,12.56,2.87,5,16.88-16.74,19.91-11.5,2.82,4.89-19.93,12.32-19.93,12.32.66,1.14,16.74-10.23,17-9.81,0,0-17.61,11.57-17.24,12.21L88.18,114.5c2.62,4.55-20.37,12.81-20.37,12.81.29.51,20-14.35,21.2-12.23,1.79,3.11-25.14,7.67-21.63,13.74,1.52,2.65,19-11.91,19.37-11.18l-17.2,11,19.22-11.09c.77,1.34-20.6,10.84-19.72,12.36,2.31,4,18.83-10.87,18.83-10.87L68.76,131.7c1,1.77,18.87-10.89,18.87-10.89,2.11,3.65-19,12.82-19,12.82s18.28-14.16,19.84-11.45c0,0-21.76,10.74-20.42,13.06.35.59,19-12.25,19.59-11.31,2.33,4-21.22,8.43-18.77,12.67.56,1,19-11,19-11s-24.23,6.91-20.84,12.78c.1.16,17.21-16.72,20.15-11.63L68,138.93c1,1.77,19.31-11.14,19.31-11.14"/><path class="cls-3" d="M207.26,103.68a15.37,15.37,0,0,1,2.36-1.36c.33.56-4,2.85-3.62,3.55,0,0,14.95-9.24,15.21-8.79l-14.58,8.72,12.89-7.44c.56,1-14,8.51-13.46,9.47,0,0,16.59-10.35,16.93-9.77l-16.53,11.76,18-10.42s-18.8,11.06-18.55,11.49l17.37-10c1.33,2.31-18.16,9.41-16.93,11.55,0,0,16.61-15.09,19-11l-18,11.62,17.79-10.27s-18,8.51-16.27,11.51c.08.13,14.06-12.43,15.93-9.19l-16.52,11.35c1.54,2.67,17.89-10.33,17.89-10.33L207.6,117.05l19.68-11.36-19.49,13c2.91,5,19.2-11.08,19.2-11.08,1.58,2.72-20.21,12.34-20.21,12.34,1,1.77,17-13.94,18.76-10.83,0,0-20.52,9.78-19.09,12.24,0,0,19.07-15.3,20.92-12.08,0,0-24.6,7.48-21.14,13.48,0,0,17.9-15.57,20.17-11.64l-19.82,11.56s18.5-14.24,20-11.57c0,0-20.3,10.14-19.06,12.28,0,0,14.07-14.8,17-9.78.29.51-16.81,11.71-16.81,11.71,2.61,4.53,17.73-11.67,18.35-10.59l-18,11.53c1.41,2.46,18.77-10.84,18.77-10.84,1.15,2-18.86,10.75-17.92,12.38,0,0,15.48-12,16.8-9.7,0,0-18.32,9.87-17.81,10.76,0,0,16.2-12.78,17.69-10.21l-16.66,11.1,18.16-10.49-18.77,12.64s18.38-10.83,18.47-10.67c.55,1-20.43,13.79-20.43,13.79,2.8,4.86,19.48-11.24,19.48-11.24l-17.12,9.94c2.79,4.83,16.54-13,18-10.43,0,0-20.61,10.68-20,11.65l18.37-10.6c2.92,5.05-17.2,10.72-17.14,10.82l18.43-10.64C229,129,206.11,132,207.92,135.16c2.61,4.52,16.92-10.75,17.35-10,0,0-18.05,11.13-17.86,11.45,0,0,16.26-13.7,18.13-10.47,2.13,3.71-18.17,12.22-18.17,12.22,2.74,4.75,18.12-14.43,19.84-11.46,1.92,3.32-26.09,9.81-22.83,15.46,2.14,3.71,21.53-12.43,21.53-12.43,2.7,4.69-18.31,12-18.31,12S226,130.21,226.47,131c.89,1.54-19.38,6.55-16.8,11,0,0,12.47-13.37,15.15-8.74,1.07,1.86-16.47,8.52-15.83,9.64.33.56,16.73-9.66,16.73-9.66.34.58-14.92,9.31-14.92,9.31.84,1.46,12.86-11.17,14.49-8.36,1.42,2.47-14.24,4.89-12.32,8.21,0,0,11-7.64,11.53-6.65l-10.19,6.88,11-6.34c.24.41-8.92,5.68-8.92,5.68l10.76-6.21c.73,1.27-13.48,4.86-12.09,7.27,1.29,2.24,10.07-6,10.15-5.86.69,1.19-8.39,5.82-8.28,6,.22.39,9.55-5.51,9.55-5.51l-6.89,4.59s4.39-4.64,5.3-3.06l-3.24,3.37c.82,1.41,6.23-3.6,6.23-3.6.78,1.35-4.74,3.62-4.74,3.62s5.31-3.11,5.33-3.08-5.58,2.22-5,3.23,4.91-2.83,4.91-2.83-1.78,2.68-1.58,3l.78-.45"/><path class="cls-3" d="M212.6,97.55s.16-.73.44-.25c0,0-3.44,1.9-3,2.69s6.06-5.57,7-4c0,0-5.84,2.8-5.54,3.33,0,0,5.23-4.42,5.83-3.37,0,0-10.49,3.74-8.95,6.42,0,0,9.31-8.45,10.64-6.14l-10.37,6.6,10.48-6"/></g></g></svg>