<svg xmlns="http://www.w3.org/2000/svg" viewBox="0 0 240.03 313.23"><defs><style>.cls-1{fill:#f8e2e2;}.cls-2{fill:none;stroke:#ee6a5a;stroke-linecap:round;stroke-linejoin:round;stroke-width:0.5px;}.cls-3{fill:#fff;}.cls-4{fill:#333;}</style></defs><title>venta de armas</title><g id="Layer_2" data-name="Layer 2"><g id="Layer_1-2" data-name="Layer 1"><path d="M82.58,199.75H69.69v-3l6.2-4.63C77.45,190.93,78,190,78,188.82a2.06,2.06,0,0,0-2.28-2.09c-2,0-2.86,1.24-2.86,3l-3.71-.7c.1-3.66,2.5-6,6.64-6,4.31,0,6.37,2.54,6.37,5.42,0,2-.67,3.74-3.34,5.6l-3.13,2.16h6.86Z"/><path d="M97.63,186.81H90.29l-.22,2.73h1.19c4.36,0,6.9,1.46,6.9,4.73,0,3.88-2.88,5.72-7.22,5.72a17.25,17.25,0,0,1-5.74-1l1-3.35a12,12,0,0,0,4.5,1c1.89,0,3.28-.71,3.28-2.18,0-1.31-1.14-1.84-3-1.84H86.27l-.17-.17.8-9.09H97.63Z"/><path d="M108.49,186.81h-8v-3.54H113v2.81l-6.42,13.67h-4.49v-.37Z"/><path d="M114.93,200a2.09,2.09,0,0,1-1.45-2.18,2.17,2.17,0,0,1,2.35-2.4,2.22,2.22,0,0,1,2.4,2.4,14.09,14.09,0,0,1-2.06,6.11l-2.26-.9Z"/><path d="M128.14,186.81h-8v-3.54h12.5v2.81l-6.42,13.67h-4.48v-.37Z"/><path d="M147,186.81h-7.35l-.21,2.73h1.18c4.37,0,6.91,1.46,6.91,4.73,0,3.88-2.88,5.72-7.22,5.72a17.25,17.25,0,0,1-5.74-1l1-3.35a12,12,0,0,0,4.51,1c1.89,0,3.27-.71,3.27-2.18,0-1.31-1.14-1.84-3-1.84H135.6l-.17-.17.8-9.09H147Z"/><path d="M157.75,183c4.87,0,7.34,3.27,7.34,8.5s-2.47,8.46-7.34,8.46-7.32-3.27-7.32-8.46S152.93,183,157.75,183Zm0,13.23c2.64,0,3.39-2.14,3.39-4.73s-.75-4.8-3.39-4.8-3.37,2.16-3.37,4.8S155.16,196.26,157.75,196.26Z"/><path d="M12.71,220.51c0-.68-.12-1.16-.75-1.16a2.77,2.77,0,0,0-1.24.31l-.12-3.19a7.61,7.61,0,0,1,3-.54c2,0,3.17,1,3.17,3.61v3.3c0,1.72.61,2.52,1.92,2.52s2.27-.9,2.27-2.81a15.65,15.65,0,0,0-1.55-6.4h4.32a19.25,19.25,0,0,1,1.3,6.64c0,3.76-2.25,6.28-6.34,6.28s-6-2.16-6-5.62Z"/><path d="M39.83,227.44a8.55,8.55,0,0,1-5.38,1.72c-4.78,0-7-2.88-7-6.64a6.46,6.46,0,0,1,6.74-6.71c3.85,0,5.69,2.38,5.69,5.28a11.27,11.27,0,0,1-.26,2.43H31.54a2.82,2.82,0,0,0,3.15,2.42,6.82,6.82,0,0,0,3.63-1.21Zm-3.45-6.78c0-1-.67-1.75-2.18-1.75a2.45,2.45,0,0,0-2.59,2h4.77Z"/><path d="M47,216.15v1.41a5.21,5.21,0,0,1,3.86-1.63c3.27,0,4.65,2.5,4.65,5.6v3c0,.63.14,1.16.77,1.16a3.13,3.13,0,0,0,1.24-.34l.12,3.22a8,8,0,0,1-3,.54c-2,0-3.2-1-3.2-3.59v-3.27c0-1.62-.75-2.52-2.14-2.52a2.71,2.71,0,0,0-2.3,1.57v7.56H43V216.15Z"/><path d="M64.83,212.93v3.22h4.39v3.15H64.83v4.41c0,1.29.54,1.82,1.5,1.82a4.46,4.46,0,0,0,2.38-.85l1.24,3.1A9.33,9.33,0,0,1,65,229.07c-2.64,0-4.27-1.6-4.27-4.66V219.3H58.61v-3.15h2.27l.51-3.22Z"/><path d="M85.16,224.49c0,.63.17,1.16.78,1.16a2.72,2.72,0,0,0,1.21-.34l.14,3.22a8.64,8.64,0,0,1-3,.54,2.71,2.71,0,0,1-2.89-1.82A5,5,0,0,1,77.51,229c-3.47,0-5.84-2.71-5.84-6.52s2.37-6.59,5.84-6.59a4.74,4.74,0,0,1,3.58,1.34v-1.12h4.07Zm-4.07-4.1a3.65,3.65,0,0,0-2.42-.92,3,3,0,0,0,0,6.06,3.78,3.78,0,0,0,2.42-.92Z"/><path d="M98.59,220.1a8.54,8.54,0,0,0-3.78-1c-.83,0-1.53.24-1.53.85s.32.66,1,.85l2.26.61c2.3.63,3,1.86,3,3.58,0,2.45-1.93,4.1-5.28,4.1a11.61,11.61,0,0,1-5-1.09l.75-3.18A9.33,9.33,0,0,0,94,226c1,0,1.5-.2,1.5-.75s-.48-.63-1.28-.85l-2-.56c-2.06-.6-3.08-1.74-3.08-3.66,0-2.52,2.21-4.24,5.74-4.24a13.27,13.27,0,0,1,4.73.92Z"/><path d="M121.44,211.62v12.87c0,.65.14,1.16.77,1.16a3.49,3.49,0,0,0,1.21-.34l.15,3.22a8.61,8.61,0,0,1-3,.54,2.7,2.7,0,0,1-2.88-1.72,4.72,4.72,0,0,1-3.9,1.72c-3.44,0-5.84-2.77-5.84-6.59s2.4-6.55,5.84-6.55a5.32,5.32,0,0,1,3.61,1.31v-5.62Zm-6.5,13.91a3.88,3.88,0,0,0,2.43-.9v-4.24a3.71,3.71,0,0,0-2.43-.92,3,3,0,0,0,0,6.06Z"/><path d="M137.7,227.44a8.55,8.55,0,0,1-5.38,1.72c-4.78,0-7-2.88-7-6.64a6.46,6.46,0,0,1,6.74-6.71c3.85,0,5.69,2.38,5.69,5.28a11.27,11.27,0,0,1-.26,2.43h-8.12a2.82,2.82,0,0,0,3.15,2.42,6.85,6.85,0,0,0,3.64-1.21Zm-3.44-6.78c0-1-.68-1.75-2.18-1.75a2.46,2.46,0,0,0-2.6,2h4.78Z"/><path d="M159.63,224.49c0,.63.17,1.16.77,1.16a2.68,2.68,0,0,0,1.21-.34l.15,3.22a8.75,8.75,0,0,1-3,.54,2.7,2.7,0,0,1-2.88-1.82A5,5,0,0,1,152,229c-3.47,0-5.84-2.71-5.84-6.52s2.37-6.59,5.84-6.59a4.76,4.76,0,0,1,3.59,1.34v-1.12h4.07Zm-4.07-4.1a3.66,3.66,0,0,0-2.43-.92,3,3,0,0,0,0,6.06,3.8,3.8,0,0,0,2.43-.92Z"/><path d="M165.3,220.51c0-.65-.12-1.16-.78-1.16a3.17,3.17,0,0,0-1.23.31l-.12-3.19a7.55,7.55,0,0,1,3-.54,2.75,2.75,0,0,1,3,1.87,3.16,3.16,0,0,1,3.07-1.87,3.75,3.75,0,0,1,2.26.61l-.51,3.71a4.62,4.62,0,0,0-2.42-.56c-1.51,0-2,1.21-2.16,2.52v6.61H165.3Z"/><path d="M180.81,216.15v1.26a5.24,5.24,0,0,1,3.82-1.5c2,0,3.3.7,4,2.16a5.18,5.18,0,0,1,4.37-2.14c3.27,0,4.6,2.5,4.6,5.6v3c0,.63.12,1.16.73,1.16a3.22,3.22,0,0,0,1.23-.34l.17,3.22a9,9,0,0,1-3.05.54c-2,0-3.15-1-3.15-3.59v-3.27c0-1.62-.75-2.52-2.13-2.52a2.34,2.34,0,0,0-2.14,1.36v7.77h-4.07v-6.64c0-1.59-.7-2.49-2.1-2.49a2.44,2.44,0,0,0-2.23,1.4v7.73h-4.07V216.15Z"/><path d="M214.75,224.49c0,.63.17,1.16.78,1.16a2.72,2.72,0,0,0,1.21-.34l.15,3.22a8.75,8.75,0,0,1-3,.54,2.71,2.71,0,0,1-2.89-1.82A5,5,0,0,1,207.1,229c-3.47,0-5.84-2.71-5.84-6.52s2.37-6.59,5.84-6.59a4.74,4.74,0,0,1,3.58,1.34v-1.12h4.07Zm-4.07-4.1a3.63,3.63,0,0,0-2.42-.92,3,3,0,0,0,0,6.06,3.78,3.78,0,0,0,2.42-.92Z"/><path d="M228.18,220.1a8.51,8.51,0,0,0-3.78-1c-.82,0-1.53.24-1.53.85s.32.66,1,.85l2.26.61c2.3.63,3,1.86,3,3.58,0,2.45-1.94,4.1-5.29,4.1a11.61,11.61,0,0,1-5-1.09l.75-3.18a9.33,9.33,0,0,0,4,1.19c.95,0,1.51-.2,1.51-.75s-.49-.63-1.29-.85l-2-.56c-2.06-.6-3.08-1.74-3.08-3.66,0-2.52,2.21-4.24,5.75-4.24a13.26,13.26,0,0,1,4.72.92Z"/><path class="cls-1" d="M48.9,121.7H193.74c4.58,0,5.23-.76,4.39-5.17Q191.55,82.23,185,47.93c-.5-2.65-1.75-3.82-4.46-3.7-3.05.12-6.1,0-9.37,0V24.85c3.29,0,6.55,0,9.81,0,2.39,0,3.77-1,3.79-3.46,0-6,.08-12-.05-18.06,0-1.12-.8-2.23-1.23-3.34H136.26c-.43,1.61-1.19,3.21-1.24,4.83-.16,5.28,0,10.56-.08,15.85,0,2.93,1.21,4.3,4.21,4.19s6.11,0,9.41,0V44H102.11c-.15-.3-.34-.51-.35-.72-.23-6.87,1.1-7.35-7.73-7.22-4,.06-8.12.2-12.16,0-3.69-.23-5.3,1.12-4.88,4.84a24.25,24.25,0,0,1-.14,3.41c-5,0-9.84.13-14.7,0-3-.11-4.34,1-4.91,4-4.24,22.64-8.63,45.26-13,67.88C43.3,121,43.85,121.7,48.9,121.7Z"/><path class="cls-1" d="M204.15,131.22c0-2.88-1.31-4-4.05-3.89s-5.41,0-8.11,0q-74.1,0-148.19.07c-1.88,0-3.76,1.08-5.64,1.66v35.41c1.83.49,3.65,1.41,5.47,1.41Q121,166,198.45,166c.61,0,1.23,0,1.84,0,2.56,0,3.85-1.12,3.84-3.78C204.1,151.86,204.08,141.54,204.15,131.22Z"/><path class="cls-2" d="M76.27,38.92s.82-.78,1-.55c.24.41-1.48,1.71-1.3,2,.55,1,4-2.28,4-2.28l-5.56,3.23c.08.15,7-4,7-4s-6.17,4.8-5.4,6.12c0,0,9.12-5.36,9.16-5.29s-9.9,3.89-9,5.45c.36.62,8.36-7.14,9.36-5.41,0,0-12.09,4.76-10.77,7,1.7,3,11.54-6.77,11.59-6.69l-9.7,6.71s9.19-9.56,11-6.37"/><path class="cls-2" d="M169,27.1c.61,1,15-8.68,15-8.68s-17.32,5.7-15.33,9.15c0,0,14.32-8.44,14.39-8.31,1.07,1.85-4.65,6.45-4.42,6.85.35.59,4.54-2.62,4.54-2.62.28.49-1.75,2.57-1.75,2.57.1.18.12-.52.32-.18"/><path class="cls-2" d="M154,26.44c2.65,4.59,28.58-16.5,28.58-16.5.48.82-22.9,17.15-22.9,17.15s20.69-19.4,23.92-13.81c2.61,4.53-22.25,11.69-20,15.54s17.07-14.35,19-11c.58,1-18.69,10-17.82,11.47L182.4,19.1S158.67,28.27,162,34l8-4.6c1.15,2-8.22,3-7.15,4.83.78,1.35,5.05-2.91,5.05-2.91.57,1-3,3-3,3,.39.67,4.58-3.52,5-2.86.27.47-6.6,3.23-5.78,4.65,0,0,5.08-3.69,5.41-3.13.83,1.44-6.86,5.15-6.67,5.47.45.79,4.58-4.18,5.25-3,.47.83-4.19,5-3.61,6l3.78-2.18-4,4.75s3.28-2.85,3.69-2.13c0,0-3.52,3.06-3.51,3.08s6-3.66,6.11-3.53c.82,1.41-8.54,3.43-7.72,4.84l5.23-3"/><path class="cls-2" d="M56.35,47.54c.15.26,3-1.76,3-1.76.6,1-3,4.68-3,4.68.63,1.09,8.28-4.78,8.28-4.78,1.13,2-11.14,10.08-11.14,10.08C56,60,68.65,46.78,68.76,47l-12.7,7.61c2.39,4.15,12.4-10,13.62-7.86L52.45,61.17,91.88,38.4c5.32,9.22-46.19,14.75-39.75,25.9,5.73,9.92,40.1-37.88,46.48-26.84,0,0-45.57,24.31-44.46,26.23L99.49,37.51c4.8,8.33-46.39,27-46.39,27C55.86,69.32,98,37.19,98.63,38.25c2,3.38-48.45,24.18-46.53,27.5,4.9,8.49,46.8-27,46.8-27,5.85,10.14-45.48,28-45.48,28S100,38.07,100.73,39.36L50.57,71c7,12.08,48-27.73,48-27.73,3.73,6.47-48.47,29.23-48.47,29.23,7.4,12.82,40.09-41.82,48.18-27.81,0,0-56.71,18.83-48.9,32.36,0,0,51.86-35.61,54.31-31.36l-54.46,33S106.07,43.67,107,45.28,49.32,73,51.74,77.22C58.45,88.83,97.9,33.87,105.13,46.4c5,8.68-59.12,26.94-55.34,33.48C52.35,84.31,107,46.82,107,46.82S42.88,72.61,48.3,82c2.83,4.9,62.85-36.29,62.85-36.29S47.22,80.75,49.36,84.45l66.17-38.2c2.85,4.94-66.69,38.89-65.76,40.5,7.3,12.65,69.65-40.21,69.65-40.21L47.35,88.23l73.79-42.6c2,3.43-84,29.44-74.28,46.32l80.47-46.46c2.87,5-81.23,48.88-81.23,48.88S119.25,25,131,45.36C143.48,67,46.86,94.41,46.86,94.41c5.71,9.88,84-48.48,84-48.48S39,88.74,45.21,99.58c8.79,15.22,93.46-54,93.46-54,1.89,3.27-99.34,49.18-94.1,58.27L146.35,45.12c2.57,4.44-102,62.72-102,62.72,12.24,21.2,96.58-82,108-62.32,3.32,5.75-112.68,56-107.85,64.4,7.94,13.76,103.84-73.87,109.86-63.43,13.89,24.05-112.95,61-110,66.09,0,0,105.16-85.35,115.83-66.87,17.95,31.1-118.48,71.9-118.07,72.61,18.38,31.84,126.76-73.18,126.76-73.18,1.22,2.11-131.12,67.62-125.65,77.11,17.65,30.55,124.24-92,133-76.79C184.25,59.35,37.67,111,44.05,122c.42.72,118.26-99.86,131.94-76.17,0,0-148.54,46.87-131.09,77.1C63.36,154.93,177,46.68,177,46.68c9.18,15.91-141.6,64.64-134.17,77.52,0,0,133-80,134.39-77.59C185,60.1,49.1,119.82,51.28,123.6,61.74,141.71,178.7,43.82,181.39,48.48L58.82,123.32c12.43,21.53,124.3-71.77,124.3-71.77C193.48,69.48,54.09,106.67,63.5,123L185.29,52.66S52.51,99.39,66.44,123.51L183.9,55.69c17.92,31-113.38,67.21-113.38,67.21,2.44,4.22,113-65.24,113-65.24,10.73,18.6-110,66.39-110,66.39S180.3,50.14,185.61,59.34c0,0-124.24,39.52-109.77,64.58,2.21,3.82,107.42-64.36,108.43-62.6L80.12,123.47S178,50.22,185.25,62.78s-103.77,60.9-103.77,60.9c1.49,2.56,92.64-83.73,105.73-61L86.4,123.19l99.81-57.62L86.4,124.29,187.77,65.76S81.34,104.9,92.68,124.53c0,0,93.72-55.75,94.43-54.52,10.36,17.95-87.19,50.91-85.6,53.65L187.61,74c11.51,19.94-78.06,49.33-78.06,49.33,2.12,3.68,69.07-62.52,78.87-45.54,0,0-79,32.3-71.43,45.41,7.84,13.57,72.74-42,72.74-42s-71.78,32.73-66.1,42.56l65.43-37.77s-65.8,37.56-65.57,38c7.56,13.09,67.69-39.08,67.69-39.08.47.82-64.9,39-64.9,39s52.84-52.54,62.38-36c3.64,6.3-56.77,35.91-56.77,35.91L192.13,88.9c.16.28-64.62,24.11-58.55,34.62,7.71,13.37,57.24-33.73,57.54-33.22,7,12.14-59.06,21.66-51.83,34.19,1.66,2.88,44.79-44.78,53-30.59,0,0-55.11,16.82-47.63,29.78,1.7,2.94,46.78-27,46.78-27,6.51,11.29-46.75,22.91-44.55,26.73,6.84,11.84,44.85-25.9,44.85-25.9S150.11,120,152.67,124.41c5.19,9,34.85-34,40.88-23.6,1.46,2.53-30.49,21.94-30.49,21.94,4.13,7.16,25.42-23.88,29.41-17,0,0-27.38,12.67-24.78,17.17,1.78,3.09,22.78-20.39,25.92-15,.84,1.46-21.62,14.84-21.62,14.84l23.62-13.64c.37.64-24.76,13.23-24,14.55,3.09,5.34,22.41-12.94,22.41-12.94,1.21,2.08-20.15,12-20.15,12s16.89-18.05,20.49-11.83l-18.07,11.81,18.05-10.42s-12.6,11.09-12.44,11.37c1.36,2.37,14.64-8.46,14.64-8.46,1.88,3.26-10.85,8.57-10.45,9.25.12.21,10-5.79,10-5.79,1,1.79-5.45,4.89-5.45,4.89s6-5,6.69-3.87c0,0-3.93,3.45-3.49,4.21,0,0,1.46-1.22,1.62-.94"/><path class="cls-2" d="M133.77,2.59s2.39-1.43,2.42-1.39a19.22,19.22,0,0,1-1.85,2.05l.78-.45c.09.16-1.85,4.07-1.85,4.07S141-.06,142.06,1.8c1.31,2.28-11.06,6.55-9.8,8.72,0,0,13.17-8.32,13.48-7.79,2,3.52-12.76,10.1-12.76,10.1S150.76,0,151.86,1.93c1.72,3-19.6,14.14-19.6,14.14C135,20.87,156.37.37,157.14,1.71c3.08,5.34-25.88,11.13-22.63,16.77,4.17,7.22,25.23-22.55,28.69-16.57,0,0-35,11.41-30,20.05,2.38,4.12,35.25-20.35,35.25-20.35S130.92,20.47,133.55,25C140,36.13,167.15-7.37,172.78,2.37c0,0-42.17,20.34-39.65,24.71,0,0,38.18-31.84,42.42-24.49,0,0-40.33,21.1-38.05,25,0,0,37-35.79,43.23-25,0,0-41.43,17.71-38,23.61L181.57,3.84C187,13.23,144.06,26,144.06,26,149.83,36,183.7,3.07,183.7,3.07c5.3,9.17-38.23,26.52-38.23,26.52,4.72,8.17,33.2-30.3,38-21.95,3.58,6.2-38.89,18.54-37.15,21.55,4.37,7.58,36-24.94,37.83-21.84s-44.28,12.92-38,23.84c0,.07,7.53-4.44,7.57-4.37.24.41-8.21,6.6-8.21,6.6.09.16,6.31-3.64,6.31-3.64.68,1.18-4.59,7.21-4.58,7.22s3.76-4,4.55-2.62c.2.34-6.11,2.36-5.56,3.31l6.43-3.7c.19.33-7.44,4.38-7.44,4.38.41.71,8.64-5,8.64-5l-6.64,5,5.63-3.25c1.08,1.89-5.42,6-5.42,6s4.59-3.92,5.14-3-6.31,4.7-6.18,4.92c.43.75,5.69-3.29,5.69-3.29s-7.43,4.87-6.72,6.1c0,0,6.17-3.93,6.33-3.65l-5.52,3.9c.67,1.17,5.11-2.95,5.11-2.95"/><path class="cls-2" d="M36.69,131a4.85,4.85,0,0,0,.49-.29c.21.36-1.9,1.85-1.82,2l5.54-3.2L36,134.46c.17.3,7.6-5.35,8-4.63l-8.85,9.49c1.78,3.07,14.66-11.42,15.94-9.2,0,0-16,8.91-15.75,9.43,0,0,16.85-14.27,18.82-10.86L37.42,139l16.19-9.34c2,3.42-17.8,14.65-17.8,14.65L63,128.59c1.58,2.73-27.75,14.25-25.46,18.21,0,0,30.37-19.71,31.31-18.08.45.78-32.2,19.07-32.2,19.07.8,1.39,28.55-20.91,30.47-17.59,2.33,4-30.64,19.73-30.64,19.73,4.54,7.86,34.82-21.08,35.24-20.35,2.08,3.6-38.72,17.55-36.39,21.59,5.83,10.1,30.43-31.4,36.42-21C77.36,139.93,38,153.63,38,153.63c3.95,6.83,37.16-29.18,40.5-23.38L36.08,155.11c5.36,9.28,41.48-28.32,43.37-25.05,0,0-45.83,22.19-43.28,26.62,3.62,6.27,43.25-33.68,47-27.15,0,0-54.15,20.47-48.26,30.67C43.38,174.83,89,129,89,129s-60.19,19-51.61,33.87c2.7,4.69,47.74-50.35,57.6-33.26,7.69,13.31-59.93,35.47-59.93,35.47,9.95,17.24,54.27-47.4,61.23-35.35,0,0-63.34,26.68-57.54,36.74l63-36.35c2.63,4.56-58.17,37.25-58.17,37.25,10.52,18.21,64.7-41.49,66.5-38.39,5.8,10.06-67.67,28.5-62.11,38.13,4.6,8,59.55-50.35,66.47-38.37,5.5,9.53-65.21,30.26-60.5,38.43.73,1.25,65.5-37.81,65.5-37.81S45.61,149.69,55.58,167s63.74-43,66.44-38.36c9,15.51-59.83,39-59.83,39,2.67,4.61,59-51.13,66.38-38.32,8.24,14.26-67.67,39.26-67.67,39.26,7.69,13.33,64.5-45.06,67.89-39.19.72,1.25-64.54,38-64.54,38,8.07,14,66.61-38.46,66.61-38.46S64.8,158.79,70.37,168.44l68.54-39.57c8.47,14.67-69.58,31.5-65.5,38.58,8.45,14.63,66.4-38.33,66.4-38.33,3.3,5.73-66.16,37.9-65.2,39.57,0,0,58.34-54.49,67.35-38.88L78.65,168.63C78.88,169,147,129.2,147,129.2c4,6.9-58.77,38.43-58.77,38.43l66.36-38.31S81.11,152.64,90.39,168.7c0,0,64.39-45.75,68.1-39.32,1.26,2.18-62.72,38.47-62.72,38.47S156.08,117,163,129L99.38,168.49l68.73-39.68S101.72,162,104.86,167.45l64.55-37.26c9.2,15.94-68.27,30.46-64.36,37.25,4.4,7.6,56.79-51.47,64.88-37.46,0,0-65.42,26.94-59,38.1,0,0,54.68-56.66,65.54-37.84l-62,37.17c7.64,13.25,67.34-38.88,67.34-38.88l-65.66,39.52c3.71,6.42,65.58-37.86,65.58-37.86,7,12.1-58.82,37.4-58.82,37.4,3.92,6.79,56.9-51.2,64.84-37.44,0,0-68.83,28.18-63.1,38.1l67.87-39.18c6.18,10.72-64.9,38.9-64.9,38.9,9.71,16.81,66.81-38.57,66.81-38.57,3.59,6.23-64.76,35.8-63,38.88,2,3.42,67.1-38.74,67.1-38.74,8.35,14.46-66,36.21-64.76,38.32,7.34,12.71,63-46.47,67.41-38.92,0,.08-71.28,23.85-62.41,39.22,0,0,61.16-38.41,62.5-36.09,3.09,5.35-63.59,29.16-59.26,36.66.58,1,53.65-43,58.85-34,0,0-60.79,18.95-52.69,33l53.39-30.83c5.74,10-48,31.81-48,31.81s45.21-32.95,48.18-27.81c0,0-47.7,23.22-45.72,26.66,7.17,12.41,41.75-36.39,47.08-27.18,2.19,3.8-50.55,14.15-43.27,26.76L202,142.84c1.37,2.39-43,25.74-43,25.74,3.4,5.88,43.42-25.06,43.42-25.06s-40.84,14.78-35.07,24.76l34.12-19.7c4.22,7.31-32,18.84-32,18.84,5.42,9.39,33.24-19.19,33.24-19.19.25.43-26.81,19.88-26.81,19.88,1.15,2,24.11-20.2,26.83-15.49,2.85,4.94-19,15.55-19,15.55l20-11.53S188.62,163.83,191,168c0,0,10.91-7.35,11.37-6.56s-9.16,4.12-7.69,6.67c0,0,6.2-4.59,6.63-3.83s-4.56,3.32-4.16,4c.66,1.15,4.64-2.68,4.64-2.68.21.36-1.13,1.24-1,1.53l1.41-.82"/><path class="cls-2" d="M152.6,27.25s.21-.21.25-.14.48.49.49.52c.26.44.33-.19.33-.19.14.25-2.11,3.3-2.11,3.3.29.49,6.45-4.89,7-4l-5.06,3.89c.89,1.55,4.95-2.86,4.95-2.86.87,1.5-7.89,3.67-7,5.15,1.09,1.89,9.63-5.56,9.63-5.56.22.37-7.88,3.65-7.22,4.81,0,0,7.62-5.81,8.23-4.75,0,0-10.43,4.64-9.74,5.83.15.25,10.1-5.84,10.11-5.83l-8.71,6.31c.21.36,9.68-5.72,9.74-5.62s-10.77,6-10.32,6.75c.88,1.52,9.35-5.4,9.35-5.4,1,1.76-9.37,7.22-9.3,7.34l8.95-5.17s-10.68,6.82-10.11,7.8c1.18,2.05,10.32-8.87,11.58-6.68,0,0-12.64,5.18-10.76,8.43,1.5,2.61,11-7.12,11.37-6.56,0,0-14.43,5.44-12.86,8.16l11.24-6.5c1.59,2.76-10,8-10,8L163.49,38l-9.93,7.35c.09.16,8.24-6.77,9.11-5.26.42.72-9.4,5.53-9.4,5.53l11.29-6.52c1.75,3-10.68,6.17-10.3,6.82.74,1.28,8.24-7.37,9.37-5.41s-7,4.25-6.56,5c.32.55,5.15-3,5.15-3s-3.83,2.78-3.19,3.89c.12.2,4-2.33,4-2.33l-2.83,2c.4.7,3-2.74,3.45-2a7.79,7.79,0,0,1-.49,1.77s.25-.15.25-.15"/><path class="cls-3" d="M148,77.45c-7.74,0-15.48-.08-23.22,0-3,0-4.27-1.11-4.22-4.11.09-5.65.08-11.3,0-16.95,0-2.82,1.25-4,4-4q23.77,0,47.55,0c2.59,0,3.87,1.19,3.87,3.79,0,5.78,0,11.55,0,17.33,0,2.79-1.25,4-4.05,3.93C164,77.4,156,77.45,148,77.45Zm.25-5.64H160.4c10,0,9.85,0,9.93-10,0-3.1-1.13-3.65-3.87-3.61-10.2.13-20.4.05-30.6.05s-10,0-9.83,10.19c0,2.53.81,3.5,3.4,3.45C135.7,71.71,142,71.8,148.24,71.81Z"/><path class="cls-3" d="M84.61,56.47c0-3.93.13-7.86,0-11.79-.12-2.64.94-3.33,3.44-3.37,10.56-.16,10.56-.23,10.56,10.3,0,5.65-.09,11.3,0,17,.05,2.48-.72,3.67-3.34,3.55s-5.16-.09-7.73,0c-2.24.07-3-.9-3-3.1C84.7,64.83,84.61,60.65,84.61,56.47Z"/><path class="cls-3" d="M91.61,83.15c-4.91,0-9.82-.08-14.73,0-2.53.06-3.62-.86-3.37-3.44.16-1.59-.23-3.25.12-4.77.25-1.14,1.08-2.71,2-3,1.64-.54,3.52-.23,3.57,2.32.05,2.35,1.43,3.18,3.61,3.17,5.77,0,11.54,0,17.31,0,2.33,0,3.52-.92,3.88-3.41.12-.86,1.93-2.11,2.9-2.05s2.56,1.56,2.57,2.44c.11,10.36,1.3,8.57-7.92,8.71C98.24,83.19,94.93,83.15,91.61,83.15Z"/><path class="cls-3" d="M126.24,91.4c-.72,0-1.64.28-2.15-.06a33.63,33.63,0,0,1-3.44-2.9,17.66,17.66,0,0,1,3.6-2.72,4.89,4.89,0,0,1,3.57,0,20.62,20.62,0,0,1,3.86,2.88c-1.32.94-2.62,1.92-4,2.78C127.33,91.59,126.73,91.4,126.24,91.4Z"/><path class="cls-3" d="M148.22,91.38c-.85,0-1.89.31-2.51-.07a18.73,18.73,0,0,1-2.92-2.66c1-1,1.82-2.45,3-2.89a7.72,7.72,0,0,1,4.66,0c1.26.41,2.23,1.73,3.33,2.64a34.15,34.15,0,0,1-3.43,3c-.5.34-1.42.06-2.15.06Z"/><path class="cls-3" d="M169.28,91.38c-.85,0-1.89.31-2.52-.07a19.32,19.32,0,0,1-2.94-2.66c1-1,1.84-2.45,3-2.89a7.75,7.75,0,0,1,4.67,0c1.26.4,2.23,1.72,3.33,2.64a34.33,34.33,0,0,1-3.43,3c-.5.34-1.42.06-2.15.06Z"/><path class="cls-3" d="M124.88,102.38c-1,0-2.16.34-2.86-.09-1-.6-2.26-1.78-2.27-2.72A3.69,3.69,0,0,1,122,96.9a9.15,9.15,0,0,1,5-.07c1.34.41,2.39,1.8,3.57,2.75a35.14,35.14,0,0,1-3.57,2.8c-.53.33-1.43.06-2.15.06Z"/><path class="cls-3" d="M147.42,96.8c1,0,2.16-.35,2.86.08,1,.62,2.28,1.82,2.27,2.76a3.77,3.77,0,0,1-2.36,2.62,9.21,9.21,0,0,1-5,.06c-1.31-.41-2.31-1.83-3.45-2.81a36.94,36.94,0,0,1,3.55-2.74c.54-.32,1.43,0,2.15,0Z"/><path class="cls-3" d="M169.4,102.44c-.73,0-1.64.27-2.15-.06a34.73,34.73,0,0,1-3.42-2.9,18.26,18.26,0,0,1,3.61-2.68,5,5,0,0,1,3.57,0,20.89,20.89,0,0,1,3.85,2.88c-1.21.92-2.38,1.92-3.66,2.71C170.76,102.67,170,102.44,169.4,102.44Z"/><path class="cls-3" d="M169.17,113.5c-.85,0-1.91.31-2.51-.07-1.09-.69-2.62-1.79-2.64-2.75s1.44-2.39,2.54-2.77a7.75,7.75,0,0,1,4.67,0c1.36.45,2.44,1.79,3.63,2.73a33.48,33.48,0,0,1-3.54,2.88c-.52.33-1.42.06-2.15.06Z"/><path class="cls-3" d="M124.91,113.5c-.85,0-1.9.31-2.51-.07-1.08-.69-2.6-1.79-2.62-2.75s1.43-2.39,2.53-2.77a7.72,7.72,0,0,1,4.66,0c1.37.45,2.44,1.78,3.64,2.73a35.64,35.64,0,0,1-3.54,2.88c-.52.33-1.43,0-2.16,0Z"/><path class="cls-3" d="M147.28,107.78c.85,0,1.9-.31,2.51.07,1.12.68,2.7,1.76,2.73,2.72s-1.46,2.39-2.57,2.79a7.75,7.75,0,0,1-4.67.06c-1.34-.43-2.38-1.77-3.56-2.7a33.41,33.41,0,0,1,3.41-2.91c.51-.33,1.42,0,2.15,0Z"/><path class="cls-4" d="M8.77,257.77a6.24,6.24,0,0,1,1.32.23,3.05,3.05,0,0,1,0,.86H5.79a2.31,2.31,0,0,1,.25-.81,6.91,6.91,0,0,1,1.16-.34v-10.8H5.9a2,2,0,0,1,.32-1,5,5,0,0,1,1.63-.25,3.8,3.8,0,0,1,.92.11v3.48c0,.73,0,1.51-.09,2.25h.18A2.92,2.92,0,0,1,11.7,250c1.45,0,2.73.45,2.73,3.24,0,1.51,0,3-.11,4.52a7.56,7.56,0,0,1,1.47.23,3,3,0,0,1,.05.56,1.46,1.46,0,0,1,0,.3H11.54a2.31,2.31,0,0,1,.25-.81,6.54,6.54,0,0,1,1-.34V253.5c0-1.39-.45-2.27-1.74-2.27a3.3,3.3,0,0,0-2.31,1.15Z"/><path class="cls-4" d="M22.08,257.8a2.77,2.77,0,0,1-2.53,1.37A2.36,2.36,0,0,1,17,256.76c0-1.86,1.57-2.81,3.36-2.81a4.54,4.54,0,0,1,1.69.31v-1c0-1.33-.58-2-1.72-2a5.75,5.75,0,0,0-2.64.88,1.43,1.43,0,0,1-.09-.61,2,2,0,0,1,.2-.9,7.22,7.22,0,0,1,2.94-.63c2,0,2.84,1,2.84,3.42v3.49a1.6,1.6,0,0,0,.24.94,5.51,5.51,0,0,0,1.24-.22.71.71,0,0,1,0,.2,1.89,1.89,0,0,1-.18.81,4.64,4.64,0,0,1-1.95.52,1.91,1.91,0,0,1-.76-1.37Zm0-2.75a5.87,5.87,0,0,0-1.26-.15c-1.41,0-2.21.63-2.21,1.59a1.46,1.46,0,0,0,1.65,1.44,2.27,2.27,0,0,0,1.82-.88Z"/><path class="cls-4" d="M32.64,251.93A2.41,2.41,0,0,1,35,250a2.51,2.51,0,0,1,.81.14,2.3,2.3,0,0,1,.24,1.08,2.46,2.46,0,0,1,0,.49,2.51,2.51,0,0,0-1.24-.31,2.22,2.22,0,0,0-2.07,1.48v4.82a9,9,0,0,1,1.79.33,2.47,2.47,0,0,1,0,.82H29.69a2.56,2.56,0,0,1,.26-.81,7.08,7.08,0,0,1,1.15-.34v-6.39H29.78a2.08,2.08,0,0,1,.33-.95,4.56,4.56,0,0,1,1.5-.26,3.18,3.18,0,0,1,.85.11v1.71Z"/><path class="cls-4" d="M38.73,254.8a2.9,2.9,0,0,0,3,3.11,8.36,8.36,0,0,0,2.53-.5,1.9,1.9,0,0,1-.23,1,6.27,6.27,0,0,1-2.86.74c-2.58,0-4.07-1.93-4.07-4.41,0-2.65,1.65-4.75,4.18-4.75,2.17,0,3.09,1.56,3.09,3.83,0,.31,0,.63,0,1Zm4-1.05c.13-1.24-.23-2.75-1.75-2.75-1.29,0-2.12,1.11-2.23,2.75Z"/><path class="cls-4" d="M47.4,258.69a1.32,1.32,0,0,1-.87-1.28,1.84,1.84,0,0,1,1-1.53v-.09a2.82,2.82,0,0,1-1.15-2.56A3.19,3.19,0,0,1,49.84,250a4,4,0,0,1,2,.5,4.36,4.36,0,0,1,1.75-.34,2.33,2.33,0,0,1,.78.11,5.12,5.12,0,0,1,.15,1.08H52.77a3.28,3.28,0,0,1,.52,1.87c0,2-1.3,3.2-3.45,3.2a4.89,4.89,0,0,1-1.47-.19,1.11,1.11,0,0,0-.27.73c0,.71,1,.83,2.62.83,2.1,0,3.71.45,3.71,2.38,0,2.16-2.1,3.22-4.54,3.22-2.13,0-4.07-.88-4.07-2.7a2,2,0,0,1,1.58-1.92Zm-.06,1.8c0,1.26,1.47,1.89,2.8,1.89s2.77-.63,2.77-1.86c0-.9-.69-1.35-2.55-1.35A9.57,9.57,0,0,1,48.3,259,1.58,1.58,0,0,0,47.34,260.49Zm2.5-5c1.24,0,1.84-.88,1.84-2.25S51,251,49.84,251c-1.29,0-1.88.83-1.88,2.25S48.66,255.48,49.84,255.48Z"/><path class="cls-4" d="M55.7,251.32a2,2,0,0,1,.32-.95,5.15,5.15,0,0,1,1.63-.26,4,4,0,0,1,.94.11v7.53A7.74,7.74,0,0,1,60,258a3,3,0,0,1,0,.56,1.46,1.46,0,0,1,0,.3H55.6a2.56,2.56,0,0,1,.26-.81,7.08,7.08,0,0,1,1.15-.34v-6.39Zm3.16-4.19a1,1,0,0,1-1,1.06.93.93,0,0,1-1-1.06,1,1,0,0,1,1-1A.93.93,0,0,1,58.86,247.13Z"/><path class="cls-4" d="M65.8,251.16a2.88,2.88,0,0,0-1.06-.22c-.94,0-1.49.43-1.49,1.1,0,2,4.22,1.41,4.22,4.54,0,1.87-1.58,2.59-3.26,2.59a5.48,5.48,0,0,1-2.76-.68,3.69,3.69,0,0,1-.09-.87,5.26,5.26,0,0,1,.18-1.28,5.21,5.21,0,0,1,1.3.17v1.24a2.83,2.83,0,0,0,1.52.41,1.37,1.37,0,0,0,1.52-1.35c0-2.14-4.25-1.37-4.25-4.55,0-1.32,1.21-2.25,3-2.25a7.12,7.12,0,0,1,2.55.46,3.32,3.32,0,0,1,0,.56,5.79,5.79,0,0,1-.2,1.46,2.69,2.69,0,0,1-1.21-.27Z"/><path class="cls-4" d="M70.22,248.12a3.12,3.12,0,0,1,1.21-.29v2.48h2.62a4.89,4.89,0,0,1,0,1.05H71.43v4.95c0,1.17.16,1.67,1.17,1.67a7.28,7.28,0,0,0,1.68-.23,1.06,1.06,0,0,1,0,.23,1.65,1.65,0,0,1-.18.71,5.92,5.92,0,0,1-2.22.48c-1.4,0-2.1-.76-2.1-2.61,0-1.06,0-3.38.09-5.2H68.64a2.75,2.75,0,0,1,.22-.94,5.37,5.37,0,0,1,1-.32Z"/><path class="cls-4" d="M78.17,251.93A2.41,2.41,0,0,1,80.52,250a2.62,2.62,0,0,1,.82.14,2.58,2.58,0,0,1,.18,1.57,2.5,2.5,0,0,0-1.23-.31,2.24,2.24,0,0,0-2.08,1.48v4.82A9,9,0,0,1,80,258a2.47,2.47,0,0,1,0,.82H75.22a2.56,2.56,0,0,1,.26-.81,7.08,7.08,0,0,1,1.15-.34v-6.39H75.32a2,2,0,0,1,.32-.95,4.61,4.61,0,0,1,1.5-.26,3.18,3.18,0,0,1,.85.11v1.71Z"/><path class="cls-4" d="M87.59,257.8a2.76,2.76,0,0,1-2.53,1.37,2.36,2.36,0,0,1-2.57-2.41c0-1.86,1.58-2.81,3.37-2.81a4.45,4.45,0,0,1,1.68.31v-1c0-1.33-.58-2-1.72-2a5.75,5.75,0,0,0-2.64.88,1.6,1.6,0,0,1-.09-.61,2,2,0,0,1,.2-.9,7.31,7.31,0,0,1,2.95-.63c2,0,2.84,1,2.84,3.42v3.49a1.69,1.69,0,0,0,.23.94,5.68,5.68,0,0,0,1.25-.22.71.71,0,0,1,0,.2,2.05,2.05,0,0,1-.18.81,4.64,4.64,0,0,1-2,.52,1.94,1.94,0,0,1-.76-1.37Zm0-2.75a6,6,0,0,0-1.27-.15c-1.41,0-2.21.63-2.21,1.59a1.46,1.46,0,0,0,1.65,1.44,2.27,2.27,0,0,0,1.83-.88Z"/><path class="cls-4" d="M97.74,246.91h-1.3a2,2,0,0,1,.32-1,5.48,5.48,0,0,1,1.63-.25,3.8,3.8,0,0,1,.92.11v10.68a4.83,4.83,0,0,0,.15,1.28h1.35a1,1,0,0,1,0,.23,2,2,0,0,1-.15.72,9.87,9.87,0,0,1-2.44.36,3.24,3.24,0,0,1-.36-1.3h-.09a2.92,2.92,0,0,1-2.71,1.39c-1.57,0-3.36-1.08-3.36-4.34,0-2.9,1.79-4.82,4.37-4.82a3.16,3.16,0,0,1,1.65.43Zm0,4.43a4.9,4.9,0,0,0-1.5-.25c-2,0-2.89,1.4-2.89,3.49s1,3.37,2.33,3.37a2.37,2.37,0,0,0,2.06-1.08Z"/><path class="cls-4" d="M110.29,254.45c0,3-1.61,4.72-4.11,4.72s-4.12-1.62-4.12-4.72c0-2.75,1.77-4.44,4.12-4.44S110.29,251.59,110.29,254.45Zm-4.11,3.64c1.67,0,2.46-1.4,2.46-3.64,0-1.92-1-3.38-2.46-3.38s-2.47,1.35-2.47,3.38C103.71,256.65,104.65,258.09,106.18,258.09Z"/><path class="cls-4" d="M115.48,246.91a2.15,2.15,0,0,1,.32-1,5.48,5.48,0,0,1,1.63-.25,3.74,3.74,0,0,1,.92.11v11.94a8.19,8.19,0,0,1,1.47.25,3,3,0,0,1,.05.56,1.46,1.46,0,0,1,0,.3h-4.48a2.82,2.82,0,0,1,.25-.81,7.2,7.2,0,0,1,1.16-.34v-10.8Z"/><path class="cls-4" d="M126.16,257.8a2.76,2.76,0,0,1-2.53,1.37,2.35,2.35,0,0,1-2.56-2.41c0-1.86,1.57-2.81,3.36-2.81a4.45,4.45,0,0,1,1.68.31v-1c0-1.33-.58-2-1.72-2a5.75,5.75,0,0,0-2.64.88,1.6,1.6,0,0,1-.09-.61,2,2,0,0,1,.2-.9,7.31,7.31,0,0,1,3-.63c2,0,2.84,1,2.84,3.42v3.49a1.69,1.69,0,0,0,.23.94,5.58,5.58,0,0,0,1.25-.22.71.71,0,0,1,0,.2,1.89,1.89,0,0,1-.18.81,4.64,4.64,0,0,1-2,.52,1.94,1.94,0,0,1-.76-1.37Zm0-2.75a6,6,0,0,0-1.27-.15c-1.41,0-2.2.63-2.2,1.59a1.45,1.45,0,0,0,1.64,1.44,2.27,2.27,0,0,0,1.83-.88Z"/><path class="cls-4" d="M135.26,247.63c-.42,0-.94,0-1.34,0a4.37,4.37,0,0,1,0-1.09c1.42-.14,3.4-.25,4.77-.25,3.51,0,6.35,2.16,6.35,6.14,0,4.61-2.77,6.56-5.81,6.56-1.63,0-3.89,0-5.57-.09a5.61,5.61,0,0,1,.22-1,10.93,10.93,0,0,1,1.41-.23Zm1.66,10.12c.55,0,1.21.05,1.76.05,2.87,0,4.57-1.53,4.57-5.33a4.71,4.71,0,0,0-4.9-5.11c-.34,0-1.08,0-1.43,0Z"/><path class="cls-4" d="M146.18,258.86a4.37,4.37,0,0,1,.22-.95,9.44,9.44,0,0,1,1.41-.23V247.52c-.42,0-1-.07-1.34-.12a4,4,0,0,1,0-1H151a2.65,2.65,0,0,1,0,1,13.71,13.71,0,0,1-1.49.14V257.7a12.83,12.83,0,0,1,1.61.17,2.57,2.57,0,0,1,.08.71,1.37,1.37,0,0,1,0,.28Z"/><path class="cls-4" d="M162.49,258.43a16.28,16.28,0,0,1-4.39.8c-3.58,0-5.66-2.51-5.66-6.24,0-4.21,2.58-7,6.63-7a6.27,6.27,0,0,1,3.51.94,16.77,16.77,0,0,1-.23,2.8,3.83,3.83,0,0,1-1.25-.28v-1.73a4.1,4.1,0,0,0-2.21-.61c-2.51,0-4.7,1.81-4.7,5.6,0,3.58,1.83,5.25,4.4,5.25a15.6,15.6,0,0,0,2.29-.21V254a22.07,22.07,0,0,1-2.46-.18,4,4,0,0,1-.12-1.06h5.75a6.85,6.85,0,0,1-.17,1.09,10.2,10.2,0,0,1-1.39.15Z"/><path class="cls-4" d="M164.88,258.86a4.37,4.37,0,0,1,.22-.95,9.44,9.44,0,0,1,1.41-.23V247.52c-.42,0-1-.07-1.34-.12a4.47,4.47,0,0,1,0-1h8.57V249a4.9,4.9,0,0,1-1-.13,10,10,0,0,1-.22-1.42h-4.3V252h3.42a6.15,6.15,0,0,1,.18-1,4.47,4.47,0,0,1,1-.15v3.32a3.67,3.67,0,0,1-1.05-.07,8.66,8.66,0,0,1-.16-1h-3.42v4.61h4.38a12.33,12.33,0,0,1,.21-1.55,5.65,5.65,0,0,1,1.12-.12v2.8Z"/><path class="cls-4" d="M183.54,247.56a4.64,4.64,0,0,0-1.95-.4c-2.41,0-4.36,1.78-4.36,5.26,0,3.69,1.75,5.4,4.32,5.4a11.71,11.71,0,0,0,3.38-.63,2.8,2.8,0,0,1-.2,1.13,9,9,0,0,1-3.85.91c-3.23,0-5.42-2.69-5.42-6.34,0-4.32,2.84-6.88,6.24-6.88a7.66,7.66,0,0,1,3.34.68,19.2,19.2,0,0,1-.21,3,3.37,3.37,0,0,1-1.29-.29Z"/><path class="cls-4" d="M194.34,258.86a4,4,0,0,1,.23-.95,8.75,8.75,0,0,1,1.34-.21,6.71,6.71,0,0,1-.7-1.39l-.58-1.53h-4.8l-.59,1.62a8,8,0,0,1-.65,1.35,11.91,11.91,0,0,1,1.52.16,4.64,4.64,0,0,1,.14.95H186a3,3,0,0,1,.29-.95,5.62,5.62,0,0,1,1-.2l4.66-11.59H193l4.48,11.56a9.46,9.46,0,0,1,1.14.16,4.85,4.85,0,0,1,.2,1Zm-2.17-10.73a13.26,13.26,0,0,1-.51,1.73l-1.45,3.89h4l-1.48-3.92a9.76,9.76,0,0,1-.46-1.7Z"/><path class="cls-4" d="M203.65,251.23a18,18,0,0,1-1-3.67h-.13v10.17a9.47,9.47,0,0,1,1.27.18,3.35,3.35,0,0,1,0,.95h-4.05a4.24,4.24,0,0,1,.2-.91,9.55,9.55,0,0,1,1.29-.24V247.52c-.42,0-1-.07-1.32-.12a3.59,3.59,0,0,1,0-1h3.74l2.68,7.62a19,19,0,0,1,.85,3.07h.13a20.25,20.25,0,0,1,.9-3.07l2.77-7.62h3.68a2.65,2.65,0,0,1,0,1,12.88,12.88,0,0,1-1.47.14V257.7a12.83,12.83,0,0,1,1.61.17,2.57,2.57,0,0,1,.08.71,1.37,1.37,0,0,1,0,.28h-4.76a5.93,5.93,0,0,1,.2-.95,8.85,8.85,0,0,1,1.32-.23V247.56h-.13a18.75,18.75,0,0,1-1,3.71l-2.88,7.83h-1Z"/><path class="cls-4" d="M221.61,254.8a2.89,2.89,0,0,0,2.94,3.11,8.43,8.43,0,0,0,2.54-.5,2,2,0,0,1-.24,1,6.24,6.24,0,0,1-2.86.74c-2.58,0-4.06-1.93-4.06-4.41,0-2.65,1.64-4.75,4.17-4.75,2.17,0,3.1,1.56,3.1,3.83a8,8,0,0,1-.06,1Zm4-1.05c.12-1.24-.24-2.75-1.76-2.75-1.28,0-2.11,1.11-2.22,2.75Z"/><path class="cls-4" d="M231.68,257.77A6,6,0,0,1,233,258a3.05,3.05,0,0,1,0,.86H228.7a2.31,2.31,0,0,1,.25-.81,7.2,7.2,0,0,1,1.16-.34v-6.39h-1.32a2,2,0,0,1,.32-.95,4.43,4.43,0,0,1,1.5-.26,3.18,3.18,0,0,1,.85.11v1.32h.18a3.25,3.25,0,0,1,2.91-1.53c1.43,0,2.7.45,2.7,3.24,0,1.51,0,3-.11,4.52a7.56,7.56,0,0,1,1.47.23,3,3,0,0,1,0,.56,1.46,1.46,0,0,1,0,.3h-4.28a2.31,2.31,0,0,1,.25-.81,6.54,6.54,0,0,1,1-.34V253.5c0-1.39-.43-2.27-1.7-2.27a3.22,3.22,0,0,0-2.26,1.15Z"/><path class="cls-4" d="M1.57,275.12a3.12,3.12,0,0,1,1.21-.29v2.48H5.41a4.89,4.89,0,0,1,0,1.05H2.78v4.95C2.78,284.48,3,285,4,285a7.28,7.28,0,0,0,1.68-.23,1.06,1.06,0,0,1,0,.23,1.65,1.65,0,0,1-.18.71,6,6,0,0,1-2.23.48c-1.39,0-2.09-.76-2.09-2.61,0-1.06,0-3.38.09-5.2H0a2.75,2.75,0,0,1,.22-.94,5.37,5.37,0,0,1,1.05-.32Z"/><path class="cls-4" d="M14.67,281.45c0,3-1.61,4.72-4.11,4.72s-4.12-1.62-4.12-4.72c0-2.75,1.77-4.44,4.12-4.44S14.67,278.59,14.67,281.45Zm-4.11,3.64c1.66,0,2.46-1.4,2.46-3.64,0-1.92-1-3.38-2.46-3.38s-2.48,1.35-2.48,3.38C8.08,283.65,9,285.09,10.56,285.09Z"/><path class="cls-4" d="M22.46,273.91h-1.3a2,2,0,0,1,.32-1,5.48,5.48,0,0,1,1.63-.25,3.74,3.74,0,0,1,.92.11v10.68a4.83,4.83,0,0,0,.15,1.28h1.35a1,1,0,0,1,0,.23,2.25,2.25,0,0,1-.14.72,10,10,0,0,1-2.45.36,3.41,3.41,0,0,1-.36-1.3h-.09a2.92,2.92,0,0,1-2.71,1.39c-1.57,0-3.36-1.08-3.36-4.34,0-2.9,1.79-4.82,4.37-4.82a3.16,3.16,0,0,1,1.65.43Zm0,4.43a5,5,0,0,0-1.5-.25c-2,0-2.9,1.4-2.9,3.49s1,3.37,2.34,3.37a2.4,2.4,0,0,0,2.06-1.08Z"/><path class="cls-4" d="M35,281.45c0,3-1.61,4.72-4.11,4.72s-4.12-1.62-4.12-4.72c0-2.75,1.77-4.44,4.12-4.44S35,278.59,35,281.45Zm-4.11,3.64c1.67,0,2.46-1.4,2.46-3.64,0-1.92-1-3.38-2.46-3.38s-2.47,1.35-2.47,3.38C28.43,283.65,29.37,285.09,30.9,285.09Z"/><path class="cls-4" d="M42.17,281.8a2.9,2.9,0,0,0,2.95,3.11,8.43,8.43,0,0,0,2.53-.5,1.91,1.91,0,0,1-.24,1,6.23,6.23,0,0,1-2.85.74c-2.59,0-4.07-1.93-4.07-4.41,0-2.65,1.64-4.75,4.18-4.75,2.16,0,3.09,1.56,3.09,3.83a8,8,0,0,1-.06,1Zm4-1.05c.12-1.24-.24-2.75-1.76-2.75-1.28,0-2.11,1.11-2.22,2.75Z"/><path class="cls-4" d="M49.19,273.91a2.15,2.15,0,0,1,.32-1,5.48,5.48,0,0,1,1.63-.25,3.8,3.8,0,0,1,.92.11v11.94a8.19,8.19,0,0,1,1.47.25,3,3,0,0,1,0,.56,1.46,1.46,0,0,1,0,.3H49.08a2.54,2.54,0,0,1,.25-.81,7.2,7.2,0,0,1,1.16-.34v-10.8Z"/><path class="cls-4" d="M61,288.87a9.72,9.72,0,0,1,1.72.33,2.47,2.47,0,0,1,0,.82H58a2.56,2.56,0,0,1,.26-.81,6.91,6.91,0,0,1,1.16-.34V278.32H58.05a2.07,2.07,0,0,1,.32-.95,4.61,4.61,0,0,1,1.5-.26,3.18,3.18,0,0,1,.85.11v1.17h.18A2.81,2.81,0,0,1,63.56,277c1.59,0,3.42,1.08,3.42,4.34,0,2.89-1.83,4.82-4.43,4.82a3.1,3.1,0,0,1-1.59-.43Zm0-4a5,5,0,0,0,1.5.25c2,0,2.89-1.42,2.89-3.51s-1-3.38-2.33-3.38a2.39,2.39,0,0,0-2.06,1.09Z"/><path class="cls-4" d="M73.8,284.8a2.77,2.77,0,0,1-2.53,1.37,2.36,2.36,0,0,1-2.57-2.41c0-1.86,1.57-2.81,3.36-2.81a4.45,4.45,0,0,1,1.68.31v-1c0-1.33-.58-2-1.71-2a5.83,5.83,0,0,0-2.65.88,1.6,1.6,0,0,1-.09-.61,2,2,0,0,1,.2-.9,7.31,7.31,0,0,1,3-.63c2,0,2.84.95,2.84,3.42v3.49a1.69,1.69,0,0,0,.23.94,5.49,5.49,0,0,0,1.25-.22.71.71,0,0,1,0,.2,1.89,1.89,0,0,1-.18.81,4.64,4.64,0,0,1-1.95.52,1.91,1.91,0,0,1-.76-1.37Zm0-2.75a5.87,5.87,0,0,0-1.26-.15c-1.42,0-2.21.63-2.21,1.59a1.46,1.46,0,0,0,1.64,1.44,2.27,2.27,0,0,0,1.83-.88Z"/><path class="cls-4" d="M77.79,278.32a2.08,2.08,0,0,1,.33-.95,5.15,5.15,0,0,1,1.63-.26,4,4,0,0,1,.94.11v7.53a7.74,7.74,0,0,1,1.43.25,3,3,0,0,1,0,.56,1.91,1.91,0,0,1,0,.3H77.7a2.56,2.56,0,0,1,.26-.81,7.08,7.08,0,0,1,1.15-.34v-6.39Zm1.88-2.16a2.6,2.6,0,0,1-.92-.77l2-2.81a3.67,3.67,0,0,1,1.59.63Z"/><path class="cls-4" d="M87.9,278.16a2.89,2.89,0,0,0-1.07-.22c-.94,0-1.48.43-1.48,1.1,0,2,4.22,1.41,4.22,4.54,0,1.87-1.58,2.59-3.26,2.59a5.55,5.55,0,0,1-2.77-.68,4.31,4.31,0,0,1-.09-.87,5.26,5.26,0,0,1,.18-1.28,5.23,5.23,0,0,1,1.31.17v1.24a2.83,2.83,0,0,0,1.52.41A1.36,1.36,0,0,0,88,283.81c0-2.14-4.24-1.37-4.24-4.55,0-1.32,1.21-2.25,3-2.25a7.12,7.12,0,0,1,2.55.46,3.32,3.32,0,0,1,0,.56,5.79,5.79,0,0,1-.2,1.46,2.69,2.69,0,0,1-1.21-.27Z"/><path class="cls-4" d="M96.6,281.8a2.9,2.9,0,0,0,3,3.11,8.43,8.43,0,0,0,2.53-.5,1.91,1.91,0,0,1-.24,1,6.23,6.23,0,0,1-2.85.74c-2.59,0-4.07-1.93-4.07-4.41,0-2.65,1.64-4.75,4.17-4.75,2.17,0,3.1,1.56,3.1,3.83a8,8,0,0,1-.06,1Zm4-1.05c.12-1.24-.24-2.75-1.76-2.75-1.28,0-2.11,1.11-2.22,2.75Z"/><path class="cls-4" d="M106.67,284.77A5.91,5.91,0,0,1,108,285a2.72,2.72,0,0,1,0,.86h-4.34a2.54,2.54,0,0,1,.25-.81,7.2,7.2,0,0,1,1.16-.34v-6.39h-1.32a2.07,2.07,0,0,1,.32-.95,4.44,4.44,0,0,1,1.51-.26,3.3,3.3,0,0,1,.85.11v1.32h.18a3.22,3.22,0,0,1,2.91-1.53c1.43,0,2.69.45,2.69,3.24,0,1.51,0,3-.11,4.52a7.44,7.44,0,0,1,1.47.23,3,3,0,0,1,.05.56,1.46,1.46,0,0,1,0,.3h-4.28a2.31,2.31,0,0,1,.25-.81,6.54,6.54,0,0,1,1-.34V280.5c0-1.39-.43-2.27-1.7-2.27a3.22,3.22,0,0,0-2.26,1.15Z"/><path class="cls-4" d="M116,275.12a3.12,3.12,0,0,1,1.21-.29v2.48h2.62a4.83,4.83,0,0,1,.06,1.05h-2.68v4.95c0,1.17.16,1.67,1.18,1.67a7.36,7.36,0,0,0,1.68-.23,1.06,1.06,0,0,1,0,.23,1.52,1.52,0,0,1-.19.71,5.92,5.92,0,0,1-2.22.48c-1.39,0-2.1-.76-2.1-2.61,0-1.06,0-3.38.09-5.2h-1.24a2.74,2.74,0,0,1,.21-.94,5.59,5.59,0,0,1,1-.32Z"/><path class="cls-4" d="M123.91,278.93a2.4,2.4,0,0,1,2.35-1.92,2.6,2.6,0,0,1,.81.14,2.31,2.31,0,0,1,.23,1.08,1.89,1.89,0,0,1,0,.49,2.47,2.47,0,0,0-1.23-.31,2.24,2.24,0,0,0-2.08,1.48v4.82a8.76,8.76,0,0,1,1.79.33,2.46,2.46,0,0,1,0,.82H121a2.31,2.31,0,0,1,.25-.81,7.2,7.2,0,0,1,1.16-.34v-6.39h-1.32a2.07,2.07,0,0,1,.32-.95,4.63,4.63,0,0,1,1.51-.26,3.16,3.16,0,0,1,.84.11v1.71Z"/><path class="cls-4" d="M130,281.8a2.9,2.9,0,0,0,2.95,3.11,8.43,8.43,0,0,0,2.53-.5,1.91,1.91,0,0,1-.24,1,6.23,6.23,0,0,1-2.85.74c-2.59,0-4.07-1.93-4.07-4.41,0-2.65,1.64-4.75,4.17-4.75,2.17,0,3.1,1.56,3.1,3.83a8,8,0,0,1-.06,1Zm4-1.05c.12-1.24-.24-2.75-1.76-2.75-1.28,0-2.11,1.11-2.22,2.75Z"/><path class="cls-4" d="M143,284.55c1.76,0,3.71-.07,5.61-.22a1.62,1.62,0,0,1,0,.31,8.49,8.49,0,0,1-.11,1.22h-7.22l-.23-1.29c1.55-1.39,5.44-3.85,5.44-5.94,0-.94-.76-1.37-1.86-1.37a4.9,4.9,0,0,0-2,.47v1.49a3,3,0,0,1-1.23.27,6.16,6.16,0,0,1-.24-1.69c0-.24,0-.6,0-.81a7.48,7.48,0,0,1,3.53-.9c2,0,3.51.63,3.51,2.28,0,2.67-4,5-5.27,6.05Z"/><path class="cls-4" d="M159.49,281c0,3.41-1.79,5.23-4.68,5.23s-4.7-1.73-4.7-5.23c0-3,1.93-4.91,4.7-4.91S159.49,277.8,159.49,281Zm-4.68,4.09c2,0,3-1.51,3-4.09,0-2.21-1.12-3.8-3-3.8s-3,1.46-3,3.8C151.83,283.52,153,285.09,154.81,285.09Z"/><path class="cls-4" d="M170.9,281c0,3.41-1.79,5.23-4.68,5.23s-4.7-1.73-4.7-5.23c0-3,1.93-4.91,4.7-4.91S170.9,277.8,170.9,281Zm-4.68,4.09c2,0,3-1.51,3-4.09,0-2.21-1.12-3.8-3-3.8s-3,1.46-3,3.8C163.24,283.52,164.36,285.09,166.22,285.09Z"/><path class="cls-4" d="M179.24,282a3,3,0,0,1-2.68,1.33,3.3,3.3,0,0,1-3.56-3.47,3.62,3.62,0,0,1,3.82-3.78c2.73,0,4.19,1.89,4.19,5.29,0,4-2.37,6.54-5.41,6.54a7.25,7.25,0,0,1-2.24-.43,2.22,2.22,0,0,1-.25-1.26,7.66,7.66,0,0,0,2.35.37c2,0,3.67-1.65,3.9-4.59Zm-2.42-4.88c-1.4,0-2.19,1.07-2.19,2.63a2.22,2.22,0,0,0,2.37,2.45,3,3,0,0,0,2.33-1.22C179.33,278.43,178.62,277.13,176.82,277.13Z"/><path class="cls-4" d="M190.68,284.87c.11-.43.35-1.36.49-1.8l.91-2.86a12.76,12.76,0,0,1,.67-1.75,4.58,4.58,0,0,1-1.09-.23,3.06,3.06,0,0,1-.14-.92H195a3.68,3.68,0,0,1-.18,1,4.11,4.11,0,0,1-.85.16l-1,3a54.27,54.27,0,0,1-2,5.32,6.41,6.41,0,0,1-3.66,3.42,2.47,2.47,0,0,1-.67-1.34,4.88,4.88,0,0,0,3.28-2.64l-2.95-7.66a4.51,4.51,0,0,1-.94-.3,4,4,0,0,1-.18-.94h4.08a4,4,0,0,1-.14.94,7.94,7.94,0,0,1-1.32.21A11.38,11.38,0,0,1,189,280l1.14,3.15a13,13,0,0,1,.4,1.74Z"/><path class="cls-4" d="M199.31,278.32a2.31,2.31,0,0,1,.31-.95,5.22,5.22,0,0,1,1.64-.26,3.91,3.91,0,0,1,.94.11v7.38a7.57,7.57,0,0,1-2.74,5.57,1.88,1.88,0,0,1-.87-.7,6.31,6.31,0,0,0,2-4.42v-6.73Zm3.16-4.19a1,1,0,0,1-1,1.06.93.93,0,0,1-1-1.06,1,1,0,0,1,1-1A.92.92,0,0,1,202.47,274.13Z"/><path class="cls-4" d="M210.85,278.32h-1.31a2.08,2.08,0,0,1,.33-.95,4.64,4.64,0,0,1,1.63-.26,3.8,3.8,0,0,1,.92.11v6.27a5.76,5.76,0,0,0,.14,1.28h1.38a1,1,0,0,1,0,.23,2.24,2.24,0,0,1-.15.72,10.32,10.32,0,0,1-2.48.36,4,4,0,0,1-.36-1.42h-.09a3.18,3.18,0,0,1-2.87,1.51c-1.41,0-2.66-.45-2.66-3.24,0-1.51,0-3.1.09-4.61h-1.37a2.2,2.2,0,0,1,.32-.94,5,5,0,0,1,1.65-.27,3.8,3.8,0,0,1,.92.11v5.46c0,1.37.43,2.25,1.66,2.25a3.13,3.13,0,0,0,2.23-1.1Z"/><path class="cls-4" d="M218.12,284.77a6,6,0,0,1,1.32.23,2.73,2.73,0,0,1,0,.86h-4.34a2.56,2.56,0,0,1,.26-.81,7.08,7.08,0,0,1,1.15-.34v-6.39h-1.32a2.08,2.08,0,0,1,.33-.95,4.43,4.43,0,0,1,1.5-.26,3.18,3.18,0,0,1,.85.11v1.32h.18A3.23,3.23,0,0,1,221,277c1.43,0,2.7.45,2.7,3.24,0,1.51,0,3-.11,4.52A7.33,7.33,0,0,1,225,285a2.29,2.29,0,0,1,.06.56,1.46,1.46,0,0,1,0,.3h-4.29a2.56,2.56,0,0,1,.26-.81,6.54,6.54,0,0,1,1-.34V280.5c0-1.39-.44-2.27-1.7-2.27a3.2,3.2,0,0,0-2.26,1.15Z"/><path class="cls-4" d="M226.16,278.32a2.08,2.08,0,0,1,.33-.95,5.15,5.15,0,0,1,1.63-.26,4,4,0,0,1,.94.11v7.53a7.74,7.74,0,0,1,1.43.25,3,3,0,0,1,0,.56,1.46,1.46,0,0,1,0,.3h-4.45a2.56,2.56,0,0,1,.26-.81,7.08,7.08,0,0,1,1.15-.34v-6.39Zm3.17-4.19a1,1,0,0,1-1,1.06.93.93,0,0,1-1-1.06,1,1,0,0,1,1-1A.93.93,0,0,1,229.33,274.13Z"/><path class="cls-4" d="M240,281.45c0,3-1.61,4.72-4.1,4.72-2.64,0-4.12-1.62-4.12-4.72,0-2.75,1.77-4.44,4.12-4.44S240,278.59,240,281.45Zm-4.1,3.64c1.66,0,2.46-1.4,2.46-3.64,0-1.92-1-3.38-2.46-3.38s-2.48,1.35-2.48,3.38C233.45,283.65,234.39,285.09,235.93,285.09Z"/><path class="cls-4" d="M96.89,300.91H95.58a2.16,2.16,0,0,1,.33-1,5.48,5.48,0,0,1,1.63-.25,3.8,3.8,0,0,1,.92.11v10.68a5.29,5.29,0,0,0,.14,1.28H100a1,1,0,0,1,0,.23,2,2,0,0,1-.15.72,9.87,9.87,0,0,1-2.44.36,3.24,3.24,0,0,1-.36-1.3h-.09a2.92,2.92,0,0,1-2.71,1.39c-1.57,0-3.36-1.08-3.36-4.34,0-2.9,1.79-4.82,4.37-4.82a3.16,3.16,0,0,1,1.65.43Zm0,4.43a4.9,4.9,0,0,0-1.5-.25c-2,0-2.89,1.4-2.89,3.49s1,3.37,2.33,3.37a2.37,2.37,0,0,0,2.06-1.08Z"/><path class="cls-4" d="M102.89,308.8a2.9,2.9,0,0,0,3,3.11,8.36,8.36,0,0,0,2.53-.5,1.83,1.83,0,0,1-.24,1,6.23,6.23,0,0,1-2.85.74c-2.59,0-4.07-1.93-4.07-4.41,0-2.65,1.64-4.75,4.18-4.75,2.17,0,3.09,1.56,3.09,3.83a8,8,0,0,1-.06,1Zm4-1.05c.13-1.24-.24-2.75-1.75-2.75-1.29,0-2.12,1.11-2.23,2.75Z"/><path class="cls-4" d="M115.87,311.55c1.76,0,3.71-.07,5.61-.22a1.62,1.62,0,0,1,0,.31,8.49,8.49,0,0,1-.11,1.22h-7.22l-.23-1.29c1.56-1.39,5.44-3.85,5.44-5.94,0-.94-.76-1.37-1.86-1.37a4.9,4.9,0,0,0-2,.47v1.49a3,3,0,0,1-1.23.27,6.57,6.57,0,0,1-.23-1.69c0-.24,0-.6,0-.81a7.48,7.48,0,0,1,3.53-.9c2,0,3.51.63,3.51,2.28,0,2.67-4,5-5.27,6.05Z"/><path class="cls-4" d="M132.38,308c0,3.41-1.79,5.23-4.68,5.23S123,311.5,123,308c0-3,1.93-4.91,4.7-4.91S132.38,304.8,132.38,308Zm-4.68,4.09c2,0,3-1.51,3-4.09,0-2.21-1.13-3.8-3-3.8s-3,1.46-3,3.8C124.72,310.52,125.84,312.09,127.7,312.09Z"/><path class="cls-4" d="M136.6,304.6l-2.61.32a3,3,0,0,1,.29-1.11,16.09,16.09,0,0,1,3.94-.72v8.51a20.1,20.1,0,0,1,2.1.31,2.69,2.69,0,0,1,.09.7,1.14,1.14,0,0,1,0,.25h-6a3.87,3.87,0,0,1,.33-.9,15.77,15.77,0,0,1,1.88-.45Z"/><path class="cls-4" d="M144.32,306.87a2.79,2.79,0,0,1-2.08-2.52c0-2.09,1.83-3,3.56-3s3.51.72,3.51,2.7a3.09,3.09,0,0,1-2.08,2.81V307a3.16,3.16,0,0,1,2.31,2.8c0,2.3-1.86,3.44-3.92,3.44-1.75,0-3.87-.69-3.87-3a3.48,3.48,0,0,1,2.57-3.24Zm-1,3a2.11,2.11,0,0,0,2.39,2.31,2,2,0,0,0,2.2-2.22c0-1.33-1.33-1.94-2.69-2.57A2.63,2.63,0,0,0,143.34,309.89Zm4.43-5.69a1.85,1.85,0,0,0-2.08-1.87,1.78,1.78,0,0,0-1.93,1.8c0,1.12,1.19,1.71,2.49,2.31A2.46,2.46,0,0,0,147.77,304.2Z"/></g></g></svg>