<svg xmlns="http://www.w3.org/2000/svg" viewBox="0 0 76.63 63.26"><defs><style>.cls-1{fill:#fff;}</style></defs><title>logo_dialogos</title><g id="Layer_2" data-name="Layer 2"><g id="head"><path class="cls-1" d="M54,0s6.33,11.29,1.56,10.81a16.17,16.17,0,0,0-2.9-.16,29.67,29.67,0,0,0-9.82,1.69A26.94,26.94,0,0,0,25.54,6.23C11.44,6.23-.16,16.62,0,29.42.26,50,22.65,63.26,22.65,63.26S16.32,52,21.1,52.45a16,16,0,0,0,2.89.16,29.67,29.67,0,0,0,9.82-1.69A26.94,26.94,0,0,0,51.09,57c14.1,0,25.7-10.39,25.54-23.19C76.37,13.24,54,0,54,0Z"/><path d="M6.77,40.73l3.72-17.54h2c2.38,0,3.53.48,4,1.82s0,3.5-.71,7-1.29,5.61-2.25,7-2.36,1.81-4.74,1.81Zm3.1-2.58c.88,0,1.41-.09,1.86-.95a15.42,15.42,0,0,0,1-3.34c.12-.55.24-1.2.41-1.91s.28-1.36.4-1.93A12.3,12.3,0,0,0,14,26.7c-.07-.83-.55-.93-1.43-.93Z"/><path d="M19.37,23.19h2.57L18.22,40.73H15.64Z"/><path d="M19.41,40.73l6.37-17.54h3.15L27.86,40.73H25.35l.27-3.58H23.14l-1.22,3.58ZM26.29,28.9l0-.46h-.14L26,28.9l-1.91,5.53h1.77Zm4.55-9.41L28.5,21.64H26.64l1.7-2.15Z"/><path d="M32.77,23.19h2.58L32.13,38.34h3.41L35,40.73h-6Z"/><path d="M43.56,37.13a6.45,6.45,0,0,1-.84,1.9,4.88,4.88,0,0,1-1.31,1.29,3.47,3.47,0,0,1-2.1.6,2.61,2.61,0,0,1-1.88-.6A2.24,2.24,0,0,1,36.71,39a3.78,3.78,0,0,1,0-1.9L38.88,26.8a5.82,5.82,0,0,1,.81-1.89A5.17,5.17,0,0,1,41,23.6a3.85,3.85,0,0,1,2.13-.6,2.72,2.72,0,0,1,1.86.6,2.42,2.42,0,0,1,.74,1.31,4.22,4.22,0,0,1,0,1.89ZM43.18,26.8a1.53,1.53,0,0,0-.12-1.1.59.59,0,0,0-.48-.19,1.07,1.07,0,0,0-.91.64,2.92,2.92,0,0,0-.21.65l-2.2,10.33a1.27,1.27,0,0,0,.12,1.09.55.55,0,0,0,.46.19,1,1,0,0,0,.9-.64,3.11,3.11,0,0,0,.24-.64Z"/><path d="M51.05,29.49l.57-2.69a1.43,1.43,0,0,0-.12-1.1.57.57,0,0,0-.47-.19,1.06,1.06,0,0,0-.91.64,2.49,2.49,0,0,0-.22.65L47.66,37.34a1.29,1.29,0,0,0,.12,1.1.54.54,0,0,0,.45.19,1,1,0,0,0,.91-.64,3.24,3.24,0,0,0,.24-.65l.67-3.17H49L49.48,32h3.6l-1.84,8.73H49.71l-.14-.84a3.21,3.21,0,0,1-2.22,1,2.22,2.22,0,0,1-1.72-.6A2.33,2.33,0,0,1,45,39a4.1,4.1,0,0,1,.12-1.9l2.2-10.33a5.82,5.82,0,0,1,.81-1.89,5.17,5.17,0,0,1,1.29-1.31,3.82,3.82,0,0,1,2.12-.6,2.68,2.68,0,0,1,1.86.6,2.3,2.3,0,0,1,.74,1.31,4.06,4.06,0,0,1,.05,1.89l-.57,2.69Z"/><path d="M60.59,37.13a6.44,6.44,0,0,1-.83,1.9,5.19,5.19,0,0,1-1.31,1.29,3.52,3.52,0,0,1-2.1.6,2.62,2.62,0,0,1-1.89-.6A2.22,2.22,0,0,1,53.75,39a3.88,3.88,0,0,1,0-1.9l2.2-10.33a5.61,5.61,0,0,1,.81-1.89A5.17,5.17,0,0,1,58,23.6a3.82,3.82,0,0,1,2.12-.6,2.68,2.68,0,0,1,1.86.6,2.35,2.35,0,0,1,.74,1.31,4.06,4.06,0,0,1,0,1.89ZM60.21,26.8a1.43,1.43,0,0,0-.12-1.1.58.58,0,0,0-.48-.19,1.06,1.06,0,0,0-.9.64,2.49,2.49,0,0,0-.22.65L56.3,37.13a1.27,1.27,0,0,0,.12,1.09.53.53,0,0,0,.45.19,1,1,0,0,0,.91-.64,3.84,3.84,0,0,0,.24-.64Z"/><path d="M68.56,27.89a5.43,5.43,0,0,0,.17-1.71c-.07-.48-.26-.82-.67-.82-.67,0-1,.72-1.24,1.75A3.32,3.32,0,0,0,67.06,29c.26.67.57,1.36.93,2.1a18.81,18.81,0,0,1,1.1,2.67,5.32,5.32,0,0,1,.16,2.75,6.65,6.65,0,0,1-1.38,3.07,3.87,3.87,0,0,1-3.13,1.34c-1.64,0-2.45-.62-2.76-1.57a6.92,6.92,0,0,1,.09-3.54l2.58-.23a6.29,6.29,0,0,0-.22,2c.08.58.27,1,.82,1,.76,0,1.19-.81,1.45-1.93a3.58,3.58,0,0,0-.26-1.94c-.07-.16-.14-.36-.22-.52L66,33.64l-.55-1.14c-.19-.41-.38-.81-.57-1.27a8,8,0,0,1-.69-2.72,3.93,3.93,0,0,1,.09-1.4,5.69,5.69,0,0,1,1.36-2.77A3.9,3.9,0,0,1,68.51,23c1.6,0,2.34.62,2.65,1.55a6.5,6.5,0,0,1,0,3.1Z"/></g></g></svg>