<svg xmlns="http://www.w3.org/2000/svg" viewBox="0 0 208.82 29.1"><defs><style>.cls-1{fill:#fff;}.cls-2{fill:#2cbec9;}</style></defs><title>logo_plaza_blanco</title><g id="Layer_2" data-name="Layer 2"><g id="head"><path class="cls-1" d="M23.51,8.46a7.88,7.88,0,0,1-2.81,6.13,10.08,10.08,0,0,1-6.94,2.47c-1.66,0-3.29-.07-4.89-.2v7.33a4,4,0,0,0,.37,2,2.47,2.47,0,0,0,1.26.92,11.76,11.76,0,0,0,2.64.55c.22,0,.34.21.34.56s-.12.58-.34.58c-.92,0-2,0-3.29-.13s-2.25-.12-3.09-.12-1.88,0-3.11.12-2.39.13-3.32.13c-.22,0-.33-.19-.33-.58s.11-.53.33-.56a8,8,0,0,0,3.41-.94,3,3,0,0,0,.9-2.57V4.67a4.23,4.23,0,0,0-.36-2A2.46,2.46,0,0,0,3,1.69,12.08,12.08,0,0,0,.33,1.14Q0,1.14,0,.57T.33,0c.93,0,2,0,3.32.12S5.91.25,6.76.25,8.63.21,9.84.12,12.21,0,13.14,0q5.09,0,7.73,2.16A7.64,7.64,0,0,1,23.51,8.46Zm-4.58,0a7.64,7.64,0,0,0-1.63-5.2A5.43,5.43,0,0,0,13,1.39a9.51,9.51,0,0,0-2.5.25,2.09,2.09,0,0,0-1.24.81,4.45,4.45,0,0,0-.37,2.22v9.55a1.23,1.23,0,0,0,.56,1.19,6.12,6.12,0,0,0,2.43.31,6.87,6.87,0,0,0,5.22-1.94A7.39,7.39,0,0,0,18.93,8.46Z"/><path class="cls-1" d="M39.11,24.44a35.38,35.38,0,0,0-.87,4.29q-4.45-.14-6.34-.14t-6.27.14q-.18,0-.18-.33c0-.19.06-.3.18-.31a4.36,4.36,0,0,0,1.92-.53,1.67,1.67,0,0,0,.51-1.44v-11A2.25,2.25,0,0,0,27.85,14a1.3,1.3,0,0,0-.71-.53,7,7,0,0,0-1.51-.31c-.12,0-.18-.1-.18-.32s.06-.32.18-.32c.52,0,1.15,0,1.87.07s1.27.07,1.74.07,1.06,0,1.74-.07,1.33-.07,1.85-.07c.12,0,.19.11.19.32s-.07.32-.19.32a6.77,6.77,0,0,0-1.49.31,1.34,1.34,0,0,0-.71.52,2.4,2.4,0,0,0-.2,1.15V26.47a1.2,1.2,0,0,0,1.35,1.37h2.31a3.84,3.84,0,0,0,2.42-.76,7.81,7.81,0,0,0,2-2.84c0-.07.1-.1.22-.1a.44.44,0,0,1,.28.1A.26.26,0,0,1,39.11,24.44Z"/><path class="cls-1" d="M56.25,28.4c0,.22-.07.33-.19.33-.54,0-1.14,0-1.82-.07s-1.08-.07-1.49-.07-1.06,0-1.76.07-1.37.07-1.89.07c-.12,0-.18-.11-.18-.32s0-.32.14-.32a3.79,3.79,0,0,0,1.49-.28.73.73,0,0,0,.45-.7,3.57,3.57,0,0,0-.23-1l-1.33-3.9H44.66l-1.33,3.61A3.77,3.77,0,0,0,43.07,27c0,.68.63,1.06,1.89,1.12.09,0,.14.11.14.32s-.06.32-.19.32c-.46,0-1,0-1.55-.07s-1-.07-1.43-.07-.75,0-1.25.07-1,.07-1.35.07c-.12,0-.18-.1-.18-.29s.09-.34.27-.35A2.82,2.82,0,0,0,41,27.55a4.68,4.68,0,0,0,1.17-1.8l5.45-13.38a.32.32,0,0,1,.33-.19.34.34,0,0,1,.35.18l4.81,13.39a3.46,3.46,0,0,0,1.1,1.66,3.64,3.64,0,0,0,1.85.68C56.17,28.1,56.25,28.21,56.25,28.4Zm-7.06-6.91-2-5.94-2.2,5.94Z"/><path class="cls-1" d="M71.56,24.77a32.6,32.6,0,0,0-.81,4.05A54.4,54.4,0,0,0,64,28.59a54.07,54.07,0,0,0-6.85.23c-.2,0-.3-.14-.3-.41l0-.19,11.19-14.8H62.85a5,5,0,0,0-5,3.18.3.3,0,0,1-.27.22c-.25,0-.38-.08-.38-.25l0-.16a37.18,37.18,0,0,0,1.3-4,44,44,0,0,0,6.14.23,46.28,46.28,0,0,0,6.4-.23c.2,0,.3.15.3.44a.32.32,0,0,1-.06.18L60.2,27.84h6.17A4.86,4.86,0,0,0,69.24,27a4.45,4.45,0,0,0,1.67-2.36.24.24,0,0,1,.26-.18Q71.57,24.47,71.56,24.77Z"/><path class="cls-1" d="M88.92,28.4c0,.22-.06.33-.19.33-.53,0-1.14,0-1.82-.07s-1.08-.07-1.49-.07-1.06,0-1.76.07-1.36.07-1.88.07c-.13,0-.19-.11-.19-.32s0-.32.14-.32a3.75,3.75,0,0,0,1.49-.28.73.73,0,0,0,.45-.7,3.23,3.23,0,0,0-.23-1l-1.32-3.9H77.33L76,25.84A3.69,3.69,0,0,0,75.75,27c0,.68.62,1.06,1.88,1.12.09,0,.14.11.14.32s-.06.32-.18.32c-.47,0-1,0-1.55-.07s-1-.07-1.43-.07-.76,0-1.26.07-1,.07-1.35.07c-.12,0-.17-.1-.17-.29s.09-.34.26-.35a2.79,2.79,0,0,0,1.53-.54,4.8,4.8,0,0,0,1.18-1.8l5.44-13.38a.32.32,0,0,1,.33-.19c.19,0,.3.06.35.18l4.81,13.39a3.53,3.53,0,0,0,1.1,1.66,3.64,3.64,0,0,0,1.86.68C88.84,28.1,88.92,28.21,88.92,28.4Zm-7.06-6.91-2-5.94-2.2,5.94Z"/><path class="cls-1" d="M115.39,8.46a7.87,7.87,0,0,1-2.8,6.13,10.13,10.13,0,0,1-7,2.47c-1.65,0-3.28-.07-4.88-.2v7.33a4.15,4.15,0,0,0,.36,2,2.47,2.47,0,0,0,1.26.92,12,12,0,0,0,2.65.55c.22,0,.33.21.33.56s-.11.58-.33.58c-.93,0-2,0-3.3-.13s-2.25-.12-3.09-.12-1.88,0-3.11.12-2.39.13-3.32.13c-.22,0-.33-.19-.33-.58s.11-.53.33-.56a8,8,0,0,0,3.41-.94,3,3,0,0,0,.91-2.57V4.67a4.09,4.09,0,0,0-.37-2,2.42,2.42,0,0,0-1.27-.93,12.08,12.08,0,0,0-2.68-.55q-.33,0-.33-.57T92.21,0c.93,0,2,0,3.32.12s2.27.13,3.11.13,1.87,0,3.08-.13S104.09,0,105,0q5.08,0,7.73,2.16A7.64,7.64,0,0,1,115.39,8.46Zm-4.58,0a7.64,7.64,0,0,0-1.63-5.2,5.42,5.42,0,0,0-4.32-1.87,9.51,9.51,0,0,0-2.5.25,2.12,2.12,0,0,0-1.24.81,4.59,4.59,0,0,0-.36,2.22v9.55a1.22,1.22,0,0,0,.56,1.19,6.06,6.06,0,0,0,2.42.31A6.9,6.9,0,0,0,109,13.78,7.39,7.39,0,0,0,110.81,8.46Z"/><path class="cls-1" d="M134.59,12.85c0,.22-.06.32-.19.32a5,5,0,0,0-2,.54,1.7,1.7,0,0,0-.5,1.44v7.31a7.32,7.32,0,0,1-1.5,4.88,5.26,5.26,0,0,1-4.23,1.76,6.75,6.75,0,0,1-4.87-1.68,6.08,6.08,0,0,1-1.74-4.59V15.15A2.39,2.39,0,0,0,119.4,14a1.35,1.35,0,0,0-.71-.53,6.65,6.65,0,0,0-1.5-.32c-.12,0-.18-.1-.18-.32s.06-.32.18-.32c.52,0,1.14,0,1.85.07s1.26.07,1.74.07,1,0,1.74-.07,1.35-.07,1.87-.07c.12,0,.18.11.18.32s-.06.32-.18.32a7,7,0,0,0-1.51.31,1.3,1.3,0,0,0-.71.53,2.25,2.25,0,0,0-.21,1.14v7.36a6.64,6.64,0,0,0,1.09,4.2,4.26,4.26,0,0,0,3.53,1.34q4.59,0,4.59-5.82V15.15a1.7,1.7,0,0,0-.51-1.45,4.67,4.67,0,0,0-1.95-.53c-.13,0-.19-.1-.19-.32s.06-.32.19-.32c.35,0,.82,0,1.4.07s1.08.07,1.45.07.84,0,1.4-.07,1-.07,1.44-.07C134.53,12.53,134.59,12.64,134.59,12.85Zm-8.19-1.77a.44.44,0,0,1-.21.07s-.13-.06-.24-.17"/><path class="cls-1" d="M149.2,24a4.4,4.4,0,0,1-1.44,3.45,5.51,5.51,0,0,1-3.83,1.3c-.53,0-1.26,0-2.22-.07s-1.6-.07-2.07-.07-1.11,0-1.91.07-1.51.07-2,.07q-.18,0-.18-.33c0-.19.06-.3.18-.31a4.36,4.36,0,0,0,1.92-.53,1.67,1.67,0,0,0,.51-1.44v-11a2.25,2.25,0,0,0-.21-1.14,1.3,1.3,0,0,0-.71-.53,7,7,0,0,0-1.51-.31c-.12,0-.18-.1-.18-.32s.06-.32.18-.32c.52,0,1.16,0,1.91.07s1.32.07,1.8.07,1.09,0,1.86-.07,1.48-.07,2-.07a5.57,5.57,0,0,1,3.51,1,3.3,3.3,0,0,1,1.34,2.74,3.13,3.13,0,0,1-1,2.21,4.77,4.77,0,0,1-2.45,1.36,6.79,6.79,0,0,1,3.29,1.5A3.38,3.38,0,0,1,149.2,24Zm-3.66-7.68a3,3,0,0,0-.75-2.26,3.28,3.28,0,0,0-2.35-.73H142q-1.47,0-1.47,1.26v5.08h1.68a3.55,3.55,0,0,0,2.57-.79A3.49,3.49,0,0,0,145.54,16.3Zm1.1,7.68a3.32,3.32,0,0,0-3.6-3.59H140.5v5.74a1.58,1.58,0,0,0,.61,1.45,4,4,0,0,0,2.07.39,3.13,3.13,0,0,0,2.49-1.1A4.19,4.19,0,0,0,146.64,24Z"/><path class="cls-1" d="M164.29,24.44a37.41,37.41,0,0,0-.86,4.29q-4.45-.14-6.35-.14t-6.26.14c-.13,0-.19-.11-.19-.33s.06-.3.19-.31a4.27,4.27,0,0,0,1.91-.53,1.67,1.67,0,0,0,.51-1.44v-11A2.38,2.38,0,0,0,153,14a1.37,1.37,0,0,0-.72-.53,6.75,6.75,0,0,0-1.5-.31c-.13,0-.19-.1-.19-.32s.06-.32.19-.32c.52,0,1.14,0,1.86.07s1.27.07,1.75.07,1,0,1.73-.07,1.33-.07,1.85-.07c.13,0,.19.11.19.32s-.06.32-.19.32a6.9,6.9,0,0,0-1.49.31,1.38,1.38,0,0,0-.71.52,2.43,2.43,0,0,0-.19,1.15V26.47A1.2,1.2,0,0,0,157,27.84h2.3a3.82,3.82,0,0,0,2.42-.76,7.69,7.69,0,0,0,2-2.84c0-.07.11-.1.22-.1a.46.46,0,0,1,.29.1A.25.25,0,0,1,164.29,24.44Z"/><path class="cls-1" d="M173.29,28.4q0,.33-.18.33c-.52,0-1.14,0-1.86-.07s-1.26-.07-1.73-.07-1.05,0-1.74.07-1.34.07-1.87.07c-.13,0-.19-.11-.19-.33s.06-.3.19-.31a4.27,4.27,0,0,0,1.91-.53,1.67,1.67,0,0,0,.51-1.44v-11a2.38,2.38,0,0,0-.2-1.14,1.37,1.37,0,0,0-.72-.53,6.75,6.75,0,0,0-1.5-.31c-.13,0-.19-.1-.19-.32s.06-.32.19-.32c.53,0,1.15,0,1.87.07s1.27.07,1.74.07,1,0,1.73-.07,1.34-.07,1.86-.07c.12,0,.18.11.18.32s-.06.32-.18.32a6.88,6.88,0,0,0-1.5.31,1.38,1.38,0,0,0-.71.52,2.43,2.43,0,0,0-.19,1.15v11a2.44,2.44,0,0,0,.19,1.14,1.38,1.38,0,0,0,.71.52,6.65,6.65,0,0,0,1.48.31C173.23,28.1,173.29,28.21,173.29,28.4Z"/><path class="cls-1" d="M191.14,24.42q-.42,1.86-.81,4a17.36,17.36,0,0,0-2.41.31,19.74,19.74,0,0,1-3.31.41A9.91,9.91,0,0,1,180,28.05a7.55,7.55,0,0,1-3.12-3,8.63,8.63,0,0,1-1.12-4.34,8.31,8.31,0,0,1,1.19-4.34,8.2,8.2,0,0,1,3.25-3.09,9.73,9.73,0,0,1,4.67-1.11,23.74,23.74,0,0,1,2.93.24,18.89,18.89,0,0,0,2.09.18c.1,1.09.28,2.41.53,4,0,.13-.12.19-.37.19a.25.25,0,0,1-.28-.19,4.72,4.72,0,0,0-1.8-2.61,5.26,5.26,0,0,0-3.19-1,5.72,5.72,0,0,0-4.6,2.26,8.4,8.4,0,0,0-1.85,5.53,8.26,8.26,0,0,0,1.83,5.41,5.66,5.66,0,0,0,4.5,2.23,6,6,0,0,0,5.89-3.94.32.32,0,0,1,.32-.18C191,24.24,191.14,24.3,191.14,24.42Z"/><path class="cls-1" d="M208.82,28.4c0,.22-.07.33-.19.33-.54,0-1.14,0-1.82-.07s-1.08-.07-1.49-.07-1.06,0-1.76.07-1.37.07-1.89.07c-.12,0-.18-.11-.18-.32s0-.32.14-.32a3.75,3.75,0,0,0,1.49-.28.73.73,0,0,0,.45-.7,3.23,3.23,0,0,0-.23-1L202,22.23h-4.78l-1.33,3.61a3.77,3.77,0,0,0-.26,1.13c0,.68.63,1.06,1.89,1.12.09,0,.14.11.14.32s-.06.32-.19.32c-.46,0-1,0-1.55-.07s-1-.07-1.43-.07-.75,0-1.25.07-1,.07-1.35.07c-.12,0-.18-.1-.18-.29s.09-.34.27-.35a2.79,2.79,0,0,0,1.53-.54,4.68,4.68,0,0,0,1.17-1.8l5.45-13.38a.32.32,0,0,1,.33-.19c.19,0,.3.06.35.18l4.81,13.39a3.53,3.53,0,0,0,1.1,1.66,3.64,3.64,0,0,0,1.85.68C208.74,28.1,208.82,28.21,208.82,28.4Zm-7.06-6.91-2-5.94-2.2,5.94Z"/><path class="cls-2" d="M126,11a.45.45,0,0,1-.15-.3.33.33,0,0,1,.12-.22l3.49-3.3a.41.41,0,0,1,.3-.11.85.85,0,0,1,.68.36,1.15,1.15,0,0,1,.3.71.46.46,0,0,1-.21.43l-4.08,2.53"/></g></g></svg>