<svg id="Layer_1" data-name="Layer 1" xmlns="http://www.w3.org/2000/svg" viewBox="0 0 71.15 60.92"><defs><style>.cls-1{fill:#2cbec9;}.cls-2{fill:#fff;}</style></defs><title>isotipo_web_nueva</title><path class="cls-1" d="M10024.8-316.4h15.73V-311h-9.23v50.11h9.23v5.41h-15.73V-316.4Z" transform="translate(-10024.8 316.4)"/><path class="cls-1" d="M10095.95-255.48h-15.66v-5.41h9.17V-311h-9.17v-5.41h15.66v60.92Z" transform="translate(-10024.8 316.4)"/><path class="cls-2" d="M10067.22-294.57a11.37,11.37,0,0,1-4.06,8.87,14.64,14.64,0,0,1-10.06,3.59q-3.6,0-7.08-.3v10.63a5.92,5.92,0,0,0,.53,2.94,3.53,3.53,0,0,0,1.83,1.34,17,17,0,0,0,3.83.8,0.66,0.66,0,0,1,.48.81c0,0.56-.16.84-0.48,0.84q-2,0-4.77-.18t-4.47-.18q-1.83,0-4.5.18t-4.8.18q-0.48,0-.48-0.84a0.66,0.66,0,0,1,.48-0.81,11.46,11.46,0,0,0,4.94-1.35q1.31-.93,1.31-3.73v-28.27a6,6,0,0,0-.53-3,3.5,3.5,0,0,0-1.84-1.35,17.41,17.41,0,0,0-3.87-.8c-0.32,0-.48-0.27-0.48-0.82s0.16-.83.48-0.83q2,0,4.8.18t4.5,0.18q1.83,0,4.47-.18t4.77-.18q7.38,0,11.2,3.12T10067.22-294.57Zm-6.63,0q0-4.82-2.36-7.53a7.88,7.88,0,0,0-6.26-2.71,14,14,0,0,0-3.62.36,3,3,0,0,0-1.8,1.17,6.63,6.63,0,0,0-.53,3.22v13.82a1.78,1.78,0,0,0,.81,1.73,8.85,8.85,0,0,0,3.51.44q4.89,0,7.57-2.8A10.71,10.71,0,0,0,10060.59-294.57Z" transform="translate(-10024.8 316.4)"/><path class="cls-2" d="M10066.81-268.73a28.46,28.46,0,0,0-.72,3.65,47.59,47.59,0,0,0-6.09-.21,47.14,47.14,0,0,0-6.16.21c-0.18,0-.27-0.12-0.27-0.37l0-.17,10.07-13.32H10059a4.5,4.5,0,0,0-4.45,2.86,0.27,0.27,0,0,1-.24.2c-0.23,0-.35-0.07-0.35-0.22l0-.15a32.37,32.37,0,0,0,1.16-3.57,38.47,38.47,0,0,0,5.53.21,40.37,40.37,0,0,0,5.75-.21c0.18,0,.27.13,0.27,0.4a0.28,0.28,0,0,1-.05.16L10056.59-266h5.55a4.37,4.37,0,0,0,2.58-.75,4,4,0,0,0,1.5-2.12,0.22,0.22,0,0,1,.24-0.17C10066.7-269,10066.82-268.91,10066.81-268.73Z" transform="translate(-10024.8 316.4)"/><path class="cls-2" d="M10087.41-282.27a6.63,6.63,0,0,1-2.37,5.17,8.53,8.53,0,0,1-5.86,2.09q-2.1,0-4.12-.17v6.2a3.47,3.47,0,0,0,.31,1.71,2,2,0,0,0,1.07.78,10.13,10.13,0,0,0,2.23.47c0.19,0,.28.18,0.28,0.47s-0.09.49-.28,0.49q-1.17,0-2.78-.11c-1-.07-1.9-0.1-2.61-0.1s-1.59,0-2.63.1-2,.11-2.8.11c-0.19,0-.28-0.16-0.28-0.49s0.09-.45.28-0.47a6.68,6.68,0,0,0,2.88-.79,2.53,2.53,0,0,0,.76-2.17v-16.48a3.55,3.55,0,0,0-.3-1.73,2.07,2.07,0,0,0-1.08-.79,10.33,10.33,0,0,0-2.26-.47c-0.19,0-.28-0.16-0.28-0.48s0.09-.48.28-0.48q1.17,0,2.8.1c1,0.07,1.91.11,2.62,0.11s1.58,0,2.61-.11,2-.1,2.78-0.1q4.3,0,6.53,1.82A6.47,6.47,0,0,1,10087.41-282.27Zm-3.87,0a6.48,6.48,0,0,0-1.37-4.39,4.6,4.6,0,0,0-3.65-1.58,8.23,8.23,0,0,0-2.11.21,1.74,1.74,0,0,0-1,.69,3.88,3.88,0,0,0-.31,1.88v8.06a1,1,0,0,0,.47,1,5.23,5.23,0,0,0,2.05.26,5.82,5.82,0,0,0,4.41-1.63A6.24,6.24,0,0,0,10083.54-282.27Z" transform="translate(-10024.8 316.4)"/></svg>