<svg xmlns="http://www.w3.org/2000/svg" viewBox="0 0 301.77 258.38"><defs><style>.cls-1{fill:#2cbec9;}.cls-2{stroke:#000;stroke-miterlimit:10;}</style></defs><title>Asset 5</title><g id="Layer_2" data-name="Layer 2"><g id="Layer_1-2" data-name="Layer 1"><path class="cls-1" d="M0,0H66.7V22.93H27.55V235.45H66.7v22.93H0Z"/><path class="cls-1" d="M301.77,258.38H235.36V235.45h38.87V22.93H235.36V0h66.41Z"/><path class="cls-2" d="M179.94,92.58q0,22.41-17.23,37.63t-42.65,15.21q-15.27,0-30-1.27v45.07q0,8.91,2.23,12.48c1.49,2.38,4.07,4.26,7.77,5.66s9.1,2.53,16.23,3.38c1.35.17,2,1.32,2,3.43,0,2.38-.69,3.57-2,3.57q-8.53,0-20.24-.76-11.21-.76-19-.76T58,217q-11.83.77-20.37.76-2,0-2-3.57c0-2.11.68-3.26,2-3.43Q53,209,58.54,205t5.54-15.8V69.3q0-8.91-2.23-12.55T54,51q-5.61-2.12-16.43-3.38c-1.36,0-2-1.16-2-3.5s.68-3.5,2-3.5q8.52,0,20.37.77,11.32.75,19.08.76t19-.76q11.7-.78,20.22-.77,31.29,0,47.51,13.24T179.94,92.58Zm-28.14,0q0-20.42-10-31.92T115.26,49.17q-9.93,0-15.33,1.53c-3.62,1-6.16,2.69-7.65,5s-2.23,6.85-2.23,13.67V128q0,5.49,3.44,7.33t14.9,1.86q20.74,0,32.09-11.88T151.8,92.58Z"/><path class="cls-2" d="M178.19,202.17a121.86,121.86,0,0,0-3.07,15.47q-4.44-.88-25.81-.89-22.09,0-26.14.89c-.76,0-1.15-.53-1.15-1.59l.18-.72,42.71-56.48h-20q-13.5,0-18.88,12.13c-.24.57-.57.85-1,.85-1,0-1.47-.31-1.47-.93l.18-.63a136.58,136.58,0,0,0,4.93-15.16q3.78.9,23.47.9,20.83,0,24.39-.9c.77,0,1.16.57,1.16,1.69a1.19,1.19,0,0,1-.22.68l-42.62,56.43h23.52a18.58,18.58,0,0,0,11-3.2,16.75,16.75,0,0,0,6.37-9,1,1,0,0,1,1-.7Q178.24,201,178.19,202.17Z"/><path class="cls-2" d="M265.56,144.76a28.13,28.13,0,0,1-10,21.94q-10.07,8.88-24.88,8.87-8.89,0-17.49-.74v26.28c0,3.46.44,5.89,1.3,7.27a8.67,8.67,0,0,0,4.52,3.31,43,43,0,0,0,9.46,2c.8.08,1.19.76,1.19,2s-.39,2.07-1.19,2.07q-5,0-11.8-.45c-4.35-.28-8-.44-11-.44s-6.74.16-11.15.44c-4.59.3-8.56.45-11.87.45-.8,0-1.19-.69-1.19-2.07s.39-1.92,1.19-2q9-1,12.21-3.36T198,201.1V131.19c0-3.47-.43-5.9-1.28-7.32a8.79,8.79,0,0,0-4.57-3.34,43.49,43.49,0,0,0-9.58-2c-.8,0-1.19-.67-1.19-2s.39-2,1.19-2c3.31,0,7.28.16,11.87.45,4.41.3,8.11.46,11.13.46s6.71-.16,11.06-.46c4.55-.29,8.47-.45,11.78-.45q18.24,0,27.7,7.72T265.56,144.76Zm-16.42,0q0-11.91-5.82-18.61t-15.48-6.7a35.18,35.18,0,0,0-8.94.89,7.38,7.38,0,0,0-4.45,2.91c-.86,1.34-1.3,4-1.3,8v34.18c0,2.13.67,3.56,2,4.28s4.25,1.08,8.7,1.08q12.07,0,18.7-6.93T249.14,144.76Z"/></g></g></svg>