<svg xmlns="http://www.w3.org/2000/svg" viewBox="0 0 574 940"><title>laberinto_an blanco</title>

<g id="poder"><path d="M169.4,763.5a21.57,21.57,0,0,0-15.91-6.66,21.91,21.91,0,0,0-16,6.59,41.48,41.48,0,0,0-4.14,4.49h40Q173.18,767.22,169.4,763.5Z" style="fill:none"/><path d="M156.84,659.39a21.65,21.65,0,0,0-16,6.66,20.77,20.77,0,0,0-6.1,10.93v10a20.74,20.74,0,0,0,6.1,10.79,22.51,22.51,0,1,0,16-38.41Z" style="fill:#fff"/><path d="M423.84,103.94c2.14,2.13,4.25,4.69,7.73,1.18,16.22-16.35,32.6-32.54,49-48.88L428.19,4.83,376,58.17c6.46,5.72,14,12,21,18.74C406.16,85.71,414.85,95,423.84,103.94Z" style="fill:#fff"/><path d="M257.22,760.35a21.65,21.65,0,0,0-16,6.66,20.75,20.75,0,0,0-6.1,10.79v10a20.76,20.76,0,0,0,6.1,10.93,22.53,22.53,0,1,0,16-38.41Z" style="fill:none"/><path d="M250.9,666A21.57,21.57,0,0,0,235,659.39,21.91,21.91,0,0,0,219,666a41.53,41.53,0,0,0-4.14,4.49h40Q254.69,669.77,250.9,666Z" style="fill:#fff"/><path d="M119.48,243.7c3.47-3.52.89-5.6-1.26-7.72-9.06-8.89-18.42-17.49-27.32-26.53-6.85-7-13.18-14.44-19-20.83L19.16,241.4l52,51.85C87.29,276.65,103.3,260.1,119.48,243.7Z" style="fill:#fff"/><path d="M75.82,659.39A22.53,22.53,0,1,0,91.73,697.8a21,21,0,0,0,6.17-11.07v-9.53A21,21,0,0,0,91.73,666,21.57,21.57,0,0,0,75.82,659.39Z" style="fill:#fff"/><path d="M75.76,756.84a22.53,22.53,0,1,0,16,38.41,20.75,20.75,0,0,0,6.1-10.79v-10a20.78,20.78,0,0,0-6.1-10.93A21.65,21.65,0,0,0,75.76,756.84Z" style="fill:none"/><path d="M271,497.67l.08-.08-.08.08Z" style="fill:#fff"/><path d="M546.8,145.65l-52-52.43-40.28,38.93c17.88,18.6,35.42,36.51,52.79,54.06q12.52-13,25.1-25.91C537.14,155.39,541.93,150.48,546.8,145.65Z" style="fill:#fff"/><path d="M509.82,763.5a21.57,21.57,0,0,0-15.91-6.66,21.91,21.91,0,0,0-16,6.59,41.45,41.45,0,0,0-4.14,4.49h40Q513.61,767.22,509.82,763.5Z" style="fill:#fff"/><path d="M133,124.65l51.52,50.62,50.85-50.88L181.75,73.54Z" style="fill:#fff"/><path d="M493.83,697.87a22.59,22.59,0,1,0-15.91,6.59A21.68,21.68,0,0,0,493.83,697.87Z" style="fill:#fff"/><path d="M416.18,756.84a22.53,22.53,0,1,0,16,38.41,20.75,20.75,0,0,0,6.1-10.79v-10a20.78,20.78,0,0,0-6.1-10.93A21.65,21.65,0,0,0,416.18,756.84Z" style="fill:#fff"/><path d="M335.86,756.84a22.55,22.55,0,1,0,15.91,6.62A21.73,21.73,0,0,0,335.86,756.84Z" style="fill:#fff"/><path d="M81.85,533H151c-11.07-10.21-22.32-21.67-33.77-32.78C105.23,511,93.46,522.83,81.85,533Z" style="fill:#fff"/><path d="M104.52,433.57C82.46,455,60.32,476.4,37.34,498.64c-2.11-2.47-4.66-5.36-7.18-7.88-4.48-4.46-8.74-8.93-13.85-13.39V533h.07V532H28.23V533h26.7c20.44-18.72,40.81-40.67,61.53-61.28q30.13,30.56,60.41,61.28h28.24c4.13-3.4,8.23-8,12.46-12.33-29.81-29.13-60.09-58.61-90.74-88.12C116.28,422.44,115.45,423,104.52,433.57Z" style="fill:#fff"/><path d="M564.38,60V2H506.13C525.38,22.42,544,40.83,564.38,60Z" style="fill:#fff"/><path d="M298.68,56q-27-27-54-54H193.84c.26,1.7.52.84.79,1.11q38.85,39,77.61,78.32Q294.1,103.51,316,125.49q38,38.09,76.25,76.09,34.8,34.66,69.53,69.37c34.21,34.25,68.56,68.6,102.61,102.92V320.62c-37.45-36.51-142.51-141.34-146.17-145Q358.31,115.75,298.68,56Z" style="fill:#fff"/><path d="M149.09,376.07l-25.53,26.75,19.09,18.91,26-26.72q-5.11-5.07-10.22-10.14" style="fill:#fff"/><path d="M244.89,522.82c-3.54,3.55-7,6.83-10.48,10.23h75c-3.37-3.4-6.67-6.36-10-9.75,42.84-42.57,86.2-85.19,129.8-128.51,44.93,44.82,89.24,89.79,135.19,134.72V478.26c-30.64-30-60-60.14-90.22-90-13.48-13.31-27.8-25.86-41.62-38.84-2.9-2.73-5.26-3.4-8.57-.28-7.5,7.06-15.66,13.46-23,20.66-17,16.65-33.71,33.61-50.26,50.18l-.08-.08L299.2,470.17c0,.17-.68.34-.85.51-8.76,9-17.69,17.6-25.6,25.29.18.18.36.37,0,0l-1.65,1.59-.08.08h0l-26,25.1" style="fill:#fff"/><path d="M244.73,471l-.69-.69.65.72Z" style="fill:#fff"/><path d="M90.64,369.26c-6.2,5.73-12.39,11.48-18.48,17.33-11.43,11-22.84,22.43-33.69,33.33-7.3-7.33-13.65-14.59-22.16-21.83v51.42c8.51,6.92,14.38,13.84,21.37,20.77,27-26.1,52.72-50.73,78.05-75.21" style="fill:#fff"/><path d="M487.34,479.46c-17.9-17.74-36.51-34.57-54.7-52-2.93-2.81-5.13-3.45-8.45-.33-8.74,8.2-18.1,15.8-26.62,24.21q-35.66,35.21-70.44,70.15c3.94,4,7.87,8.17,11.8,11.58h26.49c20.44-20.42,40.91-41.15,61.35-61.91,18.55,18.32,35.77,35.14,53.08,52.24-3.3,3.29-6.59,8-9.88,9.67h71.62C523.52,516,505.45,497.42,487.34,479.46Z" style="fill:#fff"/><path d="M426.09,501.42c-10.6,10.65-21.25,21.41-31.87,31.63H443.6c1.86-1.7,3.73-3.27,5.6-5.1a10.1,10.1,0,0,0,1.5-1.85C442.33,517.84,434.18,509.4,426.09,501.42Z" style="fill:#fff"/><path d="M325.15,56l27.21-27.21c-9.05-8.9-18-16.58-27-26.75h-53.8Q298.26,29.24,325.15,56Z" style="fill:#fff"/><path d="M560.72,132.89l-13.34,13.34-.58-.58c-4.87,4.83-9.66,9.74-14.44,14.65q-12.58,12.92-25.1,25.91l.07.07L503.64,190l-21.87,21.86,46.64,47.61.09-.1q6.54,6.73,13.15,13.38c7.28,7.31,14.22,14.44,22.73,21.75v-51c-3.42-3.27-6.78-6.55-10.13-9.84l.12-.12-20.23-20.25a6.24,6.24,0,0,1,.92-4.63c9.82-10.31,19.11-20.55,29.32-30.36V150.89l.37-22Z" style="fill:#fff"/><path d="M43.92,73.91c8.8-8.53,18-16.67,26.65-25.3C85.74,33.53,100.66,18.21,115,3.71l44,43.74c13.91-13.86,24.72-24.62,26.34-26.24C179,15.14,172.77,9.05,166.54,2h-100c-9,10.21-18.26,18.91-27.1,28.09C31.84,22.53,24.83,15.33,16.32,7.84V58.48c6.81,5.12,11.44,10.25,16.86,15.46C37,77.58,40.29,77.42,43.92,73.91Z" style="fill:#fff"/><path d="M428.92,316.13c24.4,24.43,48.59,48.7,72.85,72.73,20.74,20.53,42.18,40.81,62.61,61.35V400.13L454.56,290.49Z" style="fill:#fff"/><path d="M298.27,134.18l-26.37,25.6,40.86,41.12,26-26.12" style="fill:#fff"/><path d="M28,179.37c-3.82-3.74-7.71-7.48-11.7-11.21v22.79a1.63,1.63,0,0,0,.42-.23C20.5,186.84,24.29,183,28,179.37Z" style="fill:#fff"/><path d="M97.9,714.51h-.06v38q-7.71-7.78-22.08-7.78a34.69,34.69,0,0,0,0,69.39q14.37,0,22.08-7.57v6h11.85V715H97.9Zm-.06,69.95a20.75,20.75,0,0,1-6.1,10.79,22.5,22.5,0,0,1-31.89.07,22.55,22.55,0,0,1,15.91-38.48,21.65,21.65,0,0,1,16,6.66,20.78,20.78,0,0,1,6.1,10.93Z" style="fill:#2cbec9"/><path d="M178,754.88a34.69,34.69,0,0,0-49,0,34.73,34.73,0,0,0,24.5,59.26A33.16,33.16,0,0,0,178,803.87a41.87,41.87,0,0,0,6.73-8.83L173.18,791a52.26,52.26,0,0,1-3.78,4.27,22.5,22.5,0,0,1-31.89.07,21.9,21.9,0,0,1-6.8-15.42h56.42Q187.13,764,178,754.88Zm-44.65,13a41.48,41.48,0,0,1,4.14-4.49,21.91,21.91,0,0,1,16-6.59,21.57,21.57,0,0,1,15.91,6.66q3.78,3.71,4,4.42Z" style="fill:#2cbec9"/><rect x="197.36" y="714.51" width="11.84" height="97.99" style="fill:#2cbec9"/><path d="M257.22,748.15q-14.37,0-22.08,7.57v-6H223.3V932h11.85V809.76q7.71,7.78,22.08,7.78a34.69,34.69,0,0,0,0-69.39Zm15.91,50.64a22.46,22.46,0,0,1-31.89,0,20.76,20.76,0,0,1-6.1-10.93v-10a20.75,20.75,0,0,1,6.1-10.79,22.51,22.51,0,1,1,31.89,31.79Z" style="fill:#fff"/><path d="M335.86,744.72a34.58,34.58,0,1,0,24.53,10.16A33.53,33.53,0,0,0,335.86,744.72Zm15.91,50.6a22.55,22.55,0,1,1,6.59-15.91A21.68,21.68,0,0,1,351.77,795.32Z" style="fill:#fff"/><path d="M438.26,752.5q-7.71-7.78-22.08-7.78a34.69,34.69,0,0,0,0,69.39q14.37,0,22.08-7.57v6H450.1v-98H438.26Zm0,32a20.75,20.75,0,0,1-6.1,10.79,22.53,22.53,0,1,1,0-31.75,20.78,20.78,0,0,1,6.1,10.93Z" style="fill:#fff"/><path d="M518.44,754.88a34.73,34.73,0,1,0,0,49,41.87,41.87,0,0,0,6.73-8.83L513.61,791a52.29,52.29,0,0,1-3.78,4.27,22.5,22.5,0,0,1-31.89.07,21.9,21.9,0,0,1-6.8-15.42h56.42Q527.55,764,518.44,754.88Zm-44.65,13a41.45,41.45,0,0,1,4.14-4.49,21.91,21.91,0,0,1,16-6.59,21.57,21.57,0,0,1,15.91,6.66q3.78,3.71,4,4.42Z" style="fill:#fff"/><path d="M558.81,748.64q-8.2,2.59-11.49,11.28V749.76H535.47v62.73h11.84V780.25a21.6,21.6,0,0,1,6.59-15.07q3.64-3.64,11.35-5.19Z" style="fill:#fff"/><rect x="16.38" y="533.05" width="11.84" height="181.99" style="fill:#fff"/><rect x="16.38" y="531.95" width="11.84" height="1.1" style="fill:#fff"/><path d="M97.9,655q-7.64-7.78-22.08-7.78a33.53,33.53,0,0,0-24.5,10.13,34.61,34.61,0,0,0,0,49.06,33.41,33.41,0,0,0,24.5,10.2q14.44,0,22.08-7.92v5.77h11.78V715h.06V652.31H97.9Zm0,31.68a21,21,0,0,1-6.17,11.07,22.5,22.5,0,0,1-31.89.07,22.57,22.57,0,0,1,16-38.48A21.57,21.57,0,0,1,91.73,666a21,21,0,0,1,6.17,11.15Z" style="fill:#fff"/><rect x="97.9" y="714.51" width="11.78" height="0.54"/><path d="M156.84,647.26q-14.37,0-22.08,7.78v-38H122.92v98h11.85v-6q7.71,7.57,22.08,7.57a34.69,34.69,0,0,0,0-69.39Zm15.91,50.61a22.5,22.5,0,0,1-31.89-.07,20.74,20.74,0,0,1-6.1-10.79V677a20.77,20.77,0,0,1,6.1-10.93,22.53,22.53,0,1,1,31.89,31.82Z" style="fill:#fff"/><path d="M259.52,706.42a41.85,41.85,0,0,0,6.73-8.83l-11.56-4.06a52.25,52.25,0,0,1-3.78,4.27,22.5,22.5,0,0,1-31.89.07,21.9,21.9,0,0,1-6.8-15.42h56.42q0-15.91-9.11-25a34.73,34.73,0,1,0,0,49ZM219,666a21.91,21.91,0,0,1,16-6.59A21.57,21.57,0,0,1,250.9,666q3.78,3.72,4,4.42h-40A41.53,41.53,0,0,1,219,666Z" style="fill:#fff"/><path d="M299.89,651.19q-8.2,2.59-11.49,11.28V652.31H276.55V715H288.4V682.8A21.6,21.6,0,0,1,295,667.73q3.64-3.64,11.35-5.19Z" style="fill:#fff"/><path d="M328.91,640.89a8.05,8.05,0,0,0-2.49-6,8.15,8.15,0,0,0-5.92-2.45,8.34,8.34,0,0,0-6,2.45,8.38,8.38,0,0,0,0,12,8.34,8.34,0,0,0,6,2.45,8.44,8.44,0,0,0,8.41-8.48Z" style="fill:#fff"/><rect x="314.54" y="652.31" width="11.77" height="62.73" style="fill:#fff"/><path d="M392.06,715V674.18a24.9,24.9,0,0,0-7.36-18q-7.22-7.18-18.5-7.18-10.72,0-13,3.36H341.39V715h11.85V668.85a14.48,14.48,0,0,1,3.08-4.07,13.88,13.88,0,0,1,9.88-4,13.73,13.73,0,0,1,9.92,4.06,13.21,13.21,0,0,1,4.17,9.81V715Z" style="fill:#fff"/><polygon points="424.51 715.04 424.51 664.16 435.94 664.16 435.94 652.31 424.51 652.31 424.51 628.48 412.67 628.48 412.67 652.31 401.24 652.31 401.24 664.16 412.67 664.16 412.67 715.04 424.51 715.04" style="fill:#fff"/><path d="M502.45,706.46a34.56,34.56,0,1,0-24.53,10.2A33.22,33.22,0,0,0,502.45,706.46ZM455.35,682a22.49,22.49,0,1,1,6.59,15.91A21.74,21.74,0,0,1,455.35,682Z" style="fill:#fff"/><path d="M507.26,186.21,503.64,190l3.69-3.69Z" style="fill:#fff"/><path d="M520.13,59.39V44.47C506.51,30.36,492.44,16.21,478.38,2H378c-.17,0-.33.65-.5.81-9,8.86-17.41,18.05-25,26l-.11-.11L325.15,56q43.52,43.27,87.91,85.76l68.71,70.13L503.64,190l3.62-3.77c-17.37-17.55-34.91-35.45-52.79-54.06l40.28-38.93,52,52.43.58.58,13.34-13.34,4-4,.18-24.94Zm-88.56,45.74c-3.48,3.51-5.59,1-7.73-1.18-9-9-17.68-18.23-26.83-27-7-6.77-14.58-13-21-18.74L428.19,4.83,480.6,56.24C464.18,72.58,447.8,88.78,431.57,105.12Z" style="fill:#fff"/><path d="M127.5,171.25c17,16.92,34.44,33.4,51.72,50,3,2.85,6.06,3.48,9.42.32,5.59-5.27,11.5-10.21,17-15.61,16.94-16.75,33.73-33.67,50.59-50.5,1.25-1.25,2.56-2.43,3.86-3.6l28.27-27.24L185.51,21l-.22.22c-1.63,1.62-12.44,12.38-26.34,26.24-25.26,25.18-60.71,60.58-69.82,70-4.62,4.77-4.88,9,.07,14C102.13,144.56,114.45,158.27,127.5,171.25Zm54.25-97.71,53.63,50.85-50.85,50.88L133,124.65Z" style="fill:#fff"/><path d="M352.7,188.69l-13.9-13.91-26,26.12,0,0c31.13,31.29,63.79,64.09,88.59,89l-52.65,52.25c-24.11-24.18-88.61-88.66-90.86-90.9l13.94-14.17,9.09,8.93,5.08,5c18.81,18.61,44.1,43.68,63.22,62.57,7.26-7.46,14.6-14.71,21.48-22.36,1.09-1.21,1.08-5.2,0-6.31-18.73-18.78-45.36-45.23-64.22-63.88l0,0-17.22-17c-2.9-2.87-5.93-5.62-9-8.29-7.61-6.57-8.67-6.66-16,.24q-18.09,17-35.87,34.39c-11,10.8-21.84,21.81-32.41,32.41l-4.27-4.33-.9.93L171.13,240l0,0,.41.42q-13.27,14-26.34,27.72l19,18.78-.28.29,55.85,55.29-51,52.47-26,26.72-.08.08,70,69L245,522.77l26-25.1.08-.08,1.65-1.59c.34.34.16.16,0,0,7.91-7.69,16.85-16.24,25.6-25.29.16-.17.85-.34.85-.51l51.42-50.23,0,0L221.15,288.6l11.5-11.7c5.42,5.33,84.06,82.73,117.23,115.33l79-76.16.05.05,25.63-25.63q-37.05-37-74.07-74ZM244,368.16l52,51.85c-16.66,16.67-32.33,32.08-51.2,51l0,0-.65-.72q-24.36-24.38-48.72-48.74l-.85-.85c-.41-.7-.23-1.58,1.14-3C211.78,401.31,227.79,384.75,244,368.16Z" style="fill:#fff"/><path d="M172.37,241.32c-34.86-35.75-68.72-69.64-102.29-102.69L42.32,165.41c-.34-.34-.16-.16,0,0C37.83,169.82,33,174.49,28,179.37c-3.73,3.67-7.52,7.46-11.28,11.35a1.63,1.63,0,0,1-.42.23c-.22.1-.43.19-.43.28l.21,74.45.06,0,.1,27.62,74.39,75.91,31.82,32.47,1.1,1.09,25.53-26.75-6.51-6.24L93.35,322.67l6.87-7.24c14.94-15.76,29.87-31.42,44.94-47.25l.87.88Zm-52.89,2.38c-16.17,16.4-32.18,33-48.35,49.55l-52-51.85,52.76-52.78c5.79,6.39,12.12,13.87,19,20.83,8.9,9,18.26,17.64,27.32,26.53C120.37,238.09,122.95,240.18,119.48,243.7Z" style="fill:#fff"/></g>

<g id="lab"><path d="M168.65,395l51-52.47-55.85-55.29.28-.29-19-18.78c-15.07,15.83-30,31.49-44.94,47.25l-6.87,7.24,49.23,47.17c5.35,4.94,10.67,9.92,15.85,15Q163.55,389.93,168.65,395Z" style="fill:none"/><path d="M244,368.16c-16.16,16.6-32.18,33.15-48.35,49.55-1.37,1.39-1.55,2.28-1.14,3l.85.85a22.42,22.42,0,0,1,3.08,2.1c9.06,8.89,18.42,17.49,27.32,26.53,6.6,6.7,12.71,13.88,18.32,20.11l.69.69c18.87-18.87,34.53-34.29,51.2-51Z" style="fill:none"/><path d="M194.47,420.68a2.94,2.94,0,0,0,.85.85Z"/><path d="M220.21,289.56l.94-1L195.8,262.89l-4.27-4.33-.9.93L164.12,287l-.28.29,55.85,55.29-51,52.47-26,26.72q35,34.66,70,69.11L245,522.77l26-25.1.08-.08,1.65-1.59c.34.34.16.16,0,0,7.91-7.69,16.85-16.24,25.6-25.29.16-.17.85-.34.85-.51l51.42-50.23ZM244.73,471l0,0-.65-.72q-24.36-24.38-48.72-48.74a2.94,2.94,0,0,1-.85-.85c-.41-.7-.23-1.58,1.14-3,16.17-16.4,32.18-33,48.35-49.55l52,51.85C279.26,436.68,263.6,452.09,244.73,471Z" style="fill:#2cbec9"/><path d="M520.13,59.39V44.47C506.51,30.36,492.44,16.21,478.38,2H378c-.17,0-.33.65-.5.81-9,8.86-17.41,18.05-25,26l-.11-.11L325.15,56q43.52,43.27,87.91,85.76l68.71,70.13L503.64,190l3.62-3.77c-17.37-17.55-34.91-35.45-52.79-54.06l40.28-38.93,52,52.43.58.58,13.34-13.34,4-4,.18-24.94Zm-88.56,45.74c-3.48,3.51-5.59,1-7.73-1.18-9-9-17.68-18.23-26.83-27-7-6.77-14.58-13-21-18.74L428.19,4.83,480.6,56.24C464.18,72.58,447.8,88.78,431.57,105.12Z" style="fill:#2cbec9"/><path d="M185.51,21l-.22.22c-1.63,1.62-12.44,12.38-26.34,26.24-25.26,25.18-60.71,60.58-69.82,70-4.62,4.77-4.88,9,.07,14,12.93,13.11,25.25,26.81,38.29,39.8,17,16.92,34.44,33.4,51.72,50,3,2.85,6.06,3.48,9.42.32,5.59-5.27,11.5-10.21,17-15.61,16.94-16.75,33.73-33.67,50.59-50.5,1.25-1.25,2.56-2.43,3.86-3.6l28.27-27.24Zm-1,154.28L133,124.65l48.73-51.11,53.63,50.85Z" style="fill:#2cbec9"/><path d="M380.49,216.5,352.7,188.69l-13.9-13.91-26,26.12,0,0c31.13,31.29,63.79,64.09,88.59,89l-52.65,52.25c-24.11-24.18-88.61-88.66-90.86-90.9L232.66,276.9c5.42,5.33,84.06,82.73,117.23,115.33l79-76.16.05.05,25.63-25.63Q417.5,253.5,380.49,216.5Z" style="fill:#2cbec9"/><path d="M93.35,322.67l6.87-7.24c14.94-15.76,29.87-31.42,44.94-47.25q13.09-13.75,26.34-27.72l-.41-.42c-33.57-34.47-67.43-68.35-101-101.4L42.32,165.41c-.34-.34-.16-.16,0,0C37.83,169.82,33,174.49,28,179.37c-3.73,3.67-7.52,7.46-11.28,11.35a1.63,1.63,0,0,1-.42.23c-.22.1-.43.19-.43.28l.21,74.45.06,0,.1,27.62,74.39,75.91,31.82,32.47,1.1,1.09,25.53-26.75-6.51-6.24ZM71.13,293.25l-52-51.85,52.76-52.78c5.79,6.39,12.12,13.87,19,20.83,8.9,9,18.26,17.64,27.32,26.53,2.16,2.11,4.73,4.2,1.26,7.72C103.3,260.1,87.29,276.65,71.13,293.25Z" style="fill:#2cbec9"/><path d="M221.15,288.6l-.94,1,130.4,130.39,0,0" style="fill:#2cbec9"/><path d="M142.57,421.81l70,69q-34.85-34.45-70-69.11Z" style="fill:#2cbec9"/><path d="M370.58,285c-18.73-18.78-45.36-45.23-64.22-63.88l0,0-25.49,24.92,5.08,5c18.81,18.61,44.1,43.68,63.22,62.57,7.26-7.46,14.6-14.71,21.48-22.36C371.69,290.11,371.68,286.11,370.58,285Z" style="fill:#2cbec9"/><animate attributeName="opacity" values="0;1;0" dur="5s" repeatCount="indefinite"/></g></svg>