<svg xmlns="http://www.w3.org/2000/svg" viewBox="0 0 2481.51 1266.12"><defs><style>.cls-1{fill:#fff;}</style></defs><title>logotipo hivos</title><g id="Layer_2" data-name="Layer 2"><g id="Layer_1-2" data-name="Layer 1"><g id="hXfVvW.tif"><path class="cls-1" d="M215.69,480.74V788.6h87.87c.31,23.28.17,45.72.09,67.89C295.07,858.77,11.5,859.08.72,857V788.68H87.36V105.17H.4C-.31,81.33.16,58.55.07,36,8,33.79,289.55,33.14,303,35.19v69.48H215.61V400.28c7.66,2.07,309,2.88,326.71,1,2-7.05,2.3-283.31.11-296.25H456.5V34.85H758.85c.16,23,.15,45.82,0,69.59H673.11c-1.1,1.19-1.32,1.43-1.54,1.68s-.58.49-.6.76c-.2,2.32-.48,4.64-.48,7,0,224.27,0,448.53,0,674.08,9.92,1.08,19.46.41,28.95.52,9.66.12,19.33,0,29,0h28.52c2.4,8.18,2.9,56.49,1,68.23-7.06,2-288.29,2.55-301.77.35-.18-22.17-.11-44.6,0-68.31h87V480.79c-.06-.06-.29-.3-.54-.51s-.5-.58-.77-.6c-3-.19-6-.45-9-.45q-157.46.11-314.91.31C217.36,479.54,216.8,480.13,215.69,480.74Z"/><path class="cls-1" d="M2092.12,527.81c-2,80.93-14.88,149.13-47.81,212.58-16.61,32-38,60.31-66.82,82.42-41.61,31.88-89,43.14-140.32,36.86-77.07-9.42-128.65-53.67-161.05-122.22-16.25-34.4-24.17-71.07-26.91-109-4.16-57.62-.3-114.5,14.65-170.43,9.79-36.64,24.4-71.19,46.15-102.44,27.23-39.11,62-68.85,108.15-83,76.47-23.51,164.7-2.89,220.46,76,25.51,36.07,40.43,76.49,47.22,119.8C2089.45,491.29,2090.78,514.62,2092.12,527.81Zm-319.57,27.86c.81,26.5,2.39,67.43,7.88,108.08,3.58,26.42,8.54,52.57,17.82,77.7,5.33,14.45,12,28.18,21.73,40.25,12.29,15.24,28,24.55,47.6,26.29,23,2,41.65-6.65,56.5-24,13.74-16,21.69-35,27.73-54.87,10.94-36,14.52-73.13,15.36-110.47a846.7,846.7,0,0,0-13.47-173c-5.14-27.89-12.29-55.25-24.51-81-6.17-13-13.69-25.17-24.51-34.95-7.59-6.85-16.19-12.1-26.52-12.8-28.45-1.92-52.7,7-70.25,30.13a136.27,136.27,0,0,0-15.39,26.72c-9.44,21.16-13.5,43.8-16.34,66.67C1772,474,1771.64,507.57,1772.55,555.67Z"/><path class="cls-1" d="M1424.4,641c34.75-106,69.51-212,104.83-319.73H1476.4V265h146.52v55.84h-40.34c-58.57,179.35-116.48,358.47-175,537.75h-39.45l-161.05-537h-49c-.77-19.18-.51-37.32-.46-55.27,7.51-2.33,206-3,219.67-.81v55.42h-52.35c10.35,37,21.64,72.05,32.26,107.26,10.77,35.7,21.73,71.34,32.59,107Q1405.88,588,1422,640.88Z"/><path class="cls-1" d="M2201.74,840.19c-2.81,11.09-5.32,21-8,31.46H2154V732.7c9.91,0,19.5-.42,29,.29,2.49.18,5.17,3.51,7,6,10.28,13.9,19.48,28.71,30.65,41.83,16,18.77,36.34,31.17,61.27,34.69,17.14,2.43,33.94.81,50-5.92,39.22-16.43,57.06-58.48,42.48-99.61a118.53,118.53,0,0,0-28.27-44.32c-13.87-13.88-28.57-27-43.28-40-24.69-21.84-50.22-42.78-74.38-65.18a197.6,197.6,0,0,1-45.1-61.86C2163.11,455,2158.11,410.14,2177,365c21.86-52.21,62.73-82.24,117.15-94.67,42-9.59,82-1.58,120.82,15.08,2.75,1.18,5.49,2.4,8.28,3.49.53.21,1.26-.09,2.78-.25v-24.8c7.35-.08,13.88-.19,20.41-.23s13.26,0,21.27,0c.85,45.91.46,91,.57,136.58-10.85,2.55-21,.57-31.54,1.34-1.8-5-3.3-9.33-4.92-13.62-10.17-27-27.14-48-53.6-60.46-18.39-8.62-37.67-10.79-57.48-5.65-41,10.63-62.42,51.26-49.33,93.49a109.9,109.9,0,0,0,25.74,43.53c16.09,16.84,33.05,32.86,50.1,48.74,21.94,20.43,44.79,39.89,66.4,60.65,20.28,19.48,37.31,41.7,49.86,67.07,46.42,93.83-.39,199-101.28,227.17-44,12.32-87.09,7.77-129.21-8.75C2222.85,849.73,2212.94,845.05,2201.74,840.19Z"/><path class="cls-1" d="M863.63,447.93c-17.4-8.64-21.25-18.58-12-33.61C880.91,367,914.93,323.59,959.8,289.78c14.72-11.1,30.68-20,48.9-24.18a68,68,0,0,1,8.84-1.49c33.18-3.05,55.71,14.94,60.86,48,2.83,18.16.42,35.89-3.21,53.54C1068.13,400,1056.33,433,1044.82,466c-25.1,72-50.44,143.9-75.41,215.93-6.65,19.19-12.37,38.73-14,59.14a44.73,44.73,0,0,0,.34,10.91c2.46,14.22,13.48,20.68,26.5,14.27,8.5-4.19,17-9.78,23.31-16.74,15.4-17,29.55-35.12,44.11-52.88,3.13-3.82,5.85-8,9.41-12.88,4.24,3.4,8.31,5.8,11.24,9.19,5.91,6.84,7.84,14.61,2.78,23-1.72,2.85-3.28,5.82-5.24,8.5-25.83,35.29-53.44,69-86.3,98.14-17,15.08-35.21,28.54-56.57,37.05-13.16,5.24-26.74,8.44-41,6.43-22.9-3.22-37.11-16.79-44-38.37-4.62-14.52-4.8-29.47-3.34-44.53,3.43-35.37,12.78-69.4,24.15-102.85,23.69-69.65,48.28-139,71.74-208.74,7.31-21.71,12.39-44.18,18-66.44a55.06,55.06,0,0,0,1-17.85c-1.13-13.09-11.76-19.35-23.57-13.55a71.44,71.44,0,0,0-16.85,12.25c-14.92,14-26.25,30.95-37.78,47.7C870.19,438.25,867,442.91,863.63,447.93Z"/><path class="cls-1" d="M1639.46,1045.09h50.62c.34,4.82.64,9.05,1.08,15.14,3.71-2.8,6.45-4.9,9.22-7,12.7-9.44,26.62-14.75,42.77-13.74,13.81.87,25,6.42,33.56,17.22.83,1,1.72,2,2.62,3a8.35,8.35,0,0,0,1.59.86c2.33-1.54,5-3.28,7.69-5.07,12.62-8.49,26.15-14.45,41.52-15.9,28.46-2.67,49.21,13.21,51.94,41.61,1.65,17.19,1.24,34.6,1.3,51.91.05,17-.46,34-.77,51,0,2.3-.35,4.59-.64,8.17-8.38.08-16.58.18-24.79.22-8,0-15.92,0-25.12,0-.26-4.38-.68-8.2-.67-12,0-22.66.2-45.32.31-68,0-2.67.06-5.34,0-8-.8-17.81-12.14-24.91-28.69-17.85-3,1.3-5.81,3.21-8.73,4.8-5.25,2.87-6.88,7.2-6.9,13.18-.09,25.65-.63,51.3-1,76.95,0,3.25-.34,6.49-.54,10.29h-50.49c-.22-4.83-.67-9.68-.64-14.52.17-22.66.58-45.31.65-68a53.56,53.56,0,0,0-1.75-13.8c-1.93-7.31-7-11-14.58-11.36-10.41-.5-18.73,4.45-25.85,11.19-2,1.85-2.3,6-2.35,9.18-.4,25.66-.54,51.32-.8,77,0,3.23-.35,6.47-.56,10.27h-51.49C1638.41,1142.76,1638.93,1094.3,1639.46,1045.09Z"/><path class="cls-1" d="M605.19,1190.44v74.82h-49V1046.08c8.43-2.94,16.42-1.26,24.22-1.55,7.64-.29,15.29-.06,23.21-.06,1.06,2.76,2,5.16,3.08,8a41.26,41.26,0,0,0,4.4-2c13.19-7.89,27.19-12.28,42.79-10.63,20.65,2.19,36.3,12.36,47.25,29.73,18.84,29.91,16,74.89-6.3,102.4-18.17,22.45-49.56,31.34-78.86,22.29C613.16,1193.41,610.41,1192.31,605.19,1190.44Zm1-67h-.83c0,8,.21,15.94-.1,23.9-.14,3.79,1,6.2,4.22,8.2,16.72,10.5,40.34,3.7,48.15-14.39,5.89-13.66,6-27.78.86-41.75-3.34-9.1-10-14.78-19.62-16.46-9.89-1.73-19.09.41-27.64,5.7-3.42,2.12-5.17,4.77-5.09,8.92C606.28,1106.15,606.17,1114.78,606.17,1123.41Z"/><path class="cls-1" d="M2400.22,973.29h49v218.48h-48.09l-2-7.2a8.83,8.83,0,0,0-2.74.7c-9.06,5.86-18.76,10.14-29.51,11.56-27,3.57-51.67-8.27-64.25-32.67-17.24-33.45-14.54-66.57,6.88-97.2,16.33-23.35,47.23-32.79,75.87-25.26,4.46,1.18,8.84,2.62,14.75,4.38Zm-.68,141h.67c0-8.3.28-16.61-.16-24.89-.14-2.56-1.57-6.09-3.56-7.35-12.16-7.66-36.89-9.34-47.32,11.52-7.22,14.43-7.21,29.53-1.85,44.47,3.26,9.09,10.26,14.56,19.88,16.15,9.93,1.64,19.07-.71,27.58-6a9.31,9.31,0,0,0,4.83-9C2399.38,1130.91,2399.54,1122.61,2399.54,1114.32Z"/><path class="cls-1" d="M5.36,1045.2c3.74-.35,5.68-.68,7.62-.69,13.3,0,26.61,0,40.24,0,.72,2.94,1.32,5.4,2,8.37a22.57,22.57,0,0,0,3.74-1.49c13.33-8.35,27.55-13.07,43.55-11.55,20.73,2,36.4,12.07,47.52,29.34,19.22,29.88,16.46,76.06-6.44,103.23-19.39,23-44.68,28.63-73.21,23.15-4.82-.93-9.46-2.74-15.53-4.54-.15,12.82-.34,25-.41,37.11-.07,12,0,23.94,0,35.58-7.88,2.85-38.72,3.25-49.11.89Zm107,74.66c-1.7-7.49-2.58-14.47-4.92-20.93-3.28-9-10.16-14.63-19.87-16.1a38.51,38.51,0,0,0-26.72,5.53c-3.39,2.09-5.34,4.53-5.4,8.71-.25,16.93-.66,33.85-1.13,50.77a7.85,7.85,0,0,0,3.95,7.4c15.95,10.63,39.83,4.61,47.78-12.85C109.3,1135.3,110.38,1127.23,112.38,1119.86Z"/><path class="cls-1" d="M1088.21,0c49.38.16,87.5,47.84,76.31,95.43-8.75,37.16-44.35,60-82.94,53.12-39.89-7.08-68.87-45.86-64.27-86C1021.51,26.08,1051.19-.12,1088.21,0Z"/><path class="cls-1" d="M443.33,1198.28c-8.87-1.24-18-1.65-26.57-3.88-28.19-7.3-46.33-25.12-53.34-53.64a90.79,90.79,0,0,1,.94-48.35c8.83-29.42,29.54-45.86,59.16-51.37a107.84,107.84,0,0,1,47.54,1.7c31.92,8.42,52.77,34,54.63,68.27a109.57,109.57,0,0,1-2.59,30.65c-7.31,31.26-32.72,52.1-65.7,55.16-4.63.43-9.3.53-13.95.79Zm32.19-79.19c-1.85-8.11-2.78-15.77-5.39-22.8-4.23-11.4-13.23-17.09-25.37-17.52-12.47-.44-22.3,4.43-27.47,16-7.14,16-7.14,32.32.37,48.22,5,10.69,14.23,15.31,25.88,15.29s21-4.73,25.63-15.56C472.34,1135.23,473.5,1126.91,475.52,1119.09Z"/><path class="cls-1" d="M1333.74,1192h-51.66c-.24-49.16,0-97.8,1.33-147h50.25c.42,4.11.81,8,1.24,12.19,3.93.87,5.72-2.63,8.2-4.34,15.11-10.4,31.4-15.69,49.93-12.64,16.26,2.68,27.65,11.5,32.68,27.15a84.54,84.54,0,0,1,4.25,24.43c.4,31.62,0,63.25-.09,94.87a25.82,25.82,0,0,1-.58,3.82c-6.77,2.43-32.84,3.12-50.68,1.22-.18-3.28-.56-6.78-.55-10.28.11-23.3.32-46.6.45-69.9,0-3.66,0-7.33-.29-11-1-12.3-7.85-17.81-20.11-16.14-8.2,1.12-15.14,5.3-20.95,10.83-2,1.88-2.54,5.93-2.59,9-.43,25.3-.59,50.6-.82,75.9C1333.71,1183.76,1333.74,1187.35,1333.74,1192Z"/><path class="cls-1" d="M1195.05,1191.68c-.31-2.39-.59-4.32-.81-6.25s-.38-3.73-.69-6.82l-8.82,6.2c-13.91,9.74-29.2,14.15-46.24,12.28-18.13-2-30.53-11.41-35.71-28.81a96.68,96.68,0,0,1-4-26.55c-.21-31,.39-62,.72-93a19.4,19.4,0,0,1,.86-3.55H1150c.21,3.33.63,6.82.62,10.31,0,23.67-.2,47.33-.31,71,0,2.66-.08,5.34.06,8,.75,14.9,10.15,21.62,24.42,17.28,3.16-1,6.06-2.72,9.08-4.13,7.72-3.6,10.75-9.13,10.65-18.14-.29-25.64.58-51.31,1-77,0-2.27.41-4.53.69-7.42H1245c2.21,6.89,2.51,125.62.41,145.48C1238.78,1192.94,1211.75,1193.58,1195.05,1191.68Z"/><path class="cls-1" d="M337.78,1130.76H238.54c0,14,7.51,24,20.77,27.53,14.87,4,29.05,1.64,42.51-5.57,3.77-2,7.43-4.25,12.21-7,5.61,9.75,11,19.17,17,29.57-3.1,2.37-5.7,4.81-8.7,6.57-26.21,15.47-54.5,20-83.74,12.4-30.21-7.87-46.51-29.3-51.83-59.61-6.42-36.62,14-75.05,47.85-89.13,20.62-8.58,41.6-8.15,62.42-.64,10.26,3.71,18.42,10.48,25.16,19.07C333,1077.66,341.06,1106.76,337.78,1130.76Zm-46.28-31.47c1.29-18.63-10.58-30.06-27.13-27-12.6,2.36-22.15,12.45-25,27Z"/><path class="cls-1" d="M2168.24,1130.35c.61,15.08,8.18,24.64,21.38,28.08,13.8,3.61,27.1,1.65,39.79-4.54,4.47-2.18,8.68-4.88,14-7.91,6.65,9.08,11.46,19.11,17.38,29.26-2.68,2.16-4.77,4.26-7.23,5.76-27,16.46-56.14,21.15-86.38,12.86-29.71-8.14-46-29.68-50.53-59.54-6.48-42.66,19.15-83.45,60.42-92.88a85.77,85.77,0,0,1,46.3,2.18c16.06,5.2,27.65,15.69,35,30.76,8.07,16.53,10.58,34.21,10.23,52.41,0,.9-.66,1.79-1.36,3.56Zm53.25-31c.92-21.06-14.41-33-32.25-25.71-11.15,4.54-17.48,13.36-20.93,25.71Z"/><path class="cls-1" d="M976.16,1130.47H875.31c.62,14.62,7.83,24.16,20.88,27.77,14.46,4,28.37,1.88,41.6-4.94,4.11-2.12,8.06-4.55,13.34-7.55,5.69,9.88,11.22,19.5,17.34,30.15-6.26,3.84-11.62,7.75-17.49,10.61a109.28,109.28,0,0,1-66.16,9.82c-30.88-4.9-51.09-22.89-59.18-53.41-10.15-38.24,7.63-78.79,41.94-95.51,21.82-10.63,44.39-10.68,66.89-2.36,13.29,4.92,23.1,14.29,29.77,26.81C973.75,1089.7,976.2,1109,976.16,1130.47Zm-47.32-31.12c1.2-16-7.69-27.08-21.82-27.63-14.37-.55-28.26,11.87-30.3,27.63Z"/><path class="cls-1" d="M1988.26,1044.59h21c.56-16.85,1.11-33,1.66-49.46h48.91c1.42,16-.75,31.93.48,49.14h39.6v38H2059c-.26,4.79-.51,8.37-.64,12q-.66,18.48-1.23,37a67.15,67.15,0,0,0,.24,9c1.41,12.77,8.48,17.38,20.79,13.4,3.75-1.21,7.26-3.14,12.22-5.33,3.72,11.59,7.31,22.8,11.06,34.5-21.75,13-43.9,18-67.81,12.8-12.57-2.72-20.32-11.25-23.29-23.54a92,92,0,0,1-2.63-20.75c-.12-19.32.38-38.64.63-58,0-3.23,0-6.47,0-10.43l-20.71-1C1987,1069.65,1987.55,1057.9,1988.26,1044.59Z"/><path class="cls-1" d="M795.23,1192H743.79c0-72.93.26-145.32,1-218.53h51.44C796.13,1046.07,795.9,1118.46,795.23,1192Z"/><path class="cls-1" d="M1516.29,973.33v218.51h-50.93c-.26-3.66-.8-7.47-.77-11.28q.45-82.43,1-164.85c.07-10.66,0-21.32.08-32,0-3.26.29-6.51.48-10.41Z"/><path class="cls-1" d="M1969.29,1191.91h-50.45V1045.18h50.45Z"/><path class="cls-1" d="M1601.06,1191.91h-49.69c-.18-48.78.4-97.21.67-147.07,17.16-.74,33.61-.28,49.89-.27C1604.37,1052.94,1603.56,1179.67,1601.06,1191.91Z"/><path class="cls-1" d="M1552.54,1022.14V981.25c7-2.62,39.15-3.1,50.71-.67v41.61C1586.61,1022.41,1570.21,1022.41,1552.54,1022.14Z"/><path class="cls-1" d="M1970,980.42v39.92c-7.11,2.41-37.34,2.91-50.14.79v-40C1926.8,978.69,1956.89,978.16,1970,980.42Z"/></g></g></g></svg>