<?xml version="1.0" encoding="utf-8"?>
<!-- Generator: Adobe Illustrator 16.0.3, SVG Export Plug-In . SVG Version: 6.00 Build 0)  -->
<!DOCTYPE svg PUBLIC "-//W3C//DTD SVG 1.1//EN" "http://www.w3.org/Graphics/SVG/1.1/DTD/svg11.dtd">
<svg version="1.1" id="Capa_1" xmlns="http://www.w3.org/2000/svg" xmlns:xlink="http://www.w3.org/1999/xlink" x="0px" y="0px"
	 width="595.281px" height="841.891px" viewBox="0 0 595.281 841.891" enable-background="new 0 0 595.281 841.891"
	 xml:space="preserve">
<title>logo plaza</title>
<path d="M67.023,403.574c0.098,6.729-2.842,13.145-8.004,17.463c-5.323,4.711-11.922,7.068-19.796,7.068
	c-4.725,0-9.368-0.199-13.93-0.597v20.929c0,2.754,0.352,4.687,1.035,5.789c0.882,1.246,2.146,2.172,3.602,2.636
	c2.447,0.806,4.979,1.33,7.545,1.563c0.625,0.078,0.976,0.615,0.976,1.591c0,0.978-0.312,1.659-0.976,1.659
	c-2.642,0-5.775-0.117-9.4-0.351c-3.465-0.234-6.403-0.361-8.785-0.361s-5.359,0.127-8.864,0.361
	c-3.696,0.232-6.846,0.351-9.449,0.351c-0.634,0-0.976-0.556-0.976-1.659c0-1.103,0.313-1.482,0.976-1.591
	c4.764-0.557,8.004-1.436,9.762-2.665c1.757-1.229,2.567-3.66,2.567-7.331v-55.641c0-2.759-0.345-4.711-1.035-5.857
	c-0.895-1.278-2.201-2.212-3.7-2.645c-2.463-0.812-5.011-1.339-7.595-1.572c-0.634,0-0.976-0.547-0.976-1.621
	c0-1.074,0.313-1.63,0.976-1.63c2.603,0,5.747,0.117,9.43,0.351c3.495,0.244,6.453,0.361,8.854,0.361
	c2.401,0,5.33-0.117,8.785-0.361c3.631-0.234,6.765-0.351,9.4-0.351c9.684,0,17.05,2.05,22.1,6.15
	C64.596,389.713,67.088,395.7,67.023,403.574z M53.962,403.574c0-6.313-1.549-11.252-4.646-14.818
	c-3.084-3.555-7.617-5.516-12.319-5.33c-2.393-0.076-4.786,0.164-7.116,0.713c-1.417,0.311-2.671,1.13-3.524,2.304
	c-0.684,1.074-1.035,3.182-1.035,6.345v27.206c0,1.697,0.537,2.841,1.601,3.407c1.064,0.564,3.368,0.857,6.911,0.857
	c6.423,0,11.389-1.835,14.896-5.505C52.237,415.083,53.981,410.023,53.962,403.574z"/>
<path d="M111.477,449.151c-1.061,4.018-1.879,8.096-2.45,12.212c-8.46-0.269-14.493-0.4-18.098-0.4s-9.557,0.133-17.854,0.4
	c-0.352,0-0.537-0.313-0.537-0.978s0.186-0.85,0.537-0.897c2.675-0.313,4.5-0.811,5.457-1.493c0.957-0.684,1.445-2.061,1.445-4.119
	v-31.237c0.083-1.121-0.115-2.245-0.576-3.27c-0.5-0.707-1.216-1.23-2.041-1.494c-1.392-0.45-2.829-0.745-4.285-0.878
	c-0.352,0-0.537-0.303-0.537-0.908s0.186-0.918,0.537-0.918c1.484,0,3.25,0.068,5.31,0.195c2.06,0.127,3.612,0.215,4.979,0.215
	c1.367,0,2.997-0.068,4.949-0.205c1.952-0.137,3.797-0.195,5.271-0.195c0.361,0,0.537,0.303,0.537,0.918
	c0,0.615-0.176,0.908-0.537,0.908c-1.443,0.136-2.867,0.431-4.246,0.878c-0.822,0.251-1.535,0.774-2.021,1.484
	c-0.461,1.028-0.656,2.156-0.566,3.28v32.271c0,2.604,1.282,3.905,3.846,3.905h6.579c2.48,0.073,4.913-0.694,6.902-2.177
	c1.884-1.445,3.738-4.159,5.574-8.112c0.088-0.187,0.303-0.273,0.634-0.273c0.292,0.001,0.577,0.098,0.811,0.273
	C111.323,448.66,111.467,448.894,111.477,449.151z"/>
<path d="M160.344,460.484c0,0.614-0.176,0.977-0.537,0.977c-1.523,0-3.25-0.068-5.173-0.195c-1.669-0.137-3.085-0.205-4.256-0.205
	c-1.357,0-3.026,0.068-5.018,0.205c-1.991,0.138-3.904,0.195-5.378,0.195c-0.352,0-0.527-0.303-0.527-0.908
	c0-0.614,0.127-0.918,0.391-0.918c1.456,0.015,2.9-0.251,4.256-0.779c0.8-0.351,1.31-1.148,1.288-2.021
	c-0.08-0.951-0.3-1.885-0.654-2.771l-3.788-11.119h-13.666l-3.797,10.289c-0.405,1.022-0.649,2.104-0.722,3.201
	c0,1.952,1.786,3.025,5.369,3.201c0.273,0,0.4,0.304,0.4,0.918c0,0.615-0.176,0.908-0.527,0.908c-1.328,0-2.801-0.068-4.412-0.195
	c-1.611-0.127-2.929-0.204-4.081-0.204c-0.976,0-2.147,0.067-3.582,0.204c-1.435,0.138-2.782,0.195-3.846,0.195
	c-0.332,0-0.498-0.272-0.498-0.83c0-0.557,0.254-0.977,0.762-0.977c1.57-0.08,3.084-0.608,4.363-1.522
	c1.074-0.84,2.187-2.555,3.338-5.145l15.531-38.148c0.162-0.382,0.567-0.601,0.976-0.527c0.527,0,0.853,0.166,0.976,0.498
	l13.667,38.177c0.575,1.849,1.665,3.494,3.143,4.744c1.553,1.119,3.382,1.795,5.291,1.951
	C160.09,459.586,160.344,459.879,160.344,460.484z M140.215,440.766l-5.857-16.916l-6.277,16.916H140.215z"/>
<path d="M204.017,450.078c-1.018,3.795-1.785,7.652-2.294,11.548c-2.212-0.436-8.642-0.657-19.289-0.663
	c-10.992,0-17.5,0.221-19.523,0.663c-0.576,0-0.869-0.39-0.869-1.181l0.137-0.537l31.901-42.199h-14.916
	c-6.723,0-11.424,3.023-14.105,9.068c-0.176,0.42-0.43,0.625-0.762,0.625c-0.732,0-1.103-0.234-1.103-0.693l0.137-0.469
	c1.447-3.695,2.675-7.473,3.68-11.313c1.887,0.442,7.744,0.664,17.571,0.664c10.374,0,16.448-0.221,18.225-0.664
	c0.576,0,0.859,0.41,0.859,1.25c-0.002,0.182-0.061,0.359-0.166,0.507l-31.872,42.161h17.571c2.91,0.08,5.772-0.757,8.18-2.392
	c2.293-1.638,3.968-4,4.754-6.707c0.093-0.336,0.414-0.559,0.762-0.526C203.646,449.22,204.017,449.503,204.017,450.078z"/>
<path d="M253.488,460.484c0,0.614-0.175,0.977-0.537,0.977c-1.523,0-3.25-0.068-5.184-0.195c-1.659-0.137-3.075-0.205-4.246-0.205
	c-1.357,0-3.026,0.068-5.018,0.205c-1.991,0.138-3.904,0.195-5.378,0.195c-0.352,0-0.537-0.303-0.537-0.908
	c0-0.604,0.137-0.918,0.4-0.918c1.456,0.015,2.9-0.251,4.256-0.779c0.8-0.351,1.31-1.148,1.289-2.021
	c-0.084-0.951-0.308-1.885-0.664-2.771l-3.778-11.119h-13.666l-3.719,10.19c-0.405,1.023-0.649,2.104-0.723,3.202
	c0,1.952,1.787,3.025,5.369,3.201c0.273,0,0.4,0.303,0.4,0.918s-0.175,0.908-0.527,0.908c-1.328,0-2.802-0.068-4.422-0.195
	c-1.621-0.127-2.929-0.205-4.071-0.205c-0.976,0-2.147,0.068-3.583,0.205s-2.792,0.195-3.846,0.195c-0.332,0-0.498-0.273-0.498-0.83
	c0-0.558,0.254-0.978,0.761-0.978c1.552-0.097,3.044-0.632,4.305-1.542c1.074-0.84,2.187-2.555,3.338-5.145l15.531-38.148
	c0.162-0.382,0.567-0.601,0.976-0.527c0.527,0,0.853,0.166,0.976,0.498l13.666,38.177c0.572,1.848,1.659,3.493,3.134,4.744
	c1.572,1.103,3.414,1.758,5.33,1.894C253.264,459.586,253.488,459.879,253.488,460.484z M233.36,440.766l-5.857-16.916
	l-6.287,16.916H233.36z"/>
<path d="M328.964,403.574c0.098,6.728-2.838,13.142-7.994,17.463c-5.33,4.711-11.932,7.068-19.807,7.068
	c-4.718,0-9.357-0.199-13.919-0.597v20.929c0,2.754,0.345,4.684,1.035,5.789c0.877,1.251,2.144,2.178,3.602,2.636
	c2.444,0.806,4.973,1.329,7.537,1.563c0.623,0.078,0.975,0.615,0.975,1.591c0,0.978-0.321,1.659-0.975,1.659
	c-2.649,0-5.783-0.117-9.401-0.351c-3.465-0.234-6.403-0.361-8.785-0.361s-5.359,0.127-8.864,0.361
	c-3.67,0.232-6.823,0.351-9.459,0.351c-0.634,0-0.976-0.556-0.976-1.659c0-1.103,0.313-1.513,0.976-1.591
	c4.764-0.557,8.015-1.436,9.762-2.665c1.748-1.229,2.567-3.66,2.567-7.331v-55.641c0-2.759-0.345-4.711-1.035-5.857
	c-0.876-1.27-2.156-2.205-3.631-2.655c-2.473-0.814-5.031-1.342-7.624-1.572c-0.634,0-0.976-0.547-0.976-1.621
	s0.313-1.63,0.976-1.63c2.636,0,5.789,0.117,9.459,0.351c3.501,0.248,6.453,0.368,8.854,0.361c2.401,0,5.339-0.117,8.785-0.361
	c3.586-0.228,6.697-0.341,9.333-0.341c9.684,0,17.033,2.05,22.051,6.15C326.447,389.713,328.958,395.7,328.964,403.574z
	 M315.904,403.574c0-6.313-1.545-11.252-4.638-14.818c-3.09-3.553-7.623-5.513-12.327-5.33c-2.395-0.076-4.787,0.164-7.118,0.713
	c-1.427,0.3-2.69,1.122-3.543,2.304c-0.693,1.074-1.035,3.182-1.035,6.345v27.206c0,1.697,0.527,2.841,1.591,3.407
	c1.064,0.564,3.368,0.857,6.911,0.857c6.423,0,11.388-1.835,14.896-5.505c3.509-3.67,5.259-8.73,5.252-15.179L315.904,403.574
	L315.904,403.574z"/>
<path d="M383.63,416.108c0,0.605-0.176,0.908-0.527,0.908c-2.793,0.351-4.655,0.869-5.612,1.542c-0.957,0.673-1.426,2.05-1.426,4.1
	v20.831c0,5.916-1.425,10.549-4.275,13.899c-2.85,3.353-6.861,5.034-12.035,5.047c-5.922,0-10.543-1.601-13.861-4.803
	c-3.319-3.202-4.977-7.559-4.969-13.07v-21.904c0.082-1.106-0.108-2.216-0.557-3.231c-0.474-0.721-1.181-1.256-2.002-1.513
	c-1.388-0.467-2.826-0.768-4.285-0.898c-0.353,0-0.527-0.303-0.527-0.908c0-0.615,0.176-0.918,0.527-0.918
	c1.484,0,3.242,0.068,5.281,0.195c2.041,0.127,3.592,0.205,4.938,0.205c1.348,0,3.017-0.068,4.979-0.205
	c1.963-0.137,3.825-0.195,5.311-0.195c0.361,0,0.537,0.303,0.537,0.918c0,0.615-0.176,0.908-0.537,0.908
	c-1.453,0.134-2.887,0.429-4.274,0.878c-0.828,0.258-1.546,0.783-2.041,1.494c-0.47,1.022-0.67,2.148-0.586,3.271v20.968
	c0,5.447,1.028,9.442,3.086,11.987c2.057,2.545,5.409,3.819,10.063,3.825c8.738,0,13.109-5.53,13.109-16.595v-20.187
	c0-2.05-0.498-3.437-1.476-4.129c-0.977-0.693-2.84-1.201-5.563-1.513c-0.353,0-0.527-0.303-0.527-0.908
	c0-0.615,0.176-0.918,0.527-0.918c0.977,0,2.344,0.068,4.002,0.195c1.66,0.127,3.076,0.205,4.141,0.205
	c1.063,0,2.381-0.068,3.974-0.205c1.59-0.137,3.016-0.195,4.118-0.195C383.494,415.19,383.63,415.493,383.63,416.108z"/>
<path fill="#2CBEC9" d="M360.3,411.042c-0.178,0.12-0.383,0.188-0.596,0.195c-0.156,0-0.391-0.156-0.685-0.459"/>
<path d="M425.332,447.794c0.15,3.729-1.357,7.332-4.119,9.84c-2.746,2.474-6.389,3.706-10.924,3.7c-1.484,0-3.582-0.065-6.297-0.195
	c-2.603-0.137-4.574-0.205-5.914-0.205c-1.342,0-3.156,0.068-5.447,0.205c-2.363,0.123-4.285,0.188-5.77,0.195
	c-0.361,0-0.537-0.313-0.537-0.977s0.176-0.851,0.537-0.898c2.674-0.313,4.494-0.81,5.457-1.493c0.977-0.684,1.444-2.06,1.444-4.119
	V422.61c0.084-1.122-0.116-2.249-0.586-3.271c-0.496-0.71-1.215-1.236-2.041-1.494c-1.389-0.45-2.821-0.745-4.274-0.878
	c-0.361,0-0.537-0.303-0.537-0.908s0.176-0.918,0.537-0.918c1.483,0,3.299,0.068,5.438,0.195c2.138,0.127,3.758,0.205,5.115,0.205
	c1.354,0,3.113-0.068,5.301-0.205c2.187-0.137,4.228-0.195,5.699-0.195c4.141,0,7.479,0.977,10.016,2.929
	c2.478,1.819,3.904,4.736,3.818,7.81c-0.064,2.398-1.08,4.674-2.822,6.325c-1.885,1.969-4.315,3.328-6.979,3.904
	c3.455,0.554,6.694,2.03,9.381,4.274C424.042,442.208,425.328,444.926,425.332,447.794z M414.867,425.929
	c0-2.929-0.713-5.076-2.156-6.453c-1.445-1.376-3.672-2.06-6.707-2.06h-1.289c-2.781,0-4.178,1.191-4.178,3.592v14.467h4.772
	c3.371,0,5.813-0.749,7.322-2.244C414.142,431.733,414.886,429.3,414.867,425.929z M418.029,447.794
	c0.465-5.192-3.369-9.777-8.563-10.241c-0.563-0.051-1.131-0.05-1.695,0.002h-7.233v16.399c0,2.021,0.576,3.396,1.719,4.139
	c1.144,0.743,3.123,1.112,5.916,1.112c2.721,0.079,5.332-1.076,7.105-3.143C417.197,453.748,418.179,450.798,418.029,447.794z"/>
<path d="M468.351,449.151c-1.063,4.018-1.887,8.095-2.461,12.212c-8.459-0.269-14.487-0.4-18.088-0.4
	c-3.598,0-9.553,0.133-17.862,0.4c-0.353,0-0.527-0.313-0.527-0.978s0.176-0.85,0.527-0.897c2.684-0.313,4.5-0.811,5.467-1.493
	c0.967-0.684,1.442-2.061,1.442-4.119v-31.237c0.086-1.121-0.114-2.248-0.584-3.27c-0.496-0.71-1.215-1.236-2.041-1.494
	c-1.393-0.45-2.828-0.745-4.284-0.878c-0.353,0-0.527-0.303-0.527-0.908c0-0.615,0.176-0.918,0.527-0.918
	c1.483,0,3.26,0.068,5.319,0.195s3.621,0.205,4.979,0.205c1.354,0,2.996-0.068,4.938-0.205c1.941-0.137,3.797-0.195,5.281-0.195
	c0.35,0,0.535,0.303,0.535,0.918c0,0.615-0.187,0.908-0.535,0.908c-1.445,0.135-2.869,0.43-4.248,0.878
	c-0.834,0.256-1.561,0.786-2.059,1.503c-0.453,1.031-0.646,2.157-0.558,3.28v32.262c0,2.604,1.281,3.905,3.847,3.905h6.569
	c2.482,0.073,4.918-0.694,6.91-2.177c1.875-1.445,3.738-4.159,5.574-8.112c0.088-0.187,0.303-0.273,0.625-0.273
	c0.295-0.001,0.584,0.097,0.82,0.273C468.179,448.652,468.335,448.887,468.351,449.151z"/>
<path d="M494.013,460.484c0,0.614-0.176,0.977-0.537,0.977c-1.481,0-3.239-0.068-5.278-0.195c-2.041-0.127-3.595-0.205-4.939-0.205
	c-1.348,0-2.998,0.068-4.949,0.205c-1.952,0.138-3.838,0.195-5.34,0.195c-0.36,0-0.537-0.313-0.537-0.977s0.177-0.851,0.537-0.898
	c2.674-0.313,4.492-0.81,5.457-1.493c0.976-0.684,1.443-2.06,1.443-4.119v-31.236c0.086-1.122-0.115-2.248-0.586-3.271
	c-0.494-0.71-1.213-1.236-2.039-1.494c-1.389-0.449-2.822-0.744-4.275-0.878c-0.36,0-0.537-0.303-0.537-0.908
	s0.177-0.918,0.537-0.918c1.502,0,3.279,0.068,5.34,0.195c2.06,0.127,3.593,0.205,4.949,0.205c1.355,0,2.996-0.068,4.939-0.205
	c1.94-0.137,3.797-0.195,5.278-0.195c0.361,0,0.537,0.303,0.537,0.918c0,0.615-0.176,0.908-0.537,0.908
	c-1.442,0.136-2.866,0.431-4.245,0.878c-0.822,0.257-1.535,0.779-2.029,1.484c-0.453,1.031-0.646,2.157-0.558,3.28v31.236
	c-0.082,1.109,0.109,2.223,0.558,3.24c0.488,0.705,1.192,1.23,2.01,1.494c1.375,0.45,2.797,0.744,4.236,0.878
	C493.818,459.586,494.013,459.879,494.013,460.484z"/>
<path d="M544.9,449.083c-0.8,3.533-1.578,7.295-2.332,11.284c-2.297,0.132-4.58,0.432-6.834,0.897
	c-3.115,0.646-6.279,1.037-9.459,1.171c-4.603,0.104-9.16-0.923-13.275-2.986c-3.738-1.92-6.832-4.894-8.902-8.551
	c-2.141-3.765-3.241-8.028-3.19-12.358c-0.029-4.354,1.139-8.633,3.377-12.367c2.215-3.732,5.426-6.775,9.272-8.786
	c4.107-2.141,8.685-3.224,13.314-3.153c2.801,0.056,5.594,0.278,8.367,0.664c1.969,0.289,3.953,0.464,5.942,0.527
	c0.287,3.104,0.795,6.869,1.523,11.294c0,0.353-0.352,0.527-1.064,0.527c-0.362,0.057-0.709-0.171-0.801-0.527
	c-0.785-3.007-2.606-5.641-5.145-7.438c-2.623-1.95-5.818-2.979-9.088-2.929c-5.136-0.031-9.984,2.351-13.101,6.433
	c-3.586,4.46-5.463,10.054-5.291,15.773c-0.145,5.591,1.715,11.047,5.242,15.386c3.494,4.235,7.768,6.354,12.816,6.354
	c7.899,0,13.497-3.738,16.791-11.216c0.153-0.352,0.516-0.563,0.897-0.527C544.589,448.556,544.9,448.731,544.9,449.083z"/>
<path d="M595.281,460.484c0,0.614-0.177,0.977-0.527,0.977c-1.533,0-3.26-0.068-5.184-0.195c-1.66-0.137-3.074-0.205-4.256-0.205
	c-1.349,0-3.017,0.068-5.009,0.205c-2.108,0.127-3.903,0.195-5.389,0.195c-0.352,0-0.527-0.303-0.527-0.908
	c0-0.614,0.138-0.918,0.4-0.918c1.453,0.017,2.896-0.25,4.246-0.779c0.805-0.348,1.318-1.146,1.299-2.021
	c-0.084-0.951-0.309-1.885-0.664-2.771l-3.738-11.218h-13.666l-3.807,10.289c-0.412,1.021-0.66,2.104-0.731,3.202
	c0,1.952,1.795,3.025,5.379,3.201c0.264,0,0.397,0.303,0.397,0.918s-0.174,0.908-0.535,0.908c-1.327,0-2.793-0.068-4.411-0.195
	c-1.621-0.127-2.931-0.205-4.082-0.205c-0.976,0-2.146,0.068-3.582,0.205c-1.437,0.137-2.781,0.195-3.847,0.195
	c-0.332,0-0.498-0.273-0.498-0.83c0-0.558,0.265-0.978,0.771-0.978c1.57-0.08,3.084-0.607,4.363-1.521
	c1.073-0.84,2.188-2.555,3.338-5.146l15.531-38.147c0.157-0.385,0.565-0.605,0.977-0.527c0.533,0,0.859,0.166,0.977,0.498
	l13.666,38.177c0.578,1.848,1.668,3.491,3.144,4.744c1.555,1.117,3.383,1.792,5.291,1.952
	C595.066,459.586,595.281,459.879,595.281,460.484z M575.162,440.766l-5.857-16.916l-6.256,16.867L575.162,440.766z"/>
<path fill="#2CBEC9" d="M359.06,410.778c-0.256-0.221-0.416-0.532-0.448-0.869c0.024-0.25,0.155-0.478,0.36-0.625l9.929-9.4
	c0.229-0.221,0.539-0.341,0.858-0.332c0.779,0.018,1.504,0.405,1.951,1.044c0.498,0.556,0.791,1.266,0.83,2.011
	c0.053,0.505-0.191,0.995-0.625,1.259L360.3,411.07"/>
</svg>
